<svg width="90" height="91" viewBox="0 0 90 91" fill="none" xmlns="http://www.w3.org/2000/svg">
<path d="M45.0038 69.5507C45.2102 70.1063 45.534 70.6109 45.953 71.03C46.372 71.4492 46.8765 71.7732 47.432 71.9798C47.5246 72.0138 47.6046 72.0753 47.6611 72.1562C47.7176 72.2371 47.7478 72.3334 47.7478 72.432C47.7478 72.5307 47.7176 72.6269 47.6611 72.7078C47.6046 72.7887 47.5246 72.8502 47.432 72.8842C46.8765 73.0905 46.372 73.4142 45.9529 73.8333C45.5339 74.2523 45.2101 74.7568 45.0038 75.3124C44.9701 75.4053 44.9085 75.4856 44.8275 75.5424C44.7465 75.5991 44.65 75.6295 44.5512 75.6295C44.4523 75.6295 44.3558 75.5991 44.2748 75.5424C44.1938 75.4856 44.1323 75.4053 44.0985 75.3124C43.8922 74.7568 43.5685 74.2523 43.1494 73.8333C42.7304 73.4142 42.2259 73.0905 41.6703 72.8842C41.5777 72.8502 41.4977 72.7887 41.4413 72.7078C41.3848 72.6269 41.3545 72.5307 41.3545 72.432C41.3545 72.3334 41.3848 72.2371 41.4413 72.1562C41.4977 72.0753 41.5777 72.0138 41.6703 71.9798C42.2258 71.7732 42.7303 71.4492 43.1493 71.03C43.5683 70.6109 43.8921 70.1063 44.0985 69.5507C44.1327 69.4581 44.1944 69.3783 44.2753 69.3219C44.3563 69.2656 44.4525 69.2354 44.5512 69.2354C44.6498 69.2354 44.7461 69.2656 44.827 69.3219C44.9079 69.3783 44.9696 69.4581 45.0038 69.5507Z" fill="#080F21"/>
<path opacity="0.2" d="M67.4208 9.09646V20.0129C66.3879 20.2131 65.3379 20.3127 64.2858 20.3103C59.8462 20.3098 55.5887 18.5459 52.4495 15.4067C49.3102 12.2674 47.5464 8.00987 47.5459 3.57031H61.8909C63.3567 3.57056 64.7626 4.15274 65.7995 5.18893C66.8364 6.22512 67.4195 7.63056 67.4208 9.09646Z" fill="url(#paint0_linear_1387_16730)"/>
<path d="M76.9577 31.1026C77.0929 31.4586 77.302 31.7818 77.5712 32.051C77.8404 32.3202 78.1636 32.5293 78.5195 32.6644C78.5794 32.6861 78.6311 32.7257 78.6676 32.7778C78.7041 32.8299 78.7237 32.892 78.7237 32.9556C78.7237 33.0192 78.7041 33.0813 78.6676 33.1334C78.6311 33.1855 78.5794 33.2251 78.5195 33.2468C78.1638 33.3819 77.8406 33.5909 77.5715 33.8599C77.3023 34.129 77.0931 34.4519 76.9577 34.8076C76.9361 34.8675 76.8965 34.9192 76.8444 34.9557C76.7923 34.9922 76.7302 35.0118 76.6666 35.0118C76.6029 35.0118 76.5408 34.9922 76.4887 34.9557C76.4366 34.9192 76.3971 34.8675 76.3754 34.8076C76.2401 34.4521 76.031 34.1292 75.762 33.8602C75.493 33.5911 75.1701 33.3821 74.8145 33.2468C74.7547 33.2251 74.703 33.1855 74.6665 33.1334C74.63 33.0813 74.6104 33.0192 74.6104 32.9556C74.6104 32.892 74.63 32.8299 74.6665 32.7778C74.703 32.7257 74.7547 32.6861 74.8145 32.6644C75.1702 32.5291 75.4932 32.3199 75.7622 32.0507C76.0313 31.7815 76.2402 31.4584 76.3754 31.1026C76.3971 31.0428 76.4366 30.9911 76.4887 30.9546C76.5408 30.918 76.6029 30.8984 76.6666 30.8984C76.7302 30.8984 76.7923 30.918 76.8444 30.9546C76.8965 30.9911 76.9361 31.0428 76.9577 31.1026Z" fill="#080F21"/>
<path opacity="0.2" d="M22.6207 7.68262C22.6192 9.52908 21.8851 11.2995 20.5795 12.6052C19.274 13.911 17.5037 14.6453 15.6572 14.6471C14.0368 14.6519 12.4664 14.0858 11.2217 13.0482C11.263 11.6111 11.8629 10.2467 12.894 9.24481C13.9252 8.24293 15.3063 7.68252 16.744 7.68262H22.6207Z" fill="url(#paint1_linear_1387_16730)"/>
<path opacity="0.2" d="M24.1754 48.1396C24.1745 51.1773 23.2094 54.1364 21.419 56.5905C19.6285 59.0445 17.1053 60.8668 14.2128 61.7949C13.5889 61.2761 13.0867 60.6264 12.742 59.8919C12.3972 59.1573 12.2182 58.356 12.2178 57.5446V43.3202C12.22 41.8556 12.8031 40.4517 13.8391 39.4165C14.875 38.3812 16.2793 37.7991 17.7439 37.7979H19.7674C21.1637 39.1336 22.2744 40.739 23.0321 42.5166C23.7898 44.2942 24.1787 46.2072 24.1754 48.1396Z" fill="url(#paint2_linear_1387_16730)"/>
<path d="M35.4451 13.3243C35.4451 18.0543 35.5677 22.7996 35.4451 27.5277C35.3881 29.6966 34.0857 32.0507 31.7326 32.3271C30.9522 32.3805 30.1693 32.3887 29.388 32.3518H20.0011C19.071 32.3518 18.1371 32.3746 17.2071 32.3518C16.1836 32.3328 15.1901 32.0028 14.3586 31.4057C13.5272 30.8086 12.8971 29.9726 12.5521 29.0088C12.266 28.0224 12.157 26.9932 12.2301 25.9688V21.5988C12.2301 18.8438 12.2092 16.0774 12.2301 13.3176C12.1848 12.459 12.3558 11.6027 12.7272 10.8273C13.0987 10.0519 13.6588 9.38207 14.3562 8.8792C15.2986 8.36166 16.3781 8.1486 17.4465 8.2693H27.7701C28.6935 8.2693 29.6217 8.23985 30.5441 8.2693C31.8759 8.33553 33.1304 8.91504 34.0441 9.88622C34.9579 10.8574 35.46 12.1447 35.4451 13.4782C35.4651 14.1479 37.5351 13.7375 37.5104 12.9243C37.4811 11.702 37.0754 10.5185 36.3488 9.53514C35.6222 8.55181 34.61 7.81651 33.4502 7.4295C32.3346 7.1218 31.1756 7.00173 30.0207 7.0742H19.812C16.6124 7.0742 13.2637 7.06565 11.2155 10.0306C9.64134 12.3106 10.1705 15.7116 10.1705 18.3308C10.1705 21.3613 10.1458 24.3918 10.1705 27.4223C10.2018 31.2223 13.1943 33.5469 16.8205 33.5469H26.4411C29.3386 33.5469 32.5324 33.945 34.9986 32.0972C38.1165 29.7612 37.5152 25.9336 37.5152 22.5165V13.0725C37.5152 12.2004 35.4451 12.6289 35.4451 13.3243Z" fill="#080F21"/>
<path d="M66.3864 9.37396C66.3864 14.1021 66.5289 18.8512 66.3864 23.5774C66.3218 25.7624 64.8835 28.1773 62.5047 28.3208C61.7903 28.3635 61.0655 28.3284 60.3501 28.3284H50.7703C49.8935 28.3284 49.01 28.3607 48.1341 28.3284C47.0558 28.2807 46.0195 27.8967 45.1705 27.2302C44.3216 26.5637 43.7025 25.6481 43.4003 24.612C43.1888 23.6854 43.1126 22.7331 43.1742 21.7848V17.5791C43.1742 14.7652 43.1428 11.9504 43.1742 9.13741C43.1352 8.25181 43.3222 7.37086 43.7176 6.57745C44.113 5.78405 44.7037 5.10428 45.4342 4.60211C46.3648 4.14403 47.4083 3.96614 48.4381 4.09006H58.7931C59.6823 4.09006 60.581 4.05586 61.4702 4.09006C62.8093 4.17706 64.0646 4.77269 64.9789 5.75501C65.8932 6.73732 66.3974 8.03201 66.3883 9.37396C66.4044 9.90786 68.4783 9.53641 68.4536 8.82011C68.4251 7.58474 68.0078 6.38979 67.2612 5.40519C66.5145 4.42059 65.4764 3.69645 64.2945 3.33576C63.2111 3.07723 62.0954 2.98118 60.9838 3.05076H50.7703C47.6012 3.05076 44.2211 3.02606 42.1776 5.96251C40.5759 8.26246 41.1098 11.7224 41.1098 14.3795C41.1098 17.391 41.0813 20.4044 41.1098 23.4159C41.1459 27.2691 44.2543 29.3658 47.8349 29.3658H57.578C60.523 29.3658 63.7017 29.7249 66.166 27.7508C69.0777 25.4128 68.4564 21.5758 68.4564 18.2669V8.82296C68.4517 8.30046 66.3864 8.65101 66.3864 9.37396Z" fill="#080F21"/>
<path d="M36.4619 43.5929C36.4619 48.3106 36.6205 53.0559 36.4619 57.7707C36.3925 59.836 35.1205 62.078 32.925 62.4343C32.1442 62.5133 31.3583 62.5301 30.5747 62.4846H21.1194C20.1694 62.4846 19.2194 62.5046 18.2694 62.4846C17.0976 62.4632 15.9689 62.0388 15.0732 61.2829C14.1774 60.527 13.5694 59.4856 13.3513 58.334C13.2357 57.4894 13.2007 56.6356 13.2468 55.7843V51.3364C13.2468 48.6555 13.1926 45.9689 13.2468 43.288C13.2174 42.3914 13.4273 41.5032 13.8551 40.7148C14.2829 39.9263 14.913 39.2661 15.6807 38.8021C16.601 38.4139 17.6053 38.2674 18.5981 38.3764H28.8866C29.7777 38.3764 30.6735 38.3479 31.5646 38.3764C32.896 38.4469 34.1486 39.0289 35.0611 40.0009C35.9737 40.9729 36.4755 42.2598 36.4619 43.5929C36.4809 44.237 38.5519 43.8342 38.5262 43.04C38.4991 41.8521 38.1157 40.6997 37.4257 39.7323C36.7358 38.7649 35.7712 38.0271 34.6569 37.6146C33.5324 37.2708 32.3552 37.1328 31.1818 37.207H21.0216C17.8866 37.207 14.6566 37.1063 12.4716 39.8413C10.6666 42.0967 11.1853 45.4464 11.1853 48.1491C11.1853 51.2661 11.1654 54.383 11.1853 57.5C11.1596 58.4491 11.3605 59.3907 11.7714 60.2466C12.1823 61.1026 12.7913 61.8483 13.5479 62.4219C14.866 63.315 16.4427 63.7466 18.0319 63.6493H27.8777C30.8711 63.6493 34.0631 63.9904 36.4809 61.8225C39.1751 59.4066 38.5262 55.5088 38.5262 52.2569V43.0419C38.5262 42.413 36.4619 42.7978 36.4619 43.5929Z" fill="#080F21"/>
<path d="M64.0027 38.1876V41.1706C63.7545 41.0739 63.4901 41.0252 63.2237 41.0272C62.9231 41.0285 62.6257 41.0895 62.3488 41.2066C62.0719 41.3238 61.8211 41.4947 61.6108 41.7095C61.4004 41.9244 61.2349 42.1788 61.1236 42.4581C61.0124 42.7374 60.9577 43.036 60.9627 43.3366L61.1812 54.4231C61.1717 54.4231 61.1622 54.4326 61.1527 54.4326C60.7646 54.5505 60.3614 54.6113 59.9557 54.6131H47.5868C47.054 54.6134 46.5264 54.5086 46.0341 54.3048C45.5419 54.1011 45.0946 53.8023 44.7178 53.4255C44.3411 53.0488 44.0423 52.6015 43.8386 52.1093C43.6348 51.617 43.53 51.0894 43.5303 50.5566V38.1876C43.5301 37.6553 43.635 37.1281 43.839 36.6364C44.0429 36.1447 44.3418 35.698 44.7186 35.322C45.0955 34.9459 45.5428 34.648 46.0349 34.4451C46.5271 34.2422 47.0544 34.1384 47.5868 34.1397H59.9567C60.4884 34.1388 61.0151 34.2429 61.5065 34.446C61.9979 34.6492 62.4444 34.9474 62.8203 35.3234C63.1962 35.6995 63.4941 36.1461 63.697 36.6376C63.9 37.1291 64.0038 37.6559 64.0027 38.1876Z" fill="#080F21"/>
<path fill-rule="evenodd" clip-rule="evenodd" d="M49.7054 43.9642C49.9658 44.2227 50.3169 44.3693 50.6839 44.3727H56.8427C57.2134 44.371 57.5685 44.2229 57.8306 43.9606C58.0927 43.6984 58.2405 43.3432 58.242 42.9725C58.2423 42.7902 58.2066 42.6098 58.137 42.4414C58.0673 42.273 57.9652 42.12 57.8363 41.9911C57.7075 41.8623 57.5545 41.7601 57.3861 41.6905C57.2177 41.6209 57.0373 41.5852 56.855 41.5855H50.6962C50.5123 41.5853 50.3301 41.6215 50.1602 41.6918C49.9902 41.7621 49.8358 41.8653 49.7058 41.9953C49.5757 42.1254 49.4726 42.2798 49.4022 42.4497C49.3319 42.6197 49.2958 42.8018 49.2959 42.9858C49.2949 43.168 49.3307 43.3486 49.401 43.5167C49.4714 43.6848 49.5749 43.837 49.7054 43.9642Z" fill="white"/>
<path fill-rule="evenodd" clip-rule="evenodd" d="M49.7053 47.9422C49.9658 48.2007 50.3169 48.3473 50.6838 48.3507H56.8427C57.2134 48.349 57.5685 48.2009 57.8306 47.9386C58.0926 47.6764 58.2405 47.3212 58.242 46.9504C58.2423 46.7682 58.2066 46.5877 58.137 46.4192C58.0674 46.2508 57.9652 46.0977 57.8364 45.9688C57.7076 45.8399 57.5546 45.7376 57.3862 45.6679C57.2178 45.5982 57.0373 45.5624 56.855 45.5625H50.6962C50.5123 45.5624 50.3301 45.5985 50.1602 45.6688C49.9902 45.7392 49.8358 45.8423 49.7058 45.9724C49.5757 46.1024 49.4726 46.2568 49.4022 46.4268C49.3319 46.5967 49.2958 46.7789 49.2959 46.9628C49.296 47.145 49.3323 47.3254 49.4025 47.4935C49.4728 47.6616 49.5757 47.8142 49.7053 47.9422Z" fill="white"/>
<path fill-rule="evenodd" clip-rule="evenodd" d="M27.6946 18.5755H25.5875V16.4694C25.5937 16.2374 25.5534 16.0065 25.4691 15.7903C25.3848 15.5741 25.2581 15.3769 25.0965 15.2104C24.9349 15.0438 24.7417 14.9113 24.5281 14.8205C24.3146 14.7297 24.085 14.6825 23.853 14.6817C23.6209 14.6808 23.391 14.7264 23.1768 14.8157C22.9626 14.905 22.7684 15.0362 22.6057 15.2016C22.4429 15.367 22.3148 15.5632 22.229 15.7788C22.1431 15.9944 22.1012 16.225 22.1058 16.457V18.5632H19.9996C19.7677 18.557 19.5368 18.5972 19.3206 18.6815C19.1044 18.7659 18.9072 18.8925 18.7407 19.0541C18.5741 19.2157 18.4416 19.409 18.3508 19.6225C18.26 19.8361 18.2127 20.0657 18.2119 20.2977C18.2111 20.5298 18.2567 20.7597 18.346 20.9739C18.4352 21.1881 18.5664 21.3822 18.7318 21.545C18.8972 21.7078 19.0935 21.8359 19.3091 21.9217C19.5247 22.0076 19.7553 22.0494 19.9873 22.0449H22.0934V24.1511C22.0934 24.6144 22.2775 25.0588 22.6051 25.3864C22.9328 25.7141 23.3771 25.8981 23.8405 25.8981C24.3038 25.8981 24.7482 25.7141 25.0758 25.3864C25.4034 25.0588 25.5875 24.6144 25.5875 24.1511V22.0449H27.6946C28.1547 22.0449 28.5959 21.8622 28.9212 21.5368C29.2465 21.2115 29.4293 20.7703 29.4293 20.3102C29.4293 19.8501 29.2465 19.4089 28.9212 19.0836C28.5959 18.7583 28.1547 18.5755 27.6946 18.5755Z" fill="#080F21"/>
<path fill-rule="evenodd" clip-rule="evenodd" d="M52.4501 20.6818C52.9102 20.6818 53.3516 20.4993 53.6775 20.1745L59.1285 14.7348C59.2907 14.5729 59.4194 14.3807 59.5073 14.169C59.5952 13.9574 59.6406 13.7306 59.6408 13.5014C59.641 13.2723 59.5961 13.0454 59.5086 12.8336C59.4211 12.6218 59.2928 12.4293 59.1309 12.2671C58.969 12.105 58.7768 11.9762 58.5652 11.8883C58.3536 11.8005 58.1267 11.7551 57.8976 11.7549C57.6685 11.7547 57.4415 11.7996 57.2297 11.8871C57.018 11.9745 56.8255 12.1029 56.6633 12.2648L51.2151 17.7083C51.0525 17.8702 50.9235 18.0627 50.8355 18.2746C50.7474 18.4866 50.7021 18.7138 50.7021 18.9433C50.7021 19.1727 50.7474 19.4 50.8355 19.6119C50.9235 19.8238 51.0525 20.0163 51.2151 20.1783C51.5463 20.4993 51.9888 20.6797 52.4501 20.6818Z" fill="#080F21"/>
<path fill-rule="evenodd" clip-rule="evenodd" d="M19.7743 52.8486C20.1012 53.172 20.5419 53.3542 21.0017 53.3559H28.7081C29.1714 53.3559 29.6158 53.1719 29.9434 52.8442C30.271 52.5166 30.4551 52.0722 30.4551 51.6089C30.4551 51.1455 30.271 50.7012 29.9434 50.3735C29.6158 50.0459 29.1714 49.8618 28.7081 49.8618H21.0131C20.6677 49.8632 20.3304 49.9666 20.0435 50.159C19.7567 50.3514 19.533 50.6242 19.4006 50.9432C19.2682 51.2622 19.2329 51.6132 19.2992 51.9522C19.3655 52.2912 19.5314 52.603 19.7743 52.8486Z" fill="#080F21"/>
<path d="M34.4125 80.9011C35.1381 80.9011 35.7263 80.3129 35.7263 79.5873C35.7263 78.8617 35.1381 78.2734 34.4125 78.2734C33.6869 78.2734 33.0986 78.8617 33.0986 79.5873C33.0986 80.3129 33.6869 80.9011 34.4125 80.9011Z" fill="#080F21"/>
<path d="M60.0381 62.728C60.2027 62.871 60.4033 62.9662 60.6182 63.0032C60.8331 63.0403 61.0541 63.0179 61.2571 62.9383C61.4601 62.8587 61.6374 62.725 61.7699 62.5518C61.9023 62.3786 61.9848 62.1724 62.0084 61.9556C62.0901 60.8422 61.9657 59.6756 61.9448 58.5594L61.8678 54.5048L61.7149 46.4687L61.6636 43.7508C61.6398 42.4968 62.3514 40.4087 64.029 41.8175C65.074 42.6982 64.8394 44.5374 64.8954 45.7676C64.942 46.7708 64.9847 47.7626 64.9847 48.7706L66.3603 48.402C66.3432 47.7683 66.328 47.167 66.974 46.844C67.2589 46.7275 67.5744 46.709 67.871 46.7911C68.1675 46.8733 68.4284 47.0516 68.6128 47.2981C69.3642 48.1227 69.0878 49.5458 69.0878 50.567C69.0878 50.9594 70.4643 50.7114 70.4643 50.1984V48.2528L69.35 48.7962C70.32 48.8585 71.2281 49.2944 71.8836 50.0122C72.539 50.73 72.8908 51.6739 72.865 52.6456L73.055 56.6014C73.0749 57.009 74.4553 56.7401 74.4315 56.2328L74.2339 51.9825L72.9039 52.4309C73.9128 53.1144 74.7268 54.0483 75.2659 55.1412C75.805 56.2341 76.0507 57.4483 75.979 58.6648V79.1696L77.0924 78.6262L69.1989 77.5936L64.1715 76.9381C63.7098 76.8357 63.24 76.7744 62.7674 76.7547C62.671 76.7585 62.5747 76.746 62.4824 76.7177C62.8501 76.8687 62.7142 76.8127 62.6525 76.389L62.3134 74.0491C62.2895 73.4522 62.1915 72.8606 62.0217 72.2878C61.333 71.032 60.5425 69.8348 59.6581 68.7082C59.0321 67.7677 58.388 66.8386 57.7505 65.9057C56.6856 64.3449 55.2967 62.7935 55.6662 60.752C55.9731 59.0638 57.5605 57.7357 58.6549 56.5121L61.7586 53.0399L60.4286 53.2204C60.4666 54.7404 60.5045 56.2604 60.4979 57.7804C60.5233 58.1002 60.5144 58.4219 60.4713 58.7399C60.3041 59.4362 59.6914 59.7849 59.414 60.4052C59.0444 61.227 59.604 61.9442 59.984 62.651C60.2224 63.0975 61.5524 62.6415 61.3605 62.2824C61.1673 61.9651 60.9923 61.6372 60.8361 61.3001C60.4713 60.3634 61.1724 59.8694 61.5961 59.1151C61.8476 58.5859 61.9463 57.9969 61.8811 57.4146C61.8868 55.8946 61.8498 54.3746 61.8118 52.8546C61.7985 52.3568 60.6262 52.8774 60.4818 53.0351L56.7844 57.1705C55.3223 58.8073 53.7491 60.409 54.3486 62.8363C54.638 63.718 55.0848 64.54 55.6672 65.2626L57.5881 68.0765C58.5058 69.4198 59.3931 70.7821 60.2918 72.1406C61.1468 73.4354 61.1021 75.5653 61.3482 77.262C61.3634 77.3646 61.5315 77.4254 61.6113 77.4359L76.2318 79.3482C76.5757 79.3938 77.3451 79.2656 77.3451 78.8048V58.5214C77.3451 55.8253 76.5168 53.4683 74.176 51.9037C73.8501 51.6852 72.8222 51.8296 72.846 52.3511L73.0436 56.6014L74.4201 56.2328C74.3526 54.7964 74.3251 53.3515 74.2159 51.917C74.0354 49.5515 72.3624 48.44 70.1926 48.079C69.8497 48.021 69.0792 48.1692 69.0792 48.6224V50.567C69.0792 50.9594 70.4558 50.7114 70.4558 50.1984C70.4558 49.199 70.6743 47.9678 70.1138 47.0824C69.8876 46.7508 69.5868 46.4768 69.2356 46.2826C68.8843 46.0884 68.4923 45.9794 68.0912 45.9643C67.6932 45.8896 67.2832 45.9079 66.8934 46.0179C66.5036 46.1278 66.1444 46.3264 65.8441 46.5981C65.5437 46.8698 65.3102 47.2072 65.1617 47.5841C65.0133 47.9609 64.9541 48.367 64.9885 48.7706C64.9999 49.1781 66.3641 48.9036 66.3641 48.402C66.3641 47.4729 66.329 46.5542 66.2862 45.627C66.3491 44.5387 66.2699 43.4468 66.0506 42.379C65.0313 39.3494 60.2994 40.6547 60.2813 43.594C60.2528 48.1607 60.4542 52.7397 60.5406 57.3054L60.5701 58.87L60.6081 60.8327L60.6281 61.8967C60.6127 62.0196 60.6149 62.144 60.6347 62.2663V62.4126C60.6233 62.7014 60.8519 62.6304 61.3206 62.1998C60.9796 61.8872 59.6904 62.4078 60.0381 62.728Z" fill="#080F21"/>
<path d="M64.9814 48.0581V48.6661L66.3636 48.515L66.3579 48.2471C66.3479 48.1339 66.3498 48.0199 66.3636 47.907C66.3712 47.8804 66.3725 47.8524 66.3674 47.8252C66.3623 47.798 66.3509 47.7723 66.3342 47.7503C66.3237 47.723 66.3076 47.6981 66.287 47.6774C66.2664 47.6566 66.2417 47.6403 66.2145 47.6296C66.1512 47.5942 66.0807 47.5734 66.0083 47.5688C65.9251 47.5519 65.8396 47.5496 65.7556 47.5622C65.5704 47.5804 65.3923 47.6426 65.236 47.7436C65.1139 47.8119 65.0228 47.9245 64.9814 48.0581C64.9681 48.171 64.9662 48.2849 64.9757 48.3982L64.9814 48.6661C64.9734 48.6926 64.9719 48.7206 64.9768 48.7479C64.9818 48.7751 64.9931 48.8008 65.0099 48.8228C65.0205 48.8502 65.0365 48.8751 65.0571 48.896C65.0777 48.9169 65.1024 48.9334 65.1296 48.9444C65.1932 48.9791 65.2635 48.9995 65.3357 49.0043C65.4189 49.0212 65.5044 49.0235 65.5884 49.0109C65.7739 48.9929 65.9525 48.9307 66.109 48.8295L66.2316 48.7345C66.2959 48.6765 66.3419 48.6008 66.3636 48.5169V47.9089C66.3712 47.8823 66.3725 47.8543 66.3674 47.8271C66.3623 47.7999 66.3509 47.7742 66.3342 47.7522C66.3237 47.7249 66.3076 47.7 66.287 47.6793C66.2664 47.6585 66.2417 47.6422 66.2145 47.6315C66.1512 47.5961 66.0807 47.5753 66.0083 47.5707C65.9251 47.5538 65.8396 47.5515 65.7556 47.5641C65.5704 47.5823 65.3923 47.6445 65.236 47.7455L65.1125 47.8405C65.0481 47.8984 65.0024 47.9741 64.9814 48.0581Z" fill="#080F21"/>
<path d="M64.4142 43.5123C64.4142 42.9063 63.923 42.415 63.317 42.415C62.711 42.415 62.2197 42.9063 62.2197 43.5123V44.4651C62.2197 45.0711 62.711 45.5624 63.317 45.5624C63.923 45.5624 64.4142 45.0711 64.4142 44.4651V43.5123Z" fill="#080F21"/>
<path d="M79.2509 84.8534C78.4823 85.089 77.7518 85.2999 77.0203 85.4984C75.5003 85.9193 74.0839 86.266 72.7586 86.551C70.7773 87.0009 68.7638 87.295 66.7366 87.4307C65.7048 87.5064 64.6684 87.494 63.6386 87.3937C63.227 87.3578 62.8176 87.2998 62.4122 87.2198C61.6905 87.0906 60.9882 86.87 60.3222 86.5634C59.5151 86.2026 58.8087 85.6498 58.2645 84.9531C58.1845 84.8439 58.1288 84.7188 58.1011 84.5862C58.0734 84.4537 58.0744 84.3167 58.104 84.1846L59.7893 76.6387C59.8449 76.3944 59.9706 76.1716 60.151 75.9976C60.3314 75.8236 60.5586 75.7061 60.8048 75.6593C61.152 75.5701 61.5189 75.5965 61.8498 75.7343C61.8621 75.7343 61.8621 75.7343 61.8745 75.7467C62.4321 75.9443 63.0268 76.1267 63.6215 76.2796C63.783 76.3167 63.9436 76.3537 64.0965 76.3908C64.9546 76.5864 65.8235 76.7314 66.6986 76.8249C68.3986 77.0122 70.1135 77.0204 71.8153 76.8496C73.0696 76.7232 74.3097 76.4825 75.5202 76.1305C75.8793 76.0193 76.2271 75.9072 76.5738 75.7837C76.5862 75.7837 76.5862 75.7837 76.5985 75.7714C76.7714 75.7084 76.9557 75.6829 77.1392 75.6965C77.3227 75.7102 77.5012 75.7627 77.6629 75.8505C77.8246 75.9384 77.9657 76.0596 78.077 76.2061C78.1883 76.3526 78.2672 76.5211 78.3085 76.7005L79.8817 83.7381C79.9137 83.8527 79.9228 83.9726 79.9084 84.0907C79.894 84.2089 79.8565 84.3231 79.7979 84.4267C79.7393 84.5303 79.6608 84.6213 79.5669 84.6946C79.473 84.7678 79.3657 84.8218 79.2509 84.8534Z" fill="#080F21"/>
<path d="M64.9721 48.3237C65.0671 50.3301 65.2001 52.3346 65.2961 54.341C65.3103 54.626 65.9212 54.5424 66.077 54.5006C66.324 54.4341 66.6878 54.2745 66.6726 53.9714C66.5776 51.966 66.4446 49.9615 66.3477 47.9551C66.3344 47.6701 65.7236 47.7537 65.5678 47.7955C65.3208 47.862 64.9569 48.0216 64.9721 48.3237Z" fill="#080F21"/>
<path d="M69.1398 49.2379C68.9992 51.5483 69.1674 53.8616 69.1398 56.1729C69.1332 56.7781 70.5145 56.5064 70.5202 56.0162C70.5477 53.7039 70.3796 51.3916 70.5202 49.0812C70.5572 48.4846 69.1702 48.7411 69.1398 49.2379Z" fill="#080F21"/>
<path d="M72.9581 52.8706C73.0303 55.3197 73.0433 57.7688 72.997 60.2179C72.997 60.4763 74.365 60.2787 74.3736 59.8493C74.4205 57.4002 74.4075 54.9511 74.3346 52.502C74.327 52.2256 72.9457 52.4507 72.9581 52.8706Z" fill="#080F21"/>
<defs>
<linearGradient id="paint0_linear_1387_16730" x1="47.5459" y1="11.9408" x2="67.4208" y2="11.9408" gradientUnits="userSpaceOnUse">
<stop offset="0.005" stop-color="#3063BA"/>
<stop offset="1" stop-color="#A3BFF6"/>
</linearGradient>
<linearGradient id="paint1_linear_1387_16730" x1="11.2179" y1="11.1663" x2="22.6169" y2="11.1663" gradientUnits="userSpaceOnUse">
<stop offset="0.005" stop-color="#3063BA"/>
<stop offset="1" stop-color="#A3BFF6"/>
</linearGradient>
<linearGradient id="paint2_linear_1387_16730" x1="12.2178" y1="49.7945" x2="24.1754" y2="49.7945" gradientUnits="userSpaceOnUse">
<stop offset="0.005" stop-color="#3063BA"/>
<stop offset="1" stop-color="#A3BFF6"/>
</linearGradient>
</defs>
</svg>
