<svg width="90" height="91" viewBox="0 0 90 91" fill="none" xmlns="http://www.w3.org/2000/svg">
<path opacity="0.2" fill-rule="evenodd" clip-rule="evenodd" d="M59.0134 12.7986V64.7541C58.6524 64.7731 58.2819 64.7826 57.9114 64.7826H47.2715V12.7729H57.9114C58.2819 12.7729 58.6524 12.7796 59.0134 12.7986Z" fill="url(#paint0_linear_1387_21368)"/>
<path opacity="0.2" fill-rule="evenodd" clip-rule="evenodd" d="M68.6932 13.8626V63.693C67.3833 64.2906 65.9777 64.6509 64.5418 64.757C64.2473 64.776 63.9528 64.7855 63.6583 64.7855H62.8223V12.7729H63.6583C63.9528 12.7729 64.2473 12.7824 64.5418 12.8014C65.9775 12.9066 67.3831 13.2659 68.6932 13.8626Z" fill="url(#paint1_linear_1387_21368)"/>
<path opacity="0.2" d="M33.7469 64.7854H20.3235C18.734 64.7862 17.16 64.4738 15.6912 63.8662C14.2225 63.2586 12.8878 62.3677 11.7634 61.2442C10.639 60.1208 9.74689 58.7869 9.13802 57.3186C8.52916 55.8504 8.21547 54.2766 8.21484 52.6872V47.1382C13.9321 46.1644 19.8034 47.4653 24.5743 50.7628C29.3452 54.0603 32.6372 59.093 33.7469 64.7854Z" fill="url(#paint2_linear_1387_21368)"/>
<path d="M74.7163 25.14V51.7172C74.7163 55.5989 73.7264 59.2346 70.6855 61.8946C68.9021 63.4953 66.5915 64.3831 64.1951 64.3883C63.6118 64.3883 63.0275 64.3883 62.4442 64.3883H22.9434C20.0934 64.3883 17.3945 64.1803 14.8684 62.5976C10.9411 60.1342 9.24255 55.9865 9.24255 51.5092V42.7084C9.24255 36.6806 9.17226 30.6434 9.24255 24.6194C9.30905 18.8482 13.6182 13.2498 19.6707 13.1634C21.1964 13.1415 22.7249 13.1634 24.2506 13.1634H46.2487C51.715 13.1634 57.1813 13.1472 62.6466 13.1634C62.754 13.1634 62.8613 13.1634 62.9677 13.1634C63.6704 13.1694 64.3712 13.2361 65.0624 13.3629C65.356 13.4189 67.654 13.8987 67.654 14.1485L67.711 14.2131C69.7891 15.1891 71.5491 16.7325 72.7879 18.6655C74.0267 20.5985 74.6939 22.8423 74.7125 25.1381C74.7125 25.4127 76.7854 25.1267 76.7778 24.5843C76.7685 22.567 76.2605 20.5834 75.2992 18.8099C74.3379 17.0364 72.953 15.5281 71.2678 14.4193C71.1149 14.3186 69.7203 13.6156 69.7203 13.5842L69.6633 13.5206C67.1591 12.4195 64.652 12.3749 62.0025 12.3749H29.0519C23.0593 12.3749 16.4055 11.5693 11.4998 15.7949C9.08682 17.8694 7.56176 20.7906 7.239 23.9563C7.15635 24.799 7.18105 25.653 7.18105 26.4985V48.2592C7.18105 50.7188 6.93786 53.413 7.52211 55.8212C8.22349 58.5186 9.80591 60.9044 12.0181 62.5998C14.2303 64.2951 16.9454 65.2028 19.7324 65.1787C21.4795 65.1901 23.2255 65.1787 24.9726 65.1787H48.3168C53.2027 65.1787 58.0923 65.2357 62.9781 65.1787C68.927 65.1094 74.7942 61.5687 76.3636 55.5999C76.9849 53.2382 76.7816 50.6665 76.7816 48.244V24.589C76.7816 24.3211 74.7163 24.5919 74.7163 25.14Z" fill="#080F21"/>
<path fill-rule="evenodd" clip-rule="evenodd" d="M26.3288 41.7079C26.2104 41.826 26.0698 41.9195 25.9151 41.983C25.7603 42.0464 25.5945 42.0785 25.4273 42.0775C25.2616 42.0795 25.0972 42.0478 24.9442 41.9843C24.7911 41.9207 24.6526 41.8267 24.5371 41.7079L21.1703 38.3411C21.0526 38.2227 20.9593 38.0822 20.8959 37.9276C20.8324 37.7731 20.8001 37.6076 20.8008 37.4405C20.8002 37.2749 20.8326 37.1108 20.896 36.9578C20.9594 36.8048 21.0527 36.666 21.1703 36.5494L24.5371 33.1826C24.7755 32.9482 25.0968 32.8174 25.4312 32.8189C25.7655 32.8203 26.0858 32.9538 26.3221 33.1903C26.5585 33.4267 26.6918 33.747 26.6931 34.0814C26.6943 34.4157 26.5634 34.737 26.3288 34.9753L23.8531 37.4405L26.3288 39.9162C26.4476 40.0333 26.5419 40.1727 26.6062 40.3265C26.6706 40.4803 26.7037 40.6454 26.7037 40.8121C26.7037 40.9788 26.6706 41.1439 26.6062 41.2976C26.5419 41.4514 26.4476 41.5909 26.3288 41.7079Z" fill="#080F21"/>
<path fill-rule="evenodd" clip-rule="evenodd" d="M56.4314 47.584C56.5498 47.4659 56.6905 47.3724 56.8452 47.309C57 47.2455 57.1657 47.2134 57.333 47.2144C57.4986 47.2125 57.663 47.2443 57.816 47.3078C57.969 47.3713 58.1075 47.4653 58.2231 47.584L61.5899 50.9498C61.8271 51.1899 61.9596 51.514 61.9585 51.8514C61.9591 52.0168 61.9267 52.1806 61.8635 52.3334C61.8002 52.4862 61.7072 52.625 61.5899 52.7415L58.2231 56.1083C57.9836 56.3364 57.6644 56.4619 57.3337 56.4578C57.0029 56.4538 56.6869 56.3206 56.453 56.0868C56.2191 55.8529 56.086 55.5368 56.0819 55.2061C56.0779 54.8754 56.2033 54.5562 56.4314 54.3166L58.9071 51.8409L56.4314 49.3643C56.3128 49.2484 56.2185 49.1099 56.1542 48.9571C56.0898 48.8042 56.0566 48.64 56.0566 48.4741C56.0566 48.3083 56.0898 48.1441 56.1542 47.9912C56.2185 47.8384 56.3128 47.6999 56.4314 47.584Z" fill="#080F21"/>
<path fill-rule="evenodd" clip-rule="evenodd" d="M49.1625 42.0777H30.9511C30.6221 42.0821 30.3046 41.9571 30.0668 41.7297C29.8291 41.5023 29.6901 41.1906 29.68 40.8617C29.6765 40.6974 29.706 40.534 29.7665 40.3812C29.8271 40.2284 29.9175 40.0892 30.0325 39.9718C30.1475 39.8544 30.2848 39.7611 30.4363 39.6975C30.5879 39.6338 30.7506 39.601 30.915 39.6011H49.1549C49.4824 39.6011 49.7966 39.7312 50.0282 39.9628C50.2598 40.1944 50.3899 40.5085 50.3899 40.8361C50.3917 41.1634 50.2634 41.4781 50.0332 41.711C49.8031 41.9438 49.4899 42.0757 49.1625 42.0777Z" fill="#080F21"/>
<path d="M28.737 76.2642H18.8437C18.6325 76.2647 18.4232 76.2235 18.228 76.1429C18.0327 76.0623 17.8554 75.9439 17.706 75.7946C17.5566 75.6452 17.4383 75.4678 17.3577 75.2726C17.2771 75.0773 17.2358 74.8681 17.2363 74.6569V71.9018C17.2357 71.6906 17.2768 71.4813 17.3574 71.286C17.438 71.0907 17.5563 70.9132 17.7057 70.7638C17.8551 70.6145 18.0325 70.4961 18.2278 70.4155C18.4231 70.335 18.6325 70.2938 18.8437 70.2944H28.737C28.9482 70.2939 29.1574 70.3352 29.3526 70.4158C29.5478 70.4964 29.7251 70.6148 29.8744 70.7642C30.0237 70.9136 30.142 71.091 30.2225 71.2862C30.303 71.4814 30.3441 71.6907 30.3434 71.9018V74.6569C30.3441 74.868 30.303 75.0773 30.2225 75.2725C30.142 75.4677 30.0237 75.6451 29.8744 75.7945C29.7251 75.9439 29.5478 76.0623 29.3526 76.1429C29.1574 76.2235 28.9482 76.2647 28.737 76.2642Z" fill="#080F21"/>
<path d="M45.6462 76.2642H35.7529C35.5418 76.2646 35.3326 76.2233 35.1375 76.1426C34.9424 76.062 34.7651 75.9436 34.6158 75.7942C34.4666 75.6449 34.3483 75.4675 34.2677 75.2723C34.1872 75.0772 34.146 74.868 34.1465 74.6569V71.9018C34.1459 71.6907 34.187 71.4814 34.2675 71.2862C34.348 71.091 34.4663 70.9136 34.6156 70.7642C34.7649 70.6148 34.9422 70.4964 35.1374 70.4158C35.3326 70.3352 35.5418 70.2939 35.7529 70.2944H45.6462C45.8575 70.2938 46.0668 70.335 46.2621 70.4155C46.4574 70.4961 46.6348 70.6145 46.7842 70.7638C46.9336 70.9132 47.052 71.0907 47.1325 71.286C47.2131 71.4813 47.2542 71.6906 47.2536 71.9018V74.6569C47.2542 74.8681 47.2131 75.0774 47.1325 75.2727C47.052 75.468 46.9336 75.6455 46.7842 75.7948C46.6348 75.9442 46.4574 76.0626 46.2621 76.1432C46.0668 76.2237 45.8575 76.2649 45.6462 76.2642Z" fill="#080F21"/>
<path d="M67.3176 83.7462H49.2363C49.0251 83.7468 48.8158 83.7056 48.6205 83.6251C48.4252 83.5445 48.2477 83.4262 48.0983 83.2768C47.9489 83.1274 47.8305 82.9499 47.75 82.7546C47.6694 82.5593 47.6283 82.35 47.6289 82.1388V79.3838C47.6283 79.1725 47.6694 78.9632 47.75 78.7679C47.8305 78.5726 47.9489 78.3952 48.0983 78.2458C48.2477 78.0964 48.4252 77.978 48.6205 77.8974C48.8158 77.8169 49.0251 77.7757 49.2363 77.7764H67.3176C67.5289 77.7757 67.7382 77.8169 67.9335 77.8974C68.1288 77.978 68.3062 78.0964 68.4556 78.2458C68.605 78.3952 68.7234 78.5726 68.8039 78.7679C68.8845 78.9632 68.9256 79.1725 68.925 79.3838V82.1388C68.923 82.5645 68.753 82.9722 68.452 83.2732C68.151 83.5742 67.7433 83.7442 67.3176 83.7462Z" fill="#080F21"/>
<path fill-rule="evenodd" clip-rule="evenodd" d="M25.2561 72.7237L23.2706 74.713C23.152 74.836 22.9898 74.9072 22.8191 74.9113C22.6484 74.9154 22.4829 74.852 22.3586 74.7349C22.2974 74.6761 22.2484 74.6057 22.2147 74.5277C22.181 74.4498 22.1631 74.366 22.1622 74.2811C22.1612 74.1962 22.1771 74.1119 22.2091 74.0333C22.241 73.9546 22.2883 73.8831 22.3482 73.8229L24.3431 71.8279C24.4646 71.7079 24.6284 71.6406 24.7991 71.6406C24.9699 71.6406 25.1337 71.7079 25.2551 71.8279C25.3738 71.9467 25.4405 72.1077 25.4407 72.2756C25.4409 72.4435 25.3745 72.6047 25.2561 72.7237Z" fill="white"/>
<path fill-rule="evenodd" clip-rule="evenodd" d="M61.8671 81.3954L54.7108 81.4173C54.5389 81.4197 54.3727 81.3555 54.2471 81.2381C54.1215 81.1206 54.0463 80.9591 54.0372 80.7874C54.0342 80.6142 54.1 80.4469 54.2202 80.3222C54.3405 80.1975 54.5053 80.1257 54.6785 80.1224L61.8566 80.1006C62.0275 80.1006 62.1916 80.1676 62.3135 80.2874C62.4354 80.4072 62.5053 80.57 62.5083 80.7409C62.5097 80.8261 62.4942 80.9108 62.4626 80.9899C62.431 81.0691 62.3841 81.1412 62.3244 81.2021C62.2648 81.263 62.1936 81.3114 62.1151 81.3446C62.0366 81.3778 61.9523 81.3951 61.8671 81.3954Z" fill="white"/>
<path fill-rule="evenodd" clip-rule="evenodd" d="M41.8501 73.5053L40.7319 73.4948L40.7215 72.3871C40.7248 72.3009 40.7107 72.2149 40.68 72.1343C40.6493 72.0536 40.6026 71.98 40.5428 71.9178C40.4829 71.8556 40.4112 71.8062 40.3318 71.7724C40.2524 71.7386 40.167 71.7212 40.0807 71.7212C39.9944 71.7212 39.909 71.7386 39.8296 71.7724C39.7502 71.8062 39.6785 71.8556 39.6186 71.9178C39.5588 71.98 39.5121 72.0536 39.4814 72.1343C39.4507 72.2149 39.4366 72.3009 39.4399 72.3871L39.4504 74.1351C39.4506 74.2912 39.5084 74.4418 39.6127 74.558C39.7169 74.6742 39.8604 74.7479 40.0156 74.765C40.0509 74.7744 40.0875 74.7782 40.1239 74.7764L41.8501 74.7868C41.9363 74.7901 42.0223 74.776 42.1029 74.7453C42.1836 74.7146 42.2572 74.6679 42.3194 74.6081C42.3816 74.5483 42.431 74.4765 42.4648 74.3971C42.4986 74.3177 42.516 74.2323 42.516 74.146C42.516 74.0598 42.4986 73.9744 42.4648 73.895C42.431 73.8156 42.3816 73.7438 42.3194 73.684C42.2572 73.6241 42.1836 73.5775 42.1029 73.5468C42.0223 73.5161 41.9363 73.5019 41.8501 73.5053Z" fill="white"/>
<path d="M76.86 24.851V25.2148H7.14453V24.851C7.1468 21.5385 8.4639 18.3623 10.8065 16.0203C13.149 13.6782 16.3254 12.3619 19.6379 12.3604H64.3761C64.6801 12.3604 64.9841 12.3702 65.2881 12.3898C66.7705 12.4993 68.2215 12.8715 69.5735 13.489V13.4985C71.7479 14.494 73.5906 16.0931 74.8823 18.1057C76.174 20.1183 76.8605 22.4595 76.86 24.851Z" fill="#080F21"/>
<path d="M24.3648 19.7473C25.0524 19.4802 25.3316 18.5476 24.9884 17.6644C24.6452 16.7811 23.8096 16.2817 23.122 16.5489C22.4344 16.8161 22.1552 17.7487 22.4984 18.6319C22.8416 19.5151 23.6772 20.0145 24.3648 19.7473Z" fill="white"/>
<path d="M30.5818 18.3506C30.7279 17.4143 30.2555 16.5632 29.5266 16.4494C28.7978 16.3357 28.0884 17.0024 27.9423 17.9386C27.7962 18.8748 28.2686 19.726 28.9975 19.8398C29.7263 19.9535 30.4356 19.2868 30.5818 18.3506Z" fill="white"/>
<path d="M35.6697 19.3769C36.1913 18.8553 36.071 17.8893 35.401 17.2192C34.731 16.5492 33.7649 16.4289 33.2433 16.9505C32.7217 17.4722 32.842 18.4382 33.512 19.1082C34.182 19.7782 35.1481 19.8985 35.6697 19.3769Z" fill="white"/>
<path fill-rule="evenodd" clip-rule="evenodd" d="M76.9744 13.7114C77.2631 13.7124 77.5405 13.599 77.7458 13.396L79.624 11.5178C79.7252 11.4163 79.8054 11.2959 79.8601 11.1634C79.9148 11.0309 79.9429 10.8889 79.9427 10.7455C79.9425 10.6022 79.9141 10.4603 79.8591 10.3279C79.8041 10.1955 79.7235 10.0753 79.622 9.97405C79.5206 9.87281 79.4001 9.79255 79.2676 9.73786C79.1351 9.68316 78.9931 9.6551 78.8498 9.65527C78.7064 9.65545 78.5645 9.68387 78.4321 9.73889C78.2998 9.79391 78.1795 9.87446 78.0783 9.97595L76.1992 11.8541C76.0464 12.0062 75.9422 12.2002 75.9 12.4117C75.8577 12.6231 75.8793 12.8423 75.962 13.0414C76.0447 13.2405 76.1848 13.4106 76.3644 13.5299C76.544 13.6491 76.755 13.7123 76.9706 13.7114H76.9744Z" fill="#080F21"/>
<path fill-rule="evenodd" clip-rule="evenodd" d="M71.8995 6.76124C71.7554 6.76086 71.6127 6.78896 71.4795 6.84392C71.3463 6.89888 71.2253 6.97962 71.1235 7.08149C71.0216 7.18337 70.9409 7.30438 70.8859 7.43756C70.8309 7.57073 70.8028 7.71347 70.8032 7.85754V10.5175C70.7989 10.6643 70.8241 10.8104 70.8772 10.9472C70.9304 11.0841 71.0105 11.2089 71.1128 11.3142C71.215 11.4195 71.3374 11.5033 71.4726 11.5604C71.6078 11.6176 71.7532 11.6471 71.9 11.6471C72.0468 11.6471 72.1921 11.6176 72.3273 11.5604C72.4625 11.5033 72.5849 11.4195 72.6872 11.3142C72.7894 11.2089 72.8695 11.0841 72.9227 10.9472C72.9759 10.8104 73.0011 10.6643 72.9967 10.5175V7.85754C72.9971 7.71339 72.969 7.57058 72.914 7.43734C72.859 7.3041 72.7781 7.18305 72.6762 7.08116C72.5742 6.97927 72.453 6.89855 72.3198 6.84365C72.1865 6.78874 72.0437 6.76074 71.8995 6.76124Z" fill="#080F21"/>
<path fill-rule="evenodd" clip-rule="evenodd" d="M81.7386 16.6001H79.0786C78.7934 16.6085 78.5225 16.7277 78.3237 16.9325C78.1249 17.1372 78.0137 17.4114 78.0137 17.6969C78.0137 17.9823 78.1249 18.2565 78.3237 18.4612C78.5225 18.666 78.7934 18.7852 79.0786 18.7936H81.7386C81.8854 18.7979 82.0315 18.7728 82.1683 18.7196C82.3052 18.6664 82.43 18.5863 82.5353 18.4841C82.6406 18.3818 82.7243 18.2594 82.7815 18.1242C82.8387 17.989 82.8682 17.8437 82.8682 17.6969C82.8682 17.55 82.8387 17.4047 82.7815 17.2695C82.7243 17.1343 82.6406 17.0119 82.5353 16.9096C82.43 16.8074 82.3052 16.7273 82.1683 16.6741C82.0315 16.6209 81.8854 16.5958 81.7386 16.6001Z" fill="#080F21"/>
<defs>
<linearGradient id="paint0_linear_1387_21368" x1="47.2715" y1="38.7764" x2="59.0134" y2="38.7764" gradientUnits="userSpaceOnUse">
<stop offset="0.005" stop-color="#3063BA"/>
<stop offset="1" stop-color="#A3BFF6"/>
</linearGradient>
<linearGradient id="paint1_linear_1387_21368" x1="62.8223" y1="38.7764" x2="68.6932" y2="38.7764" gradientUnits="userSpaceOnUse">
<stop offset="0.005" stop-color="#3063BA"/>
<stop offset="1" stop-color="#A3BFF6"/>
</linearGradient>
<linearGradient id="paint2_linear_1387_21368" x1="8.21484" y1="55.8041" x2="33.7469" y2="55.8041" gradientUnits="userSpaceOnUse">
<stop offset="0.005" stop-color="#3063BA"/>
<stop offset="1" stop-color="#A3BFF6"/>
</linearGradient>
</defs>
</svg>
