<svg width="92" height="91" viewBox="0 0 92 91" fill="none" xmlns="http://www.w3.org/2000/svg">
<path d="M90.6241 45.0985C90.2966 44.7311 89.8457 44.4968 89.3569 44.4398C88.8681 44.3828 88.3753 44.5072 87.9721 44.7893C86.6793 45.6765 85.2548 46.3547 83.751 46.7988C83.2753 46.9368 82.8678 47.2467 82.6077 47.6683C82.3477 48.09 82.2537 48.5932 82.344 49.0803C82.3945 49.358 82.5033 49.6219 82.6633 49.8545C82.8233 50.0871 83.0307 50.2831 83.272 50.4296C83.5133 50.5761 83.783 50.6698 84.0631 50.7045C84.3433 50.7391 84.6276 50.714 84.8973 50.6307C86.8076 50.0615 88.6173 49.1975 90.261 48.0699C90.4936 47.9091 90.6896 47.7009 90.8359 47.4588C90.9823 47.2168 91.0757 46.9465 91.11 46.6658C91.1443 46.385 91.1188 46.1002 91.035 45.8301C90.9513 45.5599 90.8112 45.3106 90.6241 45.0985Z" fill="#080F21"/>
<path d="M78.9304 52.5717C79.9739 52.5717 80.8198 51.7258 80.8198 50.6823C80.8198 49.6389 79.9739 48.793 78.9304 48.793C77.8869 48.793 77.041 49.6389 77.041 50.6823C77.041 51.7258 77.8869 52.5717 78.9304 52.5717Z" fill="#080F21"/>
<path d="M10.3105 39.1518C11.9382 39.1518 13.2577 37.8323 13.2577 36.2046C13.2577 34.5768 11.9382 33.2573 10.3105 33.2573C8.68279 33.2573 7.36328 34.5768 7.36328 36.2046C7.36328 37.8323 8.68279 39.1518 10.3105 39.1518Z" fill="#080F21"/>
<path opacity="0.2" fill-rule="evenodd" clip-rule="evenodd" d="M71.4393 57.0981V65.8057C71.4312 68.5969 70.3188 71.2714 68.3451 73.2451C66.3714 75.2188 63.6969 76.3312 60.9057 76.3393H45.2617C46.4733 70.8561 49.5202 65.9508 53.8984 62.4345C58.2767 58.9183 63.724 57.0018 69.3394 57.0022C70.0406 56.9988 70.7414 57.0309 71.4393 57.0981Z" fill="url(#paint0_linear_1387_21429)"/>
<path opacity="0.2" fill-rule="evenodd" clip-rule="evenodd" d="M50.4899 14.1675C49.5472 16.068 48.0925 17.6675 46.2896 18.7857C44.4868 19.9039 42.4075 20.4964 40.286 20.4964C38.1645 20.4964 36.0852 19.9039 34.2823 18.7857C32.4795 17.6675 31.0247 16.068 30.082 14.1675H50.4899Z" fill="url(#paint1_linear_1387_21429)"/>
<path d="M70.4229 24.8092V62.5625C70.5569 64.5318 70.4521 66.51 70.111 68.4542C69.5934 70.5515 68.379 72.411 66.6666 73.728C64.9543 75.045 62.8454 75.7415 60.6855 75.7035H31.1911C30.0551 75.7443 28.9189 75.6325 27.8127 75.3711C26.4199 74.9808 25.1272 74.2957 24.0221 73.3623C22.9171 72.4288 22.0256 71.2689 21.408 69.9608C20.3585 67.7167 20.4303 65.4362 20.4303 63.0486V29.9596C20.4303 28.1904 20.4107 26.4165 20.4303 24.6453C20.4871 19.5182 24.2816 14.9125 29.5903 14.8017C35.6617 14.676 41.7489 14.8017 47.8221 14.8017H58.2784C59.001 14.8017 59.7245 14.7942 60.4471 14.8017C62.8463 14.8 65.1637 15.673 66.9654 17.2573C68.0327 18.2085 68.891 19.3708 69.4861 20.6707C70.0812 21.9705 70.4002 23.3798 70.4229 24.8092C70.4369 25.7404 72.4715 25.3437 72.4557 24.5923C72.4161 21.7086 71.2671 18.9511 69.2473 16.8925C67.2276 14.834 64.4925 13.6326 61.6102 13.5381C59.5308 13.4701 57.4403 13.5325 55.361 13.5325H32.2675C28.8342 13.5325 25.5797 13.8901 22.7517 16.11C21.324 17.2592 20.1863 18.7278 19.4302 20.3973C18.6742 22.0669 18.3211 23.8907 18.3993 25.7218V46.5246C18.3993 52.8781 18.3844 59.2307 18.3993 65.5833C18.3527 67.7934 18.9635 69.9676 20.1541 71.8301C21.3447 73.6927 23.0616 75.1597 25.0871 76.0452C27.6656 77.1413 30.3632 76.9764 33.0888 76.9764H56.6926C59.2319 76.9764 61.9072 77.186 64.3507 76.3879C66.6695 75.6618 68.7005 74.2233 70.1548 72.2767C71.6092 70.3302 72.413 67.9747 72.452 65.5451C72.4855 59.443 72.452 53.34 72.452 47.2379V24.5923C72.4557 23.6666 70.4229 24.054 70.4229 24.8092Z" fill="#080F21"/>
<path d="M44.7236 45.1897L43.8483 43.0834L36.9026 43.1467L36.1576 45.3173C35.9737 45.9171 35.7166 46.4919 35.3922 47.0288C35.2587 47.1858 35.0903 47.3092 34.9004 47.3893C34.7106 47.4694 34.5046 47.5038 34.299 47.4898C33.8654 47.4922 33.4472 47.3286 33.1304 47.0325C32.9709 46.9015 32.8409 46.7381 32.7491 46.5532C32.6573 46.3683 32.6057 46.1661 32.5977 45.9598C32.5961 45.7168 32.6274 45.4746 32.6908 45.24C32.7892 44.8938 32.9086 44.5539 33.0484 44.2222L37.1149 33.2407C37.235 32.9269 37.3691 32.5451 37.5339 32.1037C37.6647 31.7168 37.8437 31.348 38.0666 31.0058C38.2582 30.7065 38.5208 30.4592 38.8311 30.286C39.1988 30.0929 39.6097 29.9968 40.0249 30.0066C40.4429 29.9936 40.858 30.0808 41.2354 30.2609C41.5482 30.431 41.8222 30.6644 42.04 30.9462C42.2407 31.2302 42.4161 31.5312 42.5642 31.8458C42.7113 32.1633 42.8892 32.6084 43.1146 33.1494L47.8748 43.9838C48.1711 44.5454 48.3639 45.1558 48.4437 45.7857C48.4453 45.9876 48.4047 46.1877 48.3246 46.3731C48.2444 46.5584 48.1264 46.725 47.9781 46.8622C47.8273 47.0241 47.6434 47.1517 47.4388 47.2362C47.2343 47.3207 47.0139 47.3602 46.7927 47.352C46.5532 47.3527 46.3155 47.3095 46.0916 47.2244C45.9006 47.1334 45.7309 47.0034 45.5934 46.8426C45.4197 46.6099 45.27 46.3604 45.1464 46.0976C44.9797 45.7484 44.84 45.4542 44.7236 45.1897ZM38.9121 40.5598L41.6172 40.531C41.7534 40.5295 41.8871 40.4949 42.0069 40.4301C42.1267 40.3653 42.2289 40.2723 42.3046 40.1591C42.3804 40.046 42.4274 39.9161 42.4416 39.7806C42.4559 39.6452 42.4369 39.5083 42.3864 39.3819L40.916 35.7065C40.8521 35.5472 40.7409 35.4114 40.5974 35.3174C40.4538 35.2234 40.2849 35.1757 40.1134 35.1807C39.9419 35.1858 39.776 35.2434 39.6383 35.3458C39.5006 35.4481 39.3976 35.5903 39.3432 35.753L38.1094 39.4582C38.0675 39.5847 38.0564 39.7194 38.0769 39.8511C38.0975 39.9828 38.1492 40.1076 38.2276 40.2153C38.3061 40.323 38.4092 40.4105 38.5282 40.4704C38.6472 40.5303 38.7788 40.561 38.9121 40.5598Z" fill="#080F21"/>
<path d="M58.3003 46.9821L53.0857 47.0351C52.7949 47.0684 52.5003 47.0426 52.2197 46.9594C51.9391 46.8762 51.6781 46.7373 51.4524 46.5509C51.0794 46.1078 50.8925 45.5374 50.9309 44.9595L50.5826 32.2823C50.5453 31.9977 50.5656 31.7086 50.6422 31.432C50.7188 31.1554 50.8502 30.897 51.0287 30.6722C51.4733 30.3004 52.0461 30.1182 52.6238 30.1647L58.1616 30.1228C58.8697 30.1116 59.5776 30.1549 60.2791 30.2523C60.8536 30.3363 61.4076 30.5257 61.9133 30.811C62.3272 31.0461 62.6999 31.3471 63.0168 31.7021C63.3326 32.0534 63.583 32.4583 63.7561 32.8978C64.1395 33.8664 64.1246 34.9472 63.7148 35.9049C63.3049 36.8626 62.5332 37.6196 61.5679 38.011C63.8269 38.6982 65.0021 40.0596 65.0468 42.0998C65.0858 42.9966 64.8531 43.8843 64.3791 44.6466C63.9246 45.396 63.247 45.9844 62.4413 46.3293C61.8705 46.5678 61.269 46.7245 60.6544 46.7949C59.8761 46.9212 59.0888 46.9838 58.3003 46.9821ZM54.0914 33.9454L54.1463 35.9148C54.1551 36.2287 54.2869 36.5265 54.5134 36.744C54.7399 36.9614 55.0429 37.081 55.3568 37.077L57.3589 37.0574C58.0301 37.0726 58.6997 36.9862 59.3451 36.8013C59.8057 36.64 60.1856 36.3061 60.4048 35.8701C60.5886 35.5383 60.6781 35.1625 60.6637 34.7834C60.6925 34.4369 60.6149 34.0899 60.4414 33.7886C60.2679 33.4873 60.0066 33.246 59.6924 33.0971C58.786 32.7753 57.8233 32.6419 56.8635 32.705L55.2805 32.7115C55.1209 32.7123 54.9631 32.7451 54.8164 32.8078C54.6697 32.8705 54.537 32.962 54.4262 33.0768C54.3154 33.1916 54.2286 33.3275 54.1711 33.4763C54.1136 33.6252 54.0865 33.784 54.0914 33.9435V33.9454ZM57.8366 39.4888L55.4611 39.5064C55.3022 39.5076 55.1451 39.5405 54.999 39.6031C54.8529 39.6657 54.7208 39.7568 54.6103 39.8711C54.4999 39.9854 54.4133 40.1205 54.3557 40.2686C54.2981 40.4168 54.2706 40.5749 54.2748 40.7337L54.3437 43.2545C54.3522 43.5685 54.484 43.8666 54.7105 44.0842C54.9371 44.3018 55.2401 44.4216 55.5542 44.4176L58.0945 44.3896C60.4402 44.3719 61.5772 43.5208 61.5278 41.867C61.5439 41.5008 61.4631 41.1368 61.2936 40.8118C61.124 40.4867 60.8717 40.2122 60.5622 40.0158C59.7133 39.6108 58.7753 39.4288 57.8366 39.4869V39.4888Z" fill="#080F21"/>
<path d="M29.2343 14.1934V76.3141C26.5726 76.1271 24.0804 74.9397 22.2583 72.9905C20.4363 71.0413 19.4194 68.4747 19.4121 65.8065V24.7C19.4197 22.0319 20.4366 19.4656 22.2587 17.5166C24.0807 15.5676 26.5728 14.3803 29.2343 14.1934Z" fill="#080F21"/>
<path d="M88.0286 39.3144C87.6924 37.1987 81.676 36.1539 72.42 36.207V39.1123C74.9594 39.4904 76.4605 40.1217 76.6104 41.0082C77.0648 43.8875 63.0486 48.3647 45.3001 50.9971C27.5517 53.6296 12.7802 53.4462 12.3165 50.5762C12.1247 49.3824 14.4368 47.9074 18.4782 46.4063V43.7385C7.48644 46.6876 0.508125 49.8825 0.889912 52.2701C1.51753 56.1764 21.5232 56.4306 45.5972 52.8586C69.6525 49.2772 88.6478 43.2114 88.0286 39.3144Z" fill="#080F21"/>
<defs>
<linearGradient id="paint0_linear_1387_21429" x1="45.2636" y1="66.6708" x2="71.4393" y2="66.6708" gradientUnits="userSpaceOnUse">
<stop offset="0.005" stop-color="#3063BA"/>
<stop offset="1" stop-color="#A3BFF6"/>
</linearGradient>
<linearGradient id="paint1_linear_1387_21429" x1="30.082" y1="17.3317" x2="50.4899" y2="17.3317" gradientUnits="userSpaceOnUse">
<stop offset="0.005" stop-color="#3063BA"/>
<stop offset="1" stop-color="#A3BFF6"/>
</linearGradient>
</defs>
</svg>
