<svg width="90" height="91" viewBox="0 0 90 91" fill="none" xmlns="http://www.w3.org/2000/svg">
<path d="M22.149 22.7017V66.6582C22.149 67.3897 20.7335 67.6747 20.2015 67.6747H17.7885C16.9145 67.6747 15.7935 67.4942 15.043 68.0167C14.5075 68.4256 14.0864 68.9656 13.8202 69.5846C13.5539 70.2036 13.4516 70.8807 13.523 71.5507H10.749V28.244C10.8011 26.7252 11.4534 25.2892 12.563 24.2509C13.6726 23.2125 15.1487 22.6568 16.6675 22.7055L22.149 22.7017Z" fill="#080F21"/>
<path opacity="0.2" d="M36.3669 76.0746H16.6422C16.0425 76.0833 15.4471 75.9727 14.8905 75.7492C14.334 75.5258 13.8274 75.1939 13.4003 74.7729C12.9732 74.3519 12.634 73.8502 12.4025 73.297C12.171 72.7437 12.0518 72.15 12.0518 71.5502C12.0518 70.9505 12.171 70.3568 12.4025 69.8035C12.634 69.2503 12.9732 68.7486 13.4003 68.3276C13.8274 67.9066 14.334 67.5747 14.8905 67.3513C15.4471 67.1278 16.0425 67.0172 16.6422 67.0259L21.7949 66.8919V57.8422C22.1304 57.7116 22.493 57.6659 22.8504 57.7092C29.4605 57.7092 34.9904 65.5657 36.3669 76.0746Z" fill="url(#paint0_linear_1387_21441)"/>
<path opacity="0.2" d="M71.3205 34.5722V52.0646C68.2085 52.8341 64.9457 52.7424 61.8817 51.7995C58.8177 50.8565 56.068 49.0978 53.9271 46.7117C51.7862 44.3256 50.3348 41.4019 49.7283 38.254C49.1218 35.1061 49.3831 31.8525 50.4842 28.8418H65.5892C66.3418 28.8417 67.087 28.9898 67.7824 29.2777C68.4778 29.5657 69.1096 29.9877 69.6418 30.5199C70.174 31.052 70.5962 31.6837 70.8842 32.379C71.1723 33.0744 71.3205 33.8196 71.3205 34.5722Z" fill="url(#paint1_linear_1387_21441)"/>
<path d="M69.9557 46.0241V34.9281C69.9692 33.549 69.4539 32.2172 68.5156 31.2065C67.5773 30.1957 66.2874 29.5829 64.9112 29.4941C64.0277 29.4751 63.1442 29.4941 62.2702 29.4941H22.1481V66.6581C22.1481 67.3896 20.7326 67.6746 20.2006 67.6746H17.7876C16.9136 67.6746 15.7926 67.4941 15.0421 68.0166C14.3215 68.6134 13.8195 69.4326 13.6149 70.3457C13.4103 71.2587 13.5147 72.2138 13.9116 73.0611C14.2606 73.7791 14.807 74.3829 15.4867 74.8018C16.1663 75.2208 16.9512 75.4375 17.7496 75.4266C20.1341 75.4456 22.5281 75.4266 24.9126 75.4266H62.4849C64.2994 75.4266 66.8359 75.8541 68.2799 74.5526C68.923 73.9707 69.3903 73.2204 69.6289 72.3866C69.7707 71.9152 69.8693 71.4318 69.9234 70.9426C70.3889 70.9331 70.8544 70.9236 71.3199 70.9046C71.771 70.8936 72.2159 70.7969 72.6309 70.6196C72.5816 71.155 72.4634 71.6818 72.2794 72.1871C72.1309 72.6203 71.9265 73.0323 71.6714 73.4126C70.8943 74.4598 69.8789 75.3068 68.7092 75.8834C67.5395 76.46 66.2493 76.7495 64.9454 76.7281C58.3714 76.8516 51.788 76.7281 45.2045 76.7281H19.1081C16.3911 76.7281 13.2846 77.0606 11.5366 74.4576C10.9207 73.5882 10.6406 72.5251 10.7481 71.4651C10.9951 69.1946 13.0376 67.2376 15.4031 66.6201C16.7124 66.3335 18.0563 66.2375 19.3931 66.3351V29.2091C19.3931 28.4776 20.7991 28.1926 21.3406 28.1926H64.8694C65.5059 28.1926 66.1614 28.1641 66.7979 28.2116C68.3422 28.2847 69.8034 28.9323 70.8949 30.0272C71.9863 31.1222 72.6292 32.5855 72.6974 34.1301C72.7052 34.1513 72.7084 34.174 72.7069 34.1966V43.2501C71.7854 44.1716 70.8639 45.1026 69.9557 46.0241Z" fill="#080F21"/>
<path d="M47.3563 62.0469L46.6429 58.5319L46.4757 57.6988L46.1907 56.2975L46.0216 55.4644L45.7271 54.0147C45.6749 53.7591 45.5553 53.522 45.3808 53.3281C45.2063 53.1342 44.9831 52.9904 44.7343 52.9117L44.5994 52.2467C44.8014 52.0845 44.9547 51.8698 45.0427 51.6261C45.1307 51.3825 45.1499 51.1193 45.0982 50.8654L43.5573 43.2654L42.0905 36.0359L40.142 26.4409C39.7683 26.2659 39.4414 26.0062 39.1853 25.6825C38.9293 25.3589 38.752 24.9801 38.6676 24.5761C39.5608 24.3076 40.3439 23.759 40.9012 23.0112C41.4586 22.2635 41.7606 21.3563 41.7627 20.4236V20.1567C41.7627 20.0211 41.7089 19.8911 41.613 19.7953C41.5172 19.6994 41.3872 19.6456 41.2516 19.6456H38.9849C39.1947 19.446 39.3618 19.206 39.4761 18.94C39.5904 18.674 39.6495 18.3876 39.6499 18.098V15.9225C39.656 15.6361 39.6047 15.3513 39.4993 15.0849C39.3938 14.8186 39.2363 14.5759 39.0358 14.3712C38.8354 14.1665 38.5961 14.0039 38.332 13.8928C38.0678 13.7818 37.7842 13.7246 37.4977 13.7246C37.2112 13.7246 36.9276 13.7818 36.6635 13.8928C36.3994 14.0039 36.1601 14.1665 35.9596 14.3712C35.7592 14.5759 35.6016 14.8186 35.4962 15.0849C35.3907 15.3513 35.3395 15.6361 35.3455 15.9225V18.098C35.3459 18.3876 35.4051 18.674 35.5194 18.94C35.6337 19.206 35.8008 19.446 36.0105 19.6456H33.5519C33.4164 19.6456 33.2864 19.6994 33.1905 19.7953C33.0947 19.8911 33.0408 20.0211 33.0408 20.1567V20.4236C33.0419 21.3507 33.3402 22.253 33.892 22.998C34.4438 23.743 35.2199 24.2915 36.1065 24.5628C36.0238 24.9694 35.8471 25.3509 35.5906 25.6771C35.3341 26.0032 35.0049 26.2648 34.6292 26.4409L32.6808 36.0359L31.214 43.2654L29.6721 50.8654C29.6221 51.1193 29.6422 51.3821 29.7303 51.6254C29.8183 51.8688 29.971 52.0836 30.1718 52.2467L30.0369 52.9117C29.7879 52.99 29.5645 53.1336 29.3899 53.3276C29.2153 53.5216 29.0959 53.7589 29.0442 54.0147L28.7497 55.4644L28.5796 56.2975L28.2946 57.6969L28.1246 58.53L27.4111 62.045C27.5595 62.0746 27.7005 62.1335 27.8259 62.2181C27.9513 62.3028 28.0586 62.4115 28.1415 62.538C28.2245 62.6646 28.2814 62.8064 28.309 62.9551C28.3366 63.1039 28.3343 63.2566 28.3022 63.4045L28.2747 63.5375H28.2823L28.1474 64.2642C28.1414 64.2939 28.1426 64.3245 28.1509 64.3536C28.1592 64.3827 28.1742 64.4094 28.1949 64.4314C28.22 64.4593 28.2532 64.4786 28.2899 64.4865H28.3022C28.3269 64.4929 28.3526 64.4942 28.3777 64.4904C28.4029 64.4867 28.4271 64.4779 28.4488 64.4646C28.4705 64.4513 28.4893 64.4338 28.5041 64.4131C28.5189 64.3923 28.5294 64.3689 28.535 64.344L28.6794 63.5698C29.0234 63.551 29.352 63.421 29.6157 63.1993C29.8794 62.9776 30.0639 62.6762 30.1414 62.3405L31.9141 54.6018C31.9662 54.3459 31.9488 54.0807 31.8637 53.8338C31.7787 53.5869 31.6291 53.3673 31.4306 53.1977L31.5674 52.5213C31.8119 52.4479 32.0318 52.3094 32.2037 52.1207C32.3755 51.9319 32.4928 51.7 32.543 51.4497L34.0849 43.8497L35.5517 36.6211L37.387 27.5686L39.2234 36.6211L40.6873 43.8497L42.2292 51.4497C42.2796 51.7002 42.3973 51.9322 42.5695 52.121C42.7416 52.3097 42.9619 52.4481 43.2067 52.5213L43.3435 53.1977C43.1446 53.367 42.9948 53.5866 42.9098 53.8336C42.8247 54.0806 42.8075 54.3459 42.86 54.6018L44.6336 62.3405C44.7103 62.6761 44.8942 62.9776 45.1575 63.1994C45.4207 63.4212 45.7491 63.5512 46.0928 63.5698L46.2999 64.344C46.3102 64.3927 46.3392 64.4353 46.3805 64.4628C46.4219 64.4904 46.4724 64.5006 46.5213 64.4913H46.5336C46.5824 64.481 46.6252 64.4519 46.6528 64.4103C46.6803 64.3687 46.6904 64.318 46.6809 64.269L46.4909 63.5441H46.5013L46.4709 63.4111C46.451 63.322 46.4436 63.2306 46.4491 63.1394C46.4544 62.8815 46.547 62.6331 46.7118 62.4347C46.8766 62.2362 47.1038 62.0995 47.3563 62.0469Z" fill="#080F21"/>
<path d="M28.7386 58.6564C29.6195 58.6564 30.3336 57.9423 30.3336 57.0614C30.3336 56.1804 29.6195 55.4663 28.7386 55.4663C27.8577 55.4663 27.1436 56.1804 27.1436 57.0614C27.1436 57.9423 27.8577 58.6564 28.7386 58.6564Z" fill="white"/>
<path d="M28.7448 58.8948C28.6227 58.8949 28.5008 58.8828 28.381 58.8587C27.9049 58.7614 27.4867 58.4792 27.2184 58.0741C26.95 57.6689 26.8532 57.1739 26.9494 56.6975C27.0474 56.2219 27.3295 55.8043 27.7342 55.5359C28.1389 55.2675 28.6334 55.1701 29.1096 55.2649C29.5547 55.3557 29.9501 55.6085 30.2194 55.9743C30.4887 56.34 30.6126 56.7927 30.5672 57.2447C30.5218 57.6966 30.3103 58.1156 29.9736 58.4204C29.6369 58.7253 29.199 58.8944 28.7448 58.8948ZM28.7448 55.7038C28.4317 55.7045 28.1284 55.8131 27.8861 56.0115C27.6438 56.2098 27.4774 56.4857 27.4148 56.7925C27.3616 57.0556 27.3876 57.3286 27.4895 57.577C27.5914 57.8253 27.7646 58.0379 27.9873 58.1879C28.21 58.3378 28.4721 58.4183 28.7406 58.4193C29.009 58.4202 29.2718 58.3416 29.4955 58.1932C29.7193 58.0449 29.894 57.8336 29.9977 57.5859C30.1013 57.3383 30.1293 57.0655 30.0779 56.802C30.0265 56.5385 29.8982 56.2961 29.7091 56.1056C29.52 55.915 29.2787 55.7848 29.0156 55.7313C28.9269 55.7128 28.8355 55.7036 28.7448 55.7038Z" fill="#080F21"/>
<path d="M28.7419 57.8411C29.1726 57.8411 29.5218 57.492 29.5218 57.0612C29.5218 56.6304 29.1726 56.2812 28.7419 56.2812C28.3111 56.2812 27.9619 56.6304 27.9619 57.0612C27.9619 57.492 28.3111 57.8411 28.7419 57.8411Z" fill="#080F21"/>
<path d="M46.0277 58.6564C46.9086 58.6564 47.6227 57.9423 47.6227 57.0614C47.6227 56.1804 46.9086 55.4663 46.0277 55.4663C45.1467 55.4663 44.4326 56.1804 44.4326 57.0614C44.4326 57.9423 45.1467 58.6564 46.0277 58.6564Z" fill="white"/>
<path d="M46.0323 58.8945C45.6851 58.895 45.345 58.7969 45.0514 58.6117C44.7578 58.4264 44.5228 58.1616 44.3738 57.8481C44.2248 57.5345 44.1678 57.1851 44.2096 56.8405C44.2514 56.4959 44.3901 56.1702 44.6097 55.9013C44.8293 55.6324 45.1207 55.4314 45.45 55.3216C45.7794 55.2118 46.1331 55.1978 46.4701 55.2812C46.8071 55.3646 47.1135 55.5419 47.3537 55.7926C47.5938 56.0432 47.7579 56.3569 47.8268 56.6972C47.9235 57.1735 47.8271 57.6687 47.5588 58.074C47.2905 58.4792 46.8723 58.7614 46.3961 58.8584C46.2763 58.8821 46.1544 58.8942 46.0323 58.8945ZM46.0323 55.7035C45.9416 55.7033 45.8512 55.7126 45.7625 55.731C45.4994 55.7845 45.258 55.9147 45.069 56.1053C44.8799 56.2958 44.7515 56.5382 44.7002 56.8017C44.6488 57.0652 44.6767 57.338 44.7804 57.5856C44.884 57.8333 45.0588 58.0446 45.2826 58.193C45.5063 58.3413 45.769 58.4199 46.0375 58.419C46.3059 58.418 46.5681 58.3375 46.7908 58.1876C47.0135 58.0376 47.1867 57.8251 47.2886 57.5767C47.3905 57.3283 47.4165 57.0553 47.3632 56.7922C47.3006 56.4849 47.1337 56.2087 46.8908 56.0103C46.6479 55.8119 46.344 55.7035 46.0304 55.7035H46.0323Z" fill="#080F21"/>
<path d="M46.0309 57.8411C46.4617 57.8411 46.8109 57.492 46.8109 57.0612C46.8109 56.6304 46.4617 56.2812 46.0309 56.2812C45.6002 56.2812 45.251 56.6304 45.251 57.0612C45.251 57.492 45.6002 57.8411 46.0309 57.8411Z" fill="#080F21"/>
<path d="M37.4034 23.2604C37.9805 23.2604 38.4484 22.7926 38.4484 22.2154C38.4484 21.6383 37.9805 21.1704 37.4034 21.1704C36.8263 21.1704 36.3584 21.6383 36.3584 22.2154C36.3584 22.7926 36.8263 23.2604 37.4034 23.2604Z" fill="white"/>
<path fill-rule="evenodd" clip-rule="evenodd" d="M66.7765 21.4685C66.469 21.4937 66.1841 21.6397 65.9842 21.8746C65.7842 22.1095 65.6855 22.414 65.7096 22.7215L65.9262 25.5421C65.9384 25.6945 65.9805 25.843 66.05 25.9791C66.1196 26.1153 66.2153 26.2364 66.3316 26.3355C66.448 26.4347 66.5827 26.5099 66.7282 26.557C66.8736 26.6041 67.0269 26.6221 67.1793 26.6099C67.3317 26.5977 67.4802 26.5557 67.6163 26.4861C67.7524 26.4166 67.8735 26.3209 67.9727 26.2045C68.0718 26.0882 68.1471 25.9534 68.1942 25.808C68.2413 25.6625 68.2592 25.5092 68.2471 25.3569L68.0305 22.5363C68.0038 22.2292 67.8573 21.9449 67.6226 21.7451C67.3879 21.5452 67.0839 21.4459 66.7765 21.4685Z" fill="#080F21"/>
<path fill-rule="evenodd" clip-rule="evenodd" d="M78.017 31.0779L75.1955 31.2955C74.8878 31.32 74.6024 31.4659 74.4021 31.7008C74.2019 31.9358 74.1032 32.2408 74.1277 32.5485C74.1523 32.8563 74.2981 33.1417 74.5331 33.3419C74.7681 33.5422 75.073 33.6409 75.3808 33.6163L78.2023 33.3988C78.51 33.3742 78.7954 33.2284 78.9957 32.9934C79.1959 32.7584 79.2946 32.4535 79.2701 32.1457C79.2455 31.8379 79.0997 31.5525 78.8647 31.3523C78.6297 31.152 78.3248 31.0533 78.017 31.0779Z" fill="#080F21"/>
<path fill-rule="evenodd" clip-rule="evenodd" d="M72.7329 28.4047C72.8851 28.3935 73.0334 28.3516 73.1689 28.2815C73.3044 28.2115 73.4243 28.1148 73.5214 27.9971L75.3606 25.8444C75.552 25.6096 75.644 25.3092 75.6168 25.0074C75.5896 24.7057 75.4454 24.4266 75.2151 24.2298C74.9847 24.033 74.6865 23.9341 74.3843 23.9542C74.082 23.9744 73.7996 24.1121 73.5974 24.3377L71.7602 26.4904C71.6604 26.6059 71.5846 26.7399 71.537 26.8848C71.4895 27.0297 71.4711 27.1826 71.483 27.3347C71.495 27.4867 71.5369 27.6349 71.6065 27.7706C71.6761 27.9064 71.7719 28.0269 71.8884 28.1254C72.0031 28.2264 72.137 28.3033 72.2822 28.3513C72.4273 28.3993 72.5806 28.4174 72.7329 28.4047Z" fill="#080F21"/>
<path opacity="0.2" d="M74.691 40.8066V70.5464C73.9742 71.0121 73.1375 71.2593 72.2827 71.2579H68.4343L68.3545 63.8251C68.8689 63.4278 69.2855 62.9179 69.5724 62.3346C69.848 61.838 69.9958 61.2808 70.0027 60.7129C70.0075 60.6303 70.0094 60.5486 70.0094 60.4631V54.5218C70.0092 54.4822 69.9973 54.4436 69.9751 54.4109C69.9529 54.3781 69.9215 54.3527 69.8849 54.3378C69.8482 54.323 69.808 54.3193 69.7692 54.3274C69.7305 54.3355 69.6951 54.3548 69.6674 54.3831L69.4223 54.6301L69.3995 46.1314L74.691 40.8066Z" fill="url(#paint2_linear_1387_21441)"/>
<path opacity="0.2" d="M66.6418 48.4468V56.9683L64.4482 59.178V50.6517L66.6418 48.4468Z" fill="url(#paint3_linear_1387_21441)"/>
<path opacity="0.2" d="M66.3976 64.4941V71.5108H64.2041V64.971H64.4482C65.127 64.9716 65.7958 64.808 66.3976 64.4941Z" fill="url(#paint4_linear_1387_21441)"/>
<path d="M67.9019 60.9242C67.9325 61.6693 67.7164 62.4037 67.2869 63.0133C66.8575 63.6229 66.2388 64.0738 65.5269 64.2958C64.8717 64.3932 64.2077 64.4181 63.5471 64.3699H58.9225L59.4241 64.4212L59.4592 64.4297L59.691 64.7309C59.768 64.9209 59.3975 65.1384 59.6511 64.9123C59.7623 64.8126 59.8639 64.6976 59.9694 64.5912L61.0524 63.5006L63.8815 60.6506L67.4487 57.0587L68.4567 56.0441C68.5916 55.9082 68.7274 55.7724 68.8623 55.6356L69.191 55.305C69.2347 55.2613 69.2775 55.2157 69.3221 55.172C69.4019 55.096 69.5663 55.0181 69.363 55.1435L68.5859 55.4285L68.6761 55.4228L68.1745 55.3724L68.2581 55.4066L67.9133 55.1805C67.8468 55.1074 67.9133 54.8955 67.9019 55.0551C67.9019 55.1188 67.9019 55.1834 67.9019 55.2451V60.9242C67.9019 61.9645 69.9919 61.6282 69.9919 60.7475V55.6042C70.0343 55.2445 70.0227 54.8804 69.9577 54.5241C69.7031 53.8002 68.6533 53.9113 68.128 54.1973C67.8102 54.4064 67.5242 54.6601 67.2787 54.9506L66.1805 56.0564L63.9613 58.2908L59.4725 62.81L58.2584 64.0326C58.0153 64.2279 57.8094 64.4654 57.6504 64.7337C57.2705 65.6324 58.3477 65.812 58.988 65.812H60.6524C61.9577 65.812 63.2649 65.8319 64.5693 65.812C65.9485 65.8184 67.278 65.2977 68.286 64.3563C69.2939 63.4149 69.9042 62.1239 69.9919 60.7475C70.0014 59.7082 67.9133 60.0407 67.9019 60.9242Z" fill="#080F21"/>
<path d="M76.7085 43.2028C76.7655 42.1427 76.7655 41.0803 76.7085 40.0203C76.5755 38.9373 75.5115 38.7568 74.6375 39.1843C74.609 39.1843 74.59 39.2033 74.5615 39.2128C74.4947 39.2483 74.4312 39.2897 74.3715 39.3363C74.3146 39.3691 74.2633 39.4108 74.2195 39.4598C74.21 39.4598 74.21 39.4598 74.21 39.4693C74.1888 39.4822 74.1696 39.4982 74.153 39.5168C73.6685 40.0013 73.1935 40.4858 72.709 40.9703C71.7875 41.8918 70.8661 42.8133 69.9541 43.7443L59.2951 54.4641L44.8361 69.0086C44.2577 69.5316 43.709 70.0866 43.1927 70.6711C42.4422 71.6021 43.1927 72.3051 44.1901 72.3526C45.1591 72.4001 46.1376 72.3526 47.1066 72.3526H61.2711C64.0546 72.3526 66.8476 72.4286 69.6311 72.3906C70.1156 72.3811 70.6 72.3716 71.0845 72.3526C71.4882 72.3421 71.8896 72.288 72.2815 72.1911C73.4844 71.9598 74.5747 71.3312 75.3775 70.4061C76.1803 69.481 76.649 68.313 76.7085 67.0896C76.737 66.0731 76.7085 65.0566 76.7085 64.0401V43.2028ZM72.633 70.6198C72.2181 70.7971 71.7732 70.8938 71.322 70.9048C70.8565 70.9238 70.391 70.9333 69.9256 70.9428C67.5981 70.9808 65.2611 70.9048 62.9431 70.9048H45.3681C45.7576 70.5248 46.2041 69.9168 46.4036 69.7173C51.1251 64.9578 55.8498 60.2014 60.5776 55.4483C63.7031 52.3133 66.8286 49.1719 69.9541 46.0243C70.8661 45.1028 71.7875 44.1718 72.709 43.2503C73.2885 42.6708 73.868 42.0818 74.4475 41.5023L74.6185 41.3313V62.3168C74.6185 64.8248 75.312 69.4323 72.633 70.6198Z" fill="#080F21"/>
<defs>
<linearGradient id="paint0_linear_1387_21441" x1="12.1154" y1="66.89" x2="36.3669" y2="66.89" gradientUnits="userSpaceOnUse">
<stop offset="0.005" stop-color="#3063BA"/>
<stop offset="1" stop-color="#A3BFF6"/>
</linearGradient>
<linearGradient id="paint1_linear_1387_21441" x1="49.4088" y1="40.713" x2="71.3205" y2="40.713" gradientUnits="userSpaceOnUse">
<stop offset="0.005" stop-color="#3063BA"/>
<stop offset="1" stop-color="#A3BFF6"/>
</linearGradient>
<linearGradient id="paint2_linear_1387_21441" x1="68.3516" y1="56.0323" x2="74.691" y2="56.0323" gradientUnits="userSpaceOnUse">
<stop offset="0.005" stop-color="#3063BA"/>
<stop offset="1" stop-color="#A3BFF6"/>
</linearGradient>
<linearGradient id="paint3_linear_1387_21441" x1="64.4482" y1="53.8124" x2="66.6418" y2="53.8124" gradientUnits="userSpaceOnUse">
<stop offset="0.005" stop-color="#3063BA"/>
<stop offset="1" stop-color="#A3BFF6"/>
</linearGradient>
<linearGradient id="paint4_linear_1387_21441" x1="64.2041" y1="68.0025" x2="66.3976" y2="68.0025" gradientUnits="userSpaceOnUse">
<stop offset="0.005" stop-color="#3063BA"/>
<stop offset="1" stop-color="#A3BFF6"/>
</linearGradient>
</defs>
</svg>
