<svg width="90" height="91" viewBox="0 0 90 91" fill="none" xmlns="http://www.w3.org/2000/svg">
<path opacity="0.2" d="M82.2853 44.588C82.0396 45.4116 81.546 46.1393 80.8719 46.6723C80.1977 47.2052 79.3756 47.5174 78.5176 47.5663C77.4876 47.6715 76.4937 48.0036 75.6074 48.5386C74.721 49.0736 73.9641 49.7983 73.391 50.6606C72.818 51.5229 72.4431 52.5015 72.2932 53.5259C72.1433 54.5503 72.2221 55.5952 72.5241 56.5856C72.8157 57.3948 72.8496 58.2744 72.6211 59.1037C72.3927 59.9329 71.9131 60.6711 71.2482 61.2168C70.6155 61.7032 69.9591 62.1535 69.2912 62.5905C67.5057 59.8341 66.3572 56.7142 65.9294 53.4579C65.5016 50.2016 65.8053 46.891 66.8183 43.7669C67.8313 40.6428 69.5281 37.7838 71.7853 35.3982C74.0425 33.0126 76.8033 31.1602 79.8666 29.9761C79.9616 30.0122 80.0613 30.0616 80.1706 30.0977C80.8125 30.3296 81.3961 30.6989 81.8806 31.1797C82.4862 31.779 82.879 32.5601 82.9987 33.4037C83.4517 37.1439 83.2098 40.9357 82.2853 44.588Z" fill="url(#paint0_linear_1387_20643)"/>
<path opacity="0.2" d="M54.8344 11.4502L55.0538 25.4332C53.7533 25.4579 52.2789 25.1729 51.0762 25.5871L51.042 10.8906C51.8094 11.2354 52.6332 11.4373 53.4731 11.4863C53.9268 11.5233 54.3832 11.5112 54.8344 11.4502Z" fill="url(#paint1_linear_1387_20643)"/>
<path opacity="0.2" d="M46.2295 7.88872V27.7276L46.0832 27.8368C46.0101 27.8853 45.9493 27.9461 45.8771 27.9945C45.707 28.1285 45.5484 28.2624 45.3907 28.3964C45.3391 28.4375 45.2902 28.4819 45.2443 28.5294C45.0258 28.7194 44.8188 28.9312 44.625 29.1374C44.5395 29.2229 44.4663 29.3074 44.3818 29.3929L44.3694 29.4053C44.2117 29.5753 44.0654 29.7577 43.9191 29.9278C43.9077 29.9515 43.883 29.9639 43.8707 29.9886C43.7985 30.0731 43.7253 30.171 43.6645 30.2555C43.6161 30.3163 43.579 30.3771 43.5306 30.4379C43.4356 30.5719 43.3358 30.7229 43.2389 30.8635C43.1547 30.9856 43.0776 31.1125 43.0081 31.2435C42.9957 31.2673 42.971 31.292 42.9596 31.3167L42.8494 31.4991C42.8257 31.5352 42.8133 31.5713 42.7886 31.6083C42.7402 31.6929 42.6936 31.7784 42.6433 31.8753C42.6186 31.9237 42.5948 31.9703 42.5578 32.0339C42.5464 32.0453 42.5464 32.07 42.534 32.0824C42.497 32.1432 42.4732 32.204 42.439 32.2724C42.4048 32.3408 42.3668 32.431 42.3298 32.5156C42.103 33.0092 41.9082 33.517 41.7465 34.0356C41.7218 34.1087 41.7104 34.1695 41.6857 34.2417C41.6857 34.2541 41.6857 34.2664 41.6733 34.2664C41.6496 34.3519 41.6249 34.4488 41.6002 34.5343C41.528 34.8013 41.4672 35.0806 41.4187 35.3608C41.4081 35.443 41.3916 35.5243 41.3693 35.604C41.3579 35.7133 41.3332 35.8102 41.3209 35.9194C41.3085 36.0287 41.2971 36.1094 41.2848 36.1997C41.2724 36.2899 41.2601 36.4058 41.2477 36.5027C41.2354 36.5996 41.2363 36.6851 41.224 36.7877C41.2116 36.8903 41.2116 36.9578 41.2116 37.0433C41.2116 37.1288 41.1993 37.1763 41.1993 37.2333V37.3919C41.1993 37.7073 41.1993 38.0237 41.224 38.3419C41.2363 38.5851 41.2601 38.8397 41.2971 39.0829C41.3342 39.3261 41.3579 39.5332 41.3921 39.7479C41.4064 39.8504 41.4267 39.9519 41.4529 40.0519C41.4776 40.1469 41.489 40.2581 41.5137 40.3559V40.3797C41.5281 40.4621 41.5484 40.5434 41.5745 40.6229C41.5869 40.6599 41.5869 40.696 41.5992 40.7321C41.6013 40.7619 41.6094 40.791 41.623 40.8176C41.6353 40.8423 41.6353 40.8784 41.6477 40.9031C41.66 40.9639 41.6838 41.0247 41.6961 41.0732L41.7693 41.3278C41.793 41.4133 41.8301 41.5102 41.8538 41.5957C41.927 41.8018 42.0001 42.0213 42.0847 42.2274L42.1949 42.483C42.2341 42.5825 42.2785 42.6798 42.3279 42.7746C42.342 42.8073 42.3582 42.839 42.3763 42.8696C42.3887 42.881 42.3887 42.9057 42.401 42.9181C42.401 42.9213 42.4023 42.9245 42.4046 42.9268C42.407 42.9291 42.4101 42.9304 42.4134 42.9304C42.6454 43.4195 42.9134 43.8907 43.2152 44.3402C43.2646 44.4134 43.3102 44.4856 43.3615 44.5464C43.4128 44.6072 43.4223 44.6414 43.4565 44.6927C43.542 44.8019 43.6151 44.9112 43.6997 45.0328C43.7413 45.0918 43.786 45.1485 43.8336 45.2028C43.8697 45.2522 43.9068 45.2883 43.9429 45.3368C43.979 45.3852 43.9913 45.3976 44.016 45.4318C44.0904 45.5308 44.1717 45.6244 44.2592 45.712L44.3077 45.7605C44.3932 45.8555 44.4777 45.9429 44.5632 46.0398C44.587 46.0768 44.624 46.1006 44.6478 46.1348L44.6601 46.1462C44.6854 46.1777 44.7141 46.2064 44.7456 46.2317L44.9157 46.4017C44.9472 46.4271 44.9758 46.4557 45.0012 46.4872C45.0445 46.5249 45.0851 46.5655 45.1228 46.6088L45.1341 46.6202C45.1826 46.6696 45.2292 46.7057 45.2805 46.7542C45.3318 46.8026 45.3536 46.815 45.3897 46.8492C45.4392 46.8971 45.4918 46.9415 45.5474 46.9822C45.5844 47.0069 45.6082 47.043 45.6424 47.0677C45.6766 47.0924 45.6785 47.1038 45.7032 47.1161C45.8124 47.2016 45.9093 47.2862 46.0186 47.3717C46.0433 47.384 46.068 47.4078 46.0918 47.4201C46.1155 47.4325 46.1525 47.4686 46.1867 47.4933V65.2896C45.6948 65.5914 45.1431 65.7824 44.5699 65.8495C43.9967 65.9166 43.4158 65.8581 42.8675 65.6782C41.003 65.0205 39.2075 64.1818 37.5066 63.174C35.7891 62.156 34.1731 60.9757 32.6807 59.6495V23.1685C33.1599 22.3371 33.4633 21.416 33.5722 20.4625C33.681 19.509 33.5929 18.5433 33.3133 17.6253C33.0257 16.8156 32.9938 15.9371 33.222 15.1087C33.4502 14.2803 33.9275 13.5421 34.5892 12.994C37.5903 10.7161 40.9922 9.02138 44.6183 7.99796C45.1392 7.8346 45.6914 7.79717 46.2295 7.88872Z" fill="url(#paint2_linear_1387_20643)"/>
<path d="M62.5185 44.1121C61.4516 45.8302 59.902 47.1958 58.0633 48.0383C56.2247 48.8807 54.1786 49.1626 52.1806 48.8488C51.3122 48.7239 50.4621 48.4942 49.6489 48.1648C48.6398 47.7114 47.6988 47.1195 46.853 46.4064C46.7305 46.3047 46.6193 46.186 46.492 46.091C46.2393 45.901 46.492 46.1974 46.5338 46.2344C46.4616 46.167 46.4388 46.0444 46.3667 45.9684C45.9867 45.5789 45.8442 45.4611 45.6133 45.1789C44.4458 43.9087 43.5801 42.3914 43.0806 40.7401C42.5811 39.0887 42.4607 37.3459 42.7284 35.6416C42.9962 33.9372 43.6451 32.3153 44.6269 30.8966C45.6087 29.478 46.898 28.2992 48.3987 27.4481C48.5238 27.3417 48.6565 27.2445 48.7958 27.1574C48.8718 27.1574 48.1308 27.4358 48.4794 27.4073C48.7209 27.3339 48.9493 27.2227 49.1558 27.0777C49.2508 27.0311 49.3458 26.9979 49.4408 26.9561C49.3677 26.9884 49.0437 27.0995 49.4408 26.9484C49.7657 26.8249 50.0954 26.7167 50.4298 26.6236C51.3902 26.352 52.3854 26.224 53.3833 26.2436C55.3885 26.2963 57.339 26.9083 59.0149 28.0105C59.6085 28.3881 60.1657 28.8199 60.6793 29.3007C60.9709 29.5781 61.2493 29.8707 61.5134 30.1747C61.6331 30.3115 62.0672 30.7874 61.9884 30.6886C62.7971 31.8337 63.4283 33.0943 63.8608 34.4278C64.3361 36.0447 64.4622 37.7441 64.2307 39.4133C63.9993 41.0826 63.4157 42.6836 62.5185 44.1102C62.1632 44.6887 62.8301 45.0602 63.3165 45.1134C63.6612 45.1496 64.0094 45.0947 64.3262 44.9539C64.643 44.8132 64.9173 44.5917 65.1215 44.3116C66.7989 41.6299 67.4395 38.4281 66.9231 35.3074C66.4067 32.1868 64.7689 29.362 62.3171 27.3636C60.3017 25.8223 57.9086 24.8519 55.3889 24.5542C52.8693 24.2565 50.3159 24.6425 47.9968 25.6716C47.7422 25.7875 47.4867 25.9101 47.2368 26.0374C47.0782 26.1182 46.2774 26.6264 46.7315 26.3518C47.2064 26.0668 46.3429 26.5419 46.2004 26.6236C45.8299 26.8497 45.4716 27.0951 45.1269 27.3588C43.9943 28.2187 43.0029 29.2502 42.1886 30.416C40.6357 32.6273 39.8181 35.2713 39.8516 37.9732C39.901 40.726 40.8145 43.3937 42.4631 45.5989C43.7009 47.2547 45.334 48.5739 47.2131 49.4359C49.7259 50.6908 52.5768 51.1003 55.3413 50.6035C57.3202 50.293 59.2126 49.5731 60.8974 48.4897C62.5823 47.4063 64.0226 45.9833 65.1262 44.3116C65.5062 43.7416 64.7975 43.3616 64.3282 43.3084C63.9827 43.2732 63.634 43.3289 63.3166 43.4699C62.9992 43.6108 62.7241 43.8322 62.5185 44.1121Z" fill="#080F21"/>
<path d="M84.3641 33.0379C84.1908 32.0104 83.6733 31.0723 82.8963 30.3779C82.0415 29.7714 81.1235 29.2592 80.1584 28.8503C79.1047 28.2318 78.2478 27.3275 77.6869 26.242C77.126 25.1566 76.8841 23.9344 76.9892 22.7171C77.1051 21.5315 77.6894 20.4703 77.7122 19.2743C77.7465 18.2549 77.4426 17.2528 76.8477 16.4243C75.2036 14.4244 73.2467 12.7039 71.0527 11.3295C69.0451 9.9645 66.8839 8.84049 64.6137 7.98069C63.5586 7.51604 62.3972 7.34628 61.2532 7.48948C60.1093 7.63269 59.0256 8.0835 58.1176 8.79391C57.3357 9.56317 56.3847 10.139 55.3407 10.4754C54.7522 10.6058 54.1451 10.63 53.5481 10.5467C53.1678 10.4914 52.7939 10.3988 52.4318 10.2702C52.2589 10.2113 51.2063 9.75627 51.7839 10.0565C52.467 10.4108 51.3868 9.78096 51.3602 9.76481C51.1425 9.63355 50.9325 9.48986 50.7313 9.33446C50.2887 8.98866 49.9267 8.55544 49.4963 8.19444C48.601 7.45437 47.4972 7.01202 46.3386 6.92904C43.9702 6.76279 41.2504 8.11181 39.1699 9.11406C36.9594 10.0598 34.917 11.3579 33.1222 12.9578C31.435 14.6497 31.7533 16.5915 32.1504 18.7072C32.3747 19.8737 32.2591 21.0801 31.8173 22.1827C31.3756 23.2854 30.6262 24.2379 29.6585 24.9268C28.8365 25.4118 27.9181 25.7108 26.9681 25.8027C25.902 25.9771 24.8926 26.4024 24.0231 27.0434C22.0899 28.5055 21.8087 31.0239 21.5104 33.2726C21.0971 35.9397 21.1048 38.6552 21.5332 41.32C21.7621 42.5094 22.4138 42.7887 23.57 42.9758C24.4254 43.1077 25.2987 43.0664 26.1378 42.8543C26.977 42.6421 27.7649 42.2635 28.4549 41.7409C29.1902 41.1794 29.269 41.0236 30.2 41.3903C31.5449 41.927 32.8189 42.6266 33.9934 43.4737C35.0213 44.208 36.5204 45.2378 37.06 46.4187C37.5996 47.5995 36.659 49.0283 36.7996 50.3137C36.9348 51.4642 37.4761 52.5287 38.3263 53.3157C39.2278 54.1479 40.7963 54.3331 41.2466 55.5681C41.5922 57.0276 41.6295 58.5432 41.3558 60.0179C41.2276 61.1845 41.2466 63.189 39.8083 63.3952C39.2953 63.4683 37.4162 64.4639 38.5799 65.0301C40.7754 66.0989 43.0611 67.2256 45.5339 66.4922C47.8985 65.7911 49.2094 63.4351 51.8723 63.5814C52.9977 63.6559 54.077 64.0563 54.9788 64.7337C55.9345 65.4377 56.5938 66.3392 57.7233 66.7981C60.1544 67.7832 62.6633 66.7031 64.9433 65.7911C67.2548 64.8606 69.444 63.6512 71.4622 62.1896C73.138 60.9736 74.2827 59.428 74.0794 57.2591C73.9664 56.0479 73.4866 54.9858 73.5959 53.7384C73.6966 52.5201 74.1513 51.3577 74.904 50.3944C75.5305 49.5852 76.3787 48.9755 77.3455 48.6398C78.4028 48.2892 79.5001 48.3063 80.5403 47.8484C82.9904 46.7692 83.6753 44.7011 84.1237 42.2368C84.6533 39.1993 84.7333 36.1005 84.3612 33.0398C84.2339 31.9331 81.4704 32.5781 81.6062 33.778C81.9054 36.3128 81.8789 38.8755 81.5274 41.4036C81.2671 43.2286 81.1293 46.0491 78.9453 46.5859C77.0624 47.0485 75.4198 47.3012 73.8495 48.5657C72.3099 49.7807 71.2618 51.5117 70.8988 53.4392C70.7341 54.4058 70.7576 55.3951 70.9682 56.3528C71.3389 57.3739 71.3834 58.485 71.0955 59.5325C70.6395 60.4152 69.9191 61.1333 69.0349 61.5864C68.1237 62.2079 67.1761 62.7745 66.1973 63.2831C65.2263 63.7817 64.2282 64.2257 63.2076 64.6131C62.0278 65.0605 60.7177 65.7018 59.4836 65.146C58.6341 64.6017 57.8436 63.9703 57.1248 63.2622C56.282 62.6575 55.327 62.2273 54.3157 61.9968C52.1003 61.4893 49.7754 61.8249 47.7939 62.9382C46.7908 63.5025 45.8693 64.7489 44.7103 64.9228C43.4515 65.1128 41.8175 64.0896 40.7269 63.5586L39.4995 65.1945C41.0889 64.9665 42.7628 64.3898 43.4791 62.8195C44.1254 61.0114 44.3796 59.0865 44.2248 57.1727C44.1754 55.2727 43.9208 53.7099 42.074 52.8426C40.3346 52.0265 39.186 50.4989 39.6515 48.4631C40.0442 47.6975 40.1418 46.8144 39.9256 45.9816C39.7095 45.1489 39.1947 44.4246 38.4792 43.9468C37.1491 42.6492 35.6401 41.5487 33.9981 40.6788C32.4249 39.8503 30.6855 38.9688 28.8681 39.4438C28.0723 39.6914 27.3371 40.1027 26.7097 40.6512C26.332 40.9651 25.8697 41.1597 25.3812 41.2104C24.8928 41.2612 24.4003 41.1657 23.9661 40.9362L24.5266 41.4112C24.0245 39.6261 23.8608 37.7627 24.044 35.9174C24.1065 34.0431 24.3454 32.1789 24.7575 30.3494C25.1109 28.7791 25.7018 27.7616 27.3747 27.4994C28.8224 27.3037 30.2083 26.7884 31.4322 25.9908C32.6174 25.2066 33.5729 24.1214 34.2007 22.8464C34.8285 21.5713 35.1061 20.1523 35.0051 18.7347C34.874 17.1615 34.0684 15.6795 34.9614 14.1671C35.7214 12.8751 37.628 11.9669 38.9048 11.2572C40.3762 10.4378 41.9187 9.7529 43.5133 9.21095C44.2657 8.83748 45.1174 8.71306 45.9453 8.85566C46.7672 9.20671 47.5008 9.73592 48.0932 10.4051C49.265 11.3823 50.6746 12.032 52.1788 12.2881C53.683 12.5443 55.2282 12.3977 56.6574 11.8633C57.3389 11.6199 57.9893 11.2972 58.5954 10.902C59.2075 10.376 59.8478 9.88384 60.5135 9.42755C61.8986 8.7331 63.9486 10.028 65.1855 10.6331C68.3606 12.1872 71.2336 14.2942 73.67 16.8556C75.1624 18.426 74.9914 19.8215 74.4452 21.7747C73.9571 23.5566 74.1484 25.4563 74.9819 27.1052C75.6839 28.501 76.7907 29.6526 78.1577 30.4093C79.7661 31.2937 81.2443 31.7174 81.6119 33.7761C81.8152 34.899 84.5778 34.2169 84.3641 33.0379Z" fill="#080F21"/>
<path d="M25.9875 64.8906C24.5807 65.0378 23.1624 64.7549 21.9197 64.0793C20.677 63.4038 19.6684 62.3674 19.0268 61.1068C18.3796 59.8241 18.1298 58.3774 18.3094 56.952C18.4889 55.5265 19.0897 54.1871 20.0348 53.1049C20.9743 52.0611 22.2219 51.3437 23.5966 51.0567C24.9713 50.7698 26.4017 50.9281 27.6803 51.5089C28.9654 52.1097 30.0443 53.0767 30.7817 54.2885C31.5191 55.5004 31.8821 56.903 31.8252 58.3204C31.7662 59.923 31.1515 61.4551 30.0863 62.654C29.0211 63.8528 27.572 64.6436 25.9875 64.8906C25.7082 64.9286 25.2427 65.093 25.2275 65.4416C25.2132 65.7713 25.5751 65.9166 25.8611 65.8834C27.4985 65.6898 29.0429 65.0193 30.3024 63.9552C31.5619 62.8912 32.4809 61.4805 32.9452 59.8984C33.3811 58.2721 33.2878 56.5493 32.6789 54.9796C32.0699 53.4099 30.977 52.0748 29.5585 51.1679C28.1313 50.2924 26.4759 49.8611 24.803 49.9288C23.13 49.9964 21.5149 50.56 20.163 51.5479C18.7205 52.5816 17.6654 54.0684 17.166 55.7714C16.6665 57.4744 16.7514 59.2955 17.4071 60.9446C18.0628 62.5937 19.2516 63.976 20.7841 64.871C22.3165 65.7661 24.1045 66.1224 25.863 65.8834C26.6221 65.8017 26.927 64.7899 25.9875 64.8906Z" fill="#080F21"/>
<path d="M42.0098 54.2149C41.7146 53.9212 41.3576 53.6969 40.9648 53.5584C40.8699 53.5223 40.7701 53.4853 40.6855 53.4492C39.7833 53.0387 39.0495 52.3306 38.607 51.4437C38.3426 50.9152 38.191 50.3375 38.1617 49.7473C38.1325 49.1571 38.2262 48.5672 38.4369 48.0152C38.6176 47.5807 38.6756 47.105 38.6048 46.6399C38.5339 46.1747 38.3369 45.738 38.0351 45.377C37.0567 44.2919 35.9508 43.3289 34.7414 42.5089C34.6806 42.4595 34.6075 42.4235 34.5514 42.375C33.2666 41.5247 31.8826 40.8347 30.4303 40.3202C29.9803 40.1797 29.5002 40.1666 29.0432 40.2825C28.5862 40.3984 28.1703 40.6386 27.8416 40.9766C27.4145 41.3833 26.9077 41.697 26.3532 41.898C25.7988 42.099 25.2087 42.1828 24.6202 42.1441C24.1025 42.1111 23.5955 41.9823 23.1249 41.7641C22.6116 41.5324 22.149 41.2019 21.7635 40.7914L21.6685 40.6964C21.3588 40.3711 20.9687 40.1335 20.5376 40.0076C20.1065 39.8816 19.6498 39.8718 19.2137 39.9791C16.9897 40.6065 14.9032 41.6458 13.0625 43.0429C12.656 43.3793 12.3631 43.833 12.2239 44.342C12.0847 44.851 12.1058 45.3906 12.2845 45.8871C12.4688 46.4941 12.5167 47.1343 12.4247 47.7619C12.3327 48.3895 12.1031 48.9891 11.7523 49.5176C11.4016 50.0461 10.9383 50.4905 10.3957 50.8191C9.8531 51.1476 9.24458 51.3522 8.61368 51.4181C8.08755 51.4465 7.58307 51.6369 7.16944 51.9633C6.7558 52.2896 6.45326 52.736 6.30328 53.2411C5.73272 55.4794 5.58453 57.8046 5.86629 60.0973C5.93975 60.5577 6.13796 60.9893 6.43943 61.345C6.7409 61.7007 7.13409 61.9671 7.57628 62.115C7.58863 62.115 7.58863 62.115 7.60098 62.1274C8.079 62.3054 8.52281 62.5644 8.91293 62.8931C9.34917 63.2676 9.70468 63.7269 9.95791 64.2431C10.221 64.7694 10.3729 65.3442 10.4043 65.9317C10.4357 66.5193 10.3458 67.107 10.1403 67.6583C9.95652 68.0921 9.89667 68.5684 9.96745 69.0341C10.0382 69.4999 10.2369 69.9368 10.5412 70.2964C11.7989 71.6788 13.2577 72.8638 14.8684 73.8115C15.9108 74.4344 17.0149 74.9476 18.163 75.3429C18.6132 75.4835 19.0935 75.4967 19.5507 75.3808C20.0079 75.2649 20.4239 75.0245 20.7527 74.6864C21.5246 73.9577 22.5384 73.5398 23.5996 73.5129C24.6607 73.4861 25.6944 73.8523 26.5021 74.5411C26.6244 74.6406 26.7382 74.7503 26.8422 74.8688C27.1508 75.2047 27.5342 75.4631 27.9613 75.6231C28.4177 75.7948 28.917 75.8161 29.3863 75.6839C31.6108 75.0585 33.6974 74.0191 35.5366 72.6202C35.9431 72.2837 36.236 71.83 36.3752 71.321C36.5144 70.812 36.4933 70.2724 36.3146 69.7758C36.1296 69.1687 36.0806 68.5283 36.1711 67.9001C36.2616 67.2719 36.4893 66.6714 36.8381 66.1411C37.185 65.6099 37.6468 65.1633 38.1894 64.8345C38.732 64.5056 39.3416 64.3028 39.973 64.2411C40.4987 64.2109 41.0022 64.0196 41.4154 63.6933C41.8285 63.367 42.1313 62.9214 42.2825 62.4171C42.8534 60.1789 43.002 57.8537 42.7204 55.561C42.6279 55.0498 42.3797 54.5797 42.0098 54.2149Z" fill="#080F21"/>
<path d="M25.0406 63.1052C27.9027 63.1052 30.2229 60.785 30.2229 57.923C30.2229 55.0609 27.9027 52.7407 25.0406 52.7407C22.1785 52.7407 19.8584 55.0609 19.8584 57.923C19.8584 60.785 22.1785 63.1052 25.0406 63.1052Z" fill="white"/>
<path d="M47.4239 82.7649C54.2115 82.7649 59.714 77.2624 59.714 70.4747C59.714 63.6871 54.2115 58.1846 47.4239 58.1846C40.6363 58.1846 35.1338 63.6871 35.1338 70.4747C35.1338 77.2624 40.6363 82.7649 47.4239 82.7649Z" fill="white"/>
<path d="M46.9002 59.0272C49.2043 59.0652 51.4448 59.7892 53.3354 61.1067C55.226 62.4242 56.681 64.2755 57.5145 66.4239C58.3575 68.5985 58.5361 70.9745 58.0276 73.2507C57.5191 75.5269 56.3462 77.601 54.6578 79.21C52.972 80.7326 50.834 81.6613 48.5705 81.8542C46.307 82.047 44.0427 81.4933 42.1236 80.2778C40.1687 79.0599 38.61 77.3002 37.637 75.2127C36.664 73.1251 36.3187 70.7998 36.6431 68.5196C37.3936 63.4096 41.602 59.0975 46.903 59.0272C47.4825 59.0196 48.4363 58.8553 48.7137 58.2501C48.9683 57.6934 48.4942 57.3343 47.9413 57.3419C42.3193 57.416 36.9328 60.4978 34.7316 65.8074C33.6946 68.3335 33.4889 71.1243 34.1443 73.7752C34.7997 76.4261 36.2821 78.7995 38.3768 80.5514C40.5877 82.2916 43.2659 83.3356 46.0713 83.5509C48.8767 83.7662 51.6828 83.1431 54.1334 81.7607C56.7206 80.4154 58.7774 78.2355 59.9704 75.5746C61.1633 72.9137 61.4223 69.9278 60.7054 67.1012C59.9886 64.2746 58.3378 61.7731 56.021 60.0023C53.7041 58.2316 50.857 57.2954 47.9413 57.3457C47.3656 57.3381 46.4043 57.5272 46.1307 58.1228C45.8685 58.6862 46.3511 59.0196 46.9002 59.0272Z" fill="#080F21"/>
<path d="M47.7118 74.248C49.7958 74.248 51.4852 72.5586 51.4852 70.4746C51.4852 68.3906 49.7958 66.7012 47.7118 66.7012C45.6279 66.7012 43.9385 68.3906 43.9385 70.4746C43.9385 72.5586 45.6279 74.248 47.7118 74.248Z" fill="#080F21"/>
<path d="M76.7609 71.1426H47.7917C47.6405 71.1426 47.4955 71.0825 47.3886 70.9756C47.2817 70.8687 47.2217 70.7237 47.2217 70.5726V70.4025C47.2217 70.2513 47.2817 70.1063 47.3886 69.9995C47.4955 69.8926 47.6405 69.8325 47.7917 69.8325H76.7599C76.9111 69.8325 77.0561 69.8926 77.1629 69.9995C77.2698 70.1063 77.3299 70.2513 77.3299 70.4025V70.5726C77.3277 70.7229 77.2671 70.8665 77.1609 70.9729C77.0546 71.0792 76.9112 71.1401 76.7609 71.1426Z" fill="#080F21"/>
<path d="M78.8949 72.5891H74.7861V68.3711H78.8949C79.4555 68.3716 79.9932 68.5946 80.3896 68.9911C80.7861 69.3875 81.0091 69.9251 81.0096 70.4858C81.0068 71.0448 80.7827 71.5799 80.3864 71.974C79.9901 72.3682 79.4538 72.5894 78.8949 72.5891Z" fill="#080F21"/>
<path d="M13.9398 25.3561C15.6114 25.3561 16.9664 24.001 16.9664 22.3294C16.9664 20.6578 15.6114 19.3027 13.9398 19.3027C12.2682 19.3027 10.9131 20.6578 10.9131 22.3294C10.9131 24.001 12.2682 25.3561 13.9398 25.3561Z" fill="#080F21"/>
<path d="M6.73441 41.9498C7.46633 41.9498 8.05965 41.3565 8.05965 40.6246C8.05965 39.8927 7.46633 39.2993 6.73441 39.2993C6.0025 39.2993 5.40918 39.8927 5.40918 40.6246C5.40918 41.3565 6.0025 41.9498 6.73441 41.9498Z" fill="#080F21"/>
<path d="M82.3536 61.6549C83.0855 61.6549 83.6788 61.0615 83.6788 60.3296C83.6788 59.5977 83.0855 59.0044 82.3536 59.0044C81.6216 59.0044 81.0283 59.5977 81.0283 60.3296C81.0283 61.0615 81.6216 61.6549 82.3536 61.6549Z" fill="#080F21"/>
<path d="M53.4909 41.8143C55.812 41.8143 57.6937 39.9326 57.6937 37.6115C57.6937 35.2903 55.812 33.4087 53.4909 33.4087C51.1697 33.4087 49.2881 35.2903 49.2881 37.6115C49.2881 39.9326 51.1697 41.8143 53.4909 41.8143Z" fill="#080F21"/>
<defs>
<linearGradient id="paint0_linear_1387_20643" x1="65.7411" y1="46.2838" x2="83.222" y2="46.2838" gradientUnits="userSpaceOnUse">
<stop offset="0.005" stop-color="#3063BA"/>
<stop offset="1" stop-color="#A3BFF6"/>
</linearGradient>
<linearGradient id="paint1_linear_1387_20643" x1="51.042" y1="18.2389" x2="55.0538" y2="18.2389" gradientUnits="userSpaceOnUse">
<stop offset="0.005" stop-color="#3063BA"/>
<stop offset="1" stop-color="#A3BFF6"/>
</linearGradient>
<linearGradient id="paint2_linear_1387_20643" x1="32.6873" y1="36.8675" x2="46.2295" y2="36.8675" gradientUnits="userSpaceOnUse">
<stop offset="0.005" stop-color="#3063BA"/>
<stop offset="1" stop-color="#A3BFF6"/>
</linearGradient>
</defs>
</svg>
