<svg width="94" height="84" viewBox="0 0 94 84" fill="none" xmlns="http://www.w3.org/2000/svg">
<path opacity="0.2" d="M32.3399 14.5892V40.8582H26.8799V11.7002L32.3399 14.5892Z" fill="url(#paint0_linear_447_40326)"/>
<path opacity="0.3" d="M22.2725 14.9893L20.9785 40.8582H19.0205V16.2523L22.2725 14.9893Z" fill="url(#paint1_linear_447_40326)"/>
<path opacity="0.2" d="M17.6937 17.0977V40.8586H13.6017L12.8057 20.2137L17.6937 17.0977Z" fill="url(#paint2_linear_447_40326)"/>
<path opacity="0.2" d="M18.3658 65.8315C18.3688 68.4696 17.9081 71.0878 17.0048 73.5665H13.2898C11.2373 73.5665 9.26882 72.7511 7.81747 71.2998C6.36613 69.8484 5.55078 67.88 5.55078 65.8275V45.4805C9.38857 47.319 12.6282 50.2053 14.8957 53.8062C17.1632 57.4072 18.3662 61.576 18.3658 65.8315Z" fill="url(#paint3_linear_447_40326)"/>
<path opacity="0.2" d="M66.3985 64.2109V65.9819C66.3985 67.931 65.6242 69.8003 64.246 71.1785C62.8678 72.5567 60.9985 73.3309 59.0495 73.3309H58.3595C58.2411 71.0616 59.0163 68.8361 60.519 67.1314C62.0216 65.4267 64.1322 64.3783 66.3985 64.2109Z" fill="url(#paint4_linear_447_40326)"/>
<path d="M66.1166 40.2156V63.4916C66.1874 64.7218 66.1342 65.9561 65.9576 67.1756C65.3386 70.1686 62.8806 72.9756 59.6806 73.0366C57.3316 73.0806 54.9806 73.0366 52.6266 73.0366H14.5026C13.402 73.067 12.3067 72.8737 11.2829 72.4685C10.2592 72.0632 9.32836 71.4544 8.54678 70.6789C7.7652 69.9034 7.14914 68.9773 6.73589 67.9568C6.32265 66.9362 6.1208 65.8424 6.1426 64.7416C6.0996 56.7536 6.1426 48.7656 6.1426 40.7786V40.0326C6.1426 39.7156 3.9696 40.0116 3.9696 40.6156V64.4256C3.84977 66.2557 4.23589 68.0834 5.08563 69.7086C5.8602 70.9928 6.95484 72.0539 8.26248 72.7882C9.57011 73.5225 11.0459 73.9047 12.5456 73.8976C14.9376 73.9356 17.3336 73.8976 19.7256 73.8976H49.7596C52.5466 73.8976 55.3356 73.9156 58.1236 73.8976C63.3846 73.8626 68.2236 70.4396 68.2896 64.8656C68.3896 56.7176 68.2896 48.5606 68.2896 40.4116V39.6376C68.2896 39.3206 66.1166 39.6166 66.1166 40.2196V40.2156Z" fill="#080F21"/>
<path d="M34.4149 16.2V41.052L35.4349 40.499H6.5719L6.99588 40.751L9.7959 23.988C9.89928 23.5722 9.96983 23.1489 10.0069 22.722C10.0069 22.61 10.0709 22.493 10.0629 22.382C10.0519 22.207 9.59288 22.582 9.92688 22.497C10.6126 22.1817 11.2518 21.7739 11.8269 21.285L13.2569 20.374C15.3789 19.02 17.5019 17.667 19.6259 16.315L26.9859 11.623L25.9659 11.781L34.5579 16.326C34.9179 16.516 36.2579 15.965 35.7279 15.686C32.8612 14.17 29.9972 12.6547 27.1359 11.14C26.964 11.095 26.7847 11.0858 26.6091 11.1128C26.4335 11.1398 26.2653 11.2025 26.1149 11.297L12.6449 19.883L9.5809 21.837C8.8259 22.318 8.65489 22.412 8.51389 23.256L6.9559 32.602L5.56088 40.965C5.52288 41.195 5.8259 41.217 5.9859 41.217H34.8469C35.1469 41.217 35.8669 41.064 35.8669 40.664V15.812C35.8629 15.457 34.4149 15.699 34.4149 16.2Z" fill="#080F21"/>
<path d="M11.0723 40.8589H1.5233C1.32984 40.8583 1.13853 40.8185 0.960857 40.742C0.783185 40.6655 0.622821 40.5537 0.489482 40.4136C0.356144 40.2734 0.252585 40.1077 0.185008 39.9265C0.117432 39.7452 0.0872479 39.5521 0.0962938 39.3589C0.865294 20.8489 15.7843 5.21488 34.2963 4.44688C34.4895 4.43784 34.6826 4.46799 34.8639 4.53556C35.0451 4.60314 35.2108 4.70673 35.351 4.84007C35.4912 4.97341 35.6029 5.13374 35.6794 5.31141C35.7559 5.48909 35.7957 5.68043 35.7963 5.87388V16.1369C32.5496 16.1368 29.3347 16.7761 26.3351 18.0184C23.3355 19.2607 20.61 21.0817 18.3142 23.3774C16.0184 25.673 14.1972 28.3984 12.9546 31.3979C11.712 34.3974 11.0724 37.6122 11.0723 40.8589Z" fill="#080F21"/>
<path d="M24.0075 41.0594C23.9761 41.0591 23.9449 41.0525 23.9161 41.04C23.8872 41.0274 23.8612 41.0092 23.8395 40.9864C23.7495 40.8974 23.6625 40.7154 23.6715 39.6004V19.3154C23.6625 18.0684 23.7795 17.9514 23.8415 17.8894L23.9005 17.8294L24.0075 17.8174C24.0392 17.8175 24.0705 17.824 24.0995 17.8365C24.1286 17.8491 24.1547 17.8674 24.1765 17.8904C24.2665 17.9804 24.3525 18.1614 24.3445 19.2764V39.5614C24.3525 40.8084 24.2365 40.9254 24.1745 40.9874L24.1155 41.0474L24.0075 41.0594Z" fill="#080F21"/>
<path d="M35.0789 29.9131C35.0301 29.9123 34.9814 29.909 34.9329 29.9031H34.8679H12.8059C12.5869 29.9031 12.5869 29.6541 12.5869 29.5491C12.5869 29.4441 12.5869 29.1921 12.8059 29.1921C12.8967 29.1726 12.9904 29.1706 13.0819 29.1861C13.1069 29.1861 13.1299 29.1861 13.1469 29.1861H35.2089C35.4279 29.1861 35.4279 29.4341 35.4279 29.5401C35.4279 29.6461 35.4279 29.8971 35.2089 29.8971C35.1665 29.9081 35.1228 29.9135 35.0789 29.9131Z" fill="#080F21"/>
<path opacity="0.2" d="M66.9608 14.3414L57.7878 40.6914L52.6758 38.7744L63.0128 9.31738C64.4768 10.8703 65.7981 12.5517 66.9608 14.3414Z" fill="url(#paint5_linear_447_40326)"/>
<path opacity="0.2" d="M56.2472 6.22266L44.1612 35.4316L42.3271 34.7447L52.6302 6.60565L56.2472 6.22266Z" fill="url(#paint6_linear_447_40326)"/>
<path d="M60.2963 41.6519L40.5483 34.0709L37.6853 32.9709L37.9483 33.5009L46.8313 10.6439L48.0913 7.40388L46.8403 7.73887L54.8153 12.5709L59.9643 15.6909C60.4933 16.0109 61.0123 16.3669 61.5583 16.6559C61.6753 16.7091 61.7854 16.7763 61.8863 16.8559C61.7673 16.7449 61.8253 16.6639 61.8423 17.0229C62.0186 18.4492 62.2966 19.8612 62.6743 21.2479C63.0076 22.9292 63.3383 24.6102 63.6663 26.2909C64.2756 29.3949 64.8856 32.4989 65.4963 35.6029C65.5706 35.8864 65.627 36.1743 65.6653 36.4649C65.6433 36.1239 65.6993 36.2649 65.4053 36.4799C64.6237 37.1227 63.8751 37.8045 63.1623 38.5229C62.4623 39.1579 61.7783 39.8049 61.0713 40.4229C60.8963 40.5769 61.1853 40.3229 61.0183 40.4669C60.8273 40.6299 60.6323 40.7879 60.4383 40.9479L59.3983 41.8109C58.6433 42.4369 59.8153 42.8519 60.3443 42.4109C61.4443 41.5029 62.5063 40.5859 63.5573 39.6279L65.9763 37.4279C66.2513 37.1779 66.9933 36.6859 67.1083 36.3089C67.1272 35.7485 67.0355 35.1898 66.8383 34.6649L66.2013 31.4259C65.9346 30.0812 65.67 28.7365 65.4073 27.3919C64.8073 24.3539 64.21 21.3159 63.6153 18.2779C63.4923 17.6539 63.5023 16.5689 63.0623 16.0779C62.8412 15.9029 62.5989 15.7564 62.3413 15.6419L57.8303 12.9079L47.9663 6.93186C47.7529 6.82454 47.5074 6.79947 47.2768 6.86143C47.0461 6.92339 46.8462 7.06806 46.7153 7.26786L37.8313 30.1249L36.5723 33.3649C36.548 33.4163 36.5356 33.4727 36.5361 33.5296C36.5367 33.5865 36.5501 33.6426 36.5754 33.6936C36.6007 33.7446 36.6373 33.7892 36.6823 33.824C36.7273 33.8589 36.7796 33.8831 36.8353 33.8949L56.5843 41.4759L59.4463 42.5759C60.0203 42.7999 61.1403 41.9759 60.2963 41.6519Z" fill="#080F21"/>
<path d="M45.4111 10.6624L49.0111 1.05243C49.0797 0.871493 49.1841 0.706316 49.3182 0.566837C49.4523 0.427358 49.6132 0.316474 49.7914 0.240879C49.9695 0.165283 50.161 0.126516 50.3545 0.126957C50.548 0.127397 50.7394 0.167037 50.9171 0.243442C67.9831 7.46244 77.1321 27.5914 71.3531 45.1914C71.2934 45.3753 71.1971 45.5451 71.07 45.6907C70.9429 45.8364 70.7877 45.9548 70.6136 46.0389C70.4396 46.123 70.2503 46.171 70.0573 46.18C69.8642 46.189 69.6713 46.1589 69.4901 46.0914L59.8801 42.4914C62.1819 36.3519 61.9506 29.5495 59.2372 23.5805C56.5238 17.6115 51.5504 12.9648 45.4111 10.6624Z" fill="#080F21"/>
<path d="M48.1287 37.9913L48.0146 37.7823L48.0916 37.6583C48.1326 37.5967 48.169 37.5322 48.2007 37.4653L48.1197 37.4253L48.1277 37.1883L54.9396 19.0213C55.4396 17.6533 55.6057 17.6533 55.7397 17.6533L55.8177 17.6833L55.9576 17.7993C56.0096 17.9173 56.0317 18.1343 55.6117 19.2293L48.7846 37.4353C48.7846 37.4353 48.4416 37.9913 48.2466 37.9913H48.1287Z" fill="#080F21"/>
<path d="M62.0502 33.0703L40.1182 24.8473L40.1492 24.6473C40.1692 24.5413 40.2492 24.1963 40.4662 24.1963L41.7191 24.6523L62.4352 32.4203L62.4042 32.6203C62.3842 32.7263 62.3042 33.0703 62.0872 33.0703H62.0502Z" fill="#080F21"/>
<path opacity="0.3" d="M38.6198 50.9248L37.7769 72.6248L37.7569 73.1618H35.7979V52.5918C36.6157 51.8505 37.5759 51.2833 38.6198 50.9248Z" fill="url(#paint7_linear_447_40326)"/>
<path opacity="0.3" d="M48.2963 54.3918L48.0613 72.6288L48.0543 73.1658H47.4033V52.3418C47.5033 52.5108 47.6033 52.6928 47.7033 52.8838L47.7313 52.9388C47.9579 53.4074 48.1469 53.8932 48.2963 54.3918Z" fill="url(#paint8_linear_447_40326)"/>
<path opacity="0.3" d="M46.7619 53.1027L45.9478 72.7947L45.9249 73.3317H43.8389V50.7607C45.0525 51.1368 46.082 51.9524 46.7259 53.0477L46.7619 53.1027Z" fill="url(#paint9_linear_447_40326)"/>
<path d="M50.2042 72.7354H32.5242L33.1891 73.1924V65.4504C33.0478 62.8082 33.0715 60.1597 33.2602 57.5204C33.4717 55.779 34.2384 54.1521 35.4468 52.8806C36.6551 51.609 38.2408 50.7604 39.9691 50.4604C41.6375 50.2381 43.3341 50.5278 44.8342 51.2912C46.3342 52.0546 47.567 53.2557 48.3692 54.7354C49.8832 57.4954 49.4042 61.1504 49.4042 64.1934V73.3104C49.4042 74.0524 50.8692 73.8244 50.8692 73.1924V64.5284C50.8692 61.3144 51.3842 57.4154 49.8862 54.4634C46.8372 48.4634 38.3332 47.6834 33.9962 52.7224C31.3962 55.7414 31.7232 59.4104 31.7232 63.0904V73.3104C31.7232 73.6834 32.0762 73.7674 32.3882 73.7674H50.0722C50.8852 73.7674 51.1902 72.7354 50.2042 72.7354Z" fill="#080F21"/>
<path d="M73.3928 53.4221C73.1818 52.9821 72.9678 52.5421 72.7568 52.1001L75.1238 49.4001C75.3703 49.1189 75.6766 48.8966 76.0203 48.7495C76.364 48.6024 76.7363 48.5343 77.1098 48.5501C77.2098 49.5501 77.3098 50.5581 77.4038 51.5631C77.4392 51.9291 77.4748 52.2957 77.5108 52.6631C77.5486 52.9887 77.5062 53.3187 77.3873 53.6242C77.2684 53.9297 77.0767 54.2016 76.8288 54.4161C76.7828 54.4541 76.7348 54.4901 76.6848 54.5251C76.3115 54.7751 75.8705 54.9048 75.4213 54.8968C74.972 54.8887 74.536 54.7433 74.1718 54.4801C73.8252 54.2005 73.5569 53.836 73.3928 53.4221Z" fill="#080F21"/>
<path d="M87.1298 64.104C86.5604 66.3801 86.5282 68.7574 87.0358 71.048C85.1232 72.1337 83.01 72.8196 80.8243 73.064C78.6386 73.3084 76.4261 73.1064 74.3208 72.47L74.0498 71.033C73.7613 69.4966 73.0849 68.0595 72.0848 66.858L71.0848 65.658C69.964 64.3106 69.1505 62.735 68.7008 61.041L65.0388 47.241C64.9812 47.0261 64.9737 46.8009 65.017 46.5826C65.0603 46.3644 65.1532 46.1591 65.2885 45.9825C65.4238 45.8059 65.598 45.6628 65.7974 45.5642C65.9969 45.4656 66.2163 45.4142 66.4388 45.414H66.4588C67.231 45.4138 67.9887 45.6231 68.6513 46.0197C69.3138 46.4163 69.8563 46.9853 70.2208 47.666L70.6408 48.452C71.2455 49.7053 71.8488 50.96 72.4508 52.216C72.7748 52.888 73.0978 53.562 73.4208 54.233C73.5827 54.6357 73.8296 54.9987 74.1448 55.297C74.5001 55.5927 74.9395 55.7687 75.4006 55.7999C75.8617 55.8312 76.321 55.7161 76.7128 55.471C78.1868 54.531 77.8068 52.582 77.6628 51.095C77.5708 50.14 77.4758 49.186 77.3838 48.228H77.3718L77.3388 47.821L77.3268 47.666C77.1574 45.5229 76.5804 43.4318 75.6268 41.505L73.2878 36.764C73.0885 36.3594 73.0396 35.8971 73.15 35.4597C73.2603 35.0224 73.5226 34.6385 73.89 34.3768C74.2573 34.1152 74.7058 33.9927 75.1552 34.0314C75.6046 34.0701 76.0256 34.2674 76.3428 34.588L79.8718 38.151C81.2239 39.5161 82.2867 41.1398 82.9968 42.925L85.4738 49.158C85.4808 49.206 85.4888 49.253 85.4988 49.297C85.7988 50.745 86.1078 52.192 86.3988 53.644C86.4358 53.825 86.4678 54.007 86.4878 54.191C86.4878 54.198 86.4878 54.25 86.4958 54.291C86.4943 54.2651 86.4943 54.239 86.4958 54.213C86.4958 54.121 86.4958 54.248 86.4958 54.276C86.4958 54.338 86.4958 54.333 86.4958 54.305C86.4958 54.505 86.4958 54.705 86.4958 54.9C86.4958 55.017 86.4758 56.143 86.6318 56.143C86.7878 56.143 86.7688 54.943 86.7688 54.9C86.7929 53.682 86.6981 52.4646 86.4858 51.265L86.5858 51.332C87.5224 51.9604 88.2423 52.8626 88.6471 53.9153C89.052 54.968 89.1221 56.12 88.8478 57.214L87.1298 64.104Z" fill="#080F21"/>
<path d="M77.3809 48.2234H77.3719L77.3389 47.8164C77.3539 47.9524 77.3719 48.0914 77.3809 48.2234Z" fill="white"/>
<path d="M66.9394 46.2783L67.3394 47.3463C67.4817 47.7278 67.4882 48.1466 67.358 48.5323C67.2278 48.918 66.9688 49.2471 66.6244 49.4643L66.3994 49.6063" fill="#3A1E44"/>
<path d="M66.9306 46.5783C67.0666 46.9413 67.2086 47.3023 67.3376 47.6683C67.3736 47.7683 67.3846 47.8764 67.4146 47.9804C67.4366 48.0594 67.4366 47.8804 67.4146 47.9554C67.3986 48.0064 67.3966 48.0643 67.3836 48.1163C67.3329 48.3112 67.249 48.496 67.1356 48.6624C66.9376 48.9229 66.6868 49.1386 66.3996 49.2954C66.3436 49.3304 66.3656 49.5504 66.3656 49.6064C66.3656 49.6314 66.3936 49.9203 66.3996 49.9173C66.7435 49.7305 67.0327 49.4572 67.2386 49.1243C67.47 48.6388 67.5492 48.0946 67.4656 47.5633C67.359 47.0159 67.1858 46.4836 66.9496 45.9783C66.9366 45.9423 66.9086 46.1784 66.9076 46.1954C66.8931 46.3234 66.9002 46.4531 66.9306 46.5783Z" fill="white"/>
<path d="M74.0723 35.0918L74.8882 35.9408C75.1582 36.221 75.5179 36.3977 75.9048 36.4401C76.2916 36.4825 76.681 36.3879 77.0052 36.1728" fill="#3A1E44"/>
<path d="M74.0722 35.2436C74.3432 35.5246 74.6112 35.8086 74.8842 36.0876C75.1557 36.3664 75.5156 36.5423 75.9024 36.5854C76.2892 36.6284 76.679 36.5359 77.0052 36.3236C77.0332 36.3056 77.0222 36.1976 77.0222 36.1686C77.0222 36.1556 77.0072 36.0116 77.0052 36.0136C76.6789 36.2258 76.289 36.3181 75.9022 36.2749C75.5154 36.2317 75.1556 36.0556 74.8842 35.7766C74.6112 35.4976 74.3432 35.2136 74.0722 34.9326C74.0722 34.9326 74.0552 35.0726 74.0552 35.0876C74.0552 35.1256 74.0432 35.2126 74.0722 35.2436Z" fill="white"/>
<path d="M86.5013 54.2737C86.5013 54.3357 86.5013 54.3307 86.5013 54.3027C86.4998 54.3006 86.499 54.2982 86.499 54.2957C86.499 54.2932 86.4998 54.2907 86.5013 54.2887C86.4998 54.2627 86.4998 54.2366 86.5013 54.2107C86.5013 54.1187 86.5013 54.2457 86.5013 54.2737Z" fill="white"/>
<path d="M92.2543 78.9258C87.9243 80.8048 83.2863 82.6808 78.5593 83.1868C76.6018 83.5153 74.5908 83.2539 72.7823 82.4357C72.0703 82.0457 71.2273 81.5358 71.2243 80.6498C71.2484 80.1785 71.2975 79.7088 71.3713 79.2428C71.4933 78.0668 71.5793 76.8817 71.7393 75.7107C71.815 74.9327 72.1293 74.1971 72.6393 73.6047C73.6613 72.4817 74.7773 73.0458 76.0893 73.2048C78.3667 73.4692 80.673 73.3222 82.8983 72.7707C84.0136 72.4993 85.1067 72.144 86.1683 71.7077C86.4272 71.6411 86.6747 71.5359 86.9023 71.3957C87.2893 71.0527 86.5163 71.3817 86.9583 71.3137C87.4304 71.2252 87.915 71.2273 88.3863 71.3197C90.2303 71.7517 90.8273 73.3128 91.3783 74.8908C91.6383 75.6348 93.1113 78.3818 92.1133 78.9988C91.5133 79.3718 92.9523 79.2147 93.2243 79.0467C94.5633 78.2187 93.5843 76.6678 93.1843 75.5248C92.7213 74.1988 92.3893 72.6067 91.3033 71.6347C90.5936 71.084 89.7436 70.7435 88.85 70.652C87.9564 70.5604 87.055 70.7214 86.2483 71.1167C83.0457 72.6071 79.4596 73.0676 75.9843 72.4347C75.0555 72.166 74.0657 72.1959 73.1548 72.5204C72.244 72.8448 71.4581 73.4473 70.9083 74.2428C70.1513 75.3968 70.1943 76.9807 70.0553 78.3107C69.9323 79.4957 69.3553 81.2297 70.3063 82.1547C71.8203 83.6197 74.2063 83.8997 76.2123 83.8717C82.0243 83.7897 87.8313 81.4027 93.0873 79.1217C93.9633 78.7457 92.6053 78.7738 92.2543 78.9258Z" fill="#080F21"/>
<path d="M62.7609 81.0354C63.5236 81.0354 64.1419 80.4171 64.1419 79.6544C64.1419 78.8917 63.5236 78.2734 62.7609 78.2734C61.9982 78.2734 61.3799 78.8917 61.3799 79.6544C61.3799 80.4171 61.9982 81.0354 62.7609 81.0354Z" fill="#3A1E44"/>
<path d="M86.9777 13.891C87.1949 14.4752 87.5355 15.0057 87.9762 15.4465C88.4169 15.8872 88.9474 16.2278 89.5316 16.445C89.6292 16.4805 89.7135 16.5452 89.7731 16.6303C89.8327 16.7153 89.8646 16.8167 89.8646 16.9205C89.8646 17.0244 89.8327 17.1257 89.7731 17.2108C89.7135 17.2959 89.6292 17.3605 89.5316 17.396C88.9474 17.6132 88.4168 17.9537 87.976 18.3944C87.5353 18.8352 87.1948 19.3658 86.9777 19.95C86.9419 20.0475 86.8771 20.1317 86.792 20.1911C86.7068 20.2506 86.6055 20.2825 86.5016 20.2825C86.3978 20.2825 86.2965 20.2506 86.2114 20.1911C86.1262 20.1317 86.0614 20.0475 86.0257 19.95C85.8085 19.3658 85.468 18.8352 85.0273 18.3944C84.5865 17.9537 84.0559 17.6132 83.4716 17.396C83.3741 17.3605 83.2898 17.2959 83.2302 17.2108C83.1706 17.1257 83.1387 17.0244 83.1387 16.9205C83.1387 16.8167 83.1706 16.7153 83.2302 16.6303C83.2898 16.5452 83.3741 16.4805 83.4716 16.445C84.0558 16.2278 84.5864 15.8872 85.0271 15.4465C85.4678 15.0057 85.8084 14.4752 86.0257 13.891C86.0614 13.7935 86.1262 13.7094 86.2114 13.6499C86.2965 13.5905 86.3978 13.5586 86.5016 13.5586C86.6055 13.5586 86.7068 13.5905 86.792 13.6499C86.8771 13.7094 86.9419 13.7935 86.9777 13.891Z" fill="#080F21"/>
<path d="M79.4103 28.7845C80.173 28.7845 80.7913 28.1662 80.7913 27.4035C80.7913 26.6408 80.173 26.0225 79.4103 26.0225C78.6476 26.0225 78.0293 26.6408 78.0293 27.4035C78.0293 28.1662 78.6476 28.7845 79.4103 28.7845Z" fill="#080F21"/>
<path d="M40.5723 49.9366V73.4126C40.5723 74.0586 42.0262 73.7726 42.0262 73.2506V49.7746C42.0262 49.1276 40.5723 49.4136 40.5723 49.9366Z" fill="#080F21"/>
<defs>
<linearGradient id="paint0_linear_447_40326" x1="26.8799" y1="26.2792" x2="32.3399" y2="26.2792" gradientUnits="userSpaceOnUse">
<stop offset="0.005" stop-color="#3063BA"/>
<stop offset="1" stop-color="#A3BFF6"/>
</linearGradient>
<linearGradient id="paint1_linear_447_40326" x1="19.0205" y1="27.9243" x2="22.2725" y2="27.9243" gradientUnits="userSpaceOnUse">
<stop offset="0.005" stop-color="#3063BA"/>
<stop offset="1" stop-color="#A3BFF6"/>
</linearGradient>
<linearGradient id="paint2_linear_447_40326" x1="12.8057" y1="28.9776" x2="17.6937" y2="28.9776" gradientUnits="userSpaceOnUse">
<stop offset="0.005" stop-color="#3063BA"/>
<stop offset="1" stop-color="#A3BFF6"/>
</linearGradient>
<linearGradient id="paint3_linear_447_40326" x1="5.55078" y1="59.5235" x2="18.3658" y2="59.5235" gradientUnits="userSpaceOnUse">
<stop offset="0.005" stop-color="#3063BA"/>
<stop offset="1" stop-color="#A3BFF6"/>
</linearGradient>
<linearGradient id="paint4_linear_447_40326" x1="58.3475" y1="68.7709" x2="66.3985" y2="68.7709" gradientUnits="userSpaceOnUse">
<stop offset="0.005" stop-color="#3063BA"/>
<stop offset="1" stop-color="#A3BFF6"/>
</linearGradient>
<linearGradient id="paint5_linear_447_40326" x1="52.6758" y1="25.0054" x2="66.9608" y2="25.0054" gradientUnits="userSpaceOnUse">
<stop offset="0.005" stop-color="#3063BA"/>
<stop offset="1" stop-color="#A3BFF6"/>
</linearGradient>
<linearGradient id="paint6_linear_447_40326" x1="42.3271" y1="20.8276" x2="56.2472" y2="20.8276" gradientUnits="userSpaceOnUse">
<stop offset="0.005" stop-color="#3063BA"/>
<stop offset="1" stop-color="#A3BFF6"/>
</linearGradient>
<linearGradient id="paint7_linear_447_40326" x1="25.1019" y1="72.0818" x2="45.9819" y2="55.6009" gradientUnits="userSpaceOnUse">
<stop offset="0.005" stop-color="#3063BA"/>
<stop offset="1" stop-color="#A3BFF6"/>
</linearGradient>
<linearGradient id="paint8_linear_447_40326" x1="29.2512" y1="77.3388" x2="50.1312" y2="60.8577" gradientUnits="userSpaceOnUse">
<stop offset="0.005" stop-color="#3063BA"/>
<stop offset="1" stop-color="#A3BFF6"/>
</linearGradient>
<linearGradient id="paint9_linear_447_40326" x1="27.8138" y1="75.5177" x2="48.6938" y2="59.0367" gradientUnits="userSpaceOnUse">
<stop offset="0.005" stop-color="#3063BA"/>
<stop offset="1" stop-color="#A3BFF6"/>
</linearGradient>
</defs>
</svg>
