<svg width="90" height="91" viewBox="0 0 90 91" fill="none" xmlns="http://www.w3.org/2000/svg">
<path opacity="0.2" d="M72.5996 38.7081C67.0678 41.9466 63.853 45.7381 64.7868 48.5767C64.8995 48.9181 65.067 49.239 65.2827 49.5267C59.5838 52.9609 53.0495 54.76 46.3958 54.727C37.9796 54.7935 29.8097 51.889 23.3242 46.5247C25.8303 42.8461 28.847 39.5427 32.2836 36.714C46.7388 24.7526 65.2124 23.2164 73.5448 33.2864C73.5572 33.2978 73.5686 33.3102 73.5686 33.3216C73.9011 33.7229 74.142 34.1919 74.2744 34.696C74.4069 35.2001 74.4277 35.727 74.3354 36.2399C74.2432 36.7529 74.04 37.2395 73.7402 37.6658C73.4404 38.0921 73.0511 38.4478 72.5996 38.7081Z" fill="url(#paint0_linear_1387_20609)"/>
<path opacity="0.2" d="M53.9074 78.87C41.3912 85.2996 27.9877 84.76 21.2389 76.6004C20.9672 76.2698 20.7073 75.9272 20.459 75.5726C22.509 72.9069 25.2041 70.8072 28.2902 69.4714C31.3764 68.1357 34.7518 67.6079 38.0984 67.9378C41.4449 68.2677 44.6524 69.4445 47.4182 71.3572C50.1841 73.2698 52.4174 75.8553 53.9074 78.87Z" fill="url(#paint1_linear_1387_20609)"/>
<path d="M69.2537 50.9609C67.728 50.503 66.0399 49.6309 65.7178 47.9105C65.5921 46.7948 65.8875 45.6724 66.5462 44.7631C67.4371 43.4433 68.5419 42.2813 69.8152 41.3251C71.1756 40.2402 72.9102 39.5115 74.1566 38.3117C78.634 34.0006 70.7367 29.0891 67.3167 27.7211C55.7951 23.124 42.1722 28.2959 32.8907 35.4256C26.881 39.9489 22.0835 45.8887 18.9258 52.7156C16.2572 58.6854 15.0241 65.8123 17.4153 72.0832C18.497 74.7962 20.2166 77.2085 22.4283 79.1158C24.6401 81.0232 27.279 82.3694 30.1215 83.0405C36.4693 84.6954 43.3179 83.659 49.394 81.4426C56.5204 78.7749 62.9161 74.462 68.0605 68.8551C71.7104 64.9155 77.5101 58.5001 72.8666 53.1801C71.9503 52.1556 70.7656 51.408 69.4466 51.0217C69.203 50.9488 68.9466 50.929 68.6948 50.9636C68.4429 50.9982 68.2013 51.0864 67.9864 51.2222C67.7793 51.3618 67.2977 51.8473 67.7964 52.0002C69.0573 52.3636 70.181 53.0953 71.0232 54.1016C71.8654 55.1079 72.3879 56.3428 72.5236 57.648C72.8314 60.688 70.6455 63.3109 68.9013 65.5767C64.3848 71.4555 58.5223 76.1634 51.807 79.3042C46.0054 81.9775 39.3744 83.4842 33.0066 82.3053C30.2055 81.8602 27.5534 80.7447 25.2762 79.0539C22.9991 77.3631 21.1642 75.147 19.928 72.5944C17.363 66.996 17.9672 60.5208 20.0107 54.8636C22.5994 48.0838 26.8843 42.0816 32.4556 37.431C41.0056 30.0885 54.0072 24.3315 65.2685 28.5495C68.5878 29.7921 77.2527 35.1995 71.3969 38.7743C68.4519 40.5698 60.6382 46.0456 64.6025 50.256C65.5518 51.1438 66.7178 51.7663 67.9836 52.061C68.6172 52.2482 70.3937 51.3039 69.2537 50.9609Z" fill="#080F21"/>
<path d="M61.2871 63.4527C59.4821 64.6782 56.71 65.8202 54.6742 64.4123C52.8692 63.1649 53.2131 60.7168 54.1631 59.0486C54.8064 57.9245 55.6724 56.9436 56.7081 56.1659C57.7437 55.3882 58.9272 54.83 60.1861 54.5256C62.1545 54.1067 64.4506 54.7954 64.8524 57.0061C65.317 59.5587 63.2223 62.0866 61.2871 63.4527C61.0021 63.6503 60.682 63.9838 61.0971 64.2308C61.3397 64.3107 61.5973 64.3342 61.8504 64.2994C62.1034 64.2647 62.3452 64.1727 62.5573 64.0304C64.8078 62.4429 67.102 59.933 66.9738 56.9804C66.8455 54.0278 63.7733 53.0778 61.2738 53.3058C59.5762 53.4969 57.9371 54.0402 56.4614 54.901C54.9857 55.7618 53.7059 56.9211 52.7039 58.3047C51.3378 60.2342 50.4439 63.3264 52.5851 65.0801C55.3886 67.3763 59.9353 65.8126 62.5601 64.0304C62.8451 63.8356 63.1615 63.4964 62.7501 63.2523C62.5071 63.1723 62.249 63.1489 61.9955 63.1836C61.742 63.2183 61.4997 63.3103 61.2871 63.4527Z" fill="#080F21"/>
<path d="M60.0224 64.4795C58.9175 65.0455 57.6631 65.2515 56.4352 65.0685C56.0096 62.9168 55.6866 61.2856 55.2259 58.7919C55.1195 58.2124 55.0131 57.6338 54.8943 57.0419C53.6185 50.2105 50.7144 32.0874 49.258 23.1868C48.9151 21.1073 49.2694 19.2747 50.038 18.8491C50.1106 18.8061 50.191 18.778 50.2745 18.7664L51.4326 18.5764C52.3664 18.4349 53.4276 20.1724 53.7962 22.4534C55.0967 30.6091 57.7073 48.1528 58.606 54.6299C58.6886 55.1742 58.7599 55.7291 58.8302 56.2611C59.2681 59.4179 59.6918 61.8195 60.0224 64.4795Z" fill="#080F21"/>
<path d="M60.7668 82.1289C60.3868 82.1878 59.7265 80.3439 58.8516 76.8574C59.5251 76.408 60.1873 75.9358 60.8466 75.439C61.1924 79.7035 61.181 82.0577 60.7668 82.1289Z" fill="#080F21"/>
<path d="M54.3193 10.25L53.776 20.1832C53.7797 20.4609 53.687 20.7313 53.5138 20.9483C53.3406 21.1653 53.0975 21.3156 52.826 21.3736L49.5437 21.8552C49.2667 21.8772 48.9907 21.8025 48.7626 21.6438C48.5344 21.4851 48.3684 21.2524 48.2926 20.985L44.8906 11.6294C45.1671 12.0826 47.258 12.1738 49.7356 11.8109C50.462 11.7055 51.1824 11.5625 51.894 11.3824L52.4991 11.2143C53.5527 10.8998 54.2433 10.5436 54.3193 10.25Z" fill="#080F21"/>
<path d="M44.3789 10.0933L44.4169 10.1802C44.4039 10.1552 44.3919 10.1183 44.3789 10.0933Z" fill="#3063BA"/>
<path d="M51.8899 11.3822C51.1734 11.5647 50.447 11.7058 49.7144 11.8049C47.099 12.185 44.9159 12.0719 44.8399 11.5484C44.7639 11.025 46.8226 10.2916 49.4379 9.91063C52.0532 9.52968 54.2373 9.64372 54.3133 10.1662C54.3608 10.493 53.7243 10.8616 52.495 11.2112" fill="#080F21"/>
<path d="M31.8598 46.1304C32.2475 45.9147 32.6826 45.7982 33.1263 45.7913C33.57 45.7845 34.0085 45.8874 34.4028 46.0909C34.797 46.2945 35.1349 46.5924 35.3862 46.9581C35.6375 47.3239 35.7944 47.746 35.8431 48.1871C35.8783 48.53 35.9134 48.9319 35.9381 49.3803C35.9115 49.8346 35.7906 50.2784 35.583 50.6833C35.3755 51.0883 35.0858 51.4456 34.7326 51.7325C34.1626 52.2407 32.5818 52.8725 32.0374 53.5289C30.5725 55.2902 33.0539 56.474 31.6717 57.9265C29.7327 59.9595 28.5272 58.0795 27.0262 59.6755C25.3247 61.4719 24.9105 62.2642 24.1762 61.6704C22.7816 60.4763 22.8167 52.6873 26.5873 49.7005C28.2004 48.3346 29.9556 47.146 31.8227 46.1551C31.8359 46.1482 31.8483 46.1399 31.8598 46.1304Z" fill="#080F21"/>
<path d="M31.981 76.3528C30.1256 76.0925 28.9676 73.6576 31.2485 71.7548C31.7076 71.381 32.1934 71.0413 32.702 70.7383C33.7815 70.137 35.0487 69.9673 36.2484 70.2633C37.0872 70.4875 38.0686 71.5392 38.8723 71.7881C39.9035 71.995 40.9722 71.9088 41.9569 71.5392C42.4456 71.3565 42.9692 71.286 43.4888 71.3331C44.0085 71.3801 44.5109 71.5434 44.9589 71.8109C46.058 72.7333 45.6324 73.2653 45.2439 73.7498C44.8183 74.2343 44.4402 74.6713 44.9361 75.3097C46.0001 76.7755 46.343 77.2486 45.2078 77.4377C43.6241 77.496 42.0474 77.6777 40.492 77.9811C38.9796 78.2528 38.2348 78.7411 36.8279 77.9336C35.2937 77.2353 33.6888 76.7044 32.0408 76.35L31.981 76.3528Z" fill="#080F21"/>
<path d="M61.6231 63.9421C60.6264 64.5962 59.5277 65.0798 58.3722 65.3729C57.2018 63.3988 55.9883 61.3303 54.7318 59.1674C54.4838 58.7418 54.2359 58.3049 53.987 57.8669C52.7814 55.7769 51.5521 53.6118 50.3 51.4069C47.8414 47.0568 45.5368 42.873 43.4601 38.9961C42.3486 36.9393 41.3093 34.9662 40.3251 33.1061C40.0771 32.6311 39.8282 32.1561 39.5926 31.7001C39.2611 31.0617 38.9276 30.4233 38.6227 29.821C34.5377 21.841 32.1931 16.5713 32.7251 16.2759C33.2571 15.9804 36.4006 20.4949 40.9397 27.8232C41.4242 28.6031 41.9211 29.4191 42.4407 30.258C42.7124 30.7073 42.9841 31.1567 43.2682 31.6288C43.5399 32.0782 43.8239 32.5389 44.0956 33.012C47.0026 37.857 50.2772 43.4725 53.6687 49.5003C54.7802 51.4744 55.868 53.4237 56.9073 55.3152C57.1676 55.7759 57.4155 56.2376 57.6673 56.6984C59.0818 59.2149 60.3938 61.6374 61.6231 63.9421Z" fill="white"/>
<path d="M61.1833 63.671C60.2809 64.243 59.2969 64.6744 58.2649 64.9507L59.0116 65.0827C54.729 57.8545 50.5674 50.5553 46.5267 43.1852C42.6631 36.1305 38.809 29.0378 35.427 21.7371C34.9064 20.6132 34.3943 19.4827 33.944 18.3294C33.7949 17.9494 33.6486 17.5694 33.5298 17.1742C33.4991 16.9132 33.4385 16.6566 33.3493 16.4094C33.3389 16.3952 33.3645 16.3543 33.3493 16.3429L33.3398 16.36C33.1859 16.659 32.8693 16.7667 32.3898 16.6831C32.4012 16.7277 32.5295 16.7477 32.5494 16.7971C32.6501 17.0431 33.0596 17.3338 33.2344 17.5438C33.9592 18.4178 34.6109 19.3563 35.255 20.2911C39.5462 26.5213 43.3775 33.082 47.1936 39.6094C51.9398 47.7294 56.5375 55.9367 60.9866 64.2315C61.2422 64.7065 62.5693 64.2429 62.2539 63.652C57.9929 55.672 53.5757 47.7743 49.0024 39.959C44.9459 32.9946 40.8838 25.9712 36.2725 19.3535C35.6502 18.4165 34.9726 17.5175 34.2433 16.6612C33.9601 16.2378 33.5309 15.9335 33.0377 15.8062C31.2223 15.6238 32.2521 17.9162 32.5627 18.6999C35.3377 25.8097 39.2127 32.5747 42.8227 39.2826C47.6101 48.1797 52.5817 56.9735 57.7376 65.6641C57.8668 65.8816 58.2886 65.8474 58.4843 65.7952C59.7511 65.4513 60.9589 64.9184 62.0668 64.2144C62.8629 63.7223 61.702 63.349 61.1833 63.671Z" fill="#080F21"/>
<path d="M44.1056 39.3055C42.9951 37.2487 41.3164 34.9612 40.3351 33.1049C40.0871 32.6299 39.8392 32.1548 39.6027 31.6988C39.2721 31.0604 34.6332 21.7096 34.3254 21.1073C34.3017 20.5373 34.4119 20.771 34.6475 20.5107C34.7064 20.4497 34.7743 20.3981 34.8489 20.3577L35.8891 19.8134C35.6041 19.7184 36.1019 19.707 35.8891 19.8134C36.3736 20.5933 41.9311 29.4179 42.4507 30.2567C42.7234 30.7061 42.9951 31.1554 43.2782 31.6276C43.5499 32.0769 43.8339 32.5377 44.1056 33.0108C42.427 32.8683 43.0445 36.3396 44.1056 39.3055Z" fill="#080F21"/>
<path d="M70.9108 83.6447C70.414 83.9297 67.5422 79.8628 63.3574 73.1606C64.1174 72.5108 64.847 71.8372 65.5557 71.1655C69.3148 78.5385 71.4305 83.3493 70.9108 83.6447Z" fill="white"/>
<path d="M70.4959 83.5148C70.2755 83.6155 71.3043 83.3305 71.3138 83.3476C71.3414 83.3942 71.3062 83.3533 71.2815 83.3248C71.2246 83.2721 71.164 83.2235 71.1001 83.1795C70.9115 83.0078 70.7356 82.8227 70.5738 82.6256C70.0038 81.9606 69.4917 81.2529 68.9873 80.5413C67.245 78.0837 65.6348 75.531 64.0388 72.9765L63.8858 73.214C64.6667 72.5395 65.4308 71.8466 66.1781 71.1354L64.8605 71.3482C66.3207 74.2153 67.7703 77.0957 69.0566 80.0464C69.4224 80.8843 69.7843 81.7307 70.0665 82.6019C70.1555 82.8529 70.2235 83.111 70.2698 83.3733C70.2695 83.4574 70.2771 83.5414 70.2926 83.6241C70.3182 83.683 70.2052 83.7039 70.3676 83.5927C70.1244 83.7599 70.227 83.9053 70.4626 83.9585C70.8076 83.991 71.1528 83.8986 71.4354 83.6982C71.8154 83.4379 71.6425 82.9286 71.5409 82.5638C71.2815 81.7117 70.9667 80.8774 70.5985 80.0663C69.278 76.9779 67.758 73.9711 66.2342 70.9796C66.0357 70.5901 65.1246 70.9948 64.9166 71.1924C64.2278 71.845 63.5296 72.4881 62.8114 73.1085C62.7791 73.137 62.61 73.2662 62.6594 73.346C64.4045 76.139 66.1611 78.9396 68.1028 81.6034C68.5733 82.2965 69.1012 82.949 69.6808 83.5538C69.8839 83.7739 70.1574 83.9163 70.4542 83.9567C70.751 83.9971 71.0526 83.9329 71.3072 83.7751C71.5086 83.6801 71.6986 83.4987 71.4592 83.3552C71.2198 83.2118 70.7172 83.4132 70.4959 83.5148Z" fill="#080F21"/>
<path d="M35.7855 20.0564L34.3909 20.8364C34.2407 20.9216 34.0751 20.976 33.9036 20.9965C33.7322 21.0171 33.5584 21.0032 33.3924 20.9559C33.2263 20.9086 33.0714 20.8288 32.9365 20.721C32.8016 20.6132 32.6895 20.4797 32.6068 20.3282C26.5904 9.5371 30.1596 7.52785 36.2823 18.26C36.4537 18.5643 36.4977 18.9241 36.4046 19.2607C36.3115 19.5974 36.0889 19.8835 35.7855 20.0564Z" fill="#080F21"/>
<path d="M32.7127 9.41852C33.8963 10.0332 34.8784 10.9749 35.5425 12.1315C36.2065 13.2881 36.5245 14.6111 36.4586 15.9432C36.5205 16.6545 36.3763 17.3686 36.0433 18.0001C35.7102 18.6317 35.2024 19.154 34.5804 19.5046C33.9584 19.8553 33.2487 20.0194 32.5359 19.9775C31.8232 19.9355 31.1375 19.6893 30.561 19.2682C29.3851 18.6365 28.4157 17.6799 27.7682 16.5127C27.1208 15.3454 26.8226 14.0167 26.9092 12.6847L27.2749 6.53906L32.7127 9.41852Z" fill="#080F21"/>
<path d="M17.279 47.5165C17.6123 47.6186 17.9715 47.5957 18.2892 47.4522C18.6069 47.3086 18.8614 47.0542 19.0051 46.7365C19.4714 45.7301 20.0891 44.801 20.8367 43.9815C21.0738 43.7251 21.2074 43.39 21.2118 43.0409C21.2162 42.6917 21.091 42.3533 20.8605 42.091C20.7284 41.9412 20.5661 41.8209 20.3843 41.7381C20.2024 41.6554 20.0052 41.612 19.8054 41.6109C19.6056 41.6097 19.4079 41.6507 19.2251 41.7314C19.0423 41.812 18.8786 41.9304 18.7448 42.0787C17.7969 43.1187 17.0153 44.2989 16.4278 45.5775C16.3444 45.7593 16.3005 45.9567 16.2989 46.1567C16.2973 46.3567 16.338 46.5548 16.4184 46.7379C16.4988 46.9211 16.617 47.0851 16.7653 47.2193C16.9137 47.3535 17.0887 47.4548 17.279 47.5165Z" fill="#080F21"/>
<path d="M15.8396 52.0318C16.5773 52.0318 17.1753 51.4337 17.1753 50.6961C17.1753 49.9584 16.5773 49.3604 15.8396 49.3604C15.1019 49.3604 14.5039 49.9584 14.5039 50.6961C14.5039 51.4337 15.1019 52.0318 15.8396 52.0318Z" fill="#080F21"/>
<defs>
<linearGradient id="paint0_linear_1387_20609" x1="23.3242" y1="40.6765" x2="74.397" y2="40.6765" gradientUnits="userSpaceOnUse">
<stop offset="0.005" stop-color="#3063BA"/>
<stop offset="1" stop-color="#A3BFF6"/>
</linearGradient>
<linearGradient id="paint1_linear_1387_20609" x1="20.459" y1="75.5488" x2="53.9074" y2="75.5488" gradientUnits="userSpaceOnUse">
<stop offset="0.005" stop-color="#3063BA"/>
<stop offset="1" stop-color="#A3BFF6"/>
</linearGradient>
</defs>
</svg>
