<svg width="90" height="91" viewBox="0 0 90 91" fill="none" xmlns="http://www.w3.org/2000/svg">
<path d="M78.9392 63.175C77.7946 65.4258 76.0448 67.3126 73.8866 68.6233C71.7283 69.934 69.2473 70.6167 66.7223 70.5945C60.6518 70.623 54.5813 70.5945 48.5109 70.5945H26.1574C23.4214 70.5945 20.7519 70.6326 18.187 69.4736C15.1519 68.1331 12.7735 65.6419 11.575 62.548H13.798C14.7654 64.5589 16.2933 66.2474 18.1978 67.4103C20.1022 68.5733 22.3022 69.1611 24.5329 69.103H64.4993C67.0738 69.103 69.5723 69.1885 71.9663 68.0105C76.1937 65.93 78.1317 61.6361 78.1317 57.1046V30.0105C78.1023 26.9432 76.871 24.0098 74.7023 21.8405C72.1468 19.304 68.8788 18.5726 65.4398 18.5726H23.6684C20.8339 18.5703 18.1104 19.6746 16.078 21.6505C13.9035 23.8323 12.6837 26.7878 12.6865 29.868C12.677 30.5615 12.6865 31.2456 12.6865 31.9296V38.0761H10.5965V35.6631C10.4746 33.2535 10.5095 30.8386 10.701 28.4335C11.1852 25.2897 12.7736 22.4212 15.1813 20.3424C17.589 18.2637 20.6586 17.1108 23.8394 17.0905C29.1404 17.024 34.4509 17.0905 39.7519 17.0905H63.2168C65.1138 17.0081 67.0141 17.0399 68.9073 17.1855C72.0081 17.5655 74.8651 19.0594 76.9466 21.389C79.028 23.7186 80.1919 26.7252 80.2217 29.8491V54.3401C80.2217 57.3896 80.33 60.3345 78.9392 63.175Z" fill="#080F21"/>
<path opacity="0.2" fill-rule="evenodd" clip-rule="evenodd" d="M62.4411 17.8629V69.8165C62.082 69.8383 61.7134 69.8497 61.3439 69.8497H50.6973V17.8306H61.3372C61.7172 17.8306 62.082 17.841 62.4411 17.8629Z" fill="url(#paint0_linear_1387_16774)"/>
<path opacity="0.2" fill-rule="evenodd" clip-rule="evenodd" d="M72.1248 18.9278V68.7525C70.8129 69.3522 69.4044 69.7125 67.9657 69.8165C67.6731 69.8386 67.3799 69.8497 67.086 69.8497H66.25V17.8306H67.086C67.3799 17.8306 67.6731 17.8413 67.9657 17.8629C69.4044 17.9671 70.813 18.3278 72.1248 18.9278Z" fill="url(#paint1_linear_1387_16774)"/>
<path d="M80.2199 30.0876H10.627C10.7049 22.8752 16.2566 17.0488 23.0947 17.0488H67.7522C74.5902 17.0488 80.1468 22.8752 80.2199 30.0876Z" fill="#080F21"/>
<path fill-rule="evenodd" clip-rule="evenodd" d="M80.4163 18.7752C80.7046 18.7761 80.9815 18.6631 81.1868 18.4608L83.0659 16.5817C83.1713 16.4814 83.2557 16.361 83.3139 16.2276C83.3721 16.0942 83.4031 15.9506 83.4049 15.805C83.4067 15.6595 83.3794 15.5151 83.3246 15.3803C83.2698 15.2455 83.1885 15.123 83.0856 15.0201C82.9827 14.9172 82.8602 14.8359 82.7254 14.7811C82.5906 14.7262 82.4462 14.6989 82.3006 14.7008C82.1551 14.7026 82.0114 14.7335 81.878 14.7918C81.7447 14.85 81.6243 14.9343 81.524 15.0398L79.6449 16.9189C79.4919 17.0708 79.3876 17.2649 79.3453 17.4763C79.303 17.6877 79.3246 17.907 79.4074 18.1061C79.4901 18.3052 79.6302 18.4751 79.8099 18.5943C79.9896 18.7135 80.2007 18.7764 80.4163 18.7752Z" fill="#080F21"/>
<path fill-rule="evenodd" clip-rule="evenodd" d="M75.3297 11.8247C75.1855 11.8243 75.0426 11.8525 74.9093 11.9075C74.776 11.9625 74.6549 12.0433 74.553 12.1453C74.451 12.2472 74.3702 12.3683 74.3152 12.5016C74.2602 12.6349 74.232 12.7778 74.2324 12.922V15.582C74.2408 15.8673 74.3601 16.1381 74.5648 16.3369C74.7696 16.5357 75.0438 16.6469 75.3292 16.6469C75.6146 16.6469 75.8888 16.5357 76.0936 16.3369C76.2983 16.1381 76.4176 15.8673 76.426 15.582V12.922C76.4265 12.7778 76.3985 12.635 76.3436 12.5017C76.2887 12.3684 76.2079 12.2473 76.1061 12.1453C76.0042 12.0434 75.8831 11.9625 75.7499 11.9075C75.6166 11.8525 75.4738 11.8243 75.3297 11.8247Z" fill="#080F21"/>
<path fill-rule="evenodd" clip-rule="evenodd" d="M85.1762 21.664H82.5162C82.3695 21.6597 82.2234 21.6849 82.0865 21.7381C81.9497 21.7912 81.8249 21.8714 81.7196 21.9736C81.6143 22.0759 81.5305 22.1982 81.4734 22.3335C81.4162 22.4687 81.3867 22.614 81.3867 22.7608C81.3867 22.9076 81.4162 23.053 81.4734 23.1882C81.5305 23.3234 81.6143 23.4457 81.7196 23.548C81.8249 23.6503 81.9497 23.7304 82.0865 23.7835C82.2234 23.8367 82.3695 23.8619 82.5162 23.8576H85.1762C85.4615 23.8492 85.7323 23.73 85.9312 23.5252C86.13 23.3204 86.2412 23.0462 86.2412 22.7608C86.2412 22.4754 86.13 22.2012 85.9312 21.9964C85.7323 21.7917 85.4615 21.6724 85.1762 21.664Z" fill="#080F21"/>
<path opacity="0.2" d="M24.9994 38.0811C24.4953 43.3082 22.357 48.2435 18.8883 52.1862C15.4196 56.1288 10.7968 58.8783 5.67648 60.0441C5.09685 59.1539 4.78979 58.1139 4.79299 57.0516V43.5806C4.79576 42.1227 5.37619 40.7254 6.40716 39.6946C7.43813 38.6638 8.83559 38.0836 10.2935 38.0811H24.9994Z" fill="url(#paint2_linear_1387_16774)"/>
<path d="M44.0844 43.8533V54.6671C44.0844 56.2061 44.2688 57.9056 43.6532 59.3544C43.3764 60.1089 42.8874 60.7673 42.2451 61.2502C41.6027 61.7331 40.8344 62.0199 40.0327 62.0762C39.818 62.0838 39.6024 62.0762 39.3877 62.0762H15.4003C12.0601 62.0762 7.88103 62.7412 6.26509 58.9108C5.63429 57.4164 5.8319 55.6095 5.8319 54.0173V47.0737C5.8319 45.7342 5.76349 44.3748 5.84519 43.0362C5.85253 41.8772 6.3046 40.7653 7.10808 39.93C7.91156 39.0947 9.0051 38.5998 10.1629 38.5475C13.3236 38.5285 16.4852 38.5475 19.6458 38.5475H38.051C39.486 38.4142 40.9203 38.8083 42.0857 39.6561C42.7065 40.1659 43.2072 40.8063 43.552 41.5318C43.8969 42.2573 44.0774 43.05 44.0807 43.8533C44.094 44.3026 46.1649 43.9558 46.1459 43.3003C46.0892 41.7362 45.4151 40.2582 44.2711 39.1899C43.1272 38.1216 41.6066 37.5501 40.0422 37.6003C39.1872 37.5899 38.3237 37.6003 37.4639 37.6003H11.6763C7.48774 37.6003 3.76755 39.773 3.76755 44.3539V56.816C3.69574 58.2116 4.12251 59.5873 4.9716 60.6973C5.82069 61.8073 7.03678 62.5792 8.40258 62.8751C9.48081 63.0327 10.5723 63.0798 11.6601 63.0157H37.6169C38.844 63.0837 40.0746 62.9788 41.2725 62.7041C42.6335 62.3745 43.8484 61.6063 44.7297 60.5181C45.6111 59.4298 46.1101 58.0819 46.1497 56.6821C46.2305 52.6322 46.1497 48.5728 46.1497 44.522V43.2975C46.1497 42.8681 44.0844 43.1892 44.0844 43.8533Z" fill="#080F21"/>
<path d="M30.0649 52.3849C29.8113 52.6955 29.4917 52.9458 29.1294 53.1177C28.7671 53.2895 28.3712 53.3787 27.9702 53.3787C27.5692 53.3787 27.1732 53.2895 26.8109 53.1177C26.4486 52.9458 26.1291 52.6955 25.8754 52.3849C25.3836 51.5882 25.123 50.6703 25.123 49.734C25.123 48.7976 25.3836 47.8797 25.8754 47.083C26.1293 46.7727 26.4489 46.5227 26.8112 46.3511C27.1734 46.1794 27.5693 46.0903 27.9702 46.0903C28.3711 46.0903 28.7669 46.1794 29.1292 46.3511C29.4915 46.5227 29.8111 46.7727 30.0649 47.083C30.5574 47.8795 30.8183 48.7975 30.8183 49.734C30.8183 50.6704 30.5574 51.5884 30.0649 52.3849ZM26.7162 49.7344C26.7162 51.1195 27.1304 51.8178 27.9702 51.8178C28.81 51.8178 29.2251 51.1195 29.2251 49.7344C29.2251 48.3493 28.8109 47.6501 27.9702 47.6501C27.1294 47.6501 26.7162 48.3484 26.7162 49.7344Z" fill="#080F21"/>
<path d="M17.4087 52.3854C17.155 52.696 16.8355 52.9463 16.4732 53.1181C16.1109 53.29 15.7149 53.3792 15.3139 53.3792C14.9129 53.3792 14.517 53.29 14.1547 53.1181C13.7924 52.9463 13.4728 52.696 13.2192 52.3854C12.7273 51.5887 12.4668 50.6708 12.4668 49.7344C12.4668 48.7981 12.7273 47.8802 13.2192 47.0835C13.473 46.7732 13.7927 46.5232 14.1549 46.3515C14.5172 46.1799 14.9131 46.0908 15.3139 46.0908C15.7148 46.0908 16.1107 46.1799 16.473 46.3515C16.8352 46.5232 17.1548 46.7732 17.4087 47.0835C17.9012 47.88 18.1621 48.798 18.1621 49.7344C18.1621 50.6709 17.9012 51.5889 17.4087 52.3854ZM14.059 49.7349C14.059 51.12 14.4741 51.8183 15.3139 51.8183C16.1537 51.8183 16.5689 51.12 16.5689 49.7349C16.5689 48.3498 16.1537 47.6506 15.3139 47.6506C14.4741 47.6506 14.059 48.3489 14.059 49.7349Z" fill="#080F21"/>
<path d="M34.4395 46.1226H34.734C34.9539 46.1226 35.1648 46.2099 35.3204 46.3655C35.4759 46.521 35.5633 46.732 35.5633 46.9519V52.3413C35.5637 52.4461 35.5433 52.5499 35.5034 52.6467C35.4635 52.7436 35.4048 52.8316 35.3307 52.9057C35.2566 52.9798 35.1686 53.0385 35.0717 53.0784C34.9748 53.1183 34.871 53.1387 34.7662 53.1383C34.6615 53.1387 34.5577 53.1183 34.4609 53.0784C34.3641 53.0385 34.2762 52.9798 34.2021 52.9057C34.1281 52.8316 34.0695 52.7435 34.0297 52.6467C33.9899 52.5498 33.9697 52.446 33.9702 52.3413V48.0321C33.9707 48.0069 33.9651 47.9819 33.954 47.9593C33.9429 47.9366 33.9265 47.917 33.9062 47.902C33.8859 47.887 33.8623 47.8771 33.8374 47.8732C33.8125 47.8692 33.787 47.8712 33.7631 47.8791L33.4353 47.9665C33.3422 47.9925 33.2448 47.9998 33.1489 47.9881C33.0529 47.9763 32.9602 47.9457 32.8761 47.8981C32.792 47.8504 32.7181 47.7866 32.6587 47.7103C32.5993 47.634 32.5555 47.5468 32.53 47.4535C32.4814 47.2727 32.5012 47.0803 32.5857 46.9132C32.6702 46.7462 32.8134 46.6162 32.9879 46.5482L33.9046 46.2214C34.0751 46.155 34.2565 46.1215 34.4395 46.1226Z" fill="#080F21"/>
<path d="M21.5645 46.232H21.859C22.0789 46.232 22.2899 46.3193 22.4454 46.4749C22.6009 46.6304 22.6883 46.8413 22.6883 47.0613V52.4506C22.6887 52.5554 22.6683 52.6592 22.6284 52.7561C22.5885 52.853 22.5298 52.941 22.4557 53.0151C22.3816 53.0892 22.2936 53.1479 22.1967 53.1878C22.0998 53.2277 21.996 53.2481 21.8912 53.2477C21.7865 53.2481 21.6828 53.2277 21.5859 53.1878C21.4891 53.1479 21.4012 53.0891 21.3271 53.015C21.2531 52.9409 21.1945 52.8529 21.1547 52.756C21.1149 52.6592 21.0947 52.5554 21.0952 52.4506V48.1415C21.0959 48.1162 21.0905 48.0911 21.0794 48.0683C21.0683 48.0456 21.0519 48.0259 21.0316 48.0108C21.0112 47.9958 20.9876 47.9859 20.9626 47.982C20.9376 47.9781 20.912 47.9804 20.8881 47.9885L20.5603 48.0759C20.4672 48.1019 20.3698 48.1092 20.2739 48.0974C20.1779 48.0857 20.0852 48.0551 20.0011 48.0074C19.917 47.9598 19.8431 47.896 19.7837 47.8197C19.7243 47.7434 19.6805 47.6561 19.655 47.5629C19.6064 47.3821 19.6262 47.1897 19.7107 47.0226C19.7952 46.8556 19.9384 46.7256 20.1129 46.6575L21.0296 46.3298C21.2003 46.2643 21.3816 46.2311 21.5645 46.232Z" fill="#080F21"/>
<path d="M63.1575 60.3297C63.1581 60.8448 62.9997 61.3476 62.7042 61.7695C62.4086 62.1913 61.9901 62.5118 61.5057 62.6871C61.0214 62.8624 60.4947 62.8841 59.9976 62.7492C59.5004 62.6143 59.057 62.3294 58.7277 61.9333L56.6766 59.4633C56.6125 59.3854 56.5334 59.321 56.4441 59.274C56.3548 59.227 56.257 59.1982 56.1565 59.1893C56.0559 59.1805 55.9546 59.1917 55.8585 59.2225C55.7623 59.2532 55.6733 59.3028 55.5965 59.3683L53.9169 60.7648C53.5841 61.0414 53.1799 61.2183 52.751 61.2753C52.322 61.3322 51.8857 61.2668 51.4923 61.0866C51.0988 60.9064 50.7643 60.6188 50.5272 60.2568C50.2901 59.8948 50.16 59.4732 50.1521 59.0406L50.0438 53.1382L49.9887 50.2882C49.9824 49.9428 50.0541 49.6004 50.1985 49.2864C50.3428 48.9725 50.556 48.6952 50.8223 48.475C51.0885 48.2548 51.401 48.0975 51.7364 48.0147C52.0719 47.9319 52.4217 47.9258 52.7598 47.9968L60.1137 49.5349L61.325 49.7857C61.749 49.8746 62.1393 50.0814 62.4509 50.3824C62.7626 50.6833 62.9829 51.0661 63.0867 51.4867C63.1904 51.9074 63.1732 52.3487 63.0372 52.7601C62.9012 53.1714 62.6518 53.5359 62.3177 53.8118L60.6372 55.2083C60.5592 55.2724 60.4949 55.3515 60.4478 55.4408C60.4008 55.5301 60.372 55.6279 60.3632 55.7284C60.3543 55.829 60.3656 55.9303 60.3963 56.0264C60.4271 56.1226 60.4766 56.2117 60.5422 56.2884L62.5818 58.7584C62.958 59.195 63.1626 59.7535 63.1575 60.3297Z" fill="#080F21"/>
<path d="M67.9085 21.3628H69.8617C70.3394 21.3628 70.7977 21.5522 71.136 21.8895C71.4743 22.2267 71.6652 22.6844 71.6667 23.1621V25.1153C71.6654 25.5932 71.4747 26.0511 71.1363 26.3886C70.798 26.726 70.3396 26.9155 69.8617 26.9155H67.9085C67.4306 26.9155 66.9722 26.726 66.6339 26.3886C66.2955 26.0511 66.1048 25.5932 66.1035 25.1153V23.1621C66.105 22.6844 66.2959 22.2267 66.6342 21.8895C66.9725 21.5522 67.4308 21.3628 67.9085 21.3628ZM69.8617 25.7699C70.0322 25.7696 70.1956 25.7018 70.3162 25.5812C70.4368 25.4606 70.5046 25.2972 70.5048 25.1267V23.1735C70.5046 23.0029 70.4368 22.8394 70.3163 22.7187C70.1957 22.598 70.0323 22.5299 69.8617 22.5294H67.9085C67.7378 22.5296 67.5741 22.5976 67.4533 22.7183C67.3326 22.8391 67.2647 23.0028 67.2644 23.1735V25.1267C67.2649 25.2973 67.333 25.4607 67.4537 25.5813C67.5744 25.7018 67.7379 25.7696 67.9085 25.7699H69.8617Z" fill="white"/>
<path d="M58.2882 22.9985H61.9932C62.103 22.9948 62.2124 23.0132 62.315 23.0526C62.4176 23.0921 62.5112 23.1517 62.5902 23.2281C62.6692 23.3045 62.732 23.396 62.7749 23.4971C62.8178 23.5983 62.84 23.707 62.84 23.8169C62.84 23.9268 62.8178 24.0356 62.7749 24.1367C62.732 24.2379 62.6692 24.3294 62.5902 24.4058C62.5112 24.4821 62.4176 24.5418 62.315 24.5813C62.2124 24.6207 62.103 24.6391 61.9932 24.6354H58.2882C58.1784 24.6391 58.0689 24.6207 57.9664 24.5813C57.8638 24.5418 57.7702 24.4821 57.6912 24.4058C57.6122 24.3294 57.5493 24.2379 57.5064 24.1367C57.4635 24.0356 57.4414 23.9268 57.4414 23.8169C57.4414 23.707 57.4635 23.5983 57.5064 23.4971C57.5493 23.396 57.6122 23.3045 57.6912 23.2281C57.7702 23.1517 57.8638 23.0921 57.9664 23.0526C58.0689 23.0132 58.1784 22.9948 58.2882 22.9985Z" fill="white"/>
<path d="M51.9666 69.4165H41.6562V73.8996H51.9666V69.4165Z" fill="#080F21"/>
<path d="M58.0209 78.6831H35.2951C34.9797 78.683 34.6726 78.5818 34.4189 78.3944C34.1653 78.2069 33.9783 77.9432 33.8856 77.6417C33.7928 77.3402 33.7991 77.017 33.9035 76.7193C34.0079 76.4217 34.205 76.1654 34.4658 75.988L37.3357 74.0462C38.2174 73.4479 39.2588 73.1288 40.3244 73.1304H52.7627C53.7707 73.1298 54.7584 73.4132 55.6127 73.9483L58.8094 75.9557C59.0793 76.1272 59.2863 76.3816 59.3994 76.6807C59.5126 76.9798 59.5257 77.3076 59.4369 77.6148C59.3481 77.922 59.1621 78.1921 58.9068 78.3847C58.6515 78.5774 58.3407 78.6821 58.0209 78.6831Z" fill="#080F21"/>
<defs>
<linearGradient id="paint0_linear_1387_16774" x1="50.7011" y1="43.8397" x2="62.4411" y2="43.8397" gradientUnits="userSpaceOnUse">
<stop offset="0.005" stop-color="#3063BA"/>
<stop offset="1" stop-color="#A3BFF6"/>
</linearGradient>
<linearGradient id="paint1_linear_1387_16774" x1="66.25" y1="43.8397" x2="72.1248" y2="43.8397" gradientUnits="userSpaceOnUse">
<stop offset="0.005" stop-color="#3063BA"/>
<stop offset="1" stop-color="#A3BFF6"/>
</linearGradient>
<linearGradient id="paint2_linear_1387_16774" x1="4.79299" y1="49.0621" x2="24.9994" y2="49.0621" gradientUnits="userSpaceOnUse">
<stop offset="0.005" stop-color="#3063BA"/>
<stop offset="1" stop-color="#A3BFF6"/>
</linearGradient>
</defs>
</svg>
