<svg width="106" height="106" viewBox="0 0 106 106" fill="none" xmlns="http://www.w3.org/2000/svg">
<path fill-rule="evenodd" clip-rule="evenodd" d="M22.1153 33.8908C22.1546 33.7349 22.162 33.5727 22.137 33.4139C22.112 33.2551 22.0551 33.1029 21.9699 32.9666L20.4255 30.4138C20.2542 30.1444 19.9842 29.9527 19.6733 29.8799C19.3624 29.807 19.0354 29.8588 18.7622 30.024C18.489 30.1893 18.2914 30.4549 18.2116 30.7641C18.1318 31.0732 18.1762 31.4013 18.3353 31.6781L19.8786 34.231C19.9611 34.3689 20.0701 34.489 20.1993 34.5845C20.3285 34.6801 20.4753 34.749 20.6313 34.7875C20.7873 34.8259 20.9494 34.8331 21.1082 34.8085C21.267 34.784 21.4193 34.7282 21.5564 34.6444C21.6957 34.5631 21.817 34.4544 21.9131 34.3249C22.0091 34.1953 22.0779 34.0477 22.1153 33.8908Z" fill="#080F21"/>
<path fill-rule="evenodd" clip-rule="evenodd" d="M13.2053 37.5496C13.129 37.8656 13.1808 38.1989 13.3495 38.4768C13.5182 38.7547 13.7899 38.9545 14.1054 39.0327L16.9984 39.7491C17.3143 39.8264 17.648 39.7751 17.926 39.6064C18.204 39.4377 18.4036 39.1654 18.481 38.8495C18.5583 38.5336 18.5069 38.2 18.3382 37.9219C18.1695 37.6439 17.8973 37.4443 17.5814 37.367L14.6884 36.6495C14.3725 36.5747 14.0399 36.6272 13.7624 36.7956C13.4848 36.964 13.2847 37.2349 13.2053 37.5496Z" fill="#080F21"/>
<path fill-rule="evenodd" clip-rule="evenodd" d="M26.5387 29.4906L25.8223 32.3836C25.784 32.54 25.7769 32.7024 25.8014 32.8616C25.8259 33.0207 25.8815 33.1735 25.965 33.3112C26.0485 33.4488 26.1584 33.5688 26.2882 33.664C26.4181 33.7592 26.5654 33.8279 26.7219 33.8662C26.8783 33.9045 27.0407 33.9115 27.1999 33.887C27.359 33.8625 27.5118 33.8069 27.6495 33.7234C27.7871 33.6399 27.907 33.53 28.0022 33.4002C28.0974 33.2703 28.1662 33.123 28.2044 32.9666L28.9219 30.0736C28.9898 29.7609 28.933 29.4341 28.7634 29.1628C28.5939 28.8915 28.3251 28.6971 28.0143 28.6211C27.7035 28.5451 27.3753 28.5934 27.0997 28.7559C26.8241 28.9183 26.6227 29.1819 26.5387 29.4906Z" fill="#080F21"/>
<path d="M91.2389 28.7133V77.2758C91.2394 78.3791 91.0226 79.4717 90.6006 80.4911C90.1787 81.5105 89.56 82.4367 88.7798 83.2168C87.9997 83.9969 87.0735 84.6157 86.0541 85.0376C85.0347 85.4596 83.9421 85.6764 82.8389 85.6758H45.5748C43.3472 85.6752 41.2109 84.7901 39.6357 83.2149C38.0606 81.6397 37.1754 79.5035 37.1748 77.2758V70.7582H45.6514C46.8697 70.7593 48.0763 70.5202 49.2021 70.0545C50.3279 69.5888 51.3508 68.9057 52.2123 68.0442C53.0738 67.1827 53.757 66.1598 54.2227 65.034C54.6884 63.9081 54.9275 62.7015 54.9263 61.4831V44.541C54.9266 43.3229 54.6869 42.1167 54.2209 40.9913C53.7549 39.8659 53.0717 38.8433 52.2104 37.9819C51.3491 37.1206 50.3265 36.4374 49.2011 35.9714C48.0757 35.5054 46.8695 35.2657 45.6514 35.266H37.1748V28.7144C37.1742 27.6112 37.3911 26.5186 37.813 25.4992C38.235 24.4798 38.8537 23.5536 39.6338 22.7735C40.4139 21.9933 41.3402 21.3746 42.3596 20.9527C43.379 20.5307 44.4715 20.3139 45.5748 20.3145H82.8389C83.9903 20.3193 85.1288 20.5574 86.1857 21.0144C87.5799 21.6189 88.7841 22.5902 89.67 23.8247C90.556 25.0593 91.0906 26.5111 91.217 28.0254C91.2279 28.254 91.2389 28.4836 91.2389 28.7133Z" fill="#080F21"/>
<path d="M92.8244 28.2976V75.7893C92.841 76.5191 92.8191 77.2493 92.7588 77.9768C92.5445 79.5248 91.9484 80.9951 91.0243 82.2553C90.1001 83.5155 88.877 84.5259 87.465 85.1956C84.5885 86.6394 81.5807 86.4643 78.4854 86.4643H51.8635C49.5557 86.4643 47.2478 86.5081 44.94 86.4643C43.729 86.4964 42.5237 86.2866 41.3947 85.8472C40.2657 85.4078 39.2357 84.7476 38.3649 83.9053C37.4941 83.0631 36.8001 82.0556 36.3233 80.9418C35.8466 79.8281 35.5968 78.6304 35.5885 77.419C35.5775 75.1987 35.5739 72.9784 35.5775 70.7581H38.7604V74.2472C38.7604 76.9268 38.6619 79.5518 40.4119 81.8268C41.1088 82.758 42.0089 83.5178 43.0438 84.0485C44.0787 84.5792 45.221 84.8668 46.3838 84.8893C47.2369 84.9003 48.101 84.8893 48.9541 84.8893H82.8822C84.2671 84.9681 85.6362 84.5621 86.7541 83.7409C87.6663 82.9984 88.4003 82.0607 88.9019 80.9968C89.4036 79.933 89.6601 78.7702 89.6525 77.594C89.6854 75.5815 89.6525 73.5581 89.6525 71.5456V29.1409C89.6586 27.456 89.1394 25.811 88.1671 24.4349C87.1948 23.0587 85.8178 22.0199 84.2275 21.4628C81.9963 20.7409 79.2291 21.1018 76.9213 21.1018H64.2447C57.8135 21.1018 51.3604 20.9706 44.9291 21.1018C40.6416 21.2003 38.7604 25.4987 38.7604 29.2284V35.2659H35.5885V31.8862C35.5885 29.0971 35.501 26.4721 37.1744 24.0221C39.5916 20.4674 43.726 19.5268 47.751 19.5268H82.7619C84.4923 19.4535 86.2166 19.7752 87.8041 20.4674C89.2829 21.1809 90.5351 22.2905 91.4213 23.6728C92.3075 25.055 92.7932 26.656 92.8244 28.2976Z" fill="#080F21"/>
<path d="M91.2391 54.0918H64.207V70.4281H91.2391V54.0918Z" fill="white"/>
<path d="M64.2068 37.7568H37.1748V54.0931H64.2068V37.7568Z" fill="white"/>
<path d="M91.2391 37.7568H64.207V54.0931H91.2391V37.7568Z" fill="white"/>
<path opacity="0.2" d="M40.8592 70.7582H28.7076C27.4895 70.7585 26.2833 70.5188 25.1579 70.0528C24.0325 69.5868 23.0099 68.9036 22.1486 68.0423C21.2872 67.181 20.6041 66.1584 20.138 65.0329C19.672 63.9075 19.4323 62.7013 19.4326 61.4832V49.6816C24.956 49.9891 30.1781 52.2986 34.1219 56.1779C38.0657 60.0573 40.4608 65.2406 40.8592 70.7582Z" fill="url(#paint0_linear_822_18260)"/>
<path d="M44.8682 21.4814H64.2079V37.8177H37.1748V29.1771C37.1745 28.1666 37.3733 27.1659 37.7598 26.2322C38.1463 25.2986 38.7129 24.4502 39.4274 23.7356C40.1418 23.0209 40.99 22.454 41.9236 22.0672C42.8571 21.6805 43.8577 21.4814 44.8682 21.4814Z" fill="white"/>
<path d="M64.207 21.4814H84.46C86.2585 21.4814 87.9833 22.1959 89.2551 23.4676C90.5268 24.7393 91.2412 26.4642 91.2412 28.2627V37.8199H64.207V21.4814Z" fill="white"/>
<path d="M53.7153 44.6169V59.901C53.8122 61.3621 53.6756 62.8294 53.3106 64.2475C52.859 65.6754 52.017 66.9485 50.8797 67.9229C49.7424 68.8972 48.3552 69.534 46.875 69.7612C45.7002 69.8618 44.52 69.8848 43.3421 69.8301H30.997C29.8628 69.8856 28.7259 69.849 27.5976 69.7207C26.0484 69.4397 24.6084 68.7317 23.4398 67.6764C22.2713 66.6211 21.4206 65.2604 20.9837 63.7477C20.6712 62.3814 20.5556 60.9774 20.6403 59.5783V53.6218C20.6403 50.5724 20.5823 47.5176 20.6403 44.4682C20.6264 42.8951 21.0576 41.3502 21.8839 40.0116C22.7102 38.673 23.8981 37.5953 25.3106 36.9027C26.7846 36.3239 28.3697 36.0829 29.9492 36.1972H43.1639C44.756 36.0754 46.3574 36.2064 47.9086 36.5855C49.5868 37.1616 51.0457 38.2427 52.0853 39.6806C53.1249 41.1185 53.6943 42.8427 53.7153 44.6169C53.7415 45.9229 56.1554 45.6177 56.1325 44.4682C56.0099 38.4416 51.1909 34.3564 45.3382 34.3379C41.2487 34.3247 37.1581 34.3379 33.0675 34.3379C31.6686 34.3379 30.2675 34.3182 28.8675 34.3379C25.9643 34.3565 23.1868 35.525 21.1434 37.5874C17.9146 40.8861 18.2231 45.0358 18.2231 49.2544C18.2231 53.2641 18.2023 57.2749 18.2231 61.2857C18.2113 62.6556 18.4725 64.0142 18.9914 65.282C19.5103 66.5499 20.2766 67.7016 21.2455 68.6701C22.2144 69.6386 23.3665 70.4045 24.6346 70.9229C25.9027 71.4413 27.2613 71.7018 28.6312 71.6894C32.3018 71.7376 35.9768 71.6894 39.6475 71.6894C43.597 71.6894 47.8506 72.2035 51.3429 69.9657C52.679 69.1163 53.8028 67.972 54.6279 66.6207C55.453 65.2694 55.9576 63.7471 56.1029 62.1705C56.2036 60.9237 56.1325 59.6451 56.1325 58.396V44.4682C56.1325 43.1633 53.7153 43.463 53.7153 44.6169Z" fill="#080F21"/>
<path fill-rule="evenodd" clip-rule="evenodd" d="M43.6055 58.4307L39.5827 52.9969L43.5935 47.5643C43.9626 47.0662 44.1188 46.4419 44.0276 45.8287C43.9364 45.2155 43.6054 44.6636 43.1073 44.2945C42.6092 43.9254 41.9849 43.7692 41.3717 43.8604C40.7585 43.9516 40.2067 44.2826 39.8375 44.7807L36.6657 49.0715L33.4938 44.7927C33.1247 44.2946 32.5728 43.9636 31.9596 43.8725C31.3464 43.7813 30.7221 43.9374 30.224 44.3065C29.726 44.6757 29.3949 45.2275 29.3037 45.8407C29.2126 46.4539 29.3687 47.0782 29.7378 47.5763L33.7607 53.0101L29.7499 58.4427C29.4728 58.8134 29.3125 59.2583 29.2894 59.7206C29.2663 60.1828 29.3815 60.6414 29.6202 61.0379C29.859 61.4344 30.2104 61.7507 30.6298 61.9466C31.0491 62.1424 31.5173 62.2088 31.9746 62.1374C32.2786 62.0937 32.5707 61.9895 32.8337 61.831C33.0967 61.6724 33.3253 61.4627 33.5058 61.2143L36.6668 56.9355L39.8386 61.2143C40.2108 61.708 40.7595 62.0387 41.3699 62.1374C41.8273 62.2041 42.2943 62.1344 42.7122 61.9368C43.1302 61.7393 43.4805 61.4227 43.7194 61.0269C43.9582 60.6311 44.0749 60.1737 44.0549 59.7118C44.0348 59.25 43.8778 58.8043 43.6055 58.4307Z" fill="#3063BA"/>
<path d="M65.011 85.6248V21.4216C65.011 20.5882 63.4043 20.819 63.4043 21.5398V85.7429C63.4043 86.5775 65.011 86.3456 65.011 85.6259V85.6248Z" fill="#080F21"/>
<path d="M91.2402 37.2715H52.4121V38.3652H91.2402V37.2715Z" fill="#080F21"/>
<path d="M91.9881 54.0576H54.2188V55.1514H91.9881V54.0576Z" fill="#080F21"/>
<path opacity="0.2" d="M91.2393 28.7177V61.5083C87.4402 59.8888 84.1325 57.3009 81.6464 54.0032C79.1603 50.7055 77.5828 46.8133 77.0714 42.7152C76.56 38.6172 77.1325 34.4566 78.7319 30.6491C80.3314 26.8415 82.9017 23.5201 86.1862 21.0166C87.6884 21.6666 88.9674 22.7423 89.8654 24.1108C90.7634 25.4793 91.241 27.0809 91.2393 28.7177Z" fill="url(#paint1_linear_822_18260)"/>
<defs>
<linearGradient id="paint0_linear_822_18260" x1="19.4326" y1="60.221" x2="40.8592" y2="60.221" gradientUnits="userSpaceOnUse">
<stop offset="0.005" stop-color="#3063BA"/>
<stop offset="1" stop-color="#A3BFF6"/>
</linearGradient>
<linearGradient id="paint1_linear_822_18260" x1="76.8893" y1="41.263" x2="91.2393" y2="41.263" gradientUnits="userSpaceOnUse">
<stop offset="0.005" stop-color="#3063BA"/>
<stop offset="1" stop-color="#A3BFF6"/>
</linearGradient>
</defs>
</svg>
