<svg width="90" height="91" viewBox="0 0 90 91" fill="none" xmlns="http://www.w3.org/2000/svg">
<path opacity="0.2" d="M47.3911 45.7544L38.3091 45.7458C37.1102 45.7453 35.9229 45.9811 34.8151 46.4397C33.7073 46.8982 32.7007 47.5706 31.8529 48.4184C31.005 49.2661 30.3325 50.2726 29.8739 51.3804C29.4152 52.4881 29.1793 53.6754 29.1797 54.8744V63.0615H27.7547L20.5442 63.07C20.0184 63.0711 19.4937 63.0234 18.9767 62.9275C18.8627 62.9085 18.7487 62.8895 18.6347 62.862C18.5587 62.843 18.4922 62.8325 18.4162 62.8145L18.3022 62.786C17.3848 60.2866 17.0625 57.6077 17.3609 54.962C17.6593 52.3163 18.5702 49.7765 20.0213 47.5442C21.4724 45.3119 23.4238 43.4485 25.7207 42.1019C28.0175 40.7553 30.5966 39.9625 33.2533 39.7865C35.9119 39.6102 38.575 40.058 41.0298 41.0942C43.4845 42.1304 45.663 43.7263 47.3911 45.7544Z" fill="url(#paint0_linear_1387_20632)"/>
<path opacity="0.2" d="M43.3309 12.3144C43.2328 15.5969 41.8594 18.712 39.5021 20.9985C37.1449 23.285 33.9894 24.5628 30.7055 24.5609C29.7133 24.5607 28.7247 24.4424 27.7605 24.2084H27.751V21.4449C27.7515 20.8257 27.8152 20.2081 27.941 19.6019C28.0252 19.1575 28.1492 18.7216 28.3115 18.2994C28.4602 17.8785 28.6445 17.4711 28.8625 17.0815C29.0654 16.6953 29.3005 16.327 29.5655 15.9805C29.8277 15.6263 30.1167 15.2928 30.43 14.983C31.2761 14.1347 32.2816 13.4621 33.3886 13.0038C34.4956 12.5455 35.6823 12.3106 36.8804 12.3125L43.3309 12.3144Z" fill="url(#paint1_linear_1387_20632)"/>
<path d="M29.1904 69.8939V54.7129C29.1892 53.5145 29.4242 52.3275 29.8819 51.2199C30.3397 50.1124 31.0113 49.1058 31.8582 48.258C32.7052 47.4101 33.711 46.7375 34.8181 46.2786C35.9253 45.8196 37.1119 45.5834 38.3104 45.5834L43.7444 45.5929L52.8264 45.6024C54.0254 45.6028 55.2127 45.3669 56.3205 44.9082C57.4283 44.4496 58.4349 43.7771 59.2827 42.9293C60.1305 42.0815 60.803 41.0749 61.2616 39.9671C61.7203 38.8593 61.9562 37.6719 61.9558 36.4729V28.2839H63.3808L70.5913 28.2744C71.117 28.2738 71.6417 28.3215 72.1588 28.4169C72.2728 28.4359 72.3868 28.4549 72.5008 28.4834C72.5768 28.5024 72.6433 28.5119 72.7193 28.5309L72.8333 28.5594C73.1098 28.6273 73.3825 28.7098 73.6503 28.8064C73.8148 28.8582 73.9765 28.9184 74.1348 28.9869C74.4388 29.1294 74.7333 29.2719 75.0183 29.4144C75.1703 29.4999 75.3128 29.5854 75.4553 29.6804C75.7373 29.8595 76.01 30.0529 76.2723 30.2599C76.2966 30.2725 76.319 30.2885 76.3388 30.3074C76.8339 30.706 77.2832 31.1584 77.6783 31.6564C77.6996 31.6765 77.7187 31.6988 77.7353 31.7229C78.0368 32.0991 78.3068 32.4995 78.5428 32.9199C78.5543 32.9344 78.5639 32.9504 78.5713 32.9674C78.6758 33.1764 78.7898 33.3854 78.8848 33.6039C78.9737 33.7929 79.0529 33.9864 79.1223 34.1834C79.1605 34.2554 79.1893 34.332 79.2078 34.4114C79.2838 34.6204 79.3503 34.8389 79.4073 35.0479C79.552 35.5565 79.6443 36.0786 79.6828 36.6059C79.7099 36.8679 79.7225 37.1311 79.7208 37.3944V53.3544C79.7208 53.5444 79.7113 53.7344 79.7018 53.9244C79.6655 54.5277 79.5701 55.1259 79.4168 55.7104C79.3598 55.8909 79.3028 56.0809 79.2458 56.2519C79.1793 56.4419 79.1128 56.6224 79.0463 56.7934C78.8996 57.1485 78.7314 57.4943 78.5428 57.8289C78.4478 57.9999 78.3528 58.1614 78.2483 58.3134C78.1438 58.4654 78.0393 58.6364 77.9253 58.7884C77.8113 58.9404 77.6973 59.0829 77.5738 59.2349C77.4503 59.3869 77.3268 59.5199 77.1938 59.6529C77.0608 59.7859 76.9278 59.9284 76.7948 60.0519C76.5573 60.2704 76.3103 60.4699 76.0538 60.6694C75.9398 60.7549 75.8258 60.8404 75.7023 60.9164L75.4458 61.0874H75.4363C75.2624 61.2031 75.0816 61.3078 74.8948 61.4009C74.7143 61.4959 74.5243 61.5909 74.3343 61.6764C74.1443 61.7619 73.9543 61.8379 73.7548 61.9139C73.5321 62.0024 73.3035 62.0754 73.0708 62.1324C72.8961 62.1868 72.7185 62.2312 72.5388 62.2654C72.3298 62.3129 72.1208 62.3509 71.9023 62.3794C71.7503 62.4079 71.5983 62.4174 71.4368 62.4364C71.3418 62.4459 71.2373 62.4554 71.1423 62.4554C70.9618 62.4649 70.7718 62.4744 70.5913 62.4744H46.3189C46.164 62.4681 46.0094 62.4932 45.8645 62.5481C45.7195 62.6031 45.5872 62.6867 45.4753 62.7941C45.3635 62.9014 45.2746 63.0303 45.2138 63.1729C45.153 63.3155 45.1217 63.4689 45.1217 63.6239C45.1217 63.7789 45.153 63.9324 45.2138 64.075C45.2746 64.2176 45.3635 64.3464 45.4753 64.4538C45.5872 64.5611 45.7195 64.6448 45.8645 64.6997C46.0094 64.7547 46.164 64.7797 46.3189 64.7734H63.3903V69.9034C63.3897 70.5226 63.326 71.1401 63.2003 71.7464C63.116 72.1905 62.992 72.6261 62.8298 73.0479C62.5242 73.8763 62.1019 74.6568 61.5758 75.3659C61.3134 75.7199 61.0244 76.0534 60.7113 76.3634C59.8651 77.2116 58.8596 77.884 57.7526 78.3421C56.6456 78.8003 55.4589 79.035 54.2608 79.0329H38.2534C38.0343 79.0345 37.8153 79.0218 37.5979 78.9949C37.5534 79.0016 37.508 78.9984 37.4649 78.9854C37.229 78.9716 36.9942 78.943 36.7619 78.8999C36.7504 78.8933 36.7372 78.89 36.7239 78.8904C36.4866 78.8544 36.2519 78.8036 36.0209 78.7384C35.8689 78.7004 35.7264 78.6529 35.5839 78.6054C35.3528 78.535 35.1257 78.4519 34.9037 78.3565C34.8304 78.338 34.76 78.3092 34.6947 78.271C34.5807 78.2235 34.4572 78.1665 34.3432 78.1095C34.1912 78.0335 34.0392 77.9575 33.8967 77.8815C33.7827 77.815 33.6687 77.758 33.5642 77.6915C33.3313 77.5484 33.1062 77.393 32.8897 77.226C32.7757 77.1405 32.6522 77.055 32.5477 76.96C31.4982 76.1056 30.6526 75.0277 30.0724 73.8049C29.4923 72.5822 29.1923 71.2454 29.1942 69.892L29.1904 69.8939Z" fill="#080F21"/>
<path d="M56.76 73.9815C57.8545 73.9815 58.7417 73.0942 58.7417 71.9998C58.7417 70.9053 57.8545 70.0181 56.76 70.0181C55.6656 70.0181 54.7783 70.9053 54.7783 71.9998C54.7783 73.0942 55.6656 73.9815 56.76 73.9815Z" fill="white"/>
<path d="M60.8998 21.5236V32.9777C60.8998 34.379 60.9596 35.7945 60.8855 37.1948C60.8112 38.9309 60.187 40.5984 59.103 41.9564C58.019 43.3145 56.5313 44.2929 54.855 44.7502C52.7887 45.2641 50.3976 44.9715 48.2886 44.9677C46.8952 44.9677 45.5 44.9661 44.1029 44.963C42.2086 44.963 40.3124 44.9297 38.4191 44.9573C36.8307 44.9703 35.2657 45.3412 33.8404 46.0423C32.4151 46.7435 31.1661 47.7568 30.1864 49.0071C28.4431 51.2871 28.1382 53.8379 28.1382 56.5957V63.1336L29.2696 62.2786C26.7997 62.2786 24.3265 62.2811 21.8502 62.2862C20.3481 62.3697 18.8458 62.1263 17.4469 61.5728C16.4056 61.0998 15.4711 60.4205 14.6999 59.576C13.9287 58.7314 13.3368 57.7392 12.9601 56.6594C12.1602 54.3613 12.4633 51.6443 12.4633 49.2494V39.9479C12.4633 39.1319 12.4367 38.3111 12.4756 37.496C12.5431 36.1429 12.9332 34.8257 13.6134 33.6542C14.2937 32.4826 15.2442 31.4908 16.3858 30.7614L15.6096 31.0464C16.2243 31.0464 16.8627 30.484 17.4146 30.2484C18.1171 29.9528 18.8607 29.7667 19.6196 29.6964C20.0528 29.6556 20.486 29.6594 20.9201 29.6584C22.309 29.6584 23.697 29.6584 25.0859 29.6584H43.5604C44.709 29.6584 46.0124 29.7458 46.7505 28.6562C46.8866 28.456 46.9812 28.2307 47.0287 27.9934C47.0762 27.7561 47.0758 27.5117 47.0274 27.2745C46.9789 27.0374 46.8835 26.8124 46.7467 26.6128C46.6099 26.4131 46.4345 26.2429 46.2309 26.1121C45.7184 25.8471 45.1413 25.7328 44.5665 25.7824C42.9515 25.772 41.3365 25.7824 39.7215 25.7824H27.8314L28.7965 26.5016C28.7965 23.9166 28.4108 20.8966 29.3 18.4323C29.7311 17.2161 30.4479 16.1211 31.3902 15.2397C32.3325 14.3582 33.4728 13.7159 34.715 13.3669C35.6678 13.1507 36.645 13.0619 37.6211 13.1028C42.561 13.1028 47.5124 13.0239 52.4543 13.1028C54.6828 13.1269 56.8137 14.0209 58.3922 15.5941C59.9708 17.1673 60.872 19.2952 60.9036 21.5236C60.9264 22.6389 63.0202 22.3558 63.0002 21.3839C62.9711 18.9209 62.0309 16.5559 60.361 14.7451C58.6911 12.9343 56.4098 11.8061 53.9572 11.578C51.7561 11.3823 49.4922 11.5258 47.2882 11.5258H38.1464C34.4766 11.5258 30.9882 12.5765 28.692 15.6535C26.2648 18.9073 26.6971 22.8289 26.6971 26.6441C26.6971 27.1856 27.193 27.3623 27.6623 27.3623H42.6636C43.0655 27.3623 45.5032 27.0526 44.9645 28.032C44.8695 28.2078 43.4122 28.0843 43.0645 28.0843H25.3462C21.7476 28.0843 18.2212 27.7622 15.0102 29.7601L15.7854 29.4751C14.7964 29.4751 13.7059 30.7101 13.0741 31.3694C12.2331 32.2559 11.564 33.2909 11.101 34.4218C10.5823 35.7663 10.3337 37.2 10.3695 38.6407V48.0457C10.3695 50.5613 10.0845 53.3182 10.5224 55.8148C10.9854 58.1107 12.2367 60.1725 14.0595 61.6432C15.8824 63.1139 18.1621 63.9009 20.504 63.868C23.3692 63.8974 26.2354 63.8594 29.0996 63.8594C29.5223 63.8594 30.231 63.4975 30.231 63.0044V57.3966C30.231 55.1061 30.1047 52.8603 31.2219 50.7589C31.9217 49.4556 32.9682 48.371 34.2456 47.625C35.5231 46.879 36.9819 46.5005 38.4609 46.5314C40.5794 46.5229 42.6978 46.5314 44.8163 46.5381L48.9013 46.5428C51.1975 46.5476 53.638 46.7746 55.8543 46.0574C57.4141 45.565 58.8344 44.7086 59.9978 43.5589C61.1612 42.4092 62.0343 40.9992 62.5452 39.4454C62.9577 37.7857 63.1115 36.0723 63.0012 34.3657L63.0002 21.3839C62.9955 20.2705 60.8998 20.5489 60.8998 21.5236Z" fill="#080F21"/>
<path d="M34.3811 21.3286C35.4756 21.3286 36.3628 20.4414 36.3628 19.3469C36.3628 18.2525 35.4756 17.3652 34.3811 17.3652C33.2866 17.3652 32.3994 18.2525 32.3994 19.3469C32.3994 20.4414 33.2866 21.3286 34.3811 21.3286Z" fill="#080F21"/>
<path d="M20.4519 73.3075C21.3529 72.4062 21.3408 70.9331 20.4247 70.0172C19.5086 69.1013 18.0355 69.0895 17.1344 69.9907C16.2334 70.892 16.2456 72.365 17.1617 73.2809C18.0777 74.1968 19.5508 74.2087 20.4519 73.3075Z" fill="#080F21"/>
<path d="M67.9934 22.7456C69.2814 22.7456 70.3256 21.7014 70.3256 20.4133C70.3256 19.1252 69.2814 18.0811 67.9934 18.0811C66.7053 18.0811 65.6611 19.1252 65.6611 20.4133C65.6611 21.7014 66.7053 22.7456 67.9934 22.7456Z" fill="#080F21"/>
<path d="M72.0112 14.0615C72.5994 14.0615 73.0762 13.5847 73.0762 12.9966C73.0762 12.4084 72.5994 11.9316 72.0112 11.9316C71.4231 11.9316 70.9463 12.4084 70.9463 12.9966C70.9463 13.5847 71.4231 14.0615 72.0112 14.0615Z" fill="#3A1E44"/>
<defs>
<linearGradient id="paint0_linear_1387_20632" x1="17.2572" y1="51.4116" x2="47.3911" y2="51.4116" gradientUnits="userSpaceOnUse">
<stop offset="0.005" stop-color="#3063BA"/>
<stop offset="1" stop-color="#A3BFF6"/>
</linearGradient>
<linearGradient id="paint1_linear_1387_20632" x1="27.751" y1="18.4381" x2="43.3309" y2="18.4381" gradientUnits="userSpaceOnUse">
<stop offset="0.005" stop-color="#3063BA"/>
<stop offset="1" stop-color="#A3BFF6"/>
</linearGradient>
</defs>
</svg>
