<svg width="90" height="91" viewBox="0 0 90 91" fill="none" xmlns="http://www.w3.org/2000/svg">
<path opacity="0.2" d="M46.7457 39.6679L38.5092 46.2144C38.0632 46.5702 37.5502 46.8325 37.0006 46.9858C36.4268 46.3554 35.991 45.6122 35.7211 44.8036C35.4512 43.995 35.3532 43.139 35.4334 42.2904C35.5136 41.4417 35.7701 40.6192 36.1867 39.8755C36.6032 39.1318 37.1705 38.4833 37.8522 37.9716C38.5339 37.4598 39.315 37.0962 40.1455 36.9039C40.9759 36.7116 41.8374 36.6949 42.6746 36.8548C43.5119 37.0148 44.3065 37.3479 45.0076 37.8328C45.7086 38.3178 46.3006 38.9438 46.7457 39.6708V39.6679Z" fill="url(#paint0_linear_1387_18864)"/>
<path opacity="0.2" d="M19.161 42.152C19.1595 43.3701 18.7946 44.5601 18.113 45.5697C17.4314 46.5793 16.4641 47.3625 15.3349 47.8193C14.2056 48.2761 12.9658 48.3857 11.774 48.1339C10.5822 47.8821 9.49255 47.2806 8.64453 46.4061L18.2756 38.9961C18.8596 39.9448 19.1663 41.038 19.161 42.152Z" fill="url(#paint1_linear_1387_18864)"/>
<path opacity="0.2" d="M51.7631 27.4262C51.763 28.1214 51.5036 28.7916 51.0356 29.3058C50.5676 29.8199 49.9247 30.141 49.2326 30.2064C48.5404 30.2717 47.8488 30.0765 47.2929 29.659C46.737 29.2415 46.3567 28.6316 46.2266 27.9487L50.0949 24.8735C50.5914 25.0903 51.0138 25.4473 51.3102 25.9008C51.6065 26.3543 51.764 26.8845 51.7631 27.4262Z" fill="url(#paint2_linear_1387_18864)"/>
<path opacity="0.2" d="M83.892 16.2303L83.4378 18.1816C83.3626 18.1914 83.2867 18.1952 83.2108 18.193C82.7209 18.1931 82.2396 18.0643 81.8154 17.8194C81.3911 17.5745 81.0387 17.2223 80.7938 16.798C80.5488 16.3738 80.4199 15.8925 80.4199 15.4026C80.42 14.9128 80.549 14.4315 80.794 14.0073L82.1335 14.0187C82.4051 14.0187 82.6732 14.0801 82.9178 14.1981C83.1623 14.3161 83.3772 14.4878 83.5462 14.7004C83.7152 14.9129 83.8341 15.1609 83.8939 15.4258C83.9538 15.6907 83.9531 15.9657 83.892 16.2303Z" fill="url(#paint3_linear_1387_18864)"/>
<path opacity="0.2" d="M67.0207 28.856C64.9554 29.6616 62.5168 28.6062 60.8828 26.4288C61.5856 26.3115 62.246 26.0143 62.7999 25.5662L63.7499 24.7378L68.6177 20.5407L69.1164 20.1094L69.3207 20.5844C70.6963 24.1136 69.6636 27.8234 67.0207 28.856Z" fill="url(#paint4_linear_1387_18864)"/>
<path opacity="0.2" d="M57.8984 51.8208V77.0908H58.4437C58.9733 77.0896 59.4971 76.9805 59.983 76.77C60.4689 76.5595 60.9068 76.2522 61.27 75.8667C61.6331 75.4813 61.9138 75.0258 62.095 74.5282C62.2761 74.0306 62.3539 73.5013 62.3235 72.9726L60.9935 51.9956C60.9779 51.6971 60.8477 51.4161 60.63 51.2111C60.4123 51.0062 60.124 50.8932 59.825 50.8955C59.8165 51.3525 59.0109 51.6593 57.8984 51.8208Z" fill="url(#paint5_linear_1387_18864)"/>
<path opacity="0.2" d="M54.3359 51.9209V77.0959H55.6745V51.9655C55.2278 51.9734 54.7811 51.9585 54.3359 51.9209Z" fill="url(#paint6_linear_1387_18864)"/>
<path opacity="0.2" d="M50.3473 76.1078L53.2743 51.7878C52.2644 51.6177 51.55 51.3232 51.55 50.9033C51.2516 50.9028 50.9643 51.0165 50.747 51.221C50.5298 51.4256 50.399 51.7055 50.3815 52.0034L49.0515 72.9804C49.0122 73.5662 49.1087 74.1532 49.3335 74.6957C49.5582 75.2382 49.9052 75.7214 50.3473 76.1078Z" fill="url(#paint7_linear_1387_18864)"/>
<path d="M59.3183 42.6729L59.6508 51.2466C59.1306 51.577 58.5365 51.7729 57.9218 51.8166C57.1917 51.9225 56.4546 51.974 55.7169 51.9705C55.2571 51.9705 54.8058 51.9449 54.3717 51.9107C53.9974 51.8765 53.6392 51.8423 53.3077 51.7834C52.7339 51.7397 52.1831 51.5392 51.7155 51.2039L52.3539 40.1839L49.4336 37.5106C50.3137 36.8335 51.4249 36.5299 52.527 36.6654C53.6291 36.8008 54.6336 37.3645 55.3236 38.2345C55.8493 38.8979 56.5621 39.3884 57.3696 39.6424C58.1771 39.8965 59.0422 39.9024 59.8532 39.6595C59.9809 39.9968 60.0471 40.3542 60.0489 40.7149C60.0497 41.4344 59.7902 42.1298 59.3183 42.6729Z" fill="#080F21"/>
<path d="M59.3092 42.587L58.3811 42.187L57.1385 41.6674L51.314 37.1635C51.3397 37.172 51.314 37.0019 51.2637 36.7036C51.5108 36.6593 51.7612 36.6364 52.0123 36.6353C52.6492 36.6368 53.2776 36.7816 53.851 37.0589C54.4244 37.3361 54.9281 37.7387 55.3249 38.2369C55.8507 38.9004 56.5634 39.3909 57.3709 39.6449C58.1784 39.899 59.0436 39.9049 59.8545 39.6619C59.863 39.6619 59.863 39.662 59.8716 39.6534C60.0429 40.1488 60.0811 40.6805 59.9824 41.1954C59.8837 41.7102 59.6516 42.1901 59.3092 42.587Z" fill="#080F21"/>
<path d="M24.1184 45.6717L17.6717 50.5376L13.7216 53.5187C12.859 54.1695 11.9061 55.1052 10.7852 55.1793C8.54981 55.3285 6.41518 52.5954 6.57098 50.4816C6.70208 48.6633 8.09097 47.814 9.38961 46.8165C11.8355 44.938 14.2792 43.0561 16.7207 41.1707C20.6993 38.1069 24.6057 34.9158 28.6764 31.9784C28.9946 31.7119 29.365 31.5149 29.764 31.4004C30.1629 31.2859 30.5814 31.2562 30.9925 31.3134C32.504 31.5566 33.0645 32.8676 34.2225 33.6457C35.2118 34.264 36.3675 34.5626 37.5324 34.5011C38.6974 34.4396 39.8152 34.0208 40.7338 33.3018C42.8352 31.7372 44.8454 30.0338 46.8974 28.4036L50.2775 25.7151C51.7347 24.557 53.1949 23.3515 55.0835 24.6083C56.2339 25.374 56.8172 26.5017 58.2137 26.9672C59.5607 27.4019 61.0212 27.32 62.3111 26.7373C63.4543 26.0873 64.5014 25.2812 65.4223 24.3423L69.1482 21.1256C70.1276 20.2792 71.5859 19.3273 70.9769 17.8206C70.6359 16.9741 68.1127 14.6998 70.2863 14.3844C71.6626 14.2934 73.0437 14.3017 74.4188 14.4091L79.6694 14.4414C80.6358 14.3576 81.6079 14.3665 82.5726 14.468C84.1087 14.8205 83.1625 17.109 82.9317 18.1094C82.615 19.4932 82.2984 20.8774 81.9817 22.2618L80.854 27.1676C80.8023 27.5056 80.7258 27.8393 80.6251 28.1661C80.1273 29.4096 79.3056 28.1974 78.8458 27.6151C78.4279 26.879 77.7356 26.3383 76.9201 26.1112C76.5232 26.0533 76.1186 26.0781 75.7317 26.1842C75.3449 26.2903 74.9842 26.4754 74.6724 26.7278C73.9476 27.275 73.2674 27.8973 72.5691 28.4787L64.2576 35.3937L61.1454 37.9834C59.8563 39.0559 58.3676 39.5424 56.8647 38.371C55.8425 37.5749 55.2574 36.6021 53.9483 36.1604C52.5385 35.7062 51.0073 35.8186 49.679 36.4739C48.3883 37.2451 47.1832 38.1515 46.0842 39.1775C43.8726 40.9408 41.6559 42.7005 39.4342 44.4567C38.3892 45.2861 37.1542 46.6218 35.7045 46.2912C35.4487 46.2153 35.1769 46.2118 34.9192 46.2808C34.6615 46.3499 34.4279 46.4889 34.2444 46.6825C33.9869 47.0226 34.005 47.5575 34.5094 47.6715C35.4423 47.8637 36.4076 47.8299 37.3248 47.5731C38.242 47.3163 39.0845 46.8438 39.7819 46.1952L43.9524 42.8816C45.9797 41.2714 47.9671 39.5385 50.0609 38.0157C51.7813 36.7655 53.3402 37.6157 54.6056 38.9533C55.5413 39.9386 56.8239 40.5206 58.1814 40.5759C59.7515 40.607 61.2734 40.0336 62.4327 38.9742L70.2958 32.4411L74.3865 29.0373C74.775 28.7133 75.7801 27.5609 76.2399 27.6939C76.7634 27.845 77.2583 28.9764 77.6298 29.3688C78.0064 29.758 78.4837 30.0352 79.0085 30.1693C79.5333 30.3035 80.085 30.2895 80.6023 30.1288C82.2239 29.6757 82.6296 28.376 82.9602 26.9396C83.6569 23.8996 84.3561 20.8565 85.0578 17.8101C85.4245 16.2189 86.1227 14.2704 84.2788 13.2967C83.2528 12.7542 81.8354 12.9651 80.6869 12.9575C77.3467 12.9376 74.0055 12.8777 70.6653 12.8967C68.9934 12.9053 67.0554 14.0301 67.3831 15.9671C67.5399 16.8991 68.2647 17.4463 68.7577 18.1958C69.3458 19.0879 68.5868 19.5106 67.9664 20.0464L64.6956 22.8708C63.7456 23.6907 62.5647 25.0624 61.4029 25.5422C59.5333 26.3145 58.4189 24.9209 57.1801 23.8274C56.1954 22.9779 54.9302 22.5245 53.63 22.5554C51.6949 22.5877 50.3449 23.6555 48.9133 24.7936L42.0609 30.2409C41.016 31.076 39.7354 32.4914 38.4139 32.9066C36.8816 33.3883 35.7302 32.4648 34.7602 31.4236C33.8814 30.485 32.6853 29.9061 31.4039 29.7992C29.7101 29.7267 28.0551 30.3196 26.7926 31.4512L22.7703 34.5425C20.8615 36.0093 18.9529 37.4764 17.0447 38.9438L8.73317 45.345C7.97318 45.933 7.18182 46.4963 6.43702 47.1062C5.42918 47.8786 4.75746 49.0095 4.56128 50.264C4.36511 51.5185 4.65955 52.8005 5.38348 53.8437C6.74958 55.7437 8.61346 56.9872 11.0474 56.6233C12.398 56.3271 13.6487 55.6856 14.6773 54.7614L23.3555 48.2063L25.4835 46.5999C26.6007 45.7573 24.9287 45.0599 24.1184 45.6717Z" fill="#080F21"/>
<path d="M57.9458 41.8915C58.3544 40.77 58.3064 39.5329 57.8121 38.4465C57.3178 37.36 56.4168 36.511 55.3029 36.0822L54.4289 31.5222C54.3944 31.3355 54.3203 31.1584 54.2116 31.0028C54.1029 30.8471 53.9622 30.7165 53.7989 30.6197C53.6355 30.523 53.4534 30.4623 53.2646 30.4418C53.0759 30.4214 52.885 30.4415 52.7047 30.501C52.5442 30.5548 52.4029 30.6543 52.2981 30.7873C52.1933 30.9203 52.1296 31.0809 52.1147 31.2496C51.9444 33.4121 51.9937 35.5864 52.262 37.739" fill="#080F21"/>
<path d="M53.3739 30.8186C53.3739 30.944 53.3853 31.0684 53.3853 31.1815V31.3411C53.3853 31.3629 53.3739 31.3857 53.3739 31.4199C53.3605 31.4782 53.3417 31.5352 53.3178 31.59C53.2249 31.7903 53.064 31.9512 52.8637 32.0441C52.7268 32.1044 52.5813 32.1425 52.4324 32.1571C52.2966 32.1799 52.1607 32.1913 52.0239 32.2141C51.9897 32.2141 52.0125 32.4991 52.0239 32.4991C52.1493 32.4877 52.2852 32.4649 52.4096 32.4535C52.5741 32.44 52.7349 32.3976 52.8846 32.3281C53.0905 32.2212 53.2514 32.0443 53.3387 31.8294C53.4098 31.6255 53.4367 31.4089 53.4176 31.1938C53.4176 31.0466 53.4062 30.8993 53.4062 30.7407C53.4062 30.7293 53.4062 30.6267 53.3834 30.6381C53.3691 30.6975 53.3652 30.7588 53.372 30.8195L53.3739 30.8186Z" fill="#DDDEDF"/>
<path d="M35.6635 48.4962C35.6771 47.8909 35.4811 47.2996 35.1086 46.8223C34.5624 46.2447 33.7511 46.0205 33.1849 45.4182C32.8087 44.9622 32.3739 44.5578 31.892 44.2155C31.2925 43.8355 30.296 43.7547 29.9416 43.1439C29.2586 41.964 29.6462 40.2663 29.0496 39.0313C28.8203 38.6054 28.435 38.2849 27.9744 38.137C27.5139 37.9891 27.014 38.0253 26.5796 38.2381C25.3978 38.8157 25.6514 40.4734 25.6495 41.5688C25.6495 42.3763 25.7265 43.1838 25.7388 43.9875C25.7765 44.2123 25.7576 44.4429 25.6838 44.6585C25.61 44.8741 25.4836 45.068 25.3161 45.2225C25.1766 45.3349 25.0532 45.466 24.9494 45.612C24.558 46.3254 25.1831 46.79 25.6514 47.2203C25.9773 47.5186 26.2927 47.8388 26.6337 48.1209C26.7421 48.2099 26.8452 48.3051 26.9425 48.4059C27.046 48.5161 26.856 48.1 26.8579 48.2045C26.8579 48.4316 26.8342 48.6624 26.8228 48.8885L26.6328 52.5451L26.0533 63.9118L25.6543 71.7275C25.6563 71.8234 25.696 71.9147 25.7648 71.9816C25.8336 72.0484 25.926 72.0855 26.0219 72.0847L34.9186 72.5692C35.1495 72.5825 35.6787 72.4628 35.6673 72.1284L35.007 52.4539C34.9407 51.9148 34.9225 51.3708 34.9529 50.8284C35.0707 50.076 35.6179 49.4889 35.6673 48.6035C35.6996 48.0335 34.5804 48.1903 34.5519 48.6881C34.5035 49.5431 33.923 50.0865 33.8356 50.8579C33.8195 51.2843 33.8338 51.7113 33.8784 52.1356L34.0437 57.0576L34.4551 69.3126L34.55 72.2101L35.2987 71.7683L26.401 71.2829L26.7677 71.6401L27.5875 55.5689L27.826 50.8816C27.9205 50.0367 27.9639 49.1868 27.9561 48.3366C27.8982 47.5377 26.9938 47.0427 26.4171 46.5126C25.622 45.7839 26.4266 45.6576 26.7487 44.9413C26.9176 44.2605 26.9316 43.5505 26.7895 42.8636C26.7506 41.9526 26.7458 41.0406 26.7943 40.1305C26.8123 39.8008 26.7287 38.1526 27.8478 39.1985C28.1015 39.4351 28.0302 39.6099 28.0986 39.8521C28.1936 40.1894 28.2316 40.5494 28.2972 40.8971C28.4036 41.6805 28.5527 42.4575 28.7437 43.2246C29.1493 44.5356 30.6256 44.4292 31.5509 45.2481C32.0259 45.6642 32.3698 46.1915 32.8733 46.5781C33.087 46.7332 33.3115 46.8729 33.545 46.9961C33.8692 47.168 34.1372 47.4296 34.3168 47.7497C34.4963 48.0698 34.58 48.4348 34.5577 48.8011C34.5966 49.2904 35.6996 49.0292 35.6635 48.4962Z" fill="#080F21"/>
<path d="M26.5124 39.0243C26.5124 39.1488 26.4383 39.0889 26.4383 39.2029C26.4383 39.2485 26.3784 39.3207 26.3784 39.3663C26.3784 39.3321 26.3642 39.5155 26.3642 39.5155C26.3642 39.5383 26.4535 39.5706 26.4535 39.6048C26.4421 39.6618 26.2825 39.6048 26.2635 39.6646C26.1685 39.8546 26.4677 39.5696 26.2635 39.6646C26.1276 39.7321 26.5485 39.7596 26.3974 39.7805C26.2464 39.8014 26.2008 41.3357 26.0649 41.3585C26.0307 41.3585 26.0535 41.6435 26.0649 41.6435C26.1894 41.6321 26.3262 41.6093 26.4506 41.5979C26.6149 41.5835 26.7755 41.5414 26.9256 41.4734C27.134 41.37 27.2958 41.192 27.3788 40.9747C27.4501 40.7707 27.4823 40.5551 27.4738 40.3391C27.4738 40.1919 27.4624 40.0437 27.4624 39.885C27.4624 39.8736 27.4624 39.772 27.4396 39.7834C27.1888 38.8619 26.5181 38.992 26.5181 39.0234L26.5124 39.0243Z" fill="#080F21"/>
<path d="M39.1889 71.6154C39.1668 72.6083 38.7788 73.5579 38.0993 74.2821C36.6363 75.9607 33.8243 77.095 30.601 77.095C27.2199 77.095 24.293 75.8477 22.8974 74.0322C22.5016 73.5386 22.2258 72.9597 22.0918 72.3412C22.0465 72.1058 22.0235 71.8666 22.0234 71.6268C22.0234 68.5982 25.87 66.1472 30.601 66.1472C32.0748 66.1377 33.5386 66.3912 34.9234 66.8958C37.4761 67.8259 39.1889 69.5957 39.1889 71.6154Z" fill="#080F21"/>
<path d="M38.9749 66.3971C38.9749 68.7455 36.5467 70.731 33.1998 71.3884C32.9728 71.434 32.7467 71.4682 32.5196 71.5024C31.953 71.5799 31.3816 71.6177 30.8096 71.6154H30.6054C29.2622 71.601 27.9312 71.3594 26.6686 70.901C26.0419 70.6678 25.4442 70.363 24.8874 69.9928C24.3375 69.6313 23.8506 69.182 23.4462 68.6628C22.932 68.0177 22.6484 67.2191 22.6406 66.3942C22.6418 65.9463 22.7306 65.5028 22.9019 65.0889C23.2116 64.3631 23.6947 63.7244 24.3088 63.2288C26.1814 61.8202 28.478 61.0918 30.8201 61.1635C35.3107 61.1778 38.9749 63.5148 38.9749 66.3971Z" fill="#080F21"/>
<path d="M37.6475 61.6062C37.6475 63.8976 34.9466 65.8042 31.4639 66.0645C31.1789 66.0873 30.8939 66.0987 30.6089 66.0987C29.8775 66.0987 29.1478 66.0265 28.4306 65.8831C26.798 65.6218 25.3128 64.7847 24.244 63.5233C23.8186 62.9782 23.5834 62.3089 23.5742 61.6176C23.5921 61.1189 23.7169 60.6299 23.9401 60.1836C24.1633 59.7373 24.4798 59.3441 24.8681 59.0307C25.1653 58.7598 25.4927 58.5239 25.8438 58.3277C26.2162 58.1085 26.6072 57.9226 27.0122 57.772C26.978 59.5418 34.5115 59.6777 34.5448 57.9078C35.2734 58.209 35.9391 58.644 36.5075 59.1903C36.8549 59.4917 37.1357 59.8622 37.332 60.2781C37.5283 60.6941 37.6357 61.1464 37.6475 61.6062Z" fill="#080F21"/>
<path d="M49.8106 76.4943C51.0122 77.3556 52.49 77.7417 53.9593 77.5782C55.3681 77.5782 56.7789 77.5972 58.1887 77.5782C58.8585 77.5966 59.5244 77.4717 60.1421 77.2119C60.7597 76.9521 61.3147 76.5634 61.77 76.0718C62.2253 75.5802 62.5703 74.997 62.782 74.3613C62.9937 73.7255 63.0672 73.0519 62.9975 72.3855C62.6517 66.8831 62.3034 61.3807 61.9525 55.8783L61.7359 52.464C61.6675 51.3782 61.3303 50.5754 60.081 50.4168C59.8864 50.3861 59.6871 50.423 59.5163 50.5214C59.3456 50.6197 59.2136 50.7735 59.1425 50.9573C58.9971 51.59 55.9733 51.4884 55.4992 51.476C54.8523 51.4599 52.464 51.5102 52.2692 50.716C52.2084 50.469 51.8626 50.3883 51.6479 50.4168C49.9579 50.6353 49.7346 51.7734 49.6472 53.1642L49.309 58.5022L48.4949 71.3709C48.3771 73.2329 48.2099 74.961 49.7128 76.4059C50.1422 76.8192 51.4446 76.2615 50.9763 75.8103C49.7194 74.6 49.7603 73.2519 49.8581 71.6977L50.1678 66.8024L50.9278 54.7459C50.9516 54.3773 50.7844 51.477 51.5121 51.3829L50.8898 51.0837C51.2765 52.6493 54.7164 52.4602 55.8726 52.4469C57.0981 52.4317 60.158 52.4688 60.5333 50.8414L59.5947 51.382C60.7926 51.534 60.4981 55.0404 60.5447 55.7776L61.0557 63.8526L61.5222 71.2151C61.6543 73.3118 61.8414 76.0772 59.0769 76.5589C57.8559 76.6786 56.6271 76.6958 55.4033 76.6102C53.7797 76.6102 52.2227 76.8277 50.8746 75.72C50.4272 75.3514 49.2112 76.0022 49.8106 76.4943Z" fill="#080F21"/>
<path d="M73.1268 43.3661C73.2494 43.7019 73.4438 44.0068 73.6965 44.2597C73.9492 44.5125 74.2541 44.7072 74.5898 44.83C74.6448 44.8512 74.6921 44.8885 74.7254 44.9371C74.7588 44.9857 74.7767 45.0433 74.7767 45.1022C74.7767 45.1611 74.7588 45.2187 74.7254 45.2673C74.6921 45.3159 74.6448 45.3532 74.5898 45.3744C74.2542 45.4971 73.9494 45.6916 73.6967 45.9443C73.444 46.197 73.2495 46.5018 73.1268 46.8374C73.1056 46.8924 73.0683 46.9397 73.0197 46.973C72.9711 47.0064 72.9136 47.0242 72.8546 47.0242C72.7957 47.0242 72.7381 47.0064 72.6895 46.973C72.641 46.9397 72.6036 46.8924 72.5825 46.8374C72.4595 46.5017 72.2648 46.1969 72.012 45.9443C71.7591 45.6916 71.4542 45.4971 71.1185 45.3744C71.0635 45.3532 71.0162 45.3159 70.9829 45.2673C70.9495 45.2187 70.9316 45.1611 70.9316 45.1022C70.9316 45.0433 70.9495 44.9857 70.9829 44.9371C71.0162 44.8885 71.0635 44.8512 71.1185 44.83C71.4544 44.7072 71.7594 44.5126 72.0122 44.2598C72.2651 44.0069 72.4597 43.7019 72.5825 43.3661C72.6036 43.3111 72.641 43.2638 72.6895 43.2304C72.7381 43.1971 72.7957 43.1792 72.8546 43.1792C72.9136 43.1792 72.9711 43.1971 73.0197 43.2304C73.0683 43.2638 73.1056 43.3111 73.1268 43.3661Z" fill="#080F21"/>
<path d="M10.3859 26.5644C10.5751 27.073 10.8716 27.5348 11.2552 27.9186C11.6387 28.3023 12.1005 28.599 12.6089 28.7884C12.6936 28.8195 12.7667 28.8759 12.8183 28.9498C12.8699 29.0238 12.8976 29.1119 12.8976 29.2021C12.8976 29.2923 12.8699 29.3803 12.8183 29.4543C12.7667 29.5283 12.6936 29.5847 12.6089 29.6158C12.1004 29.805 11.6386 30.1016 11.255 30.4854C10.8713 30.8692 10.5749 31.3311 10.3859 31.8398C10.355 31.9248 10.2987 31.9982 10.2246 32.0501C10.1505 32.1019 10.0622 32.1298 9.97175 32.1298C9.8813 32.1298 9.79303 32.1019 9.71893 32.0501C9.64484 31.9982 9.5885 31.9248 9.55755 31.8398C9.36851 31.331 9.07198 30.869 8.68819 30.4852C8.30441 30.1014 7.84238 29.8049 7.33361 29.6158C7.24893 29.5847 7.17585 29.5283 7.12423 29.4543C7.0726 29.3803 7.04492 29.2923 7.04492 29.2021C7.04492 29.1119 7.0726 29.0238 7.12423 28.9498C7.17585 28.8759 7.24893 28.8195 7.33361 28.7884C7.84238 28.5993 8.30441 28.3028 8.68819 27.919C9.07198 27.5352 9.36851 27.0732 9.55755 26.5644C9.5885 26.4794 9.64484 26.406 9.71893 26.3541C9.79303 26.3022 9.8813 26.2744 9.97175 26.2744C10.0622 26.2744 10.1505 26.3022 10.2246 26.3541C10.2987 26.406 10.355 26.4794 10.3859 26.5644Z" fill="#080F21"/>
<path d="M13.9084 22.956C14.5601 22.956 15.0883 22.4277 15.0883 21.7761C15.0883 21.1245 14.5601 20.5962 13.9084 20.5962C13.2568 20.5962 12.7285 21.1245 12.7285 21.7761C12.7285 22.4277 13.2568 22.956 13.9084 22.956Z" fill="#080F21"/>
<defs>
<linearGradient id="paint0_linear_1387_18864" x1="35.4008" y1="41.8691" x2="46.7457" y2="41.8691" gradientUnits="userSpaceOnUse">
<stop offset="0.005" stop-color="#3063BA"/>
<stop offset="1" stop-color="#A3BFF6"/>
</linearGradient>
<linearGradient id="paint1_linear_1387_18864" x1="8.64453" y1="43.633" x2="19.161" y2="43.633" gradientUnits="userSpaceOnUse">
<stop offset="0.005" stop-color="#3063BA"/>
<stop offset="1" stop-color="#A3BFF6"/>
</linearGradient>
<linearGradient id="paint2_linear_1387_18864" x1="46.2266" y1="27.5459" x2="51.7631" y2="27.5459" gradientUnits="userSpaceOnUse">
<stop offset="0.005" stop-color="#3063BA"/>
<stop offset="1" stop-color="#A3BFF6"/>
</linearGradient>
<linearGradient id="paint3_linear_1387_18864" x1="80.4197" y1="16.1002" x2="83.9385" y2="16.1002" gradientUnits="userSpaceOnUse">
<stop offset="0.005" stop-color="#3063BA"/>
<stop offset="1" stop-color="#A3BFF6"/>
</linearGradient>
<linearGradient id="paint4_linear_1387_18864" x1="60.8828" y1="24.6171" x2="69.9315" y2="24.6171" gradientUnits="userSpaceOnUse">
<stop offset="0.005" stop-color="#3063BA"/>
<stop offset="1" stop-color="#A3BFF6"/>
</linearGradient>
<linearGradient id="paint5_linear_1387_18864" x1="57.8984" y1="63.997" x2="62.3292" y2="63.997" gradientUnits="userSpaceOnUse">
<stop offset="0.005" stop-color="#3063BA"/>
<stop offset="1" stop-color="#A3BFF6"/>
</linearGradient>
<linearGradient id="paint6_linear_1387_18864" x1="54.3388" y1="64.5075" x2="55.6773" y2="64.5075" gradientUnits="userSpaceOnUse">
<stop offset="0.005" stop-color="#3063BA"/>
<stop offset="1" stop-color="#A3BFF6"/>
</linearGradient>
<linearGradient id="paint7_linear_1387_18864" x1="49.0449" y1="63.5041" x2="53.2733" y2="63.5041" gradientUnits="userSpaceOnUse">
<stop offset="0.005" stop-color="#3063BA"/>
<stop offset="1" stop-color="#A3BFF6"/>
</linearGradient>
</defs>
</svg>
