<svg width="345" height="238" viewBox="0 0 345 238" fill="none" xmlns="http://www.w3.org/2000/svg">
<g filter="url(#filter0_d_143_1075)">
<rect x="6.62305" y="4.04541" width="332" height="225.22" rx="20" fill="white"/>
</g>
<path d="M42.915 61.9545L46.079 71.9005H46.2005L49.3709 61.9545H52.4391L47.9263 75.0454H44.3596L39.8404 61.9545H42.915ZM53.9636 75.0454V65.2272H56.6866V75.0454H53.9636ZM55.3315 63.9616C54.9267 63.9616 54.5794 63.8274 54.2896 63.5589C54.0041 63.2862 53.8613 62.9602 53.8613 62.5809C53.8613 62.2059 54.0041 61.8842 54.2896 61.6157C54.5794 61.343 54.9267 61.2066 55.3315 61.2066C55.7363 61.2066 56.0815 61.343 56.367 61.6157C56.6568 61.8842 56.8017 62.2059 56.8017 62.5809C56.8017 62.9602 56.6568 63.2862 56.367 63.5589C56.0815 63.8274 55.7363 63.9616 55.3315 63.9616ZM67.0369 68.0269L64.544 68.1804C64.5014 67.9673 64.4098 67.7755 64.2692 67.6051C64.1286 67.4304 63.9432 67.2919 63.7131 67.1896C63.4872 67.0831 63.2166 67.0298 62.9013 67.0298C62.4794 67.0298 62.1236 67.1193 61.8338 67.2983C61.544 67.473 61.3991 67.7073 61.3991 68.0014C61.3991 68.2358 61.4929 68.4339 61.6804 68.5958C61.8679 68.7578 62.1896 68.8877 62.6456 68.9858L64.4226 69.3437C65.3771 69.5397 66.0888 69.8551 66.5575 70.2897C67.0263 70.7244 67.2607 71.2954 67.2607 72.0028C67.2607 72.6463 67.071 73.2109 66.6918 73.6967C66.3168 74.1825 65.8011 74.5617 65.1449 74.8345C64.4929 75.1029 63.7408 75.2372 62.8885 75.2372C61.5888 75.2372 60.5533 74.9666 59.782 74.4254C59.0149 73.8799 58.5653 73.1384 58.4332 72.2009L61.1115 72.0603C61.1925 72.4566 61.3885 72.7592 61.6996 72.968C62.0107 73.1725 62.4091 73.2748 62.8949 73.2748C63.3722 73.2748 63.7557 73.1832 64.0455 73C64.3395 72.8125 64.4886 72.5717 64.4929 72.2777C64.4886 72.0305 64.3842 71.8281 64.1797 71.6704C63.9751 71.5085 63.6598 71.3849 63.2337 71.2997L61.5334 70.9609C60.5746 70.7691 59.8608 70.4367 59.392 69.9637C58.9276 69.4907 58.6953 68.8877 58.6953 68.1548C58.6953 67.5241 58.8658 66.9808 59.2067 66.5248C59.5518 66.0688 60.0355 65.7173 60.6577 65.4701C61.2841 65.223 62.017 65.0994 62.8565 65.0994C64.0966 65.0994 65.0724 65.3615 65.7841 65.8856C66.5 66.4098 66.9176 67.1235 67.0369 68.0269ZM68.9753 75.0454V65.2272H71.6983V75.0454H68.9753ZM70.3432 63.9616C69.9384 63.9616 69.5911 63.8274 69.3013 63.5589C69.0158 63.2862 68.873 62.9602 68.873 62.5809C68.873 62.2059 69.0158 61.8842 69.3013 61.6157C69.5911 61.343 69.9384 61.2066 70.3432 61.2066C70.748 61.2066 71.0932 61.343 71.3787 61.6157C71.6685 61.8842 71.8134 62.2059 71.8134 62.5809C71.8134 62.9602 71.6685 63.2862 71.3787 63.5589C71.0932 63.8274 70.748 63.9616 70.3432 63.9616ZM79.1019 65.2272V67.2727H73.1893V65.2272H79.1019ZM74.5316 62.875H77.2546V72.0284C77.2546 72.2798 77.293 72.4758 77.3697 72.6164C77.4464 72.7528 77.5529 72.8487 77.6893 72.9041C77.8299 72.9595 77.9918 72.9872 78.1751 72.9872C78.3029 72.9872 78.4308 72.9765 78.5586 72.9552C78.6864 72.9296 78.7844 72.9105 78.8526 72.8977L79.2809 74.924C79.1445 74.9666 78.9528 75.0156 78.7056 75.071C78.4585 75.1306 78.158 75.1669 77.8043 75.1796C77.1481 75.2052 76.5728 75.1179 76.0785 74.9176C75.5884 74.7173 75.207 74.4062 74.9343 73.9843C74.6616 73.5625 74.5273 73.0298 74.5316 72.3863V62.875ZM88.6596 75.2052C87.9139 75.2052 87.2385 75.0134 86.6333 74.6299C86.0325 74.2421 85.5552 73.6733 85.2015 72.9233C84.8521 72.169 84.6774 71.2443 84.6774 70.1491C84.6774 69.0241 84.8585 68.0887 85.2207 67.343C85.5829 66.593 86.0645 66.0326 86.6653 65.6619C87.2704 65.2869 87.9331 65.0994 88.6532 65.0994C89.2029 65.0994 89.661 65.1931 90.0275 65.3806C90.3983 65.5639 90.6966 65.794 90.9224 66.071C91.1525 66.3437 91.3272 66.6122 91.4466 66.8764H91.5297V61.9545H94.2463V75.0454H91.5616V73.473H91.4466C91.3187 73.7457 91.1376 74.0163 90.9032 74.2848C90.6731 74.549 90.3727 74.7684 90.002 74.9431C89.6355 75.1179 89.188 75.2052 88.6596 75.2052ZM89.5226 73.0383C89.9615 73.0383 90.3322 72.919 90.6348 72.6804C90.9416 72.4375 91.176 72.0987 91.3379 71.664C91.5041 71.2294 91.5872 70.7201 91.5872 70.1363C91.5872 69.5525 91.5062 69.0454 91.3443 68.615C91.1824 68.1846 90.948 67.8522 90.6412 67.6179C90.3343 67.3835 89.9615 67.2663 89.5226 67.2663C89.0751 67.2663 88.698 67.3877 88.3912 67.6306C88.0843 67.8735 87.8521 68.2102 87.6944 68.6406C87.5368 69.071 87.4579 69.5696 87.4579 70.1363C87.4579 70.7073 87.5368 71.2123 87.6944 71.6512C87.8564 72.0859 88.0886 72.4268 88.3912 72.674C88.698 72.9169 89.0751 73.0383 89.5226 73.0383ZM102.781 70.865V65.2272H105.504V75.0454H102.89V73.262H102.788C102.566 73.8373 102.197 74.2997 101.682 74.6491C101.17 74.9985 100.546 75.1733 99.8089 75.1733C99.1527 75.1733 98.5753 75.0241 98.0767 74.7258C97.5781 74.4275 97.1882 74.0035 96.907 73.4538C96.63 72.9041 96.4893 72.2457 96.4851 71.4786V65.2272H99.2081V70.9929C99.2124 71.5724 99.3679 72.0305 99.6747 72.3671C99.9815 72.7038 100.393 72.8721 100.908 72.8721C101.237 72.8721 101.543 72.7975 101.829 72.6484C102.114 72.495 102.344 72.2691 102.519 71.9708C102.698 71.6725 102.786 71.3039 102.781 70.865ZM107.682 75.0454V65.2272H110.322V66.9403H110.425C110.604 66.3309 110.904 65.8707 111.326 65.5596C111.748 65.2443 112.233 65.0866 112.783 65.0866C112.92 65.0866 113.067 65.0951 113.224 65.1122C113.382 65.1292 113.52 65.1527 113.64 65.1825V67.5987C113.512 67.5603 113.335 67.5262 113.109 67.4964C112.883 67.4666 112.677 67.4517 112.489 67.4517C112.089 67.4517 111.731 67.539 111.415 67.7137C111.104 67.8842 110.857 68.1228 110.674 68.4296C110.495 68.7365 110.405 69.0902 110.405 69.4907V75.0454H107.682ZM117.566 75.2308C116.94 75.2308 116.381 75.1221 115.891 74.9048C115.401 74.6832 115.013 74.3572 114.728 73.9268C114.447 73.4921 114.306 72.9509 114.306 72.3032C114.306 71.7578 114.406 71.2997 114.607 70.9289C114.807 70.5582 115.08 70.2599 115.425 70.034C115.77 69.8082 116.162 69.6377 116.601 69.5227C117.044 69.4076 117.509 69.3267 117.994 69.2798C118.565 69.2201 119.026 69.1647 119.375 69.1136C119.724 69.0582 119.978 68.9772 120.136 68.8707C120.293 68.7642 120.372 68.6065 120.372 68.3977V68.3593C120.372 67.9545 120.244 67.6413 119.989 67.4197C119.737 67.1981 119.379 67.0873 118.915 67.0873C118.425 67.0873 118.035 67.196 117.745 67.4133C117.455 67.6264 117.263 67.8948 117.17 68.2187L114.651 68.0142C114.779 67.4176 115.031 66.9019 115.406 66.4673C115.781 66.0284 116.264 65.6917 116.857 65.4573C117.453 65.2187 118.143 65.0994 118.928 65.0994C119.473 65.0994 119.995 65.1633 120.494 65.2911C120.996 65.419 121.442 65.6171 121.83 65.8856C122.222 66.1541 122.531 66.4992 122.756 66.9211C122.982 67.3387 123.095 67.8394 123.095 68.4233V75.0454H120.513V73.6839H120.436C120.278 73.9907 120.067 74.2613 119.803 74.4957C119.539 74.7258 119.222 74.9069 118.851 75.039C118.48 75.1669 118.052 75.2308 117.566 75.2308ZM118.346 73.3515C118.746 73.3515 119.1 73.2727 119.407 73.115C119.714 72.9531 119.955 72.7358 120.129 72.463C120.304 72.1903 120.391 71.8813 120.391 71.5362V70.4943C120.306 70.5497 120.189 70.6008 120.04 70.6477C119.895 70.6903 119.731 70.7308 119.548 70.7691C119.364 70.8032 119.181 70.8352 118.998 70.865C118.815 70.8906 118.648 70.914 118.499 70.9353C118.18 70.9822 117.901 71.0568 117.662 71.159C117.423 71.2613 117.238 71.3998 117.106 71.5745C116.974 71.745 116.908 71.9581 116.908 72.2137C116.908 72.5845 117.042 72.8679 117.31 73.0639C117.583 73.2556 117.928 73.3515 118.346 73.3515ZM130.43 65.2272V67.2727H124.517V65.2272H130.43ZM125.86 62.875H128.583V72.0284C128.583 72.2798 128.621 72.4758 128.698 72.6164C128.775 72.7528 128.881 72.8487 129.017 72.9041C129.158 72.9595 129.32 72.9872 129.503 72.9872C129.631 72.9872 129.759 72.9765 129.887 72.9552C130.015 72.9296 130.113 72.9105 130.181 72.8977L130.609 74.924C130.473 74.9666 130.281 75.0156 130.034 75.071C129.787 75.1306 129.486 75.1669 129.132 75.1796C128.476 75.2052 127.901 75.1179 127.407 74.9176C126.917 74.7173 126.535 74.4062 126.262 73.9843C125.99 73.5625 125.855 73.0298 125.86 72.3863V62.875ZM132.204 75.0454V65.2272H134.927V75.0454H132.204ZM133.572 63.9616C133.167 63.9616 132.82 63.8274 132.53 63.5589C132.244 63.2862 132.102 62.9602 132.102 62.5809C132.102 62.2059 132.244 61.8842 132.53 61.6157C132.82 61.343 133.167 61.2066 133.572 61.2066C133.977 61.2066 134.322 61.343 134.607 61.6157C134.897 61.8842 135.042 62.2059 135.042 62.5809C135.042 62.9602 134.897 63.2862 134.607 63.5589C134.322 63.8274 133.977 63.9616 133.572 63.9616ZM141.544 75.2372C140.551 75.2372 139.693 75.0262 138.968 74.6044C138.248 74.1782 137.692 73.5859 137.3 72.8274C136.908 72.0646 136.712 71.1804 136.712 70.1747C136.712 69.1605 136.908 68.2741 137.3 67.5156C137.692 66.7528 138.248 66.1605 138.968 65.7386C139.693 65.3125 140.551 65.0994 141.544 65.0994C142.537 65.0994 143.394 65.3125 144.114 65.7386C144.838 66.1605 145.396 66.7528 145.789 67.5156C146.181 68.2741 146.377 69.1605 146.377 70.1747C146.377 71.1804 146.181 72.0646 145.789 72.8274C145.396 73.5859 144.838 74.1782 144.114 74.6044C143.394 75.0262 142.537 75.2372 141.544 75.2372ZM141.557 73.1278C142.009 73.1278 142.386 73 142.688 72.7443C142.991 72.4843 143.219 72.1306 143.372 71.6832C143.53 71.2358 143.609 70.7265 143.609 70.1555C143.609 69.5845 143.53 69.0752 143.372 68.6278C143.219 68.1804 142.991 67.8267 142.688 67.5667C142.386 67.3068 142.009 67.1768 141.557 67.1768C141.101 67.1768 140.718 67.3068 140.406 67.5667C140.1 67.8267 139.867 68.1804 139.71 68.6278C139.556 69.0752 139.48 69.5845 139.48 70.1555C139.48 70.7265 139.556 71.2358 139.71 71.6832C139.867 72.1306 140.1 72.4843 140.406 72.7443C140.718 73 141.101 73.1278 141.557 73.1278ZM150.87 69.3693V75.0454H148.147V65.2272H150.742V66.9595H150.857C151.075 66.3884 151.439 65.9367 151.95 65.6044C152.462 65.2677 153.082 65.0994 153.811 65.0994C154.492 65.0994 155.087 65.2485 155.594 65.5468C156.101 65.8451 156.495 66.2713 156.776 66.8252C157.058 67.375 157.198 68.0312 157.198 68.794V75.0454H154.475V69.2798C154.48 68.6789 154.326 68.2102 154.015 67.8735C153.704 67.5326 153.276 67.3622 152.73 67.3622C152.364 67.3622 152.04 67.441 151.759 67.5987C151.482 67.7563 151.264 67.9865 151.107 68.289C150.953 68.5873 150.874 68.9474 150.87 69.3693Z" fill="#1E1B39"/>
<path d="M46.7845 41.409C46.7249 40.9053 46.4829 40.5142 46.0587 40.2358C45.6344 39.9573 45.1141 39.8181 44.4976 39.8181C44.0468 39.8181 43.6524 39.8911 43.3144 40.0369C42.9796 40.1827 42.7178 40.3832 42.5289 40.6384C42.3432 40.8937 42.2504 41.1837 42.2504 41.5085C42.2504 41.7803 42.3151 42.0139 42.4443 42.2095C42.5769 42.4017 42.7459 42.5625 42.9514 42.6917C43.1569 42.8177 43.3724 42.9221 43.5977 43.0049C43.8231 43.0845 44.0303 43.1491 44.2192 43.1988L45.2533 43.4772C45.5184 43.5468 45.8134 43.6429 46.1382 43.7656C46.4664 43.8882 46.7796 44.0556 47.0779 44.2677C47.3795 44.4765 47.628 44.745 47.8236 45.0731C48.0191 45.4012 48.1169 45.8039 48.1169 46.2812C48.1169 46.8314 47.9727 47.3286 47.6844 47.7727C47.3994 48.2168 46.9817 48.5698 46.4316 48.8316C45.8847 49.0935 45.2201 49.2244 44.4379 49.2244C43.7088 49.2244 43.0774 49.1067 42.5438 48.8714C42.0135 48.6361 41.5959 48.308 41.2909 47.887C40.9893 47.4661 40.8186 46.9772 40.7789 46.4204H42.0516C42.0847 46.8049 42.214 47.1231 42.4394 47.375C42.6681 47.6235 42.9564 47.8091 43.3044 47.9318C43.6557 48.0511 44.0336 48.1108 44.4379 48.1108C44.9086 48.1108 45.3312 48.0345 45.7057 47.8821C46.0802 47.7263 46.3769 47.5108 46.5956 47.2358C46.8144 46.9573 46.9237 46.6325 46.9237 46.2613C46.9237 45.9233 46.8293 45.6482 46.6404 45.436C46.4514 45.2239 46.2029 45.0516 45.8946 44.919C45.5864 44.7864 45.2533 44.6704 44.8953 44.571L43.6425 44.213C42.847 43.9843 42.2173 43.6579 41.7533 43.2336C41.2893 42.8094 41.0573 42.2542 41.0573 41.5681C41.0573 40.9981 41.2114 40.5009 41.5196 40.0767C41.8312 39.6491 42.2488 39.3177 42.7725 39.0823C43.2994 38.8437 43.8878 38.7244 44.5374 38.7244C45.1936 38.7244 45.777 38.842 46.2874 39.0774C46.7978 39.3094 47.2021 39.6276 47.5004 40.0319C47.8021 40.4363 47.9611 40.8953 47.9777 41.409H46.7845ZM53.306 41.409V42.4034H49.3486V41.409H53.306ZM50.502 39.5795H51.6753V46.8579C51.6753 47.1893 51.7234 47.4379 51.8195 47.6036C51.9189 47.7661 52.0449 47.8754 52.1974 47.9318C52.3531 47.9848 52.5172 48.0113 52.6895 48.0113C52.8188 48.0113 52.9249 48.0047 53.0077 47.9914C53.0906 47.9749 53.1569 47.9616 53.2066 47.9517L53.4452 49.0056C53.3657 49.0355 53.2546 49.0653 53.1121 49.0951C52.9696 49.1283 52.789 49.1448 52.5702 49.1448C52.2388 49.1448 51.914 49.0736 51.5958 48.9311C51.2809 48.7885 51.0191 48.5715 50.8103 48.2798C50.6048 47.9881 50.502 47.6202 50.502 47.1761V39.5795ZM57.3181 49.2244C56.8342 49.2244 56.395 49.1332 56.0006 48.9509C55.6062 48.7653 55.293 48.4985 55.061 48.1505C54.829 47.7992 54.713 47.375 54.713 46.8778C54.713 46.4403 54.7992 46.0857 54.9715 45.8139C55.1439 45.5388 55.3742 45.3233 55.6626 45.1676C55.9509 45.0118 56.2691 44.8958 56.6171 44.8196C56.9684 44.74 57.3214 44.677 57.676 44.6306C58.1401 44.571 58.5162 44.5262 58.8046 44.4964C59.0963 44.4633 59.3084 44.4086 59.441 44.3323C59.5769 44.2561 59.6448 44.1235 59.6448 43.9346V43.8948C59.6448 43.4043 59.5106 43.0232 59.2421 42.7514C58.9769 42.4796 58.5742 42.3437 58.034 42.3437C57.4739 42.3437 57.0347 42.4663 56.7165 42.7116C56.3983 42.9569 56.1746 43.2187 56.0454 43.4971L54.9317 43.0994C55.1306 42.6354 55.3957 42.2741 55.7272 42.0156C56.0619 41.7537 56.4265 41.5715 56.8209 41.4687C57.2187 41.3626 57.6098 41.3096 57.9942 41.3096C58.2395 41.3096 58.5212 41.3394 58.8394 41.3991C59.1609 41.4554 59.4708 41.5731 59.7691 41.7521C60.0707 41.9311 60.3209 42.2012 60.5198 42.5625C60.7187 42.9237 60.8181 43.4076 60.8181 44.0142V49.0454H59.6448V48.0113H59.5851C59.5056 48.177 59.373 48.3544 59.1874 48.5433C59.0018 48.7322 58.7549 48.8929 58.4466 49.0255C58.1384 49.1581 57.7622 49.2244 57.3181 49.2244ZM57.4971 48.1704C57.9611 48.1704 58.3522 48.0793 58.6704 47.897C58.9919 47.7147 59.2338 47.4794 59.3962 47.191C59.5619 46.9027 59.6448 46.5994 59.6448 46.2812V45.2073C59.5951 45.267 59.4857 45.3217 59.3167 45.3714C59.151 45.4178 58.9587 45.4592 58.74 45.4957C58.5245 45.5288 58.3141 45.5587 58.1086 45.5852C57.9064 45.6084 57.7423 45.6283 57.6164 45.6448C57.3115 45.6846 57.0264 45.7492 56.7613 45.8387C56.4994 45.9249 56.2873 46.0558 56.1249 46.2315C55.9658 46.4038 55.8863 46.6392 55.8863 46.9375C55.8863 47.3451 56.0371 47.6534 56.3387 47.8622C56.6436 48.0677 57.0297 48.1704 57.4971 48.1704ZM66.2806 41.409V42.4034H62.3232V41.409H66.2806ZM63.4767 39.5795H64.6499V46.8579C64.6499 47.1893 64.698 47.4379 64.7941 47.6036C64.8936 47.7661 65.0195 47.8754 65.172 47.9318C65.3277 47.9848 65.4918 48.0113 65.6642 48.0113C65.7934 48.0113 65.8995 48.0047 65.9823 47.9914C66.0652 47.9749 66.1315 47.9616 66.1812 47.9517L66.4198 49.0056C66.3403 49.0355 66.2293 49.0653 66.0867 49.0951C65.9442 49.1283 65.7636 49.1448 65.5448 49.1448C65.2134 49.1448 64.8886 49.0736 64.5704 48.9311C64.2555 48.7885 63.9937 48.5715 63.7849 48.2798C63.5794 47.9881 63.4767 47.6202 63.4767 47.1761V39.5795ZM68.0455 49.0454V41.409H69.2188V49.0454H68.0455ZM68.6421 40.1363C68.4134 40.1363 68.2162 40.0584 68.0505 39.9027C67.8881 39.7469 67.8069 39.5596 67.8069 39.3409C67.8069 39.1221 67.8881 38.9349 68.0505 38.7791C68.2162 38.6233 68.4134 38.5454 68.6421 38.5454C68.8708 38.5454 69.0664 38.6233 69.2288 38.7791C69.3945 38.9349 69.4774 39.1221 69.4774 39.3409C69.4774 39.5596 69.3945 39.7469 69.2288 39.9027C69.0664 40.0584 68.8708 40.1363 68.6421 40.1363ZM76.7769 43.1193L75.7229 43.4176C75.6566 43.2419 75.5589 43.0712 75.4296 42.9055C75.3037 42.7365 75.1313 42.5973 74.9126 42.4879C74.6938 42.3785 74.4137 42.3238 74.0724 42.3238C73.605 42.3238 73.2156 42.4315 72.904 42.647C72.5958 42.8591 72.4417 43.1292 72.4417 43.4573C72.4417 43.749 72.5477 43.9794 72.7599 44.1484C72.972 44.3174 73.3034 44.4583 73.7542 44.571L74.8877 44.8494C75.5705 45.0151 76.0792 45.2687 76.414 45.61C76.7487 45.9481 76.9161 46.384 76.9161 46.9176C76.9161 47.3551 76.7902 47.7462 76.5383 48.0909C76.2897 48.4356 75.9417 48.7073 75.4942 48.9062C75.0468 49.1051 74.5264 49.2045 73.9331 49.2045C73.1543 49.2045 72.5096 49.0355 71.9992 48.6974C71.4888 48.3593 71.1656 47.8655 71.0297 47.2159L72.1434 46.9375C72.2494 47.3484 72.45 47.6567 72.7449 47.8622C73.0432 48.0677 73.4327 48.1704 73.9133 48.1704C74.4601 48.1704 74.8943 48.0544 75.2158 47.8224C75.5406 47.5871 75.703 47.3054 75.703 46.9772C75.703 46.7121 75.6102 46.49 75.4246 46.311C75.239 46.1287 74.954 45.9929 74.5695 45.9034L73.2968 45.6051C72.5974 45.4393 72.0837 45.1825 71.7556 44.8345C71.4308 44.4831 71.2684 44.044 71.2684 43.517C71.2684 43.0861 71.3894 42.705 71.6313 42.3735C71.8766 42.0421 72.2097 41.7819 72.6306 41.593C73.0548 41.4041 73.5354 41.3096 74.0724 41.3096C74.828 41.3096 75.4213 41.4753 75.8522 41.8068C76.2864 42.1382 76.5946 42.5757 76.7769 43.1193ZM82.0033 41.409V42.4034H78.0459V41.409H82.0033ZM79.1993 39.5795H80.3726V46.8579C80.3726 47.1893 80.4207 47.4379 80.5168 47.6036C80.6162 47.7661 80.7422 47.8754 80.8946 47.9318C81.0504 47.9848 81.2145 48.0113 81.3868 48.0113C81.5161 48.0113 81.6221 48.0047 81.705 47.9914C81.7878 47.9749 81.8541 47.9616 81.9039 47.9517L82.1425 49.0056C82.0629 49.0355 81.9519 49.0653 81.8094 49.0951C81.6669 49.1283 81.4862 49.1448 81.2675 49.1448C80.9361 49.1448 80.6112 49.0736 80.2931 48.9311C79.9782 48.7885 79.7164 48.5715 79.5075 48.2798C79.3021 47.9881 79.1993 47.6202 79.1993 47.1761V39.5795ZM83.7682 49.0454V41.409H84.9415V49.0454H83.7682ZM84.3648 40.1363C84.1361 40.1363 83.9389 40.0584 83.7732 39.9027C83.6108 39.7469 83.5296 39.5596 83.5296 39.3409C83.5296 39.1221 83.6108 38.9349 83.7732 38.7791C83.9389 38.6233 84.1361 38.5454 84.3648 38.5454C84.5935 38.5454 84.789 38.6233 84.9514 38.7791C85.1172 38.9349 85.2 39.1221 85.2 39.3409C85.2 39.5596 85.1172 39.7469 84.9514 39.9027C84.789 40.0584 84.5935 40.1363 84.3648 40.1363ZM90.1927 49.2045C89.4768 49.2045 88.8604 49.0355 88.3433 48.6974C87.8263 48.3593 87.4285 47.8937 87.1501 47.3004C86.8717 46.7071 86.7325 46.0293 86.7325 45.267C86.7325 44.4914 86.875 43.807 87.1601 43.2137C87.4484 42.6171 87.8495 42.1515 88.3632 41.8167C88.8802 41.4786 89.4835 41.3096 90.1729 41.3096C90.7098 41.3096 91.1937 41.409 91.6246 41.6079C92.0554 41.8068 92.4084 42.0852 92.6835 42.4431C92.9586 42.8011 93.1293 43.2187 93.1956 43.696H92.0223C91.9328 43.348 91.7339 43.0397 91.4257 42.7713C91.1208 42.4995 90.7098 42.3636 90.1927 42.3636C89.7354 42.3636 89.3343 42.4829 88.9896 42.7215C88.6482 42.9569 88.3814 43.29 88.1892 43.7208C88.0003 44.1484 87.9058 44.6505 87.9058 45.2272C87.9058 45.8172 87.9986 46.3309 88.1842 46.7684C88.3731 47.2059 88.6383 47.5456 88.9797 47.7876C89.3244 48.0295 89.7287 48.1505 90.1927 48.1505C90.4977 48.1505 90.7744 48.0975 91.023 47.9914C91.2716 47.8854 91.482 47.7329 91.6544 47.534C91.8267 47.3352 91.9494 47.0965 92.0223 46.8181H93.1956C93.1293 47.2689 92.9652 47.6749 92.7034 48.0362C92.4449 48.3941 92.1018 48.6792 91.6743 48.8913C91.25 49.1001 90.7562 49.2045 90.1927 49.2045ZM100.32 43.1193L99.2659 43.4176C99.1996 43.2419 99.1018 43.0712 98.9726 42.9055C98.8466 42.7365 98.6743 42.5973 98.4555 42.4879C98.2368 42.3785 97.9567 42.3238 97.6153 42.3238C97.148 42.3238 96.7586 42.4315 96.447 42.647C96.1388 42.8591 95.9846 43.1292 95.9846 43.4573C95.9846 43.749 96.0907 43.9794 96.3028 44.1484C96.5149 44.3174 96.8464 44.4583 97.2971 44.571L98.4307 44.8494C99.1134 45.0151 99.6222 45.2687 99.9569 45.61C100.292 45.9481 100.459 46.384 100.459 46.9176C100.459 47.3551 100.333 47.7462 100.081 48.0909C99.8327 48.4356 99.4846 48.7073 99.0372 48.9062C98.5898 49.1051 98.0694 49.2045 97.4761 49.2045C96.6972 49.2045 96.0526 49.0355 95.5422 48.6974C95.0318 48.3593 94.7086 47.8655 94.5727 47.2159L95.6863 46.9375C95.7924 47.3484 95.9929 47.6567 96.2879 47.8622C96.5862 48.0677 96.9756 48.1704 97.4562 48.1704C98.0031 48.1704 98.4373 48.0544 98.7588 47.8224C99.0836 47.5871 99.246 47.3054 99.246 46.9772C99.246 46.7121 99.1532 46.49 98.9676 46.311C98.782 46.1287 98.497 45.9929 98.1125 45.9034L96.8398 45.6051C96.1404 45.4393 95.6267 45.1825 95.2986 44.8345C94.9738 44.4831 94.8113 44.044 94.8113 43.517C94.8113 43.0861 94.9323 42.705 95.1743 42.3735C95.4195 42.0421 95.7526 41.7819 96.1736 41.593C96.5978 41.4041 97.0784 41.3096 97.6153 41.3096C98.371 41.3096 98.9643 41.4753 99.3952 41.8068C99.8293 42.1382 100.138 42.5757 100.32 43.1193Z" fill="#9291A5"/>
<path d="M163.536 197.265L180.775 182.095L187.327 154.512L196.636 165.545L225.942 140.031L235.941 94.1748L251.801 157.27L275.247 94.1748L282.142 168.648L291.451 137.273L306.622 162.097" stroke="#FF718B" stroke-width="3" stroke-linecap="round" stroke-linejoin="round"/>
<path d="M53.6934 145.245C51.485 145.245 49.5163 144.839 47.7871 144.026C46.0684 143.214 44.7038 142.094 43.6934 140.667C42.6829 139.24 42.1569 137.604 42.1152 135.761H48.6777C48.7507 137 49.2715 138.006 50.2402 138.776C51.209 139.547 52.36 139.933 53.6934 139.933C54.7559 139.933 55.6934 139.698 56.5059 139.229C57.3288 138.75 57.9694 138.089 58.4277 137.245C58.8965 136.391 59.1309 135.412 59.1309 134.308C59.1309 133.183 58.8913 132.193 58.4121 131.339C57.9434 130.485 57.2923 129.818 56.459 129.339C55.6257 128.86 54.6725 128.615 53.5996 128.604C52.6621 128.604 51.7507 128.797 50.8652 129.183C49.9902 129.568 49.3079 130.094 48.8184 130.761L42.8027 129.683L44.3184 112.808H63.8809V118.339H49.8965L49.0684 126.354H49.2559C49.8184 125.563 50.6673 124.907 51.8027 124.386C52.9382 123.865 54.209 123.604 55.6152 123.604C57.5423 123.604 59.2611 124.058 60.7715 124.964C62.2819 125.87 63.4746 127.115 64.3496 128.698C65.2246 130.271 65.6569 132.084 65.6465 134.136C65.6569 136.292 65.1569 138.209 64.1465 139.886C63.1465 141.552 61.7454 142.865 59.9434 143.823C58.1517 144.771 56.0684 145.245 53.6934 145.245ZM70.4277 144.808V120.808H76.7715V125.042H77.0527C77.5527 123.636 78.3861 122.526 79.5527 121.714C80.7194 120.901 82.1152 120.495 83.7402 120.495C85.3861 120.495 86.7871 120.907 87.9434 121.729C89.0996 122.542 89.8704 123.646 90.2559 125.042H90.5059C90.9954 123.667 91.8809 122.568 93.1621 121.745C94.4538 120.912 95.9798 120.495 97.7402 120.495C99.9798 120.495 101.798 121.209 103.193 122.636C104.6 124.052 105.303 126.063 105.303 128.667V144.808H98.6621V129.979C98.6621 128.646 98.3079 127.646 97.5996 126.979C96.8913 126.313 96.0059 125.979 94.9434 125.979C93.735 125.979 92.7923 126.365 92.1152 127.136C91.4382 127.896 91.0996 128.901 91.0996 130.151V144.808H84.6465V129.839C84.6465 128.662 84.3079 127.724 83.6309 127.026C82.9642 126.328 82.084 125.979 80.9902 125.979C80.2507 125.979 79.584 126.167 78.9902 126.542C78.4069 126.907 77.9434 127.422 77.5996 128.089C77.2559 128.745 77.084 129.516 77.084 130.401V144.808H70.4277ZM132.619 145.245C130.213 145.245 128.072 144.854 126.197 144.073C124.333 143.282 122.869 142.203 121.807 140.839C120.744 139.474 120.213 137.927 120.213 136.198C120.213 134.865 120.515 133.641 121.119 132.526C121.734 131.401 122.567 130.469 123.619 129.729C124.671 128.979 125.848 128.5 127.15 128.292V128.073C125.442 127.729 124.057 126.901 122.994 125.589C121.932 124.266 121.4 122.729 121.4 120.979C121.4 119.323 121.885 117.849 122.854 116.558C123.822 115.256 125.15 114.235 126.838 113.495C128.536 112.745 130.463 112.37 132.619 112.37C134.775 112.37 136.697 112.745 138.385 113.495C140.083 114.245 141.416 115.271 142.385 116.573C143.354 117.865 143.843 119.334 143.854 120.979C143.843 122.74 143.301 124.276 142.229 125.589C141.156 126.901 139.781 127.729 138.104 128.073V128.292C139.385 128.5 140.546 128.979 141.588 129.729C142.64 130.469 143.473 131.401 144.088 132.526C144.713 133.641 145.031 134.865 145.041 136.198C145.031 137.927 144.494 139.474 143.432 140.839C142.369 142.203 140.9 143.282 139.025 144.073C137.161 144.854 135.025 145.245 132.619 145.245ZM132.619 140.276C133.692 140.276 134.63 140.084 135.432 139.698C136.234 139.302 136.859 138.761 137.307 138.073C137.765 137.375 137.994 136.573 137.994 135.667C137.994 134.74 137.76 133.922 137.291 133.214C136.822 132.495 136.187 131.933 135.385 131.526C134.583 131.11 133.661 130.901 132.619 130.901C131.588 130.901 130.666 131.11 129.854 131.526C129.041 131.933 128.4 132.495 127.932 133.214C127.473 133.922 127.244 134.74 127.244 135.667C127.244 136.573 127.468 137.375 127.916 138.073C128.364 138.761 128.994 139.302 129.807 139.698C130.619 140.084 131.557 140.276 132.619 140.276ZM132.619 125.979C133.515 125.979 134.312 125.797 135.01 125.433C135.708 125.068 136.255 124.563 136.65 123.917C137.046 123.271 137.244 122.526 137.244 121.683C137.244 120.849 137.046 120.12 136.65 119.495C136.255 118.86 135.713 118.365 135.025 118.011C134.338 117.646 133.536 117.464 132.619 117.464C131.713 117.464 130.911 117.646 130.213 118.011C129.515 118.365 128.968 118.86 128.572 119.495C128.187 120.12 127.994 120.849 127.994 121.683C127.994 122.526 128.192 123.271 128.588 123.917C128.984 124.563 129.531 125.068 130.229 125.433C130.926 125.797 131.723 125.979 132.619 125.979ZM169.803 127.651L163.709 128.026C163.605 127.506 163.381 127.037 163.037 126.62C162.693 126.193 162.24 125.854 161.678 125.604C161.126 125.344 160.464 125.214 159.693 125.214C158.662 125.214 157.792 125.433 157.084 125.87C156.376 126.297 156.021 126.87 156.021 127.589C156.021 128.162 156.251 128.646 156.709 129.042C157.167 129.438 157.954 129.756 159.068 129.995L163.412 130.87C165.745 131.349 167.485 132.12 168.631 133.183C169.777 134.245 170.35 135.641 170.35 137.37C170.35 138.943 169.886 140.323 168.959 141.511C168.042 142.698 166.782 143.625 165.178 144.292C163.584 144.948 161.745 145.276 159.662 145.276C156.485 145.276 153.954 144.615 152.068 143.292C150.193 141.959 149.094 140.146 148.771 137.854L155.318 137.511C155.516 138.479 155.995 139.219 156.756 139.729C157.516 140.229 158.49 140.479 159.678 140.479C160.844 140.479 161.782 140.256 162.49 139.808C163.209 139.349 163.574 138.761 163.584 138.042C163.574 137.438 163.318 136.943 162.818 136.558C162.318 136.162 161.548 135.86 160.506 135.651L156.35 134.823C154.006 134.354 152.261 133.542 151.115 132.386C149.98 131.229 149.412 129.756 149.412 127.964C149.412 126.422 149.829 125.094 150.662 123.979C151.506 122.865 152.688 122.006 154.209 121.401C155.74 120.797 157.532 120.495 159.584 120.495C162.615 120.495 165.001 121.136 166.74 122.417C168.49 123.698 169.511 125.443 169.803 127.651Z" fill="#1E1B39"/>
<path d="M99.3514 166.212C100.144 165.418 100.903 164.658 101.662 163.896C102.312 163.246 102.962 162.598 103.612 161.95C103.824 161.739 104.081 161.673 104.37 161.758C104.659 161.844 104.831 162.049 104.895 162.339C104.956 162.62 104.849 162.852 104.651 163.051C103.75 163.952 102.85 164.853 101.95 165.754C101.283 166.421 100.615 167.088 99.9468 167.754C99.5805 168.117 99.1564 168.119 98.7916 167.759C98.2847 167.259 97.7811 166.756 97.281 166.248C97.2244 166.191 97.1887 166.114 97.1486 166.054L92.9358 170.27C92.9958 170.274 93.0536 170.28 93.1117 170.281C93.5991 170.281 94.0865 170.276 94.5739 170.284C94.896 170.289 95.1386 170.445 95.2709 170.738C95.3973 171.018 95.3553 171.289 95.1585 171.527C95.0879 171.616 94.9979 171.687 94.8955 171.735C94.7931 171.783 94.681 171.807 94.5679 171.805C93.4011 171.808 92.2313 171.81 91.063 171.804C90.6217 171.802 90.2952 171.466 90.2937 171.026C90.2899 169.864 90.2899 168.701 90.2937 167.539C90.2937 167.097 90.6397 166.752 91.0589 166.755C91.4781 166.759 91.8013 167.089 91.8088 167.532C91.8159 168.006 91.8107 168.481 91.8107 168.957V169.153L91.8789 169.198C91.9213 169.131 91.9687 169.067 92.0206 169.008C93.5124 167.513 95.0052 166.02 96.4992 164.527C96.8881 164.139 97.3084 164.139 97.6957 164.524C98.2043 165.03 98.7121 165.538 99.219 166.048C99.2625 166.092 99.2974 166.146 99.3514 166.212Z" fill="#FF718B"/>
<path d="M45.1812 166.07V167.363H40.667V166.07H45.1812ZM47.1437 171.808L51.5883 163.018V162.943H46.4477V161.626H53.1792V162.988L48.7496 171.808H47.1437ZM54.1574 171.902C53.8856 171.902 53.652 171.806 53.4564 171.614C53.2609 171.418 53.1631 171.183 53.1631 170.908C53.1631 170.636 53.2609 170.404 53.4564 170.212C53.652 170.016 53.8856 169.918 54.1574 169.918C54.4292 169.918 54.6628 170.016 54.8584 170.212C55.0539 170.404 55.1517 170.636 55.1517 170.908C55.1517 171.09 55.1053 171.257 55.0125 171.41C54.923 171.559 54.8037 171.678 54.6546 171.768C54.5054 171.857 54.3397 171.902 54.1574 171.902ZM60.3085 171.947C59.8544 171.94 59.407 171.857 58.9662 171.698C58.5287 171.539 58.1309 171.274 57.773 170.903C57.415 170.532 57.1283 170.033 56.9129 169.406C56.7008 168.78 56.5947 167.998 56.5947 167.06C56.5947 166.171 56.6826 165.383 56.8582 164.693C57.0372 164.004 57.2941 163.422 57.6288 162.948C57.9636 162.471 58.3679 162.108 58.8419 161.859C59.3158 161.611 59.8478 161.487 60.4378 161.487C61.0443 161.487 61.5829 161.606 62.0535 161.845C62.5242 162.083 62.9053 162.413 63.197 162.834C63.492 163.255 63.6792 163.734 63.7588 164.271H62.2425C62.1397 163.846 61.9359 163.5 61.6309 163.232C61.326 162.963 60.9283 162.829 60.4378 162.829C59.692 162.829 59.1104 163.154 58.6927 163.803C58.2784 164.453 58.0696 165.356 58.0663 166.513H58.1409C58.3166 166.225 58.532 165.979 58.7872 165.777C59.0457 165.572 59.3341 165.414 59.6523 165.305C59.9738 165.192 60.3118 165.136 60.6665 165.136C61.2564 165.136 61.79 165.28 62.2673 165.568C62.7479 165.853 63.1307 166.248 63.4157 166.752C63.7008 167.255 63.8433 167.832 63.8433 168.482C63.8433 169.131 63.6958 169.72 63.4008 170.247C63.1092 170.774 62.6982 171.191 62.1679 171.499C61.6376 171.804 61.0178 171.953 60.3085 171.947ZM60.3035 170.654C60.6946 170.654 61.0443 170.558 61.3525 170.366C61.6608 170.174 61.9044 169.915 62.0834 169.59C62.2623 169.265 62.3518 168.903 62.3518 168.502C62.3518 168.11 62.264 167.754 62.0883 167.433C61.916 167.111 61.6773 166.856 61.3724 166.667C61.0708 166.478 60.7261 166.384 60.3383 166.384C60.0434 166.384 59.7699 166.44 59.518 166.553C59.2694 166.665 59.0507 166.821 58.8618 167.02C58.6729 167.219 58.5237 167.448 58.4143 167.706C58.3083 167.961 58.2552 168.231 58.2552 168.516C58.2552 168.898 58.3431 169.251 58.5187 169.575C58.6977 169.9 58.9413 170.162 59.2496 170.361C59.5611 170.556 59.9124 170.654 60.3035 170.654ZM69.0399 161.487C69.4939 161.49 69.9414 161.573 70.3822 161.735C70.823 161.898 71.2207 162.163 71.5754 162.531C71.9333 162.899 72.2184 163.396 72.4305 164.022C72.6459 164.645 72.7553 165.421 72.7586 166.349C72.7586 167.24 72.6691 168.034 72.4901 168.73C72.3112 169.423 72.0543 170.008 71.7195 170.485C71.3881 170.962 70.9854 171.325 70.5115 171.574C70.0375 171.823 69.5039 171.947 68.9106 171.947C68.3041 171.947 67.7655 171.828 67.2948 171.589C66.8242 171.35 66.4414 171.02 66.1464 170.6C65.8514 170.175 65.6675 169.688 65.5945 169.138H67.1109C67.2103 169.575 67.4125 169.93 67.7174 170.202C68.0257 170.47 68.4234 170.604 68.9106 170.604C69.6563 170.604 70.238 170.28 70.6556 169.63C71.0732 168.977 71.2837 168.066 71.287 166.896H71.2075C71.0351 167.181 70.8197 167.426 70.5612 167.631C70.306 167.837 70.0193 167.996 69.7011 168.109C69.3829 168.221 69.0432 168.278 68.6819 168.278C68.0953 168.278 67.5616 168.134 67.0811 167.845C66.6005 167.557 66.2177 167.161 65.9326 166.657C65.6476 166.153 65.5051 165.578 65.5051 164.932C65.5051 164.289 65.6509 163.706 65.9426 163.182C66.2375 162.658 66.6485 162.244 67.1755 161.939C67.7058 161.631 68.3273 161.48 69.0399 161.487ZM69.0448 162.779C68.657 162.779 68.3074 162.875 67.9958 163.068C67.6876 163.256 67.444 163.513 67.265 163.838C67.086 164.16 66.9965 164.518 66.9965 164.912C66.9965 165.306 67.0827 165.664 67.2551 165.986C67.4307 166.304 67.6694 166.558 67.971 166.747C68.2759 166.932 68.6239 167.025 69.015 167.025C69.3067 167.025 69.5785 166.969 69.8303 166.856C70.0822 166.743 70.3026 166.587 70.4916 166.389C70.6805 166.186 70.828 165.958 70.934 165.703C71.0401 165.447 71.0931 165.179 71.0931 164.897C71.0931 164.523 71.0036 164.175 70.8247 163.853C70.649 163.532 70.407 163.273 70.0988 163.078C69.7906 162.879 69.4392 162.779 69.0448 162.779ZM79.8692 169.899V169.362C79.8692 168.977 79.9488 168.626 80.1079 168.308C80.2703 167.986 80.5056 167.729 80.8138 167.537C81.1254 167.341 81.5016 167.244 81.9424 167.244C82.3931 167.244 82.771 167.34 83.0759 167.532C83.3808 167.724 83.6112 167.981 83.767 168.303C83.926 168.624 84.0056 168.977 84.0056 169.362V169.899C84.0056 170.283 83.926 170.636 83.767 170.957C83.6079 171.276 83.3742 171.533 83.066 171.728C82.761 171.92 82.3865 172.016 81.9424 172.016C81.4949 172.016 81.1171 171.92 80.8089 171.728C80.5006 171.533 80.267 171.276 80.1079 170.957C79.9488 170.636 79.8692 170.283 79.8692 169.899ZM81.0276 169.362V169.899C81.0276 170.184 81.0956 170.442 81.2314 170.674C81.3673 170.906 81.6043 171.022 81.9424 171.022C82.2771 171.022 82.5108 170.906 82.6434 170.674C82.776 170.442 82.8422 170.184 82.8422 169.899V169.362C82.8422 169.077 82.7776 168.818 82.6483 168.586C82.5224 168.354 82.2871 168.238 81.9424 168.238C81.6109 168.238 81.3756 168.354 81.2364 168.586C81.0972 168.818 81.0276 169.077 81.0276 169.362ZM74.7485 164.072V163.535C74.7485 163.15 74.828 162.797 74.9871 162.476C75.1495 162.154 75.3849 161.898 75.6931 161.705C76.0046 161.513 76.3808 161.417 76.8216 161.417C77.2724 161.417 77.6502 161.513 77.9552 161.705C78.2601 161.898 78.4904 162.154 78.6462 162.476C78.802 162.797 78.8799 163.15 78.8799 163.535V164.072C78.8799 164.456 78.8003 164.809 78.6412 165.131C78.4855 165.449 78.2535 165.706 77.9452 165.901C77.6403 166.094 77.2658 166.19 76.8216 166.19C76.3709 166.19 75.9914 166.094 75.6831 165.901C75.3782 165.706 75.1462 165.449 74.9871 165.131C74.828 164.809 74.7485 164.456 74.7485 164.072ZM75.9118 163.535V164.072C75.9118 164.357 75.9781 164.615 76.1107 164.847C76.2466 165.079 76.4836 165.195 76.8216 165.195C77.1531 165.195 77.3851 165.079 77.5177 164.847C77.6536 164.615 77.7215 164.357 77.7215 164.072V163.535C77.7215 163.25 77.6569 162.991 77.5276 162.759C77.3983 162.527 77.163 162.411 76.8216 162.411C76.4902 162.411 76.2549 162.527 76.1157 162.759C75.9798 162.991 75.9118 163.25 75.9118 163.535ZM75.2208 171.808L82.2208 161.626H83.409L76.409 171.808H75.2208Z" fill="#FF718B"/>
<defs>
<filter id="filter0_d_143_1075" x="0.623047" y="0.0454102" width="344" height="237.22" filterUnits="userSpaceOnUse" color-interpolation-filters="sRGB">
<feFlood flood-opacity="0" result="BackgroundImageFix"/>
<feColorMatrix in="SourceAlpha" type="matrix" values="0 0 0 0 0 0 0 0 0 0 0 0 0 0 0 0 0 0 127 0" result="hardAlpha"/>
<feOffset dy="2"/>
<feGaussianBlur stdDeviation="3"/>
<feComposite in2="hardAlpha" operator="out"/>
<feColorMatrix type="matrix" values="0 0 0 0 0.0509804 0 0 0 0 0.0392157 0 0 0 0 0.172549 0 0 0 0.08 0"/>
<feBlend mode="normal" in2="BackgroundImageFix" result="effect1_dropShadow_143_1075"/>
<feBlend mode="normal" in="SourceGraphic" in2="effect1_dropShadow_143_1075" result="shape"/>
</filter>
</defs>
</svg>
