<svg width="345" height="238" viewBox="0 0 345 238" fill="none" xmlns="http://www.w3.org/2000/svg">
<g filter="url(#filter0_d_143_1074)">
<rect x="6.55664" y="4.04541" width="332" height="225.22" rx="20" fill="white"/>
</g>
<path d="M161.674 197.265L181.44 186.121L187.748 168.037L196.79 176.448L223.496 80.3499L238.636 152.055L253.145 119.672L273.543 168.037L283.636 153.317L291.627 158.995L306.556 125.77" stroke="#04CE00" stroke-width="3" stroke-linecap="round" stroke-linejoin="round"/>
<path d="M54.3389 145.245C52.0055 145.245 49.9274 144.844 48.1045 144.042C46.292 143.229 44.8597 142.115 43.8076 140.698C42.766 139.271 42.2295 137.625 42.1982 135.761H49.0107C49.0524 136.542 49.3076 137.229 49.7764 137.823C50.2555 138.407 50.891 138.86 51.6826 139.183C52.4743 139.506 53.3649 139.667 54.3545 139.667C55.3857 139.667 56.2972 139.485 57.0889 139.12C57.8805 138.756 58.5003 138.25 58.9482 137.604C59.3962 136.959 59.6201 136.214 59.6201 135.37C59.6201 134.516 59.3805 133.761 58.9014 133.104C58.4326 132.438 57.7555 131.917 56.8701 131.542C55.9951 131.167 54.9535 130.979 53.7451 130.979H50.7607V126.011H53.7451C54.766 126.011 55.667 125.834 56.4482 125.479C57.2399 125.125 57.8545 124.636 58.292 124.011C58.7295 123.375 58.9482 122.636 58.9482 121.792C58.9482 120.99 58.7555 120.287 58.3701 119.683C57.9951 119.068 57.4639 118.589 56.7764 118.245C56.0993 117.901 55.3076 117.729 54.4014 117.729C53.4847 117.729 52.6462 117.896 51.8857 118.229C51.1253 118.552 50.516 119.016 50.0576 119.62C49.5993 120.224 49.3545 120.933 49.3232 121.745H42.8389C42.8701 119.901 43.3962 118.276 44.417 116.87C45.4378 115.464 46.8128 114.365 48.542 113.573C50.2816 112.771 52.2451 112.37 54.4326 112.37C56.641 112.37 58.5732 112.771 60.2295 113.573C61.8857 114.375 63.1722 115.459 64.0889 116.823C65.016 118.177 65.4743 119.698 65.4639 121.386C65.4743 123.177 64.917 124.672 63.792 125.87C62.6774 127.068 61.2243 127.828 59.4326 128.151V128.401C61.7868 128.703 63.5785 129.521 64.8076 130.854C66.0472 132.177 66.6618 133.834 66.6514 135.823C66.6618 137.646 66.1357 139.266 65.0732 140.683C64.0212 142.099 62.568 143.214 60.7139 144.026C58.8597 144.839 56.7347 145.245 54.3389 145.245ZM71.5146 144.808V139.933L82.9053 129.386C83.874 128.448 84.6865 127.604 85.3428 126.854C86.0094 126.104 86.5146 125.37 86.8584 124.651C87.2021 123.922 87.374 123.136 87.374 122.292C87.374 121.354 87.1605 120.547 86.7334 119.87C86.3063 119.183 85.723 118.657 84.9834 118.292C84.2438 117.917 83.4053 117.729 82.4678 117.729C81.4886 117.729 80.6344 117.927 79.9053 118.323C79.1761 118.719 78.6136 119.287 78.2178 120.026C77.8219 120.766 77.624 121.646 77.624 122.667H71.2021C71.2021 120.573 71.6761 118.756 72.624 117.214C73.5719 115.672 74.9001 114.479 76.6084 113.636C78.3167 112.792 80.2855 112.37 82.5146 112.37C84.8063 112.37 86.8011 112.776 88.499 113.589C90.2074 114.391 91.5355 115.506 92.4834 116.933C93.4313 118.36 93.9053 119.995 93.9053 121.839C93.9053 123.047 93.6657 124.24 93.1865 125.417C92.7178 126.594 91.8792 127.901 90.6709 129.339C89.4626 130.766 87.7594 132.479 85.5615 134.479L80.8896 139.058V139.276H94.3272V144.808H71.5146ZM110.917 145.245C108.709 145.245 106.74 144.839 105.011 144.026C103.292 143.214 101.927 142.094 100.917 140.667C99.9066 139.24 99.3805 137.604 99.3389 135.761H105.901C105.974 137 106.495 138.006 107.464 138.776C108.433 139.547 109.584 139.933 110.917 139.933C111.979 139.933 112.917 139.698 113.729 139.229C114.552 138.75 115.193 138.089 115.651 137.245C116.12 136.391 116.354 135.412 116.354 134.308C116.354 133.183 116.115 132.193 115.636 131.339C115.167 130.485 114.516 129.818 113.683 129.339C112.849 128.86 111.896 128.615 110.823 128.604C109.886 128.604 108.974 128.797 108.089 129.183C107.214 129.568 106.532 130.094 106.042 130.761L100.026 129.683L101.542 112.808H121.104V118.339H107.12L106.292 126.354H106.479C107.042 125.563 107.891 124.907 109.026 124.386C110.162 123.865 111.433 123.604 112.839 123.604C114.766 123.604 116.485 124.058 117.995 124.964C119.506 125.87 120.698 127.115 121.573 128.698C122.448 130.271 122.881 132.084 122.87 134.136C122.881 136.292 122.381 138.209 121.37 139.886C120.37 141.552 118.969 142.865 117.167 143.823C115.375 144.771 113.292 145.245 110.917 145.245ZM133.683 137.901L133.698 129.917H134.667L142.354 120.808H149.995L139.667 132.87H138.089L133.683 137.901ZM127.651 144.808V112.808H134.308V144.808H127.651ZM142.651 144.808L135.589 134.354L140.026 129.651L150.448 144.808H142.651Z" fill="#1E1B39"/>
<path d="M107.748 167.317C106.955 168.112 106.197 168.872 105.437 169.633C104.788 170.283 104.138 170.932 103.488 171.58C103.275 171.791 103.019 171.856 102.73 171.771C102.441 171.686 102.269 171.481 102.205 171.191C102.143 170.909 102.251 170.678 102.448 170.479C103.349 169.578 104.25 168.677 105.15 167.776C105.817 167.109 106.485 166.442 107.153 165.776C107.519 165.412 107.943 165.41 108.308 165.77C108.815 166.27 109.318 166.774 109.819 167.281C109.875 167.338 109.911 167.416 109.951 167.476L114.164 163.259C114.104 163.256 114.046 163.249 113.988 163.249C113.501 163.249 113.013 163.254 112.526 163.246C112.204 163.241 111.961 163.085 111.829 162.792C111.702 162.512 111.744 162.241 111.941 162.002C112.012 161.914 112.102 161.843 112.204 161.795C112.306 161.747 112.419 161.723 112.532 161.725C113.698 161.722 114.868 161.72 116.037 161.726C116.478 161.728 116.804 162.063 116.806 162.504C116.81 163.666 116.81 164.829 116.806 165.991C116.806 166.433 116.46 166.778 116.041 166.775C115.622 166.771 115.298 166.441 115.291 165.998C115.284 165.523 115.289 165.048 115.289 164.573V164.376L115.221 164.332C115.178 164.399 115.131 164.463 115.079 164.522C113.587 166.017 112.094 167.51 110.6 169.002C110.212 169.39 109.791 169.391 109.404 169.006C108.895 168.499 108.387 167.991 107.881 167.482C107.837 167.438 107.802 167.384 107.748 167.317Z" fill="#04CE00"/>
<path d="M44.1797 170.097V163.376H45.517V170.097H44.1797ZM41.4901 167.403V166.07H48.2116V167.403H41.4901ZM54.354 161.626V171.808H52.8129V163.167H52.7532L50.3171 164.758V163.286L52.8576 161.626H54.354ZM60.5487 171.947C59.8361 171.947 59.2063 171.824 58.6594 171.579C58.1159 171.334 57.69 170.996 57.3817 170.565C57.0735 170.134 56.921 169.643 56.9244 169.093C56.921 168.662 57.0089 168.266 57.1879 167.905C57.3701 167.54 57.6171 167.237 57.9286 166.995C58.2402 166.75 58.5882 166.594 58.9727 166.528V166.468C58.4656 166.345 58.0595 166.074 57.7546 165.653C57.4497 165.232 57.2989 164.748 57.3022 164.201C57.2989 163.681 57.4364 163.217 57.7148 162.809C57.9966 162.398 58.3827 162.075 58.8732 161.84C59.3638 161.604 59.9222 161.487 60.5487 161.487C61.1684 161.487 61.7219 161.606 62.2092 161.845C62.6997 162.08 63.0858 162.403 63.3675 162.814C63.6493 163.222 63.7918 163.684 63.7951 164.201C63.7918 164.748 63.636 165.232 63.3278 165.653C63.0195 166.074 62.6185 166.345 62.1246 166.468V166.528C62.5058 166.594 62.8488 166.75 63.1538 166.995C63.462 167.237 63.7073 167.54 63.8896 167.905C64.0752 168.266 64.1696 168.662 64.1729 169.093C64.1696 169.643 64.0138 170.134 63.7056 170.565C63.3974 170.996 62.9698 171.334 62.4229 171.579C61.8794 171.824 61.2546 171.947 60.5487 171.947ZM60.5487 170.689C60.9696 170.689 61.3342 170.619 61.6424 170.48C61.9506 170.338 62.1893 170.14 62.3583 169.889C62.5273 169.633 62.6135 169.335 62.6168 168.994C62.6135 168.639 62.5207 168.326 62.3384 168.054C62.1594 167.782 61.9158 167.569 61.6076 167.413C61.2994 167.257 60.9464 167.179 60.5487 167.179C60.1476 167.179 59.7913 167.257 59.4798 167.413C59.1682 167.569 58.9229 167.782 58.744 168.054C58.565 168.326 58.4772 168.639 58.4805 168.994C58.4772 169.335 58.5584 169.633 58.7241 169.889C58.8931 170.14 59.1334 170.338 59.445 170.48C59.7565 170.619 60.1244 170.689 60.5487 170.689ZM60.5487 165.951C60.8867 165.951 61.1867 165.883 61.4485 165.747C61.7103 165.611 61.9158 165.422 62.065 165.18C62.2174 164.939 62.2953 164.655 62.2987 164.33C62.2953 164.012 62.2191 163.734 62.07 163.495C61.9241 163.256 61.7203 163.073 61.4585 162.943C61.1966 162.811 60.8933 162.744 60.5487 162.744C60.1973 162.744 59.8891 162.811 59.6239 162.943C59.3621 163.073 59.1583 163.256 59.0124 163.495C58.8666 163.734 58.7953 164.012 58.7987 164.33C58.7953 164.655 58.8683 164.939 59.0174 165.18C59.1665 165.422 59.372 165.611 59.6339 165.747C59.899 165.883 60.204 165.951 60.5487 165.951ZM66.6525 171.902C66.3807 171.902 66.1471 171.806 65.9515 171.614C65.756 171.418 65.6582 171.183 65.6582 170.908C65.6582 170.636 65.756 170.404 65.9515 170.212C66.1471 170.016 66.3807 169.918 66.6525 169.918C66.9243 169.918 67.158 170.016 67.3535 170.212C67.5491 170.404 67.6468 170.636 67.6468 170.908C67.6468 171.09 67.6004 171.257 67.5076 171.41C67.4181 171.559 67.2988 171.678 67.1497 171.768C67.0005 171.857 66.8348 171.902 66.6525 171.902ZM72.7937 171.947C72.1109 171.947 71.5011 171.829 70.9641 171.594C70.4305 171.359 70.0079 171.032 69.6964 170.614C69.3881 170.194 69.2224 169.706 69.1992 169.153H70.7603C70.7802 169.454 70.8813 169.716 71.0636 169.938C71.2492 170.157 71.4911 170.326 71.7894 170.445C72.0877 170.565 72.4192 170.624 72.7837 170.624C73.1848 170.624 73.5394 170.555 73.8477 170.416C74.1592 170.276 74.4028 170.082 74.5785 169.834C74.7541 169.582 74.842 169.292 74.842 168.964C74.842 168.622 74.7541 168.323 74.5785 168.064C74.4061 167.802 74.1526 167.597 73.8178 167.448C73.4864 167.298 73.0853 167.224 72.6147 167.224H71.7546V165.971H72.6147C72.9925 165.971 73.324 165.903 73.609 165.767C73.8974 165.631 74.1228 165.442 74.2852 165.2C74.4476 164.955 74.5288 164.668 74.5288 164.34C74.5288 164.025 74.4575 163.752 74.315 163.52C74.1758 163.285 73.9769 163.101 73.7184 162.968C73.4632 162.836 73.1616 162.769 72.8136 162.769C72.4821 162.769 72.1722 162.831 71.8839 162.953C71.5988 163.073 71.3668 163.245 71.1879 163.47C71.0089 163.692 70.9128 163.959 70.8995 164.271H69.413C69.4296 163.72 69.592 163.237 69.9002 162.819C70.2118 162.401 70.6228 162.075 71.1332 161.84C71.6436 161.604 72.2103 161.487 72.8335 161.487C73.4864 161.487 74.0498 161.614 74.5238 161.869C75.0011 162.121 75.369 162.458 75.6275 162.879C75.8893 163.3 76.0186 163.76 76.0153 164.261C76.0186 164.831 75.8595 165.315 75.538 165.712C75.2198 166.11 74.7956 166.377 74.2653 166.513V166.592C74.9414 166.695 75.4651 166.964 75.8363 167.398C76.2108 167.832 76.3964 168.371 76.3931 169.014C76.3964 169.574 76.2406 170.076 75.9258 170.52C75.6142 170.964 75.1883 171.314 74.6481 171.569C74.1078 171.821 73.4897 171.947 72.7937 171.947ZM78.0586 169.819V168.576L82.4585 161.626H83.4379V163.455H82.8164L79.6694 168.437V168.516H85.6999V169.819H78.0586ZM82.886 171.808V169.441L82.896 168.874V161.626H84.3526V171.808H82.886ZM92.7472 169.899V169.362C92.7472 168.977 92.8267 168.626 92.9858 168.308C93.1482 167.986 93.3835 167.729 93.6918 167.537C94.0033 167.341 94.3795 167.244 94.8203 167.244C95.2711 167.244 95.6489 167.34 95.9538 167.532C96.2588 167.724 96.4891 167.981 96.6449 168.303C96.804 168.624 96.8835 168.977 96.8835 169.362V169.899C96.8835 170.283 96.804 170.636 96.6449 170.957C96.4858 171.276 96.2521 171.533 95.9439 171.728C95.639 171.92 95.2644 172.016 94.8203 172.016C94.3729 172.016 93.995 171.92 93.6868 171.728C93.3786 171.533 93.1449 171.276 92.9858 170.957C92.8267 170.636 92.7472 170.283 92.7472 169.899ZM93.9055 169.362V169.899C93.9055 170.184 93.9735 170.442 94.1094 170.674C94.2453 170.906 94.4822 171.022 94.8203 171.022C95.1551 171.022 95.3887 170.906 95.5213 170.674C95.6539 170.442 95.7202 170.184 95.7202 169.899V169.362C95.7202 169.077 95.6555 168.818 95.5263 168.586C95.4003 168.354 95.165 168.238 94.8203 168.238C94.4889 168.238 94.2536 168.354 94.1143 168.586C93.9751 168.818 93.9055 169.077 93.9055 169.362ZM87.6264 164.072V163.535C87.6264 163.15 87.706 162.797 87.8651 162.476C88.0275 162.154 88.2628 161.898 88.571 161.705C88.8826 161.513 89.2588 161.417 89.6996 161.417C90.1503 161.417 90.5282 161.513 90.8331 161.705C91.138 161.898 91.3684 162.154 91.5241 162.476C91.6799 162.797 91.7578 163.15 91.7578 163.535V164.072C91.7578 164.456 91.6783 164.809 91.5192 165.131C91.3634 165.449 91.1314 165.706 90.8232 165.901C90.5182 166.094 90.1437 166.19 89.6996 166.19C89.2488 166.19 88.8693 166.094 88.5611 165.901C88.2562 165.706 88.0241 165.449 87.8651 165.131C87.706 164.809 87.6264 164.456 87.6264 164.072ZM88.7898 163.535V164.072C88.7898 164.357 88.8561 164.615 88.9886 164.847C89.1245 165.079 89.3615 165.195 89.6996 165.195C90.031 165.195 90.263 165.079 90.3956 164.847C90.5315 164.615 90.5994 164.357 90.5994 164.072V163.535C90.5994 163.25 90.5348 162.991 90.4055 162.759C90.2763 162.527 90.041 162.411 89.6996 162.411C89.3681 162.411 89.1328 162.527 88.9936 162.759C88.8577 162.991 88.7898 163.25 88.7898 163.535ZM88.0987 171.808L95.0987 161.626H96.2869L89.2869 171.808H88.0987Z" fill="#04CE00"/>
<path d="M40.5562 64.2365V61.9545H51.3076V64.2365H47.2998V75.0454H44.564V64.2365H40.5562ZM56.0393 75.2372C55.0464 75.2372 54.1878 75.0262 53.4633 74.6044C52.7432 74.1782 52.1871 73.5859 51.795 72.8274C51.403 72.0646 51.2069 71.1804 51.2069 70.1747C51.2069 69.1605 51.403 68.2741 51.795 67.5156C52.1871 66.7528 52.7432 66.1605 53.4633 65.7386C54.1878 65.3125 55.0464 65.0994 56.0393 65.0994C57.0322 65.0994 57.8888 65.3125 58.6089 65.7386C59.3334 66.1605 59.8916 66.7528 60.2836 67.5156C60.6757 68.2741 60.8717 69.1605 60.8717 70.1747C60.8717 71.1804 60.6757 72.0646 60.2836 72.8274C59.8916 73.5859 59.3334 74.1782 58.6089 74.6044C57.8888 75.0262 57.0322 75.2372 56.0393 75.2372ZM56.0521 73.1278C56.5038 73.1278 56.8809 73 57.1835 72.7443C57.4861 72.4843 57.714 72.1306 57.8675 71.6832C58.0251 71.2358 58.104 70.7265 58.104 70.1555C58.104 69.5845 58.0251 69.0752 57.8675 68.6278C57.714 68.1804 57.4861 67.8267 57.1835 67.5667C56.8809 67.3068 56.5038 67.1768 56.0521 67.1768C55.5961 67.1768 55.2126 67.3068 54.9015 67.5667C54.5947 67.8267 54.3625 68.1804 54.2048 68.6278C54.0514 69.0752 53.9747 69.5845 53.9747 70.1555C53.9747 70.7265 54.0514 71.2358 54.2048 71.6832C54.3625 72.1306 54.5947 72.4843 54.9015 72.7443C55.2126 73 55.5961 73.1278 56.0521 73.1278ZM67.8646 65.2272V67.2727H61.952V65.2272H67.8646ZM63.2943 62.875H66.0173V72.0284C66.0173 72.2798 66.0557 72.4758 66.1324 72.6164C66.2091 72.7528 66.3156 72.8487 66.452 72.9041C66.5926 72.9595 66.7545 72.9872 66.9378 72.9872C67.0656 72.9872 67.1934 72.9765 67.3213 72.9552C67.4491 72.9296 67.5471 72.9105 67.6153 72.8977L68.0436 74.924C67.9072 74.9666 67.7155 75.0156 67.4683 75.071C67.2211 75.1306 66.9207 75.1669 66.567 75.1796C65.9108 75.2052 65.3355 75.1179 64.8412 74.9176C64.3511 74.7173 63.9697 74.4062 63.697 73.9843C63.4243 73.5625 63.29 73.0298 63.2943 72.3863V62.875ZM72.4381 75.2308C71.8117 75.2308 71.2535 75.1221 70.7634 74.9048C70.2733 74.6832 69.8856 74.3572 69.6001 73.9268C69.3188 73.4921 69.1782 72.9509 69.1782 72.3032C69.1782 71.7578 69.2783 71.2997 69.4786 70.9289C69.6789 70.5582 69.9516 70.2599 70.2968 70.034C70.642 69.8082 71.034 69.6377 71.4729 69.5227C71.9161 69.4076 72.3806 69.3267 72.8664 69.2798C73.4374 69.2201 73.8976 69.1647 74.2471 69.1136C74.5965 69.0582 74.8501 68.9772 75.0077 68.8707C75.1654 68.7642 75.2442 68.6065 75.2442 68.3977V68.3593C75.2442 67.9545 75.1164 67.6413 74.8607 67.4197C74.6093 67.1981 74.2513 67.0873 73.7868 67.0873C73.2968 67.0873 72.9069 67.196 72.6171 67.4133C72.3273 67.6264 72.1356 67.8948 72.0418 68.2187L69.5233 68.0142C69.6512 67.4176 69.9026 66.9019 70.2776 66.4673C70.6526 66.0284 71.1363 65.6917 71.7286 65.4573C72.3252 65.2187 73.0155 65.0994 73.7996 65.0994C74.3451 65.0994 74.8671 65.1633 75.3657 65.2911C75.8685 65.419 76.3138 65.6171 76.7016 65.8856C77.0937 66.1541 77.4026 66.4992 77.6285 66.9211C77.8543 67.3387 77.9672 67.8394 77.9672 68.4233V75.0454H75.3849V73.6839H75.3082C75.1505 73.9907 74.9395 74.2613 74.6753 74.4957C74.4111 74.7258 74.0937 74.9069 73.7229 75.039C73.3522 75.1669 72.9239 75.2308 72.4381 75.2308ZM73.218 73.3515C73.6185 73.3515 73.9722 73.2727 74.279 73.115C74.5858 72.9531 74.8266 72.7358 75.0013 72.463C75.176 72.1903 75.2634 71.8813 75.2634 71.5362V70.4943C75.1782 70.5497 75.061 70.6008 74.9118 70.6477C74.767 70.6903 74.6029 70.7308 74.4197 70.7691C74.2364 70.8032 74.0532 70.8352 73.8699 70.865C73.6867 70.8906 73.5205 70.914 73.3714 70.9353C73.0518 70.9822 72.7726 71.0568 72.534 71.159C72.2954 71.2613 72.11 71.3998 71.9779 71.5745C71.8458 71.745 71.7797 71.9581 71.7797 72.2137C71.7797 72.5845 71.914 72.8679 72.1824 73.0639C72.4552 73.2556 72.8003 73.3515 73.218 73.3515ZM82.8028 61.9545V75.0454H80.0798V61.9545H82.8028ZM98.3035 65.2272L94.871 75.0454H91.8028L88.3703 65.2272H91.2467L93.2858 72.2521H93.3881L95.4207 65.2272H98.3035ZM99.697 75.0454V65.2272H102.42V75.0454H99.697ZM101.065 63.9616C100.66 63.9616 100.313 63.8274 100.023 63.5589C99.7375 63.2862 99.5947 62.9602 99.5947 62.5809C99.5947 62.2059 99.7375 61.8842 100.023 61.6157C100.313 61.343 100.66 61.2066 101.065 61.2066C101.47 61.2066 101.815 61.343 102.1 61.6157C102.39 61.8842 102.535 62.2059 102.535 62.5809C102.535 62.9602 102.39 63.2862 102.1 63.5589C101.815 63.8274 101.47 63.9616 101.065 63.9616ZM112.77 68.0269L110.277 68.1804C110.235 67.9673 110.143 67.7755 110.003 67.6051C109.862 67.4304 109.677 67.2919 109.446 67.1896C109.221 67.0831 108.95 67.0298 108.635 67.0298C108.213 67.0298 107.857 67.1193 107.567 67.2983C107.277 67.473 107.133 67.7073 107.133 68.0014C107.133 68.2358 107.226 68.4339 107.414 68.5958C107.601 68.7578 107.923 68.8877 108.379 68.9858L110.156 69.3437C111.111 69.5397 111.822 69.8551 112.291 70.2897C112.76 70.7244 112.994 71.2954 112.994 72.0028C112.994 72.6463 112.804 73.2109 112.425 73.6967C112.05 74.1825 111.535 74.5617 110.878 74.8345C110.226 75.1029 109.474 75.2372 108.622 75.2372C107.322 75.2372 106.287 74.9666 105.515 74.4254C104.748 73.8799 104.299 73.1384 104.167 72.2009L106.845 72.0603C106.926 72.4566 107.122 72.7592 107.433 72.968C107.744 73.1725 108.142 73.2748 108.628 73.2748C109.106 73.2748 109.489 73.1832 109.779 73C110.073 72.8125 110.222 72.5717 110.226 72.2777C110.222 72.0305 110.118 71.8281 109.913 71.6704C109.709 71.5085 109.393 71.3849 108.967 71.2997L107.267 70.9609C106.308 70.7691 105.594 70.4367 105.125 69.9637C104.661 69.4907 104.429 68.8877 104.429 68.1548C104.429 67.5241 104.599 66.9808 104.94 66.5248C105.285 66.0688 105.769 65.7173 106.391 65.4701C107.017 65.223 107.75 65.0994 108.59 65.0994C109.83 65.0994 110.806 65.3615 111.517 65.8856C112.233 66.4098 112.651 67.1235 112.77 68.0269ZM114.709 75.0454V65.2272H117.432V75.0454H114.709ZM116.077 63.9616C115.672 63.9616 115.324 63.8274 115.035 63.5589C114.749 63.2862 114.606 62.9602 114.606 62.5809C114.606 62.2059 114.749 61.8842 115.035 61.6157C115.324 61.343 115.672 61.2066 116.077 61.2066C116.481 61.2066 116.827 61.343 117.112 61.6157C117.402 61.8842 117.547 62.2059 117.547 62.5809C117.547 62.9602 117.402 63.2862 117.112 63.5589C116.827 63.8274 116.481 63.9616 116.077 63.9616ZM124.835 65.2272V67.2727H118.923V65.2272H124.835ZM120.265 62.875H122.988V72.0284C122.988 72.2798 123.026 72.4758 123.103 72.6164C123.18 72.7528 123.286 72.8487 123.423 72.9041C123.563 72.9595 123.725 72.9872 123.908 72.9872C124.036 72.9872 124.164 72.9765 124.292 72.9552C124.42 72.9296 124.518 72.9105 124.586 72.8977L125.014 74.924C124.878 74.9666 124.686 75.0156 124.439 75.071C124.192 75.1306 123.891 75.1669 123.538 75.1796C122.881 75.2052 122.306 75.1179 121.812 74.9176C121.322 74.7173 120.94 74.4062 120.668 73.9843C120.395 73.5625 120.261 73.0298 120.265 72.3863V62.875ZM134.655 68.0269L132.162 68.1804C132.12 67.9673 132.028 67.7755 131.887 67.6051C131.747 67.4304 131.561 67.2919 131.331 67.1896C131.105 67.0831 130.835 67.0298 130.519 67.0298C130.098 67.0298 129.742 67.1193 129.452 67.2983C129.162 67.473 129.017 67.7073 129.017 68.0014C129.017 68.2358 129.111 68.4339 129.299 68.5958C129.486 68.7578 129.808 68.8877 130.264 68.9858L132.041 69.3437C132.995 69.5397 133.707 69.8551 134.176 70.2897C134.644 70.7244 134.879 71.2954 134.879 72.0028C134.879 72.6463 134.689 73.2109 134.31 73.6967C133.935 74.1825 133.419 74.5617 132.763 74.8345C132.111 75.1029 131.359 75.2372 130.507 75.2372C129.207 75.2372 128.171 74.9666 127.4 74.4254C126.633 73.8799 126.184 73.1384 126.051 72.2009L128.73 72.0603C128.811 72.4566 129.007 72.7592 129.318 72.968C129.629 73.1725 130.027 73.2748 130.513 73.2748C130.99 73.2748 131.374 73.1832 131.664 73C131.958 72.8125 132.107 72.5717 132.111 72.2777C132.107 72.0305 132.002 71.8281 131.798 71.6704C131.593 71.5085 131.278 71.3849 130.852 71.2997L129.152 70.9609C128.193 70.7691 127.479 70.4367 127.01 69.9637C126.546 69.4907 126.313 68.8877 126.313 68.1548C126.313 67.5241 126.484 66.9808 126.825 66.5248C127.17 66.0688 127.654 65.7173 128.276 65.4701C128.902 65.223 129.635 65.0994 130.475 65.0994C131.715 65.0994 132.691 65.3615 133.402 65.8856C134.118 66.4098 134.536 67.1235 134.655 68.0269Z" fill="#1E1B39"/>
<path d="M46.7181 41.409C46.6585 40.9053 46.4165 40.5142 45.9923 40.2358C45.568 39.9573 45.0477 39.8181 44.4312 39.8181C43.9804 39.8181 43.586 39.8911 43.248 40.0369C42.9132 40.1827 42.6514 40.3832 42.4624 40.6384C42.2768 40.8937 42.184 41.1837 42.184 41.5085C42.184 41.7803 42.2487 42.0139 42.3779 42.2095C42.5105 42.4017 42.6795 42.5625 42.885 42.6917C43.0905 42.8177 43.306 42.9221 43.5313 43.0049C43.7567 43.0845 43.9639 43.1491 44.1528 43.1988L45.1869 43.4772C45.452 43.5468 45.747 43.6429 46.0718 43.7656C46.3999 43.8882 46.7132 44.0556 47.0115 44.2677C47.3131 44.4765 47.5616 44.745 47.7572 45.0731C47.9527 45.4012 48.0505 45.8039 48.0505 46.2812C48.0505 46.8314 47.9063 47.3286 47.618 47.7727C47.3329 48.2168 46.9153 48.5698 46.3651 48.8316C45.8183 49.0935 45.1537 49.2244 44.3715 49.2244C43.6424 49.2244 43.011 49.1067 42.4774 48.8714C41.9471 48.6361 41.5294 48.308 41.2245 47.887C40.9229 47.4661 40.7522 46.9772 40.7124 46.4204H41.9852C42.0183 46.8049 42.1476 47.1231 42.373 47.375C42.6017 47.6235 42.89 47.8091 43.238 47.9318C43.5893 48.0511 43.9672 48.1108 44.3715 48.1108C44.8422 48.1108 45.2648 48.0345 45.6393 47.8821C46.0138 47.7263 46.3105 47.5108 46.5292 47.2358C46.748 46.9573 46.8573 46.6325 46.8573 46.2613C46.8573 45.9233 46.7629 45.6482 46.574 45.436C46.385 45.2239 46.1365 45.0516 45.8282 44.919C45.52 44.7864 45.1869 44.6704 44.8289 44.571L43.5761 44.213C42.7806 43.9843 42.1509 43.6579 41.6869 43.2336C41.2229 42.8094 40.9909 42.2542 40.9909 41.5681C40.9909 40.9981 41.145 40.5009 41.4532 40.0767C41.7648 39.6491 42.1824 39.3177 42.7061 39.0823C43.233 38.8437 43.8213 38.7244 44.471 38.7244C45.1272 38.7244 45.7106 38.842 46.221 39.0774C46.7314 39.3094 47.1357 39.6276 47.434 40.0319C47.7356 40.4363 47.8947 40.8953 47.9113 41.409H46.7181ZM53.2396 41.409V42.4034H49.2822V41.409H53.2396ZM50.4356 39.5795H51.6089V46.8579C51.6089 47.1893 51.657 47.4379 51.7531 47.6036C51.8525 47.7661 51.9785 47.8754 52.1309 47.9318C52.2867 47.9848 52.4508 48.0113 52.6231 48.0113C52.7524 48.0113 52.8585 48.0047 52.9413 47.9914C53.0242 47.9749 53.0905 47.9616 53.1402 47.9517L53.3788 49.0056C53.2993 49.0355 53.1882 49.0653 53.0457 49.0951C52.9032 49.1283 52.7226 49.1448 52.5038 49.1448C52.1724 49.1448 51.8476 49.0736 51.5294 48.9311C51.2145 48.7885 50.9527 48.5715 50.7439 48.2798C50.5384 47.9881 50.4356 47.6202 50.4356 47.1761V39.5795ZM57.2517 49.2244C56.7678 49.2244 56.3286 49.1332 55.9342 48.9509C55.5398 48.7653 55.2266 48.4985 54.9946 48.1505C54.7626 47.7992 54.6466 47.375 54.6466 46.8778C54.6466 46.4403 54.7327 46.0857 54.9051 45.8139C55.0774 45.5388 55.3078 45.3233 55.5961 45.1676C55.8845 45.0118 56.2027 44.8958 56.5507 44.8196C56.902 44.74 57.255 44.677 57.6096 44.6306C58.0737 44.571 58.4498 44.5262 58.7382 44.4964C59.0299 44.4633 59.242 44.4086 59.3746 44.3323C59.5104 44.2561 59.5784 44.1235 59.5784 43.9346V43.8948C59.5784 43.4043 59.4442 43.0232 59.1757 42.7514C58.9105 42.4796 58.5078 42.3437 57.9676 42.3437C57.4075 42.3437 56.9683 42.4663 56.6501 42.7116C56.3319 42.9569 56.1082 43.2187 55.979 43.4971L54.8653 43.0994C55.0642 42.6354 55.3293 42.2741 55.6608 42.0156C55.9955 41.7537 56.3601 41.5715 56.7545 41.4687C57.1523 41.3626 57.5434 41.3096 57.9278 41.3096C58.1731 41.3096 58.4548 41.3394 58.773 41.3991C59.0945 41.4554 59.4044 41.5731 59.7027 41.7521C60.0043 41.9311 60.2545 42.2012 60.4534 42.5625C60.6523 42.9237 60.7517 43.4076 60.7517 44.0142V49.0454H59.5784V48.0113H59.5187C59.4392 48.177 59.3066 48.3544 59.121 48.5433C58.9354 48.7322 58.6885 48.8929 58.3802 49.0255C58.072 49.1581 57.6958 49.2244 57.2517 49.2244ZM57.4307 48.1704C57.8947 48.1704 58.2858 48.0793 58.604 47.897C58.9255 47.7147 59.1674 47.4794 59.3298 47.191C59.4955 46.9027 59.5784 46.5994 59.5784 46.2812V45.2073C59.5287 45.267 59.4193 45.3217 59.2503 45.3714C59.0845 45.4178 58.8923 45.4592 58.6736 45.4957C58.4581 45.5288 58.2477 45.5587 58.0422 45.5852C57.84 45.6084 57.6759 45.6283 57.55 45.6448C57.2451 45.6846 56.96 45.7492 56.6949 45.8387C56.433 45.9249 56.2209 46.0558 56.0585 46.2315C55.8994 46.4038 55.8199 46.6392 55.8199 46.9375C55.8199 47.3451 55.9707 47.6534 56.2723 47.8622C56.5772 48.0677 56.9633 48.1704 57.4307 48.1704ZM66.2142 41.409V42.4034H62.2568V41.409H66.2142ZM63.4102 39.5795H64.5835V46.8579C64.5835 47.1893 64.6316 47.4379 64.7277 47.6036C64.8271 47.7661 64.9531 47.8754 65.1056 47.9318C65.2613 47.9848 65.4254 48.0113 65.5977 48.0113C65.727 48.0113 65.8331 48.0047 65.9159 47.9914C65.9988 47.9749 66.0651 47.9616 66.1148 47.9517L66.3534 49.0056C66.2739 49.0355 66.1628 49.0653 66.0203 49.0951C65.8778 49.1283 65.6972 49.1448 65.4784 49.1448C65.147 49.1448 64.8222 49.0736 64.504 48.9311C64.1891 48.7885 63.9273 48.5715 63.7185 48.2798C63.513 47.9881 63.4102 47.6202 63.4102 47.1761V39.5795ZM67.9791 49.0454V41.409H69.1524V49.0454H67.9791ZM68.5757 40.1363C68.347 40.1363 68.1498 40.0584 67.9841 39.9027C67.8217 39.7469 67.7405 39.5596 67.7405 39.3409C67.7405 39.1221 67.8217 38.9349 67.9841 38.7791C68.1498 38.6233 68.347 38.5454 68.5757 38.5454C68.8044 38.5454 69 38.6233 69.1624 38.7791C69.3281 38.9349 69.411 39.1221 69.411 39.3409C69.411 39.5596 69.3281 39.7469 69.1624 39.9027C69 40.0584 68.8044 40.1363 68.5757 40.1363ZM76.7105 43.1193L75.6565 43.4176C75.5902 43.2419 75.4925 43.0712 75.3632 42.9055C75.2372 42.7365 75.0649 42.5973 74.8461 42.4879C74.6274 42.3785 74.3473 42.3238 74.0059 42.3238C73.5386 42.3238 73.1492 42.4315 72.8376 42.647C72.5294 42.8591 72.3753 43.1292 72.3753 43.4573C72.3753 43.749 72.4813 43.9794 72.6934 44.1484C72.9056 44.3174 73.237 44.4583 73.6878 44.571L74.8213 44.8494C75.5041 45.0151 76.0128 45.2687 76.3476 45.61C76.6823 45.9481 76.8497 46.384 76.8497 46.9176C76.8497 47.3551 76.7238 47.7462 76.4719 48.0909C76.2233 48.4356 75.8753 48.7073 75.4278 48.9062C74.9804 49.1051 74.46 49.2045 73.8667 49.2045C73.0879 49.2045 72.4432 49.0355 71.9328 48.6974C71.4224 48.3593 71.0992 47.8655 70.9633 47.2159L72.077 46.9375C72.183 47.3484 72.3836 47.6567 72.6785 47.8622C72.9768 48.0677 73.3663 48.1704 73.8469 48.1704C74.3937 48.1704 74.8279 48.0544 75.1494 47.8224C75.4742 47.5871 75.6366 47.3054 75.6366 46.9772C75.6366 46.7121 75.5438 46.49 75.3582 46.311C75.1726 46.1287 74.8876 45.9929 74.5031 45.9034L73.2304 45.6051C72.531 45.4393 72.0173 45.1825 71.6892 44.8345C71.3644 44.4831 71.202 44.044 71.202 43.517C71.202 43.0861 71.3229 42.705 71.5649 42.3735C71.8102 42.0421 72.1433 41.7819 72.5642 41.593C72.9884 41.4041 73.469 41.3096 74.0059 41.3096C74.7616 41.3096 75.3549 41.4753 75.7858 41.8068C76.22 42.1382 76.5282 42.5757 76.7105 43.1193ZM81.9369 41.409V42.4034H77.9795V41.409H81.9369ZM79.1329 39.5795H80.3062V46.8579C80.3062 47.1893 80.3543 47.4379 80.4504 47.6036C80.5498 47.7661 80.6758 47.8754 80.8282 47.9318C80.984 47.9848 81.1481 48.0113 81.3204 48.0113C81.4497 48.0113 81.5557 48.0047 81.6386 47.9914C81.7214 47.9749 81.7877 47.9616 81.8374 47.9517L82.0761 49.0056C81.9965 49.0355 81.8855 49.0653 81.743 49.0951C81.6005 49.1283 81.4198 49.1448 81.2011 49.1448C80.8696 49.1448 80.5448 49.0736 80.2267 48.9311C79.9118 48.7885 79.6499 48.5715 79.4411 48.2798C79.2356 47.9881 79.1329 47.6202 79.1329 47.1761V39.5795ZM83.7018 49.0454V41.409H84.8751V49.0454H83.7018ZM84.2984 40.1363C84.0697 40.1363 83.8725 40.0584 83.7068 39.9027C83.5444 39.7469 83.4632 39.5596 83.4632 39.3409C83.4632 39.1221 83.5444 38.9349 83.7068 38.7791C83.8725 38.6233 84.0697 38.5454 84.2984 38.5454C84.5271 38.5454 84.7226 38.6233 84.885 38.7791C85.0508 38.9349 85.1336 39.1221 85.1336 39.3409C85.1336 39.5596 85.0508 39.7469 84.885 39.9027C84.7226 40.0584 84.5271 40.1363 84.2984 40.1363ZM90.1263 49.2045C89.4104 49.2045 88.7939 49.0355 88.2769 48.6974C87.7599 48.3593 87.3621 47.8937 87.0837 47.3004C86.8053 46.7071 86.6661 46.0293 86.6661 45.267C86.6661 44.4914 86.8086 43.807 87.0937 43.2137C87.382 42.6171 87.7831 42.1515 88.2968 41.8167C88.8138 41.4786 89.4171 41.3096 90.1064 41.3096C90.6434 41.3096 91.1273 41.409 91.5581 41.6079C91.989 41.8068 92.342 42.0852 92.6171 42.4431C92.8922 42.8011 93.0629 43.2187 93.1292 43.696H91.9559C91.8664 43.348 91.6675 43.0397 91.3593 42.7713C91.0544 42.4995 90.6434 42.3636 90.1263 42.3636C89.6689 42.3636 89.2679 42.4829 88.9232 42.7215C88.5818 42.9569 88.315 43.29 88.1228 43.7208C87.9339 44.1484 87.8394 44.6505 87.8394 45.2272C87.8394 45.8172 87.9322 46.3309 88.1178 46.7684C88.3067 47.2059 88.5719 47.5456 88.9133 47.7876C89.258 48.0295 89.6623 48.1505 90.1263 48.1505C90.4313 48.1505 90.708 48.0975 90.9566 47.9914C91.2052 47.8854 91.4156 47.7329 91.588 47.534C91.7603 47.3352 91.883 47.0965 91.9559 46.8181H93.1292C93.0629 47.2689 92.8988 47.6749 92.637 48.0362C92.3785 48.3941 92.0354 48.6792 91.6079 48.8913C91.1836 49.1001 90.6898 49.2045 90.1263 49.2045ZM100.253 43.1193L99.1995 43.4176C99.1332 43.2419 99.0354 43.0712 98.9062 42.9055C98.7802 42.7365 98.6079 42.5973 98.3891 42.4879C98.1704 42.3785 97.8903 42.3238 97.5489 42.3238C97.0816 42.3238 96.6921 42.4315 96.3806 42.647C96.0724 42.8591 95.9182 43.1292 95.9182 43.4573C95.9182 43.749 96.0243 43.9794 96.2364 44.1484C96.4485 44.3174 96.78 44.4583 97.2307 44.571L98.3643 44.8494C99.047 45.0151 99.5558 45.2687 99.8905 45.61C100.225 45.9481 100.393 46.384 100.393 46.9176C100.393 47.3551 100.267 47.7462 100.015 48.0909C99.7662 48.4356 99.4182 48.7073 98.9708 48.9062C98.5233 49.1051 98.003 49.2045 97.4097 49.2045C96.6308 49.2045 95.9862 49.0355 95.4758 48.6974C94.9653 48.3593 94.6422 47.8655 94.5063 47.2159L95.6199 46.9375C95.726 47.3484 95.9265 47.6567 96.2215 47.8622C96.5198 48.0677 96.9092 48.1704 97.3898 48.1704C97.9367 48.1704 98.3709 48.0544 98.6924 47.8224C99.0172 47.5871 99.1796 47.3054 99.1796 46.9772C99.1796 46.7121 99.0868 46.49 98.9012 46.311C98.7156 46.1287 98.4305 45.9929 98.0461 45.9034L96.7733 45.6051C96.074 45.4393 95.5603 45.1825 95.2322 44.8345C94.9073 44.4831 94.7449 44.044 94.7449 43.517C94.7449 43.0861 94.8659 42.705 95.1079 42.3735C95.3531 42.0421 95.6862 41.7819 96.1072 41.593C96.5314 41.4041 97.012 41.3096 97.5489 41.3096C98.3046 41.3096 98.8979 41.4753 99.3287 41.8068C99.7629 42.1382 100.071 42.5757 100.253 43.1193Z" fill="#9291A5"/>
<defs>
<filter id="filter0_d_143_1074" x="0.556641" y="0.0454102" width="344" height="237.22" filterUnits="userSpaceOnUse" color-interpolation-filters="sRGB">
<feFlood flood-opacity="0" result="BackgroundImageFix"/>
<feColorMatrix in="SourceAlpha" type="matrix" values="0 0 0 0 0 0 0 0 0 0 0 0 0 0 0 0 0 0 127 0" result="hardAlpha"/>
<feOffset dy="2"/>
<feGaussianBlur stdDeviation="3"/>
<feComposite in2="hardAlpha" operator="out"/>
<feColorMatrix type="matrix" values="0 0 0 0 0.0509804 0 0 0 0 0.0392157 0 0 0 0 0.172549 0 0 0 0.08 0"/>
<feBlend mode="normal" in2="BackgroundImageFix" result="effect1_dropShadow_143_1074"/>
<feBlend mode="normal" in="SourceGraphic" in2="effect1_dropShadow_143_1074" result="shape"/>
</filter>
</defs>
</svg>
