<svg width="345" height="238" viewBox="0 0 345 238" fill="none" xmlns="http://www.w3.org/2000/svg">
<g filter="url(#filter0_d_143_1073)">
<rect x="6.64258" y="4.04541" width="332" height="225.22" rx="20" fill="white"/>
</g>
<path d="M160.507 186.12L177.75 169.298L185.11 150.373L196.045 177.078L203.404 164.462L211.185 85.186L231.161 162.779L245.671 136.915L273.428 186.12L282.049 173.714L287.306 153.107L303.498 136.915" stroke="#2D5BFF" stroke-width="3" stroke-linecap="round" stroke-linejoin="round"/>
<path d="M104.564 167.317C103.771 168.112 103.012 168.872 102.253 169.633C101.603 170.283 100.953 170.932 100.303 171.58C100.091 171.791 99.8342 171.856 99.5451 171.771C99.256 171.686 99.084 171.481 99.0202 171.191C98.9587 170.909 99.0663 170.678 99.2635 170.479C100.165 169.578 101.065 168.677 101.965 167.776C102.632 167.109 103.3 166.442 103.968 165.776C104.335 165.412 104.759 165.41 105.123 165.77C105.63 166.27 106.134 166.774 106.634 167.281C106.691 167.338 106.726 167.416 106.766 167.476L110.979 163.259C110.919 163.256 110.861 163.249 110.803 163.249C110.316 163.249 109.829 163.254 109.341 163.246C109.019 163.241 108.776 163.085 108.644 162.792C108.518 162.512 108.56 162.241 108.757 162.002C108.827 161.914 108.917 161.843 109.02 161.795C109.122 161.747 109.234 161.723 109.347 161.725C110.514 161.722 111.684 161.72 112.852 161.726C113.293 161.728 113.62 162.063 113.621 162.504C113.625 163.666 113.625 164.829 113.621 165.991C113.621 166.433 113.275 166.778 112.856 166.775C112.437 166.771 112.114 166.441 112.106 165.998C112.099 165.523 112.104 165.048 112.104 164.573V164.376L112.036 164.332C111.994 164.399 111.946 164.463 111.894 164.522C110.403 166.017 108.91 167.51 107.416 169.002C107.027 169.39 106.607 169.391 106.219 169.006C105.711 168.499 105.203 167.991 104.696 167.482C104.653 167.438 104.618 167.384 104.564 167.317Z" fill="#04CE00"/>
<path d="M43.9951 170.097V163.376H45.3325V170.097H43.9951ZM41.3055 167.403V166.07H48.0271V167.403H41.3055ZM49.8964 171.808V170.694L53.3417 167.124C53.7096 166.737 54.0129 166.397 54.2515 166.105C54.4935 165.81 54.6741 165.53 54.7934 165.265C54.9127 165 54.9724 164.718 54.9724 164.42C54.9724 164.082 54.8928 163.79 54.7338 163.545C54.5747 163.296 54.3576 163.106 54.0825 162.973C53.8074 162.837 53.4975 162.769 53.1528 162.769C52.7882 162.769 52.47 162.844 52.1982 162.993C51.9265 163.142 51.7177 163.353 51.5718 163.624C51.426 163.896 51.3531 164.214 51.3531 164.579H49.8865C49.8865 163.959 50.029 163.417 50.314 162.953C50.599 162.489 50.9901 162.13 51.4873 161.874C51.9845 161.616 52.5496 161.487 53.1826 161.487C53.8223 161.487 54.3857 161.614 54.873 161.869C55.3635 162.121 55.7463 162.466 56.0214 162.903C56.2965 163.338 56.434 163.828 56.434 164.375C56.434 164.753 56.3628 165.122 56.2203 165.484C56.0811 165.845 55.8374 166.248 55.4894 166.692C55.1414 167.133 54.6575 167.668 54.0377 168.298L52.0143 170.416V170.49H56.5981V171.808H49.8964ZM62.3453 161.626V171.808H60.8041V163.167H60.7444L58.3083 164.758V163.286L60.8488 161.626H62.3453ZM65.5109 171.902C65.2391 171.902 65.0055 171.806 64.8099 171.614C64.6144 171.418 64.5166 171.183 64.5166 170.908C64.5166 170.636 64.6144 170.404 64.8099 170.212C65.0055 170.016 65.2391 169.918 65.5109 169.918C65.7827 169.918 66.0164 170.016 66.2119 170.212C66.4075 170.404 66.5052 170.636 66.5052 170.908C66.5052 171.09 66.4588 171.257 66.366 171.41C66.2765 171.559 66.1572 171.678 66.0081 171.768C65.8589 171.857 65.6932 171.902 65.5109 171.902ZM71.6521 171.977C70.8666 171.973 70.1954 171.766 69.6386 171.355C69.0818 170.944 68.6559 170.346 68.3609 169.56C68.0659 168.775 67.9184 167.829 67.9184 166.722C67.9184 165.618 68.0659 164.675 68.3609 163.893C68.6592 163.111 69.0867 162.514 69.6436 162.103C70.2037 161.692 70.8732 161.487 71.6521 161.487C72.431 161.487 73.0988 161.694 73.6556 162.108C74.2124 162.519 74.6383 163.116 74.9333 163.898C75.2316 164.677 75.3808 165.618 75.3808 166.722C75.3808 167.832 75.2333 168.78 74.9383 169.565C74.6433 170.348 74.2174 170.946 73.6606 171.36C73.1038 171.771 72.4343 171.977 71.6521 171.977ZM71.6521 170.649C72.3415 170.649 72.8801 170.313 73.2678 169.64C73.6589 168.967 73.8545 167.994 73.8545 166.722C73.8545 165.877 73.765 165.162 73.586 164.579C73.4104 163.992 73.1568 163.548 72.8254 163.247C72.4972 162.942 72.1061 162.789 71.6521 162.789C70.966 162.789 70.4274 163.127 70.0363 163.803C69.6452 164.479 69.448 165.452 69.4447 166.722C69.4447 167.57 69.5325 168.288 69.7082 168.874C69.8872 169.458 70.1407 169.9 70.4688 170.202C70.797 170.5 71.1914 170.649 71.6521 170.649ZM81.0074 161.626V171.808H79.4662V163.167H79.4065L76.9704 164.758V163.286L79.5109 161.626H81.0074ZM89.0763 169.899V169.362C89.0763 168.977 89.1558 168.626 89.3149 168.308C89.4773 167.986 89.7126 167.729 90.0209 167.537C90.3324 167.341 90.7086 167.244 91.1494 167.244C91.6002 167.244 91.978 167.34 92.2829 167.532C92.5879 167.724 92.8182 167.981 92.974 168.303C93.1331 168.624 93.2126 168.977 93.2126 169.362V169.899C93.2126 170.283 93.1331 170.636 92.974 170.957C92.8149 171.276 92.5812 171.533 92.273 171.728C91.9681 171.92 91.5935 172.016 91.1494 172.016C90.702 172.016 90.3241 171.92 90.0159 171.728C89.7077 171.533 89.474 171.276 89.3149 170.957C89.1558 170.636 89.0763 170.283 89.0763 169.899ZM90.2346 169.362V169.899C90.2346 170.184 90.3026 170.442 90.4385 170.674C90.5744 170.906 90.8113 171.022 91.1494 171.022C91.4842 171.022 91.7178 170.906 91.8504 170.674C91.983 170.442 92.0493 170.184 92.0493 169.899V169.362C92.0493 169.077 91.9846 168.818 91.8554 168.586C91.7294 168.354 91.4941 168.238 91.1494 168.238C90.818 168.238 90.5827 168.354 90.4434 168.586C90.3042 168.818 90.2346 169.077 90.2346 169.362ZM83.9555 164.072V163.535C83.9555 163.15 84.0351 162.797 84.1942 162.476C84.3566 162.154 84.5919 161.898 84.9001 161.705C85.2117 161.513 85.5879 161.417 86.0287 161.417C86.4794 161.417 86.8573 161.513 87.1622 161.705C87.4671 161.898 87.6975 162.154 87.8532 162.476C88.009 162.797 88.0869 163.15 88.0869 163.535V164.072C88.0869 164.456 88.0074 164.809 87.8483 165.131C87.6925 165.449 87.4605 165.706 87.1523 165.901C86.8473 166.094 86.4728 166.19 86.0287 166.19C85.5779 166.19 85.1984 166.094 84.8902 165.901C84.5853 165.706 84.3532 165.449 84.1942 165.131C84.0351 164.809 83.9555 164.456 83.9555 164.072ZM85.1189 163.535V164.072C85.1189 164.357 85.1852 164.615 85.3177 164.847C85.4536 165.079 85.6906 165.195 86.0287 165.195C86.3601 165.195 86.5921 165.079 86.7247 164.847C86.8606 164.615 86.9285 164.357 86.9285 164.072V163.535C86.9285 163.25 86.8639 162.991 86.7346 162.759C86.6054 162.527 86.3701 162.411 86.0287 162.411C85.6972 162.411 85.4619 162.527 85.3227 162.759C85.1868 162.991 85.1189 163.25 85.1189 163.535ZM84.4278 171.808L91.4278 161.626H92.616L85.616 171.808H84.4278Z" fill="#04CE00"/>
<path d="M54.6074 145.245C52.9616 145.235 51.373 144.959 49.8418 144.417C48.321 143.875 46.9564 142.995 45.748 141.776C44.5397 140.558 43.5814 138.943 42.873 136.933C42.1751 134.922 41.8262 132.453 41.8262 129.526C41.8366 126.839 42.1439 124.438 42.748 122.323C43.3626 120.198 44.2376 118.396 45.373 116.917C46.5189 115.438 47.8887 114.313 49.4824 113.542C51.0762 112.761 52.8626 112.37 54.8418 112.37C56.9772 112.37 58.8626 112.787 60.498 113.62C62.1335 114.443 63.446 115.563 64.4355 116.979C65.4355 118.396 66.0397 119.985 66.248 121.745H59.5762C59.3158 120.631 58.7689 119.756 57.9355 119.12C57.1022 118.485 56.071 118.167 54.8418 118.167C52.7585 118.167 51.1751 119.073 50.0918 120.886C49.0189 122.698 48.472 125.162 48.4512 128.276H48.6699C49.1491 127.328 49.7949 126.521 50.6074 125.854C51.4303 125.177 52.3626 124.662 53.4043 124.308C54.4564 123.943 55.5658 123.761 56.7324 123.761C58.6283 123.761 60.3158 124.209 61.7949 125.104C63.2741 125.99 64.4408 127.209 65.2949 128.761C66.1491 130.313 66.5762 132.089 66.5762 134.089C66.5762 136.256 66.071 138.183 65.0605 139.87C64.0605 141.558 62.6595 142.881 60.8574 143.839C59.0658 144.787 56.9824 145.256 54.6074 145.245ZM54.5762 139.933C55.6178 139.933 56.5501 139.683 57.373 139.183C58.196 138.683 58.8418 138.006 59.3105 137.151C59.7793 136.297 60.0137 135.339 60.0137 134.276C60.0137 133.214 59.7793 132.261 59.3105 131.417C58.8522 130.573 58.2168 129.901 57.4043 129.401C56.5918 128.901 55.6647 128.651 54.623 128.651C53.8418 128.651 53.1178 128.797 52.4512 129.089C51.7949 129.381 51.2168 129.787 50.7168 130.308C50.2272 130.828 49.8418 131.433 49.5605 132.12C49.2793 132.797 49.1387 133.521 49.1387 134.292C49.1387 135.323 49.373 136.266 49.8418 137.12C50.321 137.974 50.9668 138.657 51.7793 139.167C52.6022 139.677 53.5345 139.933 54.5762 139.933ZM83.2012 145.245C80.8678 145.245 78.7897 144.844 76.9668 144.042C75.1543 143.229 73.722 142.115 72.6699 140.698C71.6283 139.271 71.0918 137.625 71.0605 135.761H77.873C77.9147 136.542 78.1699 137.229 78.6387 137.823C79.1178 138.407 79.7533 138.86 80.5449 139.183C81.3366 139.506 82.2272 139.667 83.2168 139.667C84.248 139.667 85.1595 139.485 85.9512 139.12C86.7428 138.756 87.3626 138.25 87.8105 137.604C88.2585 136.959 88.4824 136.214 88.4824 135.37C88.4824 134.516 88.2428 133.761 87.7637 133.104C87.2949 132.438 86.6178 131.917 85.7324 131.542C84.8574 131.167 83.8158 130.979 82.6074 130.979H79.623V126.011H82.6074C83.6283 126.011 84.5293 125.834 85.3105 125.479C86.1022 125.125 86.7168 124.636 87.1543 124.011C87.5918 123.375 87.8105 122.636 87.8105 121.792C87.8105 120.99 87.6178 120.287 87.2324 119.683C86.8574 119.068 86.3262 118.589 85.6387 118.245C84.9616 117.901 84.1699 117.729 83.2637 117.729C82.347 117.729 81.5085 117.896 80.748 118.229C79.9876 118.552 79.3783 119.016 78.9199 119.62C78.4616 120.224 78.2168 120.933 78.1855 121.745H71.7012C71.7324 119.901 72.2585 118.276 73.2793 116.87C74.3001 115.464 75.6751 114.365 77.4043 113.573C79.1439 112.771 81.1074 112.37 83.2949 112.37C85.5033 112.37 87.4355 112.771 89.0918 113.573C90.748 114.375 92.0345 115.459 92.9512 116.823C93.8783 118.177 94.3366 119.698 94.3262 121.386C94.3366 123.177 93.7793 124.672 92.6543 125.87C91.5397 127.068 90.0866 127.828 88.2949 128.151V128.401C90.6491 128.703 92.4408 129.521 93.6699 130.854C94.9095 132.177 95.5241 133.834 95.5137 135.823C95.5241 137.646 94.998 139.266 93.9355 140.683C92.8835 142.099 91.4303 143.214 89.5762 144.026C87.722 144.839 85.597 145.245 83.2012 145.245ZM112.064 145.245C109.856 145.245 107.887 144.839 106.158 144.026C104.439 143.214 103.075 142.094 102.064 140.667C101.054 139.24 100.528 137.604 100.486 135.761H107.049C107.122 137 107.643 138.006 108.611 138.776C109.58 139.547 110.731 139.933 112.064 139.933C113.127 139.933 114.064 139.698 114.877 139.229C115.7 138.75 116.34 138.089 116.799 137.245C117.268 136.391 117.502 135.412 117.502 134.308C117.502 133.183 117.262 132.193 116.783 131.339C116.314 130.485 115.663 129.818 114.83 129.339C113.997 128.86 113.044 128.615 111.971 128.604C111.033 128.604 110.122 128.797 109.236 129.183C108.361 129.568 107.679 130.094 107.189 130.761L101.174 129.683L102.689 112.808H122.252V118.339H108.268L107.439 126.354H107.627C108.189 125.563 109.038 124.907 110.174 124.386C111.309 123.865 112.58 123.604 113.986 123.604C115.913 123.604 117.632 124.058 119.143 124.964C120.653 125.87 121.846 127.115 122.721 128.698C123.596 130.271 124.028 132.084 124.018 134.136C124.028 136.292 123.528 138.209 122.518 139.886C121.518 141.552 120.117 142.865 118.314 143.823C116.523 144.771 114.439 145.245 112.064 145.245Z" fill="#1E1B39"/>
<path d="M40.8702 75.0454V61.9545H46.035C47.0236 61.9545 47.8674 62.1313 48.5662 62.485C49.2694 62.8345 49.8042 63.3309 50.1706 63.9744C50.5414 64.6136 50.7267 65.3657 50.7267 66.2308C50.7267 67.1001 50.5392 67.848 50.1642 68.4744C49.7892 69.0965 49.2459 69.5738 48.5343 69.9062C47.8269 70.2386 46.9703 70.4048 45.9647 70.4048H42.5066V68.1804H45.5172C46.0456 68.1804 46.4846 68.1079 46.834 67.963C47.1834 67.8181 47.4434 67.6008 47.6138 67.311C47.7885 67.0213 47.8759 66.6612 47.8759 66.2308C47.8759 65.7961 47.7885 65.4296 47.6138 65.1313C47.4434 64.8331 47.1813 64.6072 46.8276 64.4538C46.4782 64.2961 46.0371 64.2173 45.5044 64.2173H43.638V75.0454H40.8702ZM47.9398 69.088L51.1934 75.0454H48.138L44.9547 69.088H47.9398ZM56.9478 75.2372C55.9379 75.2372 55.0685 75.0326 54.3398 74.6235C53.6154 74.2102 53.0572 73.6264 52.6651 72.8721C52.2731 72.1136 52.0771 71.2166 52.0771 70.1811C52.0771 69.1711 52.2731 68.2848 52.6651 67.522C53.0572 66.7592 53.609 66.1647 54.3207 65.7386C55.0366 65.3125 55.8761 65.0994 56.8391 65.0994C57.4869 65.0994 58.0898 65.2038 58.6481 65.4126C59.2106 65.6171 59.7006 65.9261 60.1183 66.3394C60.5401 66.7528 60.8683 67.2727 61.1026 67.8991C61.337 68.5213 61.4542 69.25 61.4542 70.0852V70.8331H53.1637V69.1456H58.891C58.891 68.7535 58.8058 68.4062 58.6353 68.1036C58.4648 67.8011 58.2283 67.5646 57.9258 67.3941C57.6275 67.2194 57.2802 67.1321 56.8839 67.1321C56.4705 67.1321 56.104 67.2279 55.7844 67.4197C55.4691 67.6072 55.2219 67.8608 55.043 68.1804C54.864 68.4957 54.7724 68.8473 54.7681 69.235V70.8394C54.7681 71.3252 54.8576 71.745 55.0366 72.0987C55.2198 72.4524 55.4776 72.7251 55.81 72.9169C56.1424 73.1086 56.5366 73.2045 56.9925 73.2045C57.2951 73.2045 57.5721 73.1619 57.8235 73.0767C58.0749 72.9914 58.2901 72.8636 58.4691 72.6931C58.6481 72.5227 58.7844 72.3139 58.8782 72.0667L61.3967 72.2329C61.2688 72.838 61.0067 73.3664 60.6104 73.8181C60.2184 74.2656 59.7113 74.615 59.0891 74.8664C58.4712 75.1136 57.7575 75.2372 56.9478 75.2372ZM66.0309 75.2308C65.4045 75.2308 64.8462 75.1221 64.3562 74.9048C63.8661 74.6832 63.4783 74.3572 63.1928 73.9268C62.9116 73.4921 62.771 72.9509 62.771 72.3032C62.771 71.7578 62.8711 71.2997 63.0714 70.9289C63.2717 70.5582 63.5444 70.2599 63.8896 70.034C64.2347 69.8082 64.6268 69.6377 65.0657 69.5227C65.5089 69.4076 65.9734 69.3267 66.4592 69.2798C67.0302 69.2201 67.4904 69.1647 67.8398 69.1136C68.1893 69.0582 68.4428 68.9772 68.6005 68.8707C68.7582 68.7642 68.837 68.6065 68.837 68.3977V68.3593C68.837 67.9545 68.7092 67.6413 68.4535 67.4197C68.2021 67.1981 67.8441 67.0873 67.3796 67.0873C66.8896 67.0873 66.4996 67.196 66.2099 67.4133C65.9201 67.6264 65.7283 67.8948 65.6346 68.2187L63.1161 68.0142C63.244 67.4176 63.4954 66.9019 63.8704 66.4673C64.2454 66.0284 64.729 65.6917 65.3214 65.4573C65.918 65.2187 66.6083 65.0994 67.3924 65.0994C67.9379 65.0994 68.4599 65.1633 68.9585 65.2911C69.4613 65.419 69.9066 65.6171 70.2944 65.8856C70.6864 66.1541 70.9954 66.4992 71.2212 66.9211C71.4471 67.3387 71.56 67.8394 71.56 68.4233V75.0454H68.9776V73.6839H68.9009C68.7433 73.9907 68.5323 74.2613 68.2681 74.4957C68.0039 74.7258 67.6864 74.9069 67.3157 75.039C66.945 75.1669 66.5167 75.2308 66.0309 75.2308ZM66.8107 73.3515C67.2113 73.3515 67.565 73.2727 67.8718 73.115C68.1786 72.9531 68.4194 72.7358 68.5941 72.463C68.7688 72.1903 68.8562 71.8813 68.8562 71.5362V70.4943C68.771 70.5497 68.6538 70.6008 68.5046 70.6477C68.3597 70.6903 68.1957 70.7308 68.0124 70.7691C67.8292 70.8032 67.646 70.8352 67.4627 70.865C67.2795 70.8906 67.1133 70.914 66.9641 70.9353C66.6445 70.9822 66.3654 71.0568 66.1268 71.159C65.8881 71.2613 65.7028 71.3998 65.5707 71.5745C65.4386 71.745 65.3725 71.9581 65.3725 72.2137C65.3725 72.5845 65.5067 72.8679 65.7752 73.0639C66.0479 73.2556 66.3931 73.3515 66.8107 73.3515ZM76.3956 61.9545V75.0454H73.6726V61.9545H76.3956ZM83.7992 65.2272V67.2727H77.8865V65.2272H83.7992ZM79.2289 62.875H81.9519V72.0284C81.9519 72.2798 81.9902 72.4758 82.0669 72.6164C82.1436 72.7528 82.2502 72.8487 82.3865 72.9041C82.5272 72.9595 82.6891 72.9872 82.8723 72.9872C83.0002 72.9872 83.128 72.9765 83.2559 72.9552C83.3837 72.9296 83.4817 72.9105 83.5499 72.8977L83.9782 74.924C83.8418 74.9666 83.65 75.0156 83.4029 75.071C83.1557 75.1306 82.8553 75.1669 82.5016 75.1796C81.8453 75.2052 81.2701 75.1179 80.7757 74.9176C80.2857 74.7173 79.9043 74.4062 79.6316 73.9843C79.3588 73.5625 79.2246 73.0298 79.2289 72.3863V62.875ZM85.573 75.0454V65.2272H88.296V75.0454H85.573ZM86.9409 63.9616C86.536 63.9616 86.1887 63.8274 85.899 63.5589C85.6135 63.2862 85.4707 62.9602 85.4707 62.5809C85.4707 62.2059 85.6135 61.8842 85.899 61.6157C86.1887 61.343 86.536 61.2066 86.9409 61.2066C87.3457 61.2066 87.6909 61.343 87.9764 61.6157C88.2662 61.8842 88.411 62.2059 88.411 62.5809C88.411 62.9602 88.2662 63.2862 87.9764 63.5589C87.6909 63.8274 87.3457 63.9616 86.9409 63.9616ZM90.4773 75.0454V65.2272H93.0724V66.9595H93.1875C93.392 66.3842 93.733 65.9304 94.2102 65.598C94.6875 65.2656 95.2585 65.0994 95.9233 65.0994C96.5966 65.0994 97.1697 65.2677 97.6428 65.6044C98.1158 65.9367 98.4311 66.3884 98.5888 66.9595H98.6911C98.8913 66.397 99.2536 65.9474 99.7777 65.6108C100.306 65.2698 100.93 65.0994 101.651 65.0994C102.567 65.0994 103.31 65.3913 103.881 65.9751C104.457 66.5546 104.744 67.3771 104.744 68.4424V75.0454H102.028V68.9794C102.028 68.4339 101.883 68.0248 101.593 67.7521C101.303 67.4794 100.941 67.343 100.506 67.343C100.012 67.343 99.6264 67.5007 99.3494 67.816C99.0724 68.1271 98.9339 68.5383 98.9339 69.0497V75.0454H96.294V68.9218C96.294 68.4403 96.1555 68.0568 95.8786 67.7713C95.6058 67.4858 95.2457 67.343 94.7983 67.343C94.4957 67.343 94.223 67.4197 93.9801 67.5731C93.7415 67.7223 93.5518 67.9332 93.4112 68.2059C93.2706 68.4744 93.2003 68.7897 93.2003 69.1519V75.0454H90.4773ZM111.37 75.2372C110.36 75.2372 109.49 75.0326 108.762 74.6235C108.037 74.2102 107.479 73.6264 107.087 72.8721C106.695 72.1136 106.499 71.2166 106.499 70.1811C106.499 69.1711 106.695 68.2848 107.087 67.522C107.479 66.7592 108.031 66.1647 108.743 65.7386C109.458 65.3125 110.298 65.0994 111.261 65.0994C111.909 65.0994 112.512 65.2038 113.07 65.4126C113.632 65.6171 114.123 65.9261 114.54 66.3394C114.962 66.7528 115.29 67.2727 115.525 67.8991C115.759 68.5213 115.876 69.25 115.876 70.0852V70.8331H107.586V69.1456H113.313C113.313 68.7535 113.228 68.4062 113.057 68.1036C112.887 67.8011 112.65 67.5646 112.348 67.3941C112.049 67.2194 111.702 67.1321 111.306 67.1321C110.892 67.1321 110.526 67.2279 110.206 67.4197C109.891 67.6072 109.644 67.8608 109.465 68.1804C109.286 68.4957 109.194 68.8473 109.19 69.235V70.8394C109.19 71.3252 109.279 71.745 109.458 72.0987C109.642 72.4524 109.9 72.7251 110.232 72.9169C110.564 73.1086 110.958 73.2045 111.414 73.2045C111.717 73.2045 111.994 73.1619 112.245 73.0767C112.497 72.9914 112.712 72.8636 112.891 72.6931C113.07 72.5227 113.206 72.3139 113.3 72.0667L115.819 72.2329C115.691 72.838 115.429 73.3664 115.032 73.8181C114.64 74.2656 114.133 74.615 113.511 74.8664C112.893 75.1136 112.179 75.2372 111.37 75.2372ZM128.115 70.865V65.2272H130.838V75.0454H128.224V73.262H128.122C127.9 73.8373 127.531 74.2997 127.016 74.6491C126.504 74.9985 125.88 75.1733 125.143 75.1733C124.487 75.1733 123.909 75.0241 123.411 74.7258C122.912 74.4275 122.522 74.0035 122.241 73.4538C121.964 72.9041 121.823 72.2457 121.819 71.4786V65.2272H124.542V70.9929C124.546 71.5724 124.702 72.0305 125.009 72.3671C125.316 72.7038 125.727 72.8721 126.242 72.8721C126.57 72.8721 126.877 72.7975 127.163 72.6484C127.448 72.495 127.678 72.2691 127.853 71.9708C128.032 71.6725 128.119 71.3039 128.115 70.865ZM141.185 68.0269L138.692 68.1804C138.65 67.9673 138.558 67.7755 138.418 67.6051C138.277 67.4304 138.092 67.2919 137.862 67.1896C137.636 67.0831 137.365 67.0298 137.05 67.0298C136.628 67.0298 136.272 67.1193 135.982 67.2983C135.692 67.473 135.548 67.7073 135.548 68.0014C135.548 68.2358 135.641 68.4339 135.829 68.5958C136.016 68.7578 136.338 68.8877 136.794 68.9858L138.571 69.3437C139.526 69.5397 140.237 69.8551 140.706 70.2897C141.175 70.7244 141.409 71.2954 141.409 72.0028C141.409 72.6463 141.219 73.2109 140.84 73.6967C140.465 74.1825 139.95 74.5617 139.293 74.8345C138.641 75.1029 137.889 75.2372 137.037 75.2372C135.737 75.2372 134.702 74.9666 133.93 74.4254C133.163 73.8799 132.714 73.1384 132.582 72.2009L135.26 72.0603C135.341 72.4566 135.537 72.7592 135.848 72.968C136.159 73.1725 136.558 73.2748 137.043 73.2748C137.521 73.2748 137.904 73.1832 138.194 73C138.488 72.8125 138.637 72.5717 138.641 72.2777C138.637 72.0305 138.533 71.8281 138.328 71.6704C138.124 71.5085 137.808 71.3849 137.382 71.2997L135.682 70.9609C134.723 70.7691 134.009 70.4367 133.54 69.9637C133.076 69.4907 132.844 68.8877 132.844 68.1548C132.844 67.5241 133.014 66.9808 133.355 66.5248C133.7 66.0688 134.184 65.7173 134.806 65.4701C135.433 65.223 136.165 65.0994 137.005 65.0994C138.245 65.0994 139.221 65.3615 139.933 65.8856C140.648 66.4098 141.066 67.1235 141.185 68.0269ZM147.598 75.2372C146.588 75.2372 145.719 75.0326 144.99 74.6235C144.266 74.2102 143.708 73.6264 143.316 72.8721C142.923 72.1136 142.727 71.2166 142.727 70.1811C142.727 69.1711 142.923 68.2848 143.316 67.522C143.708 66.7592 144.259 66.1647 144.971 65.7386C145.687 65.3125 146.526 65.0994 147.49 65.0994C148.137 65.0994 148.74 65.2038 149.298 65.4126C149.861 65.6171 150.351 65.9261 150.769 66.3394C151.191 66.7528 151.519 67.2727 151.753 67.8991C151.987 68.5213 152.105 69.25 152.105 70.0852V70.8331H143.814V69.1456H149.541C149.541 68.7535 149.456 68.4062 149.286 68.1036C149.115 67.8011 148.879 67.5646 148.576 67.3941C148.278 67.2194 147.931 67.1321 147.534 67.1321C147.121 67.1321 146.754 67.2279 146.435 67.4197C146.119 67.6072 145.872 67.8608 145.693 68.1804C145.514 68.4957 145.423 68.8473 145.419 69.235V70.8394C145.419 71.3252 145.508 71.745 145.687 72.0987C145.87 72.4524 146.128 72.7251 146.46 72.9169C146.793 73.1086 147.187 73.2045 147.643 73.2045C147.945 73.2045 148.222 73.1619 148.474 73.0767C148.725 72.9914 148.941 72.8636 149.119 72.6931C149.298 72.5227 149.435 72.3139 149.529 72.0667L152.047 72.2329C151.919 72.838 151.657 73.3664 151.261 73.8181C150.869 74.2656 150.362 74.615 149.74 74.8664C149.122 75.1136 148.408 75.2372 147.598 75.2372ZM153.882 75.0454V65.2272H156.521V66.9403H156.624C156.803 66.3309 157.103 65.8707 157.525 65.5596C157.947 65.2443 158.433 65.0866 158.982 65.0866C159.119 65.0866 159.266 65.0951 159.423 65.1122C159.581 65.1292 159.72 65.1527 159.839 65.1825V67.5987C159.711 67.5603 159.534 67.5262 159.308 67.4964C159.083 67.4666 158.876 67.4517 158.688 67.4517C158.288 67.4517 157.93 67.539 157.615 67.7137C157.303 67.8842 157.056 68.1228 156.873 68.4296C156.694 68.7365 156.605 69.0902 156.605 69.4907V75.0454H153.882ZM169.416 68.0269L166.923 68.1804C166.88 67.9673 166.789 67.7755 166.648 67.6051C166.507 67.4304 166.322 67.2919 166.092 67.1896C165.866 67.0831 165.596 67.0298 165.28 67.0298C164.858 67.0298 164.502 67.1193 164.213 67.2983C163.923 67.473 163.778 67.7073 163.778 68.0014C163.778 68.2358 163.872 68.4339 164.059 68.5958C164.247 68.7578 164.569 68.8877 165.025 68.9858L166.801 69.3437C167.756 69.5397 168.468 69.8551 168.936 70.2897C169.405 70.7244 169.64 71.2954 169.64 72.0028C169.64 72.6463 169.45 73.2109 169.071 73.6967C168.696 74.1825 168.18 74.5617 167.524 74.8345C166.872 75.1029 166.12 75.2372 165.267 75.2372C163.968 75.2372 162.932 74.9666 162.161 74.4254C161.394 73.8799 160.944 73.1384 160.812 72.2009L163.49 72.0603C163.571 72.4566 163.767 72.7592 164.078 72.968C164.39 73.1725 164.788 73.2748 165.274 73.2748C165.751 73.2748 166.135 73.1832 166.424 73C166.718 72.8125 166.868 72.5717 166.872 72.2777C166.868 72.0305 166.763 71.8281 166.559 71.6704C166.354 71.5085 166.039 71.3849 165.613 71.2997L163.912 70.9609C162.953 70.7691 162.24 70.4367 161.771 69.9637C161.306 69.4907 161.074 68.8877 161.074 68.1548C161.074 67.5241 161.245 66.9808 161.586 66.5248C161.931 66.0688 162.414 65.7173 163.037 65.4701C163.663 65.223 164.396 65.0994 165.235 65.0994C166.475 65.0994 167.451 65.3615 168.163 65.8856C168.879 66.4098 169.297 67.1235 169.416 68.0269Z" fill="#1E1B39"/>
<path d="M46.8041 41.409C46.7444 40.9053 46.5025 40.5142 46.0782 40.2358C45.654 39.9573 45.1336 39.8181 44.5171 39.8181C44.0664 39.8181 43.672 39.8911 43.3339 40.0369C42.9991 40.1827 42.7373 40.3832 42.5484 40.6384C42.3628 40.8937 42.27 41.1837 42.27 41.5085C42.27 41.7803 42.3346 42.0139 42.4639 42.2095C42.5964 42.4017 42.7655 42.5625 42.971 42.6917C43.1765 42.8177 43.3919 42.9221 43.6173 43.0049C43.8427 43.0845 44.0498 43.1491 44.2387 43.1988L45.2728 43.4772C45.538 43.5468 45.8329 43.6429 46.1578 43.7656C46.4859 43.8882 46.7991 44.0556 47.0974 44.2677C47.399 44.4765 47.6476 44.745 47.8431 45.0731C48.0387 45.4012 48.1365 45.8039 48.1365 46.2812C48.1365 46.8314 47.9923 47.3286 47.7039 47.7727C47.4189 48.2168 47.0013 48.5698 46.4511 48.8316C45.9042 49.0935 45.2397 49.2244 44.4575 49.2244C43.7283 49.2244 43.0969 49.1067 42.5633 48.8714C42.033 48.6361 41.6154 48.308 41.3105 47.887C41.0088 47.4661 40.8382 46.9772 40.7984 46.4204H42.0711C42.1043 46.8049 42.2335 47.1231 42.4589 47.375C42.6876 47.6235 42.9759 47.8091 43.324 47.9318C43.6753 48.0511 44.0531 48.1108 44.4575 48.1108C44.9281 48.1108 45.3507 48.0345 45.7252 47.8821C46.0998 47.7263 46.3964 47.5108 46.6151 47.2358C46.8339 46.9573 46.9433 46.6325 46.9433 46.2613C46.9433 45.9233 46.8488 45.6482 46.6599 45.436C46.471 45.2239 46.2224 45.0516 45.9142 44.919C45.6059 44.7864 45.2728 44.6704 44.9149 44.571L43.662 44.213C42.8666 43.9843 42.2368 43.6579 41.7728 43.2336C41.3088 42.8094 41.0768 42.2542 41.0768 41.5681C41.0768 40.9981 41.2309 40.5009 41.5392 40.0767C41.8507 39.6491 42.2683 39.3177 42.792 39.0823C43.319 38.8437 43.9073 38.7244 44.5569 38.7244C45.2132 38.7244 45.7965 38.842 46.3069 39.0774C46.8173 39.3094 47.2217 39.6276 47.52 40.0319C47.8216 40.4363 47.9807 40.8953 47.9972 41.409H46.8041ZM53.3256 41.409V42.4034H49.3682V41.409H53.3256ZM50.5216 39.5795H51.6949V46.8579C51.6949 47.1893 51.7429 47.4379 51.839 47.6036C51.9385 47.7661 52.0644 47.8754 52.2169 47.9318C52.3727 47.9848 52.5367 48.0113 52.7091 48.0113C52.8383 48.0113 52.9444 48.0047 53.0273 47.9914C53.1101 47.9749 53.1764 47.9616 53.2261 47.9517L53.4648 49.0056C53.3852 49.0355 53.2742 49.0653 53.1317 49.0951C52.9891 49.1283 52.8085 49.1448 52.5898 49.1448C52.2583 49.1448 51.9335 49.0736 51.6153 48.9311C51.3005 48.7885 51.0386 48.5715 50.8298 48.2798C50.6243 47.9881 50.5216 47.6202 50.5216 47.1761V39.5795ZM57.3376 49.2244C56.8537 49.2244 56.4146 49.1332 56.0202 48.9509C55.6257 48.7653 55.3125 48.4985 55.0805 48.1505C54.8485 47.7992 54.7325 47.375 54.7325 46.8778C54.7325 46.4403 54.8187 46.0857 54.991 45.8139C55.1634 45.5388 55.3937 45.3233 55.6821 45.1676C55.9704 45.0118 56.2886 44.8958 56.6366 44.8196C56.988 44.74 57.3409 44.677 57.6956 44.6306C58.1596 44.571 58.5358 44.5262 58.8241 44.4964C59.1158 44.4633 59.3279 44.4086 59.4605 44.3323C59.5964 44.2561 59.6643 44.1235 59.6643 43.9346V43.8948C59.6643 43.4043 59.5301 43.0232 59.2616 42.7514C58.9965 42.4796 58.5938 42.3437 58.0535 42.3437C57.4934 42.3437 57.0542 42.4663 56.7361 42.7116C56.4179 42.9569 56.1942 43.2187 56.0649 43.4971L54.9513 43.0994C55.1501 42.6354 55.4153 42.2741 55.7467 42.0156C56.0815 41.7537 56.4461 41.5715 56.8405 41.4687C57.2382 41.3626 57.6293 41.3096 58.0138 41.3096C58.259 41.3096 58.5407 41.3394 58.8589 41.3991C59.1804 41.4554 59.4903 41.5731 59.7886 41.7521C60.0902 41.9311 60.3405 42.2012 60.5393 42.5625C60.7382 42.9237 60.8376 43.4076 60.8376 44.0142V49.0454H59.6643V48.0113H59.6047C59.5251 48.177 59.3925 48.3544 59.2069 48.5433C59.0213 48.7322 58.7744 48.8929 58.4662 49.0255C58.1579 49.1581 57.7818 49.2244 57.3376 49.2244ZM57.5166 48.1704C57.9806 48.1704 58.3717 48.0793 58.6899 47.897C59.0114 47.7147 59.2533 47.4794 59.4157 47.191C59.5815 46.9027 59.6643 46.5994 59.6643 46.2812V45.2073C59.6146 45.267 59.5052 45.3217 59.3362 45.3714C59.1705 45.4178 58.9782 45.4592 58.7595 45.4957C58.5441 45.5288 58.3336 45.5587 58.1281 45.5852C57.9259 45.6084 57.7619 45.6283 57.6359 45.6448C57.331 45.6846 57.046 45.7492 56.7808 45.8387C56.519 45.9249 56.3068 46.0558 56.1444 46.2315C55.9854 46.4038 55.9058 46.6392 55.9058 46.9375C55.9058 47.3451 56.0566 47.6534 56.3582 47.8622C56.6631 48.0677 57.0493 48.1704 57.5166 48.1704ZM66.3002 41.409V42.4034H62.3428V41.409H66.3002ZM63.4962 39.5795H64.6695V46.8579C64.6695 47.1893 64.7175 47.4379 64.8137 47.6036C64.9131 47.7661 65.039 47.8754 65.1915 47.9318C65.3473 47.9848 65.5113 48.0113 65.6837 48.0113C65.8129 48.0113 65.919 48.0047 66.0019 47.9914C66.0847 47.9749 66.151 47.9616 66.2007 47.9517L66.4394 49.0056C66.3598 49.0355 66.2488 49.0653 66.1063 49.0951C65.9637 49.1283 65.7831 49.1448 65.5644 49.1448C65.2329 49.1448 64.9081 49.0736 64.5899 48.9311C64.2751 48.7885 64.0132 48.5715 63.8044 48.2798C63.5989 47.9881 63.4962 47.6202 63.4962 47.1761V39.5795ZM68.0651 49.0454V41.409H69.2384V49.0454H68.0651ZM68.6617 40.1363C68.433 40.1363 68.2358 40.0584 68.07 39.9027C67.9076 39.7469 67.8264 39.5596 67.8264 39.3409C67.8264 39.1221 67.9076 38.9349 68.07 38.7791C68.2358 38.6233 68.433 38.5454 68.6617 38.5454C68.8904 38.5454 69.0859 38.6233 69.2483 38.7791C69.414 38.9349 69.4969 39.1221 69.4969 39.3409C69.4969 39.5596 69.414 39.7469 69.2483 39.9027C69.0859 40.0584 68.8904 40.1363 68.6617 40.1363ZM76.7964 43.1193L75.7425 43.4176C75.6762 43.2419 75.5784 43.0712 75.4491 42.9055C75.3232 42.7365 75.1508 42.5973 74.9321 42.4879C74.7133 42.3785 74.4333 42.3238 74.0919 42.3238C73.6246 42.3238 73.2351 42.4315 72.9236 42.647C72.6153 42.8591 72.4612 43.1292 72.4612 43.4573C72.4612 43.749 72.5673 43.9794 72.7794 44.1484C72.9915 44.3174 73.3229 44.4583 73.7737 44.571L74.9072 44.8494C75.59 45.0151 76.0988 45.2687 76.4335 45.61C76.7683 45.9481 76.9356 46.384 76.9356 46.9176C76.9356 47.3551 76.8097 47.7462 76.5578 48.0909C76.3092 48.4356 75.9612 48.7073 75.5138 48.9062C75.0663 49.1051 74.546 49.2045 73.9527 49.2045C73.1738 49.2045 72.5291 49.0355 72.0187 48.6974C71.5083 48.3593 71.1852 47.8655 71.0493 47.2159L72.1629 46.9375C72.269 47.3484 72.4695 47.6567 72.7645 47.8622C73.0628 48.0677 73.4522 48.1704 73.9328 48.1704C74.4797 48.1704 74.9139 48.0544 75.2354 47.8224C75.5602 47.5871 75.7226 47.3054 75.7226 46.9772C75.7226 46.7121 75.6298 46.49 75.4442 46.311C75.2586 46.1287 74.9735 45.9929 74.589 45.9034L73.3163 45.6051C72.617 45.4393 72.1032 45.1825 71.7751 44.8345C71.4503 44.4831 71.2879 44.044 71.2879 43.517C71.2879 43.0861 71.4089 42.705 71.6508 42.3735C71.8961 42.0421 72.2292 41.7819 72.6501 41.593C73.0744 41.4041 73.555 41.3096 74.0919 41.3096C74.8476 41.3096 75.4408 41.4753 75.8717 41.8068C76.3059 42.1382 76.6141 42.5757 76.7964 43.1193ZM82.0228 41.409V42.4034H78.0654V41.409H82.0228ZM79.2188 39.5795H80.3921V46.8579C80.3921 47.1893 80.4402 47.4379 80.5363 47.6036C80.6357 47.7661 80.7617 47.8754 80.9142 47.9318C81.0699 47.9848 81.234 48.0113 81.4063 48.0113C81.5356 48.0113 81.6417 48.0047 81.7245 47.9914C81.8074 47.9749 81.8737 47.9616 81.9234 47.9517L82.162 49.0056C82.0825 49.0355 81.9714 49.0653 81.8289 49.0951C81.6864 49.1283 81.5058 49.1448 81.287 49.1448C80.9556 49.1448 80.6308 49.0736 80.3126 48.9311C79.9977 48.7885 79.7359 48.5715 79.5271 48.2798C79.3216 47.9881 79.2188 47.6202 79.2188 47.1761V39.5795ZM83.7877 49.0454V41.409H84.961V49.0454H83.7877ZM84.3843 40.1363C84.1556 40.1363 83.9584 40.0584 83.7927 39.9027C83.6303 39.7469 83.5491 39.5596 83.5491 39.3409C83.5491 39.1221 83.6303 38.9349 83.7927 38.7791C83.9584 38.6233 84.1556 38.5454 84.3843 38.5454C84.613 38.5454 84.8086 38.6233 84.971 38.7791C85.1367 38.9349 85.2195 39.1221 85.2195 39.3409C85.2195 39.5596 85.1367 39.7469 84.971 39.9027C84.8086 40.0584 84.613 40.1363 84.3843 40.1363ZM90.2123 49.2045C89.4964 49.2045 88.8799 49.0355 88.3628 48.6974C87.8458 48.3593 87.4481 47.8937 87.1697 47.3004C86.8912 46.7071 86.752 46.0293 86.752 45.267C86.752 44.4914 86.8946 43.807 87.1796 43.2137C87.468 42.6171 87.869 42.1515 88.3827 41.8167C88.8998 41.4786 89.503 41.3096 90.1924 41.3096C90.7293 41.3096 91.2132 41.409 91.6441 41.6079C92.075 41.8068 92.4279 42.0852 92.703 42.4431C92.9781 42.8011 93.1488 43.2187 93.2151 43.696H92.0418C91.9523 43.348 91.7535 43.0397 91.4452 42.7713C91.1403 42.4995 90.7293 42.3636 90.2123 42.3636C89.7549 42.3636 89.3538 42.4829 89.0091 42.7215C88.6678 42.9569 88.401 43.29 88.2087 43.7208C88.0198 44.1484 87.9253 44.6505 87.9253 45.2272C87.9253 45.8172 88.0181 46.3309 88.2037 46.7684C88.3927 47.2059 88.6578 47.5456 88.9992 47.7876C89.3439 48.0295 89.7483 48.1505 90.2123 48.1505C90.5172 48.1505 90.7939 48.0975 91.0425 47.9914C91.2911 47.8854 91.5016 47.7329 91.6739 47.534C91.8463 47.3352 91.9689 47.0965 92.0418 46.8181H93.2151C93.1488 47.2689 92.9848 47.6749 92.7229 48.0362C92.4644 48.3941 92.1214 48.6792 91.6938 48.8913C91.2696 49.1001 90.7757 49.2045 90.2123 49.2045ZM100.339 43.1193L99.2854 43.4176C99.2191 43.2419 99.1214 43.0712 98.9921 42.9055C98.8662 42.7365 98.6938 42.5973 98.4751 42.4879C98.2563 42.3785 97.9762 42.3238 97.6349 42.3238C97.1675 42.3238 96.7781 42.4315 96.4665 42.647C96.1583 42.8591 96.0042 43.1292 96.0042 43.4573C96.0042 43.749 96.1102 43.9794 96.3224 44.1484C96.5345 44.3174 96.8659 44.4583 97.3167 44.571L98.4502 44.8494C99.133 45.0151 99.6417 45.2687 99.9765 45.61C100.311 45.9481 100.479 46.384 100.479 46.9176C100.479 47.3551 100.353 47.7462 100.101 48.0909C99.8522 48.4356 99.5042 48.7073 99.0567 48.9062C98.6093 49.1051 98.0889 49.2045 97.4956 49.2045C96.7168 49.2045 96.0721 49.0355 95.5617 48.6974C95.0513 48.3593 94.7281 47.8655 94.5922 47.2159L95.7059 46.9375C95.8119 47.3484 96.0125 47.6567 96.3074 47.8622C96.6057 48.0677 96.9952 48.1704 97.4758 48.1704C98.0226 48.1704 98.4568 48.0544 98.7783 47.8224C99.1031 47.5871 99.2655 47.3054 99.2655 46.9772C99.2655 46.7121 99.1727 46.49 98.9871 46.311C98.8015 46.1287 98.5165 45.9929 98.132 45.9034L96.8593 45.6051C96.1599 45.4393 95.6462 45.1825 95.3181 44.8345C94.9933 44.4831 94.8309 44.044 94.8309 43.517C94.8309 43.0861 94.9519 42.705 95.1938 42.3735C95.4391 42.0421 95.7722 41.7819 96.1931 41.593C96.6173 41.4041 97.0979 41.3096 97.6349 41.3096C98.3905 41.3096 98.9838 41.4753 99.4147 41.8068C99.8489 42.1382 100.157 42.5757 100.339 43.1193Z" fill="#9291A5"/>
<defs>
<filter id="filter0_d_143_1073" x="0.642578" y="0.0454102" width="344" height="237.22" filterUnits="userSpaceOnUse" color-interpolation-filters="sRGB">
<feFlood flood-opacity="0" result="BackgroundImageFix"/>
<feColorMatrix in="SourceAlpha" type="matrix" values="0 0 0 0 0 0 0 0 0 0 0 0 0 0 0 0 0 0 127 0" result="hardAlpha"/>
<feOffset dy="2"/>
<feGaussianBlur stdDeviation="3"/>
<feComposite in2="hardAlpha" operator="out"/>
<feColorMatrix type="matrix" values="0 0 0 0 0.0509804 0 0 0 0 0.0392157 0 0 0 0 0.172549 0 0 0 0.08 0"/>
<feBlend mode="normal" in2="BackgroundImageFix" result="effect1_dropShadow_143_1073"/>
<feBlend mode="normal" in="SourceGraphic" in2="effect1_dropShadow_143_1073" result="shape"/>
</filter>
</defs>
</svg>
