<?xml version="1.0" encoding="UTF-8"?>
<!DOCTYPE svg PUBLIC "-//W3C//DTD SVG 1.1//EN" "http://www.w3.org/Graphics/SVG/1.1/DTD/svg11.dtd">
<!-- Creator: CorelDRAW 2017 -->
<svg xmlns="http://www.w3.org/2000/svg" xml:space="preserve" width="3.70333in" height="2.08333in" version="1.1" style="shape-rendering:geometricPrecision; text-rendering:geometricPrecision; image-rendering:optimizeQuality; fill-rule:evenodd; clip-rule:evenodd"
viewBox="0 0 3703 2083"
 xmlns:xlink="http://www.w3.org/1999/xlink"
 enable-background="new 0 0 64 64"
 xmlns:xodm="http://www.corel.com/coreldraw/odm/2003">
 <defs>
  <style type="text/css">
   <![CDATA[
    .fil0 {fill:#E6E7E8}
    .fil19 {fill:#2B2A25;fill-rule:nonzero}
    .fil5 {fill:#3B3830;fill-rule:nonzero}
    .fil23 {fill:#424038;fill-rule:nonzero}
    .fil18 {fill:#434657;fill-rule:nonzero}
    .fil14 {fill:#4E99A2;fill-rule:nonzero}
    .fil33 {fill:#555A6D;fill-rule:nonzero}
    .fil9 {fill:#5B5A4B;fill-rule:nonzero}
    .fil15 {fill:#5B5A4C;fill-rule:nonzero}
    .fil6 {fill:#5C5A4C;fill-rule:nonzero}
    .fil16 {fill:#5C5B4C;fill-rule:nonzero}
    .fil17 {fill:#65AEB6;fill-rule:nonzero}
    .fil21 {fill:#686866;fill-rule:nonzero}
    .fil7 {fill:#6E6D5D;fill-rule:nonzero}
    .fil13 {fill:#6F6E5D;fill-rule:nonzero}
    .fil29 {fill:#72726F;fill-rule:nonzero}
    .fil4 {fill:#741617;fill-rule:nonzero}
    .fil22 {fill:#777464;fill-rule:nonzero}
    .fil11 {fill:#7AC7CF;fill-rule:nonzero}
    .fil26 {fill:#838070;fill-rule:nonzero}
    .fil25 {fill:#969283;fill-rule:nonzero}
    .fil27 {fill:#97C1BF;fill-rule:nonzero}
    .fil12 {fill:#A6A48F;fill-rule:nonzero}
    .fil3 {fill:#AB1E24;fill-rule:nonzero}
    .fil10 {fill:#AD1E23;fill-rule:nonzero}
    .fil30 {fill:#B52C1A;fill-rule:nonzero}
    .fil24 {fill:#B7B29E;fill-rule:nonzero}
    .fil28 {fill:#CBE0DF;fill-rule:nonzero}
    .fil8 {fill:#DF3715;fill-rule:nonzero}
    .fil31 {fill:#F23325;fill-rule:nonzero}
    .fil20 {fill:#F9CC3D;fill-rule:nonzero}
    .fil32 {fill:#FFF35A;fill-rule:nonzero}
    .fil2 {fill:#373435;fill-opacity:0.031373}
    .fil1 {fill:#373435;fill-opacity:0.101961}
   ]]>
  </style>
 </defs>
 <g id="Layer_x0020_1">
  <metadata id="CorelCorpID_0Corel-Layer"/>
  <polygon class="fil0" points="0,0 3703,0 3703,2083 0,2083 "/>
  <polygon class="fil1" points="2069,789 2022,817 2049,787 2037,788 1936,849 1939,846 1944,842 1948,839 1953,835 1958,831 1963,827 1968,823 1973,820 1978,816 1983,812 1988,808 1993,805 1998,801 2003,798 2008,795 2013,791 2018,788 1793,925 1792,925 1787,926 1781,926 1775,926 1768,927 1762,927 1755,928 1748,929 1741,929 1734,930 1726,931 1718,932 1711,933 1703,934 1694,935 1686,936 1678,937 1669,938 1661,940 1652,941 1643,943 1634,944 1626,946 1618,948 1610,950 1602,952 1595,954 1588,956 1582,958 1575,961 1569,963 1563,966 1558,968 1552,971 1547,974 1542,976 1538,979 1381,1076 1381,1074 1381,1070 1381,1066 1381,1062 1381,1058 1381,1053 1381,1051 1430,1020 1430,1020 1429,1021 1428,1020 1427,1020 1426,1020 1425,1021 1420,1021 1416,1021 1411,1021 1407,1021 1402,1021 1399,1021 1425,1004 1424,1005 1422,1006 1421,1006 1419,1006 1418,1006 1416,1006 1415,1006 1413,1006 1410,1006 1407,1006 1405,1006 1402,1006 1399,1006 1396,1006 1393,1006 1390,1006 1388,1006 1386,1006 1384,1005 1384,1005 1415,986 1412,987 1409,988 1406,988 1403,988 1400,988 1397,988 1394,987 1392,986 1394,985 1395,984 1396,983 1396,982 1397,981 1397,979 1397,978 1397,974 1397,971 1397,968 1397,965 1397,961 1397,958 1397,955 1397,951 1397,948 1397,945 1397,942 1397,938 1397,935 1397,932 1397,928 1397,925 1397,924 1397,924 1397,923 1397,922 1397,922 1397,921 1397,920 1397,920 1397,918 1397,917 1398,916 1398,915 1399,914 1303,975 1303,973 1303,969 1303,966 1303,963 1303,960 1303,956 1303,953 1303,950 1303,947 1303,943 1303,940 1303,937 1303,934 1303,930 1303,927 1303,924 1303,923 1303,923 1303,922 1303,921 1303,921 1303,920 1303,919 1303,919 1304,917 1304,916 1305,915 1306,914 1307,913 1180,994 1180,987 1180,970 1180,953 1180,936 1180,919 1180,903 1180,886 1180,869 1181,852 1181,835 1181,818 1181,801 1181,784 1181,768 1181,751 1181,734 1180,717 1180,700 1180,683 1180,666 1180,649 1180,633 1180,632 1181,631 1181,631 1181,630 1181,630 1180,629 1180,629 1180,628 1180,620 1178,614 1175,609 1171,605 1167,602 1162,600 1156,599 1150,599 1142,599 1134,599 1125,599 1117,599 1109,599 1101,599 1093,599 1084,599 1076,599 1068,599 1060,599 1052,599 1044,599 1035,599 1027,599 1019,599 1011,599 1003,599 994,599 986,599 978,599 970,599 962,599 953,599 945,599 937,599 929,599 921,599 913,599 904,599 896,599 888,599 881,600 875,601 870,603 810,646 810,636 810,618 810,611 811,604 813,597 815,591 818,585 821,580 825,575 829,570 834,566 839,562 0,1166 0,1198 0,1223 0,1231 0,1255 0,1262 0,1266 0,1269 0,1271 0,1273 0,1305 0,1309 0,1309 0,1310 0,1316 0,1392 0,1397 0,1400 0,1413 0,1414 0,1417 0,1424 0,1436 0,1440 0,1445 0,1456 0,1490 0,1495 0,1521 0,1522 0,1525 0,1527 0,1527 0,1529 0,1530 0,1532 0,1534 0,1538 0,1555 0,1557 0,1557 0,1557 0,1557 0,1558 0,1559 0,1559 0,1562 0,1565 0,1566 0,1572 0,1573 0,1574 0,1574 0,1575 0,1579 0,1584 0,1592 0,1596 0,1598 0,1600 0,1600 0,1600 0,1616 0,1617 0,1620 0,1666 0,1683 0,1686 0,1686 0,1694 0,1698 0,1712 0,1714 0,1718 0,1719 0,1719 0,1722 0,1724 0,1726 0,1726 0,1728 0,1730 0,1730 0,1738 0,1738 0,1740 0,1753 0,1756 0,1760 0,1762 0,1762 0,1763 0,1764 0,1766 0,1767 0,1786 0,1796 0,1804 0,1804 0,1807 0,1808 0,1809 0,1810 0,1811 0,1811 0,1812 0,1814 0,1819 0,1820 0,1823 0,1830 0,1831 0,1834 0,1836 0,1836 0,1838 0,1838 0,1840 0,1840 0,1844 0,1851 0,1856 0,1858 0,1859 0,1860 0,1860 0,1861 0,1863 0,1863 0,1865 0,1866 0,1869 0,1870 0,1870 0,1873 0,1876 0,1881 0,1883 0,1884 0,1886 0,1887 0,1887 0,1888 0,1889 0,1891 0,1892 0,1893 0,1894 0,1898 0,1904 0,1907 0,1907 0,1909 0,1909 0,1910 0,1921 0,1922 0,1924 0,1926 0,1931 0,1943 0,1944 0,1944 0,1945 0,1954 0,1955 0,1955 0,1955 0,1956 0,1958 0,1960 0,1960 0,1961 0,1962 0,1963 0,1964 0,1964 0,1964 0,1965 0,1967 0,1968 0,1970 0,1971 0,1971 0,1972 0,1975 0,1979 0,1980 0,1983 0,1986 0,1989 0,1990 0,1995 0,1997 0,1998 0,2002 0,2005 0,2006 0,2015 0,2015 0,2016 0,2031 0,2037 0,2040 0,2041 0,2041 0,2059 0,2062 0,2064 0,2068 0,2070 0,2072 0,2072 0,2078 20,2078 21,2078 23,2078 23,2078 36,2078 38,2078 40,2078 54,2078 54,2078 57,2078 58,2078 59,2078 72,2078 74,2078 87,2078 100,2078 101,2078 107,2078 108,2078 117,2078 117,2078 119,2078 127,2078 127,2078 127,2078 128,2078 134,2078 135,2078 138,2078 139,2078 139,2078 149,2078 150,2078 150,2078 155,2078 160,2078 171,2078 177,2078 181,2078 182,2078 183,2078 183,2078 184,2078 186,2078 187,2078 190,2078 191,2078 192,2078 194,2078 197,2078 197,2078 197,2078 198,2078 200,2078 200,2078 200,2078 202,2078 207,2078 210,2078 214,2078 214,2078 217,2078 218,2078 219,2078 222,2078 223,2078 227,2078 230,2078 230,2078 237,2078 248,2078 251,2078 256,2078 259,2078 259,2078 262,2078 263,2078 265,2078 265,2078 265,2078 265,2078 266,2078 272,2078 273,2078 273,2078 278,2078 281,2078 282,2078 285,2078 287,2078 290,2078 290,2078 293,2078 293,2078 293,2078 294,2078 299,2078 301,2078 302,2078 302,2078 304,2078 305,2078 305,2078 321,2078 340,2078 341,2078 343,2078 355,2078 356,2078 356,2078 357,2078 357,2078 357,2078 357,2078 365,2078 366,2078 367,2078 376,2078 377,2078 389,2078 392,2078 399,2078 410,2078 410,2078 419,2078 420,2078 437,2078 440,2078 444,2078 448,2078 451,2078 499,2078 506,2078 624,2078 677,2078 688,2078 706,2078 714,2078 715,2078 737,2078 745,2078 745,2078 747,2078 773,2078 773,2078 773,2078 774,2078 781,2078 789,2078 791,2078 792,2078 795,2078 795,2078 809,2078 810,2078 835,2078 838,2078 842,2078 852,2078 856,2078 867,2078 872,2078 880,2078 885,2078 886,2078 902,2078 905,2078 911,2078 912,2078 921,2078 922,2078 922,2078 925,2078 925,2078 928,2078 930,2078 930,2078 931,2078 931,2078 933,2078 936,2078 937,2078 938,2078 941,2078 942,2078 944,2078 947,2078 949,2078 951,2078 954,2078 955,2078 957,2078 958,2078 961,2078 964,2078 965,2078 966,2078 967,2078 967,2078 975,2078 975,2078 976,2078 982,2078 999,2078 1002,2078 1003,2078 1006,2078 1010,2078 1010,2078 1011,2078 1011,2078 1012,2078 1013,2078 1015,2078 1016,2078 1017,2078 1020,2078 1021,2078 1022,2078 1026,2078 1029,2078 1033,2078 1035,2078 1035,2078 1038,2078 1040,2078 1041,2078 1043,2078 1045,2078 1047,2078 1050,2078 1050,2078 1052,2078 1053,2078 1053,2078 1056,2078 1057,2078 1071,2078 1075,2078 1092,2078 1094,2078 1094,2078 1095,2078 1095,2078 1095,2078 1095,2078 1097,2078 1104,2078 1112,2078 1123,2078 1139,2078 1139,2078 1163,2078 1172,2078 1172,2078 1178,2078 1185,2078 1185,2078 1185,2078 1202,2078 1211,2078 1214,2078 2716,1302 2726,1296 2735,1289 2743,1281 2750,1272 2757,1263 2757,1262 2860,1209 2865,1206 2870,1203 2875,1199 2880,1195 2883,1191 2886,1187 2888,1183 2890,1179 2892,1175 2893,1171 2893,1166 2893,1162 2893,1157 2893,1152 2893,1147 2892,1142 2891,1137 2891,1132 2890,1128 2889,1123 2888,1113 2886,1106 2884,1100 2882,1095 2880,1092 2878,1089 2877,1088 2877,1088 2852,1065 2852,1065 2851,1065 2851,1063 2850,1062 2850,1060 2849,1057 2848,1054 2847,1050 2846,1046 2845,1041 2844,1035 2843,1029 2842,1022 2841,1014 2840,1006 2839,997 2838,988 2836,979 2834,971 2831,963 2828,955 2825,949 2822,942 2818,936 2815,931 2811,927 2808,923 2806,919 2803,917 2802,915 2801,914 2800,913 2799,913 2793,914 2785,914 2774,914 2760,915 2744,915 2725,916 2704,917 2681,918 2673,918 2712,897 2636,781 2384,785 2346,807 2346,804 2347,795 2347,789 2348,784 2348,782 2347,782 2345,782 2341,781 2337,781 2331,781 2323,781 2315,781 2306,781 2297,781 2286,781 2275,781 2264,781 2252,781 2240,781 2227,782 2214,782 2202,782 2189,783 2177,783 2164,783 2152,784 2141,784 2130,784 2120,785 2110,785 2101,785 2093,786 2086,786 2081,787 2076,787 2072,787 2070,788 "/>
  <path class="fil2" d="M218 1826c7,11 12,21 16,32 3,7 5,19 21,19 5,0 11,-1 17,-5 7,-3 12,-9 14,-17l6 -21 15 -7 1 1c-2,8 -3,16 -3,21 0,18 15,24 27,24 7,0 13,-4 13,-10 0,-8 -4,-23 -8,-35 7,-7 14,-14 22,-20l1 1c4,15 6,30 6,40 0,10 -4,20 -8,27 -7,14 -20,25 -36,25 -12,0 -25,-6 -34,-17l-1 0c-9,11 -22,20 -43,20l-7 0c-1,14 -4,24 -9,33 -13,25 -50,42 -85,42 -49,0 -73,-28 -73,-66 0,-23 8,-45 19,-60l10 4c-7,14 -12,27 -12,40 0,35 29,52 62,52 31,0 68,-19 75,-42 -3,-25 -12,-36 -26,-59 4,-7 10,-15 17,-23l1 0 0 0 2 1 0 0 0 0 0 0 0 0 0 0 0 0 0 0zm564 -133c10,6 20,14 30,23 -6,8 -12,15 -21,21 -10,-8 -20,-15 -30,-22 7,-8 14,-15 20,-22l0 0 1 0 0 0 0 0 0 0 0 0 0 0 0 0zm5 96c-17,0 -30,11 -30,19 0,17 33,23 73,23 -5,-20 -22,-42 -43,-42l0 0zm-37 93c22,0 41,-1 55,-4 16,-4 30,-12 30,-18 0,-2 0,-3 -1,-5 -9,1 -19,1 -29,1 -29,0 -52,-7 -61,-23 -2,-5 -4,-10 -4,-16 0,-16 7,-32 19,-42 10,-9 21,-14 33,-14 20,0 37,16 48,42 6,14 11,30 11,51 0,14 -4,25 -12,34 -16,15 -45,21 -90,21l-20 0 0 0 -5 0c-11,0 -19,-2 -25,-7l-1 0c0,3 1,5 1,7 0,10 -3,23 -10,33 -20,30 -42,43 -60,43 -19,0 -42,-7 -63,-17l4 -7c7,3 16,5 29,5 34,0 78,-33 84,-64 -1,-3 -4,-6 -7,-10 -10,-12 -16,-22 -22,-32 5,-10 10,-18 14,-25l2 0c14,29 28,46 57,46l5 0 0 0 21 0 0 0 -3 1 0 0 0 0 0 0 0 0 0 0 0 0zm-146 31c2,-14 3,-29 3,-43l0 -21c0,-39 -5,-96 -9,-133 7,-8 17,-17 25,-23l2 1c5,47 7,101 7,151 0,13 -1,26 -2,35 -1,12 -8,21 -22,35l-3 -1 0 0 -1 -1 0 0 0 0 0 0 0 0 0 0 0 0zm-151 -62c1,18 10,33 41,33 20,0 36,-5 55,-14 3,-1 5,-3 5,-5 0,-12 -9,-27 -24,-41 -14,-13 -34,-25 -51,-32 -6,-3 -8,-5 -8,-8 0,-5 7,-16 13,-24l2 0c20,11 43,27 60,44 15,16 25,33 25,51 0,13 -4,26 -11,38 -22,11 -46,20 -70,20 -29,0 -48,-14 -48,-45 0,-3 0,-9 1,-16l10 0 0 0 0 -1 0 0 0 0 0 0 0 0 0 0 0 0 0 0zm-52 -52l18 29c7,11 13,22 13,41l0 24c0,19 -12,39 -32,60 -15,14 -29,20 -42,20 -19,0 -40,-6 -65,-17l3 -7c8,2 17,4 28,4 36,0 72,-26 89,-58 2,-4 3,-7 3,-9 0,-4 -2,-8 -4,-11 -9,-17 -19,-33 -30,-47 6,-9 12,-18 18,-27l1 0 0 -2 0 0 0 0 0 0 0 0 0 0 0 0 0 0z"/>
  <g id="_2293179467520">
   <g>
    <path class="fil3" d="M1116 1259c-24,0 -47,0 -71,0 -8,3 -15,3 -23,0 -48,0 -96,0 -145,0 -40,0 -67,-27 -67,-67 0,-189 0,-379 0,-568 0,-40 28,-67 67,-67 95,0 190,0 285,0 39,0 67,28 67,67 0,190 0,379 0,569 0,39 -28,66 -67,67 -8,0 -16,0 -24,0 -8,3 -15,3 -23,0z"/>
    <path class="fil4" d="M1022 1259c8,0 15,0 23,0 0,30 -2,61 1,91 7,75 69,140 143,151 97,15 184,-48 200,-144 1,-7 1,-14 2,-21 1,-2 0,-5 0,-7 0,-72 0,-144 0,-217 0,-9 0,-10 10,-10 13,0 13,0 13,13 0,72 0,144 0,215 0,2 0,5 0,7 -3,59 -27,108 -73,144 -116,93 -288,29 -316,-117 -2,-12 -3,-24 -3,-36 0,-24 0,-48 0,-71z"/>
    <path class="fil5" d="M1116 1259c8,0 15,0 23,0 0,24 0,48 0,72 1,37 28,69 65,76 48,9 94,-27 95,-76 1,-54 0,-107 0,-161 0,-21 0,-43 0,-64 5,-5 19,-5 23,0 0,76 0,151 0,227 0,7 -1,13 -3,20 -12,49 -57,81 -108,78 -47,-3 -88,-42 -93,-90 -2,-16 -1,-32 -1,-48 0,-11 0,-23 0,-34z"/>
    <path class="fil3" d="M1414 1339c0,-3 0,-6 0,-9 0,-72 0,-144 0,-217 0,-6 -2,-8 -8,-8 -14,0 -14,0 -14,14 0,70 0,140 0,211 0,3 1,5 -1,8 0,-13 0,-25 0,-38 0,-62 0,-124 0,-186 0,-4 0,-8 -5,-9 -3,-1 -5,-4 -5,-8 -1,-22 0,-45 0,-67 0,-3 1,-5 4,-5 13,-1 25,-1 38,0 1,0 2,1 2,2 0,22 0,45 0,67 0,6 -2,11 -8,12 -4,1 -2,4 -2,6 0,18 0,36 0,55 0,54 0,107 0,161 0,4 0,8 -1,12z"/>
    <path class="fil6" d="M1321 1107c-8,-3 -15,-2 -23,0 -3,-2 -8,-3 -10,-8 -1,-13 0,-25 -1,-38 0,-10 0,-21 0,-31 0,-3 0,-6 4,-6 12,-1 24,-1 37,0 1,0 2,1 3,2 0,21 0,42 0,63 0,9 -2,16 -11,18z"/>
    <path class="fil7" d="M1332 1026c-12,0 -24,0 -37,0 -5,0 -6,2 -6,6 0,22 0,45 0,67 -2,-2 -1,-5 -1,-7 0,-20 0,-39 0,-59 0,-3 2,-8 -5,-8 -2,0 -2,-14 0,-14 7,0 4,-5 5,-9 0,-2 0,-4 1,-5 1,1 2,2 2,3 2,8 2,8 10,8 10,0 21,-1 31,1 2,2 6,0 6,3 1,4 1,8 0,12 -1,3 -4,1 -6,2z"/>
    <path class="fil8" d="M1425 1026c-12,0 -25,0 -37,0 -5,0 -6,2 -6,7 0,21 0,43 0,64 -1,-20 0,-40 -1,-61 0,-4 3,-10 -5,-11 -3,0 -1,-13 3,-14 2,-1 2,-2 2,-3 0,-2 0,-5 1,-7 2,9 9,9 17,9 9,0 18,-1 26,0 2,2 6,0 6,2 1,4 1,8 0,12 -1,3 -4,1 -6,2z"/>
    <path class="fil9" d="M1391 991c4,-1 6,-3 6,-8 0,-18 0,-35 0,-53 0,-2 0,-4 0,-5 0,-4 2,-7 6,-7 5,0 6,3 6,7 0,17 0,35 0,52 0,2 0,4 0,6 0,4 2,7 6,8 -8,4 -16,4 -24,0z"/>
    <path class="fil9" d="M1297 991c6,-1 7,-4 7,-10 0,-17 0,-35 0,-52 0,-2 0,-4 0,-5 1,-4 3,-6 7,-6 4,0 5,3 5,7 0,10 0,20 0,30 0,9 0,18 0,27 0,5 0,9 7,10 -8,4 -17,4 -25,0z"/>
    <path class="fil6" d="M1297 991c8,0 17,0 25,0 9,3 10,5 9,19 -6,3 -12,1 -18,1 -4,0 -8,0 -11,0 -13,0 -13,0 -14,-14 1,-4 4,-6 8,-7z"/>
    <path class="fil10" d="M1391 991c8,0 16,0 24,0 9,3 10,5 10,19 -4,3 -8,1 -11,1 -8,0 -16,0 -24,0 -6,0 -9,-1 -8,-8 0,-1 0,-2 0,-3 0,-6 4,-9 10,-9z"/>
    <path class="fil5" d="M859 908c0,-92 0,-183 0,-275 0,-20 9,-29 29,-29 87,0 175,0 262,0 17,0 30,7 31,29 0,2 0,3 0,5 0,180 0,360 0,540 0,8 0,16 -5,23 -5,7 -12,10 -20,10 -91,0 -181,0 -272,0 -14,0 -24,-10 -24,-25 0,-93 0,-185 0,-278z"/>
    <path class="fil11" d="M1149 629c5,2 7,6 7,10 0,51 0,102 0,154 0,5 -2,9 -8,11 -21,1 -42,0 -63,0 -3,0 -4,-2 -5,-4 -20,-33 -40,-66 -60,-98 -13,-22 -27,-44 -40,-67 -1,-2 -6,-5 1,-7 54,0 108,0 162,0 2,0 5,-1 7,1z"/>
    <path class="fil12" d="M1055 876c24,6 44,20 61,38 17,19 27,41 30,67 5,37 -4,70 -28,99 -19,24 -45,39 -75,45 -41,7 -78,-2 -109,-30 -31,-28 -45,-63 -43,-104 1,-29 12,-55 31,-77 16,-19 36,-32 60,-38 4,0 3,3 3,5 0,7 1,14 0,21 -2,5 -6,6 -10,9 -35,19 -54,49 -54,88 0,44 28,80 67,92 36,12 68,4 97,-21 23,-20 33,-46 32,-76 -1,-35 -18,-62 -48,-81 -5,-3 -12,-5 -16,-11 -1,-9 -3,-19 1,-28z"/>
    <path class="fil13" d="M1055 876c0,10 0,20 0,30 0,0 -1,0 -1,0 -9,0 -9,0 -9,9 0,42 0,84 0,126 0,4 0,8 -1,11 -2,10 -9,16 -19,17 -4,0 -9,0 -13,0 -9,-1 -17,-8 -17,-17 0,-3 0,-6 0,-9 0,-42 0,-84 0,-126 0,-10 0,-10 -9,-12 0,0 -1,-1 -1,-1 0,-7 0,-15 0,-22 0,-2 1,-5 -1,-6 1,0 1,-1 2,-1 8,-1 12,-4 11,-14 -1,-7 7,-13 14,-13 5,0 10,0 15,0 8,0 17,7 16,15 0,7 2,11 9,12 1,0 2,1 3,1z"/>
    <path class="fil14" d="M1082 804c22,0 44,0 65,0 -2,2 -5,1 -7,1 -81,0 -162,0 -242,0 -10,0 -13,-3 -13,-14 0,-50 0,-100 0,-150 0,-10 3,-13 14,-13 81,0 163,0 244,0 2,0 5,-1 7,1 -57,0 -115,0 -172,0 -3,3 -6,2 -9,2 -17,0 -35,0 -52,0 -8,0 -10,1 -10,10 0,51 0,101 0,152 0,8 1,9 11,9 41,0 82,0 122,0 12,0 23,0 35,0 3,0 6,0 9,2z"/>
    <path class="fil15" d="M890 855c0,-13 9,-23 22,-23 13,0 23,9 23,22 0,13 -8,22 -23,23 -13,1 -22,-9 -22,-23z"/>
    <path class="fil16" d="M1105 855c0,-13 10,-23 23,-22 12,0 23,11 23,23 0,12 -11,22 -23,22 -10,0 -25,-12 -23,-23z"/>
    <path class="fil15" d="M1128 1183c-14,0 -23,-9 -23,-22 -1,-10 10,-22 22,-23 11,0 23,12 23,23 0,13 -10,22 -22,22z"/>
    <path class="fil6" d="M912 1183c-12,0 -22,-10 -22,-23 0,-14 10,-22 23,-22 11,0 23,11 22,21 -1,13 -11,25 -23,23z"/>
    <path class="fil17" d="M1082 804c-57,0 -114,0 -171,0 -5,0 -8,-2 -8,-7 0,-53 0,-106 0,-159 0,-6 2,-9 9,-9 22,0 43,0 65,0 12,19 24,38 35,57 13,22 27,44 40,66 9,15 18,30 27,45 1,2 2,4 3,6z"/>
    <path class="fil13" d="M1055 906c21,9 38,23 50,42 10,17 15,36 14,56 -1,26 -11,47 -30,66 -14,15 -32,23 -51,27 -20,4 -40,2 -59,-7 -31,-14 -50,-38 -57,-71 -5,-25 -2,-49 11,-70 10,-17 24,-32 43,-40 3,-1 5,-3 8,-5 0,0 0,0 0,0 2,5 2,10 2,15 0,43 0,86 0,129 0,12 5,21 16,26 11,4 24,5 35,-1 11,-5 15,-15 15,-27 0,-30 0,-60 0,-90 0,-14 0,-28 0,-42 0,-3 0,-6 2,-9l0 0z"/>
    <path class="fil9" d="M1055 906c0,48 0,95 0,143 0,17 -13,30 -30,30 -9,0 -18,1 -26,-4 -9,-6 -14,-13 -14,-24 0,-45 0,-90 0,-135 0,-4 -1,-8 0,-12 12,-1 12,-1 12,12 0,41 1,82 0,123 0,23 5,30 28,28 3,0 6,0 9,-2 7,-4 10,-11 10,-18 0,-44 0,-89 0,-133 0,-13 0,-13 12,-8z"/>
   </g>
   <g>
    <path class="fil18" d="M1840 933c0,0 34,-26 74,-60 40,-34 108,-90 148,-99 40,-8 237,-10 336,-10 110,0 233,-8 266,11 33,20 140,151 140,151l-340 52 -625 -45z"/>
    <path class="fil19" d="M1583 1240c0,0 -105,-15 -105,-29 0,-14 -7,-152 11,-181 18,-29 59,-66 153,-82 95,-17 174,-20 195,-18 21,1 70,14 216,13 146,-1 746,-24 746,-24 0,0 35,33 39,84 4,50 13,68 13,68l25 22c0,0 10,8 13,35 3,26 11,53 -10,73 -25,24 -59,26 -59,26l-1238 14z"/>
    <path class="fil20" d="M2889 1128c-3,-26 -13,-35 -13,-35l-25 -22c0,0 -4,-18 -8,-68 -4,-50 -43,-84 -43,-84 0,0 -600,22 -746,24 -146,1 -195,-11 -216,-13 -21,-1 -100,1 -195,18 -95,17 -135,53 -153,82 -18,29 -11,167 -11,181 0,14 105,29 105,29l56 -1c-4,-13 -7,-28 -7,-42 0,-74 60,-135 135,-135 75,0 135,60 135,135 0,0 0,0 0,1l0 0c0,13 -2,26 -5,39l620 -7c-3,-10 -4,-21 -4,-32 0,-74 60,-135 135,-135 75,0 135,60 135,135 0,0 0,0 0,1l0 0c0,10 -1,19 -3,29l40 0c0,0 33,-3 59,-26 20,-19 13,-46 10,-73z"/>
    <path class="fil21" d="M2830 1182c-21,-15 -20,-49 -36,-82 -17,-33 -56,-64 -119,-71 -65,-7 -132,17 -173,57 -37,37 -49,93 -49,93l-506 4c0,0 0,-45 -52,-106 -52,-61 -201,-53 -250,-1 -34,36 -56,95 -56,95 0,0 -47,1 -63,-1 -13,-2 -51,-17 -51,-17 0,29 1,53 1,59 0,14 105,29 105,29l56 -1c-4,-13 -7,-28 -7,-42 0,-74 60,-135 135,-135 75,0 135,60 135,135 0,0 0,0 0,1l0 0c0,13 -2,26 -5,39l620 -7c-3,-10 -4,-21 -4,-32 0,-74 60,-135 135,-135 75,0 135,60 135,135 0,0 0,0 0,1l0 0c0,10 -1,19 -3,29l40 0c0,0 31,-3 55,-24 -16,-5 -35,-13 -46,-21z"/>
    <path class="fil22" d="M1895 1192c0,68 -55,122 -122,122 -68,0 -122,-55 -122,-122 0,-68 55,-122 122,-122 68,0 122,55 122,122z"/>
    <path class="fil23" d="M1819 1080c36,21 67,57 69,101 2,61 -25,130 -128,127 -16,0 -35,-4 -50,-10 18,11 45,16 68,16 68,0 117,-54 117,-121 0,-51 -32,-95 -76,-113z"/>
    <path class="fil24" d="M1847 1192c0,41 -33,75 -75,75 -41,0 -75,-33 -75,-75 0,-41 33,-75 75,-75 41,0 75,33 75,75z"/>
    <path class="fil25" d="M1841 1192c0,38 -31,69 -69,69 -38,0 -69,-31 -69,-69 0,-38 31,-69 69,-69 38,0 69,31 69,69z"/>
    <path class="fil22" d="M1821 1192c0,27 -22,49 -49,49 -27,0 -49,-22 -49,-49 0,-27 22,-49 49,-49 27,0 49,22 49,49z"/>
    <path class="fil25" d="M1780 1224c0,4 -3,7 -7,7 -4,0 -7,-3 -7,-7l0 -65c0,-4 3,-7 7,-7 4,0 7,3 7,7l0 65z"/>
    <path class="fil25" d="M1805 1184c4,0 7,3 7,7 0,4 -3,7 -7,7l-65 0c-4,0 -7,-3 -7,-7 0,-4 3,-7 7,-7l65 0z"/>
    <path class="fil25" d="M1801 1210c3,3 3,7 0,10 -3,3 -7,3 -10,0l-46 -46c-3,-3 -3,-7 0,-10 3,-3 7,-3 10,0l46 46z"/>
    <path class="fil25" d="M1790 1164c3,-3 7,-3 10,0 3,3 3,7 0,10l-46 46c-3,3 -7,3 -10,0 -3,-3 -3,-7 0,-10l46 -46z"/>
    <path class="fil25" d="M1801 1192c0,16 -13,28 -28,28 -16,0 -28,-13 -28,-28 0,-16 13,-28 28,-28 16,0 28,13 28,28z"/>
    <path class="fil26" d="M1662 1186c0,0 -3,-45 41,-81 25,-21 59,-24 77,-24 8,0 12,1 12,1l-4 8c0,0 -3,0 -7,0 -14,0 -43,2 -69,22 -38,28 -39,67 -39,67l-10 8z"/>
    <path class="fil24" d="M1776 1159c0,2 -1,3 -3,3 -2,0 -3,-1 -3,-3 0,-2 2,-3 3,-3 2,0 3,1 3,3z"/>
    <path class="fil24" d="M1799 1168c0,2 -1,3 -3,3 -2,0 -3,-1 -3,-3 0,-2 1,-3 3,-3 2,0 3,1 3,3z"/>
    <path class="fil24" d="M1810 1192c0,2 -1,3 -3,3 -2,0 -3,-1 -3,-3 0,-2 1,-3 3,-3 2,0 3,2 3,3z"/>
    <path class="fil24" d="M1800 1217c0,2 -1,3 -3,3 -2,0 -3,-1 -3,-3 0,-2 2,-3 3,-3 2,0 3,1 3,3z"/>
    <path class="fil24" d="M1776 1225c0,2 -1,3 -3,3 -2,0 -3,-1 -3,-3 0,-2 1,-3 3,-3 2,0 3,1 3,3z"/>
    <path class="fil24" d="M1753 1215c0,2 -1,3 -3,3 -2,0 -3,-1 -3,-3 0,-2 2,-3 3,-3 2,0 3,1 3,3z"/>
    <path class="fil24" d="M1743 1192c0,2 -1,3 -3,3 -2,0 -3,-1 -3,-3 0,-2 2,-3 3,-3 2,0 3,2 3,3z"/>
    <path class="fil24" d="M1753 1168c0,2 -1,3 -3,3 -2,0 -3,-1 -3,-3 0,-2 2,-3 3,-3 2,0 3,1 3,3z"/>
    <path class="fil24" d="M1788 1192c0,9 -7,15 -15,15 -9,0 -15,-7 -15,-15 0,-9 7,-15 15,-15 9,0 15,7 15,15z"/>
    <path class="fil22" d="M2776 1199c0,68 -55,122 -122,122 -68,0 -122,-55 -122,-122 0,-68 55,-122 122,-122 68,0 122,55 122,122z"/>
    <path class="fil23" d="M2700 1087c36,21 67,57 69,101 2,61 -25,130 -128,127 -16,0 -35,-4 -50,-10 18,11 45,16 68,16 68,0 117,-54 117,-121 0,-51 -32,-95 -76,-113z"/>
    <path class="fil24" d="M2729 1199c0,41 -33,75 -75,75 -41,0 -75,-33 -75,-75 0,-41 33,-75 75,-75 41,0 75,33 75,75z"/>
    <path class="fil25" d="M2723 1199c0,38 -31,69 -69,69 -38,0 -69,-31 -69,-69 0,-38 31,-69 69,-69 38,0 69,31 69,69z"/>
    <path class="fil22" d="M2703 1199c0,27 -22,49 -49,49 -27,0 -49,-22 -49,-49 0,-27 22,-49 49,-49 27,0 49,22 49,49z"/>
    <path class="fil25" d="M2661 1231c0,4 -3,7 -7,7 -4,0 -7,-3 -7,-7l0 -65c0,-4 3,-7 7,-7 4,0 7,3 7,7l0 65z"/>
    <path class="fil25" d="M2686 1191c4,0 7,3 7,7 0,4 -3,7 -7,7l-65 0c-4,0 -7,-3 -7,-7 0,-4 3,-7 7,-7l65 0z"/>
    <path class="fil25" d="M2682 1217c3,3 3,7 0,10 -3,3 -7,3 -10,0l-46 -46c-3,-3 -3,-7 0,-10 3,-3 7,-3 10,0l46 46z"/>
    <path class="fil25" d="M2672 1171c3,-3 7,-3 10,0 3,3 3,7 0,10l-46 46c-3,3 -7,3 -10,0 -3,-3 -3,-7 0,-10l46 -46z"/>
    <path class="fil25" d="M2682 1199c0,16 -13,28 -28,28 -16,0 -28,-13 -28,-28 0,-16 13,-28 28,-28 16,0 28,13 28,28z"/>
    <path class="fil26" d="M2661 1088l-1 0c-18,0 -51,3 -76,24 -44,36 -41,81 -41,81l10 -8c0,0 1,-38 39,-67 25,-19 55,-22 69,-22 5,0 7,0 7,0l4 -8c0,0 -5,-1 -12,-1z"/>
    <path class="fil24" d="M2657 1166c0,2 -1,3 -3,3 -2,0 -3,-2 -3,-3 0,-2 1,-3 3,-3 2,0 3,1 3,3z"/>
    <path class="fil24" d="M2680 1175c0,2 -2,3 -3,3 -2,0 -3,-2 -3,-3 0,-2 1,-3 3,-3 2,0 3,1 3,3z"/>
    <path class="fil24" d="M2691 1199c0,2 -1,3 -3,3 -2,0 -3,-1 -3,-3 0,-2 1,-3 3,-3 2,0 3,1 3,3z"/>
    <path class="fil24" d="M2682 1224c0,2 -2,3 -3,3 -2,0 -3,-1 -3,-3 0,-2 1,-3 3,-3 2,0 3,1 3,3z"/>
    <path class="fil24" d="M2657 1232c0,2 -1,3 -3,3 -2,0 -3,-2 -3,-3 0,-2 1,-3 3,-3 2,0 3,1 3,3z"/>
    <path class="fil24" d="M2634 1222c0,2 -1,3 -3,3 -2,0 -3,-1 -3,-3 0,-2 2,-3 3,-3 2,0 3,1 3,3z"/>
    <path class="fil24" d="M2625 1199c0,2 -1,3 -3,3 -2,0 -3,-2 -3,-3 0,-2 1,-3 3,-3 2,0 3,1 3,3z"/>
    <path class="fil24" d="M2634 1175c0,2 -1,3 -3,3 -2,0 -3,-2 -3,-3 0,-2 2,-3 3,-3 2,0 3,1 3,3z"/>
    <path class="fil24" d="M2669 1199c0,9 -7,15 -15,15 -9,0 -15,-7 -15,-15 0,-9 7,-15 15,-15 9,0 15,7 15,15z"/>
    <path class="fil27" d="M1960 923c0,0 96,-125 110,-130 14,-4 277,-10 277,-6 0,4 -11,125 -11,125l-376 10z"/>
    <polygon class="fil27" points="2384,790 2374,907 2712,902 2636,786 "/>
    <path class="fil27" d="M1582 994c-22,3 -41,17 -53,33 -15,20 -25,44 -2,43 21,0 31,-15 50,-33 19,-18 31,-46 6,-43z"/>
    <path class="fil28" d="M1525 1053c-1,0 -2,0 -2,-1 -4,-3 3,-17 16,-30 10,-11 21,-19 26,-19 1,0 2,0 2,1 4,3 -3,17 -16,30 -10,11 -21,19 -26,19z"/>
    <path class="fil29" d="M1596 997l-5 -2c0,0 11,10 -23,48 -30,33 -54,23 -54,23l1 4c0,0 3,8 24,3 22,-5 46,-37 57,-55 10,-18 0,-20 0,-20z"/>
    <path class="fil30" d="M2843 993c0,0 -47,-1 -52,-1 -5,0 -12,5 -12,12 0,7 4,51 5,56 1,5 9,11 17,11 9,0 52,1 52,1l-10 -80z"/>
    <polygon class="fil31" points="2790,1001 2794,1061 2812,1061 2808,1000 "/>
    <polygon class="fil32" points="1879,962 1771,1009 2802,978 2761,934 "/>
    <path class="fil32" d="M1973 1172l456 -6c0,0 -44,-33 -184,-38 -140,-4 -272,44 -272,44z"/>
    <path class="fil19" d="M1965 1186l0 -2c0,-1 -33,-116 -34,-164 -1,-63 17,-81 17,-81 1,-1 2,-1 3,0 1,1 1,2 0,3 0,0 -17,18 -16,78 1,45 30,148 34,162l388 -4c5,-11 41,-99 39,-157 -2,-61 -37,-86 -37,-86 -1,-1 -1,-2 -1,-3 1,-1 2,-1 3,-1 1,1 37,27 39,90 2,62 -39,159 -40,160l-1 1 -1 0 -393 4z"/>
    <path class="fil19" d="M2365 990c0,4 -4,8 -8,8l-65 0c-4,0 -8,-4 -8,-8 0,-4 4,-8 8,-8l65 0c4,0 8,4 8,8z"/>
    <polygon class="fil33" points="2037,793 1878,920 1930,926 2049,792 "/>
    <path class="fil32" d="M1596 1115c0,0 7,-28 39,-56 26,-23 95,-30 95,-30l19 -20c0,0 -91,-2 -134,30 -40,30 -49,95 -49,95l30 -19z"/>
   </g>
  </g>
 </g>
</svg>
