<?xml version="1.0" encoding="UTF-8"?>
<!DOCTYPE svg PUBLIC "-//W3C//DTD SVG 1.1//EN" "http://www.w3.org/Graphics/SVG/1.1/DTD/svg11.dtd">
<!-- Creator: CorelDRAW 2020 (64-Bit) -->
<svg xmlns="http://www.w3.org/2000/svg" xml:space="preserve" width="94.1916mm" height="52.9166mm" version="1.1" style="shape-rendering:geometricPrecision; text-rendering:geometricPrecision; image-rendering:optimizeQuality; fill-rule:evenodd; clip-rule:evenodd" viewBox="0 0 9404.92 5283.66" xmlns:xlink="http://www.w3.org/1999/xlink" xmlns:xodm="http://www.corel.com/coreldraw/odm/2003">
 <defs>
  <style type="text/css">
   <![CDATA[
    .fil0 {fill:#E6E7E8}
    .fil3 {fill:#FEFEFE}
    .fil5 {fill:#23203A;fill-rule:nonzero}
    .fil6 {fill:#34324C;fill-rule:nonzero}
    .fil15 {fill:#44435E;fill-rule:nonzero}
    .fil18 {fill:#545470;fill-rule:nonzero}
    .fil22 {fill:#656C9A;fill-rule:nonzero}
    .fil10 {fill:#7D86B2;fill-rule:nonzero}
    .fil25 {fill:#7F0057;fill-rule:nonzero}
    .fil20 {fill:#8C7988;fill-rule:nonzero}
    .fil11 {fill:#A6ACC6;fill-rule:nonzero}
    .fil8 {fill:#BC978B;fill-rule:nonzero}
    .fil4 {fill:#CE4638;fill-rule:nonzero}
    .fil19 {fill:#CEAFA3;fill-rule:nonzero}
    .fil24 {fill:#D6543E;fill-rule:nonzero}
    .fil17 {fill:#DFC4B7;fill-rule:nonzero}
    .fil14 {fill:#E05A44;fill-rule:nonzero}
    .fil13 {fill:#EA6F53;fill-rule:nonzero}
    .fil21 {fill:#EFD9D0;fill-rule:nonzero}
    .fil9 {fill:#FF816C;fill-rule:nonzero}
    .fil12 {fill:#FF8F80;fill-rule:nonzero}
    .fil23 {fill:#FFC5B3;fill-rule:nonzero}
    .fil16 {fill:#FFD747;fill-rule:nonzero}
    .fil7 {fill:white;fill-rule:nonzero}
    .fil2 {fill:#373435;fill-opacity:0.031373}
    .fil1 {fill:#2B2A29;fill-opacity:0.101961}
   ]]>
  </style>
 </defs>
 <g id="Layer_x0020_1">
  <metadata id="CorelCorpID_0Corel-Layer"/>
  <polygon class="fil0" points="-0,0 9404.92,0 9404.92,5283.66 -0,5283.66 "/>
  <path class="fil1" d="M334.18 5283.66l-0.19 0 -5.54 0 -5.02 0 -1.87 0 -2.47 0 -28.71 0 -4.08 0 -10.29 0 -7.22 0 -3.04 0 -0.13 0 -22.34 0 -0.59 0 -1.14 0 -1.18 0 -2.79 0 -14.63 0 -2.7 0 -14.37 0 -23.85 0 -0.03 0 -1.95 0 -0.71 0 -1.68 0 -14.18 0 -8.02 0 -10.54 0 -8.15 0 -1.89 0 -0.15 0 -9.36 0 -0.04 0 -1.14 0 -4.77 0 -2.92 0 -1.14 0 -0.05 0 -1.23 0 -3.49 0 -0.01 0 -8.33 0 -0.29 0 -1.02 0 -0.09 0 -3.1 0 -2.26 0 -0.18 0 -3.91 0 -6.32 0 -0.6 0 -1.83 0 -6.09 0 -4.47 0 -0.96 0 -3.5 0 -0.09 0 -5.66 0 -0.38 0 -4.05 0 -3.47 0 -2.45 0 -0.45 0 -20.27 0 -0.22 0 -4.73 0 -0.01 0 -14.53 0 -3.93 0 -6.85 0 -0.58 0 0 -0.44 0 -2.34 0 -8.28 0 -4.58 0 -4.03 0 -1.57 0 -10.81 0 -0.29 0 -0.04 0 -4.44 0 -0.3 0 -1.84 0 -1.03 0 -3.19 0 -0.29 0 -0.7 0 -5.54 0 -0.36 0 -0.39 0 -3.19 0 -3.47 0 -1.46 0 -0.14 0 -1.27 0 -5.52 0 -3.72 0 -3.84 0 -6.21 0 -2.3 0 -0.32 0 -0.3 0 -0.18 0 -1.81 0 -6.12 0 -0.01 0 -2.35 0 -2.46 0 -7.29 0 -5.19 0 -1 0 -9.37 0 -3.99 0 -0.84 0 -0.3 0 -4.25 0 -6.87 0 -6.06 0 -3.84 0 -3.8 0 -0.69 0 -0.03 0 -4.29 0 -0.01 0 -5.24 0 -5.32 0 -0.02 0 -0.45 0 -0.23 0 -4.15 0 -0.72 0 -1.19 0 -0.31 0 -0.01 0 -1.03 0 -0.79 0 -4.67 0 -1.58 0 -2.3 0 -1.02 0 -2.08 0 -11.2 0 -12.67 0 -0.31 0 -1.68 0 -4.96 0 -0.76 0 -4.69 0 -0.71 0 -10.6 0 -15.28 0 -11.12 0 -0.72 0 -2.13 0 -2.5 0 -0.86 0 -7.06 0 -0.96 0 -1.26 0 -2.44 0 -4.55 0 -1.51 0 -0.4 0 -0.9 0 -0.69 0 -0.2 0 -0.11 0 -3.83 0 -1.89 0 -2.92 0 -0.13 0 -0.42 0 -7.05 0 -6.12 0 -2.09 0 -1.91 0 -0.64 0 -5.79 0 -0.2 0 -3 0 -2.08 0 -0.01 0 -0.46 0 -7.65 0 -0.91 0 -6.44 0 -3.9 0 -5.75 0 -0.98 0 -0.62 0 -0.44 0 -1.19 0 -11.25 0 -7.06 0 -0.33 0 -0.01 0 -1.98 0 -2.23 0 -4.02 0 -7.17 0 -1.78 0 -2.12 0 -2.18 0 -0.09 0 -0.86 0 -1.21 0 -3.75 0 -6.53 0 -1.31 0 -1.02 0 -0.89 0 -1.12 0 -1 0 -0.53 0 -0.57 0 -1.41 0 -0.48 0 -0.76 0 -0.57 0 -0.33 0 -1.82 0 -1.3 0 -0.1 0 -1.26 0 -1.38 0 -0.98 0 -0.23 0 -0.33 0 -0.29 0 -0.52 0 -0.81 0 -0.07 0 -0.63 0 -0.56 0 -2.44 0 -0.2 0 -0.13 0 -0.68 0 -0.08 0 -0.71 0 -0.09 0 -1.62 0 -0.32 0 -0.36 0 -0.11 0 -0.03 0 -0.4 0 -0.34 0 -0.55 0 -1.12 0 -0.27 0 -0.35 0 -0.16 0 -0.42 0 -0.32 0 -0.15 0 -0.2 0 -0.03 0 -0.16 0 -1.42 0 -0.82 0 -0.06 0 -0.38 0 -0.04 0 -0.08 0 -0.23 0 -0.02 0 -0.14 0 -0.95 0 -0.21 0 -1.06 0 -0.09 0 -0.39 0 -0.02 0 -0.08 0 -0.22 0 -0.17 0 -0.49 0 -0.06 0 -0.82 0 -0.85 0 -0.46 0 -0.44 0 -0.3 0 -0.1 0 -0.08 0 -0.06 0 -0.03 0 -0.87 0 -1.05 0 -0.26 0 -0.84 0 -0.07 0 -0.08 0 -0.32 0 -0.59 0 -0.15 0 -0.26 0 -0.89 0 -0.66 0 -0.15 0 -0.05 0 -0.44 0 -0.01 0 -0.55 0 -0.19 0 -0.04 0 -0.22 0 -0.85 0 -0.88 0 -0.43 0 -0.02 0 -0.8 0 -0.09 0 -0.12 0 -0.67 0 -0.16 0 -0.89 0 -0.42 0 -0.04 0 -0.8 0 -0.09 0 -0.13 0 -0.31 0 -0.23 0 -0.12 0 -0.43 0 -0.02 0 -0.9 0 -0.11 0 -0.92 0 -0.03 0 -0.22 0 -0.43 0 -0.12 0 -0.09 0 -0.35 0 -0.03 0 -0.11 0 -0.79 0 -0.08 0 -0.96 0 -0.2 0 -0.69 0 -0.19 0 -0.13 0 -0.03 0 -0.11 0 -0.39 0 -0.41 0 -1.23 0 -0.1 0 -0.02 0 -0.55 0 -0.21 0 -0.23 0 -0.03 0 -0.2 0 -0.04 0 -0.32 0 -0.25 0 -0.46 0 -0.76 0 -0.11 0 -0.77 0 -0.26 0 -0.21 0 -0.91 0 -0.08 0 -0.14 0 -0.69 0 -0.18 0 -0.7 0 -0.45 0 -0.11 0 -0.88 0 -0.91 0 -0.09 0 -0.37 0 -0.39 0 -0.52 0 -0.39 0 -0.46 0 -0.04 0 -0.61 0 -0.29 0 -0.37 0 -0.1 0 -0.68 0 -0.04 0 -0.51 0 -0.04 0 -0.04 0 -0.43 0 -0.06 0 -0.15 0 -0.14 0 -0.03 0 -0.58 0 -0.48 0 -0.61 0 -0.09 0 -1.04 0 -0.37 0 -0.54 0 -0.51 0 -1.78 0 -0.29 0 -0.58 0 -0.49 0 -2.05 0 -0.07 0 -0.08 0 -0.38 0 -0.03 0 -0.06 0 -0.65 0 -0.16 0 -1.97 0 -0.55 0 -0.2 0 -0.33 0 -1.07 0 -1.47 0 -1.67 0 -0.06 0 -3.06 0 -1.68 0 -0.62 0 -0.15 0 -0.26 0 -0.31 0 -0.22 0 -0.82 0 -3.53 0 -0.04 0 -0.47 0 -0.04 0 -2.6 0 -0.09 0 -1.17 0 -0.37 0 -0.11 0 -0.95 0 -0.83 0 -0.22 0 -4.41 0 -7.37 0 -1.57 0 -2.46 0 -2.86 0 -7.04 0 -15.52 0 -0.78 0 -0.91 0 -4.68 0 -23.66 0 -1.66 0 -4.7 0 -18.04 0 -6.32 0 -5.63 0 -10.14 0 -20.33 0 -5.31 0 -11.25 0 -1.25 0 -0.49 0 -0.49 0 -1.37 0 -5.71 0 -0.78 0 -1.61 0 -5.68 0 -2.67 0 -5.57 0 -27.24 0 -31.84 0 -2.25 0 -28.46 0 -0.85 0 -3.28 0 -0.83 0 -6.65 0 -14.67 0 -8.48 0 -1.34 0 -2.36 0 -4.1 0 -1.32 0 -2.48 0 -0.95 0 -1.7 0 -0.43 0 -9.52 0 -12.22 0 -4.11 0 -2.8 0 -12.74 0 -6.68 0 -4.41 0 -2 0 -0.94 0 -0.39 0 -0.01 0 -3.45 0 -1.36 0 -0.94 0 -12.22 0 -0.61 0 -0.24 0 -1.1 0 -2.69 0 -3.71 0 -3.76 0 -13.87 0 -1.42 0 -21.51 0 -4.2 0 -4.82 0 -0.03 0 -1.33 0 -1.92 0 -15.46 0 -1.37 0 -9.04 0 -0.71 0 -0.63 0 -1.73 0 -0.13 0 -1.01 0 -6.87 0 -5.69 0 -0.02 0 -0.8 0 -4.63 0 -2.29 0 -8.74 0 -0.77 0 -2.06 0 -2.14 0 -0.69 0 -3.06 0 -0.59 0 -3.04 0 -2.09 0 -1.99 0 -6.95 0 -6.06 0 -3.74 0 -1.98 0 -5.74 0 -5.74 0 -12.69 0 -0.01 0 -4.59 0 -1.04 0 -3.86 0 -0.13 0 -1.32 0 -0.03 0 -0.96 0 -1.38 0 -3.15 0 -1.15 0 -3.91 0 -1.82 0 -0.91 0 -0.88 0 -0.72 0 -6.34 0 -0.01 0 -2.5 0 -1.88 0 -5.15 0 -12.74 0 -2.85 0 -0.98 0 -8.76 0 -0.57 0 -5.88 0 -6.78 0 -0.54 0 -1.53 0 -0.07 0 -1.2 0 -5.58 0 -1.56 0 -7.77 0 -0.36 0 -0.86 0 -1.89 0 -3.35 0 -4.23 0 -3.03 0 -8.26 0 -0.52 0 -0.05 0 -5.95 0 -1.08 0 -0.93 0 -0.33 0 -1.1 0 -1.18 0 -4.53 0 -0.42 0 -4.51 0 -0.03 0 -5.55 0 -0.71 0 -2.21 0 -0.2 0 -0.46 0 -0.46 0 -1.62 0 -2.97 0 -0.34 0 -0.57 0 -0.85 0 -2.26 0 -0.01 0 -3.06 0 -0.5 0 -0.71 0 -0.71 0 -6.13 0 -0.01 0 -0.71 0 -0.81 0 -1.73 0 -0.04 0 -1.99 0 -0.22 0 -1.88 0 -1.65 0 -0.14 0 -0.25 0 -0.41 0 -0.17 0 -5.99 0 -0.02 0 -2.9 0 -0.47 0 -0.26 0 -3.01 0 -1.24 0 -3.85 0 -6.9 0 -2.44 0 -2.2 0 -1.98 0 -1.73 0 -10.53 0 -0.74 0 -1.65 0 -5.05 0 -1.06 0 -1.54 0 -3.06 0 -0.48 0 -2.78 0 -0.69 0 -2.43 0 -2.36 0 -0.07 0 -0.31 0 -4.47 0 -0.02 0 -1.62 0 -0.42 0 -2.28 0 -3.87 0 -0.3 0 -0.42 0 -5.61 0 -0.03 0 -2.93 0 -1.65 0 -7.92 0 -12.3 0 -0.03 0 -5.23 0 -4.99 0 -5.85 0 -2.48 0 -6.32 0 -2.34 0 -1.03 0 -1.04 0 -4.49 0 -0.88 0 -0.87 0 -0.58 0 -5.88 0 -1.78 0 -12.59 0 -2.95 0 -1.28 0 -9.33 0 -1.33 0 -5.58 0 -2.26 0 -0.03 0 -0.93 0 -3.6 0 -0.01 0 -0.09 0 -12.39 0 -0.72 0 -9.27 0 -3.67 0 -4.52 0 -3.43 0 -0.01 0 -7.67 0 -1.19 0 -0.55 0 -6.05 0 -0.36 0 -1.66 0 -0.71 0 -0.97 0 -1.93 0 -1.9 0 -0.01 0 -3.09 0 -1.46 0 -1.14 0 -0.94 0 -2.48 0 -0.35 0 -0.5 0 -0.56 0 -0.65 0 -0.31 0 -2 0 -2.55 0 -8.14 0 -0.35 0 -0.61 0 -3.24 0 -5.02 0 -1.58 0 -7.88 0 -0.4 0 -1.11 0 -3.92 0 -0.14 0 -3.09 0 -6.04 0 -0.47 0 -5.21 0 -0.63 0 -1.83 0 -0.4 0 -0.09 0 -0.11 0 -4.1 0 -0.18 0 -2.42 0 -4.47 0 -0.01 0 -1.39 0 -1.39 0 -4.88 0 -4.19 0 -2.81 0 -0.29 0 -3.56 0 -11.85 0 -0.08 0 -4.15 0 -0.01 0 -3.2 0 -6.48 0 -4.33 0 -4.52 0 -1.82 0 -5.69 0 -1.6 0 -11.88 0 -1.6 0 -8.97 0 -0.27 0 -0.01 0 -7.35 0 -13.77 0 -12.36 0 -1.15 0 -0.1 0 -7.68 0 -6.77 0 -0.86 0 -11.17 0 -0.01 0 -1.05 0 -13.11 0 -12.6 0 -0.01 0 -13.28 0 -7.89 0 -1.47 0 -41.18 0 -5.7 0 -6.31 0 -13.26 0 -26.51 0 -0.22 0 -0.41 0 -5.05 0 -20.04 0 -0.01 0 -12.83 0 -0.01 0 -1.8 0 -0.04 0 -4.36 0 -1.37 0 -0.03 0 -25.7 0 -23.13 0 -10.98 0 -18.33 0 -24.51 0 -3.5 0 -10.55 0 -0.16 0 -14.06 0 -1.65 0 -0.68 0 -3.77 0 -0.92 0 -0.82 0 -15.43 0 -9.08 0 -0.88 0 -32.83 0 -0.04 0 -0.01 0 -0.02 0 -29.96 0 -30.22 0 -17.39 0 -9.22 0 -30.37 0 -462.39 3925.91 -1768.32 -88.38 39.95 -86.02 44.05 -83.54 48.04 -80.95 51.9 -78.21 55.62 -75.37 59.23 -72.39 62.71 -69.29 66.06 -66.06 69.29 -62.71 72.39 -59.23 75.37 -55.62 78.21 -51.9 80.95 -48.04 83.54 -44.05 86.02 -4.66 10.3 1716.45 -738.25 21.7 -8.42 21.07 -7.05 20.44 -5.76 19.79 -4.54 19.13 -3.41 18.48 -2.35 17.8 -1.37 17.14 -0.45 9.49 0.22 3.09 -0.17 7.85 0.27 9.52 0.85 7.12 0.94 10.22 1.24 14.37 2.43 13.65 2.97 7.24 1.91 14.16 3.4 16.06 4.23 16.58 4.76 16.95 5.29 17.14 5.8 17.19 6.32 17.06 6.82 16.78 7.31 16.32 7.78 8.92 -1.7 10.07 -2.07 10.18 -2.21 10.3 -2.33 10.41 -2.43 10.51 -2.49 10.61 -2.53 10.69 -2.55 10.77 -2.55 10.85 -2.51 10.92 -2.46 10.99 -2.38 11.03 -2.27 11.09 -2.14 11.13 -1.98 11.17 -1.81 11.2 -1.59 11.22 -1.37 11.24 -1.12 11.26 -0.83 11.25 -0.54 11.26 -0.2 11.25 0.15 11.23 0.53 11.21 0.94 11.19 1.36 11.15 1.82 11.11 2.29 26.83 6.57 27.18 7.8 27.45 8.94 27.64 9.97 27.76 10.93 27.79 11.78 27.75 12.55 27.63 13.21 27.42 13.78 27.14 14.26 26.79 14.64 26.34 14.93 25.83 15.12 25.23 15.22 24.56 15.23 23.8 15.13 22.98 14.95 22.06 14.67 21.08 14.3 20 13.82 18.86 13.26 17.63 12.61 16.33 11.85 14.94 11 13.48 10.06 11.94 9.04 10.31 7.9 8.62 6.67 6.84 5.36 4.98 3.94 3.05 2.44 1.04 0.83 0.02 0 0.9 0.83 9.23 7.87 8.98 11.43 7.85 13.82 6.76 15.83 5.74 17.48 3.85 15.13 0.65 0.58 4.91 5.33 5.28 7.19 5.19 9.18 4.64 11.32 3.61 13.6 1.7 11.73 0.91 11.47 0.23 11.15 -0.36 10.75 -0.87 10.29 -1.28 9.77 -1.6 9.17 -1.82 8.49 -1.96 7.76 -1.38 4.81 0.18 0.35 0.97 3.35 0.46 5.98 -0.98 8.9 -3.35 12.12 -6.67 15.66 -5.13 9.16 -0.33 1.37 -5.46 19.26 -6.58 20.17 -7.75 20.9 -8.93 21.43 -10.13 21.78 -11.37 21.94 -12.62 21.9 -13.91 21.67 -15.21 21.26 -16.54 20.66 -17.89 19.86 -19.28 18.87 -20.68 17.71 -22.11 16.34 -23.56 14.79 -1.05 0.58 -3.11 1.73 -5.12 2.87 -7.07 3.98 -8.97 5.1 -10.82 6.19 -12.61 7.28 -14.36 8.35 -7.5 2.85 -1.89 1.09 -4.36 2.54 -4.27 2.54 -14.9 5.65 0.3 7.87 -0.04 0.03 -0.83 22.59 -2.45 22.85 -3.97 22.98 -5.43 22.94 -6.8 22.76 -8.1 22.42 -9.32 21.94 -10.44 21.29 -11.5 20.5 -12.48 19.55 -13.38 18.45 -14.19 17.21 -14.94 15.81 -15.6 14.26 -16.18 12.56 -16.67 10.69 -16.49 8.48 -16 6.03 -1045.12 387.13 0.2 5.2 -0.83 22.59 -2.45 22.86 -3.97 22.98 -5.43 22.94 -6.8 22.76 -8.09 22.43 -9.32 21.93 -10.44 21.29 -11.5 20.5 -12.48 19.55 -13.37 18.46 -14.2 17.2 -14.94 15.81 -0.77 0.71 258.28 -93.44 1.63 -0.21 1.53 0.21 1.36 0.63 1.16 1.06 0.82 1.37 8.72 4.35 -0.56 0.6 1.13 0.52 1.16 1.06 0.89 1.48 0.57 1.9 0.2 2.33 0 138.48 59.74 -21.26 70.28 40.25 247.32 -87.43 13.61 -3.64 14.74 -2.29 14.96 -0.87 14.25 0.63 12.6 2.19 10.04 3.8 4.29 2.47 4.77 2.79 5.11 3.18 5.32 3.61 5.4 4.11 5.35 4.68 5.17 5.29 4.85 5.98 4.4 6.72 3.81 7.52 3.12 8.38 2.27 9.3 1.28 10.26 0.18 11.31 -1.06 12.4 -2.44 13.56 -5.03 20.41 -5.01 16.06 -5.05 12.44 -5.19 9.56 -5.4 7.38 -5.69 5.94 -6.05 5.23 -6.51 5.24 -1.32 0.87 -0.03 1.41 0.85 10.84 0.19 1.1 1.09 -0.38 9.33 -2.52 6.95 1.31 2.8 2.21 6.57 0.09 10.76 1.86 10.92 4.21 10.52 7.18 6.31 6.68 7 9.54 7.52 11.89 7.9 13.73 8.11 15.05 8.17 15.86 8.06 16.15 7.8 15.92 -8.94 7.61 -9.1 6.79 -0.33 0.21 1.68 5.17 1.73 6.13 50.72 -17.16 17.58 -2.75 15.89 2.4 10.17 5.35 0.56 -0.19 39.46 23.64 -0.95 0.62 2.92 1.53 11.4 11.86 8.6 16.19 5.43 20.23 1.9 23.99 0 196.09 -84.56 49.37 0.14 7.7 0.07 7.44 -0.03 6.2 -0.15 4.77 0.06 9.52 0.38 11.42 0.35 12.99 -0.02 14.22 -0.73 15.1 -1.79 15.65 -3.19 15.85 -4.93 15.71 -7.02 15.24 -9.45 14.42 -12.21 13.27 -15.34 11.76 -18.8 9.93 -22.6 7.76 -148.12 47.3 0 51.37 146.56 -46.53 3.59 -0.89 3.61 -0.12 3.55 0.6 3.39 1.29 3.14 1.94 2.81 2.55 2.36 3.11 1.7 3.46 0.89 3.59 0.12 3.61 -0.6 3.55 -1.29 3.39 -1.94 3.14 -1.83 2.02 4.08 2.01 4.52 3.14 4.22 4.2 3.82 5.08 3.33 5.75 2.76 6.23 2.09 6.5 1.32 6.58 0.46 6.46 -0.46 5.91 -1.32 4.97 -2.09 3.97 -2.76 2.9 -0.22 0.12 0.08 0.18 -17.15 9.09 -0.73 0.76 -3.34 1.73 -117.53 36.83 115.08 66.54 3.11 2.36 2.55 2.81 1.94 3.14 1.29 3.39 0.6 3.55 -0.12 3.61 -0.89 3.59 -1.7 3.46 -2.05 2.7 2.23 2.96 3.34 5.75 2.76 6.23 2.09 6.5 1.32 6.58 0.46 6.46 -0.46 5.91 -1.32 4.97 -2.09 3.97 -2.76 2.9 -3.34 1.73 -0.37 0.11 -15.56 9.73 -1.16 0.36 -2.08 1.07 -988.69 303.06 27.81 7.9 96.51 22.28 98.25 17.54 99.84 12.68 101.32 7.71 102.66 2.6 102.66 -2.6 101.32 -7.71 99.84 -12.68 98.25 -17.54 96.51 -22.28 94.68 -26.89 -2496.89 736.5 -963.54 0 -1.25 0 -14.22 0 -2.26 0 -29.38 0 -15.37 0 -99.64 0 -14.93 0 -14.87 0 -15.1 0 -3.15 0 -12.84 0 -0.68 0 -32.4 0 -22.91 0 -2.23 0 -10.62 0 -2.34 0 -31.27 0 -12.79 0 -130.66 0 -8.53 0 -1.72 0 -2.31 0 -3.43 0 -14.72 0 -0.02 0 -41.67 0 -2.13 0 -10.19 0 -1.16 0 -31.32 0 -12.27 0 -77.91 0 -48.7 0 -4.9 0 -7.13 0 -3.68 0 -0.66 0 -13.28 0 -0.05 0 -50.07 0 -41.82 0 -42.46 0 -2.12 0 -12.88 0 -1.12 0 -16.6 0 -11.25 0 -51.14 0 -11.05 0 -16.11 0 -47.56 0 -5.06 0 -6.08 0 -9.81 0 -7.75 0 -11.53 0 -1.8 0 -3.67 0 -5.26 0 -0.87 0 -12.72 0 -9.95 0 -2.1 0 -13.45 0 -3.47 0 -3.39 0 -12.75 0 -1.61 0 -0.05 0 -0.53 0 -14.2 0 -1.05 0 -2.92 0 -34.94 0 -1.9 0 -4.4 0 -2.01 0 -4.28 0 -1.36 0 -1.23 0 -1.38 0 -2.42 0 -25.29 0 -5.67 0 -8.9 0 -0.02 0 -5.68 0 -19.4 0 -3.29 0 -4.39 0 -0.06 0 -14.77 0 -0.06 0 -15.95 0 -0.05 0 -13.07 0 -9.88 0 -7.76 0 -0.38 0 -2.21 0 -11.88 0 -8.59 0 -1.61 0 -0.05 0 -6.02 0 -2.99 0 -2.67 0 -0.95 0 -1.76 0 -4.31 0 -1.98 0 -5.55 0 -6.4 0 -0.63 0 -0.14 0 -0.51 0 -0.03 0 -0.57 0 -0.08 0 -5.59 0 -0.9 0 -0.61 0 -13.97 0 -6.88 0 -3.08 0 -16.06 0 -3.68 0 -9.02 0 -0.95 0 -4.09 0zm4013.71 -2496.66l0 0.01 98.83 -36.59 -98.83 36.58zm809.35 969.85l-0.02 0.01 100.9 -32.77 -100.88 32.76z"/>
  <path class="fil2" d="M578.49 4627.69c17.95,27.21 29.6,53.36 40.96,82.43 8.45,16.91 12.93,48.09 52.57,48.09 11.61,0 28.28,-3.42 43.06,-11.61 16.63,-8.73 29.32,-21.94 35.94,-42l15.85 -53.36 38.57 -19.02 2.64 2.64c-5.27,20.09 -6.59,39.36 -6.59,54.43 0,44.63 38.57,61.56 69.22,61.56 17.95,0 34.09,-8.73 34.09,-25.11 0,-21.13 -8.98,-57.06 -20.62,-89.29 17.95,-17.95 35.94,-35.94 56.53,-50.47l3.17 1.6c8.98,38.04 14,75.56 14,100.66 0,24.57 -10.83,51.79 -19.81,69.49 -18.49,34.87 -51.25,62.62 -90.87,62.62 -30.1,0 -63.65,-15.07 -86.66,-43.06l-1.32 0c-21.66,26.96 -55.22,51.25 -108.86,51.25l-16.63 0c-2.64,35.41 -10.29,60.49 -21.94,82.95 -31.95,62.34 -126.81,106.47 -216.1,106.47 -124.17,0 -186.51,-71.59 -186.51,-166.96 0,-58.91 19.27,-113.6 48.88,-152.42l24.29 10.04c-18.49,35.41 -30.91,68.68 -30.91,101.45 0,89.29 72.66,131.83 156.4,131.83 77.68,0 173.83,-49.41 191.28,-106.72 -6.59,-62.62 -30.1,-91.93 -66.04,-148.99 10.83,-19.02 24.83,-38.04 42.28,-58.38l3.17 0 0 0 0 0 -0.02 -0.09zm1432.13 -336.04c26.15,16.39 51.79,35.66 76.87,57.85 -14,19.81 -31.45,37.79 -53.11,53.64 -25.11,-20.34 -50.19,-37.79 -75.84,-56.27 17.42,-19.55 34.62,-38.29 52.04,-55.22l0 0 0 0 0 0 0 0 0 0 0.03 0zm13.47 244.11c-42.28,0 -76.87,27.75 -76.87,48.34 0,44.13 84.53,57.85 185.72,57.31 -12.68,-51.79 -57.06,-105.68 -108.86,-105.68l0.01 0.03zm-94.86 236.19c54.96,0 103.04,-1.6 139.74,-10.83 40.96,-10.29 75.56,-30.91 75.56,-45.17 0,-3.7 0,-8.19 -1.32,-11.89 -22.98,2.11 -49.41,2.11 -72.38,2.11 -74.49,0 -131.55,-16.91 -154.02,-58.66 -5.55,-11.61 -9.51,-24.57 -9.51,-39.36 0,-40.43 17.42,-79.79 48.09,-107 25.61,-22.45 53.89,-36.44 82.67,-36.44 52.04,0 93.51,41.75 122.57,107.54 15.85,35.94 26.68,77.4 26.68,129.72 0,34.87 -9.51,64.19 -31.17,85.85 -40.43,39.11 -114.92,53.89 -229.04,53.89l-51.79 0 0 0 -13.47 0c-28.28,0 -48.62,-5.02 -64.72,-17.42l-2.64 0c0.79,6.59 1.32,12.93 1.32,19.02 0,25.61 -8.45,58.38 -25.61,84.53 -50.72,75.3 -105.68,108.04 -153.24,108.04 -48.09,0 -107,-18.49 -160.11,-42.54l9.51 -18.49c17.17,7.13 40.96,11.89 73.7,11.89 85.85,0 198.66,-82.43 212.66,-163 -3.17,-6.59 -8.98,-15.32 -17.17,-24.57 -25.11,-29.85 -40.96,-54.68 -55.75,-80.83 12.68,-25.11 24.29,-45.17 35.13,-63.4l4.49 -0.53c36.72,74.77 69.99,117.55 144.23,117.55l11.61 0 0 0 53.89 0 0 0 0 0 0 0 0 0 0 0 0.09 0.01zm-371.98 79c6.34,-34.34 6.87,-72.91 6.87,-108.86l0 -53.36c0,-99.6 -12.68,-244.36 -22.98,-338.68 17.95,-19.27 43.06,-42 62.87,-57.31l5.81 1.6c13.47,118.62 16.63,256 16.63,383.06 0,33.3 -1.32,65.79 -4.49,89.55 -1.85,30.1 -19.27,52.83 -56.53,87.7l-8.19 -3.7zm-382.8 -157.19c1.85,46.77 24.83,83.49 105.15,83.49 49.93,0 92.19,-12.93 138.96,-35.13 8.45,-3.7 12.93,-8.73 12.93,-12.93 0,-29.32 -22.45,-68.15 -60.23,-103.55 -36.72,-33.3 -85.34,-62.62 -130.76,-82.18 -15.6,-6.59 -20.62,-13.47 -20.62,-20.09 0,-13.47 17.95,-41.75 32.77,-62.09l5.02 -0.53c52.04,27.21 110.17,67.64 153.24,112.53 39.11,41.47 63.4,83.49 63.4,129.19 0,33.81 -10.29,65.51 -26.96,95.11 -57.06,28.79 -117.83,50.72 -178.06,50.72 -73.17,0 -123.1,-34.34 -123.1,-114.92 0,-8.73 0,-22.19 3.17,-39.64l25.11 0 0 0 0 0 0 0 0 0 0 0 -0.02 0zm-132.37 -132.9l45.45 73.45c16.63,27.21 32.23,56.81 32.23,103.55l0 59.7c0,48.34 -30.91,100.13 -80.83,151.38 -39.11,34.62 -73.7,49.41 -105.68,49.41 -47.55,0 -101.98,-14.79 -164.85,-41.75l7.13 -18.49c19.81,5.27 42.79,9.77 71.06,9.77 90.36,-0.53 182.8,-66.57 225.08,-147.15 5.02,-9.26 6.87,-17.95 6.87,-24.04 0,-9.26 -5.02,-19.55 -8.98,-28.79 -22.98,-43.31 -48.62,-82.95 -76.87,-119.68 14.79,-23.25 29.6,-45.7 45.7,-67.9l3.7 0.53 0 0 0 0 0 0 0 0 0 0 -0.02 0.01z"/>
  <g id="_2356640623024">
   <circle class="fil3" cx="4702.46" cy="2641.82" r="1995.03"/>
   <path class="fil4" d="M4461.37 2735.74l-298.66 -174.67c0,0 51.84,-101.42 180.32,-66.49 127.34,34.94 199.48,80.02 199.48,80.02l-81.15 161.14 0.01 0z"/>
   <path class="fil5" d="M4341.94 2689.56c0,119.46 -72.11,256.95 -162.27,308.8 -89.04,51.85 -161.14,-3.38 -161.14,-122.84 0,-119.44 72.1,-256.93 162.27,-308.77 89.03,-50.71 161.14,3.38 161.14,122.84l0 -0.03z"/>
   <polygon class="fil5" points="4079.34,3009.61 4184.15,3069.33 4380.24,2614.03 4270.92,2552.07 "/>
   <path class="fil6" d="M4446.73 2750.42c0,119.46 -72.11,256.95 -162.27,308.77 -89.04,51.84 -161.14,-3.38 -161.14,-122.85 0,-119.44 72.1,-256.93 162.27,-308.77 89.03,-50.7 161.14,3.38 161.14,122.85z"/>
   <path class="fil7" d="M4401.65 2776.34c0,85.64 -51.85,184.82 -116.09,222.02 -64.24,37.17 -116.08,-2.27 -116.08,-87.92 0,-85.64 51.84,-184.84 116.08,-222.02 64.24,-37.17 116.09,2.28 116.09,87.92z"/>
   <path class="fil6" d="M4350.93 2809.02c0,43.95 -27.06,94.66 -59.72,113.84 -32.68,19.16 -59.72,-1.13 -59.72,-45.08 0,-43.94 27.06,-94.66 59.72,-113.84 32.68,-19.16 59.72,1.14 59.72,45.08z"/>
   <path class="fil8" d="M4340.79 2814.65c0,36.07 -22.54,78.88 -49.6,94.66 -27.06,15.77 -49.57,-1.14 -49.57,-37.21 0,-36.07 22.54,-78.88 49.57,-94.66 27.06,-15.77 49.6,1.14 49.6,37.21z"/>
   <path class="fil4" d="M5701.04 2020.13l-298.66 -174.68c0,0 51.84,-101.42 180.3,-66.48 127.34,34.94 199.48,80.02 199.48,80.02l-81.12 161.14z"/>
   <path class="fil9" d="M5947.86 1395.79c0,0 -357.25,-289.61 -641.26,-352.75 -118.32,-27.06 -244.56,31.55 -343.71,40.56l-105.94 102.55 761.84 467.69 312.19 -165.66c29.31,-16.9 46.22,-75.5 16.9,-92.4l-0.02 0z"/>
   <path class="fil10" d="M3556.42 1952.51c33.8,40.56 101.42,103.68 234.42,197.2 323.45,226.52 552.2,209.63 552.2,209.63l179.19 -314.43c-187.07,-86.78 -468.84,-210.74 -588.28,-233.28 -120.58,-23.67 -279.5,69.86 -377.53,140.88z"/>
   <path class="fil11" d="M3829.15 1524.26l-299.76 354.99c0,0 -21.41,14.64 25.92,73.24 99.18,-71 256.93,-164.54 377.53,-142.01 119.44,22.54 401.18,147.64 588.27,233.28l48.46 -85.64 -740.39 -433.9 -0.03 0.04z"/>
   <path class="fil12" d="M3829.15 1524.26c0,0 32.69,47.32 228.75,183.7 182.57,126.21 512.78,249.05 512.78,249.05 0,0 236.66,-179.18 423.73,-282.84 187.06,-103.69 515.01,-241.15 515.01,-241.15l-546.57 -350.48c0,0 -144.25,-142.01 -392.17,-12.38 -92.41,48.46 -260.34,152.12 -495.87,295.27 -87.9,52.96 -175.8,111.56 -245.67,158.89l0 -0.06z"/>
   <path class="fil13" d="M3852.83 1564.85c0,0 164.55,-100.31 397.83,-233.28 233.28,-133 537.57,-308.8 537.57,-308.8l28.17 9.01c0,0 -126.2,75.5 -244.56,140.88 -95.79,52.98 -707.72,411.36 -707.72,411.36l-11.28 -19.16z"/>
   <path class="fil13" d="M4432.09 1902.94c0,0 164.54,-100.28 397.83,-233.28 233.28,-132.97 537.57,-308.77 537.57,-308.77l28.17 9.01c0,0 -126.2,75.5 -244.56,140.88 -95.79,52.98 -707.72,411.33 -707.72,411.33l-11.28 -19.16z"/>
   <path class="fil12" d="M5433.94 1395.79l157.78 27.06 158.89 87.92c0,0 -311.05,-40.56 -342.6,-54.1 -30.44,-13.54 25.93,-60.86 25.93,-60.86l0 -0.02z"/>
   <path class="fil5" d="M5581.58 1973.91c0,119.46 -72.11,256.95 -162.27,308.8 -89.04,51.85 -161.15,-3.38 -161.15,-122.84 0,-119.47 72.11,-256.95 162.27,-308.81 89.04,-50.7 161.15,4.52 161.15,122.85z"/>
   <polygon class="fil5" points="5317.89,2293.97 5422.69,2354.82 5618.78,1899.55 5510.57,1836.42 "/>
   <path class="fil6" d="M5686.4 2034.8c0,119.44 -72.14,256.93 -162.27,308.77 -89.03,51.85 -161.14,-3.38 -161.14,-122.84 0,-119.47 72.11,-256.95 162.27,-308.81 89.03,-50.7 161.18,4.52 161.18,122.85l-0.04 0.03z"/>
   <path class="fil7" d="M5640.18 2061.83c0,85.64 -51.84,184.84 -116.08,222.02 -64.24,37.17 -116.09,-2.25 -116.09,-87.92 0,-85.64 51.85,-184.82 116.09,-222.02 64.24,-37.17 116.08,2.27 116.08,87.92z"/>
   <path class="fil6" d="M5589.48 2094.52c0,43.95 -27.06,94.66 -59.72,113.84 -32.67,19.16 -59.73,-1.13 -59.73,-45.08 0,-43.94 27.06,-94.66 59.73,-113.84 33.82,-19.16 59.72,1.14 59.72,45.08z"/>
   <path class="fil8" d="M5579.32 2100.15c0,36.07 -22.54,78.9 -49.6,94.65 -27.06,15.78 -49.57,-1.13 -49.57,-37.16 0,-36.08 22.54,-78.91 49.57,-94.66 28.2,-16.91 49.6,0 49.6,37.17z"/>
   <path class="fil13" d="M5947.86 1395.79c-71,12.38 -134.11,116.08 -261.45,92.4 -34.94,-6.76 -144.25,-48.46 -233.28,-41.7 -94.66,6.77 -147.64,41.7 -233.28,92.41 -67.63,40.56 -308.78,176.94 -493.62,295.27 -103.69,66.48 -174.7,105.94 -201.73,151.02 -19.16,30.44 -84.5,184.82 -148.74,304.29 -12.39,23.64 -29.32,46.22 -47.33,66.48l-1172.06 -216.37c0,0 -65.38,68.74 -108.18,192.72 -15.78,47.33 -65.34,164.55 -41.7,270.49 21.4,96.93 89.04,197.21 212.99,269.35 428.23,247.91 670.52,191.58 848.61,92.4 1.14,-157.78 96.93,-340.31 215.23,-409.08 118.33,-67.63 214.12,3.38 214.12,161.14 251.33,-145.37 572.5,-331.35 831.7,-480.09 5.63,-41.7 27.06,-175.81 50.71,-215.26 46.22,-78.88 162.27,-188.2 214.12,-182.56 165.66,15.77 96.93,189.33 125.1,173.56 40.56,-23.67 63.1,-36.08 63.1,-36.08 129.59,-74.39 196.1,-223.13 216.37,-316.67 11.28,-54.1 6.76,-225.38 -50.7,-263.69l0.02 -0.02z"/>
   <path class="fil9" d="M5737.08 1971.68c-1.14,-174.68 -107.04,-254.68 -238.9,-179.19 -57.47,33.8 -110.43,91.27 -152.13,160.04 -22.54,13.53 -45.08,28.2 -68.76,43.94 -125.1,80.02 -662.66,387.68 -861.01,500.36 -41.7,-22.54 -95.79,-20.3 -154.38,13.53 -131.86,75.5 -238.91,279.5 -240.05,456.41 5.63,-3.38 12.39,-6.76 18.02,-10.14 3.39,-2.25 12.39,-6.76 25.93,-15.78 0,-2.25 27.06,-11.28 27.06,-13.53 0,-145.37 80.02,-305.43 189.33,-368.53 23.66,-13.54 45.08,-20.3 64.24,-22.54 -3.38,2.25 -5.63,3.38 -5.63,3.38l69.87 14.67c32.68,25.93 50.7,80.02 50.7,154.38 0,1.14 0,3.39 0,4.52 12.39,-7.87 25.93,-14.67 38.32,-22.54 0,-63.1 -14.64,-113.81 -38.32,-148.74 0,0 400.08,-223.13 533.04,-297.53 73.25,-40.56 285.13,-138.62 285.13,-138.62 -11.25,27.06 -18.02,75.5 -21.4,144.25 5.62,-3.38 12.38,-6.76 18.04,-10.15 3.38,-2.25 12.39,-6.76 25.92,-15.77 0,-2.26 27.06,-11.25 27.06,-13.54 0,-57.47 12.39,-118.33 34.94,-173.56l9.02 -4.52 67.62 -98.03 90.16 -85.64c14.64,-9.02 -13.54,4.52 -65.38,34.94 16.91,-15.78 34.94,-29.32 52.98,-40.57 109.31,-63.12 190.45,1.14 190.45,146.51 0,1.13 -11.29,4.52 -11.29,6.76 12.42,-10.15 25.93,-16.91 39.46,-24.79l-0.07 0.02z"/>
   <path class="fil14" d="M4282.18 2554.3c-118.32,67.63 -214.12,251.31 -215.23,409.09 5.63,-3.38 11.29,-6.76 16.91,-9.01 3.38,-2.26 11.28,-6.77 23.67,-13.54 0,-1.14 0,-3.38 0,-4.48 0,-130.73 80.02,-282.89 178.05,-339.23 98.02,-56.33 176.94,3.38 176.94,134.11 0,1.13 0,2.27 0,4.52 11.28,-6.77 23.64,-13.54 34.94,-20.3 -2.28,-156.65 -98.07,-228.75 -215.26,-161.14l-0.02 -0.03z"/>
   <path class="fil12" d="M5033.86 1127.57c0,0 111.57,-74.4 240.05,-45.08 128.48,29.31 272.74,131.86 272.74,131.86l-224.27 90.16 -288.51 -176.94z"/>
   <path class="fil14" d="M5520.72 1839.83c-118.33,67.62 -214.13,251.32 -215.23,409.08 5.62,-3.38 11.28,-6.76 16.9,-9.01 3.39,-2.25 11.25,-6.76 23.65,-13.54 0,-1.13 0,-3.38 0,-4.48 0,-130.73 80.02,-282.85 178.05,-339.23 98.03,-56.32 176.94,3.39 176.94,134.11 0,1.14 0,2.25 0,4.48 11.28,-6.76 23.65,-13.53 34.94,-20.29 -1.14,-157.75 -96.93,-229.89 -215.25,-161.14l0 0.01z"/>
   <path class="fil6" d="M3529.39 1879.25c0,0 -147.65,103.69 -350.48,240.04 -100.31,67.63 -127.34,244.57 109.31,400.08 276.12,180.32 476.71,173.56 652.52,71 188.2,-109.31 402.31,-232.14 402.31,-232.14 0,0 -145.36,-1.14 -435.01,-172.43 -236.68,-139.76 -378.66,-306.53 -378.66,-306.53l0 -0.03z"/>
   <path class="fil6" d="M4471.51 2337.95c-22.54,13.53 -49.6,-10.14 -39.46,-34.94 48.47,-113.84 140.88,-321.19 180.33,-347.11 51.84,-33.8 231,-139.74 448.51,-269.35 161.17,-95.79 305.42,-179.19 371.91,-160.04 25.92,6.76 98.02,56.33 149.88,93.55 28.17,20.29 25.92,63.1 -4.52,80.01l-1106.67 637.87 0.03 0.01z"/>
   <path class="fil15" d="M4778.05 1016c0,0 218.64,119.45 317.81,184.82 146.5,96.93 343.71,203.97 343.71,203.97l223.13 57.47c-60.86,-37.17 0,0 -117.19,-66.48 -167.94,-94.66 -350.47,-210.74 -380.91,-228.79 -40.56,-24.78 -120.58,-66.48 -162.27,-89.03 -85.65,-42.84 -197.24,-65.38 -224.27,-62l0 0.03z"/>
   <path class="fil16" d="M3558.69 2804.5c23.64,-45.08 65.38,-78.9 114.95,-72.1 38.32,4.48 42.84,-1.14 104.81,-7.9 68.76,-6.76 131.86,-36.08 165.66,-56.33 43.94,-25.92 47.32,18.04 42.84,34.94 -18.05,63.12 -67.63,109.31 -131.87,130.72 -151.02,48.46 -296.4,-29.31 -296.4,-29.31l0.02 -0.02z"/>
   <path class="fil6" d="M3491.07 2652.34c40.56,9.02 83.39,19.16 110.42,24.79l6.77 -7.88c0,0 -194.96,-43.94 -330.21,-137.49 -87.92,-60.85 -129.59,-129.58 -129.59,-129.58l-4.48 16.9c9.01,16.91 24.78,41.7 49.56,72.15 55.24,69.86 229.89,146.5 297.53,161.14l0 -0.03z"/>
   <path class="fil6" d="M3478.67 2688.42c32.66,6.76 67.62,14.64 94.66,21.4l16.9 -19.16c-30.44,-6.76 -71,-15.78 -109.31,-25.92 -74.39,-19.16 -182.56,-76.63 -252.44,-123.96 -46.22,-30.44 -73.24,-75.5 -86.78,-103.69l-7.88 27.06c10.15,16.91 25.92,38.32 49.57,64.24 57.47,65.35 227.66,145.37 295.27,160.04z"/>
   <path class="fil6" d="M3199.18 2618.56c-39.46,-27.06 -65.38,-64.25 -81.16,-91.27 0,27.06 10.14,52.96 30.41,71 28.17,24.79 67.62,56.33 113.84,81.16 90.16,48.46 151.02,74.39 189.33,89.03 23.64,9.02 50.7,5.63 72.11,-7.87 -22.54,-5.63 -47.33,-11.29 -72.11,-16.91 -74.4,-20.3 -181.44,-77.77 -252.44,-125.1l0.01 -0.03z"/>
   <path class="fil6" d="M3214.96 2576.86c-39.46,-27.06 -68.74,-65.38 -87.92,-93.55l-5.63 19.16c0,1.14 0,2.28 0,2.28 10.15,16.9 24.79,38.32 45.09,64.24 55.23,68.74 229.89,145.36 296.4,160.04 25.93,5.62 52.96,11.28 76.63,16.9 0,0 1.14,-1.13 1.14,-1.13l20.3 -22.54c-28.18,-5.63 -60.86,-13.54 -93.52,-22.54 -74.4,-18.05 -182.57,-75.5 -252.45,-122.85l-0.05 -0.02z"/>
   <path class="fil15" d="M3166.49 2570.09c-20.29,-25.92 -34.93,-47.32 -45.08,-64.24 -2.25,6.76 -2.25,14.64 -2.25,21.4 15.78,27.06 41.7,65.35 81.16,91.27 71,47.32 178.04,104.8 252.44,123.96 24.78,6.76 49.57,12.39 72.1,16.91 5.63,-3.38 11.29,-7.9 15.78,-13.54 -23.67,-5.62 -50.7,-11.28 -76.62,-16.9 -67.63,-13.54 -242.29,-90.17 -297.53,-158.89l0.01 0.03z"/>
   <path class="fil15" d="M3478.67 2688.42c-67.62,-14.64 -237.8,-94.66 -296.41,-160.04 -23.64,-25.92 -38.32,-47.36 -49.57,-64.24l-5.62 19.16c18.05,28.18 47.32,66.48 87.92,93.54 71,47.33 178.05,104.81 252.44,123.97 32.69,9.01 66.49,15.77 93.55,22.54l12.38 -13.54c-27.06,-6.76 -62,-14.64 -94.66,-21.4l-0.02 0.01z"/>
   <path class="fil15" d="M3227.34 2540.8c71.01,47.33 178.05,104.81 252.45,123.96 39.42,10.15 80.01,19.16 109.31,25.93l12.38 -13.54c-28.2,-5.62 -69.86,-15.78 -110.42,-24.78 -67.63,-14.68 -242.29,-91.3 -296.41,-160.04 -24.79,-31.55 -40.56,-55.24 -49.57,-72.11l-4.52 18.02c13.54,27.06 40.56,71.01 86.78,102.55l0.01 0z"/>
   <path class="fil16" d="M3089.86 2230.87c0,0 -4.49,60.86 -4.49,127.34 0,49.57 -21.4,117.19 -21.4,117.19 0,0 -24.78,-93.54 -21.4,-127.34 5.62,-68.74 47.32,-117.19 47.32,-117.19l-0.03 0z"/>
   <path class="fil6" d="M3088.72 2718.86c0,0 0,-122.84 76.63,-69.86 71,49.6 130.72,85.64 179.18,108.18 56.33,27.06 96.93,46.22 113.84,75.5 15.78,30.44 16.91,108.18 16.91,108.18 0,0 -54.1,-2.25 -236.67,-105.94 -137.48,-76.63 -149.9,-116.08 -149.9,-116.08l0.01 0.04z"/>
   <path class="fil7" d="M3146.23 2668.12l0 73.25c0,0 56.33,39.45 101.42,68.73 29.31,19.16 142.01,71.01 142.01,71.01l0 -69.87c0,0 -80.02,-36.07 -142.01,-72.14 -58.6,-34.94 -101.42,-71 -101.42,-71l0 0.03z"/>
   <path class="fil14" d="M2998.59 2555.44c0,0 -10.14,105.94 41.7,182.57 52.98,76.63 185.96,212.98 422.61,280.61 264.83,75.49 433.9,51.84 531.94,7.87 98.03,-43.94 109.31,-40.56 111.56,-86.78 2.28,-46.22 -40.56,-14.64 -40.56,-14.64 0,0 -42.84,72.11 -249.05,84.51 -109.31,6.76 -249.05,-13.54 -366.28,-48.46 -103.69,-30.41 -206.23,-93.52 -306.53,-166.8 -139.74,-101.42 -145.37,-238.91 -145.37,-238.91l-0.03 0.02z"/>
   <path class="fil6" d="M3624.03 2904.81c-11.28,0 -18.04,12.39 -12.38,22.54 6.76,11.28 15.78,25.92 25.92,36.08 33.8,31.54 188.2,33.79 206.22,16.9 16.91,-15.78 5.63,-66.48 -36.07,-65.38 -57.47,2.28 -135.26,-11.25 -183.71,-10.14l0.02 0.01z"/>
   <path class="fil6" d="M3008.73 2454.02c0,0 11.25,52.96 19.16,73.25 7.88,20.3 -29.31,28.17 -29.31,28.17 0,0 1.14,-61.99 10.14,-101.42z"/>
   <path class="fil7" d="M3338.92 2637.71c-4.52,14.64 -31.55,15.78 -59.72,2.26 -28.18,-13.54 -47.33,-34.94 -42.84,-49.57 4.48,-14.67 31.54,-15.78 59.72,-2.28 28.17,13.54 47.32,34.94 42.84,49.61l0 -0.02z"/>
   <path class="fil6" d="M3498.94 1900.69c0,0 18.05,42.83 120.58,122.84 99.18,77.77 314.43,229.89 455.31,286.27 140.88,56.33 232.15,92.4 267.08,49.56 36.08,-42.83 216.37,-407.95 216.37,-407.95l-20.3 -9.01c0,0 -192.72,374.15 -215.23,394.45 -23.66,20.29 -202.86,-47.33 -519.53,-253.58 -120.58,-78.91 -272.74,-202.87 -272.74,-202.87l-31.55 20.3 0.02 -0.02z"/>
   <path class="fil6" d="M3829.15 1524.26l-14.67 16.9c0,0 111.56,105.95 252.44,190.47 140.88,84.51 477.85,237.77 477.85,237.77l13.53 -19.16c0,0 -313.3,-132.96 -481.19,-244.56 -167.9,-110.43 -247.91,-181.44 -247.91,-181.44l-0.04 0.01z"/>
   <polygon class="fil14" points="5332.53,2184.67 4480.53,2676.02 4480.53,2724.5 4492.95,2716.58 5342.67,2226.35 "/>
   <path class="fil10" d="M4934.7 1790.24l0 246.82 -364.01 209.62c0,0 -1.14,-93.54 0,-131.86 0,-22.54 7.88,-54.1 22.54,-85.64 12.39,-24.79 40.56,-58.58 75.5,-80.02 98.03,-58.61 265.94,-158.89 265.94,-158.89l0.04 -0.03z"/>
   <path class="fil10" d="M4982.02 1768.8l0 247.95 384.3 -225.41c0,0 0,-94.66 -4.52,-122.84 -4.48,-24.79 -18.02,-99.18 -18.02,-99.18l-361.75 199.48z"/>
   <path class="fil10" d="M5378.71 1559.2c0,0 13.54,69.86 18.04,94.65 3.39,24.79 5.63,117.19 5.63,117.19 0,0 86.78,-52.96 107.04,-63.1 20.3,-10.14 36.08,-39.46 -16.9,-78.9 -38.32,-29.32 -113.84,-69.87 -113.84,-69.87l0.03 0.04z"/>
   <path class="fil6" d="M5983.89 1472.42l-4.49 3.38c-14.67,9.01 -22.54,24.78 -22.54,42.83l0 56.33c0,48.47 -7.87,101.42 -7.87,101.42l51.84 -32.68c0,0 25.92,-55.23 14.64,-118.33 -7.88,-39.45 -31.55,-52.98 -31.55,-52.98l-0.03 0.03z"/>
   <path class="fil9" d="M5686.4 1821.78c0,0 162.27,-73.24 274.97,-155.51 18.02,-13.53 47.33,-46.21 47.33,-46.21 0,0 14.64,21.4 -36.08,90.16 -16.91,23.64 -194.95,152.12 -250.19,171.28 -25.92,-59.72 -36.07,-59.72 -36.07,-59.72l0.03 0z"/>
   <path class="fil17" d="M3372.74 2335.7c-2.25,0 -3.38,0 -5.62,-1.14 -5.63,-2.26 -55.24,-24.79 -57.47,-59.72 -1.14,-19.16 10.14,-36.08 32.66,-50.71 71,-45.08 252.44,-123.96 260.34,-126.2 6.77,-3.38 15.78,0 19.16,7.87 3.38,6.77 0,15.78 -7.87,19.16 -2.26,1.14 -187.07,81.16 -256.93,125.1 -7.88,4.52 -20.3,14.68 -20.3,23.67 1.14,14.64 28.17,30.41 40.56,36.08 6.76,3.38 10.14,11.28 7.88,19.16 -1.14,3.38 -6.76,6.76 -12.39,6.76l-0.01 -0.03z"/>
   <path class="fil17" d="M3466.28 2281.61c-2.27,0 -4.52,-1.14 -6.76,-2.28 -16.9,-9.01 -98.03,-58.58 -98.03,-103.68 0,-10.15 4.49,-25.93 25.92,-37.17 67.63,-36.08 187.07,-91.27 188.21,-91.27 6.76,-3.38 15.77,0 19.16,6.76 3.38,6.76 0,15.78 -6.77,19.16 -1.13,0 -120.58,55.24 -187.09,90.16 -11.29,5.63 -11.29,10.15 -11.29,12.39 0,20.3 49.61,58.58 83.39,77.76 6.77,3.39 9.02,12.39 5.63,19.16 -2.26,5.63 -7.88,9.02 -12.37,9.02l0 -0.01z"/>
   <path class="fil8" d="M3601.5 2250.02c-99.17,48.46 -191.58,105.94 -259.2,151.02l-1.14 -9.02 -81.16 -4.48c0,0 -16.9,48.46 -15.77,100.32 0,4.48 66.48,50.7 142.01,89.03 71.01,36.08 120.58,55.24 156.65,64.24 10.14,-2.25 19.16,-5.62 27.06,-12.38 34.94,-28.18 94.66,-73.25 166.8,-116.09 139.74,-82.26 247.91,-137.49 263.72,-143.11 -18.04,-10.14 -286.26,-175.8 -398.94,-119.44l-0.04 -0.08z"/>
   <path class="fil18" d="M3999.33 2369.49c0,1.14 0,1.14 0,0 2.26,0 1.14,0 0,0z"/>
   <path class="fil17" d="M3272.43 2425.83c-19.16,-11.28 -20.29,-38.32 -2.25,-51.84 62,-43.94 190.45,-130.72 331.35,-200.6 116.08,-57.47 397.83,120.58 397.83,120.58 13.53,-10.14 -105.95,48.46 -263.73,143.11 -72.11,42.84 -131.86,87.92 -166.8,116.09 -19.16,15.77 -46.22,18.02 -68.74,5.62l-227.65 -132.97 -0.02 0z"/>
   <path class="fil19" d="M3603.77 2195.94c0,0 -119.46,76.63 -178.05,108.19 -58.6,31.54 -111.56,78.88 -112.7,104.8 -1.14,25.92 19.16,18.04 74.39,-24.79 55.24,-41.7 277.23,-164.54 277.23,-164.54l-60.86 -23.65 -0.01 0z"/>
   <path class="fil19" d="M3675.88 2245.53c0,0 -119.44,76.63 -178.05,108.19 -58.58,31.54 -111.56,78.9 -112.7,104.8 -1.14,25.92 19.16,18.04 74.39,-24.79 55.24,-41.7 277.23,-164.54 277.23,-164.54l-60.86 -23.67 -0.01 0.02z"/>
   <path class="fil19" d="M3764.91 2288.35c0,0 -119.44,76.62 -178.05,108.18 -58.58,31.55 -111.56,78.9 -112.7,104.8 -1.14,25.92 19.16,18.02 74.4,-24.78 55.23,-41.7 277.22,-164.55 277.22,-164.55l-60.86 -23.64 -0.01 0z"/>
   <path class="fil17" d="M3771.67 2562.22c-49.56,0 -92.4,-33.8 -95.78,-34.94 -5.63,-4.52 -6.77,-13.54 -2.26,-20.3 4.49,-5.62 13.54,-6.76 20.3,-2.25 1.14,0 63.1,48.46 113.84,20.3 59.72,-34.94 304.29,-173.57 304.29,-173.57l14.67 24.79c0,0 -245.67,139.74 -304.28,173.56 -16.91,9.01 -33.8,12.38 -50.71,12.38l-0.06 0.02z"/>
   <path class="fil17" d="M3924.95 2537.4c-64.24,0 -137.49,-71 -146.5,-81.16 -5.63,-5.62 -5.63,-14.64 0,-20.3 5.62,-5.62 14.67,-5.62 20.29,0 27.04,27.06 105.95,91.27 148.75,67.62 60.86,-33.79 224.27,-136.34 226.52,-137.48 6.76,-4.52 15.78,-2.26 20.3,4.48 4.52,6.77 2.28,15.78 -4.49,19.16 -6.76,4.52 -165.66,104.81 -227.66,138.63 -13.53,6.76 -24.78,9.01 -37.2,9.01l-0.01 0.04z"/>
   <path class="fil13" d="M3510.24 1910.82c0,0 -251.33,-33.8 -360.62,-22.54 -75.5,7.87 155.51,117.19 258.07,199.48 121.72,96.93 259.2,241.15 465.43,270.49 61.99,9.01 412.46,32.68 412.46,32.68l24.79 -13.53c0,0 -142.01,-40.57 -298.63,-118.33 -193.86,-94.66 -416.99,-241.15 -501.49,-348.23l0 -0.02z"/>
   <path class="fil20" d="M3136.08 1886.02c0,0 -5.63,10.15 0,16.91 5.62,6.76 24.78,-3.38 24.78,-3.38l-24.78 -13.54 0 0.01z"/>
   <path class="fil9" d="M3510.24 1893.92c0,0 -249.05,-25.92 -358.39,-13.53 -75.49,7.88 153.27,109.31 255.82,191.58 121.72,96.93 259.2,241.15 465.42,270.45 62,9.02 437.26,36.08 437.26,36.08 0,0 -596.16,-226.52 -800.16,-484.61l0.05 0.03z"/>
   <path class="fil12" d="M3751.38 2266.95c0,0 37.2,34.93 144.24,45.08 107.05,11.28 283.99,9.01 283.99,9.01l-109.31 -48.46 -318.92 -5.62 0 -0.01z"/>
   <path class="fil12" d="M3278.06 1945.77c0,0 -27.06,-42.84 51.84,-39.46 78.88,2.25 206.22,16.91 206.22,16.91l46.22 47.35 -304.28 -24.78 0 -0.02z"/>
   <path class="fil5" d="M3861.84 3898.79c-39.46,0 -85.65,-13.54 -140.88,-47.32 -48.46,-30.41 -74.4,-65.35 -76.63,-105.94 -5.62,-94.66 119.44,-194.96 179.19,-243.43 38.32,-31.55 58.58,-59.72 60.86,-90.16 4.48,-45.09 -25.93,-93.55 -73.25,-152.16 -75.5,-93.52 -69.86,-190.45 -63.1,-293.01 1.14,-16.9 2.25,-34.93 2.25,-52.96 1.14,-27.06 3.38,-54.09 4.52,-80.01 3.38,-55.24 6.76,-102.55 1.14,-135.26 -4.52,-22.54 -30.44,-40.56 -48.46,-52.96l-4.52 -3.38c-49.57,-33.8 -96.93,-71 -98.03,-71 -2.25,-2.26 -3.38,-5.63 -1.14,-7.88 2.25,-2.28 5.63,-3.38 7.88,-1.14 0,0 48.46,37.21 96.92,71l4.49 2.26c19.16,12.38 47.32,32.68 52.98,59.72 6.76,33.8 3.38,82.26 -1.14,137.49 -2.27,25.92 -3.38,52.98 -4.52,80.01 -1.14,18.05 -2.25,36.08 -2.25,52.99 -5.62,100.31 -11.28,194.95 60.86,285.12 49.57,60.86 81.16,111.57 75.5,160.04 -3.38,33.82 -24.79,64.24 -65.38,98.06 -58.58,47.33 -180.3,145.37 -174.68,234.42 2.25,37.17 25.92,69.87 72.11,98.03 144.25,89.04 218.64,30.44 291.89,-27.03 14.64,-11.29 29.31,-23.67 45.08,-33.83 87.92,-58.58 146.5,-91.26 147.64,-91.26 2.25,-1.14 5.62,0 7.87,2.25 1.14,2.28 0,5.62 -2.25,7.9 -1.14,0 -59.72,32.66 -146.5,91.27 -14.64,10.14 -29.31,21.4 -43.94,32.68 -46.19,37.2 -95.79,75.5 -164.53,75.5l0.03 0z"/>
   <path class="fil5" d="M4365.57 4013.74c0,21.4 13.54,47.32 29.31,56.32 15.78,9.02 29.32,-1.13 29.32,-22.54 0,-21.4 -13.54,-47.32 -29.32,-56.32 -16.9,-9.02 -29.31,1.13 -29.31,22.54z"/>
   <polygon class="fil5" points="4354.32,4002.45 4376.85,3988.95 4414.04,4071.21 4390.39,4084.71 "/>
   <path class="fil6" d="M4340.79 4027.24c0,21.4 13.53,47.32 29.31,56.33 15.78,9.01 29.31,-1.14 29.31,-22.54 0,-21.41 -13.53,-47.33 -29.31,-56.33 -15.78,-9.02 -29.31,1.14 -29.31,22.54z"/>
   <path class="fil7" d="M4354.32 4036.28c0,11.28 6.77,23.66 14.64,28.19 7.88,4.49 14.64,0 14.64,-11.28 0,-11.28 -6.76,-23.64 -14.64,-28.17 -7.87,-5.63 -14.64,0 -14.64,11.24l0 0.02z"/>
   <path class="fil19" d="M4402.79 3993.44l0 48.46c0,0 -11.29,5.62 -24.79,10.14 -13.53,4.49 -19.16,-7.87 -14.64,-23.66 5.63,-21.41 15.78,-48.47 15.78,-48.47l23.67 13.54 -0.02 -0.01z"/>
   <polygon class="fil17" points="4402.79,3993.44 4427.58,3979.9 4427.58,4028.38 4402.79,4041.9 "/>
   <polygon class="fil21" points="4421.94,3974.28 4402.79,3985.57 4384.73,3974.28 4380.24,3979.9 4402.79,3993.44 4427.58,3979.9 "/>
   <path class="fil5" d="M4863.72 3726.37c0,21.4 13.53,47.32 29.31,56.32 15.78,9.02 29.31,-1.13 29.31,-22.53 0,-21.41 -13.53,-47.33 -29.31,-56.33 -15.78,-9.02 -29.31,1.13 -29.31,22.54z"/>
   <polygon class="fil5" points="4852.42,3715.08 4874.98,3702.69 4912.14,3784.95 4888.5,3798.48 "/>
   <path class="fil6" d="M4840.04 3741.01c0,21.4 13.5,47.32 29.31,56.32 15.78,9.02 29.32,-1.13 29.32,-22.54 0,-21.4 -13.54,-47.32 -29.32,-56.32 -15.78,-10.15 -29.31,0 -29.31,22.54z"/>
   <path class="fil7" d="M4852.42 3748.87c0,11.29 6.77,23.67 14.64,28.2 7.88,4.49 14.64,0 14.64,-11.28 0,-11.28 -6.76,-23.67 -14.64,-28.18 -7.9,-4.52 -14.64,0 -14.64,11.25l0 0.01z"/>
   <path class="fil19" d="M4902.04 3706.07l0 48.46c0,0 -11.29,5.62 -24.79,10.14 -13.53,4.49 -19.16,-7.9 -14.64,-23.66 5.63,-21.41 15.78,-48.47 15.78,-48.47l23.67 13.54 -0.02 -0.01z"/>
   <polygon class="fil17" points="4902.04,3706.07 4925.68,3692.54 4925.68,3741.01 4902.04,3755.63 "/>
   <polygon class="fil21" points="4920.06,3688.06 4902.04,3698.17 4882.88,3686.91 4878.35,3693.68 4902.04,3706.07 4925.68,3692.54 "/>
   <path class="fil5" d="M4139.06 3881.87c0,21.4 13.54,47.33 29.32,56.33 15.77,9.02 29.31,-1.14 29.31,-22.54 0,-21.43 -13.54,-47.36 -29.31,-56.36 -15.78,-10.15 -29.32,0 -29.32,22.54l0 0.03z"/>
   <polygon class="fil5" points="4127.8,3870.59 4151.45,3857.09 4188.66,3939.35 4164.98,3952.89 "/>
   <path class="fil6" d="M4115.42 3895.4c0,21.4 13.5,47.32 29.31,56.33 15.78,9.01 29.31,-1.14 29.31,-22.54 0,-21.44 -13.53,-47.36 -29.31,-56.37 -15.78,-9.01 -29.31,0 -29.31,22.54l0 0.04z"/>
   <path class="fil7" d="M4127.8 3903.27c0,11.29 6.76,23.65 14.64,28.18 7.88,4.52 14.64,0 14.64,-11.28 0,-11.25 -6.76,-23.65 -14.64,-28.18 -7.9,-4.48 -14.64,1.14 -14.64,11.28z"/>
   <path class="fil19" d="M4177.38 3861.58l0 48.46c0,0 -11.28,5.62 -24.78,10.14 -13.54,4.52 -19.16,-7.88 -14.64,-23.64 5.62,-21.41 15.77,-48.47 15.77,-48.47l23.67 13.54 -0.02 -0.03z"/>
   <polygon class="fil17" points="4177.38,3861.58 4201.06,3848.07 4201.06,3896.51 4177.38,3910.05 "/>
   <polygon class="fil21" points="4196.54,3842.42 4177.38,3852.57 4159.36,3842.42 4154.84,3848.07 4177.38,3861.58 4201.06,3848.07 "/>
   <polygon class="fil22" points="4160.46,3353.32 4409.55,3496.48 4409.55,3987.81 4160.46,3844.67 "/>
   <polygon class="fil10" points="4916.67,3203.44 4409.55,3496.48 4409.55,3987.81 4916.67,3695.91 "/>
   <polygon class="fil6" points="4569.57,3329.68 4787.08,3204.58 4787.08,3223.73 4569.57,3348.84 "/>
   <polygon class="fil7" points="4420.81,3511.1 4905.38,3233.88 4905.38,3291.33 4420.81,3568.58 "/>
   <polygon class="fil22" points="4409.55,3591.12 4916.67,3298.1 4916.67,3313.9 4409.55,3605.76 "/>
   <polygon class="fil6" points="4569.57,3440.1 4787.08,3313.9 4787.08,3334.16 4569.57,3459.26 "/>
   <polygon class="fil7" points="4420.81,3615.92 4905.38,3337.55 4905.38,3395.02 4420.81,3672.25 "/>
   <polygon class="fil22" points="4409.55,3694.79 4916.67,3401.78 4916.67,3417.57 4409.55,3709.45 "/>
   <polygon class="fil6" points="4569.57,3543.79 4787.08,3417.57 4787.08,3437.86 4569.57,3562.96 "/>
   <polygon class="fil7" points="4420.81,3876.25 4905.38,3597.89 4905.38,3672.25 4420.81,3949.49 "/>
   <polygon class="fil6" points="4569.57,3804.11 4787.08,3679.01 4787.08,3698.17 4569.57,3823.27 "/>
   <polygon class="fil7" points="4420.81,3721.85 4905.38,3443.49 4905.38,3540.42 4420.81,3818.75 "/>
   <polygon class="fil6" points="4569.57,3649.73 4787.08,3523.5 4787.08,3543.79 4569.57,3668.9 "/>
   <polygon class="fil22" points="4409.55,3848.07 4916.67,3555.06 4916.67,3570.83 4409.55,3862.71 "/>
   <polygon class="fil11" points="4916.67,3203.44 4409.55,3496.48 4160.46,3353.32 4668.75,3061.47 "/>
   <polygon class="fil17" points="4409.55,3987.81 4925.68,3690.29 4925.68,3706.07 4409.55,4003.59 "/>
   <polygon class="fil21" points="4409.55,3978.81 4916.67,3685.77 4925.68,3690.29 4409.55,3988.95 "/>
   <polygon class="fil19" points="4409.55,3987.81 4151.45,3839.07 4151.45,3854.81 4409.55,4003.59 "/>
   <polygon class="fil17" points="4172.88,3383.77 4390.39,3508.86 4390.39,3534.78 4172.88,3408.56 "/>
   <polygon class="fil21" points="4409.55,3978.81 4160.46,3834.55 4151.45,3839.07 4409.55,3988.95 "/>
   <path class="fil6" d="M4373.48 3513.35c0,3.38 2.28,6.76 4.52,7.87 2.26,1.14 4.52,0 4.52,-3.38 0,-3.38 -2.27,-6.76 -4.52,-7.88 -2.25,-1.13 -4.52,0 -4.52,3.39z"/>
   <path class="fil6" d="M4185.28 3402.92c0,3.38 2.25,6.76 4.49,7.88 2.25,1.14 4.52,0 4.52,-3.38 0,-3.39 -2.28,-6.77 -4.52,-7.88 -2.26,-1.14 -4.49,0 -4.49,3.38z"/>
   <path class="fil5" d="M4459.13 3286.84c0,0 -37.21,-22.54 -82.27,-45.08 -11.28,-5.63 -21.4,-6.77 -30.44,-2.26 -10.14,4.49 -16.9,11.28 -22.54,20.3 -5.62,3.38 -13.53,7.88 -19.16,11.28 5.63,-12.38 18.02,-33.8 37.17,-41.7 12.39,-5.62 25.92,-4.52 40.56,2.26 45.09,22.54 82.26,45.08 83.39,45.08l-6.74 10.14 0.02 -0.03z"/>
   <path class="fil5" d="M4588.73 3123.43l-211.88 121.72c-4.52,2.25 -9.01,0 -9.01,-6.76l0 -169.04c0,-6.76 3.38,-13.53 9.01,-16.9l211.88 -122.85c4.52,-2.25 9.02,0 9.02,6.76l0 169.04c-1.14,7.87 -4.52,14.63 -9.02,18.04z"/>
   <polygon class="fil5" points="4371.23,3246.29 4382.5,3253.05 4381.38,3239.51 "/>
   <polygon class="fil5" points="4605.63,2936.36 4594.36,2930.73 4589.85,2953.25 "/>
   <path class="fil6" d="M4600 3130.19l-211.88 122.85c-4.48,2.25 -9.01,0 -9.01,-6.76l0 -169.04c0,-6.76 3.38,-13.53 9.01,-16.9l211.88 -122.85c4.52,-2.25 9.02,0 9.02,6.76l0 169.04c0,6.76 -4.52,13.53 -9.02,16.9z"/>
   <polygon class="fil5" points="4601.13,3109.89 4386.98,3233.88 4386.98,3070.47 4601.13,2946.49 "/>
   <path class="fil17" d="M4507.59 3176.41l-27.06 15.78c-1.14,1.14 -2.26,0 -2.26,-2.25l0 0c0,-2.28 1.14,-4.52 2.26,-4.52l27.06 -15.78c1.14,-1.14 2.25,0 2.25,2.25l0 0c0,2.25 -1.14,4.52 -2.25,4.52z"/>
   <polygon class="fil17" points="4589.85,3116.66 4397.15,3228.22 4397.15,3078.35 4589.85,2966.78 "/>
   <path class="fil5" d="M4775.8 3254.14l-205.11 118.33c-5.62,3.38 -14.64,2.25 -21.4,-1.14l-156.65 -90.16c-6.76,-3.38 -6.76,-9.02 -1.14,-12.39l205.11 -118.32c5.63,-3.39 14.64,-2.28 21.4,1.13l156.65 90.17c6.76,3.38 6.76,9.01 1.14,12.38z"/>
   <rect class="fil5" x="4388.11" y="3259.8" width="13.54" height="13.54"/>
   <rect class="fil5" x="4765.65" y="3234.99" width="13.54" height="13.54"/>
   <path class="fil6" d="M4775.8 3240.64l-205.11 118.33c-5.62,3.38 -14.64,2.25 -21.4,-1.14l-156.65 -90.16c-6.76,-3.39 -6.76,-9.02 -1.14,-12.39l205.11 -118.33c5.63,-3.38 14.64,-2.27 21.4,1.14l156.65 90.16c6.76,4.53 6.76,9.02 1.14,12.39z"/>
   <polygon class="fil5" points="4711.57,3204.58 4508.72,3321.77 4405.03,3262.05 4609,3144.83 "/>
   <polygon class="fil5" points="4700.3,3274.44 4628.16,3315 4589.85,3293.6 4661.99,3251.91 "/>
   <polygon class="fil7" points="4414.04,3262.05 4428.72,3254.14 4438.83,3259.8 4424.19,3267.68 "/>
   <polygon class="fil7" points="4428.72,3269.92 4443.35,3262.05 4453.5,3267.68 4438.83,3276.69 "/>
   <polygon class="fil7" points="4444.49,3278.97 4463.63,3267.68 4473.76,3273.3 4454.61,3284.59 "/>
   <polygon class="fil7" points="4627.02,3173.03 4636.07,3167.36 4661.99,3182.04 4651.85,3187.66 "/>
   <polygon class="fil7" points="4459.13,3287.98 4478.28,3276.69 4488.42,3282.32 4469.27,3293.6 "/>
   <polygon class="fil7" points="4473.76,3295.85 4498.57,3281.2 4508.72,3286.84 4483.93,3301.5 "/>
   <polygon class="fil7" points="4628.16,3206.83 4666.49,3184.29 4676.63,3191.05 4638.31,3212.45 "/>
   <polygon class="fil7" points="4488.42,3304.86 4503.07,3296.99 4513.21,3302.62 4498.57,3310.52 "/>
   <polygon class="fil7" points="4432.09,3251.91 4446.73,3242.89 4456.87,3249.66 4442.21,3257.53 "/>
   <polygon class="fil7" points="4446.73,3259.8 4461.37,3251.91 4471.51,3257.53 4456.87,3266.54 "/>
   <polygon class="fil7" points="4450.11,3241.76 4463.63,3232.75 4473.76,3239.51 4460.26,3247.38 "/>
   <polygon class="fil7" points="4464.75,3249.66 4479.42,3241.76 4489.53,3247.38 4474.9,3255.28 "/>
   <polygon class="fil7" points="4468.14,3231.61 4481.67,3222.6 4491.81,3228.22 4478.28,3237.24 "/>
   <polygon class="fil7" points="4482.79,3239.51 4496.33,3231.61 4506.45,3237.24 4492.95,3245.14 "/>
   <polygon class="fil7" points="4485.05,3220.34 4499.69,3212.45 4509.83,3218.11 4495.19,3227.12 "/>
   <polygon class="fil7" points="4500.82,3229.36 4514.36,3221.46 4524.47,3227.12 4510.97,3234.99 "/>
   <polygon class="fil7" points="4503.07,3210.21 4517.73,3202.3 4527.88,3207.96 4513.21,3215.83 "/>
   <polygon class="fil7" points="4517.73,3219.21 4532.37,3211.35 4542.51,3216.97 4527.88,3224.87 "/>
   <polygon class="fil7" points="4521.12,3200.07 4535.75,3192.19 4545.91,3197.81 4531.27,3205.69 "/>
   <polygon class="fil7" points="4535.75,3209.07 4550.39,3200.07 4560.55,3206.83 4545.91,3214.72 "/>
   <polygon class="fil7" points="4467.03,3265.43 4481.67,3257.53 4491.81,3263.16 4477.17,3271.07 "/>
   <polygon class="fil7" points="4481.67,3274.44 4496.33,3266.54 4506.45,3272.21 4491.81,3280.06 "/>
   <polygon class="fil7" points="4485.05,3255.28 4499.69,3247.38 4509.83,3253.05 4495.19,3260.92 "/>
   <polygon class="fil7" points="4499.69,3264.3 4514.36,3255.28 4524.47,3262.05 4509.83,3269.92 "/>
   <polygon class="fil7" points="4503.07,3245.14 4516.59,3237.24 4526.75,3242.89 4513.21,3250.77 "/>
   <polygon class="fil7" points="4517.73,3254.14 4531.27,3245.14 4541.38,3250.77 4527.88,3259.8 "/>
   <polygon class="fil7" points="4521.12,3234.99 4534.61,3225.99 4544.79,3232.75 4531.27,3240.64 "/>
   <polygon class="fil7" points="4535.75,3242.89 4549.28,3234.99 4559.43,3240.64 4545.91,3249.66 "/>
   <polygon class="fil7" points="4537.99,3224.87 4552.67,3215.83 4562.81,3222.6 4548.14,3230.5 "/>
   <polygon class="fil7" points="4552.67,3232.75 4567.31,3224.87 4577.45,3230.5 4562.81,3238.37 "/>
   <polygon class="fil7" points="4556.05,3214.72 4570.69,3205.69 4580.83,3211.35 4566.2,3220.34 "/>
   <polygon class="fil7" points="4570.69,3222.6 4585.35,3214.72 4595.47,3220.34 4580.83,3228.22 "/>
   <polygon class="fil7" points="4574.07,3203.44 4588.73,3195.54 4598.89,3201.19 4584.21,3210.21 "/>
   <polygon class="fil7" points="4588.73,3212.45 4603.37,3204.58 4613.53,3210.21 4598.89,3218.11 "/>
   <polygon class="fil7" points="4504.21,3278.97 4517.73,3269.92 4527.88,3276.69 4514.36,3284.59 "/>
   <polygon class="fil7" points="4522.22,3268.82 4535.75,3259.8 4545.91,3266.54 4532.37,3274.44 "/>
   <polygon class="fil7" points="4539.14,3257.53 4553.81,3249.66 4563.93,3255.28 4549.28,3264.3 "/>
   <polygon class="fil7" points="4557.15,3247.38 4571.83,3239.51 4581.97,3245.14 4567.31,3254.14 "/>
   <polygon class="fil7" points="4575.21,3237.24 4588.73,3229.36 4598.89,3234.99 4585.35,3242.89 "/>
   <polygon class="fil7" points="4593.23,3227.12 4606.77,3219.21 4616.91,3224.87 4603.37,3232.75 "/>
   <polygon class="fil7" points="4611.25,3216.97 4624.79,3209.07 4634.92,3214.72 4621.39,3222.6 "/>
   <polygon class="fil7" points="4592.09,3193.29 4605.63,3185.43 4615.77,3191.05 4602.24,3198.95 "/>
   <polygon class="fil7" points="4606.77,3202.3 4621.39,3194.42 4631.55,3200.07 4616.91,3207.96 "/>
   <polygon class="fil7" points="4610.14,3183.14 4623.67,3175.27 4633.82,3180.9 4620.29,3188.8 "/>
   <polygon class="fil7" points="4624.79,3192.19 4638.31,3183.14 4648.45,3189.94 4634.92,3197.81 "/>
   <polygon class="fil7" points="4539.14,3189.94 4552.67,3182.04 4562.81,3187.66 4549.28,3195.54 "/>
   <polygon class="fil7" points="4553.81,3198.95 4568.44,3189.94 4578.59,3196.67 4563.93,3204.58 "/>
   <polygon class="fil7" points="4557.15,3179.77 4570.69,3170.75 4581.97,3177.52 4567.31,3185.43 "/>
   <polygon class="fil7" points="4571.83,3187.66 4586.47,3179.77 4596.61,3185.43 4581.97,3194.42 "/>
   <polygon class="fil7" points="4575.21,3169.61 4588.73,3160.61 4598.89,3167.36 4585.35,3175.27 "/>
   <polygon class="fil7" points="4589.85,3177.52 4603.37,3169.61 4613.53,3175.27 4600,3183.14 "/>
   <polygon class="fil7" points="4593.23,3158.36 4606.77,3150.49 4616.91,3156.11 4603.37,3165.13 "/>
   <polygon class="fil7" points="4607.89,3167.36 4621.39,3159.51 4631.55,3165.13 4618.01,3173.03 "/>
   <polygon class="fil7" points="4506.45,3294.74 4519.98,3285.73 4530.13,3292.47 4516.59,3300.36 "/>
   <polygon class="fil7" points="4524.47,3284.59 4537.99,3275.58 4548.14,3282.32 4534.61,3290.22 "/>
   <polygon class="fil7" points="4616.91,3230.5 4631.55,3222.6 4641.69,3228.22 4627.02,3236.13 "/>
   <polygon class="fil7" points="4634.92,3220.34 4649.59,3212.45 4659.71,3218.11 4645.07,3225.99 "/>
   <polygon class="fil7" points="4652.95,3210.21 4681.14,3194.42 4691.29,3200.07 4663.09,3215.83 "/>
   <polygon class="fil7" points="4542.51,3273.3 4613.53,3232.75 4623.67,3238.37 4552.67,3280.06 "/>
   <polygon class="fil7" points="4421.94,3294.74 4401.65,3282.32 4401.65,3276.69 4421.94,3287.98 "/>
   <polygon class="fil7" points="4445.59,3308.24 4425.33,3295.85 4425.33,3290.22 4445.59,3301.5 "/>
   <polygon class="fil13" points="4580.83,3013 4412.91,3109.89 4412.91,3116.66 4580.83,3019.77 "/>
   <polygon class="fil13" points="4580.83,3049.03 4412.91,3144.83 4412.91,3151.59 4580.83,3054.7 "/>
   <polygon class="fil13" points="4580.83,3085.11 4412.91,3180.9 4412.91,3187.66 4580.83,3090.73 "/>
   <polygon class="fil6" points="4419.67,3202.3 4414.04,3205.69 4414.04,3088.49 4419.67,3085.11 "/>
   <path class="fil6" d="M4680 3862.71c11.28,-6.76 71,27.06 71,27.06l81.16 27.06 -6.76 62c0,0 -29.32,31.55 -68.76,3.38 -23.65,-15.77 -66.48,-41.7 -80.02,-68.73 -12.39,-27.06 -9.02,-42.84 3.38,-50.71l-0.01 -0.06z"/>
   <path class="fil5" d="M4789.33 3637.31c15.78,-50.71 28.18,-71 60.86,-84.51 19.16,-7.87 64.24,-1.13 110.43,7.88 5.62,41.7 0,87.92 -22.54,123.96 -15.78,-7.87 -31.55,-16.9 -46.22,-24.78 -6.76,15.78 -12.39,33.8 -15.78,55.24 -5.62,31.54 -14.64,81.15 -16.91,113.84 -1.13,32.68 -4.48,81.15 -4.48,81.15 0,0 -33.8,28.18 -76.63,11.29 -41.7,-16.91 -32.66,-54.1 -32.66,-54.1 0,0 33.8,-193.86 43.94,-229.89l-0.01 -0.07z"/>
   <path class="fil23" d="M5154.48 3305.99c0,0 34.94,63.1 30.41,110.42 -4.49,47.33 -83.39,87.92 -83.39,87.92l-47.33 -151.02 100.32 -47.32 -0.01 0z"/>
   <path class="fil6" d="M4987.68 3771.45c14.67,0 27.06,12.38 27.06,27.06l0 250.19c0,14.67 -12.39,27.06 -27.06,27.06 -14.64,0 -27.06,-12.39 -27.06,-27.06l0 -250.19c-1.14,-14.68 11.28,-27.06 27.06,-27.06z"/>
   <path class="fil17" d="M4987.68 3719.6c94.66,0 171.31,40.57 171.31,91.27 0,50.71 -76.63,91.3 -171.31,91.3 -94.66,0 -171.29,-40.56 -171.29,-91.3 -1.14,-50.7 75.5,-91.27 171.29,-91.27z"/>
   <rect class="fil17" x="4815.25" y="3793.98" width="343.74" height="20.3"/>
   <path class="fil21" d="M4987.68 3702.69c94.66,0 171.31,40.56 171.31,91.3 0,50.7 -76.63,91.27 -171.31,91.27 -94.66,0 -171.29,-40.57 -171.29,-91.27 -1.14,-50.71 75.5,-91.3 171.29,-91.3z"/>
   <path class="fil24" d="M4987.68 3697.05c90.16,0 163.41,39.43 163.41,86.78 0,48.46 -73.25,86.78 -163.41,86.78 -90.16,0 -163.41,-39.45 -163.41,-86.78 -1.14,-48.46 72.14,-86.78 163.41,-86.78z"/>
   <polygon class="fil24" points="5142.08,3728.62 5151.09,3783.81 4823.13,3783.81 4832.13,3728.62 "/>
   <path class="fil13" d="M4987.68 3658.74c86.78,0 156.64,37.21 156.64,83.39 0,46.22 -69.86,83.39 -156.64,83.39 -86.78,0 -156.65,-37.2 -156.65,-83.39 -1.14,-46.18 69.87,-83.39 156.65,-83.39z"/>
   <path class="fil13" d="M4987.68 3658.74c86.78,0 156.64,37.21 156.64,83.39 0,46.22 -69.86,83.39 -156.64,83.39 -86.78,0 -156.65,-37.2 -156.65,-83.39 -1.14,-46.18 69.87,-83.39 156.65,-83.39z"/>
   <path class="fil6" d="M5171.35 4188.4c12.39,6.76 22.54,27.06 22.54,43.94 0,16.91 -10.14,24.79 -22.54,16.91 -12.39,-6.76 -22.54,-27.06 -22.54,-43.94 -1.14,-15.78 9.02,-23.65 22.54,-16.91z"/>
   <polygon class="fil6" points="5186.02,4250.4 5168,4261.66 5139.8,4197.42 5156.71,4187.26 "/>
   <path class="fil5" d="M5152.19 4199.66c12.39,6.76 22.54,27.06 22.54,43.94 0,16.91 -10.14,24.79 -22.54,16.91 -12.39,-6.76 -22.54,-27.06 -22.54,-43.94 0,-16.91 10.14,-24.79 22.54,-16.91z"/>
   <path class="fil6" d="M4816.36 3960.75l360.61 208.49c9.02,5.63 12.39,16.91 6.77,25.92 -5.63,9.02 -16.91,12.39 -25.93,6.77l-360.61 -208.49c-9.02,-5.63 -12.39,-16.91 -6.76,-25.92 4.48,-9.02 16.9,-11.29 25.92,-6.77z"/>
   <path class="fil6" d="M4797.21 4169.25l360.62 -208.49c9.01,-5.62 20.29,-2.25 25.92,6.77 5.62,9.01 2.25,20.29 -6.77,25.92l-360.61 208.49c-9.02,5.62 -20.3,2.25 -25.92,-6.77 -5.63,-9.01 -2.26,-20.29 6.76,-25.92z"/>
   <path class="fil6" d="M4816.36 3979.9c12.38,6.76 22.54,27.06 22.54,43.95 0,16.9 -10.15,24.78 -22.54,16.9 -12.39,-6.76 -22.54,-27.06 -22.54,-43.94 0,-16.91 10.14,-23.67 22.54,-16.91z"/>
   <polygon class="fil6" points="4832.13,4041.9 4813,4053.16 4785.94,3988.95 4802.86,3978.81 "/>
   <path class="fil5" d="M4798.35 3991.19c12.38,6.77 22.54,27.06 22.54,43.95 0,16.9 -10.15,24.78 -22.54,16.9 -12.39,-6.76 -22.54,-27.06 -22.54,-43.94 0,-16.91 10.14,-24.78 22.54,-16.91z"/>
   <path class="fil6" d="M4838.92 4194.06c12.39,6.76 22.54,27.06 22.54,43.94 0,16.91 -10.14,24.79 -22.54,16.91 -12.38,-6.76 -22.54,-27.06 -22.54,-43.94 0,-16.91 10.15,-24.79 22.54,-16.91z"/>
   <polygon class="fil6" points="4853.54,4256.03 4835.52,4266.18 4807.34,4203.08 4825.4,4191.78 "/>
   <path class="fil5" d="M4820.88 4204.19c12.38,6.76 22.54,27.06 22.54,43.94 0,16.91 -10.15,24.79 -22.54,16.91 -12.39,-6.76 -22.54,-27.06 -22.54,-43.94 0,-15.78 10.14,-23.67 22.54,-16.91z"/>
   <path class="fil6" d="M5184.89 3992.31c12.38,6.76 22.53,27.06 22.53,43.94 0,16.91 -10.14,24.79 -22.53,16.91 -12.39,-6.76 -22.54,-27.06 -22.54,-43.94 0,-16.91 10.14,-24.79 22.54,-16.91z"/>
   <polygon class="fil6" points="5200.66,4054.3 5181.5,4064.45 5154.48,4000.2 5171.35,3990.06 "/>
   <path class="fil5" d="M5166.86 4002.45c12.39,6.77 22.54,27.06 22.54,43.95 0,16.9 -10.14,24.78 -22.54,16.9 -12.38,-6.76 -22.54,-27.06 -22.54,-43.94 0,-16.91 10.15,-23.67 22.54,-16.91z"/>
   <path class="fil6" d="M4587.6 3917.95c11.28,-6.76 71,27.06 71,27.06l81.16 27.06 -6.77 62c0,0 -29.31,31.54 -68.73,3.38 -23.67,-15.78 -66.49,-41.7 -80.02,-68.74 -13.54,-27.06 -9.02,-42.84 3.38,-50.7l-0.03 -0.06z"/>
   <path class="fil25" d="M5157.85 3392.78l57.47 91.3c0,0 -16.91,19.16 -73.25,-9.02 -64.24,-32.68 -102.55,-40.56 -102.55,-40.56l10.15 -48.46 108.18 6.76 0 -0.03z"/>
   <path class="fil19" d="M5115.02 3380.38c-13.54,-23.67 -24.78,-46.22 -24.78,-46.22l-21.4 -107.08c0,0 37.2,-14.64 64.24,9.02 15.77,13.53 40.56,63.1 60.86,104.8 -23.67,21.4 -48.47,33.8 -78.91,39.46l-0.01 0.02z"/>
   <path class="fil23" d="M4993.3 3042.3c23.67,-15.78 67.62,-11.29 86.78,29.31 11.29,22.54 -4.52,83.39 -6.76,126.24 -2.28,34.94 10.14,54.09 10.14,54.09 0,0 0,0 -29.31,12.39 -29.31,12.39 -60.86,0 -60.86,0l1.14 -52.96c0,0 -31.55,-4.52 -37.17,-10.14 -13.54,-12.39 -20.3,-48.46 -14.67,-95.79 10.14,-68.74 42.83,-57.47 50.7,-63.1l0 -0.02z"/>
   <path class="fil5" d="M4696.92 3692.54c15.77,-50.7 28.17,-71 60.86,-84.5 47.32,-19.16 246.81,45.08 246.81,45.08l144.25 7.88c0,0 7.88,58.6 -33.8,87.92 -41.7,29.31 -139.74,59.72 -210.74,22.54 -33.8,-18.05 -71,-38.32 -103.69,-56.37 -6.76,15.78 -12.38,33.83 -15.77,55.24 -5.63,31.54 -14.68,81.16 -16.91,113.82 -1.14,32.68 -4.49,81.15 -4.49,81.15 0,0 -33.82,28.2 -76.62,11.29 -41.7,-16.91 -32.69,-54.1 -32.69,-54.1 0,0 31.55,-193.86 42.84,-229.89l-0.03 -0.04z"/>
   <path class="fil17" d="M4914.42 3419.8c-16.9,-37.17 22.54,-104.8 32.66,-129.58 11.28,-24.79 46.22,-39.43 46.22,-39.43l108.18 -15.77c0,0 47.33,82.29 52.99,130.72 4.48,33.8 1.13,98.03 -1.14,184.82 -1.14,58.58 32.68,94.66 7.88,120.58 -38.32,39.46 -123.97,66.49 -172.43,52.98 -29.31,-7.87 -48.46,-37.17 -67.62,-60.86 -21.4,-25.92 -32.66,-89.03 -4.49,-114.95 3.39,0 32.69,-52.98 -2.25,-128.48l0 -0.04z"/>
   <path class="fil8" d="M4994.44 3236.13c0,0 42.84,12.39 68.74,-6.76 36.07,-28.18 39.45,11.28 39.45,11.28 0,0 -14.64,21.4 -45.08,30.41 -30.44,9.02 -57.46,7.9 -86.78,-6.76 0,-19.16 23.65,-28.18 23.65,-28.18l0.02 0z"/>
   <path class="fil23" d="M4634.92 3303.75c11.25,0 7.88,-19.16 12.39,-27.06 5.62,-10.14 10.14,-11.24 12.38,-2.25 4.49,22.54 13.54,69.86 23.65,75.5 59.72,31.54 114.95,76.63 114.95,76.63 0,0 128.48,-137.49 162.27,-129.59 16.91,4.52 23.65,40.56 9.02,77.77 -19.16,48.46 -148.75,142.01 -148.75,142.01 -40.56,7.88 -142.01,-95.79 -162.27,-118.33 -18.04,-19.15 -52.98,-34.93 -71,-48.46 -25.92,-19.16 -45.08,-46.18 -34.94,-69.86 5.63,-13.54 21.4,-4.49 39.46,5.62 14.67,9.02 30.44,18.02 42.84,18.02l0.01 0z"/>
   <path class="fil19" d="M4900.9 3461.5c-42.84,-13.5 -74.4,-47.32 -55.24,-96.92 37.21,-36.08 76.63,-77.77 116.09,-77.77 19.16,0 32.68,55.24 12.38,95.79 -13.53,24.78 -45.08,55.23 -73.24,78.88l0 0.02z"/>
   <path class="fil5" d="M4965.13 3124.57c-3.39,-11.28 -11.29,-39.46 -13.54,-49.57 -2.25,-12.38 -3.38,-31.54 14.64,-49.6 18.04,-18.02 77.77,-23.65 100.32,-11.28 21.4,12.38 68.73,36.07 51.84,111.56 -13.54,60.86 -25.92,67.62 -43.94,82.26 -15.78,12.39 -45.08,15.78 -45.08,15.78 0,0 -15.78,-11.25 -19.16,-34.94 -1.14,-6.76 0,-29.31 0,-29.31 0,0 15.77,-31.55 3.38,-42.84 -13.54,-12.38 -27.06,6.76 -30.41,14.64 -11.28,27.06 -5.62,78.9 -5.62,78.9 0,0 -15.78,10.15 -32.69,6.77 -9.01,-2.26 -1.14,-36.08 -1.14,-36.08 0,0 19.16,-10.14 21.41,-56.36l0 0.08z"/>
   <path class="fil24" d="M5162.33 3386l48.47 -28.17c51.84,-29.31 93.52,2.25 93.52,71l0 196.09 -236.67 136.35 0 -196.09c0,-68.74 42.84,-148.75 94.66,-179.19l0.03 0z"/>
   <polygon class="fil24" points="5277.29,3401.78 5273.91,3354.46 5313.37,3378.11 "/>
   <polygon class="fil24" points="5107.14,3786.09 5067.7,3762.41 5113.88,3717.35 "/>
   <path class="fil13" d="M5200.66 3409.69l48.46 -28.17c51.85,-29.31 93.55,2.25 93.55,71l0 196.09 -235.53 137.49 0 -196.09c0,-69.87 42.84,-151.02 93.52,-180.3l0.01 -0.03z"/>
   <path class="fil6" d="M5224.33 3712.84c-2.25,-64.24 0,-117.19 0,-139.74 0,-28.17 30.41,-29.31 30.41,-1.14 0,41.7 4.52,130.73 3.38,152.13 -1.14,45.08 25.92,185.96 -153.26,190.44 -18.05,0 -91.3,-4.52 -103.69,-12.38 29.31,-1.14 80.02,-12.39 120.58,-34.94 116.08,-10.14 103.69,-99.18 102.55,-154.4l0.02 0.02z"/>
  </g>
 </g>
</svg>