<?xml version="1.0" encoding="UTF-8"?>
<!DOCTYPE svg PUBLIC "-//W3C//DTD SVG 1.1//EN" "http://www.w3.org/Graphics/SVG/1.1/DTD/svg11.dtd">
<!-- Creator: CorelDRAW 2020 (64-Bit) -->
<svg xmlns="http://www.w3.org/2000/svg" xml:space="preserve" width="94.1916mm" height="52.9166mm" version="1.1" style="shape-rendering:geometricPrecision; text-rendering:geometricPrecision; image-rendering:optimizeQuality; fill-rule:evenodd; clip-rule:evenodd"
viewBox="0 0 9404.92 5283.66"
 xmlns:xlink="http://www.w3.org/1999/xlink"
 xmlns:xodm="http://www.corel.com/coreldraw/odm/2003">
 <defs>
  <style type="text/css">
   <![CDATA[
    .fil0 {fill:#E6E7E8}
    .fil8 {fill:#FEFEFE}
    .fil7 {fill:#FEFEFE;fill-rule:nonzero}
    .fil3 {fill:#262C3B;fill-rule:nonzero}
    .fil9 {fill:#347AB4;fill-rule:nonzero}
    .fil4 {fill:#61CAFF;fill-rule:nonzero}
    .fil6 {fill:#FEFEFE;fill-rule:nonzero}
    .fil5 {fill:#FF3333;fill-rule:nonzero}
    .fil10 {fill:#FFEA00;fill-rule:nonzero}
    .fil2 {fill:#373435;fill-opacity:0.031373}
    .fil1 {fill:#2B2A29;fill-opacity:0.101961}
   ]]>
  </style>
 </defs>
 <g id="Layer_x0020_1">
  <metadata id="CorelCorpID_0Corel-Layer"/>
  <polygon class="fil0" points="-0,0 9404.92,0 9404.92,5283.66 -0,5283.66 "/>
  <polygon class="fil1" points="-0,2859.19 -0,2857.39 -0,2840.82 -0,2824.23 4252.5,750.69 4229.98,761.89 4207.75,773.61 4185.85,785.85 4164.29,798.6 4143.06,811.85 4122.18,825.6 4101.65,839.83 4081.8,854.32 4260.51,767.34 4305.66,746.92 4351.96,728.67 4399.33,712.64 4447.71,698.9 4497.02,687.52 4547.23,678.55 4598.24,672.07 4650.01,668.14 4702.47,666.81 4754.93,668.14 4806.7,672.07 4857.72,678.55 4907.92,687.52 4957.24,698.9 5005.61,712.64 5052.98,728.67 5099.27,746.92 5144.43,767.34 5188.39,789.85 5231.07,814.4 5272.44,840.92 5312.41,869.33 5350.92,899.6 5387.9,931.64 5423.31,965.4 5457.06,1000.8 5489.1,1037.79 5519.36,1076.3 5547.79,1116.27 5574.3,1157.63 5598.85,1200.32 5621.36,1244.28 5641.78,1289.43 5660.03,1335.73 5676.06,1383.1 5689.8,1431.47 5701.18,1480.79 5710.15,1530.99 5716.63,1582 5720.56,1633.78 5721.89,1686.24 5720.56,1738.7 5716.63,1790.47 5710.15,1841.48 5701.18,1891.69 5689.8,1941 5676.06,1989.38 5660.03,2036.75 5641.78,2083.04 5639.59,2087.88 6751.46,2087.88 4708.1,2871.49 5021.7,2871.49 5021.7,2926.75 5168.69,2871.5 5273.24,2871.5 5273.24,2904.16 5360.88,2871.5 6119.37,2871.5 6119.37,2988.99 5713.39,3133.5 5713.39,3134.03 5795.91,3104.66 5956.74,3104.66 5956.74,3222.16 5318.53,3444.63 5318.53,3455.33 4986.17,3571.02 5021.7,3571.02 5021.7,3601.8 5110.61,3571.01 5713.39,3571.01 5713.39,3688.52 5195.37,3860.68 5195.37,3921.68 4844.39,4037.4 5251.13,4037.4 5251.13,4154.87 4888.19,4270.56 6154.01,4270.56 6154.01,4388.06 5321.54,4635.31 6527.9,4635.31 6550.75,4634.21 6572.95,4630.99 6594.37,4625.76 4260.6,5283.66 4231.1,5283.66 3138.66,5283.66 2798.52,5283.66 1710.03,5283.66 1403.05,5283.66 1267.58,5283.66 1064.22,5283.66 924.94,5283.66 913.85,5283.66 776.38,5283.66 667.13,5283.66 609.83,5283.66 551.72,5283.66 476.56,5283.66 432.05,5283.66 367.11,5283.66 320.06,5283.66 302.18,5283.66 166.4,5283.66 81.17,5283.66 34.86,5283.66 -0,5283.66 -0,5235.29 -0,5212.89 -0,5199.64 -0,5190.33 -0,5115.43 -0,5101.95 -0,5039.53 -0,5016.43 -0,5005.77 -0,4993.16 -0,4970.55 -0,4948.38 -0,4918.97 -0,4908.09 -0,4843.78 -0,4819.97 -0,4811.91 -0,4796.01 -0,4784.01 -0,4722.51 -0,4714.2 -0,4689.09 -0,4648.01 -0,4623.51 -0,4618.06 -0,4598.83 -0,4597.48 -0,4526.07 -0,4520.37 -0,4454.57 -0,4452.28 -0,4434.82 -0,4427.08 -0,4424.17 -0,4424.07 -0,4401.7 -0,4329.6 -0,4326.49 -0,4256.51 -0,4230.61 -0,4204.51 -0,4076.06 -0,4063.63 -0,3970.59 -0,3883.48 -0,3879.32 -0,3745.65 -0,3655.39 -0,3636.23 -0,3505.65 -0,3505.62 -0,3505.6 -0,3503.61 -0,3378.71 -0,3376.3 -0,3362.31 -0,3309.39 -0,3297.89 -0,3281.36 -0,3278.78 -0,3222.45 -0,3222.35 -0,3222.25 -0,3092.23 -0,3008.35 -0,2907.59 -0,2875.92 "/>
  <path class="fil2" d="M578.49 4627.69c17.95,27.21 29.6,53.36 40.96,82.43 8.45,16.91 12.93,48.09 52.57,48.09 11.61,0 28.28,-3.42 43.06,-11.61 16.63,-8.73 29.32,-21.94 35.94,-42l15.85 -53.36 38.57 -19.02 2.64 2.64c-5.27,20.09 -6.59,39.36 -6.59,54.43 0,44.63 38.57,61.56 69.22,61.56 17.95,0 34.09,-8.73 34.09,-25.11 0,-21.13 -8.98,-57.06 -20.62,-89.29 17.95,-17.95 35.94,-35.94 56.53,-50.47l3.17 1.6c8.98,38.04 14,75.56 14,100.66 0,24.57 -10.83,51.79 -19.81,69.49 -18.49,34.87 -51.25,62.62 -90.87,62.62 -30.1,0 -63.65,-15.07 -86.66,-43.06l-1.32 0c-21.66,26.96 -55.22,51.25 -108.86,51.25l-16.63 0c-2.64,35.41 -10.29,60.49 -21.94,82.95 -31.95,62.34 -126.81,106.47 -216.1,106.47 -124.17,0 -186.51,-71.59 -186.51,-166.96 0,-58.91 19.27,-113.6 48.88,-152.42l24.29 10.04c-18.49,35.41 -30.91,68.68 -30.91,101.45 0,89.29 72.66,131.83 156.4,131.83 77.68,0 173.83,-49.41 191.28,-106.72 -6.59,-62.62 -30.1,-91.93 -66.04,-148.99 10.83,-19.02 24.83,-38.04 42.28,-58.38l3.17 0 0 0 0 0 -0.02 -0.09zm1432.13 -336.04c26.15,16.39 51.79,35.66 76.87,57.85 -14,19.81 -31.45,37.79 -53.11,53.64 -25.11,-20.34 -50.19,-37.79 -75.84,-56.27 17.42,-19.55 34.62,-38.29 52.04,-55.22l0 0 0 0 0 0 0 0 0 0 0.03 0zm13.47 244.11c-42.28,0 -76.87,27.75 -76.87,48.34 0,44.13 84.53,57.85 185.72,57.31 -12.68,-51.79 -57.06,-105.68 -108.86,-105.68l0.01 0.03zm-94.86 236.19c54.96,0 103.04,-1.6 139.74,-10.83 40.96,-10.29 75.56,-30.91 75.56,-45.17 0,-3.7 0,-8.19 -1.32,-11.89 -22.98,2.11 -49.41,2.11 -72.38,2.11 -74.49,0 -131.55,-16.91 -154.02,-58.66 -5.55,-11.61 -9.51,-24.57 -9.51,-39.36 0,-40.43 17.42,-79.79 48.09,-107 25.61,-22.45 53.89,-36.44 82.67,-36.44 52.04,0 93.51,41.75 122.57,107.54 15.85,35.94 26.68,77.4 26.68,129.72 0,34.87 -9.51,64.19 -31.17,85.85 -40.43,39.11 -114.92,53.89 -229.04,53.89l-51.79 0 0 0 -13.47 0c-28.28,0 -48.62,-5.02 -64.72,-17.42l-2.64 0c0.79,6.59 1.32,12.93 1.32,19.02 0,25.61 -8.45,58.38 -25.61,84.53 -50.72,75.3 -105.68,108.04 -153.24,108.04 -48.09,0 -107,-18.49 -160.11,-42.54l9.51 -18.49c17.17,7.13 40.96,11.89 73.7,11.89 85.85,0 198.66,-82.43 212.66,-163 -3.17,-6.59 -8.98,-15.32 -17.17,-24.57 -25.11,-29.85 -40.96,-54.68 -55.75,-80.83 12.68,-25.11 24.29,-45.17 35.13,-63.4l4.49 -0.53c36.72,74.77 69.99,117.55 144.23,117.55l11.61 0 0 0 53.89 0 0 0 0 0 0 0 0 0 0 0 0.09 0.01zm-371.98 79c6.34,-34.34 6.87,-72.91 6.87,-108.86l0 -53.36c0,-99.6 -12.68,-244.36 -22.98,-338.68 17.95,-19.27 43.06,-42 62.87,-57.31l5.81 1.6c13.47,118.62 16.63,256 16.63,383.06 0,33.3 -1.32,65.79 -4.49,89.55 -1.85,30.1 -19.27,52.83 -56.53,87.7l-8.19 -3.7zm-382.8 -157.19c1.85,46.77 24.83,83.49 105.15,83.49 49.93,0 92.19,-12.93 138.96,-35.13 8.45,-3.7 12.93,-8.73 12.93,-12.93 0,-29.32 -22.45,-68.15 -60.23,-103.55 -36.72,-33.3 -85.34,-62.62 -130.76,-82.18 -15.6,-6.59 -20.62,-13.47 -20.62,-20.09 0,-13.47 17.95,-41.75 32.77,-62.09l5.02 -0.53c52.04,27.21 110.17,67.64 153.24,112.53 39.11,41.47 63.4,83.49 63.4,129.19 0,33.81 -10.29,65.51 -26.96,95.11 -57.06,28.79 -117.83,50.72 -178.06,50.72 -73.17,0 -123.1,-34.34 -123.1,-114.92 0,-8.73 0,-22.19 3.17,-39.64l25.11 0 0 0 0 0 0 0 0 0 0 0 -0.02 0zm-132.37 -132.9l45.45 73.45c16.63,27.21 32.23,56.81 32.23,103.55l0 59.7c0,48.34 -30.91,100.13 -80.83,151.38 -39.11,34.62 -73.7,49.41 -105.68,49.41 -47.55,0 -101.98,-14.79 -164.85,-41.75l7.13 -18.49c19.81,5.27 42.79,9.77 71.06,9.77 90.36,-0.53 182.8,-66.57 225.08,-147.15 5.02,-9.26 6.87,-17.95 6.87,-24.04 0,-9.26 -5.02,-19.55 -8.98,-28.79 -22.98,-43.31 -48.62,-82.95 -76.87,-119.68 14.79,-23.25 29.6,-45.7 45.7,-67.9l3.7 0.53 0 0 0 0 0 0 0 0 0 0 -0.02 0.01z"/>
  <g id="_2963035942576">
   <g>
    <path class="fil3" d="M6751.46 1838.34c0,-85.68 -71.78,-155.14 -160.31,-155.14l-3777.39 0c-88.56,0 -160.29,69.46 -160.29,155.14l0 249.54 4097.99 0 0 -249.54z"/>
    <path class="fil4" d="M6751.46 2087.89l0 2334.84c0,117.4 -100.11,212.59 -223.56,212.59l-3650.91 0c-123.45,0 -223.51,-95.18 -223.51,-212.59l0 -2334.84 4097.99 0z"/>
    <g>
     <polygon class="fil5" points="3936.84,2988.99 4514.14,2988.99 4514.14,2871.5 3936.84,2871.5 "/>
     <path class="fil6" d="M6119.37 2871.5l-758.48 0 0 117.49 758.48 0 0 -117.49zm-846.13 0l-104.54 0 0 117.49 104.54 0 0 -117.49zm-251.54 117.49l-346.11 0 0 -117.5 346.11 0 0 117.5z"/>
     <path class="fil3" d="M5956.74 3104.66l-160.84 0 0 117.5 160.84 0 0 -117.5zm-243.35 117.5l-602.78 0 0 -117.5 602.78 0 0 117.5z"/>
     <polygon class="fil5" points="4138.94,3222.16 5021.72,3222.16 5021.72,3104.66 4138.94,3104.66 "/>
     <polygon class="fil5" points="4138.94,4154.87 5251.13,4154.87 5251.13,4037.4 4138.94,4037.4 "/>
     <path class="fil3" d="M5021.7 3571.02l-364.86 0 0 117.5 364.86 0 0 -117.5zm691.69 117.49l-602.78 0 0 -117.5 602.78 0 0 117.5z"/>
     <path class="fil5" d="M3326.45 4270.56l-75.52 0 0 117.5 75.52 0 0 -117.5zm0 -233.17l-75.52 0 0 117.5 75.52 0 0 -117.5zm0 -233.19l-75.52 0 0 117.5 75.52 0 0 -117.5zm0 -233.18l-75.52 0 0 117.5 75.52 0 0 -117.5zm0 -233.19l-75.52 0 0 117.5 75.52 0 0 -117.5zm0 -233.16l-75.52 0 0 117.5 75.52 0 0 -117.5zm0 -115.69l-75.52 0 0 -117.5 75.52 0 0 117.5z"/>
     <path class="fil3" d="M3608.71 4270.56l-206.75 0 0 117.5 206.75 0 0 -117.5zm0 -233.17l-206.75 0 0 117.5 206.75 0 0 -117.5zm0 -233.19l-206.75 0 0 117.5 206.75 0 0 -117.5zm0 -233.18l-206.75 0 0 117.5 206.75 0 0 -117.5zm0 -233.19l-206.75 0 0 117.5 206.75 0 0 -117.5zm0 -233.16l-206.75 0 0 117.5 206.75 0 0 -117.5zm0 -115.69l-206.75 0 0 -117.5 206.75 0 0 117.5z"/>
     <polygon class="fil5" points="4373.6,3455.33 4580.36,3455.33 4580.36,3337.84 4373.6,3337.84 "/>
     <polygon class="fil5" points="4656.84,3455.33 4760.2,3455.33 4760.2,3337.84 4656.84,3337.84 "/>
     <polygon class="fil3" points="4917.26,3921.68 5195.37,3921.68 5195.37,3804.21 4917.26,3804.21 "/>
     <polygon class="fil3" points="4848.67,3455.33 5318.53,3455.33 5318.53,3337.84 4848.67,3337.84 "/>
     <polygon class="fil7" points="4373.64,4388.06 6154.01,4388.06 6154.01,4270.56 4373.64,4270.56 "/>
    </g>
   </g>
   <g>
    <circle class="fil8" cx="4702.47" cy="1686.24" r="1019.42"/>
    <path class="fil4" d="M5703.42 1686.24c0,-276.41 -112.05,-526.67 -293.17,-707.78 -181.12,-181.13 -431.38,-293.18 -707.78,-293.18 -276.4,0 -526.66,112.05 -707.78,293.18 -181.12,181.11 -293.17,431.37 -293.17,707.78 0,276.4 112.05,526.66 293.17,707.77 181.12,181.13 431.38,293.18 707.78,293.18 276.4,0 526.66,-112.05 707.78,-293.18 181.12,-181.11 293.17,-431.37 293.17,-707.77zm-267.05 -733.9c187.82,187.82 304,447.3 304,733.9 0,286.59 -116.18,546.08 -304,733.89 -187.82,187.83 -447.3,304 -733.9,304 -286.6,0 -546.08,-116.17 -733.89,-304 -187.83,-187.81 -304,-447.3 -304,-733.89 0,-286.6 116.17,-546.08 304,-733.9 187.81,-187.83 447.29,-304 733.89,-304 286.6,0 546.08,116.17 733.9,304z"/>
    <path class="fil9" d="M3997.3 1709.6c0,-15.77 0,-31.52 0,-47.31 0,-2.45 0,-2.45 0,-5.43 0,-29.09 2.72,-55.47 7.87,-81.84 5.43,-29.09 13.05,-58.18 23.66,-84.55 16.04,-36.95 34.52,-68.51 66.32,-95.13 23.65,-20.92 50,-33.99 79.09,-42.14 18.48,-5.17 36.7,-5.17 55.47,-5.17 158.49,0 314.25,0 472.73,0 0,0 2.72,0 2.72,0 0,-16.04 0,-31.8 0,-47.57 -113.63,0 -227.27,0 -343.34,0 0,-2.72 0,-2.72 0,-5.18 0,-50.28 0,-103.3 0,-153.59 0,-2.44 0,-2.44 0,-5.18 0,-5.15 0,-13.04 2.72,-18.22 5.17,-23.91 15.76,-42.13 33.99,-58.45 18.75,-18.22 42.41,-31.52 66.04,-42.14 37.25,-15.76 76.93,-23.91 116.35,-29.09 29.08,-2.44 58.17,-5.17 86.98,-5.17 0,0 3,0 3,0 18.47,0 36.7,0 55.47,0 0,0 2.44,0 5.17,0 34.53,0 66.05,2.72 97.6,7.89 31.79,5.43 63.6,13.05 92.44,23.91 29.09,10.61 58.17,26.37 82.09,50.01 18.22,18.47 34.26,42.41 39.4,68.79 2.72,13.32 2.72,26.37 2.72,36.97 0,103.02 0,206.05 0,308.82 0,16.05 -2.72,34.53 -5.18,50.28 -10.61,42.14 -31.52,76.66 -68.79,97.6 -36.96,23.92 -76.65,34.52 -116.35,34.52 -110.64,0 -224.55,0 -335.45,0 -20.94,0 -44.85,2.72 -66.04,7.87 -39.14,10.61 -71.23,31.83 -94.89,63.35 -26.64,39.67 -39.69,81.83 -39.69,129.66 0,55.19 0,110.92 0,166.11 0,0 0,2.72 0,5.18 -2.72,0 -2.72,0 -5.18,0 -39.69,0 -79.37,0 -119.06,0 -7.62,0 -15.76,0 -23.37,-2.45 -32.08,-5.15 -58.46,-20.91 -82.39,-42.13 -26.37,-23.65 -44.58,-55.47 -57.9,-89.7 -10.61,-29.36 -18.48,-58.17 -23.93,-87.26 -5.18,-26.37 -7.62,-55.47 -7.62,-81.84 0,-8.15 0,-16.04 -2.72,-23.91l0 0 0 2.44 0 0 0 0.03 0.09 -0.01zm512.44 -617.63l0 0c-34.52,0 -60.89,26.37 -60.89,60.62 0,34.27 26.37,60.9 60.89,63.33 34.27,0 60.62,-29.09 60.62,-60.9 0,-34.26 -26.37,-60.61 -60.62,-60.61l0 0 0 -2.45z"/>
    <path class="fil10" d="M5405.2 1588.09c0,63.61 0,126.95 0,190.57 0,5.15 -2.72,10.32 -2.72,15.76 -5.42,29.09 -10.6,55.47 -21.21,81.84 -13.33,36.7 -34.27,71.22 -63.61,97.59 -28.84,26.65 -63.05,42.41 -100.03,47.87 -13.33,2.44 -26.37,2.44 -39.7,2.44 -156.04,0 -314.25,0 -470.3,0 0,0 -2.44,0 -2.44,0 0,15.77 0,31.82 0,47.57 113.36,0 227.25,0 343.07,0 0,2.44 0,2.44 0,5.43 0,55.47 0,108.21 0,163.66 0,5.16 0,10.33 -2.45,18.48 -5.17,26.37 -18.47,44.59 -39.69,60.89 -23.93,20.95 -52.74,33.99 -84.55,44.58 -42.13,13.32 -84.27,21.47 -129.39,23.93 -26.09,2.72 -52.44,2.72 -76.37,2.72 -34.53,0 -66.05,0 -97.59,-5.18 -21.47,-3 -39.7,-5.43 -58.46,-8.17 -34.26,-5.43 -66.04,-15.77 -95.13,-31.52 -28.84,-13.6 -55.19,-34.53 -73.67,-60.9 -13.32,-18.47 -21.22,-39.69 -23.91,-60.62 0,-8.14 0,-16.04 0,-23.91 0,-100.59 0,-203.33 0,-303.92 0,-18.22 0,-36.97 5.15,-52.74 10.61,-42.13 31.83,-76.4 68.79,-100.31 36.98,-23.93 76.66,-34.53 118.79,-34.53 111.19,0 224.55,0 335.45,0 21.22,0 44.87,-2.44 66.07,-7.61 37.24,-10.61 68.79,-29.09 89.98,-60.9 29.09,-37.25 39.69,-79.39 42.13,-126.68 0,-55.47 0,-113.91 0,-169.09 0,-2.72 0,-2.72 0,-5.43 2.72,0 2.72,0 5.18,0 37.23,0 76.65,0 113.91,0 23.38,0 47.31,5.43 68.51,16.04 31.53,15.77 58.18,42.14 76.38,71.5 29.09,44.58 42.69,92.14 50.3,144.89 0,5.43 2.71,10.6 2.71,18.75l0 0 -5.15 -3 0 0 0 0 -0.05 0zm-507.26 692.4l0 0c34.53,0 60.9,-26.37 63.33,-60.89 0,-34.27 -26.37,-60.62 -60.62,-60.62 -34.26,0 -60.89,26.37 -60.89,60.62 0,34.52 26.64,60.89 60.89,60.89l-2.72 0z"/>
   </g>
  </g>
 </g>
</svg>
