<?xml version="1.0" encoding="UTF-8"?>
<!DOCTYPE svg PUBLIC "-//W3C//DTD SVG 1.1//EN" "http://www.w3.org/Graphics/SVG/1.1/DTD/svg11.dtd">
<!-- Creator: CorelDRAW 2020 (64-Bit) -->
<svg xmlns="http://www.w3.org/2000/svg" xml:space="preserve" width="94.1916mm" height="52.9166mm" version="1.1" style="shape-rendering:geometricPrecision; text-rendering:geometricPrecision; image-rendering:optimizeQuality; fill-rule:evenodd; clip-rule:evenodd" viewBox="0 0 9404.92 5283.66" xmlns:xlink="http://www.w3.org/1999/xlink" xmlns:xodm="http://www.corel.com/coreldraw/odm/2003">
 <defs>
  <style type="text/css">
   <![CDATA[
    .str0 {stroke:white;stroke-width:7.62;stroke-miterlimit:22.9256}
    .fil0 {fill:#E6E7E8}
    .fil5 {fill:#07827D;fill-rule:nonzero}
    .fil22 {fill:#3B4756;fill-rule:nonzero}
    .fil20 {fill:#3D3D3D;fill-rule:nonzero}
    .fil9 {fill:#415566;fill-rule:nonzero}
    .fil4 {fill:#7A1A27;fill-rule:nonzero}
    .fil16 {fill:#7D7D7D;fill-rule:nonzero}
    .fil7 {fill:#8C293D;fill-rule:nonzero}
    .fil11 {fill:#8F2F1D;fill-rule:nonzero}
    .fil6 {fill:#9BCDA8;fill-rule:nonzero}
    .fil14 {fill:#B2B2B2;fill-rule:nonzero}
    .fil8 {fill:#B3481D;fill-rule:nonzero}
    .fil3 {fill:#C95D1D;fill-rule:nonzero}
    .fil13 {fill:#D6D6D6;fill-rule:nonzero}
    .fil17 {fill:#DB2321;fill-rule:nonzero}
    .fil10 {fill:#F99B21;fill-rule:nonzero}
    .fil12 {fill:#FDC238;fill-rule:nonzero}
    .fil21 {fill:#FDCE54;fill-rule:nonzero}
    .fil19 {fill:#FF4632;fill-rule:nonzero}
    .fil18 {fill:#FFD2E6;fill-rule:nonzero}
    .fil15 {fill:white;fill-rule:nonzero}
    .fil2 {fill:#373435;fill-opacity:0.031373}
    .fil1 {fill:#2B2A29;fill-opacity:0.101961}
   ]]>
  </style>
 </defs>
 <g id="Layer_x0020_1">
  <metadata id="CorelCorpID_0Corel-Layer"/>
  <polygon class="fil0" points="-0,0 9404.92,0 9404.92,5283.66 -0,5283.66 "/>
  <polygon class="fil1" points="-0,4498.13 -0,4495.16 -0,4488.52 -0,4488.04 -0,4482.02 -0,4481.37 -0,4477.95 -0,4468.31 -0,4465.02 -0,4464.27 -0,4463.71 -0,4462.94 -0,4462.73 -0,4461.3 -0,4460.86 -0,4460.37 -0,4458.33 -0,4457.97 -0,4455.98 -0,4455.26 -0,4452.21 -0,4449.03 -0,4449.02 -0,4448.76 -0,4447.56 -0,4443.53 -0,4435.09 -0,4435.04 -0,4432.35 -0,4430.94 -0,4428.36 -0,4427.91 -0,4423.34 -0,4423.33 -0,4421.81 -0,4419.78 -0,4418.29 -0,4417.72 -0,4411.42 -0,4403.75 -0,4402.76 -0,4402.68 -0,4401.71 -0,4401.54 -0,4400.41 -0,4399.75 -0,4397.99 -0,4397.98 -0,4395.21 -0,4392.45 -0,4392.18 -0,4388.7 -0,4387.46 -0,4386.01 -0,4377.4 -0,4374.4 -0,4374.15 -0,4371 -0,4367.6 -0,4367.18 -0,4360.99 -0,4356.89 -0,4353.96 -0,4344.76 -0,4343.19 -0,4342.22 -0,4341.99 -0,4340.98 -0,4339.85 -0,4337.29 -0,4334.57 -0,4333.35 -0,4331.56 -0,4330.67 -0,4329.86 -0,4328.05 -0,4326.78 -0,4326.53 -0,4315.44 -0,4315.27 -0,4313.12 -0,4312.76 -0,4312.75 -0,4311.58 -0,4309.36 -0,4306.84 -0,4305.85 -0,4304.7 -0,4301.98 -0,4299.66 -0,4297.42 -0,4289.94 -0,4286.16 -0,4282.06 -0,4281.08 -0,4280.27 -0,4278.7 -0,4278.36 -0,4277.87 -0,4276.61 -0,4273.35 -0,4270.35 -0,4266.8 -0,4265.5 -0,4259.87 -0,4258.86 -0,4258.83 -0,4257.21 -0,4252.56 -0,4220.32 -0,4219.33 -0,4218.52 -0,4216.96 -0,4215.09 -0,4212.74 -0,4208.54 -0,4207.73 -0,4204.77 -0,4204.31 -0,4197.32 -0,4196.27 -0,4195.78 -0,4193.88 -0,4188.69 -0,4187.2 -0,4185.04 -0,4178.96 -0,4172.98 -0,4160.72 -0,4151.66 -0,4151.2 -0,4148.19 -0,4142.92 -0,4141.88 -0,4139.43 -0,4133.85 -0,4132.85 -0,4131.33 -0,4129.38 -0,4128.46 -0,4123.99 -0,4120.5 -0,4116.68 -0,4113.98 -0,4112.78 -0,4110.5 -0,4109.29 -0,4105.01 -0,4101.51 -0,4101.23 -0,4093.8 -0,4090.32 -0,4088.57 -0,4085.96 -0,4082.45 -0,4082.24 -0,4074.77 -0,4071.28 -0,4070.8 -0,4066.86 -0,4063.35 -0,4063.19 -0,4055.69 -0,4054.83 -0,4052.54 -0,4052.18 -0,4047.71 -0,4044.18 -0,4044.08 -0,4040.1 -0,4036.55 -0,4033.02 -0,4030.77 -0,4027.46 -0,4026.33 -0,4024.92 -0,4021.46 -0,4021.13 -0,4017.35 -0,4013.81 -0,4011.68 -0,4008.13 -0,4006.99 -0,4005.7 -0,4002.09 -0,3998.88 -0,3992.52 -0,3973.3 -0,3954.03 -0,3934.7 -0,3872.68 3339.09,2271.64 3339.09,2341.33 4020.85,2016 4020.85,2038.2 4067.45,2016 4067.45,2038.16 4114.05,2016 4114.05,2038.13 4160.65,2016 4160.65,2027.04 4331.59,1945.89 4331.59,1967.99 4378.2,1945.89 4378.2,1967.94 4424.78,1945.89 4424.78,2071.67 4433.38,2071.67 4362.52,2104.92 4362.52,2147.92 4049.44,2294.38 4049.44,2302.52 5215.24,1757.47 5214.47,1758.43 5216.08,1757.67 5218.58,1766.1 5242.6,1758.95 5245.77,1757.47 5245.77,1758.01 6237.22,1463.02 6529.85,1327.81 6521.2,1332.5 6513.66,1338.72 6507.44,1346.26 6502.75,1354.91 6499.78,1364.47 6498.74,1374.74 6499.77,1384.89 6548.75,1370.33 6828.19,1750.44 6792.66,1766.27 6827.31,1766.27 6827.31,1870.02 6815.82,1875.1 6815.82,1878.82 6836.11,1878.82 6815.82,1887.77 6815.82,1899.85 6907.36,1899.85 6913.64,1899.22 6919.48,1897.41 6815.82,1943.01 6815.82,2091.24 6889.27,2091.24 6605.99,2214.37 6605.99,2218.77 6599.45,2221.62 6599.45,2227.49 6605.99,2227.49 6605.99,2236.28 6602.44,2237.82 6599.45,2240.34 6599.45,2314.08 6601.54,2315.86 6605.99,2315.86 6605.99,2324.65 6599.45,2327.48 6599.45,2333.36 6605.99,2333.36 6605.99,2342.15 6602.49,2343.66 6599.45,2346.23 6599.45,2419.97 6601.51,2421.72 6605.99,2421.72 6605.99,2430.52 6599.45,2433.32 6599.45,2439.25 6605.99,2439.25 6605.99,2448.03 6602.49,2449.53 6599.45,2452.1 6599.45,2525.83 6601.56,2527.63 6605.99,2527.63 6605.99,2536.41 6599.45,2539.19 6599.45,2545.13 6605.99,2545.13 6605.99,2553.92 6602.51,2555.4 6599.45,2557.98 6599.45,2631.72 6601.53,2633.49 6605.99,2633.49 6605.99,2642.27 6599.45,2645.03 6599.45,2651.02 6605.99,2651.02 6605.99,2659.77 6602.61,2661.19 6599.45,2663.86 6599.45,2737.59 6601.55,2739.38 6605.99,2739.38 6605.99,2748.16 6599.45,2750.9 6599.45,2756.89 6605.99,2756.89 6605.99,2765.65 6602.61,2767.06 6599.45,2769.74 6599.45,2843.47 6601.54,2845.25 6605.99,2845.25 6605.99,2854.05 6599.45,2856.77 6599.45,2862.75 6605.99,2862.75 6605.99,2871.52 6602.61,2872.92 6599.45,2875.6 6599.45,2949.33 6601.55,2951.13 6605.99,2951.13 6605.99,2959.91 6599.45,2962.6 6599.45,2968.64 6605.99,2968.64 6605.99,2977.43 6602.64,2978.81 6599.45,2981.5 6599.45,3055.2 6601.55,3057 6605.99,3057 6605.99,3065.8 6599.45,3068.47 6599.45,3074.51 6605.99,3074.51 6605.99,3083.29 6602.68,3084.64 6599.45,3087.37 6599.45,3161.09 6601.55,3162.89 6605.99,3162.89 6605.99,3171.68 6599.45,3174.33 6599.45,3180.39 6605.99,3180.39 6605.99,3189.18 6602.64,3190.54 6599.45,3193.24 6599.45,3266.97 6601.54,3268.76 6605.99,3268.76 6605.99,3277.55 6599.45,3280.18 6599.45,3656.16 6577.05,3664.94 6608.26,3664.94 6466.55,3720.42 6466.55,3778.15 6466.54,3778.15 6467.42,3785.11 6469.77,3790.33 6473.13,3793.75 6477.06,3795.28 6481.13,3794.87 6455.44,3804.87 6455.44,3830.37 6680.53,3830.37 6719.68,3830.37 6540.91,3899.25 6556.39,3897.77 6610.29,3892.06 6660.18,3886.16 6705.93,3880.09 6747.42,3873.85 6784.52,3867.45 6817.09,3860.9 6845.01,3854.22 6868.14,3847.42 6886.36,3840.48 3119.32,5283.66 2947.82,5283.66 2913.04,5283.66 2713.1,5283.66 2678.35,5283.66 2678.33,5283.66 2654.88,5283.66 2603.96,5283.66 2603.9,5283.66 2515.5,5283.66 2473.5,5283.66 2446.12,5283.66 2370.28,5283.66 1951.33,5283.66 1951.29,5283.66 1807.45,5283.66 1790.68,5283.66 1790.64,5283.66 1779.81,5283.66 1709.06,5283.66 1690.61,5283.66 1680.96,5283.66 1641.4,5283.66 1628.41,5283.66 1628.27,5283.66 1618.6,5283.66 1609.84,5283.66 1609.35,5283.66 1607.89,5283.66 1567.62,5283.66 1561.42,5283.66 1536.44,5283.66 1534.24,5283.66 1532.2,5283.66 1532.18,5283.66 1515.31,5283.66 1470.93,5283.66 1470.91,5283.66 1442.81,5283.66 1442.79,5283.66 1442.69,5283.66 1425.68,5283.66 1425.64,5283.66 1424.45,5283.66 1423.9,5283.66 1414.75,5283.66 1406.33,5283.66 1396.57,5283.66 1388.05,5283.66 1387.52,5283.66 1380.29,5283.66 1343.73,5283.66 1330.52,5283.66 1327.21,5283.66 1315.07,5283.66 1308.56,5283.66 1294.24,5283.66 1285.56,5283.66 1264.93,5283.66 1264.23,5283.66 1225.93,5283.66 1223.53,5283.66 1223.47,5283.66 1210.66,5283.66 1207.19,5283.66 1205.48,5283.66 1204.89,5283.66 1190.13,5283.66 1190.11,5283.66 1189.41,5283.66 1189.39,5283.66 1189.13,5283.66 1189.12,5283.66 1187.64,5283.66 1178.02,5283.66 1169.62,5283.66 1169.07,5283.66 1125.94,5283.66 1125.33,5283.66 1124.77,5283.66 1124.16,5283.66 1124.14,5283.66 1120.6,5283.66 1118.68,5283.66 1118.67,5283.66 1118.64,5283.66 1118.22,5283.66 1112.28,5283.66 1110.05,5283.66 1110.03,5283.66 1097.07,5283.66 1093.39,5283.66 1093.36,5283.66 1087.72,5283.66 1078.84,5283.66 1076.52,5283.66 1055.05,5283.66 1018.51,5283.66 1007.67,5283.66 1007.55,5283.66 989.88,5283.66 989.21,5283.66 982.59,5283.66 972.26,5283.66 962.7,5283.66 960.27,5283.66 954.54,5283.66 953.99,5283.66 949.69,5283.66 943.14,5283.66 943.13,5283.66 935.86,5283.66 935.78,5283.66 935.75,5283.66 932.44,5283.66 924.46,5283.66 910.28,5283.66 897.38,5283.66 882.42,5283.66 862.15,5283.66 851.03,5283.66 849.29,5283.66 847.65,5283.66 831.7,5283.66 830.81,5283.66 794.98,5283.66 794.86,5283.66 788.63,5283.66 787.7,5283.66 782.24,5283.66 777.5,5283.66 776.78,5283.66 765.92,5283.66 760.2,5283.66 750.69,5283.66 742.72,5283.66 742.17,5283.66 736.55,5283.66 736.51,5283.66 716.19,5283.66 716.16,5283.66 700.66,5283.66 698.48,5283.66 697.75,5283.66 691.56,5283.66 691.52,5283.66 690.06,5283.66 690.02,5283.66 685.7,5283.66 671.07,5283.66 651.18,5283.66 651.03,5283.66 640.87,5283.66 640.86,5283.66 622.73,5283.66 599.95,5283.66 597.2,5283.66 585.57,5283.66 585.44,5283.66 568.36,5283.66 567.6,5283.66 551.27,5283.66 541.86,5283.66 534.09,5283.66 533.51,5283.66 516.4,5283.66 504.4,5283.66 489.84,5283.66 477.26,5283.66 462.81,5283.66 459.68,5283.66 444.91,5283.66 444.9,5283.66 443.1,5283.66 433.16,5283.66 419.51,5283.66 396.94,5283.66 389.63,5283.66 379.26,5283.66 379.15,5283.66 372.63,5283.66 371.57,5283.66 365.16,5283.66 362.34,5283.66 361.54,5283.66 352.18,5283.66 349.44,5283.66 345.84,5283.66 345.46,5283.66 339.19,5283.66 339.14,5283.66 336.75,5283.66 336.15,5283.66 328.54,5283.66 327.97,5283.66 325.43,5283.66 323.93,5283.66 299.16,5283.66 293.18,5283.66 284.38,5283.66 281.7,5283.66 281.68,5283.66 271.92,5283.66 265.75,5283.66 259.65,5283.66 257.69,5283.66 255.62,5283.66 244.92,5283.66 243.41,5283.66 238.22,5283.66 222.81,5283.66 218.9,5283.66 188.28,5283.66 176.08,5283.66 175.87,5283.66 159.33,5283.66 158.49,5283.66 142.73,5283.66 133.55,5283.66 126.07,5283.66 125.45,5283.66 90.2,5283.66 84.8,5283.66 81.85,5283.66 78.05,5283.66 73.43,5283.66 69.57,5283.66 60.83,5283.66 57.25,5283.66 55.65,5283.66 45.64,5283.66 36.42,5283.66 32.27,5283.66 22.3,5283.66 20.86,5283.66 4.58,5283.66 3.99,5283.66 2.09,5283.66 -0,5283.66 -0,5281.57 -0,5281.53 -0,5276.41 -0,5273.32 -0,5273.29 -0,5273.28 -0,5273.22 -0,5266.26 -0,5265.89 -0,5261.48 -0,5261.47 -0,5261.25 -0,5259.24 -0,5255.32 -0,5253.41 -0,5252.17 -0,5251.94 -0,5239.42 -0,5239.41 -0,5233.2 -0,5227.95 -0,5227.64 -0,5227.63 -0,5227.02 -0,5227.01 -0,5223.84 -0,5222.04 -0,5218.05 -0,5216.36 -0,5213.82 -0,5210.26 -0,5198.05 -0,5189.69 -0,5189.64 -0,5189.62 -0,5188.22 -0,5188.13 -0,5187.86 -0,5186.62 -0,5186.31 -0,5186.26 -0,5186.25 -0,5186.24 -0,5186.13 -0,5183.21 -0,5182.43 -0,5182.34 -0,5181.16 -0,5180.77 -0,5177.93 -0,5174.54 -0,5174.16 -0,5170.22 -0,5167.09 -0,5166.83 -0,5166.48 -0,5156.29 -0,5155.71 -0,5155.68 -0,5154.96 -0,5153.4 -0,5152.3 -0,5147.84 -0,5142.56 -0,5138.44 -0,5138.32 -0,5137.81 -0,5136.67 -0,5130.54 -0,5128.45 -0,5124.37 -0,5121.85 -0,5116.63 -0,5112.55 -0,5110.99 -0,5110.25 -0,5110.13 -0,5110.08 -0,5103.13 -0,5103.03 -0,5099.32 -0,5098.05 -0,5098.04 -0,5098.02 -0,5097.69 -0,5096.77 -0,5096.06 -0,5095.66 -0,5095.65 -0,5093.35 -0,5091.76 -0,5090.37 -0,5089.07 -0,5085.11 -0,5083.72 -0,5082 -0,5081.74 -0,5080.79 -0,5080.13 -0,5080.12 -0,5079.51 -0,5079.5 -0,5077.38 -0,5076.6 -0,5076.15 -0,5075.22 -0,5073.19 -0,5072.29 -0,5071.49 -0,5069.27 -0,5066.96 -0,5066.49 -0,5066.48 -0,5065.53 -0,5062.51 -0,5061.65 -0,5057.19 -0,5052.98 -0,5051.31 -0,5048.68 -0,5048.24 -0,5048.23 -0,5047.47 -0,5043.07 -0,5041.72 -0,5039.94 -0,5037.49 -0,5031 -0,5027.38 -0,5022.72 -0,5020.8 -0,5020.78 -0,5020.42 -0,5018.05 -0,5017.93 -0,5017.44 -0,5017.38 -0,5015.24 -0,5010.98 -0,5010.54 -0,5007.42 -0,5007.27 -0,5005.62 -0,5004.53 -0,5003.99 -0,5003.82 -0,5003.06 -0,5000.87 -0,5000 -0,4996.92 -0,4996.64 -0,4983.88 -0,4977.13 -0,4974.11 -0,4972.84 -0,4971.82 -0,4969.84 -0,4968.64 -0,4968.17 -0,4965.96 -0,4965.2 -0,4965.18 -0,4963.03 -0,4958.42 -0,4957.71 -0,4954.93 -0,4954.13 -0,4950.73 -0,4947.43 -0,4947.18 -0,4946.56 -0,4939.07 -0,4937.49 -0,4937.46 -0,4932.95 -0,4932.83 -0,4931.84 -0,4928.53 -0,4928.49 -0,4925.89 -0,4925.43 -0,4922.79 -0,4918.89 -0,4914.89 -0,4911.82 -0,4911.54 -0,4909.76 -0,4904.59 -0,4900.17 -0,4898.67 -0,4891.77 -0,4887.28 -0,4886.45 -0,4883.13 -0,4880.59 -0,4877.68 -0,4872.33 -0,4871.96 -0,4870.64 -0,4863.45 -0,4863.31 -0,4862.38 -0,4862.11 -0,4856.48 -0,4854.14 -0,4847.86 -0,4847.75 -0,4842.1 -0,4840.81 -0,4840.3 -0,4833.9 -0,4833.8 -0,4833.39 -0,4829.76 -0,4828.83 -0,4826.73 -0,4826.44 -0,4824.83 -0,4820.35 -0,4806.43 -0,4801.53 -0,4801.08 -0,4795.25 -0,4792.26 -0,4788.73 -0,4786.96 -0,4784.35 -0,4780.6 -0,4779.79 -0,4778.66 -0,4775.16 -0,4773.74 -0,4772.71 -0,4764.23 -0,4762.78 -0,4762.64 -0,4761.25 -0,4758.31 -0,4755.72 -0,4755.19 -0,4748.71 -0,4744.66 -0,4742.58 -0,4741.65 -0,4741.34 -0,4736.6 -0,4734.74 -0,4730.42 -0,4730.32 -0,4728.94 -0,4723.44 -0,4723.43 -0,4721.09 -0,4717.52 -0,4717.18 -0,4716.59 -0,4715.71 -0,4713.15 -0,4709.88 -0,4707.68 -0,4704.19 -0,4701.97 -0,4701.6 -0,4697.55 -0,4697.13 -0,4693.75 -0,4692.88 -0,4689.43 -0,4689.19 -0,4684.84 -0,4682.34 -0,4681.71 -0,4681.4 -0,4678.83 -0,4677.69 -0,4677.56 -0,4672.02 -0,4670.91 -0,4670.62 -0,4670.1 -0,4668.26 -0,4665.56 -0,4664.98 -0,4663.62 -0,4661.43 -0,4659.55 -0,4659.24 -0,4656.55 -0,4656.24 -0,4656.07 -0,4655.18 -0,4653.92 -0,4651.19 -0,4646.7 -0,4643.27 -0,4641.05 -0,4640.75 -0,4639.81 -0,4637.44 -0,4635.73 -0,4634.5 -0,4631.96 -0,4630.33 -0,4629.47 -0,4625.52 -0,4624.53 -0,4624.49 -0,4624.4 -0,4622.22 -0,4620.05 -0,4616.22 -0,4613.63 -0,4607.12 -0,4606.57 -0,4604.57 -0,4603.69 -0,4601.66 -0,4600.73 -0,4600.55 -0,4597.53 -0,4596.68 -0,4592.6 -0,4592.47 -0,4590.79 -0,4586.07 -0,4585.52 -0,4584.98 -0,4581.92 -0,4580.93 -0,4579 -0,4578.81 -0,4578.59 -0,4578.53 -0,4578.35 -0,4574.42 -0,4573.61 -0,4571.46 -0,4571.14 -0,4570.56 -0,4569.42 -0,4567.17 -0,4566.01 -0,4563.2 -0,4563.12 -0,4563.11 -0,4563.09 -0,4563.07 -0,4563.04 -0,4563.03 -0,4563.01 -0,4563 -0,4561.59 -0,4554.68 -0,4550.37 -0,4548.1 -0,4547.59 -0,4544.95 -0,4543.6 -0,4542.97 -0,4541.66 -0,4539.18 -0,4537.6 -0,4532.79 -0,4532.67 -0,4530.84 -0,4524.55 -0,4523.1 -0,4522.11 -0,4519.76 -0,4517.84 -0,4514.72 -0,4512.63 -0,4511.66 -0,4509.81 -0,4508.25 -0,4507.36 -0,4507.19 -0,4507.06 -0,4505.11 -0,4502.43 -0,4501.34 -0,4499.86 "/>
  <path class="fil2" d="M578.49 4627.69c17.95,27.21 29.6,53.36 40.96,82.43 8.45,16.91 12.93,48.09 52.57,48.09 11.61,0 28.28,-3.42 43.06,-11.61 16.63,-8.73 29.32,-21.94 35.94,-42l15.85 -53.36 38.57 -19.02 2.64 2.64c-5.27,20.09 -6.59,39.36 -6.59,54.43 0,44.63 38.57,61.56 69.22,61.56 17.95,0 34.09,-8.73 34.09,-25.11 0,-21.13 -8.98,-57.06 -20.62,-89.29 17.95,-17.95 35.94,-35.94 56.53,-50.47l3.17 1.6c8.98,38.04 14,75.56 14,100.66 0,24.57 -10.83,51.79 -19.81,69.49 -18.49,34.87 -51.25,62.62 -90.87,62.62 -30.1,0 -63.65,-15.07 -86.66,-43.06l-1.32 0c-21.66,26.96 -55.22,51.25 -108.86,51.25l-16.63 0c-2.64,35.41 -10.29,60.49 -21.94,82.95 -31.95,62.34 -126.81,106.47 -216.1,106.47 -124.17,0 -186.51,-71.59 -186.51,-166.96 0,-58.91 19.27,-113.6 48.88,-152.42l24.29 10.04c-18.49,35.41 -30.91,68.68 -30.91,101.45 0,89.29 72.66,131.83 156.4,131.83 77.68,0 173.83,-49.41 191.28,-106.72 -6.59,-62.62 -30.1,-91.93 -66.04,-148.99 10.83,-19.02 24.83,-38.04 42.28,-58.38l3.17 0 0 0 0 0 -0.02 -0.09zm1432.13 -336.04c26.15,16.39 51.79,35.66 76.87,57.85 -14,19.81 -31.45,37.79 -53.11,53.64 -25.11,-20.34 -50.19,-37.79 -75.84,-56.27 17.42,-19.55 34.62,-38.29 52.04,-55.22l0 0 0 0 0 0 0 0 0 0 0.03 0zm13.47 244.11c-42.28,0 -76.87,27.75 -76.87,48.34 0,44.13 84.53,57.85 185.72,57.31 -12.68,-51.79 -57.06,-105.68 -108.86,-105.68l0.01 0.03zm-94.86 236.19c54.96,0 103.04,-1.6 139.74,-10.83 40.96,-10.29 75.56,-30.91 75.56,-45.17 0,-3.7 0,-8.19 -1.32,-11.89 -22.98,2.11 -49.41,2.11 -72.38,2.11 -74.49,0 -131.55,-16.91 -154.02,-58.66 -5.55,-11.61 -9.51,-24.57 -9.51,-39.36 0,-40.43 17.42,-79.79 48.09,-107 25.61,-22.45 53.89,-36.44 82.67,-36.44 52.04,0 93.51,41.75 122.57,107.54 15.85,35.94 26.68,77.4 26.68,129.72 0,34.87 -9.51,64.19 -31.17,85.85 -40.43,39.11 -114.92,53.89 -229.04,53.89l-51.79 0 0 0 -13.47 0c-28.28,0 -48.62,-5.02 -64.72,-17.42l-2.64 0c0.79,6.59 1.32,12.93 1.32,19.02 0,25.61 -8.45,58.38 -25.61,84.53 -50.72,75.3 -105.68,108.04 -153.24,108.04 -48.09,0 -107,-18.49 -160.11,-42.54l9.51 -18.49c17.17,7.13 40.96,11.89 73.7,11.89 85.85,0 198.66,-82.43 212.66,-163 -3.17,-6.59 -8.98,-15.32 -17.17,-24.57 -25.11,-29.85 -40.96,-54.68 -55.75,-80.83 12.68,-25.11 24.29,-45.17 35.13,-63.4l4.49 -0.53c36.72,74.77 69.99,117.55 144.23,117.55l11.61 0 0 0 53.89 0 0 0 0 0 0 0 0 0 0 0 0.09 0.01zm-371.98 79c6.34,-34.34 6.87,-72.91 6.87,-108.86l0 -53.36c0,-99.6 -12.68,-244.36 -22.98,-338.68 17.95,-19.27 43.06,-42 62.87,-57.31l5.81 1.6c13.47,118.62 16.63,256 16.63,383.06 0,33.3 -1.32,65.79 -4.49,89.55 -1.85,30.1 -19.27,52.83 -56.53,87.7l-8.19 -3.7zm-382.8 -157.19c1.85,46.77 24.83,83.49 105.15,83.49 49.93,0 92.19,-12.93 138.96,-35.13 8.45,-3.7 12.93,-8.73 12.93,-12.93 0,-29.32 -22.45,-68.15 -60.23,-103.55 -36.72,-33.3 -85.34,-62.62 -130.76,-82.18 -15.6,-6.59 -20.62,-13.47 -20.62,-20.09 0,-13.47 17.95,-41.75 32.77,-62.09l5.02 -0.53c52.04,27.21 110.17,67.64 153.24,112.53 39.11,41.47 63.4,83.49 63.4,129.19 0,33.81 -10.29,65.51 -26.96,95.11 -57.06,28.79 -117.83,50.72 -178.06,50.72 -73.17,0 -123.1,-34.34 -123.1,-114.92 0,-8.73 0,-22.19 3.17,-39.64l25.11 0 0 0 0 0 0 0 0 0 0 0 -0.02 0zm-132.37 -132.9l45.45 73.45c16.63,27.21 32.23,56.81 32.23,103.55l0 59.7c0,48.34 -30.91,100.13 -80.83,151.38 -39.11,34.62 -73.7,49.41 -105.68,49.41 -47.55,0 -101.98,-14.79 -164.85,-41.75l7.13 -18.49c19.81,5.27 42.79,9.77 71.06,9.77 90.36,-0.53 182.8,-66.57 225.08,-147.15 5.02,-9.26 6.87,-17.95 6.87,-24.04 0,-9.26 -5.02,-19.55 -8.98,-28.79 -22.98,-43.31 -48.62,-82.95 -76.87,-119.68 14.79,-23.25 29.6,-45.7 45.7,-67.9l3.7 0.53 0 0 0 0 0 0 0 0 0 0 -0.02 0.01z"/>
  <g id="_1920143697056">
   <g>
    <path class="fil3" d="M5514.02 3863.76l56.23 -1075.82 84.75 0 0 -122.63 19.04 0 0 122.63 80.75 0 0 -122.63 19.03 0 0 122.63 161.74 0 0 -122.63 19.04 0 0 122.63 152.24 0 0 -122.63 19.05 0 0 122.63 34.55 0c0,0 -17.76,1065.9 -12.86,1075.82l-633.51 0 0 0 -0.05 0z"/>
    <polygon class="fil4" points="6048.89,3088.42 5967.75,3088.42 5967.75,2914.97 6048.89,2914.97 "/>
    <polygon class="fil4" points="5851.39,3088.42 5770.25,3088.42 5770.25,2914.97 5851.39,2914.97 "/>
    <polygon class="fil4" points="6048.89,3385.64 5967.75,3385.64 5967.75,3212.2 6048.89,3212.2 "/>
    <polygon class="fil4" points="5851.39,3385.64 5770.25,3385.64 5770.25,3212.2 5851.39,3212.2 "/>
   </g>
   <path class="fil5" d="M3496.07 3679.77c1.05,-0.19 1.94,-1 2.13,-2.01 0,0 0.28,-1.48 0.77,-3.88 0.87,-2.9 2.67,-8.75 5.2,-16.29 5.3,-11.67 15.35,-27.41 34.33,-44.45 32.84,-29.44 101.73,-97.09 127.56,-142.58 18.88,-33.22 46.33,-92.33 17.97,-115.02 -11.41,-9.14 -23.6,-11.9 -36.26,-8.24 -54.12,15.69 -102.01,146.9 -117.76,190.03 -0.77,2.12 -1.47,3.99 -2.06,5.63 -14.47,39.22 -27.57,99.77 -32.52,123.86 -1.9,6.37 -2.1,10.25 -2.13,10.71 -0.06,1.2 0.93,2.18 2.78,2.23l0.03 0 -0.04 0z"/>
   <path class="fil6" d="M3511.03 3638.8c5.7,-14.76 12.78,-30.98 20.6,-44.3 4.41,-7.53 13.68,-23.39 25.36,-43.48l57.89 -18.3c-27.15,30.64 -58.88,61.65 -81.22,81.67 -9.56,8.59 -16.95,16.83 -22.65,24.45l0 -0.03 0.01 0zm109.69 -112.78l-60.3 19.09c6.14,-10.54 12.84,-22.08 19.82,-34.08l67.24 -18.4c-7.6,10.55 -16.76,21.9 -26.73,33.41l-0.02 0 -0.01 -0.02zm39.5 -52.96c-2.46,4.3 -5.35,8.9 -8.62,13.67l-68.11 18.66c3.64,-6.27 7.34,-12.64 11.06,-19.04l84.48 -51.64c-5.73,14.26 -12.86,27.86 -18.79,38.35l-0.02 0 -0.01 0zm27.04 -63.7c-1.4,6.02 -3.31,12.19 -5.54,18.32l-82.33 50.31c34.53,-59.49 68.92,-118.75 69.54,-119.85 0.13,-0.19 0.2,-0.44 0.25,-0.64 3.37,1.45 6.7,3.47 10,6.12 10.44,8.37 13.17,23.74 8.08,45.72l0 0.02 -0.01 -0.01zm-22.62 -53.25c-0.68,1.14 -37.86,65.27 -73.75,127.09l-0.86 0.52c-1.01,0.65 -1.42,1.8 -1.06,2.8 -3.16,5.44 -6.3,10.84 -9.41,16.19 0,0 -10.02,-47.61 -10.2,-48.1 2.46,-5.18 4.99,-10.33 7.63,-15.45 24.96,-48.71 48.7,-76.6 70.46,-82.91 1.33,-0.39 2.64,-0.68 3.92,-0.91 4.56,-0.78 9.01,-0.58 13.26,0.77l0.02 0.02 -0.02 -0.01zm-131.49 187c6.15,-16.85 17.7,-48.52 32.75,-81.13l9.93 47.14c-22.03,37.96 -41.41,71.26 -48.48,83.29 -8.14,13.81 -15.45,30.74 -21.27,45.93 6.38,-27.89 15.41,-63.5 25.02,-89.58 0.61,-1.65 1.29,-3.53 2.06,-5.66l0 0 -0.02 0.01zm-38.58 141.13c1.06,-0.19 1.94,-0.96 2.13,-1.97 0,0 0.29,-1.48 0.77,-3.92 0.88,-2.9 2.64,-8.73 5.18,-16.26 5.31,-11.67 15.36,-27.45 34.36,-44.46 32.84,-29.41 101.72,-97.09 127.56,-142.57 18.86,-33.24 46.3,-92.33 17.95,-115.03 -11.41,-9.13 -23.6,-11.9 -36.26,-8.22 -54.14,15.71 -102.02,146.93 -117.76,190.04 -0.77,2.13 -1.47,3.99 -2.06,5.63 -14.47,39.22 -27.57,99.76 -32.53,123.83 -1.92,6.38 -2.09,10.29 -2.11,10.71 -0.06,1.22 0.9,2.22 2.77,2.23l0.04 -0.03 -0.04 0.01z"/>
   <path class="fil7" d="M6910.24 3819.03c0,77.78 -927.61,140.83 -2071.86,140.83 -1144.27,0 -2071.88,-63.05 -2071.88,-140.83 0,-77.78 927.61,-140.83 2071.88,-140.83 1144.26,0 2071.86,63.05 2071.86,140.83z"/>
   <path class="fil8" d="M6499.33 3656.16l100.12 0 0 -2161.02 -100.12 0 0 2161.02zm108.93 8.78l-117.68 0 0 -2178.59 117.68 0 0 2178.59z"/>
   <path class="fil8" d="M6455.44 3830.37l264.24 0 0 -486.03c0,-28.5 -23.11,-51.57 -51.57,-51.57l-161.1 0c-28.49,0 -51.57,23.1 -51.57,51.57l0 486.03z"/>
   <path class="fil3" d="M6416.29 3830.37l264.24 0 0 -486.03c0,-28.5 -23.09,-51.57 -51.58,-51.57l-161.07 0c-28.49,0 -51.57,23.1 -51.57,51.57l0 486.03 -0.02 0z"/>
   <path class="fil8" d="M5254.53 1870.02l1572.78 0 0 -103.75 -1572.78 0 0 103.75zm1581.58 8.8l-1590.34 0 0 -121.35 1590.34 0 0 121.35z"/>
   <path class="fil9" d="M6800.66 1899.85l106.7 0c17.21,0 31.11,-13.94 31.11,-31.11l0 -91.82c0,-17.2 -13.9,-31.12 -31.11,-31.12l-106.7 0c-17.17,0 -31.11,13.93 -31.11,31.12l0 91.82c0,17.21 13.96,31.11 31.11,31.11z"/>
   <polygon class="fil9" points="6815.82,2091.24 6889.27,2091.24 6889.27,1872.86 6815.82,1872.86 "/>
   <polygon class="fil8" points="6500.58,3276.52 6494.9,3269.8 6597.1,3183.72 6602.77,3190.43 "/>
   <polygon class="fil8" points="6597.07,3276.5 6496.6,3190.4 6502.32,3183.74 6602.77,3269.82 "/>
   <polygon class="fil8" points="6494.96,3189.18 6605.99,3189.18 6605.99,3180.39 6494.96,3180.39 "/>
   <polygon class="fil8" points="6494.96,3277.55 6605.99,3277.55 6605.99,3268.76 6494.96,3268.76 "/>
   <polygon class="fil8" points="6500.58,3170.65 6494.9,3163.92 6597.1,3077.85 6602.77,3084.57 "/>
   <polygon class="fil8" points="6597.07,3170.61 6496.6,3084.54 6502.32,3077.86 6602.77,3163.94 "/>
   <polygon class="fil8" points="6494.96,3083.29 6605.99,3083.29 6605.99,3074.51 6494.96,3074.51 "/>
   <polygon class="fil8" points="6494.96,3171.68 6605.99,3171.68 6605.99,3162.89 6494.96,3162.89 "/>
   <polygon class="fil8" points="6500.58,3064.76 6494.9,3058.03 6597.1,2971.97 6602.77,2978.7 "/>
   <polygon class="fil8" points="6597.07,3064.75 6496.6,2978.66 6502.32,2972 6602.77,3058.05 "/>
   <polygon class="fil8" points="6494.96,2977.43 6605.99,2977.43 6605.99,2968.64 6494.96,2968.64 "/>
   <polygon class="fil8" points="6494.96,3065.8 6605.99,3065.8 6605.99,3057 6494.96,3057 "/>
   <polygon class="fil8" points="6500.58,2958.88 6494.9,2952.16 6597.1,2866.08 6602.77,2872.79 "/>
   <polygon class="fil8" points="6597.07,2958.85 6496.6,2872.79 6502.32,2866.12 6602.77,2952.18 "/>
   <polygon class="fil8" points="6494.96,2871.52 6605.99,2871.52 6605.99,2862.75 6494.96,2862.75 "/>
   <polygon class="fil8" points="6494.96,2959.91 6605.99,2959.91 6605.99,2951.13 6494.96,2951.13 "/>
   <polygon class="fil8" points="6500.58,2853.02 6494.9,2846.28 6597.1,2760.21 6602.77,2766.93 "/>
   <polygon class="fil8" points="6597.07,2852.97 6496.6,2766.91 6502.32,2760.23 6602.77,2846.31 "/>
   <polygon class="fil8" points="6494.96,2765.65 6605.99,2765.65 6605.99,2756.89 6494.96,2756.89 "/>
   <polygon class="fil8" points="6494.96,2854.05 6605.99,2854.05 6605.99,2845.25 6494.96,2845.25 "/>
   <polygon class="fil8" points="6500.58,2747.12 6494.9,2740.41 6597.1,2654.35 6602.77,2661.06 "/>
   <polygon class="fil8" points="6597.07,2747.09 6496.6,2661.03 6502.32,2654.38 6602.77,2740.43 "/>
   <polygon class="fil8" points="6494.96,2659.77 6605.99,2659.77 6605.99,2651.02 6494.96,2651.02 "/>
   <polygon class="fil8" points="6494.96,2748.16 6605.99,2748.16 6605.99,2739.38 6494.96,2739.38 "/>
   <polygon class="fil8" points="6500.58,2641.24 6494.9,2634.54 6597.1,2548.46 6602.77,2555.18 "/>
   <polygon class="fil8" points="6597.07,2641.21 6496.6,2555.16 6502.32,2548.46 6602.77,2634.56 "/>
   <polygon class="fil8" points="6494.96,2553.92 6605.99,2553.92 6605.99,2545.13 6494.96,2545.13 "/>
   <polygon class="fil8" points="6494.96,2642.27 6605.99,2642.27 6605.99,2633.49 6494.96,2633.49 "/>
   <polygon class="fil8" points="6500.58,2535.38 6494.9,2528.64 6597.1,2442.59 6602.77,2449.29 "/>
   <polygon class="fil8" points="6597.07,2535.36 6496.6,2449.27 6502.32,2442.61 6602.77,2528.67 "/>
   <polygon class="fil8" points="6494.96,2448.03 6605.99,2448.03 6605.99,2439.25 6494.96,2439.25 "/>
   <polygon class="fil8" points="6494.96,2536.41 6605.99,2536.41 6605.99,2527.63 6494.96,2527.63 "/>
   <polygon class="fil8" points="6500.58,2429.51 6494.9,2422.77 6597.1,2336.71 6602.77,2343.42 "/>
   <polygon class="fil8" points="6597.07,2429.47 6496.6,2343.39 6502.32,2336.72 6602.77,2422.81 "/>
   <polygon class="fil8" points="6494.96,2342.15 6605.99,2342.15 6605.99,2333.36 6494.96,2333.36 "/>
   <polygon class="fil8" points="6494.96,2430.52 6605.99,2430.52 6605.99,2421.72 6494.96,2421.72 "/>
   <polygon class="fil8" points="6500.58,2323.62 6494.9,2316.9 6597.1,2230.82 6602.77,2237.54 "/>
   <polygon class="fil8" points="6597.07,2323.6 6496.6,2237.52 6502.32,2230.86 6602.77,2316.92 "/>
   <polygon class="fil8" points="6494.96,2236.28 6605.99,2236.28 6605.99,2227.49 6494.96,2227.49 "/>
   <polygon class="fil8" points="6494.96,2324.65 6605.99,2324.65 6605.99,2315.86 6494.96,2315.86 "/>
   <polygon class="fil8" points="6500.58,2217.74 6494.9,2211 6597.1,2124.95 6602.77,2131.67 "/>
   <polygon class="fil8" points="6597.07,2217.72 6496.6,2131.65 6502.32,2124.97 6602.77,2211.04 "/>
   <polygon class="fil8" points="6494.96,2130.41 6605.99,2130.41 6605.99,2121.62 6494.96,2121.62 "/>
   <polygon class="fil8" points="6494.96,2218.77 6605.99,2218.77 6605.99,2209.97 6494.96,2209.97 "/>
   <polygon class="fil8" points="6500.58,2111.87 6494.9,2105.15 6597.1,2019.08 6602.77,2025.79 "/>
   <polygon class="fil8" points="6597.07,2111.85 6496.6,2025.77 6502.32,2019.08 6602.77,2105.17 "/>
   <polygon class="fil8" points="6494.96,2024.52 6605.99,2024.52 6605.99,2015.74 6494.96,2015.74 "/>
   <polygon class="fil8" points="6494.96,2112.92 6605.99,2112.92 6605.99,2104.12 6494.96,2104.12 "/>
   <polygon class="fil8" points="6500.58,2005.98 6494.9,1999.26 6597.1,1913.18 6602.77,1919.92 "/>
   <polygon class="fil8" points="6597.07,2005.97 6496.6,1919.88 6502.32,1913.22 6602.77,1999.3 "/>
   <polygon class="fil8" points="6494.96,1918.65 6605.99,1918.65 6605.99,1909.87 6494.96,1909.87 "/>
   <polygon class="fil8" points="6494.96,2007.03 6605.99,2007.03 6605.99,1998.23 6494.96,1998.23 "/>
   <polygon class="fil8" points="6500.58,1900.12 6494.9,1893.4 6597.1,1807.31 6602.77,1814.03 "/>
   <polygon class="fil8" points="6597.07,1900.08 6496.6,1814 6502.32,1807.35 6602.77,1893.41 "/>
   <polygon class="fil8" points="6494.96,1812.78 6605.99,1812.78 6605.99,1803.99 6494.96,1803.99 "/>
   <polygon class="fil8" points="6494.96,1901.15 6605.99,1901.15 6605.99,1892.36 6494.96,1892.36 "/>
   <polygon class="fil8" points="6500.58,1794.23 6494.9,1787.52 6597.1,1701.45 6602.77,1708.18 "/>
   <polygon class="fil8" points="6597.07,1794.21 6496.6,1708.15 6502.32,1701.46 6602.77,1787.53 "/>
   <polygon class="fil8" points="6494.96,1706.9 6605.99,1706.9 6605.99,1698.1 6494.96,1698.1 "/>
   <polygon class="fil8" points="6494.96,1795.26 6605.99,1795.26 6605.99,1786.49 6494.96,1786.49 "/>
   <polygon class="fil8" points="6500.58,1688.36 6494.9,1681.62 6597.1,1595.56 6602.77,1602.3 "/>
   <polygon class="fil8" points="6597.07,1688.33 6496.6,1602.26 6502.32,1595.58 6602.77,1681.64 "/>
   <polygon class="fil8" points="6494.96,1601.02 6605.99,1601.02 6605.99,1592.21 6494.96,1592.21 "/>
   <polygon class="fil8" points="6494.96,1689.39 6605.99,1689.39 6605.99,1680.6 6494.96,1680.6 "/>
   <polygon class="fil8" points="6500.58,1582.48 6494.9,1575.76 6597.1,1489.67 6602.77,1496.41 "/>
   <polygon class="fil8" points="6597.07,1582.44 6496.6,1496.37 6502.32,1489.71 6602.77,1575.77 "/>
   <path class="fil8" d="M6501.52 1486.35l98.17 0 -33.92 -92.29 -26.24 0 -38.02 92.29 0 0 0.01 0zm110.75 8.8l-123.87 0 45.27 -109.88 38.22 0 40.38 109.88 0 0z"/>
   <polygon class="fil8" points="6494.96,1583.51 6605.99,1583.51 6605.99,1574.72 6494.96,1574.72 "/>
   <polygon class="fil8" points="6645.14,1877.58 6639.51,1870.86 6769.13,1761.64 6774.82,1768.38 "/>
   <polygon class="fil8" points="6769.1,1877.56 6641.66,1768.36 6647.39,1761.67 6774.82,1870.88 "/>
   <polygon class="fil8" points="6638.8,1766.5 6779.66,1766.5 6779.66,1757.7 6638.8,1757.7 "/>
   <polygon class="fil8" points="6638.8,1878.61 6779.66,1878.61 6779.66,1869.83 6638.8,1869.83 "/>
   <polygon class="fil8" points="6371.34,1877.58 6365.71,1870.86 6495.34,1761.64 6501,1768.38 "/>
   <polygon class="fil8" points="6495.31,1877.56 6367.84,1768.36 6373.57,1761.67 6501.03,1870.88 "/>
   <polygon class="fil8" points="6505.86,1878.61 6360.58,1878.61 6360.58,1757.7 6505.86,1757.7 6505.86,1766.5 6369.38,1766.5 6369.38,1869.82 6505.86,1869.82 "/>
   <polygon class="fil8" points="6210.91,1877.59 6205.32,1870.83 6338.05,1761.6 6343.64,1768.41 "/>
   <polygon class="fil8" points="6334.9,1877.56 6207.45,1768.36 6213.18,1761.67 6340.65,1870.88 "/>
   <path class="fil8" d="M6208.97 1869.82l132.1 0 0 -103.34 -132.1 0 0 103.34zm140.85 8.79l-149.6 0 0 -120.93 149.6 0 0 120.93z"/>
   <polygon class="fil8" points="6052.1,1877.59 6046.53,1870.83 6179.26,1761.6 6184.82,1768.41 "/>
   <polygon class="fil8" points="6176.1,1877.56 6048.65,1768.36 6054.37,1761.67 6181.84,1870.88 "/>
   <path class="fil8" d="M6050.18 1869.82l132.06 0 0 -103.34 -132.06 0 0 103.34zm140.85 8.79l-149.64 0 0 -120.93 149.64 0 0 120.93z"/>
   <polygon class="fil8" points="5893.3,1877.59 5887.72,1870.83 6020.45,1761.6 6026.04,1768.41 "/>
   <polygon class="fil8" points="6017.31,1877.56 5889.84,1768.36 5895.57,1761.67 6023.01,1870.88 "/>
   <path class="fil8" d="M5891.38 1869.82l132.07 0 0 -103.34 -132.07 0 0 103.34zm140.87 8.79l-149.64 0 0 -120.93 149.64 0 0 120.93z"/>
   <polygon class="fil8" points="5734.5,1877.59 5728.92,1870.83 5861.67,1761.6 5867.26,1768.41 "/>
   <polygon class="fil8" points="5858.51,1877.56 5731.04,1768.36 5736.78,1761.67 5864.23,1870.88 "/>
   <path class="fil8" d="M5732.58 1869.82l132.07 0 0 -103.34 -132.07 0 0 103.34zm140.85 8.79l-149.63 0 0 -120.93 149.63 0 0 120.93z"/>
   <polygon class="fil8" points="5575.72,1877.59 5570.13,1870.83 5702.87,1761.6 5708.43,1768.41 "/>
   <polygon class="fil8" points="5699.71,1877.56 5572.24,1768.36 5577.97,1761.67 5705.43,1870.88 "/>
   <path class="fil8" d="M5573.78 1869.82l132.07 0 0 -103.34 -132.07 0 0 103.34zm140.86 8.79l-149.63 0 0 -120.93 149.63 0 0 120.93z"/>
   <polygon class="fil8" points="5416.9,1877.59 5411.31,1870.83 5544.07,1761.6 5549.63,1768.41 "/>
   <polygon class="fil8" points="5540.91,1877.56 5413.44,1768.36 5419.17,1761.67 5546.63,1870.88 "/>
   <path class="fil8" d="M5414.98 1869.82l132.07 0 0 -103.34 -132.07 0 0 103.34zm140.86 8.79l-149.64 0 0 -120.93 149.64 0 0 120.93z"/>
   <polygon class="fil8" points="5258.11,1877.59 5252.53,1870.83 5385.25,1761.6 5390.83,1768.41 "/>
   <polygon class="fil8" points="5382.1,1877.56 5254.63,1768.36 5260.37,1761.67 5387.83,1870.88 "/>
   <path class="fil8" d="M5256.17 1869.82l132.07 0 0 -103.34 -132.07 0 0 103.34zm140.86 8.79l-149.64 0 0 -120.93 149.64 0 0 120.93z"/>
   <path class="fil8" d="M5134.61 1870.02l111.13 0 0 -103.75 -26.35 0 -84.79 103.75 0.01 0zm119.93 8.8l-138.44 0 99.15 -121.35 39.31 0 0 121.35 -0.02 0z"/>
   <polygon class="fil8" points="5218.58,1766.1 5216.08,1757.67 6552.18,1360.17 6835.24,1745.25 6828.19,1750.44 6548.75,1370.33 "/>
   <polygon class="fil8" points="5180.54,2279.26 5192.25,2279.26 5192.25,1894.82 5180.54,1894.82 "/>
   <polygon class="fil9" points="5070.92,2420.32 5303.27,2420.32 5303.27,2310.4 5070.92,2310.4 "/>
   <polygon class="fil9" points="5070.92,2389.17 5303.27,2389.17 5303.27,2279.27 5070.92,2279.27 "/>
   <path class="fil10" d="M6466.55 3778.15l0 -406.52c0,-9.52 5.18,-17.24 11.58,-17.24l104.35 0c9.99,0 15.32,17.48 8.72,28.6 -13.22,22.21 -31.78,58.65 -51.57,113.88 -16.71,46.59 -35.68,173.07 -50.05,284.52 -2.65,20.52 -23.04,17.64 -23.04,-3.25l0 0 0.01 0.02z"/>
   <path class="fil9" d="M6441.17 1818.16c0,59.77 48.46,108.24 108.24,108.24 59.77,0 108.24,-48.47 108.24,-108.24 0,-59.78 -48.47,-108.25 -108.24,-108.25 -59.78,0 -108.24,48.47 -108.24,108.25z"/>
   <path class="fil9" d="M6498.74 1374.74c0,28.16 22.81,50.96 50.94,50.96 28.15,0 50.94,-22.81 50.94,-50.96 0,-28.14 -22.81,-50.93 -50.94,-50.93 -28.15,0 -50.94,22.8 -50.94,50.93z"/>
   <polygon class="fil9" points="5119.43,1914.26 5253.37,1914.26 5253.37,1875.34 5119.43,1875.34 "/>
   <path class="fil9" d="M5536.17 3473.65c0.26,0 0.52,0 0.8,-0.04 6.7,-0.47 11.76,-6.78 11.32,-14.03l-54.83 -900.15c-0.44,-7.28 -6.44,-12.67 -12.93,-12.3 -6.7,0.47 -11.74,6.79 -11.3,14.03l54.82 900.16c0.44,6.98 5.76,12.33 12.1,12.33l0.02 0 0 0z"/>
   <path class="fil9" d="M5172.76 3620.17c6.46,0 11.83,-5.53 12.1,-12.6l41 -1046.66c0.29,-7.27 -4.89,-13.44 -11.6,-13.75 -6.49,0 -12.35,5.34 -12.63,12.62l-41 1046.64c-0.28,7.28 4.9,13.44 11.6,13.75 0.16,0 0.35,0 0.52,0l0 -0.02 0.01 0.02z"/>
   <path class="fil9" d="M5460.89 3414.79l1.91 -26.29 -243.07 -20.78 296.46 -249.37c4.04,-3.4 5.69,-9.2 4.11,-14.47 -1.57,-5.3 -6.01,-8.95 -11.13,-9.17l-282.77 -11.33 264.34 -218.21c4.13,-3.43 5.82,-9.33 4.13,-14.7 -1.64,-5.38 -6.28,-9.01 -11.48,-9.01l-245.11 0 252.44 -207.97c4.14,-3.42 5.82,-9.34 4.18,-14.71 -1.66,-5.35 -6.3,-8.97 -11.49,-8.97l-269.68 0 0 26.34 233.58 0 -252.46 207.97c-4.14,3.4 -5.82,9.34 -4.18,14.71 1.67,5.35 6.28,8.99 11.49,8.99l245.17 0 -262.7 216.84c-4.08,3.37 -5.77,9.17 -4.21,14.48 1.55,5.31 5.98,8.99 11.13,9.22l283.26 11.35 -294.79 248.01c-3.98,3.34 -5.65,8.97 -4.22,14.2 1.45,5.21 5.69,8.95 10.68,9.37l274.38 23.45 0.04 0 0 0.04z"/>
   <path class="fil4" d="M4870.39 2187.26l-12.99 0 0 -100.2c0,-3.54 2.9,-6.44 6.43,-6.44l0.13 0c3.55,0 6.43,2.9 6.43,6.44l0 100.2 -0.02 0 0.02 0z"/>
   <path class="fil4" d="M4939.37 2185.96l-14.18 0 0 -193c0,-3.75 3.02,-6.78 6.78,-6.78l0.63 0c3.75,0 6.79,3.02 6.79,6.78l0 193 0 0 -0.02 0z"/>
   <path class="fil4" d="M4802.59 2188.54l-14.18 0 0 -90.85c0,-3.73 3.02,-6.79 6.77,-6.79l0.64 0c3.73,0 6.77,3.04 6.77,6.79l0 90.85 -0.02 0 0.02 0z"/>
   <polygon class="fil11" points="4943.13,3194.48 5286.87,3194.48 5286.87,2885.27 4943.13,2885.27 "/>
   <polygon class="fil3" points="4776,2912.7 5012.49,2912.7 5012.49,2172.71 4776,2172.71 "/>
   <polygon class="fil3" points="4891.69,3194.48 5235.41,3194.48 5235.41,2885.27 4891.69,2885.27 "/>
   <polygon class="fil4" points="4995.75,3194.48 5203.03,3194.48 5203.03,2943.52 4995.75,2943.52 "/>
   <polygon class="fil12" points="4223.17,3194.48 4961.06,3194.48 4961.06,2728.55 4223.17,2728.55 "/>
   <polygon class="fil12" points="4724.55,2912.7 4961.06,2912.7 4961.06,2172.71 4724.55,2172.71 "/>
   <polygon class="fil8" points="4780.12,2701.15 4905.48,2701.15 4905.48,2224.5 4780.12,2224.5 "/>
   <polygon class="fil12" points="4762.39,2349.13 4918.49,2349.13 4918.49,2328.57 4762.39,2328.57 "/>
   <polygon class="fil12" points="4762.39,2467.12 4918.49,2467.12 4918.49,2446.57 4762.39,2446.57 "/>
   <polygon class="fil12" points="4762.39,2585.12 4918.49,2585.12 4918.49,2564.55 4762.39,2564.55 "/>
   <polygon class="fil8" points="4715.09,2909.92 4905.48,2909.92 4905.48,2816.78 4715.09,2816.78 "/>
   <polygon class="fil8" points="4715.09,3035.48 4905.48,3035.48 4905.48,2942.38 4715.09,2942.38 "/>
   <polygon class="fil8" points="4715.09,3161.07 4905.48,3161.07 4905.48,3067.95 4715.09,3067.95 "/>
   <path class="fil3" d="M4037.17 3773.53l-44.24 -846.59 -66.7 0 0 -96.48 -14.99 0 0 96.48 -63.54 0 0 -96.48 -14.99 0 0 96.48 -127.26 0 0 -96.48 -14.99 0 0 96.48 -119.81 0 0 -96.48 -14.99 0 0 96.48 -27.18 0c0,0 13.96,838.78 10.13,846.59l498.53 0 0.02 0z"/>
   <polygon class="fil4" points="3616.26,3163.39 3680.12,3163.39 3680.12,3026.91 3616.26,3026.91 "/>
   <polygon class="fil4" points="3771.68,3163.39 3835.52,3163.39 3835.52,3026.91 3771.68,3026.91 "/>
   <polygon class="fil4" points="3616.26,3397.3 3680.12,3397.3 3680.12,3260.81 3616.26,3260.81 "/>
   <polygon class="fil4" points="3771.68,3397.3 3835.52,3397.3 3835.52,3260.81 3771.68,3260.81 "/>
   <polygon class="fil3" points="4033.69,2147.92 4033.69,3235.08 4517.48,3235.08 4517.48,2064.29 4362.52,2064.29 4362.52,2147.92 "/>
   <polygon class="fil4" points="4424.78,2071.67 4433.38,2071.67 4433.38,1945.89 4424.78,1945.89 "/>
   <polygon class="fil4" points="4378.2,2071.67 4386.78,2071.67 4386.78,1945.89 4378.2,1945.89 "/>
   <polygon class="fil4" points="4331.59,2071.67 4340.18,2071.67 4340.18,1945.89 4331.59,1945.89 "/>
   <polygon class="fil12" points="3977.59,2141.76 3977.59,3228.94 4461.35,3228.94 4461.35,2058.11 4306.39,2058.11 4306.39,2141.76 "/>
   <polygon class="fil4" points="4004.35,2097.54 4020.85,2097.54 4020.85,2016 4029.43,2016 4029.43,2097.54 4067.45,2097.54 4067.45,2016 4076.02,2016 4076.02,2097.54 4114.05,2097.54 4114.05,2016 4122.62,2016 4122.62,2097.54 4160.65,2097.54 4160.65,2016 4169.22,2016 4169.22,2097.54 4207.25,2097.54 4207.25,2016 4215.82,2016 4215.82,2097.54 4253.83,2097.54 4253.83,2016 4262.44,2016 4262.44,2097.54 4308.11,2097.54 4308.11,2106.87 4262.44,2106.87 4262.44,2141.76 4253.83,2141.76 4253.83,2106.87 4215.82,2106.87 4215.82,2141.76 4207.25,2141.76 4207.25,2106.87 4169.22,2106.87 4169.22,2141.76 4160.65,2141.76 4160.65,2106.87 4122.62,2106.87 4122.62,2141.76 4114.05,2141.76 4114.05,2106.87 4076.02,2106.87 4076.02,2141.76 4067.45,2141.76 4067.45,2106.87 4029.43,2106.87 4029.43,2141.76 4020.85,2141.76 4020.85,2106.87 4004.35,2106.87 "/>
   <polygon class="fil8" points="4360.93,2367.82 4424.78,2367.82 4424.78,2231.33 4360.93,2231.33 "/>
   <polygon class="fil8" points="4205.53,2367.82 4269.4,2367.82 4269.4,2231.33 4205.53,2231.33 "/>
   <polygon class="fil8" points="4049.44,2367.82 4113.3,2367.82 4113.3,2231.33 4049.44,2231.33 "/>
   <polygon class="fil8" points="4360.93,2601.7 4424.78,2601.7 4424.78,2465.24 4360.93,2465.24 "/>
   <polygon class="fil8" points="4205.53,2601.7 4269.4,2601.7 4269.4,2465.24 4205.53,2465.24 "/>
   <polygon class="fil8" points="4030.68,3179.15 4416.33,3179.15 4416.33,2930.6 4030.68,2930.6 "/>
   <polygon class="fil8" points="4049.44,2601.7 4113.3,2601.7 4113.3,2465.24 4049.44,2465.24 "/>
   <polygon class="fil8" points="4360.93,2817.03 4424.78,2817.03 4424.78,2680.53 4360.93,2680.53 "/>
   <polygon class="fil8" points="4205.53,2817.03 4269.4,2817.03 4269.4,2680.53 4205.53,2680.53 "/>
   <polygon class="fil8" points="4049.44,2817.03 4113.3,2817.03 4113.3,2680.53 4049.44,2680.53 "/>
   <path class="fil13" d="M5513.56 3468.31l0 323.34 -1241.04 0 0 -0.71c-64.85,-5.51 -118.78,-49.16 -139.09,-108.51 -5.7,-16.4 -8.78,-34.06 -8.78,-52.41 0,-84.61 65.06,-153.97 147.87,-161l0 -0.71 1241.04 0 0 0 0 -0.01z"/>
   <path class="fil14" d="M5513.56 3682.46l0 109.21 -1241.04 0 0 -0.71c-64.85,-5.51 -118.78,-49.16 -139.09,-108.51l1380.13 0 0 0z"/>
   <path class="fil15" d="M5662.91 3630c0,89.31 -72.38,161.69 -161.68,161.69 -89.3,0 -161.68,-72.39 -161.68,-161.69 0,-89.3 72.39,-161.68 161.68,-161.68 89.31,0 161.68,72.39 161.68,161.68z"/>
   <path class="fil14" d="M5621.36 3630.04c0,59.44 -48.23,107.79 -107.78,107.79 -12.45,0 -24.37,-2.16 -35.47,-6.02 -42.12,-14.68 -72.29,-54.77 -72.29,-101.77 0,-48.84 32.43,-90.02 76.88,-103.28 9.79,-2.96 20.21,-4.59 30.89,-4.59 59.53,0 107.78,48.33 107.78,107.88l-0.02 0z"/>
   <path class="fil16" d="M5555.08 3628.53c0,48.84 -32.43,90.02 -76.98,103.28 -42.12,-14.68 -72.29,-54.77 -72.29,-101.77 0,-48.85 32.43,-90.02 76.88,-103.28 42.21,14.58 72.39,54.66 72.39,101.77l0.02 0 -0.02 0z"/>
   <path class="fil13" d="M5067.86 3481.95l0 323.35 -1241.03 0 0 -0.72c-64.86,-5.51 -118.79,-49.15 -139.09,-108.49 -5.7,-16.42 -8.78,-34.07 -8.78,-52.41 0,-84.63 65.06,-153.99 147.85,-161l0 -0.72 1241.03 0 0 0 0.02 -0.02z"/>
   <path class="fil14" d="M5067.86 3696.08l0 109.19 -1241.03 0 0 -0.71c-64.86,-5.51 -118.79,-49.16 -139.09,-108.49l1380.13 0 -0.02 0 0.01 0z"/>
   <path class="fil15" d="M5217.17 3643.63c0,89.31 -72.39,161.69 -161.71,161.69 -89.27,0 -161.68,-72.39 -161.68,-161.69 0,-89.3 72.39,-161.7 161.68,-161.7 89.31,0 161.71,72.39 161.71,161.7z"/>
   <path class="fil14 str0" d="M5175.62 3643.67c0,59.44 -48.23,107.79 -107.79,107.79 -12.44,0 -24.37,-2.16 -35.49,-6.01 -42.12,-14.69 -72.3,-54.79 -72.3,-101.77 0,-48.84 32.42,-90.04 76.85,-103.3 9.81,-2.97 20.21,-4.59 30.89,-4.59 59.55,0 107.79,48.35 107.79,107.89l0.02 0 0.02 0z"/>
   <path class="fil16" d="M5109.36 3642.14c0,48.84 -32.43,90.04 -76.98,103.3 -42.12,-14.7 -72.3,-54.79 -72.3,-101.77 0,-48.84 32.42,-90.04 76.86,-103.3 42.22,14.58 72.4,54.66 72.4,101.77l0.02 0z"/>
   <path class="fil13" d="M5306.76 3158.58l0 323.34 -1241.05 0 0 -0.72c-64.85,-5.5 -118.78,-49.15 -139.08,-108.5 -5.7,-16.4 -8.78,-34.04 -8.78,-52.41 0,-84.63 65.05,-153.97 147.86,-161l0 -0.71 1241.05 0 0 0 0 -0.01z"/>
   <path class="fil14" d="M5306.76 3372.7l0 109.22 -1241.05 0 0 -0.72c-64.85,-5.51 -118.78,-49.15 -139.08,-108.5l1380.13 0 0 -0.01z"/>
   <path class="fil15" d="M5456.06 3320.25c0,89.31 -72.38,161.68 -161.68,161.68 -89.3,0 -161.7,-72.38 -161.7,-161.68 0,-89.3 72.39,-161.68 161.7,-161.68 89.31,0 161.68,72.39 161.68,161.68z"/>
   <path class="fil14" d="M5414.52 3320.29c0,59.46 -48.23,107.79 -107.79,107.79 -12.45,0 -24.37,-2.15 -35.49,-6.02 -42.12,-14.67 -72.29,-54.78 -72.29,-101.77 0,-48.84 32.41,-90.02 76.88,-103.3 9.79,-2.97 20.21,-4.57 30.89,-4.57 59.53,0 107.79,48.33 107.79,107.88z"/>
   <path class="fil16" d="M5348.24 3318.76c0,48.84 -32.43,90.04 -76.99,103.3 -42.12,-14.67 -72.29,-54.78 -72.29,-101.77 0,-48.84 32.41,-90.02 76.88,-103.3 42.21,14.59 72.39,54.67 72.39,101.77l0.02 0 -0.01 0z"/>
   <path class="fil17" d="M3798.32 3781.33l0 47.43 -399.04 0 0 -47.43 58.03 0 42.89 -188.32 17.82 -78.66 31.69 -139.09c2.39,-10.54 11.78,-18 22.58,-18l52.74 0c10.8,0 20.17,7.46 22.59,18l31.68 139.09 17.83 78.66 42.89 188.32 58.3 0 0 0z"/>
   <polygon class="fil15" points="3697.19,3592.98 3571.57,3592.98 3580.6,3514.3 3679.28,3514.3 "/>
   <polygon class="fil18" points="3580.6,3514.3 3571.57,3592.98 3500.25,3592.98 3518.15,3514.3 "/>
   <path class="fil19" d="M3580.6 3514.3l-62.45 0 31.56 -139.08c2.39,-10.54 11.78,-18.02 22.58,-18.02l26.49 0 -18.18 157.09 0 0 0 0.01z"/>
   <polygon class="fil19" points="3697.19,3784.1 3697.19,3828.76 3399.34,3828.76 3399.34,3781.31 3457.37,3781.31 3500.25,3592.98 3571.57,3592.98 3549.53,3784.1 "/>
   <path class="fil20" d="M6154.15 1769.34c-0.07,0.02 -0.29,0.12 -0.04,0 0.12,-0.07 0.12,-0.07 0.07,-0.04l-0.03 0.02 0 0.03 0 -0.01z"/>
   <path class="fil20" d="M6152.71 1770.1c-0.2,0.1 0.03,-0.03 0,0z"/>
   <polygon class="fil20" points="6152.02,1770.37 6152.06,1770.37 6152.22,1770.29 "/>
   <path class="fil20" d="M6152.22 1770.29l-0.2 0.07c0.29,-0.07 0.53,-0.12 0.81,-0.21l-0.12 0.02c-0.2,0.02 -0.36,0.07 -0.49,0.12l0.02 0.02 -0.02 -0.02z"/>
   <path class="fil12" d="M4493.24 3541.54c-149.4,-33.41 -444.63,255.4 -444.63,255.4 -41.7,57.8 688.66,61.94 752.41,25.23 63.73,-36.69 -158.36,-247.19 -307.76,-280.62l-0.02 0 0 -0.02z"/>
   <path class="fil21" d="M4182.71 3768.93c-45.1,62.54 195.76,36.9 240.87,32.8 45.1,-4.1 44.12,-198.84 45.1,-215.26 3.1,-51.24 -240.91,119.93 -286.01,182.45l0.02 0 0.02 0.01z"/>
   <g>
    <polygon class="fil9" points="3339.09,2445.54 3738.94,2445.54 3738.94,2271.64 3339.09,2271.64 "/>
    <path class="fil9" d="M3539.02 2560.35c-366.82,0 -664.18,297.37 -664.18,664.18 0,366.82 297.37,664.18 664.18,664.18 366.82,0 664.18,-297.37 664.18,-664.18 0,-366.82 -297.37,-664.18 -664.18,-664.18z"/>
    <path class="fil22" d="M3442.21 2445.54l0 121.94c31.61,-4.62 63.92,-7.12 96.81,-7.12 32.88,0 65.2,2.49 96.81,7.12l0 -121.94 -193.63 0z"/>
    <path class="fil15" d="M3539.02 2689.03c-295.76,0 -535.52,239.78 -535.52,535.53 0,295.76 239.76,535.52 535.52,535.52 295.76,0 535.51,-239.76 535.51,-535.52 0,-295.75 -239.75,-535.53 -535.51,-535.53z"/>
    <path class="fil9" d="M3539.02 2779.32c-30.01,0 -54.34,24.31 -54.34,54.31 0,30.01 24.32,54.33 54.34,54.33 29.98,0 54.33,-24.31 54.33,-54.33 0,-30.01 -24.32,-54.31 -54.33,-54.31z"/>
    <path class="fil9" d="M3539.02 3561.13c-30.01,0 -54.34,24.32 -54.34,54.33 0,29.99 24.32,54.34 54.34,54.34 29.98,0 54.33,-24.32 54.33,-54.34 0,-30 -24.32,-54.33 -54.33,-54.33z"/>
    <path class="fil9" d="M3929.94 3170.23c-30.01,0 -54.32,24.32 -54.32,54.33 0,30.01 24.32,54.34 54.32,54.34 30,0 54.33,-24.32 54.33,-54.34 0,-29.98 -24.32,-54.33 -54.33,-54.33z"/>
    <path class="fil9" d="M3148.12 3170.23c-30.01,0 -54.34,24.32 -54.34,54.33 0,30.01 24.32,54.34 54.34,54.34 29.98,0 54.33,-24.32 54.33,-54.34 0,-29.98 -24.32,-54.33 -54.33,-54.33z"/>
    <path class="fil3" d="M3462.92 3164.25c-29.57,39.01 -21.91,94.61 17.08,124.18 39.01,29.58 94.62,21.94 124.18,-17.09 29.58,-38.99 125.93,-312.82 125.93,-312.82 0,0 -237.62,166.72 -267.2,205.73l0 0z"/>
   </g>
   <path class="fil9" d="M2931.14 2767.21c12.77,0 23.12,10.36 23.12,23.13 0,12.77 -10.35,23.12 -23.12,23.12l-310.61 0c-12.77,0 -23.13,-10.36 -23.13,-23.12 0,-12.77 10.36,-23.13 23.13,-23.13l310.61 0z"/>
   <path class="fil9" d="M2824.04 2949.49c12.77,0 23.13,10.36 23.13,23.12 0,12.77 -10.36,23.13 -23.13,23.13l-310.6 0c-12.77,0 -23.13,-10.36 -23.13,-23.13 0,-12.77 10.36,-23.12 23.13,-23.12l310.6 0z"/>
   <path class="fil9" d="M2800.18 3132.88c12.77,0 23.12,10.36 23.12,23.12 0,12.78 -10.36,23.13 -23.12,23.13l-310.6 0c-12.77,0 -23.13,-10.35 -23.13,-23.13 0,-12.77 10.36,-23.12 23.13,-23.12l310.6 0z"/>
  </g>
 </g>
</svg>