<?xml version="1.0" encoding="UTF-8"?>
<!DOCTYPE svg PUBLIC "-//W3C//DTD SVG 1.1//EN" "http://www.w3.org/Graphics/SVG/1.1/DTD/svg11.dtd">
<!-- Creator: CorelDRAW 2020 (64-Bit) -->
<svg xmlns="http://www.w3.org/2000/svg" xml:space="preserve" width="94.1916mm" height="52.9166mm" version="1.1" style="shape-rendering:geometricPrecision; text-rendering:geometricPrecision; image-rendering:optimizeQuality; fill-rule:evenodd; clip-rule:evenodd"
viewBox="0 0 9404.92 5283.66"
 xmlns:xlink="http://www.w3.org/1999/xlink"
 xmlns:xodm="http://www.corel.com/coreldraw/odm/2003">
 <defs>
  <style type="text/css">
   <![CDATA[
    .fil0 {fill:#E6E7E8}
    .fil9 {fill:#9FD7E8;fill-rule:nonzero}
    .fil3 {fill:#004677;fill-rule:nonzero}
    .fil4 {fill:#0074BF;fill-rule:nonzero}
    .fil7 {fill:#CE2955;fill-rule:nonzero}
    .fil6 {fill:#E83D62;fill-rule:nonzero}
    .fil8 {fill:#FF8CA5;fill-rule:nonzero}
    .fil5 {fill:white;fill-rule:nonzero}
    .fil2 {fill:#373435;fill-opacity:0.031373}
    .fil1 {fill:#2B2A29;fill-opacity:0.101961}
   ]]>
  </style>
 </defs>
 <g id="Layer_x0020_1">
  <metadata id="CorelCorpID_0Corel-Layer"/>
  <polygon class="fil0" points="-0,0 9404.92,0 9404.92,5283.66 -0,5283.66 "/>
  <polygon class="fil1" points="2126.05,5283.66 2084.07,5283.66 2082.72,5283.66 1879.7,5283.66 1878.37,5283.66 1862.08,5283.66 1699.23,5283.66 1580.9,5283.66 1579.6,5283.66 1052.07,5283.66 991.03,5283.66 952.25,5283.66 419.03,5283.66 377.56,5283.66 376.25,5283.66 268.68,5283.66 146.85,5283.66 0.8,5283.66 -0,5283.66 -0,5283.48 -0,5264.85 -0,5252.49 -0,5239.29 -0,5237.54 -0,5216.66 -0,5216.21 -0,5215.17 -0,5089.09 -0,5075.62 -0,5060.26 -0,5031.89 -0,5017.08 -0,4975.46 -0,4862.11 -0,4775.33 -0,4775.31 -0,4773.96 -0,4755.85 -0,4711.15 -0,4686.48 -0,4686.47 -0,4685.31 -0,4639.55 -0,4627.12 -0,4623.13 -0,4578.02 -0,4512.96 -0,4511.4 -0,4452.58 -0,4438.42 -0,4419.76 -0,4356.04 -0,4353.52 -0,4291.5 -0,4283.67 -0,4253.99 -0,4230.47 -0,4201.32 -0,4187.32 -0,4158.19 -0,4157.61 -0,4037.56 -0,3999.33 -0,3993.74 -0,3859.5 -0,3842.13 -0,3638.63 -0,3565.93 -0,3465.05 -0,3438.13 -0,3252.25 -0,3203.49 -0,3186.3 -0,3182.92 -0,3150.12 -0,3149.26 -0,3142.5 -0,3142.49 -0,3131.69 -0,3104.16 -0,3029.25 -0,3025.9 -0,2941.19 -0,2934.25 -0,2930.94 -0,2897.14 -0,2864.28 -0,2822.15 -0,2798.71 -0,2792.74 -0,2752.61 -0,2744.08 -0,2724.29 -0,2670.49 -0,2670.09 -0,2323.69 -0,2106.79 -0,2091.24 3722.05,498.38 3715.81,502.15 3710.23,506.82 3705.39,512.31 3701.41,518.54 3698.37,525.44 3606.8,800.3 3828.02,706.86 3938.72,1039.31 4857.03,659.09 4851.37,661.88 4472.92,878.15 4467.65,881.66 4462.95,885.76 4458.86,890.42 4455.42,895.54 4452.68,901.07 4450.67,906.93 4449.43,913.06 4449.01,919.37 4449.43,925.68 4450.67,931.81 4452.68,937.67 4455.42,943.19 4458.86,948.31 4462.95,952.98 4467.65,957.08 4472.92,960.59 4730.45,1107.76 4951.61,1018.08 4960.52,1015.31 4970.1,1014.34 5456.24,1014.34 5474.58,1014.56 5492.71,1015.67 5510.6,1017.66 5528.23,1020.5 5545.57,1024.17 5562.61,1028.65 5579.31,1033.93 5595.67,1039.99 5611.65,1046.78 5627.25,1054.3 5642.42,1062.54 5657.16,1071.47 5671.43,1081.05 5685.22,1091.29 5698.5,1102.15 5711.26,1113.61 5723.48,1125.66 5735.12,1138.27 5746.16,1151.42 5756.58,1165.09 5766.38,1179.26 5775.51,1193.91 5783.96,1209.02 5791.7,1224.58 5798.72,1240.53 5804.99,1256.9 5810.49,1273.63 5815.21,1290.73 5819.1,1308.14 5822.16,1325.88 5824.35,1343.91 5825.67,1362.21 5825.58,1382.39 5824.35,1402.43 5822.02,1422.26 5818.58,1441.86 5814.08,1461.18 5808.52,1480.18 5801.92,1498.81 5794.3,1517.03 5785.68,1534.81 5776.1,1552.09 5765.54,1568.84 5754.05,1585.01 5741.64,1600.56 5728.32,1615.44 5714.12,1629.63 5699.06,1643.06 5686.1,1653.16 5672.76,1662.64 5659.05,1671.51 5645,1679.75 5630.63,1687.35 5615.96,1694.29 5601.01,1700.6 5040.49,1916.65 5450.78,1916.65 5465.27,1916.67 5479.71,1916.32 5494.12,1915.61 5508.47,1914.54 5522.76,1913.11 5536.99,1911.33 5551.15,1909.19 5565.22,1906.7 5579.21,1903.88 5593.12,1900.69 5606.93,1897.18 5620.64,1893.31 5634.24,1889.12 5647.73,1884.59 5661.09,1879.72 3549.74,2684.51 3555.92,2689.7 3567.15,2698.64 3578.57,2707.3 3590.2,2715.66 3602.02,2723.71 3614.01,2731.44 3626.18,2738.87 3638.52,2745.99 3651.03,2752.8 3663.69,2759.29 3676.51,2765.45 3678.19,2766.21 4477.83,2463.72 4472.17,2466.52 4466.93,2470.03 4462.25,2474.15 4458.2,2478.81 4454.79,2483.94 4452.07,2489.46 4450.08,2495.31 4448.86,2501.41 4448.47,2507.71 4448.47,2523.21 5265.33,2215.07 5257.26,2219.44 5250.23,2225.24 5244.43,2232.27 5240.06,2240.34 5237.29,2249.24 5236.32,2258.82 5236.32,2471.95 5426.27,2401.28 5711.21,2401.28 5730.35,2403.21 5748.19,2408.75 5764.32,2417.51 5778.38,2429.1 5789.97,2443.16 5798.73,2459.3 5804.27,2477.13 5806.2,2496.27 5804.27,2515.41 5798.73,2533.23 5789.97,2549.37 5778.38,2563.43 5764.32,2575.02 5748.19,2583.78 5236.32,2770.92 5236.32,2850.33 5426.27,2781.21 5758.7,2781.21 5777.82,2783.19 5795.63,2788.75 5811.74,2797.51 5825.78,2809.11 5837.37,2823.15 5846.15,2839.26 5851.71,2857.06 5853.69,2876.19 5853.69,2923.67 5851.71,2942.79 5846.15,2960.6 5837.37,2976.71 5825.78,2990.75 5811.74,3002.34 5795.63,3011.11 5259.92,3201.94 5265.33,3204.88 5274.24,3207.64 5283.81,3208.61 5758.7,3208.61 5787.84,3207.14 5816.12,3202.82 5843.43,3195.8 4306.15,3736.87 4318.13,3746.3 4329.45,3759.31 4335.19,3773.97 4335.87,3789.09 4331.96,3803.52 4324,3816.08 4312.48,3825.59 4297.9,3830.87 4093.02,3902.57 4155.24,3910.91 4188.97,3915.64 5404.8,3491.35 5339.17,3514.64 5275.14,3539.81 5212.93,3566.93 5152.7,3596.04 5152.7,3596.05 5094.66,3627.21 5094.66,3627.22 5039,3660.51 4986.84,3695.38 5556.21,3497.4 5608.65,3480.04 5661.65,3463.87 5715.08,3448.85 5768.83,3434.93 5822.76,3422.08 5876.77,3410.25 5930.72,3399.4 5984.5,3389.5 6037.99,3380.49 6091.05,3372.35 6143.57,3365.04 6195.43,3358.5 6246.51,3352.69 6296.69,3347.59 6345.83,3343.15 6393.83,3339.31 6440.55,3336.07 6485.88,3333.34 6529.7,3331.13 6571.88,3329.36 6612.3,3328 6650.84,3327.01 4713.04,3992.37 4702.9,4010.33 4712.72,4007.65 4722.86,4004.97 4733.31,4002.29 4735.47,4001.75 4739.16,4000.78 4743.97,3999.63 4744.09,3999.6 4755.16,3996.93 4766.52,3994.24 4767.65,3993.98 4778.99,3991.28 4822.23,3981.82 4868.64,3972.42 4876.5,3970.93 4880.61,3970.12 4894.45,3967.44 4913.87,3963.87 4918.03,3963.08 4921.02,3962.55 4937.93,3959.44 4983.42,3951.48 5030.76,3943.6 5079.87,3935.79 5130.59,3928.06 5182.8,3920.42 5236.37,3912.89 5291.19,3905.44 5347.1,3898.1 5404.01,3890.87 5461.77,3883.76 5520.26,3876.78 5579.34,3869.93 5638.91,3863.21 5698.82,3856.64 5758.95,3850.22 5819.17,3843.96 5879.35,3837.86 5939.38,3831.92 5999.11,3826.17 6058.43,3820.59 6117.2,3815.2 6175.3,3810.01 6232.6,3805.01 6288.98,3800.23 6344.31,3795.65 6398.45,3791.3 6451.29,3787.17 6502.7,3783.27 6552.54,3779.61 6600.69,3776.19 6647.03,3773.03 4901.2,4356.37 4900.75,4356.98 4889.84,4369.05 4885.1,4373.36 4987.26,4339.25 4986.38,4339.76 4998.38,4335.76 5013.61,4332.59 6899.6,4332.59 6898.11,4333.07 6899.6,4333.07 6261.02,4537.96 6492.35,4537.96 6975.85,4383.57 6968.37,4394.54 6959.57,4404.48 6949.6,4413.26 6938.57,4420.74 6926.59,4426.79 6913.8,4431.28 6579.11,4537.96 6886.26,4537.96 6907.1,4535.92 6926.46,4530.05 6906.27,4536.44 6907.1,4536.36 6926.46,4530.4 4547.32,5283.66 4546.27,5283.66 4533.22,5283.66 4531.78,5283.66 4239.54,5283.66 4157,5283.66 3936.9,5283.66 3935.49,5283.66 3306.89,5283.66 3305.5,5283.66 3256.55,5283.66 3255.13,5283.66 3124.72,5283.66 3123.3,5283.66 3000.49,5283.66 2826.7,5283.66 2825.32,5283.66 2677.39,5283.66 2676,5283.66 2651.13,5283.66 2649.74,5283.66 2529.54,5283.66 2521.98,5283.66 2520.59,5283.66 2329.02,5283.66 2204.55,5283.66 2166.09,5283.66 2164.76,5283.66 2160.72,5283.66 2159.37,5283.66 2158.75,5283.66 "/>
  <g id="_1773209424528">
   <g>
    <path class="fil0" d="M4303.42 2818.96l504.61 -187.71 90.11 51.5c6.04,3.45 11.14,8.12 15.05,13.59l-464.73 171.83 0 -1.73c0,-26.23 -21.26,-47.49 -47.49,-47.49l-97.55 0z"/>
    <path class="fil0" d="M4448.47 2868.18l464.73 -171.83c5.67,7.93 8.86,17.54 8.86,27.63 0,17.03 -9.12,32.76 -23.9,41.22l-314.6 179.79 -106.3 39.01c-1.74,-0.74 -3.43,-1.6 -5.09,-2.56 -14.71,-8.53 -23.73,-24.24 -23.68,-41.24l0 -72.02z"/>
    <path class="fil0" d="M4477.24 2983.99l106.3 -39.01 -63.84 36.48c-13.06,7.54 -28.81,8.38 -42.46,2.53z"/>
    <path class="fil0" d="M3788.26 2804.05l464.93 -175.05 147.79 0c26.23,0 47.49,-21.27 47.49,-47.49l0 -26.04 136.81 -51.51 312.87 178.8c14.79,8.46 23.9,24.18 23.9,41.22 0,17.03 -9.12,32.76 -23.9,41.22l-378.45 216.27c-14.72,8.5 -32.85,8.49 -47.55,-0.03 -14.71,-8.53 -23.73,-24.24 -23.68,-41.24l0 -73.75c0,-26.23 -21.26,-47.49 -47.49,-47.49l-474.9 0c-46.77,0.64 -93.02,-4.46 -137.81,-14.91z"/>
    <path class="fil0" d="M4472.15 2981.44l5.66 2.8c-1.94,-0.8 -3.82,-1.73 -5.66,-2.8zm5.66 2.8l5.9 2c-2,-0.53 -3.97,-1.2 -5.9,-2zm5.9 2l6.06 1.2c-2.04,-0.27 -4.06,-0.67 -6.06,-1.2zm6.06 1.2l5.99 0.4c-2,0 -4,-0.14 -5.99,-0.4zm6.29 0.4l6 -0.39c-1.99,0.26 -3.99,0.39 -6,0.39zm6 -0.39l5.92 -1.16c-1.95,0.52 -3.92,0.9 -5.92,1.16zm6.2 -1.24l5.77 -1.95 -3.45 1.27 -2.32 0.68z"/>
    <path class="fil0" d="M4448.47 2940.2l0.4 6.3c-0.27,-2.08 -0.41,-4.17 -0.4,-6.3zm0.4 6.3l1.21 6.11c-0.53,-2 -0.94,-4.03 -1.21,-6.11zm1.21 6.11l1.99 5.86c-0.79,-1.9 -1.45,-3.86 -1.99,-5.86zm1.99 5.86l2.72 5.52c-1.03,-1.79 -1.93,-3.62 -2.72,-5.52zm2.72 5.52l3.4 5.13c-1.25,-1.64 -2.39,-3.35 -3.4,-5.13zm3.4 5.13l4.05 4.66c-1.46,-1.47 -2.81,-3.03 -4.05,-4.66zm4.05 4.66l4.67 4.12c-1.66,-1.28 -3.22,-2.66 -4.67,-4.12zm4.67 4.12l5.24 3.52c-1.84,-1.07 -3.59,-2.25 -5.24,-3.52z"/>
    <path class="fil0" d="M4734.28 1109.95l202.76 -82.21c-8.91,8.64 -14.44,20.71 -14.44,34.09l0 73.81c0.03,16.98 -9.01,32.69 -23.7,41.2 -14.7,8.5 -32.83,8.51 -47.54,0.02l-117.08 -66.91z"/>
    <path class="fil0" d="M4730.45 1107.76l221.17 -89.68c-5.45,2.31 -10.38,5.61 -14.57,9.67l-202.76 82.21 -3.83 -2.19z"/>
    <path class="fil0" d="M4449.01 919.37l0.42 6.31c-0.28,-2.08 -0.42,-4.18 -0.42,-6.31zm0.42 6.31l1.24 6.13c-0.55,-2 -0.96,-4.05 -1.24,-6.13zm1.24 6.13l2.01 5.86c-0.79,-1.9 -1.47,-3.86 -2.01,-5.86zm2.01 5.86l2.75 5.52c-1.04,-1.78 -1.95,-3.61 -2.75,-5.52zm2.75 5.52l3.43 5.12c-1.26,-1.63 -2.41,-3.34 -3.43,-5.12zm3.43 5.12l4.09 4.66c-1.47,-1.47 -2.84,-3.03 -4.09,-4.66zm4.09 4.66l4.69 4.1c-1.67,-1.27 -3.23,-2.64 -4.69,-4.1zm4.69 4.1l5.27 3.5c-1.85,-1.06 -3.61,-2.24 -5.27,-3.5z"/>
    <path class="fil0" d="M4472.92 878.15l-5.27 3.5c1.67,-1.28 3.42,-2.45 5.27,-3.5zm-5.27 3.5l-4.69 4.1c1.47,-1.47 3.03,-2.84 4.69,-4.1zm-4.69 4.1l-4.09 4.66c1.26,-1.64 2.63,-3.2 4.09,-4.66zm-4.09 4.66l-3.43 5.12c1.03,-1.78 2.18,-3.48 3.43,-5.12zm-3.43 5.12l-2.75 5.52c0.8,-1.91 1.72,-3.74 2.75,-5.52zm-2.75 5.52l-2.01 5.86c0.54,-2.01 1.21,-3.96 2.01,-5.86zm-2.01 5.86l-1.24 6.13c0.28,-2.08 0.7,-4.13 1.24,-6.13zm-1.24 6.13l-0.42 6.31c0,-2.14 0.14,-4.23 0.42,-6.31z"/>
    <path class="fil0" d="M4851.37 1176.86l5.66 2.79c-1.93,-0.8 -3.82,-1.73 -5.66,-2.79zm5.66 2.79l5.9 1.99c-2,-0.53 -3.96,-1.19 -5.9,-1.99zm5.9 1.99l6.07 1.19c-2.05,-0.26 -4.07,-0.66 -6.07,-1.19zm6.07 1.19l6.14 0.4c-2.05,0 -4.1,-0.13 -6.14,-0.4zm6.14 0.4l6.14 -0.4c-2.04,0.27 -4.08,0.4 -6.14,0.4zm6.14 -0.4l6.06 -1.2c-2,0.53 -4.02,0.93 -6.06,1.2zm6.06 -1.2l5.9 -2 -1.14 0.46c-1.56,0.6 -3.15,1.11 -4.76,1.54z"/>
    <path class="fil0" d="M3739.9 2790.51l428.14 -161.51 85.15 0 -464.93 175.05c-16.34,-3.8 -32.47,-8.34 -48.37,-13.55zm708.57 -267.3l102.7 -38.74 34.11 19.49 -136.81 51.51 0 -32.26z"/>
    <path class="fil0" d="M3517.56 2655.31l205.33 -78.46c15.18,9.02 30.92,16.93 47.15,23.68l-220.35 83.99c-11.03,-9.3 -21.76,-19.04 -32.13,-29.22zm1933.21 -738.66l14.49 0.02c-4.82,0.05 -9.66,0.05 -14.49,-0.02zm14.49 0.02l14.45 -0.35c-4.81,0.18 -9.63,0.29 -14.45,0.35zm14.45 -0.35l14.41 -0.71c-4.79,0.3 -9.6,0.53 -14.41,0.71zm14.41 -0.71l14.35 -1.07c-4.77,0.42 -9.56,0.77 -14.35,1.07zm14.35 -1.07l14.29 -1.43c-4.75,0.54 -9.52,1.01 -14.29,1.43zm14.29 -1.43l14.23 -1.79c-4.73,0.66 -9.48,1.25 -14.23,1.79zm14.23 -1.79l14.16 -2.14c-4.7,0.77 -9.43,1.49 -14.16,2.14zm14.16 -2.14l14.08 -2.49c-4.68,0.89 -9.38,1.72 -14.08,2.49zm14.08 -2.49l13.99 -2.83c-4.65,1.01 -9.31,1.94 -13.99,2.83zm13.99 -2.83l13.91 -3.19c-4.62,1.12 -9.26,2.19 -13.91,3.19zm13.91 -3.19l13.81 -3.51c-4.58,1.24 -9.19,2.4 -13.81,3.51zm13.81 -3.51l13.71 -3.86c-4.55,1.35 -9.13,2.64 -13.71,3.86zm13.71 -3.86l13.6 -4.19c-4.51,1.45 -9.05,2.85 -13.6,4.19zm13.6 -4.19l13.49 -4.53c-4.48,1.57 -8.98,3.08 -13.49,4.53zm13.49 -4.53l13.36 -4.86c-4.44,1.68 -8.89,3.3 -13.36,4.86z"/>
    <path class="fil0" d="M3421.03 2522.07l179.03 -69.08c3.02,5.15 6.16,10.23 9.44,15.23l-180.14 69.43c-2.86,-5.15 -5.64,-10.35 -8.33,-15.59zm1569.01 -605.42l493.47 -190.41c38.2,-2 75.71,-9.89 111.2,-23.21l-554.23 213.63 -50.44 0z"/>
    <path class="fil0" d="M4892.89 1726.7l-486.11 189.95 -486.06 0c-192.03,-2.41 -352.19,144.11 -368.37,333.88l-188.79 73.77c-2.38,-25.76 -2.92,-51.81 -1.55,-77.97 21.98,-294.53 268.4,-521.68 563.75,-519.63l967.15 0z"/>
    <path class="fil0" d="M3363.55 2324.3l188.79 -73.77c-0.4,4.63 -0.74,9.29 -0.96,13.98 -1.61,66.93 15.66,132.06 48.68,188.48l-179.03 69.08c-31.51,-61.43 -51.12,-128.55 -57.48,-197.77zm1043.23 -407.65l486.11 -189.95 564.87 0c8.62,0.15 17.19,-0.01 25.75,-0.46l-493.47 190.41 -583.27 0z"/>
    <path class="fil0" d="M3383.44 2128.84l279.91 -110.54c-65.2,62.55 -107.37,149.16 -111.96,246.22 -2.6,107.96 43.91,211.25 126.47,280.85 14.29,11.65 29.36,22.16 45.04,31.48l-205.33 78.46 -4.41 -4.37c-104.26,-108.11 -159,-254.62 -151.15,-404.61 3.03,-40.59 10.33,-79.89 21.44,-117.49z"/>
    <path class="fil0" d="M3394.49 2095.35l386.83 -153.02c-44.17,17.56 -84.17,43.53 -117.98,75.96l-279.91 110.54c3.34,-11.32 7.04,-22.49 11.05,-33.49z"/>
    <path class="fil0" d="M4857.03 659.09l-5.66 2.79c1.84,-1.06 3.73,-1.99 5.66,-2.79z"/>
    <path class="fil0" d="M3833.52 2812.71l488.64 -183.71 78.82 0c5.19,0 10.18,-0.84 14.86,-2.38l-512.2 192.21c-23.58,-0.6 -46.99,-2.66 -70.11,-6.12z"/>
    <path class="fil0" d="M3362 2246.33l-0.55 14.05c0.12,-4.68 0.3,-9.37 0.55,-14.05zm-0.55 14.05l-0.19 14.03c0,-4.66 0.07,-9.35 0.19,-14.03zm-0.19 14.03l0.17 13.99c-0.11,-4.65 -0.17,-9.32 -0.17,-13.99zm0.17 13.99l0.54 13.95c-0.23,-4.64 -0.42,-9.3 -0.54,-13.95zm0.54 13.95l0.89 13.9c-0.35,-4.63 -0.65,-9.26 -0.89,-13.9zm0.89 13.9l1.24 13.86c-0.48,-4.6 -0.88,-9.24 -1.24,-13.86zm1.24 13.86l1.6 13.79c-0.59,-4.58 -1.13,-9.19 -1.6,-13.79zm1.6 13.79l1.95 13.73c-0.71,-4.56 -1.36,-9.15 -1.95,-13.73zm1.95 13.73l2.3 13.66c-0.83,-4.54 -1.59,-9.1 -2.3,-13.66zm2.3 13.66l2.65 13.58c-0.94,-4.51 -1.83,-9.04 -2.65,-13.58zm2.65 13.58l2.98 13.49c-1.06,-4.48 -2.04,-8.98 -2.98,-13.49zm2.98 13.49l3.32 13.41c-1.17,-4.45 -2.28,-8.93 -3.32,-13.41zm3.32 13.41l3.66 13.3c-1.28,-4.42 -2.5,-8.85 -3.66,-13.3zm3.66 13.3l3.99 13.21c-1.39,-4.38 -2.72,-8.8 -3.99,-13.21zm3.99 13.21l4.33 13.09c-1.5,-4.34 -2.95,-8.71 -4.33,-13.09zm4.33 13.09l4.22 11.77c-1.45,-3.9 -2.87,-7.83 -4.22,-11.77zm5.1 14.14l4.54 11.69c-1.57,-3.88 -3.08,-7.78 -4.54,-11.69zm4.54 11.69l5.32 12.73c-1.83,-4.21 -3.6,-8.47 -5.32,-12.73zm5.32 12.73l5.63 12.59c-1.94,-4.17 -3.8,-8.38 -5.63,-12.59zm5.63 12.59l5.96 12.44c-2.05,-4.12 -4.02,-8.27 -5.96,-12.44zm5.96 12.44l6.28 12.3c-2.14,-4.06 -4.24,-8.18 -6.28,-12.3zm6.28 12.3l6.6 12.14c-2.25,-4.02 -4.45,-8.07 -6.6,-12.14zm6.6 12.14l6.91 11.99c-2.36,-3.96 -4.66,-7.97 -6.91,-11.99zm6.91 11.99l7.22 11.81c-2.46,-3.9 -4.86,-7.85 -7.22,-11.81zm7.22 11.81l7.53 11.64c-2.57,-3.85 -5.07,-7.74 -7.53,-11.64zm7.53 11.64l7.84 11.46c-2.67,-3.79 -5.28,-7.61 -7.84,-11.46zm7.84 11.46l8.15 11.27c-2.77,-3.72 -5.48,-7.49 -8.15,-11.27zm8.15 11.27l8.44 11.08c-2.86,-3.65 -5.67,-7.36 -8.44,-11.08zm8.44 11.08l8.75 10.88c-2.97,-3.59 -5.88,-7.22 -8.75,-10.88zm8.75 10.88l9.05 10.68c-3.07,-3.52 -6.08,-7.09 -9.05,-10.68zm9.05 10.68l9.34 10.46c-3.16,-3.45 -6.27,-6.94 -9.34,-10.46zm9.34 10.46l9.63 10.24c-3.26,-3.38 -6.47,-6.8 -9.63,-10.24z"/>
    <path class="fil0" d="M3716.15 1765.61l-24.09 10.15c7.94,-3.56 15.98,-6.95 24.09,-10.15zm-24.09 10.15l-23.51 11.22c7.74,-3.91 15.58,-7.66 23.51,-11.22zm-23.51 11.22l-22.91 12.27c7.53,-4.26 15.17,-8.36 22.91,-12.27zm-22.91 12.27l-22.27 13.3c7.31,-4.59 14.74,-9.04 22.27,-13.3zm-22.27 13.3l-21.59 14.28c7.09,-4.92 14.28,-9.69 21.59,-14.28zm-21.59 14.28l-20.89 15.24c6.84,-5.23 13.81,-10.31 20.89,-15.24zm-20.89 15.24l-20.15 16.16c6.59,-5.54 13.31,-10.92 20.15,-16.16zm-20.15 16.16l-19.39 17.06c6.33,-5.83 12.8,-11.52 19.39,-17.06zm-19.39 17.06l-18.58 17.93c6.05,-6.12 12.25,-12.1 18.58,-17.93zm-18.58 17.93l-17.74 18.77c5.78,-6.39 11.68,-12.65 17.74,-18.77zm-17.74 18.77l-16.88 19.58c5.48,-6.66 11.11,-13.19 16.88,-19.58zm-16.88 19.58l-16 20.37c5.17,-6.91 10.51,-13.71 16,-20.37zm-16 20.37l-15.06 21.11c4.86,-7.16 9.89,-14.2 15.06,-21.11zm-15.06 21.11l-14.09 21.83c4.53,-7.4 9.23,-14.67 14.09,-21.83zm-14.09 21.83l-13.11 22.53c4.2,-7.62 8.58,-15.14 13.11,-22.53zm-13.11 22.53l-12.07 23.18c3.85,-7.84 7.87,-15.57 12.07,-23.18zm-12.07 23.18l-11.02 23.81c3.49,-8.04 7.17,-15.98 11.02,-23.81zm-11.02 23.81l-9.92 24.42c3.13,-8.24 6.43,-16.39 9.92,-24.42zm-9.92 24.42l-8.81 24.99c2.75,-8.42 5.68,-16.75 8.81,-24.99zm-8.81 24.99l-7.65 25.53c2.36,-8.61 4.9,-17.1 7.65,-25.53zm-7.65 25.53l-6.47 26.05c1.96,-8.77 4.11,-17.45 6.47,-26.05zm-6.47 26.05l-5.24 26.53c1.54,-8.93 3.29,-17.76 5.24,-26.53zm-5.24 26.53l-3.99 26.99c1.12,-9.07 2.46,-18.07 3.99,-26.99zm-3.99 26.99l-2.72 27.41c0.69,-9.21 1.59,-18.34 2.72,-27.41z"/>
    <path class="fil0" d="M3718.91 2783.17l408.32 -154.17 194.92 0 -488.64 183.71c-39.25,-5.88 -77.65,-15.82 -114.61,-29.55z"/>
    <path class="fil0" d="M3678.94 2766.57l363.68 -137.57 84.61 0 -408.32 154.17c-13.53,-5.03 -26.86,-10.56 -39.97,-16.59zm793.23 -300.06l-5.24 3.51c1.66,-1.28 3.4,-2.46 5.24,-3.51zm-5.24 3.51l-4.58 4.04c1.44,-1.44 2.96,-2.79 4.58,-4.04zm-4.74 4.2l-3.98 4.57c1.23,-1.61 2.56,-3.13 3.98,-4.57zm-3.98 4.57l-3.34 5.03c1,-1.75 2.12,-3.42 3.34,-5.03zm-3.48 5.26l-2.65 5.39c0.77,-1.85 1.66,-3.65 2.65,-5.39zm-2.65 5.39l-1.99 5.85c0.54,-2 1.2,-3.95 1.99,-5.85zm-1.99 5.85l-1.22 6.1c0.27,-2.08 0.69,-4.1 1.22,-6.1zm-1.22 6.1l-0.4 6.3c0,-2.13 0.12,-4.23 0.4,-6.3z"/>
    <path class="fil0" d="M3678.17 2766.21l362.74 -137.21 1.71 0 -363.68 137.57 -0.77 -0.36zm799.66 -302.49l-5.66 2.8c1.84,-1.07 3.72,-2 5.66,-2.8z"/>
    <path class="fil0" d="M3513.15 2650.94l10.35 10.12c-3.48,-3.32 -6.94,-6.7 -10.35,-10.12zm10.35 10.12l10.59 9.84c-3.56,-3.23 -7.1,-6.51 -10.59,-9.84zm10.59 9.84l10.8 9.55c-3.63,-3.14 -7.24,-6.31 -10.8,-9.55zm10.8 9.55l11.01 9.26c-3.71,-3.03 -7.38,-6.12 -11.01,-9.26zm11.01 9.26l11.23 8.95c-3.77,-2.94 -7.53,-5.91 -11.23,-8.95zm11.23 8.95l11.42 8.66c-3.84,-2.84 -7.65,-5.72 -11.42,-8.66zm11.42 8.66l11.63 8.36c-3.9,-2.73 -7.79,-5.52 -11.63,-8.36zm11.63 8.36l11.81 8.05c-3.96,-2.64 -7.91,-5.31 -11.81,-8.05zm11.81 8.05l11.99 7.74c-4.02,-2.53 -8.03,-5.1 -11.99,-7.74zm11.99 7.74l12.17 7.43c-4.08,-2.43 -8.15,-4.9 -12.17,-7.43zm12.17 7.43l12.34 7.12c-4.14,-2.32 -8.26,-4.69 -12.34,-7.12zm12.34 7.12l12.51 6.81c-4.2,-2.21 -8.37,-4.49 -12.51,-6.81zm12.51 6.81l12.66 6.49c-4.24,-2.12 -8.47,-4.27 -12.66,-6.49zm12.66 6.49l12.82 6.16c-4.3,-2.01 -8.58,-4.05 -12.82,-6.16zm12.82 6.16l12.96 5.85c-4.34,-1.89 -8.67,-3.85 -12.96,-5.85zm12.96 5.85l13.1 5.52c-4.39,-1.79 -8.76,-3.62 -13.1,-5.52zm13.1 5.52l13.24 5.19c-4.43,-1.68 -8.85,-3.4 -13.24,-5.19zm13.24 5.19l13.36 4.86c-4.47,-1.57 -8.93,-3.19 -13.36,-4.86zm13.36 4.86l13.48 4.53c-4.51,-1.46 -9.01,-2.97 -13.48,-4.53zm13.48 4.53l13.6 4.2c-4.55,-1.34 -9.09,-2.75 -13.6,-4.2zm13.6 4.2l13.71 3.86c-4.59,-1.23 -9.16,-2.53 -13.71,-3.86zm13.71 3.86l13.8 3.51c-4.62,-1.11 -9.22,-2.29 -13.8,-3.51zm13.8 3.51l13.91 3.18c-4.65,-1 -9.3,-2.06 -13.91,-3.18zm13.91 3.18l13.99 2.84c-4.68,-0.89 -9.35,-1.84 -13.99,-2.84zm13.99 2.84l14.08 2.49c-4.7,-0.77 -9.41,-1.6 -14.08,-2.49zm14.08 2.49l14.15 2.14c-4.72,-0.66 -9.45,-1.37 -14.15,-2.14zm14.15 2.14l14.23 1.79c-4.75,-0.53 -9.5,-1.14 -14.23,-1.79zm14.23 1.79l14.29 1.43c-4.77,-0.42 -9.54,-0.89 -14.29,-1.43zm14.29 1.43l14.35 1.07c-4.79,-0.3 -9.58,-0.65 -14.35,-1.07zm14.35 1.07l14.4 0.72c-4.81,-0.18 -9.61,-0.42 -14.4,-0.72zm14.4 0.72l14.44 0.35c-4.82,-0.05 -9.64,-0.18 -14.44,-0.35zm14.44 0.35l14.49 -0.02c-4.83,0.06 -9.67,0.08 -14.49,0.02z"/>
   </g>
   <g>
    <polygon class="fil0" points="5236.32,2471.95 5426.27,2401.28 5426.27,2506.64 5236.32,2576.87 "/>
    <path class="fil0" d="M5236.32 3144.46l351.79 -125.81 170.59 0c9.18,-0.02 18.06,-1.36 26.46,-3.81l-525.48 187.19c-13.98,-8.27 -23.35,-23.48 -23.35,-40.9l0 -16.66z"/>
    <path class="fil0" d="M5758.7 3208.61l29.14 -1.47c9.58,-0.97 19.02,-2.42 28.29,-4.32l27.31 -7.02c-8.93,2.78 -18.03,5.12 -27.31,7.02l-28.29 4.32c-9.59,0.97 -19.3,1.47 -29.14,1.47z"/>
    <polygon class="fil0" points="5236.32,2576.87 5426.27,2506.64 5426.27,2591.25 5547.4,2591.25 5236.32,2705.41 "/>
    <path class="fil0" d="M5236.32 2705.41l311.08 -114.17 163.81 0c9.81,0 19.27,-1.49 28.18,-4.25l-503.07 183.92 0 -65.5z"/>
    <polygon class="fil0" points="5236.32,2850.33 5426.27,2781.21 5426.27,2901.33 5236.32,2969.97 "/>
    <path class="fil0" d="M5236.32 3161.12l0.97 9.58c0.63,3.1 1.57,6.06 2.77,8.91l4.37 8.07c1.71,2.53 3.65,4.88 5.8,7.03l7.03 5.8c2.53,1.71 5.22,3.17 8.07,4.37l8.91 2.77c3.09,0.63 6.3,0.97 9.58,0.97l-9.58 -0.97c-3.1,-0.64 -6.06,-1.57 -8.91,-2.77l-8.07 -4.37c-2.53,-1.71 -4.88,-3.65 -7.03,-5.8l-5.8 -7.03c-1.7,-2.53 -3.18,-5.23 -4.37,-8.07l-2.77 -8.91c-0.64,-3.1 -0.97,-6.3 -0.97,-9.58z"/>
    <polygon class="fil0" points="5236.32,2969.97 5426.27,2901.33 5426.27,3018.65 5456.44,3018.65 5236.32,3097.59 "/>
    <polygon class="fil0" points="5236.32,3097.59 5456.44,3018.65 5588.11,3018.65 5236.32,3144.46 "/>
    <path class="fil0" d="M5265.33 2215.07l-8.07 4.37c-2.53,1.71 -4.88,3.65 -7.03,5.8l-5.8 7.03c-1.71,2.53 -3.17,5.22 -4.37,8.07l-2.77 8.91c-0.63,3.1 -0.97,6.29 -0.97,9.58l0.97 -9.58c0.64,-3.1 1.57,-6.07 2.77,-8.91l4.37 -8.07c1.71,-2.53 3.65,-4.88 5.8,-7.03l7.03 -5.8c2.53,-1.7 5.23,-3.18 8.07,-4.37z"/>
   </g>
   <g>
    <path class="fil0" d="M3722.05 498.38l-6.23 3.77c-1.98,1.41 -3.84,2.98 -5.58,4.67l-4.84 5.49c-1.48,1.96 -2.82,4.03 -3.98,6.23l-3.04 6.9c0.84,-2.41 1.86,-4.7 3.04,-6.9l3.98 -6.23c1.48,-1.96 3.1,-3.79 4.84,-5.49l5.58 -4.67c1.98,-1.41 4.06,-2.68 6.23,-3.77z"/>
    <path class="fil0" d="M4054.27 1385.62l167.37 -67.85 36.64 109.98 0 -0.01c4.9,14.52 2.5,30.5 -6.45,42.94 -8.95,12.43 -23.34,19.78 -38.67,19.75l-89.75 0c-20.35,-0.15 -38.41,-13.08 -45.11,-32.3l-24.02 -72.52z"/>
    <polygon class="fil0" points="4053.19,1382.38 4220.55,1314.51 4221.64,1317.77 4054.27,1385.62 "/>
    <path class="fil0" d="M3407.55 1398.39l219.95 -90.38 -49.74 150.13c-6.7,19.22 -24.76,32.15 -45.12,32.3l-89.75 0c-15.32,0.04 -29.72,-7.32 -38.67,-19.75 -8.95,-12.44 -11.34,-28.43 -6.44,-42.93l9.79 -29.37zm238.26 -97.91l501.42 -206.06 107.55 322.82 -159.15 64.13c-7.86,-5.65 -14,-13.66 -17.33,-23.23l-52.24 -157.66 -380.24 0z"/>
    <polygon class="fil0" points="3426.81,1340.57 4132.37,1049.84 4147.23,1094.42 3645.81,1300.48 3629.99,1300.48 3627.5,1308.01 3407.55,1398.39 "/>
    <path class="fil0" d="M3410.05 1390.9l219.95 -90.42 -52.24 157.66c-6.7,19.22 -24.76,32.15 -45.12,32.3l-89.75 0c-15.32,0.04 -29.72,-7.32 -38.67,-19.75 -8.95,-12.44 -11.34,-28.43 -6.44,-42.93l12.28 -36.85z"/>
    <polygon class="fil0" points="3438.65,1305.02 3909.92,1110.52 3962.42,1110.52 3956.08,1091.47 4123.26,1022.47 4132.37,1049.84 3426.81,1340.57 "/>
    <path class="fil0" d="M4095.63 1481.38l159.15 -64.13 3.5 10.51 0 -0.01c0.75,2.23 1.34,4.48 1.75,6.76l-138.81 55.87c-9.41,-0.5 -18.25,-3.71 -25.59,-9z"/>
    <path class="fil0" d="M4213.16 1490.44l5.69 -0.33c1.88,-0.22 3.73,-0.56 5.56,-1l5.36 -1.63c-1.75,0.65 -3.53,1.19 -5.36,1.63l-5.56 1c-1.88,0.22 -3.77,0.33 -5.69,0.33z"/>
    <path class="fil0" d="M4108.64 1488.01l149.64 -60.25 -149.63 60.26 -0.01 -0.01zm149.64 -60.25l0 -0.01 0 0.01z"/>
    <path class="fil0" d="M3461.16 1237.47l306.61 -126.95 142.15 0 -471.27 194.51 22.51 -67.56zm477.68 -197.78l167.11 -69.19 17.31 51.97 -167.18 69 -17.24 -51.78z"/>
    <path class="fil0" d="M3397.77 1427.76l-1.5 5.5c-0.39,1.85 -0.66,3.71 -0.82,5.58l-0.16 5.6c0.06,1.87 0.23,3.72 0.5,5.56l1.16 5.46c0.49,1.8 1.09,3.57 1.79,5.31l2.43 5.09c0.91,1.66 1.93,3.27 3.05,4.82l-3.05 -4.82c-0.91,-1.66 -1.72,-3.35 -2.43,-5.09l-1.79 -5.31c-0.5,-1.81 -0.88,-3.62 -1.16,-5.46l-0.5 -5.56c-0.06,-1.87 0,-3.73 0.16,-5.6l0.82 -5.58c0.39,-1.85 0.89,-3.68 1.5,-5.5z"/>
    <path class="fil0" d="M3404.21 1470.69l3.6 4.42c1.28,1.39 2.64,2.7 4.06,3.91l4.46 3.38c1.55,1.04 3.17,1.98 4.82,2.83l5.11 2.25c1.75,0.65 3.53,1.2 5.36,1.64l5.55 0.99c1.88,0.22 3.78,0.33 5.69,0.33l-5.69 -0.33c-1.88,-0.22 -3.72,-0.55 -5.55,-0.99l-5.36 -1.64c-1.76,-0.65 -3.45,-1.4 -5.11,-2.25l-4.82 -2.83c-1.55,-1.04 -3.04,-2.17 -4.46,-3.38l-4.06 -3.91c-1.28,-1.4 -2.49,-2.87 -3.6,-4.42z"/>
    <path class="fil0" d="M4078.3 1458.14l3.03 6.9c1.18,2.2 2.51,4.26 3.98,6.23l4.84 5.5c1.75,1.7 3.61,3.27 5.58,4.67l6.23 3.77c2.18,1.1 4.42,2.05 6.76,2.82l7.18 1.77c2.46,0.4 4.97,0.62 7.51,0.64l-7.51 -0.64c-2.45,-0.41 -4.85,-1.01 -7.18,-1.77l-6.76 -2.82c-2.17,-1.11 -4.25,-2.36 -6.23,-3.77l-5.58 -4.67c-1.75,-1.7 -3.36,-3.54 -4.84,-5.5l-3.98 -6.23c-1.17,-2.2 -2.19,-4.49 -3.03,-6.9z"/>
    <path class="fil0" d="M3532.63 1490.44l7.51 -0.64c2.46,-0.41 4.85,-1 7.19,-1.77l-7.19 1.77c-2.46,0.4 -4.96,0.62 -7.51,0.64z"/>
    <path class="fil0" d="M3461.33 1236.97l305.4 -126.45 1.04 0 -306.61 126.95 0.17 -0.5zm477.39 -197.66l167.1 -69.19 0.13 0.38 -167.11 69.19 -0.12 -0.38z"/>
    <polygon class="fil0" points="3606.8,800.3 3828.02,706.86 3693.63,1110.52 3962.42,1110.52 3430.38,1329.86 "/>
   </g>
   <g>
    <path class="fil0" d="M4894.29 3967.49l0.16 -0.05 12.95 -2.39 -13.11 2.44zm28.51 -5.27l15.14 -2.79 45.48 -7.96 47.35 -7.88 49.11 -7.81 50.72 -7.73 52.21 -7.64 53.57 -7.54 54.82 -7.45 55.92 -7.34 56.9 -7.23 57.76 -7.11 58.49 -6.98 59.08 -6.85 59.57 -6.72 59.91 -6.57 60.13 -6.42 60.22 -6.26 60.18 -6.1 60.03 -5.94 59.73 -5.75 59.32 -5.58 58.77 -5.38 58.1 -5.19 57.3 -5 56.37 -4.78 55.33 -4.57 54.15 -4.35 52.84 -4.13 51.4 -3.89 49.84 -3.66 48.15 -3.41 18.82 -1.29c-477,33 -1247.34,105.59 -1696.71,187.32z"/>
    <path class="fil0" d="M4702.9 4010.33l9.82 -2.68 4.37 -1.16c-4.8,1.28 -9.59,2.56 -14.19,3.83zm177.71 -40.21l1.93 -0.37 11.75 -2.26 0.16 -0.05 -11.91 2.31z"/>
    <path class="fil0" d="M4986.78 3695.4l569.43 -198 52.44 -17.35 53 -16.18 53.43 -15.02 53.75 -13.92 53.94 -12.85 54.01 -11.83 53.95 -10.84 53.78 -9.91 53.49 -9.01 53.06 -8.14 52.52 -7.32 51.86 -6.54 51.08 -5.8 50.17 -5.1 49.15 -4.44 48 -3.83 46.72 -3.25 45.33 -2.73 43.82 -2.22 42.18 -1.77 40.42 -1.36 38.28 -0.98 0.17 0.02 -1938.29 665.52c64.41,-117.66 159.01,-215.76 274.31,-297.17z"/>
    <path class="fil0" d="M5364.87 3505.28l39.93 -13.93 -65.63 23.28c-21.62,8.08 -42.97,16.46 -64.02,25.17l-62.22 27.12c20.42,-9.37 41.17,-18.41 62.22,-27.12l64.02 -25.17zm-126.24 52.29l-60.23 29.12c19.72,-10.04 39.81,-19.75 60.23,-29.12zm-60.23 29.12l-58.04 31.17c18.96,-10.74 38.32,-21.13 58.04,-31.17zm-58.04 31.17l-55.66 33.29c18.13,-11.45 36.69,-22.55 55.66,-33.29zm-55.66 33.29l-53.08 35.48c17.24,-12.2 34.95,-24.02 53.08,-35.48zm-53.08 35.48l-50.31 37.71c16.29,-12.95 33.07,-25.52 50.31,-37.71zm-50.31 37.71l-47.34 40.01c15.27,-13.73 31.05,-27.06 47.34,-40.01zm-47.34 40.01l-44.17 42.37c14.18,-14.52 28.91,-28.64 44.17,-42.37zm-44.17 42.37l-40.82 44.79c13.03,-15.34 26.64,-30.27 40.82,-44.79zm-40.82 44.79l-37.27 47.27c11.8,-16.18 24.25,-31.93 37.27,-47.27zm-37.27 47.27l-33.52 49.79c10.53,-17.02 21.71,-33.62 33.52,-49.79zm-33.52 49.79l-29.59 52.4c9.19,-17.91 19.06,-35.37 29.59,-52.4z"/>
    <path class="fil0" d="M5364.87 3505.28l39.93 -13.93 -65.63 23.28c-21.62,8.08 -42.97,16.46 -64.02,25.17l-62.22 27.12c20.42,-9.37 41.17,-18.41 62.22,-27.12l64.02 -25.17zm-126.24 52.29l-59.47 28.74c19.48,-9.91 39.31,-19.49 59.47,-28.74zm-60.92 29.48l-56.67 30.43c18.52,-10.48 37.42,-20.62 56.67,-30.43zm-57.96 31.17l-55.05 32.93c17.94,-11.33 36.31,-22.3 55.05,-32.93zm-55.05 32.93l-53.08 35.48c17.24,-12.2 34.95,-24.02 53.08,-35.48zm-53.08 35.48l-50.31 37.71c16.29,-12.95 33.07,-25.52 50.31,-37.71zm-50.31 37.71l-47.34 40.01c15.27,-13.73 31.05,-27.06 47.34,-40.01zm-47.34 40.01l-44.17 42.37c14.18,-14.52 28.91,-28.64 44.17,-42.37zm-44.17 42.37l-40.82 44.79c13.03,-15.34 26.64,-30.27 40.82,-44.79zm-40.82 44.79l-37.27 47.27c11.8,-16.18 24.25,-31.93 37.27,-47.27zm-37.27 47.27l-33.52 49.79c10.53,-17.03 21.71,-33.63 33.52,-49.79zm-33.52 49.79l-29.59 52.4c9.19,-17.91 19.06,-35.38 29.59,-52.4z"/>
   </g>
   <g>
    <path class="fil0" d="M4304.38 3932.68l276.5 -96.15c45.2,49.26 84,103.06 115.43,161.6l-17.14 5.88c-94.21,-24.36 -224.11,-48.38 -374.78,-71.32z"/>
    <path class="fil0" d="M4188.51 3915.79l350.24 -122.22c66.86,63.82 122.59,135.75 164.14,216.76l0.01 0c-117.33,-32.59 -300.75,-64.68 -514.39,-94.54z"/>
    <path class="fil0" d="M3930.86 3882.49l387.27 -136.19 11.31 13.01 5.74 14.66 0.68 15.13 -3.9 14.43 -7.96 12.56 -11.52 9.51 -14.58 5.28 -205.46 71.91c-52.62,-6.92 -106.63,-13.68 -161.59,-20.29z"/>
    <path class="fil0" d="M2672.95 3425.46l264.83 -98.51c76.86,1.76 156.98,5.42 238.96,11.43l-482.85 178.53 -18.03 -72.67c-1.63,-6.29 -2.57,-12.58 -2.91,-18.78z"/>
    <path class="fil0" d="M4188.51 3915.79l350.24 -122.22c66.86,63.82 122.59,135.75 164.14,216.76l0.01 0c-117.33,-32.59 -300.75,-64.68 -514.39,-94.54z"/>
    <path class="fil0" d="M3345.39 3820.7l784.93 -280.71c27.37,11.31 54.17,23.25 80.45,35.68l-725.46 258.42c-46.97,-4.62 -93.69,-9.1 -139.92,-13.39z"/>
    <path class="fil0" d="M3517.39 3837.27l711.15 -253.1c62.44,30.44 121.41,64.2 176.02,101.53l-537.2 189.27c-114.88,-13.38 -232.93,-26.02 -349.98,-37.7z"/>
    <path class="fil0" d="M3867.38 3874.97l537.2 -189.27c5.31,3.63 10.66,7.25 15.89,10.94l-518.3 182.41 -34.79 -4.08z"/>
    <path class="fil0" d="M2693.89 3516.92l482.85 -178.53c85.66,6.28 173.3,15.1 261.31,26.99l-716.52 262.95 -27.65 -111.41z"/>
    <path class="fil0" d="M2721.54 3628.33l716.52 -262.95c40.56,5.48 81.2,11.64 121.75,18.47l-824.16 301.31 -14.1 -56.83z"/>
    <path class="fil0" d="M2753.05 3754.01l945.17 -343.95c64.4,13.62 128.08,29.2 190.44,46.89l-917.85 331.67c-75.87,-5.92 -147.46,-11.16 -212.95,-15.59l-4.81 -19.02z"/>
    <path class="fil0" d="M3380.87 3824.02l770.26 -275.19c26.32,11.26 52.14,23.03 77.41,35.35l-711.15 253.1c-45.75,-4.56 -91.34,-8.99 -136.52,-13.25z"/>
    <path class="fil0" d="M2970.81 3788.61l917.85 -331.67c61.81,17.54 122.29,37.16 180.8,59.11l-824.09 295.53c-95.5,-8.51 -187.83,-16.2 -274.55,-22.98z"/>
    <path class="fil0" d="M3245.37 3811.59l824.09 -295.53c20.53,7.7 40.84,15.66 60.86,23.93l-784.93 280.71c-33.64,-3.13 -67.02,-6.17 -100.02,-9.11z"/>
    <path class="fil0" d="M4151.14 3548.83l-770.26 275.19c-229.1,-21.61 -447.71,-39.15 -623.01,-50.99l-21.94 -86.72 -60.07 -242.06c-15.26,-59.08 28.61,-117.22 90.57,-118.17 407.96,-5.34 960.57,41.31 1384.7,222.75z"/>
    <path class="fil0" d="M2693.51 3515.4l479.44 -177.29c51.56,3.73 103.83,8.39 156.5,14.08l-619.81 228.2 -16.14 -64.99z"/>
    <path class="fil0" d="M2679.28 3458.04l345.71 -128.33c48.41,1.98 97.84,4.75 147.97,8.39l-479.44 177.29 -14.23 -57.35z"/>
    <path class="fil0" d="M3024.99 3329.72l-345.71 128.33 -3.42 -13.8c-15.26,-59.08 28.61,-117.22 90.57,-118.17 81.17,-1.06 168.09,-0.06 258.56,3.64z"/>
    <path class="fil0" d="M2720.57 3624.43l708.81 -260.2c11.73,1.56 23.47,3.18 35.22,4.84l-740.05 271.38 -3.97 -16.03z"/>
    <path class="fil0" d="M2709.65 3580.39l619.81 -228.2c33.19,3.59 66.52,7.61 99.92,12.05l-708.81 260.2 -10.92 -44.04z"/>
    <path class="fil0" d="M2714.93 3341.97l40.03 -14.95 38.56 0.99 40.44 1.35 42.22 1.78 43.86 2.23 45.38 2.72 46.78 3.26 48.07 3.83 49.21 4.45 50.25 5.11 51.15 5.81 51.94 6.55 52.61 7.33 53.14 8.16 53.57 9.03 53.86 9.91 54.04 10.87 54.09 11.86 54.02 12.88 53.82 13.95 53.5 15.07 53.07 16.21 52.5 17.4 51.81 18.63 51.01 19.91 50.07 21.22 49.03 22.58 47.86 23.97 46.55 25.41 45.13 26.88 43.58 28.41 41.93 29.96 40.13 31.56 -387.27 136.19c-404.03,-48.58 -858.29,-88.21 -1172.99,-109.46l-21.94 -86.72 -60.07 -242.06c-10.49,-40.64 6.98,-80.84 39.07,-102.28z"/>
    <path class="fil0" d="M2792.24 3775.38l8.28 0.57 9.63 0.69 -17.9 -1.26zm47.85 3.38l6.75 0.48 17.38 1.28 -24.13 -1.76zm34.79 2.55l21.66 1.6 12.05 0.92 -33.71 -2.52zm72.72 5.49l1.75 0.13 0.87 0.07 -2.62 -0.2zm283.27 23.5l20.85 1.83 66.42 6 67.84 6.29 69 6.59 69.91 6.86 70.6 7.14 71.02 7.4 71.21 7.66 71.16 7.91 70.85 8.15 70.31 8.37 69.51 8.6 68.48 8.81 67.2 9.01 65.67 9.21 63.9 9.39 61.89 9.58 59.63 9.74 21.57 3.74c-325.46,-55.57 -790.71,-106.27 -1197.03,-142.24z"/>
    <path class="fil0" d="M2733.75 3332.27l-9.76 4.36c3.15,-1.63 6.4,-3.09 9.76,-4.36zm-9.76 4.36l-9.11 5.37c2.92,-1.95 5.96,-3.74 9.11,-5.37zm-9.11 5.37l-8.37 6.3c2.66,-2.25 5.45,-4.35 8.37,-6.3zm-8.37 6.3l-7.59 7.15c2.4,-2.52 4.92,-4.9 7.59,-7.15zm-7.59 7.15l-6.75 7.91c2.1,-2.76 4.35,-5.39 6.75,-7.91zm-6.75 7.91l-5.84 8.6c1.79,-2.97 3.74,-5.84 5.84,-8.6zm-5.84 8.6l-4.87 9.19c1.46,-3.15 3.09,-6.22 4.87,-9.19zm-4.87 9.19l-3.84 9.71c1.1,-3.3 2.39,-6.55 3.84,-9.71zm-3.84 9.71l-2.77 10.14c0.74,-3.44 1.66,-6.83 2.77,-10.14zm-2.77 10.14l-1.62 10.49c0.34,-3.54 0.89,-7.05 1.62,-10.49zm-1.62 10.49l-0.41 10.76c-0.07,-3.62 0.07,-7.22 0.41,-10.76zm-0.41 10.76l0.85 10.94c-0.5,-3.67 -0.78,-7.32 -0.85,-10.94zm0.85 10.94l2.18 11.05c-0.95,-3.69 -1.68,-7.39 -2.18,-11.05z"/>
   </g>
   <g>
    <path class="fil0" d="M3227.56 4538.44l600.93 -205.85 558.04 0c44.79,0 78.15,38.12 78.15,82.91l259.56 0 -408.32 136.43c-1.33,-4.46 -2.58,-8.96 -3.71,-13.5l-1084.64 0z"/>
    <polygon class="fil0" points="3163.41,4538.44 3763.48,4332.59 3828.49,4332.59 3227.56,4538.44 "/>
    <polygon class="fil0" points="2562.23,4538.44 3154.24,4332.59 3722.17,4332.59 3122.65,4538.44 "/>
    <path class="fil0" d="M2458.74 4519.42l535.38 -186.83 769.37 0 -600.07 205.85 -644.76 0c-22.42,0 -43.07,-7.03 -59.91,-19.02z"/>
    <path class="fil0" d="M2417.82 4414.58l233.14 -81.99 213.38 0 -436 152.6c-8.05,-14.7 -12.61,-31.61 -12.61,-49.67 0,-7.18 0.72,-14.19 2.1,-20.94z"/>
    <path class="fil0" d="M2458.74 4519.42l535.38 -186.83 769.37 0 -600.07 205.85 -644.76 0c-22.42,0 -43.07,-7.03 -59.91,-19.02z"/>
    <path class="fil0" d="M4319.82 4564.21l445.43 -148.7 174.03 0c0.63,-29.47 15.3,-56.05 37.99,-70.78l35.78 -11.94c1.76,-0.12 3.53,-0.19 5.33,-0.19l1867.89 0c3.85,0 7.66,0.21 11.4,0.62l-639.61 205.23 -1165.35 0c-36.22,143.9 -167.73,251.59 -322.11,251.59l-136.28 0c-145.91,0 -269.97,-95.02 -314.49,-225.82z"/>
    <path class="fil0" d="M4319.26 4562.5l440.27 -147 5.71 0 -445.43 148.7 -0.56 -1.71zm666.34 -222.48l12.78 -4.26 14.15 -2.95 0.51 -0.03 -35.78 11.94c2.68,-1.73 5.45,-3.31 8.34,-4.7z"/>
    <path class="fil0" d="M4319.96 4564.62l446.68 -149.11 172.63 0c0.62,-28.85 14.67,-54.93 36.56,-69.83l37.77 -12.61 1882.66 0.01 2.51 0.27 -639.24 205.1 -1166.82 0c-36.22,143.9 -167.73,251.59 -322.11,251.59l-136.28 0c-145.76,0 -269.7,-94.83 -314.35,-225.41z"/>
    <path class="fil0" d="M6884.75 4538.44l1.52 -0.48 20.84 -2.04 19.36 -5.87 -20.78 6.58c-6.29,1.18 -12.77,1.81 -19.42,1.81l-1.52 0z"/>
    <path class="fil0" d="M4319.4 4562.93l441.56 -147.43 5.68 0 -446.68 149.11 -0.56 -1.69zm663.47 -221.51l15.52 -5.18 15.23 -3.18 -37.77 12.61c2.26,-1.54 4.6,-2.96 7.03,-4.25z"/>
    <path class="fil0" d="M3163.41 4538.44l600.07 -205.85 623.05 0c44.79,0 78.15,38.12 78.15,82.91l259.56 0 -408.32 136.43c-1.33,-4.46 -2.58,-8.96 -3.71,-13.5l-1148.79 0z"/>
    <path class="fil0" d="M3907.73 4538.44l535.2 -180.6c12.24,13.55 20.04,31.46 21.5,50.99l-385.54 129.6 -171.16 0z"/>
    <path class="fil0" d="M2568.52 4332.59l-137.35 48.39c18.1,-29.14 50.38,-48.39 87.48,-48.39l49.87 0z"/>
    <path class="fil0" d="M4319.2 4562.31l439.67 -146.81 180.4 0 -597.64 198.77c-8.9,-16.54 -16.42,-33.92 -22.44,-51.96zm668.06 -223.06l-13.34 7.77c4.15,-3.03 8.62,-5.63 13.34,-7.77zm-13.34 7.77l-11.53 10.23c3.51,-3.78 7.37,-7.22 11.53,-10.23zm-11.53 10.23l-9.48 12.33c2.79,-4.41 5.96,-8.55 9.48,-12.33zm-9.48 12.33l-7.17 14.07c1.99,-4.94 4.38,-9.65 7.17,-14.07zm-7.17 14.07l-4.63 15.43c1.09,-5.32 2.66,-10.49 4.63,-15.43zm-4.63 15.43l-1.84 16.43c0.12,-5.6 0.74,-11.09 1.84,-16.43z"/>
    <polygon class="fil0" points="6490.84,4538.44 6975.38,4383.72 6975.55,4384.01 6968.37,4394.54 6959.57,4404.48 6949.6,4413.26 6938.57,4420.74 6926.59,4426.79 6913.8,4431.28 6577.6,4538.44 "/>
    <path class="fil0" d="M4466.15 4744.03l626.56 -206.07 1793.55 0 -1.52 0.48 -1792.04 0c-36.22,143.9 -167.73,251.59 -322.11,251.59l-136.28 0c-61.35,0 -118.83,-16.8 -168.17,-46z"/>
    <path class="fil0" d="M4078.89 4538.44l385.54 -129.6c0.17,2.21 0.25,4.42 0.25,6.67l342.72 0 -483.07 161.13c-4.78,-12.4 -8.85,-25.14 -12.13,-38.19l-233.31 0z"/>
    <path class="fil0" d="M4466.66 4744.33l626.05 -205.89c-36.22,143.9 -167.73,251.59 -322.11,251.59l-136.28 0c-61.14,0 -118.43,-16.69 -167.66,-45.7z"/>
    <path class="fil0" d="M4380.07 4670.98l712.64 -235.94 -3.67 13.38 -4.21 13.16 -4.75 12.92 -5.26 12.67 -5.78 12.4 -6.26 12.12 -6.74 11.83 -7.21 11.53 -7.67 11.21 -8.1 10.88 -8.53 10.54 -8.94 10.18 -9.35 9.82 -9.72 9.44 -10.1 9.04 -10.45 8.64 -10.8 8.21 -11.13 7.77 -11.45 7.33 -11.76 6.86 -12.06 6.39 -12.33 5.91 -12.6 5.4 -12.85 4.89 -13.1 4.36 -322.98 105.81c-65.23,-18.34 -122.39,-56.19 -164.82,-106.76z"/>
    <path class="fil0" d="M4378.07 4668.55l256.24 -84.85 135.33 0 -359.51 118.7c-11.45,-10.52 -22.18,-21.84 -32.06,-33.85z"/>
    <path class="fil0" d="M2431.17 4380.98l137.35 -48.39 45.08 0 -191.7 67.47c2.44,-6.72 5.55,-13.11 9.27,-19.08z"/>
    <path class="fil0" d="M4410.13 4702.4l359.51 -118.7 17.45 -0.88 16.92 -2.58 16.32 -4.19 -402.84 132.94c-2.49,-2.15 -4.93,-4.36 -7.36,-6.59z"/>
    <path class="fil0" d="M4378.38 4668.93l255.93 -84.75 135.33 0 -359.13 118.57c-11.47,-10.51 -22.22,-21.82 -32.13,-33.82z"/>
    <path class="fil0" d="M4770.6 4790.03l14.41 -0.31c-4.78,0.2 -9.59,0.31 -14.41,0.31zm14.41 -0.31l14.26 -0.94c-4.72,0.41 -9.49,0.73 -14.26,0.94zm14.26 -0.94l14.09 -1.53c-4.67,0.61 -9.37,1.12 -14.09,1.53zm14.09 -1.53l13.93 -2.14c-4.6,0.81 -9.26,1.53 -13.93,2.14zm13.93 -2.14l13.73 -2.71c-4.55,1 -9.12,1.9 -13.73,2.71zm13.73 -2.71l13.54 -3.27c-4.48,1.19 -9,2.27 -13.54,3.27zm13.54 -3.27l13.32 -3.82c-4.4,1.37 -8.85,2.64 -13.32,3.82z"/>
    <path class="fil0" d="M4410.51 4702.75l359.13 -118.57 17.45 -0.88 16.92 -2.58 16.32 -4.19 -402.45 132.8c-2.49,-2.16 -4.94,-4.35 -7.37,-6.58z"/>
    <path class="fil0" d="M4097.42 4538.44l367.26 -123.41 0 0.48 0.02 0 0.85 16.64 2.55 16.66 4.15 16.11 5.67 15.46 7.1 14.73 8.46 13.92 9.73 13 10.91 12 12.02 10.92 13.04 9.76 13.99 8.5 14.84 7.14 15.62 5.71 16.32 4.19 16.92 2.58 17.45 0.88 -256.24 84.85c-30.85,-37.47 -53.7,-81.74 -65.87,-130.11l-214.78 0z"/>
    <polygon class="fil0" points="3781.99,4538.44 4390.09,4332.68 4390.97,4332.72 4405.58,4335.76 4419.66,4341.51 4432.3,4349.57 4443.24,4359.63 4452.22,4371.44 4458.96,4384.72 4463.14,4398.96 4463.23,4399.47 4464.67,4414.44 4464.67,4414.55 4096,4538.44 "/>
    <path class="fil0" d="M4096 4538.44l368.67 -123.89 0.01 0.96 0.05 0 0.82 16.34 2.55 16.81 4.15 16.23 5.67 15.58 7.1 14.82 8.46 13.99 9.73 13.07 10.91 12.05 12.02 10.96 13.04 9.79 13.99 8.52 14.84 7.16 15.62 5.72 16.32 4.19 16.92 2.58 17.45 0.88 -255.93 84.75c-31.01,-37.55 -53.97,-81.96 -66.18,-130.49l-216.2 0z"/>
    <path class="fil0" d="M4312.2 4538.44l3.67 13.38c-1.32,-4.42 -2.55,-8.89 -3.67,-13.38zm3.67 13.38l4.2 13.16c-1.5,-4.35 -2.89,-8.74 -4.2,-13.16zm4.2 13.16l4.73 12.92c-1.66,-4.26 -3.25,-8.58 -4.73,-12.92zm4.73 12.92l5.25 12.67c-1.84,-4.18 -3.58,-8.41 -5.25,-12.67zm5.25 12.67l5.76 12.4c-2,-4.08 -3.92,-8.23 -5.76,-12.4zm5.76 12.4l6.24 12.12c-2.16,-3.99 -4.24,-8.04 -6.24,-12.12zm6.24 12.12l6.72 11.83c-2.32,-3.89 -4.56,-7.84 -6.72,-11.83zm6.72 11.83l7.18 11.53c-2.47,-3.79 -4.86,-7.64 -7.18,-11.53zm7.18 11.53l7.64 11.21c-2.62,-3.68 -5.17,-7.42 -7.64,-11.21zm7.64 11.21l8.07 10.88c-2.76,-3.57 -5.45,-7.2 -8.07,-10.88zm8.07 10.88l8.5 10.54c-2.91,-3.45 -5.73,-6.97 -8.5,-10.54zm8.5 10.54l8.91 10.18c-3.04,-3.33 -6,-6.73 -8.91,-10.18zm8.91 10.18l9.32 9.82c-3.17,-3.21 -6.28,-6.48 -9.32,-9.82zm9.32 9.82l9.7 9.44c-3.3,-3.09 -6.53,-6.23 -9.7,-9.44zm9.7 9.44l10.06 9.04c-3.42,-2.95 -6.77,-5.96 -10.06,-9.04zm10.06 9.04l10.43 8.63c-3.53,-2.81 -7.02,-5.68 -10.43,-8.63zm10.43 8.63l10.78 8.21c-3.65,-2.67 -7.25,-5.4 -10.78,-8.21zm10.78 8.21l11.12 7.77c-3.75,-2.52 -7.47,-5.1 -11.12,-7.77zm11.12 7.77l11.43 7.33c-3.86,-2.37 -7.67,-4.81 -11.43,-7.33zm11.43 7.33l11.36 6.64c-3.82,-2.15 -7.63,-4.35 -11.36,-6.64zm12.14 7.08l11.66 6.18c-3.93,-1.99 -7.82,-4.04 -11.66,-6.18zm11.66 6.18l12.34 5.9c-4.15,-1.89 -8.28,-3.85 -12.34,-5.9zm12.34 5.9l12.61 5.4c-4.25,-1.72 -8.46,-3.51 -12.61,-5.4zm12.61 5.4l12.86 4.89c-4.32,-1.55 -8.62,-3.18 -12.86,-4.89zm12.86 4.89l13.12 4.36c-4.4,-1.37 -8.79,-2.83 -13.12,-4.36zm13.12 4.36l13.35 3.82c-4.48,-1.19 -8.94,-2.46 -13.35,-3.82zm13.35 3.82l13.57 3.27c-4.56,-1 -9.09,-2.09 -13.57,-3.27zm13.57 3.27l13.78 2.71c-4.63,-0.81 -9.23,-1.71 -13.78,-2.71zm13.78 2.71l13.98 2.14c-4.69,-0.61 -9.36,-1.33 -13.98,-2.14zm13.98 2.14l14.16 1.53c-4.75,-0.41 -9.47,-0.92 -14.16,-1.53zm14.16 1.53l14.33 0.94c-4.8,-0.21 -9.58,-0.53 -14.33,-0.94zm14.33 0.94l14.49 0.31c-4.85,0 -9.69,-0.1 -14.49,-0.31z"/>
    <path class="fil0" d="M6886.26 4538.44l20.84 -2.08c-6.72,1.36 -13.69,2.08 -20.84,2.08zm20.84 -2.08l19.36 -5.96 -17.69 5.6 -1.67 0.36z"/>
    <polygon class="fil0" points="3783.36,4538.44 4390.35,4333.06 4405.58,4336.24 4419.66,4341.99 4432.3,4350.03 4443.24,4360.11 4452.22,4371.92 4458.96,4385.2 4463.2,4399.66 4464.67,4414.98 4464.68,4415.03 4097.42,4538.44 "/>
    <path class="fil0" d="M4310.76 4538.44l1.44 -0.48 3.67 13.47 4.2 13.24 4.73 12.99 5.25 12.74 5.76 12.47 6.24 12.19 6.33 11.19c-16.03,-27.08 -28.34,-56.59 -36.2,-87.82l-1.44 0zm38.7 89.6l4.72 7.62c-1.61,-2.52 -3.19,-5.06 -4.72,-7.62z"/>
    <path class="fil0" d="M2650.96 4332.59l-233.14 81.99c9.58,-47.02 50.82,-81.99 100.83,-81.99l132.31 0z"/>
    <path class="fil0" d="M3763.48 4332.59l-600.07 205.85 -644.76 0c-57.18,0 -102.92,-45.74 -102.92,-102.92 0,-57.18 45.74,-102.92 102.92,-102.92l1244.84 0z"/>
    <path class="fil0" d="M3763.48 4332.59l-600.07 205.85 -644.76 0c-57.18,0 -102.92,-45.74 -102.92,-102.92 0,-57.18 45.74,-102.92 102.92,-102.92l1244.84 0z"/>
    <path class="fil0" d="M2501.86 4333.94l-34.57 12.19c10.47,-5.99 22.14,-10.18 34.57,-12.19z"/>
    <path class="fil0" d="M2469.64 4344.83l29.59 -10.43c6.28,-1.18 12.77,-1.81 19.42,-1.81l1867.88 0c1.2,0 2.38,0.04 3.56,0.09l-608.1 205.76 -1263.35 0c-57.18,0 -102.92,-45.74 -102.92,-102.92 0,-39.39 21.72,-73.37 53.92,-90.68z"/>
    <path class="fil0" d="M2467.29 4346.13l34.57 -12.19c2.27,-0.37 4.57,-0.66 6.89,-0.88l1881.6 0 -606.99 205.38 -1264.72 0c-57.18,0 -102.92,-45.74 -102.92,-102.92 0,-38.43 20.66,-71.7 51.57,-89.38z"/>
    <path class="fil0" d="M2499.23 4334.4l-29.59 10.43c9.12,-4.9 19.05,-8.46 29.59,-10.43z"/>
    <path class="fil0" d="M2415.72 4435.09l2.08 21.06 5.96 19.5 9.45 17.5 12.53 15.15 15.22 12.43 17.48 9.33 19.37 5.87 20.84 2.04 -1.34 0.47c-56.55,-0.7 -101.59,-46.18 -101.59,-102.91l0 -0.43z"/>
    <polygon class="fil0" points="2517.31,4538.43 2518.65,4537.96 4312.2,4537.96 4310.76,4538.44 2518.65,4538.44 "/>
    <path class="fil0" d="M2478.44 4340.63l-17.48 9.45c5.47,-3.68 11.32,-6.86 17.48,-9.45zm-17.48 9.45l-15.22 12.53c4.64,-4.64 9.75,-8.85 15.22,-12.53zm-15.22 12.53l-12.53 15.22c3.68,-5.47 7.89,-10.57 12.53,-15.22zm-12.53 15.22l-9.45 17.48c2.59,-6.17 5.76,-12.01 9.45,-17.48zm-9.45 17.48l-5.96 19.37c1.36,-6.73 3.37,-13.21 5.96,-19.37zm-5.96 19.37l-2.08 20.84c0,-7.15 0.72,-14.12 2.08,-20.84z"/>
    <path class="fil0" d="M2415.89 4429.56l-0.16 5.2c0.01,-1.75 0.07,-3.48 0.16,-5.2z"/>
    <path class="fil0" d="M2415.72 4435.51l2.08 20.84c-1.36,-6.72 -2.08,-13.69 -2.08,-20.84zm2.08 20.84l5.96 19.37c-2.59,-6.17 -4.6,-12.65 -5.96,-19.37zm5.96 19.37l9.45 17.48c-3.68,-5.47 -6.85,-11.32 -9.45,-17.48zm9.45 17.48l12.53 15.22c-4.64,-4.64 -8.85,-9.75 -12.53,-15.22zm12.53 15.22l15.22 12.53c-5.47,-3.68 -10.56,-7.89 -15.22,-12.53zm15.22 12.53l17.48 9.45c-6.17,-2.59 -12.01,-5.76 -17.48,-9.45zm17.48 9.45l19.37 5.96c-6.73,-1.36 -13.21,-3.37 -19.37,-5.96zm19.37 5.96l20.84 2.08c-7.14,0 -14.12,-0.72 -20.84,-2.08z"/>
   </g>
   <g>
    <path class="fil0" d="M3228.96 4537.96l300.47 -102.92 782.77 0c9.35,37.11 24.97,71.81 45.67,102.88l-41.85 13.99c-1.37,-4.61 -2.66,-9.26 -3.82,-13.95l-1083.24 0z"/>
    <polygon class="fil0" points="3164.81,4537.96 3464.84,4435.04 3529.43,4435.04 3228.96,4537.96 "/>
    <polygon class="fil0" points="2563.61,4537.96 2859.62,4435.04 3423.81,4435.04 3124.05,4537.96 "/>
    <path class="fil0" d="M2458.94 4519.35l241.6 -84.31 764.3 0 -300.04 102.92 -646.16 0c-22.33,0 -42.91,-6.83 -59.71,-18.61z"/>
    <path class="fil0" d="M2417.63 4414.65l28.03 -9.86c18.78,18.58 44.55,30.24 72.99,30.24l52.98 0 -143.27 50.14c-8.06,-14.72 -12.63,-31.76 -12.63,-50.14 0,-7.06 0.65,-13.86 1.91,-20.39z"/>
    <path class="fil0" d="M2458.94 4519.35l241.6 -84.31 764.3 0 -300.04 102.92 -646.16 0c-22.33,0 -42.91,-6.83 -59.71,-18.61z"/>
    <path class="fil0" d="M4319.92 4564.18l45.62 -15.24c60.39,83.21 158.31,137.68 268.77,137.68l136.28 0.01c154.39,0 285.9,-107.7 322.11,-251.6l1487.62 0 -320.77 102.92 -1166.84 0c-36.22,144.86 -167.73,252.55 -322.11,252.55l-136.28 0c-145.81,0 -269.78,-94.89 -314.39,-226.33z"/>
    <polygon class="fil0" points="4319.36,4562.47 4364.44,4547.42 4365.54,4548.94 4319.92,4564.18 "/>
    <path class="fil0" d="M4320.05 4564.59l45.76 -15.28c60.41,82.99 158.21,137.31 268.5,137.31l136.28 0.01c154.39,0 285.9,-107.7 322.11,-251.6l1489.1 0 -320.78 102.92 -1168.31 0c-36.22,144.86 -167.73,252.55 -322.11,252.55l-136.28 0c-145.66,0 -269.53,-94.69 -314.26,-225.92z"/>
    <path class="fil0" d="M6886.26 4537.96l20.84 -2.04c-6.72,1.34 -13.69,2.04 -20.84,2.04zm20.84 -2.04l19.36 -5.87 -16.9 5.35 -2.46 0.52z"/>
    <polygon class="fil0" points="4319.5,4562.9 4364.71,4547.8 4365.81,4549.31 4320.05,4564.59 "/>
    <path class="fil0" d="M3164.81 4537.96l300.04 -102.92 847.36 0c9.35,37.11 24.97,71.81 45.67,102.88l-41.85 13.99c-1.37,-4.61 -2.66,-9.26 -3.82,-13.95l-1147.39 0z"/>
    <path class="fil0" d="M3909.15 4537.96l305.02 -102.92 98.03 0c1.94,7.69 4.15,15.27 6.62,22.75l-238.5 80.18 -171.17 0z"/>
    <path class="fil0" d="M4319.29 4562.27l45.02 -15.03c11.88,16.59 25.26,32.07 39.92,46.21l-62.59 20.82c-8.86,-16.55 -16.35,-33.94 -22.36,-52z"/>
    <path class="fil0" d="M6492.35 4537.96l322.33 -102.92 71.58 0c9.54,0 18.76,-1.31 27.54,-3.75l-334.69 106.68 -86.76 0z"/>
    <path class="fil0" d="M4465.69 4744.18l174.99 -57.55 129.92 0.01c105.88,0 201,-50.66 261.99,-128.9l60.12 -19.77c-36.22,144.86 -167.73,252.55 -322.11,252.55l-136.28 0c-61.54,0 -119.19,-16.91 -168.62,-46.33z"/>
    <path class="fil0" d="M4080.32 4537.96l238.5 -80.18c12.34,37.42 31.16,71.97 55.16,102.29l-49.56 16.53c-4.82,-12.54 -8.91,-25.43 -12.21,-38.64l-231.88 0z"/>
    <path class="fil0" d="M4466.2 4744.48l175.92 -57.85 128.48 0.01c105.58,0 200.46,-50.38 261.48,-128.26l60.49 -19.89c-36.4,144.59 -167.78,252.02 -321.97,252.02l-136.28 0c-61.33,0 -118.79,-16.79 -168.12,-46.03z"/>
    <path class="fil0" d="M4379.94 4671.03l88.22 -29.22c48.89,28.47 105.64,44.81 166.16,44.81l136.28 0.01c33.8,0 66.46,-5.15 97.27,-14.71l-323.76 106.06c-64.97,-18.45 -121.9,-56.33 -164.17,-106.96z"/>
    <path class="fil0" d="M4377.95 4668.59l86.87 -28.77c17.38,10.39 35.78,19.24 55.01,26.36l-109.95 36.31c-11.4,-10.53 -22.07,-21.88 -31.92,-33.9z"/>
    <path class="fil0" d="M2436.78 4394.83l-15.26 5.37c2.03,-5.77 4.55,-11.31 7.54,-16.62 2.33,3.91 4.91,7.68 7.72,11.25z"/>
    <path class="fil0" d="M4409.87 4702.49l109.95 -36.31c4.41,1.64 8.88,3.18 13.37,4.62l-115.98 38.27c-2.49,-2.16 -4.92,-4.35 -7.34,-6.59z"/>
    <path class="fil0" d="M4378.25 4668.97l87.08 -28.84c17.43,10.38 35.9,19.21 55.19,26.3l-110.26 36.4c-11.43,-10.53 -22.13,-21.85 -32,-33.87z"/>
    <path class="fil0" d="M4769.13 4790.51l1.47 -0.48 14.41 -0.31 14.26 -0.94 14.09 -1.53 13.93 -2.14 13.73 -2.71 13.54 -3.27 13.32 -3.82 -12.5 4.06c-27.11,7.25 -55.53,11.12 -84.77,11.12l-1.47 0z"/>
    <polygon class="fil0" points="4632.9,4790.49 4634.31,4790.03 4770.6,4790.03 4769.13,4790.51 4634.31,4790.51 "/>
    <path class="fil0" d="M4410.25 4702.84l110.26 -36.4c4.43,1.63 8.9,3.17 13.41,4.6l-116.31 38.38c-2.49,-2.16 -4.93,-4.35 -7.36,-6.58z"/>
    <path class="fil0" d="M4098.84 4537.96l221.88 -74.56c25.94,74.18 77.51,136.6 144.09,176.42l-86.87 28.77c-30.78,-37.58 -53.59,-82.01 -65.75,-130.63l-213.36 0z"/>
    <path class="fil0" d="M3783.41 4537.96l304.18 -102.92 224.61 0c2.39,9.48 5.19,18.8 8.38,27.94l-223.15 74.99 -314.01 0z"/>
    <path class="fil0" d="M4097.43 4537.96l223.15 -74.99c25.96,74.55 77.8,137.29 144.75,177.16l-87.08 28.84c-30.94,-37.66 -53.85,-82.23 -66.05,-131.01l-214.77 0z"/>
    <path class="fil0" d="M4337.38 4606l3.92 7.63c-1.35,-2.52 -2.65,-5.06 -3.92,-7.63zm5.23 10.06l6.17 10.86 7.18 11.53 7.64 11.21 8.07 10.88 8.5 10.54 8.91 10.18 9.32 9.82 9.7 9.44 10.06 9.04 10.43 8.63 10.78 8.21 11.12 7.77 11.43 7.33 11.75 6.87 12.05 6.39 12.34 5.9 12.61 5.4 12.86 4.89 13.12 4.36 13.35 3.82 13.57 3.27 13.78 2.71 13.98 2.14 14.16 1.53 14.33 0.94 14.49 0.31 -1.42 0.46c-125.21,-0.53 -234.15,-71 -290.28,-174.43z"/>
    <path class="fil0" d="M6893.6 4537.71l6.51 -0.65c-2.16,0.28 -4.32,0.5 -6.51,0.65zm19.17 -3.1l9.26 -2.85 -1.14 0.4 -5.52 1.75 -2.6 0.7z"/>
    <path class="fil0" d="M3784.78 4537.96l304.19 -102.92 223.23 0c2.43,9.63 5.27,19.09 8.53,28.37l-221.88 74.56 -314.06 0z"/>
    <path class="fil0" d="M4770.6 4790.51l14.41 -0.31c-4.78,0.2 -9.59,0.31 -14.41,0.31zm14.41 -0.31l14.26 -0.94c-4.72,0.41 -9.49,0.73 -14.26,0.94zm14.26 -0.94l14.09 -1.54c-4.67,0.61 -9.37,1.13 -14.09,1.54zm14.09 -1.54l13.93 -2.13c-4.6,0.81 -9.26,1.52 -13.93,2.13zm13.93 -2.13l13.73 -2.71c-4.55,1 -9.12,1.9 -13.73,2.71zm13.73 -2.71l13.54 -3.28c-4.48,1.19 -9,2.28 -13.54,3.28zm13.54 -3.28l13.32 -3.82c-4.4,1.36 -8.85,2.64 -13.32,3.82z"/>
    <path class="fil0" d="M4312.2 4537.96l3.67 13.47c-1.32,-4.45 -2.55,-8.95 -3.67,-13.47zm3.67 13.47l4.2 13.24c-1.5,-4.37 -2.89,-8.79 -4.2,-13.24zm4.2 13.24l4.73 12.99c-1.66,-4.28 -3.25,-8.62 -4.73,-12.99zm4.73 12.99l5.25 12.74c-1.84,-4.2 -3.58,-8.45 -5.25,-12.74zm5.25 12.74l5.76 12.47c-2,-4.11 -3.92,-8.27 -5.76,-12.47zm5.76 12.47l6.24 12.19c-2.16,-4.01 -4.24,-8.08 -6.24,-12.19zm6.24 12.19l6.72 11.88c-2.32,-3.91 -4.56,-7.87 -6.72,-11.88zm6.72 11.88l7.18 11.59c-2.47,-3.8 -4.86,-7.68 -7.18,-11.59zm7.18 11.59l7.64 11.26c-2.62,-3.7 -5.17,-7.46 -7.64,-11.26zm7.64 11.26l8.07 10.92c-2.76,-3.58 -5.45,-7.23 -8.07,-10.92zm8.07 10.92l8.5 10.58c-2.91,-3.47 -5.73,-7 -8.5,-10.58zm8.5 10.58l8.91 10.21c-3.04,-3.34 -6,-6.75 -8.91,-10.21zm8.91 10.21l9.32 9.86c-3.17,-3.22 -6.28,-6.51 -9.32,-9.86zm9.32 9.86l9.7 9.47c-3.3,-3.1 -6.53,-6.25 -9.7,-9.47zm9.7 9.47l10.06 9.06c-3.42,-2.96 -6.77,-5.97 -10.06,-9.06zm10.06 9.06l10.43 8.66c-3.53,-2.82 -7.02,-5.7 -10.43,-8.66zm10.43 8.66l10.78 8.23c-3.65,-2.67 -7.25,-5.41 -10.78,-8.23zm10.78 8.23l11.12 7.79c-3.75,-2.52 -7.47,-5.12 -11.12,-7.79zm11.12 7.79l11.43 7.35c-3.86,-2.37 -7.67,-4.82 -11.43,-7.35zm11.43 7.35l11.36 6.64c-3.82,-2.15 -7.63,-4.35 -11.36,-6.64zm12.14 7.08l11.66 6.2c-3.93,-1.99 -7.82,-4.06 -11.66,-6.2zm11.66 6.2l12.34 5.91c-4.15,-1.89 -8.28,-3.85 -12.34,-5.91zm12.34 5.91l12.61 5.41c-4.25,-1.72 -8.46,-3.52 -12.61,-5.41zm12.61 5.41l12.86 4.89c-4.32,-1.54 -8.62,-3.18 -12.86,-4.89zm12.86 4.89l13.12 4.37c-4.4,-1.37 -8.79,-2.83 -13.12,-4.37zm13.12 4.37l13.35 3.82c-4.48,-1.18 -8.94,-2.46 -13.35,-3.82zm13.35 3.82l13.57 3.28c-4.56,-1 -9.09,-2.09 -13.57,-3.28zm13.57 3.28l13.78 2.71c-4.63,-0.8 -9.23,-1.71 -13.78,-2.71zm13.78 2.71l13.98 2.13c-4.69,-0.62 -9.36,-1.32 -13.98,-2.13zm13.98 2.13l14.16 1.54c-4.75,-0.42 -9.47,-0.93 -14.16,-1.54zm14.16 1.54l14.33 0.94c-4.8,-0.21 -9.58,-0.53 -14.33,-0.94zm14.33 0.94l14.49 0.31c-4.85,0 -9.69,-0.1 -14.49,-0.31z"/>
    <path class="fil0" d="M2445.66 4404.79l-28.03 9.86c2.15,-11.11 6.03,-21.47 11.43,-31.07 4.6,7.75 10.19,14.89 16.59,21.22z"/>
    <path class="fil0" d="M3464.84 4435.04l-300.04 102.92 -646.16 0c-57.18,0 -102.92,-44.79 -102.92,-102.92 0,-19.06 4.76,-36.22 13.34,-51.46 18.11,30.49 51.46,51.46 89.58,51.46l946.2 0z"/>
    <path class="fil0" d="M3464.84 4435.04l-300.04 102.92 -646.16 0c-57.18,0 -102.92,-44.79 -102.92,-102.92 0,-19.06 4.76,-36.22 13.34,-51.46 18.11,30.49 51.46,51.46 89.58,51.46l946.2 0z"/>
    <path class="fil0" d="M4087.59 4435.04l-304.18 102.92 -1264.77 0c-57.18,0 -102.92,-44.79 -102.92,-102.92 0,-19.06 4.76,-36.22 13.34,-51.46 18.11,30.49 51.46,51.46 89.58,51.46l1568.94 0z"/>
    <path class="fil0" d="M4088.97 4435.04l-304.19 102.92 -1266.13 0c-57.18,0 -102.92,-44.79 -102.92,-102.92 0,-19.06 4.76,-36.22 13.34,-51.46 18.11,30.49 51.46,51.46 89.58,51.46l1570.32 0z"/>
    <path class="fil0" d="M2415.72 4435.04l2.08 21.11c-1.36,-6.78 -2.08,-13.84 -2.08,-21.11zm2.08 21.11l5.96 19.5c-2.59,-6.18 -4.6,-12.71 -5.96,-19.5zm5.96 19.5l9.45 17.5c-3.68,-5.46 -6.85,-11.31 -9.45,-17.5zm9.45 17.5l12.53 15.15c-4.64,-4.61 -8.85,-9.69 -12.53,-15.15zm12.53 15.15l15.22 12.43c-5.47,-3.65 -10.56,-7.82 -15.22,-12.43zm15.22 12.43l17.48 9.33c-6.17,-2.56 -12.01,-5.68 -17.48,-9.33zm17.48 9.33l19.37 5.87c-6.73,-1.34 -13.21,-3.31 -19.37,-5.87zm19.37 5.87l20.84 2.04c-7.14,0 -14.12,-0.7 -20.84,-2.04z"/>
    <path class="fil0" d="M2429.61 4384.48l-5.85 10.82 -5.96 19.37 -2.08 20.79 0 -0.43c0,-19.06 4.76,-36.22 13.34,-51.46l0.55 0.91z"/>
    <path class="fil0" d="M2429.06 4383.57l-3.04 5.81c0.95,-1.97 1.97,-3.9 3.04,-5.81zm-3.04 5.81l-2.67 5.98c0.83,-2.03 1.72,-4.01 2.67,-5.98zm-2.67 5.98l-2.29 6.16c0.7,-2.08 1.46,-4.13 2.29,-6.16zm-2.29 6.16l-1.9 6.35c0.57,-2.15 1.2,-4.26 1.9,-6.35zm-1.9 6.35l-1.5 6.52c0.43,-2.21 0.93,-4.37 1.5,-6.52zm-1.5 6.52l-1.08 6.7c0.29,-2.27 0.65,-4.49 1.08,-6.7zm-1.08 6.7l-0.66 6.88c0.15,-2.33 0.37,-4.62 0.66,-6.88zm-0.66 6.88l-0.22 7.06c0,-2.39 0.08,-4.73 0.22,-7.06z"/>
    <path class="fil0" d="M2415.73 4435.57l2.03 20.33c-1.3,-6.55 -1.99,-13.34 -2.03,-20.33zm2.21 21.25l5.71 18.56c-2.45,-5.9 -4.37,-12.11 -5.71,-18.56zm5.99 19.22l9.1 16.82c-3.53,-5.26 -6.58,-10.88 -9.1,-16.82zm9.55 17.48l11.6 14.1c-4.27,-4.32 -8.16,-9.05 -11.6,-14.1zm13.17 15.65l12.63 10.4c-4.48,-3.13 -8.71,-6.61 -12.63,-10.4zm16.49 12.96l11.88 6.42c-4.11,-1.89 -8.09,-4.02 -11.88,-6.42zm19.73 9.63l9.26 2.85c-3.15,-0.82 -6.24,-1.76 -9.26,-2.85zm21.9 5.29l6.55 0.66c-2.21,-0.15 -4.38,-0.37 -6.55,-0.66z"/>
   </g>
   <g>
    <path class="fil0" d="M3828.49 4332.59l1065.96 -365.15 43.48 -8.01 45.48 -7.96 47.35 -7.88 49.11 -7.81 50.72 -7.73 52.21 -7.64 53.57 -7.54 54.82 -7.45 55.92 -7.34 56.9 -7.23 57.76 -7.11 58.49 -6.98 59.08 -6.85 59.57 -6.72 59.91 -6.57 60.13 -6.42 60.22 -6.26 60.18 -6.1 60.03 -5.94 59.73 -5.75 59.32 -5.58 58.77 -5.38 58.1 -5.19 57.3 -5 56.37 -4.78 55.33 -4.57 54.15 -4.35 52.84 -4.13 51.4 -3.89 49.84 -3.66 48.15 -3.41 46.34 -3.17 -2161.93 722.39c-13.04,-24.06 -20.42,-51.62 -20.42,-80.87 0,-41.93 -32.4,-77.19 -74.33,-81.96l-561.86 0z"/>
    <path class="fil0" d="M3763.48 4332.59l938.98 -322.11 0.47 0c6.92,-1.94 13.92,-3.85 20.96,-5.77l9.43 -2.42 10.77 -2.69 11.07 -2.68 11.36 -2.69 11.65 -2.68 11.92 -2.69 12.19 -2.68 12.46 -2.69 12.7 -2.68 12.95 -2.69 13.18 -2.68 13.41 -2.68 13.62 -2.69 13.84 -2.68 -1065.96 365.15 -65.01 0z"/>
    <path class="fil0" d="M3154.24 4332.59l1170.96 -407.16c128.47,23.71 247.12,50.01 353.23,78.83l-956.25 328.33 -567.93 0z"/>
    <path class="fil0" d="M2994.12 4332.59l1221.76 -426.34c180.46,30.08 344.4,64.85 485.15,104.23l1.44 0 -938.98 322.11 -769.37 0z"/>
    <path class="fil0" d="M2650.96 4332.59l1317.55 -463.34c53.02,7.1 105.02,14.55 155.86,22.36l-1260.03 440.98 -213.38 0z"/>
    <path class="fil0" d="M2994.12 4332.59l1221.76 -426.34c180.46,30.08 344.4,64.85 485.15,104.23l1.44 0 -938.98 322.11 -769.37 0z"/>
    <path class="fil0" d="M2504.35 4121.47l876.91 -313.61c48.26,3.8 96.13,7.86 143.57,12.14l-1020.49 363.52 0 -62.06z"/>
    <path class="fil0" d="M4491.85 4506.78l488.52 -163.09c-24.63,14.49 -41.1,40.99 -41.1,70.86 0,93.4 -75.29,169.63 -169.63,169.63l-135.33 0c-60.04,0 -112.35,-30.88 -142.46,-77.4z"/>
    <path class="fil0" d="M4490.85 4505.22l503.68 -168.18c-4.95,1.79 -9.7,4.01 -14.16,6.64l-488.52 163.09 -1 -1.56z"/>
    <path class="fil0" d="M4492.1 4507.16l486.54 -162.42c-23.67,14.69 -39.37,40.64 -39.37,69.81 0,93.4 -75.29,169.63 -169.63,169.63l-135.33 0c-59.88,0 -112.06,-30.71 -142.21,-77.02z"/>
    <path class="fil0" d="M4491.09 4505.61l497.02 -165.94c-3.28,1.5 -6.44,3.19 -9.47,5.06l-486.54 162.42 -1.01 -1.55z"/>
    <path class="fil0" d="M3763.48 4332.59l938.98 -322.11 0.47 0 12.86 -3.54 23.36 -6.15 39.84 -9.51 43.23 -9.46 46.41 -9.41 49.4 -9.34 52.18 -9.26 54.76 -9.17 57.14 -9.07 59.33 -8.97 61.31 -8.85 63.08 -8.72 64.67 -8.58 66.05 -8.44 67.23 -8.28 68.21 -8.11 68.99 -7.93 69.56 -7.75 69.94 -7.55 70.11 -7.34 70.1 -7.12 69.86 -6.9 69.44 -6.66 68.83 -6.41 68 -6.16 66.97 -5.89 65.74 -5.61 64.32 -5.33 62.69 -5.03 60.86 -4.72 58.83 -4.4 56.6 -4.08 54.18 -3.74 -2161.93 722.39c-13.04,-24.06 -20.42,-51.62 -20.42,-80.87 0,-41.93 -32.4,-77.19 -74.33,-81.96l-626.87 0z"/>
    <path class="fil0" d="M4441.9 4358.19l556.49 -187.78 -14.08 5.75 -12.64 8.05 -10.94 10.07 -8.99 11.81 -6.74 13.28 -4.24 14.46 -1.48 15.37 -474.79 159.61c-1.38,-19.42 -9.71,-37.12 -22.59,-50.62z"/>
    <path class="fil0" d="M2504.35 4197.8l1053.13 -374.8c119.76,11.16 236.52,23.89 349.06,38.17l-1338.01 471.42 -64.17 0 0 -134.79z"/>
    <path class="fil0" d="M4490.73 4505.04l496.53 -165.79 -13.34 7.77 -11.53 10.23 -2.82 3.65c-2.31,2.64 -4.43,5.42 -6.39,8.33l-0.27 0.35 -0.1 0.2c-8.56,12.95 -13.54,28.34 -13.54,44.76l-0.01 0.96 -406.35 135.16c-16.72,-12.47 -31.04,-27.95 -42.18,-45.62z"/>
    <path class="fil0" d="M4464.48 4408.82l474.79 -159.61 -0.87 17.29 -2.55 16.8 -4.15 16.24 -5.67 15.57 -7.1 14.83 -8.46 13.99 -9.73 13.06 -10.91 12.06 -12.02 10.96 -13.04 9.79 -13.99 8.52 -14.84 7.16 -15.62 5.72 -320.48 106.9c-22.09,-28.68 -35.17,-64.62 -35.17,-103.54 0,-1.93 -0.07,-3.83 -0.2,-5.73z"/>
    <path class="fil0" d="M4642.24 4584.18l278.42 -92.18c-28.02,54.66 -84.82,92.18 -151.02,92.18l-127.4 0z"/>
    <polygon class="fil0" points="4632.93,4584.16 4634.31,4583.7 4769.64,4583.7 4768.19,4584.18 4634.31,4584.18 "/>
    <polygon class="fil0" points="2568.52,4332.59 3906.54,3861.17 3940.54,3865.55 2613.6,4332.59 "/>
    <path class="fil0" d="M2506.45 3843.74l199.16 -72.47c94.15,2.92 188.23,6.71 281.7,11.38l-482.96 174.52 0 -93.46c0,-6.85 0.72,-13.53 2.1,-19.97z"/>
    <path class="fil0" d="M4768.19 4584.18l1.45 -0.48 17.45 -0.88 16.92 -2.58 16.32 -4.19 -9.24 3.05c-13.25,3.3 -27.13,5.08 -41.46,5.08l-1.45 0z"/>
    <path class="fil0" d="M4769.64 4584.18l17.45 -0.88c-5.73,0.58 -11.55,0.88 -17.45,0.88zm17.45 -0.88l16.92 -2.58c-5.54,1.13 -11.19,2 -16.92,2.58zm16.92 -2.58l16.32 -4.19c-5.33,1.66 -10.77,3.06 -16.32,4.19z"/>
    <path class="fil0" d="M4464.69 4415.21l0.82 16.22c-0.53,-5.34 -0.8,-10.74 -0.82,-16.22zm0.99 17.81l2.29 14.98c-0.98,-4.91 -1.74,-9.92 -2.29,-14.98zm2.65 16.68l3.84 14.9c-1.51,-4.88 -2.78,-9.85 -3.84,-14.9zm4.03 15.51l5.56 15.17 7.1 14.73 8.46 13.92 9.73 13 10.91 12 12.02 10.92 13.04 9.76 13.99 8.5 14.84 7.14 15.62 5.71 16.32 4.19 16.92 2.58 17.45 0.88 -1.39 0.46c-75.92,-0.6 -139.26,-50.56 -160.57,-118.95z"/>
    <path class="fil0" d="M2504.35 4137.17l913.51 -326.37c46.94,3.83 93.5,7.91 139.62,12.2l-1053.13 374.8 0 -60.64z"/>
    <path class="fil0" d="M4464.68 4414.55l0.87 17.29c-0.58,-5.68 -0.87,-11.45 -0.87,-17.29zm0.87 17.29l2.55 16.81c-1.12,-5.51 -1.97,-11.12 -2.55,-16.81zm2.55 16.81l4.15 16.23c-1.65,-5.3 -3.04,-10.71 -4.15,-16.23zm4.15 16.23l5.67 15.58c-2.14,-5.07 -4.03,-10.27 -5.67,-15.58zm5.67 15.58l7.1 14.82c-2.6,-4.81 -4.96,-9.75 -7.1,-14.82zm7.1 14.82l8.46 13.99c-3.04,-4.51 -5.86,-9.19 -8.46,-13.99zm8.46 13.99l9.73 13.07c-3.44,-4.18 -6.69,-8.56 -9.73,-13.07zm9.73 13.07l10.91 12.05c-3.82,-3.84 -7.47,-7.86 -10.91,-12.05zm10.91 12.05l12.02 10.96c-4.18,-3.46 -8.2,-7.12 -12.02,-10.96zm12.02 10.96l13.04 9.79c-4.5,-3.06 -8.86,-6.32 -13.04,-9.79zm13.04 9.79l13.99 8.52c-4.81,-2.62 -9.48,-5.46 -13.99,-8.52zm13.99 8.52l14.84 7.16c-5.07,-2.16 -10.02,-4.54 -14.84,-7.16zm14.84 7.16l15.62 5.72c-5.32,-1.66 -10.53,-3.57 -15.62,-5.72zm15.62 5.72l16.32 4.19c-5.54,-1.14 -10.98,-2.54 -16.32,-4.19zm16.32 4.19l16.92 2.58c-5.73,-0.58 -11.37,-1.45 -16.92,-2.58zm16.92 2.58l17.45 0.88c-5.89,0 -11.71,-0.3 -17.45,-0.88z"/>
    <path class="fil0" d="M2504.35 3957.17l482.96 -174.52c97.52,4.87 194.41,10.69 290.07,17.46l-773.03 277.22 0 -120.17z"/>
    <path class="fil0" d="M2504.35 4077.34l773.03 -277.22c34.8,2.47 69.43,5.04 103.88,7.75l-876.91 313.61 0 -44.13z"/>
    <path class="fil0" d="M3417.86 3810.8l-913.51 326.37 0 -273.46c0,-53.37 43.84,-96.25 97.21,-95.31 275.42,6.61 551.77,20.8 816.29,42.4z"/>
    <path class="fil0" d="M3968.5 3869.25l-1317.55 463.34 -146.61 0 0 -468.88c0,-53.37 43.84,-96.25 97.21,-95.31 474.66,11.39 952.02,45.29 1366.94,100.85z"/>
    <path class="fil0" d="M2757.85 3772.98l0.01 0.05 -253.52 92.14 0 -1.46c0,-53.37 43.84,-96.25 97.21,-95.31 52.09,1.25 104.22,2.79 156.29,4.57z"/>
    <path class="fil0" d="M2504.35 3865.17l253.52 -92.14 54.2 3.74 56.62 4.08 58.86 4.4 60.89 4.73 62.73 5.02 64.34 5.33 65.77 5.61 67 5.89 68.03 6.16 68.86 6.41 69.48 6.66 69.9 6.9 70.12 7.12 70.15 7.35 69.97 7.55 69.59 7.74 69.02 7.94 68.24 8.11 67.27 8.28 66.08 8.43 64.7 8.59 63.11 8.72 61.34 8.85 59.35 8.96 57.17 9.08 54.79 9.17 52.21 9.26 49.42 9.33 46.43 9.41 43.25 9.46 28.98 6.91c15.34,4.04 30.45,8.14 45.28,12.29l1.44 0 -938.98 322.11 -1259.13 0 0 -467.42z"/>
    <path class="fil0" d="M2504.35 3865.15l253.47 -92.12 42.71 2.93 46.32 3.3 49.69 3.66 52.81 4.02 55.7 4.38 58.33 4.71 60.72 5.05 62.86 5.37 64.76 5.68 66.42 6 67.84 6.29 69 6.59 69.91 6.86 70.6 7.14 71.02 7.4 71.21 7.66 71.16 7.91 70.85 8.15 70.31 8.37 69.51 8.6 68.48 8.81 67.2 9.01 65.67 9.21 63.9 9.39 61.89 9.58 59.63 9.74 57.11 9.91 54.37 10.05 51.38 10.19 48.14 10.32 41.63 9.76c14.23,3.77 28.28,7.58 42.07,11.43l1.44 0 -938.98 322.11 -1259.13 0 0 -467.44z"/>
    <path class="fil0" d="M2757.8 3772.98l0.01 0.05 -253.47 92.12 0 -1.44c0,-53.37 43.84,-96.25 97.21,-95.31 52.07,1.25 104.18,2.79 156.24,4.57z"/>
    <path class="fil0" d="M2563.86 3775.39l-16.51 8.68c5.17,-3.4 10.69,-6.32 16.51,-8.68zm-16.51 8.68l-14.41 11.62 -11.91 14.16c7.02,-10.2 15.97,-18.97 26.32,-25.78zm-26.32 25.78l-9 16.32c2.48,-5.75 5.49,-11.21 9,-16.32zm-9 16.32l-5.7 18.08c1.31,-6.28 3.24,-12.33 5.7,-18.08zm-5.7 18.08l-1.99 19.46c0,-6.68 0.69,-13.18 1.99,-19.46z"/>
   </g>
   <g>
    <path class="fil0" d="M3827.12 4333.06l484.08 -165.82 79.16 0c41.93,4.77 74.33,40.03 74.33,81.97 0,93.39 75.29,169.63 169.63,169.63l79.95 0 -229.08 76.54c-13.09,-23.96 -20.5,-51.35 -20.5,-80.36 0,-41.93 -32.4,-77.19 -74.33,-81.97l-563.24 0zm1640.12 -165.82l-565.98 189.11c23.8,-29.26 38.02,-66.58 38.02,-107.15 0,-41.94 32.41,-77.19 74.34,-81.97l453.62 0z"/>
    <polygon class="fil0" points="3762.11,4333.06 4245.48,4167.24 4311.19,4167.24 3827.12,4333.06 "/>
    <polygon class="fil0" points="3152.89,4333.06 3629.77,4167.24 4203.74,4167.24 3720.81,4333.06 "/>
    <polygon class="fil0" points="2992.77,4333.06 3467.95,4167.24 4245.48,4167.24 3762.11,4333.06 "/>
    <polygon class="fil0" points="2649.63,4333.06 3121.14,4167.24 3336.79,4167.24 2863,4333.06 "/>
    <polygon class="fil0" points="2992.77,4333.06 3467.95,4167.24 4245.48,4167.24 3762.11,4333.06 "/>
    <polygon class="fil0" points="2550.06,4167.24 2504.35,4183.53 2504.35,4167.24 "/>
    <path class="fil0" d="M4491.97 4506.74l263.29 -87.9 14.38 0c43.17,0 82.35,-15.98 112.15,-42.25l100.59 -33.58c-25.74,14.21 -43.1,41.33 -43.1,72.01 0,92.44 -75.29,168.67 -169.63,168.67l-135.33 0c-59.96,0 -112.22,-30.79 -142.34,-76.96zm519.33 -173.38l2.31 -0.77 1885.99 0 -1.5 0.48 -1884.5 -0.01 -2.31 0.3z"/>
    <path class="fil0" d="M4490.96 4505.18l258.58 -86.34 5.72 0 -263.29 87.9 -1.01 -1.56zm394.17 -131.61l113.25 -37.81 15.23 -3.17 -2.31 0.77c-10.38,1.47 -20.14,4.8 -28.93,9.66l-100.59 33.58 3.34 -3.03z"/>
    <path class="fil0" d="M4492.23 4507.12l264.43 -88.28 12.98 0c42.77,0 81.62,-15.68 111.31,-41.5l99.46 -33.2c-24.66,14.49 -41.14,40.98 -41.14,70.88 0,92.44 -75.29,168.67 -169.63,168.67l-135.33 0c-59.79,0 -111.92,-30.63 -142.08,-76.58z"/>
    <path class="fil0" d="M4491.21 4505.57l259.76 -86.73 5.69 0 -264.43 88.28 -1.02 -1.55zm393.12 -131.25l110.15 -36.78c-4.93,1.78 -9.63,4 -14.08,6.61l-99.46 33.2 3.38 -3.03z"/>
    <path class="fil0" d="M3762.11 4333.06l483.37 -165.82 144.87 0c41.93,4.77 74.33,40.03 74.33,81.97 0,93.39 75.29,169.63 169.63,169.63l79.95 0 -229.08 76.54c-13.09,-23.96 -20.5,-51.35 -20.5,-80.36 0,-41.93 -32.4,-77.19 -74.33,-81.97l-628.24 0zm1705.12 -165.82l-565.98 189.11c23.8,-29.26 38.02,-66.58 38.02,-107.15 0,-41.94 32.41,-77.19 74.34,-81.97l453.62 0z"/>
    <path class="fil0" d="M4441.55 4358.31l50.25 -16.95c11.08,17.14 25.18,32.16 41.57,44.3l-68.93 23.16c-1.49,-19.41 -9.91,-37.08 -22.9,-50.51zm552.5 -186.44l4.33 -1.46 -14.08 5.75c3.14,-1.63 6.39,-3.07 9.75,-4.29zm-9.75 4.29l-12.64 8.05c3.94,-3.04 8.18,-5.73 12.64,-8.05zm-12.64 8.05l-10.94 10.07c3.33,-3.66 7,-7.04 10.94,-10.07zm-10.94 10.07l-8.99 11.81c2.64,-4.19 5.65,-8.15 8.99,-11.81zm-8.99 11.81l-6.74 13.28c1.85,-4.64 4.1,-9.09 6.74,-13.28zm-6.74 13.28l-4.24 14.46c0.97,-4.98 2.41,-9.83 4.24,-14.46zm-4.24 14.46l-1.48 15.37c0,-5.24 0.51,-10.38 1.48,-15.37z"/>
    <polygon class="fil0" points="2504.35,4197.8 2590.23,4167.24 3037.83,4167.24 2567.18,4333.06 2504.35,4333.06 "/>
    <path class="fil0" d="M4490.85 4505l258.04 -86.16 20.75 0c44.99,0 85.63,-17.34 115.86,-45.61l101.76 -33.98 -13.34 7.77 -11.53 10.23 -9.48 12.33 -1.26 2.46c-7.86,12.57 -12.38,27.31 -12.38,42.98l-0.01 0.48 -405.97 135.03c-16.82,-12.44 -31.23,-27.89 -42.45,-45.53z"/>
    <path class="fil0" d="M4464.44 4408.83l68.93 -23.16c28.13,20.83 62.99,33.18 100.95,33.18l135.33 0c17.69,0 34.71,-2.68 50.69,-7.65l-320.32 106.84c-22.19,-28.59 -35.34,-64.38 -35.34,-103 0,-2.09 -0.08,-4.15 -0.24,-6.2z"/>
    <path class="fil0" d="M4643.69 4583.7l276.87 -91.67c-28.05,54.22 -84.8,91.67 -150.92,91.67l-125.95 0z"/>
    <polygon class="fil0" points="2567.18,4333.06 3037.83,4167.24 3083.39,4167.24 2612.27,4333.06 "/>
    <path class="fil0" d="M4769.64 4583.7l17.45 -0.88c-5.73,0.58 -11.55,0.88 -17.45,0.88zm17.45 -0.88l16.92 -2.58c-5.54,1.13 -11.19,2 -16.92,2.58zm16.92 -2.58l16.32 -4.19c-5.33,1.65 -10.77,3.07 -16.32,4.19z"/>
    <path class="fil0" d="M4464.68 4415.03l0.87 17.12c-0.58,-5.63 -0.87,-11.34 -0.87,-17.12zm0.87 17.12l2.55 16.66c-1.12,-5.47 -1.97,-11.02 -2.55,-16.66zm2.55 16.66l4.15 16.11c-1.65,-5.26 -3.04,-10.64 -4.15,-16.11zm4.15 16.11l5.67 15.46c-2.14,-5.03 -4.03,-10.19 -5.67,-15.46zm5.67 15.46l7.1 14.73c-2.6,-4.77 -4.96,-9.7 -7.1,-14.73zm7.1 14.73l8.46 13.92c-3.04,-4.48 -5.86,-9.14 -8.46,-13.92zm8.46 13.92l9.73 13c-3.44,-4.17 -6.69,-8.51 -9.73,-13zm9.73 13l10.91 12c-3.82,-3.83 -7.47,-7.83 -10.91,-12zm10.91 12l12.02 10.92c-4.18,-3.45 -8.2,-7.1 -12.02,-10.92zm12.02 10.92l13.04 9.76c-4.5,-3.05 -8.86,-6.3 -13.04,-9.76zm13.04 9.76l13.99 8.5c-4.81,-2.62 -9.48,-5.45 -13.99,-8.5zm13.99 8.5l14.84 7.14c-5.07,-2.15 -10.02,-4.53 -14.84,-7.14zm14.84 7.14l15.62 5.71c-5.32,-1.66 -10.53,-3.56 -15.62,-5.71zm15.62 5.71l16.32 4.19c-5.54,-1.14 -10.98,-2.54 -16.32,-4.19zm16.32 4.19l16.92 2.58c-5.73,-0.58 -11.37,-1.45 -16.92,-2.58zm16.92 2.58l17.45 0.88c-5.89,0 -11.71,-0.3 -17.45,-0.88z"/>
    <path class="fil0" d="M4388.97 4333.06l1.39 -0.47 15.23 3.17 14.08 5.75 12.64 8.06 10.94 10.06 3.36 4.42c-13.49,-16.78 -33.46,-28.4 -56.25,-30.99l-1.39 0zm60.36 34.58l2.9 3.8 1.59 3.13c-1.37,-2.39 -2.88,-4.69 -4.48,-6.93zm8.47 14.78l1.17 2.31 0.58 1.96c-0.54,-1.44 -1.13,-2.87 -1.75,-4.26zm5.09 15.67l0.32 1.1 0.1 0.99 -0.42 -2.09z"/>
    <polygon class="fil0" points="2590.23,4167.24 2504.35,4197.8 2504.35,4167.24 "/>
    <path class="fil0" d="M4464.68 4414.55l0.87 17.29 2.55 16.81 4.15 16.23 5.41 14.87c-8.36,-19.98 -12.98,-41.85 -12.98,-64.72l0 -0.48zm13.63 66.72l5.85 12.21c-2.11,-3.98 -4.06,-8.06 -5.85,-12.21zm7.93 16.02l5.42 8.98c-1.9,-2.94 -3.7,-5.93 -5.42,-8.98z"/>
    <polygon class="fil0" points="3121.14,4167.24 2649.63,4333.06 2504.35,4333.06 2504.35,4167.24 "/>
    <polygon class="fil0" points="4245.48,4167.24 3762.11,4333.06 2504.35,4333.06 2504.35,4167.24 "/>
    <polygon class="fil0" points="4245.48,4167.24 3762.11,4333.06 2504.35,4333.06 2504.35,4167.24 "/>
    <polygon class="fil0" points="2504.35,4332.59 4390.35,4332.59 4388.97,4333.06 2504.35,4333.06 "/>
   </g>
   <g>
    <path class="fil0" d="M4304.75 3932.55l276.22 -96.05c45.15,49.27 83.92,103.07 115.35,161.62l-17.29 5.94c-97.55,-24.96 -227.15,-48.98 -374.27,-71.5z"/>
    <path class="fil0" d="M4189.08 3915.59l349.8 -122.07c66.77,63.81 122.46,135.76 164.02,216.8 -123.26,-33.63 -306.16,-65.62 -513.82,-94.74z"/>
    <path class="fil0" d="M3931.49 3882.27l211.27 -74.3c47.2,7.33 93.23,14.92 138.02,22.79 6.08,1.07 11.81,1.04 17.12,0.11l-204.86 71.69c-52.85,-6.96 -106.87,-13.72 -161.56,-20.29z"/>
    <path class="fil0" d="M2920.49 3333.39l17.37 -6.46c76.9,1.74 157.07,5.37 239.12,11.36l-34.24 12.66c-78.2,-8.1 -152.98,-13.73 -222.25,-17.56z"/>
    <path class="fil0" d="M4189.08 3915.59l349.8 -122.07c66.77,63.81 122.46,135.76 164.02,216.8 -123.26,-33.63 -306.16,-65.62 -513.82,-94.74z"/>
    <path class="fil0" d="M3345.51 3820.66l229.68 -82.14c47.07,4.43 93.48,9.09 139.18,13.97l-228.81 81.51c-47.37,-4.64 -94.15,-9.1 -140.05,-13.34zm692.41 -247.63l92.8 -33.18c27.36,11.32 54.17,23.24 80.44,35.68l-98.26 35c-24.48,-13.07 -49.5,-25.57 -74.98,-37.49z"/>
    <path class="fil0" d="M3517.67 3837.17l228.3 -81.26c117.46,12.9 230.09,27.29 337.14,43.04l-215.15 75.81c-116.34,-13.53 -234.73,-26.12 -350.29,-37.59zm611.72 -217.71l99.52 -35.42c62.39,30.45 121.31,64.22 175.88,101.58l-112.91 39.78c-50.28,-38.93 -104.78,-74.14 -162.49,-105.94z"/>
    <path class="fil0" d="M3867.96 3874.76l215.15 -75.81 32.75 4.88 -213.1 75.01 -34.81 -4.08zm423.93 -149.36l112.91 -39.78c5.31,3.63 10.65,7.24 15.88,10.94l-114.33 40.24c-4.79,-3.82 -9.61,-7.64 -14.46,-11.4z"/>
    <path class="fil0" d="M3142.74 3350.96l34.24 -12.66c85.69,6.26 173.38,15.06 261.45,26.94l-50.51 18.53c-83.81,-13.93 -166.24,-24.63 -245.18,-32.81z"/>
    <path class="fil0" d="M3387.92 3383.77l50.51 -18.53c40.58,5.47 81.23,11.62 121.81,18.45l-57.64 21.08c-38.38,-7.71 -76.66,-14.68 -114.68,-21z"/>
    <path class="fil0" d="M2753.01 3754.02l166.28 -60.51c92.69,4.19 183.93,9.17 273.46,14.91l-221.94 80.2c-81.07,-6.34 -153.26,-11.59 -212.99,-15.59l-4.8 -19.01zm879.83 -320.17l65.84 -23.96c64.4,13.61 128.1,29.19 190.46,46.89l-77.26 27.92c-58.82,-19.11 -118.76,-35.98 -179.04,-50.84z"/>
    <path class="fil0" d="M3381.01 3823.97l229.66 -82.06c45.76,4.45 90.87,9.13 135.31,14l-228.3 81.26c-46.11,-4.58 -91.77,-8.99 -136.66,-13.2zm676.43 -241.67l94.11 -33.62c26.3,11.26 52.12,23.05 77.37,35.37l-99.52 35.42c-23.48,-12.94 -47.5,-25.32 -71.96,-37.16z"/>
    <path class="fil0" d="M2970.8 3788.61l221.94 -80.2c95.96,6.15 189.97,13.16 281.67,21.03l-229.02 82.14c-98.48,-8.75 -191.25,-16.45 -274.59,-22.97zm841.08 -303.92l77.26 -27.92c61.79,17.54 122.26,37.17 180.76,59.12l-88.69 31.8c-54.89,-23.33 -111.57,-44.24 -169.33,-63z"/>
    <path class="fil0" d="M3245.4 3811.58l229.02 -82.14c33.91,2.91 67.5,5.94 100.77,9.08l-229.68 82.14c-33.91,-3.14 -67.32,-6.16 -100.11,-9.08zm735.82 -263.88l88.69 -31.8c20.52,7.7 40.81,15.68 60.82,23.95l-92.8 33.18c-18.67,-8.74 -37.56,-17.19 -56.7,-25.33z"/>
    <path class="fil0" d="M4151.54 3548.68l-94.11 33.62c-420.52,-203.5 -975.7,-248.21 -1302.48,-255.27 3.81,-0.95 7.63,-0.95 12.39,-0.95 407.47,-5.34 960.05,40.99 1384.19,222.6zm-540.87 193.24l-229.66 82.06c-249.03,-23.37 -474.52,-40.99 -623.2,-50.94l-21.92 -86.72c308.25,10.27 602.88,29.14 874.78,55.61z"/>
    <path class="fil0" d="M3139.22 3350.59l33.97 -12.57c51.59,3.72 103.9,8.37 156.62,14.05l-43.91 16.17c-49.87,-6.91 -98.92,-12.74 -146.68,-17.64z"/>
    <path class="fil0" d="M3001.23 3338.55l23.91 -8.89c48.42,1.97 97.89,4.74 148.05,8.36l-33.97 12.57c-47.44,-4.88 -93.57,-8.84 -137.99,-12.04z"/>
    <path class="fil0" d="M3025.14 3329.66l-23.91 8.89c-90.62,-6.54 -174.05,-9.96 -246.27,-11.52 3.81,-0.95 7.63,-0.95 12.39,-0.95 80.92,-1.06 167.57,-0.08 257.79,3.58z"/>
    <path class="fil0" d="M3379.79 3382.43l49.95 -18.33c11.74,1.56 23.5,3.17 35.26,4.83l-52.06 19.09c-11.06,-1.92 -22.13,-3.78 -33.15,-5.59z"/>
    <path class="fil0" d="M3285.9 3368.23l43.91 -16.17c33.19,3.58 66.53,7.6 99.94,12.03l-49.95 18.33c-31.54,-5.16 -62.87,-9.91 -93.9,-14.2z"/>
    <path class="fil0" d="M4142.76 3807.97l-211.27 74.3c-438.12,-52.62 -918.76,-92.18 -1173.67,-109.24l-21.92 -86.72c523.01,17.43 1006.82,59.6 1406.86,121.67z"/>
    <polygon class="fil0" points="2735.9,3686.32 2735.93,3686.31 2757.86,3773.03 2757.85,3773.03 2757.81,3773.03 "/>
    <polygon class="fil0" points="2735.93,3686.31 2735.9,3686.32 2735.9,3686.31 "/>
    <path class="fil0" d="M2757.85 3773.03l0.01 0 2.81 0.19 -2.82 -0.19zm224.14 16.47l6.44 0.5 14.44 1.16 -20.88 -1.66zm55.46 4.42l13.71 1.1 12.21 1.02 -25.92 -2.12zm56 4.6l22.06 1.83 8.59 0.74 -30.64 -2.57zm73.33 6.2l14.5 1.24 5.51 0.49 -20.01 -1.73zm1315.02 157.33l5.87 1.04 3.32 0.63 -9.2 -1.67zm37.33 6.98l17.95 3.38 46.43 9.41 43.25 9.46 39.86 9.51 12.38 3.26c-46.54,-11.91 -100.32,-23.59 -159.88,-35.01z"/>
   </g>
   <g>
    <path class="fil0" d="M4986.78 3695.4l569.43 -198c-173.74,59.89 -336.17,140.24 -466.98,247.84 -38.16,31.39 -11.38,93.05 37.29,84.51 38.01,-6.67 76.92,-13.14 116.66,-19.41l-530.72 182.22c64.41,-117.66 159.01,-215.76 274.31,-297.17z"/>
    <path class="fil0" d="M5364.87 3505.28l39.93 -13.93 -65.63 23.28c-21.62,8.08 -42.97,16.46 -64.02,25.17l-62.22 27.12c20.42,-9.37 41.17,-18.41 62.22,-27.12l64.02 -25.17zm-126.24 52.29l-60.23 29.11c19.72,-10.04 39.81,-19.74 60.23,-29.11zm-60.23 29.12l-58.04 31.16c18.95,-10.74 38.32,-21.12 58.04,-31.16zm-58.04 31.17l-55.66 33.29c18.13,-11.45 36.69,-22.55 55.66,-33.29zm-55.66 33.29l-53.08 35.48c17.24,-12.2 34.95,-24.02 53.08,-35.48zm-53.08 35.48l-50.31 37.71c16.29,-12.95 33.07,-25.52 50.31,-37.71zm-50.31 37.71l-47.34 40.01c15.27,-13.73 31.05,-27.06 47.34,-40.01zm-47.34 40.01l-44.17 42.37c14.18,-14.52 28.91,-28.64 44.17,-42.37zm-44.17 42.37l-40.82 44.79c13.03,-15.34 26.64,-30.27 40.82,-44.79zm-40.82 44.79l-37.27 47.27c11.8,-16.18 24.25,-31.93 37.27,-47.27zm-37.27 47.27l-33.52 49.79c10.53,-17.02 21.71,-33.62 33.52,-49.79zm-33.52 49.79l-29.59 52.4c9.19,-17.91 19.06,-35.37 29.59,-52.4z"/>
    <path class="fil0" d="M5364.87 3505.28l39.93 -13.93 -65.63 23.28c-21.62,8.08 -42.97,16.46 -64.02,25.17l-62.22 27.12c20.42,-9.37 41.17,-18.41 62.22,-27.12l64.02 -25.17zm-126.24 52.29l-60.23 29.11c19.72,-10.04 39.81,-19.74 60.23,-29.11zm-60.23 29.11l-58.04 31.17c18.96,-10.74 38.32,-21.13 58.04,-31.17zm-58.04 31.17l-55.66 33.3c18.13,-11.45 36.69,-22.56 55.66,-33.3zm-55.66 33.3l-53.08 35.48c17.24,-12.2 34.95,-24.02 53.08,-35.48zm-53.08 35.48l-50.31 37.71c16.29,-12.95 33.07,-25.52 50.31,-37.71zm-50.31 37.71l-47.34 40.01c15.27,-13.73 31.05,-27.06 47.34,-40.01zm-47.34 40.01l-44.17 42.37c14.18,-14.52 28.91,-28.64 44.17,-42.37zm-44.17 42.37l-40.82 44.79c13.03,-15.34 26.64,-30.27 40.82,-44.79zm-40.82 44.79l-37.27 47.27c11.8,-16.18 24.25,-31.93 37.27,-47.27zm-37.27 47.27l-33.52 49.79c10.53,-17.02 21.71,-33.62 33.52,-49.79zm-33.52 49.79l-29.59 52.4c9.19,-17.91 19.06,-35.37 29.59,-52.4z"/>
    <path class="fil0" d="M4736.49 4001.48l2.67 -0.7 4.76 -1.14 -7.43 1.84zm32.92 -7.91l9.59 -2.3 43.23 -9.46 46.41 -9.41 6.79 -1.29c-38.1,7.48 -73.71,14.97 -106.02,22.45z"/>
   </g>
  </g>
  <path class="fil2" d="M548.54 4627.69c17.95,27.21 29.6,53.36 40.96,82.43 8.45,16.91 12.93,48.09 52.57,48.09 11.61,0 28.28,-3.42 43.06,-11.61 16.63,-8.73 29.32,-21.94 35.94,-42l15.85 -53.36 38.57 -19.02 2.64 2.64c-5.27,20.09 -6.59,39.36 -6.59,54.43 0,44.63 38.57,61.56 69.22,61.56 17.95,0 34.09,-8.73 34.09,-25.11 0,-21.13 -8.98,-57.06 -20.62,-89.29 17.95,-17.95 35.94,-35.94 56.53,-50.47l3.17 1.6c8.98,38.04 14,75.56 14,100.66 0,24.57 -10.83,51.79 -19.81,69.49 -18.49,34.87 -51.25,62.62 -90.87,62.62 -30.1,0 -63.65,-15.07 -86.66,-43.06l-1.32 0c-21.66,26.96 -55.22,51.25 -108.86,51.25l-16.63 0c-2.64,35.41 -10.29,60.49 -21.94,82.95 -31.95,62.34 -126.81,106.47 -216.1,106.47 -124.17,0 -186.51,-71.59 -186.51,-166.96 0,-58.91 19.27,-113.6 48.88,-152.42l24.29 10.04c-18.49,35.41 -30.91,68.68 -30.91,101.45 0,89.29 72.66,131.83 156.4,131.83 77.68,0 173.83,-49.41 191.28,-106.72 -6.59,-62.62 -30.1,-91.93 -66.04,-148.99 10.83,-19.02 24.83,-38.04 42.28,-58.38l3.17 0 0 0 0 0 -0.02 -0.09zm1432.13 -336.04c26.15,16.39 51.79,35.66 76.87,57.85 -14,19.81 -31.45,37.79 -53.11,53.64 -25.11,-20.34 -50.19,-37.79 -75.84,-56.27 17.42,-19.55 34.62,-38.29 52.04,-55.22l0 0 0 0 0 0 0 0 0 0 0.03 0zm13.47 244.11c-42.28,0 -76.87,27.75 -76.87,48.34 0,44.13 84.53,57.85 185.72,57.31 -12.68,-51.79 -57.06,-105.68 -108.86,-105.68l0.01 0.03zm-94.86 236.19c54.96,0 103.04,-1.6 139.74,-10.83 40.96,-10.29 75.56,-30.91 75.56,-45.17 0,-3.7 0,-8.19 -1.32,-11.89 -22.98,2.11 -49.41,2.11 -72.38,2.11 -74.49,0 -131.55,-16.91 -154.02,-58.66 -5.55,-11.61 -9.51,-24.57 -9.51,-39.36 0,-40.43 17.42,-79.79 48.09,-107 25.61,-22.45 53.89,-36.44 82.67,-36.44 52.04,0 93.51,41.75 122.57,107.54 15.85,35.94 26.68,77.4 26.68,129.72 0,34.87 -9.51,64.19 -31.17,85.85 -40.43,39.11 -114.92,53.89 -229.04,53.89l-51.79 0 0 0 -13.47 0c-28.28,0 -48.62,-5.02 -64.72,-17.42l-2.64 0c0.79,6.59 1.32,12.93 1.32,19.02 0,25.61 -8.45,58.38 -25.61,84.53 -50.72,75.3 -105.68,108.04 -153.24,108.04 -48.09,0 -107,-18.49 -160.11,-42.54l9.51 -18.49c17.17,7.13 40.96,11.89 73.7,11.89 85.85,0 198.66,-82.43 212.66,-163 -3.17,-6.59 -8.98,-15.32 -17.17,-24.57 -25.11,-29.85 -40.96,-54.68 -55.75,-80.83 12.68,-25.11 24.29,-45.17 35.13,-63.4l4.49 -0.53c36.72,74.77 69.99,117.55 144.23,117.55l11.61 0 0 0 53.89 0 0 0 0 0 0 0 0 0 0 0 0.09 0.01zm-371.98 79c6.34,-34.34 6.87,-72.91 6.87,-108.86l0 -53.36c0,-99.6 -12.68,-244.36 -22.98,-338.68 17.95,-19.27 43.06,-42 62.87,-57.31l5.81 1.6c13.47,118.62 16.63,256 16.63,383.06 0,33.3 -1.32,65.79 -4.49,89.55 -1.85,30.1 -19.27,52.83 -56.53,87.7l-8.19 -3.7zm-382.8 -157.19c1.85,46.77 24.83,83.49 105.15,83.49 49.93,0 92.19,-12.93 138.96,-35.13 8.45,-3.7 12.93,-8.73 12.93,-12.93 0,-29.32 -22.45,-68.15 -60.23,-103.55 -36.72,-33.3 -85.34,-62.62 -130.76,-82.18 -15.6,-6.59 -20.62,-13.47 -20.62,-20.09 0,-13.47 17.95,-41.75 32.77,-62.09l5.02 -0.53c52.04,27.21 110.17,67.64 153.24,112.53 39.11,41.47 63.4,83.49 63.4,129.19 0,33.81 -10.29,65.51 -26.96,95.11 -57.06,28.79 -117.83,50.72 -178.06,50.72 -73.17,0 -123.1,-34.34 -123.1,-114.92 0,-8.73 0,-22.19 3.17,-39.64l25.11 0 0 0 0 0 0 0 0 0 0 0 -0.02 0zm-132.37 -132.9l45.45 73.45c16.63,27.21 32.23,56.81 32.23,103.55l0 59.7c0,48.34 -30.91,100.13 -80.83,151.38 -39.11,34.62 -73.7,49.41 -105.68,49.41 -47.55,0 -101.98,-14.79 -164.85,-41.75l7.13 -18.49c19.81,5.27 42.79,9.77 71.06,9.77 90.36,-0.53 182.8,-66.57 225.08,-147.15 5.02,-9.26 6.87,-17.95 6.87,-24.04 0,-9.26 -5.02,-19.55 -8.98,-28.79 -22.98,-43.31 -48.62,-82.95 -76.87,-119.68 14.79,-23.25 29.6,-45.7 45.7,-67.9l3.7 0.53 0 0 0 0 0 0 0 0 0 0 -0.02 0.01z"/>
  <g id="_1773208021072">
   <g>
    <path id="Shape" class="fil3" d="M4448.47 2940.2l0 -73.75c0,-26.23 -21.26,-47.49 -47.49,-47.49l-474.9 0c-154.7,2.13 -303.66,-58.48 -412.92,-168.03 -104.26,-108.11 -159,-254.62 -151.15,-404.61 21.98,-294.53 268.4,-521.68 563.75,-519.63l1532.02 0c87.78,1.48 173.26,-28.15 241.29,-83.63 82.59,-69.57 129.16,-172.88 126.61,-280.85 -9.28,-196.56 -172.66,-350.41 -369.43,-347.86l-486.14 0c-26.23,0 -47.49,21.27 -47.49,47.49l0 73.81c0.03,16.98 -9.01,32.69 -23.7,41.2 -14.7,8.5 -32.83,8.51 -47.54,0.02l-378.45 -216.27c-14.78,-8.46 -23.9,-24.18 -23.9,-41.22 0,-17.03 9.13,-32.76 23.9,-41.22l378.45 -216.27c14.72,-8.5 32.85,-8.48 47.56,0.04 14.7,8.52 23.73,24.24 23.68,41.23l0 73.75c0,26.23 21.26,47.5 47.49,47.5l481.11 0c295.37,-2.08 541.82,225.08 563.81,519.63 7.8,149.98 -46.95,296.5 -151.21,404.61 -109.29,109.55 -258.29,170.16 -413.02,168.02l-1530.06 0c-196.72,-2.47 -360.03,151.35 -369.33,347.86 -2.6,107.96 43.91,211.25 126.47,280.85 68.02,55.49 153.48,85.11 241.24,83.63l481.88 0c26.23,0 47.49,-21.27 47.49,-47.49l0 -73.8c-0.04,-16.98 9.01,-32.69 23.7,-41.2 14.7,-8.51 32.82,-8.52 47.53,-0.03l378.45 216.27c14.79,8.46 23.9,24.18 23.9,41.22 0,17.03 -9.12,32.76 -23.9,41.22l-378.45 216.27c-14.72,8.5 -32.85,8.49 -47.55,-0.03 -14.71,-8.53 -23.73,-24.24 -23.68,-41.24z"/>
    <path id="Shape_0" class="fil4" d="M5943.91 2660.1c37.95,-52.91 56.25,-117.4 51.77,-182.35 -13.3,-152.37 -141.99,-268.61 -294.91,-266.42l-416.96 0c-26.23,0 -47.49,21.26 -47.49,47.49l0 902.3c0,26.23 21.26,47.49 47.49,47.49l474.89 0c157.37,0 284.94,-127.57 284.94,-284.94l0 -47.49c0.03,-83.16 -36.42,-162.14 -99.73,-216.08zm-517.64 -258.82l284.94 0c52.46,0 94.99,42.53 94.99,94.99 0,52.45 -42.53,94.98 -94.99,94.98l-284.94 0 0 -189.96zm427.41 522.39c-0.16,52.39 -42.6,94.83 -94.99,94.98l-332.43 0 0 -237.44 332.43 0c52.39,0.15 94.83,42.59 94.99,94.98l0 47.49z"/>
    <path id="Shape_1" class="fil4" d="M4258.28 1427.76l-300.61 -902.31c-6.7,-19.21 -24.76,-32.14 -45.11,-32.29l-169.06 0c-20.35,0.15 -38.41,13.08 -45.12,32.29l-300.6 902.31c-4.9,14.51 -2.51,30.49 6.44,42.93 8.96,12.43 23.35,19.79 38.67,19.75l89.75 0c20.36,-0.15 38.42,-13.08 45.12,-32.3l52.24 -157.66 396.06 0 52.24 157.66c6.7,19.22 24.76,32.15 45.11,32.3l89.75 0c15.33,0.03 29.72,-7.32 38.67,-19.75 8.95,-12.44 11.35,-28.43 6.45,-42.94l0 0.01zm-564.66 -317.24l134.4 -403.66 134.4 403.66 -268.79 0z"/>
   </g>
   <g>
    <path class="fil5" d="M6728.98 3444.25l-60.04 242.06 -21.92 86.72c-564.19,38.12 -1577.22,135.33 -1944.13,237.3 293.84,-572.97 1293.46,-692.66 1935.55,-684.25 61.95,0.95 105.78,59.09 90.53,118.17z"/>
    <path class="fil5" d="M4702.9 4010.33c-367.08,-101.97 -1380.6,-199.18 -1945.04,-237.3l-21.94 -86.72 -60.07 -242.06c-15.26,-59.08 28.61,-117.22 90.57,-118.17 642.18,-8.41 1642.86,111.85 1936.46,684.25l0.01 0z"/>
    <path class="fil6" d="M6989.19 4435.51c0,57.18 -45.75,102.92 -102.92,102.92l-1793.55 0c-36.22,143.9 -167.73,251.59 -322.11,251.59l-136.28 0c-155.33,0 -285.9,-107.69 -322.11,-251.59l-1793.55 0c-57.18,0 -102.92,-45.74 -102.92,-102.92 0,-57.18 45.74,-102.92 102.92,-102.92l1867.88 0c44.79,0 78.15,38.12 78.15,82.91l474.59 0c0.96,-44.79 34.32,-82.91 79.1,-82.91l1867.89 0c57.17,0 102.92,45.74 102.92,102.92z"/>
    <path class="fil7" d="M6989.19 4435.04c0,58.13 -45.75,102.92 -102.92,102.92l-1793.55 0c-36.22,144.86 -167.73,252.55 -322.11,252.55l-136.28 0c-155.33,0 -285.9,-107.69 -322.11,-252.55l-1793.55 0c-57.18,0 -102.92,-44.79 -102.92,-102.92 0,-19.06 4.76,-36.22 13.34,-51.46 18.11,30.49 51.46,51.46 89.58,51.46l1793.55 0c36.22,143.9 166.78,251.59 322.11,251.59l136.28 0.01c154.39,0 285.9,-107.7 322.11,-251.6l1793.55 0c38.12,0 71.48,-20.97 89.58,-51.46 8.58,15.25 13.34,32.4 13.34,51.46z"/>
    <path class="fil5" d="M6899.6 3863.71l0 468.88 -1885.99 0c-41.93,4.76 -74.34,40.03 -74.34,81.96 0,93.4 -75.29,169.63 -169.63,169.63l-135.33 0c-94.35,0 -169.63,-76.23 -169.63,-169.63 0,-41.93 -32.4,-77.19 -74.33,-81.96l-1886 0 0 -468.88c0,-53.37 43.84,-96.25 97.21,-95.31 793.85,19.06 1595.32,101.02 2099.46,242.07l1.91 0c504.15,-141.05 1305.61,-223 2099.47,-242.07 53.37,-0.95 97.2,41.94 97.2,95.31z"/>
    <path class="fil8" d="M6899.6 4167.24l0 165.83 -1885.99 -0.01c-41.93,4.77 -74.34,40.03 -74.34,81.97 0,92.44 -75.29,168.67 -169.63,168.67l-135.33 0c-94.35,0 -169.63,-76.23 -169.63,-168.67 0,-41.93 -32.4,-77.19 -74.33,-81.97l-1886 0 0 -165.82 1886 0c41.93,4.77 74.33,40.03 74.33,81.97 0,93.39 75.29,169.63 169.63,169.63l135.33 0c94.35,0 169.63,-76.24 169.63,-169.63 0,-41.94 32.41,-77.19 74.34,-81.97l1885.99 0z"/>
    <path class="fil9" d="M4702.9 4010.33c-415.75,-113.41 -1509.68,-208.15 -1945.09,-237.3l-21.92 -86.72c584.7,19.49 1120.43,69.87 1544.88,144.45 48.63,8.55 75.42,-53.02 37.35,-84.46 -418.11,-345.36 -1162.42,-410.62 -1563.17,-419.28 3.81,-0.95 7.63,-0.95 12.39,-0.95 641.11,-8.4 1641.54,110.96 1935.55,684.25z"/>
    <path class="fil9" d="M6668.94 3686.31l-21.92 86.72c-484.13,32.4 -1299.89,108.65 -1752.58,194.42 -74.33,14.29 -140.09,28.59 -191.55,42.89 293.84,-572.97 1293.46,-692.67 1935.55,-684.25 4.76,0 8.58,0 12.39,0.94 -400.63,8.67 -1143.02,73.88 -1561.62,418.23 -38.16,31.39 -11.38,93.05 37.29,84.51 425.04,-74.54 960.38,-124.81 1542.42,-143.45l0 0.01z"/>
   </g>
  </g>
 </g>
</svg>
