<?xml version="1.0" encoding="UTF-8"?>
<!DOCTYPE svg PUBLIC "-//W3C//DTD SVG 1.1//EN" "http://www.w3.org/Graphics/SVG/1.1/DTD/svg11.dtd">
<!-- Creator: CorelDRAW 2020 (64-Bit) -->
<svg xmlns="http://www.w3.org/2000/svg" xml:space="preserve" width="94.1916mm" height="52.9166mm" version="1.1" style="shape-rendering:geometricPrecision; text-rendering:geometricPrecision; image-rendering:optimizeQuality; fill-rule:evenodd; clip-rule:evenodd"
viewBox="0 0 9404.92 5283.66"
 xmlns:xlink="http://www.w3.org/1999/xlink"
 xmlns:xodm="http://www.corel.com/coreldraw/odm/2003">
 <defs>
  <style type="text/css">
   <![CDATA[
    .fil5 {fill:#00524C}
    .fil4 {fill:#3AC5BE}
    .fil0 {fill:#E6E7E8}
    .fil6 {fill:#FE9204}
    .fil3 {fill:#434242;fill-rule:nonzero}
    .fil2 {fill:#373435;fill-opacity:0.031373}
    .fil1 {fill:#2B2A29;fill-opacity:0.101961}
   ]]>
  </style>
 </defs>
 <g id="Layer_x0020_1">
  <metadata id="CorelCorpID_0Corel-Layer"/>
  <polygon class="fil0" points="-0,0 9404.92,0 9404.92,5283.66 -0,5283.66 "/>
  <polygon class="fil1" points="-0,4602.95 -0,4602.35 -0,4602.33 -0,4587.22 -0,4568.4 -0,4534.63 -0,4479.43 -0,4427.31 -0,4368.97 -0,4318.63 -0,4287.07 -0,4286.21 -0,4284.81 -0,4277.65 -0,4277.64 -0,4266.8 -0,4214.86 -0,4183.05 -0,4132.36 -0,4068.46 -0,4049.11 -0,4000.16 -0,3950.76 -0,3934.57 -0,3909.37 -0,3895.92 -0,3879.99 -0,3870.46 -0,3845.58 -0,3842.58 -0,3808.61 -0,3798.76 -0,3769.86 -0,3756.31 -0,3754.68 -0,3749.98 -0,3746.52 -0,3743.34 -0,3741.77 -0,3741.12 -0,3732.92 -0,3703.9 -0,3696.62 -0,3670.48 -0,3642.34 -0,3637.22 -0,3589.36 -0,3583.27 -0,3526.89 -0,3521.09 -0,3505.36 -0,3465.68 -0,3411.11 -0,3376.03 -0,3356.56 -0,3347.37 -0,3346.76 5229.92,714.05 5226.19,715.95 5222.44,718.08 5218.62,720.47 5214.71,723.13 5210.71,726.03 5206.65,729.19 5202.51,732.56 5198.32,736.16 5194.09,739.94 5189.8,743.92 5185.5,748.07 5181.29,752.38 5177.07,756.86 5172.87,761.54 5168.65,766.42 5164.4,771.53 5160.13,776.88 5155.8,782.5 5151.43,788.38 5146.99,794.66 5142.45,801.28 5137.83,808.27 5133.08,815.65 5128.2,823.43 5123.15,831.67 5117.95,840.37 5112.56,849.56 5107.07,859.35 5101.4,869.6 5095.6,880.27 5089.67,891.28 5083.68,902.6 5077.63,914.19 5071.57,925.96 5065.53,937.87 5059.54,949.95 5053.63,962.06 5047.8,974.16 5042.08,986.19 5036.47,998.12 5030.98,1009.91 5025.62,1021.51 5020.42,1032.89 5015.38,1043.99 5010.47,1054.84 5005.67,1065.53 5000.93,1076.1 4996.21,1086.65 4991.47,1097.23 4986.68,1107.92 4981.79,1118.79 4976.71,1129.79 4971.53,1140.97 4966.33,1152.3 4961.13,1163.68 4955.96,1175.08 4950.85,1186.43 4945.85,1197.69 4941,1208.76 4936.22,1219.71 4931.59,1230.44 4927.12,1240.93 4922.8,1251.18 4918.61,1261.17 4914.58,1270.92 4910.69,1280.4 4906.93,1289.63 4903.38,1298.58 4899.88,1307.3 4896.43,1315.87 4892.98,1324.33 4889.54,1332.75 4886.04,1341.22 4882.5,1349.78 4878.85,1358.49 4875.18,1367.44 4871.33,1376.69 4867.3,1386.26 4863.08,1396.23 4858.65,1406.61 4854.02,1417.47 4849.16,1428.86 4844.06,1440.8 4838.72,1453.32 4833.18,1466.32 4827.5,1479.67 4821.71,1493.26 4815.86,1506.94 4810.01,1520.6 4804.2,1534.11 4798.47,1547.34 4792.77,1560.19 4787.18,1572.67 4781.67,1584.87 4776.21,1596.85 4770.78,1608.69 4765.34,1620.46 4759.85,1632.21 4754.32,1644.03 4748.7,1655.98 4742.99,1668.09 4737.18,1680.36 4731.29,1692.78 4725.31,1705.33 4719.24,1718.04 4713.06,1730.88 4706.81,1743.86 4700.57,1756.96 4694.28,1770.15 4687.96,1783.37 4681.61,1796.56 4675.27,1809.67 4668.95,1822.65 4662.66,1835.44 4656.42,1848 4650.25,1860.38 4644.12,1872.57 4637.97,1884.65 4631.77,1896.74 4625.45,1908.93 4618.97,1921.32 4612.27,1934.01 4605.31,1947.1 4601.66,1953.78 4597.94,1960.61 4594.1,1967.59 4590.16,1974.75 4586.08,1982.09 4581.87,1989.63 4577.51,1997.4 4572.98,2005.38 4568.28,2013.61 4563.39,2022.11 4558.31,2030.88 4553.02,2039.93 4547.5,2049.29 4541.74,2058.96 4535.74,2068.96 4529.49,2079.31 4522.98,2090.02 4516.24,2101.02 4509.32,2112.25 4502.26,2123.66 4495.11,2135.19 4487.91,2146.75 4480.69,2158.29 4473.49,2169.75 4466.37,2181.06 4459.36,2192.15 4452.5,2202.96 4445.84,2213.45 4439.41,2223.51 4433.27,2233.11 4427.45,2242.18 4421.99,2250.64 4412.3,2265.59 4403.89,2278.37 4396.47,2289.46 4389.71,2299.36 4383.31,2308.53 4376.97,2317.45 4370.36,2326.64 4363.19,2336.54 4355.21,2347.55 4346.47,2359.52 4337.11,2372.26 4327.29,2385.56 4317.14,2399.19 4306.81,2412.94 4296.44,2426.61 4286.17,2439.97 4276.21,2452.85 4266.41,2465.32 4256.66,2477.48 4246.84,2489.45 4236.87,2501.36 4226.61,2513.32 4215.97,2525.45 4204.82,2537.87 4199.03,2544.26 4193.06,2550.77 4186.92,2557.38 4180.58,2564.12 4174.04,2570.99 4167.28,2577.98 4160.28,2585.12 4153.05,2592.4 4145.57,2599.83 4137.83,2607.42 4129.8,2615.18 4121.48,2623.11 4112.86,2631.21 4103.94,2639.49 4094.68,2647.97 4085.1,2656.65 4075.17,2665.47 4064.96,2674.44 4054.53,2683.52 4043.96,2692.64 4033.31,2701.76 4022.67,2710.83 4012.09,2719.79 4001.65,2728.61 3991.42,2737.21 3981.46,2745.56 3971.86,2753.6 3962.67,2761.29 3953.97,2768.56 3945.84,2775.38 3938.34,2781.68 3931.53,2787.42 3920.23,2797.22 3911.66,2804.82 3905.51,2810.51 3901.44,2814.54 3899.14,2817.16 3898.29,2818.67 3898.55,2819.3 3899.57,2819.34 3899.61,2819.32 3901.09,2818.88 3902.99,2818.14 3905.23,2817.17 3907.76,2816.03 3910.52,2814.77 3913.44,2813.45 3916.46,2812.15 3919.52,2810.92 3922.67,2809.82 3925.83,2808.84 3928.98,2807.98 3932.15,2807.23 3935.33,2806.58 3938.52,2806.03 3941.73,2805.56 3944.96,2805.16 3948.21,2804.74 3951.53,2804.4 3954.91,2804.13 3958.36,2803.94 3961.89,2803.82 3965.51,2803.79 3969.22,2803.83 3973.04,2803.96 3976.98,2804.27 3981.04,2804.68 3985.2,2805.16 3989.41,2805.73 3993.64,2806.38 3997.87,2807.1 4002.05,2807.9 4006.14,2808.77 4010.14,2809.7 4014.04,2810.67 4017.88,2811.74 4021.65,2812.91 4025.4,2814.18 4029.12,2815.59 4032.86,2817.14 4036.62,2818.85 4040.31,2820.72 4044.03,2822.72 4047.75,2824.82 4051.47,2827.04 4055.17,2829.37 4058.86,2831.77 4062.51,2834.27 4066.13,2836.85 4069.61,2839.39 4073.02,2841.99 4076.38,2844.63 4079.68,2847.35 4082.95,2850.13 4086.17,2852.98 4089.36,2855.91 4092.52,2858.92 4095.59,2862.11 4098.65,2865.37 4101.73,2868.73 4104.83,2872.18 4107.94,2875.75 4111.09,2879.44 4114.27,2883.26 4117.49,2887.24 4120.85,2891.35 4124.26,2895.59 4127.71,2899.93 4131.19,2904.36 4134.68,2908.88 4138.17,2913.45 4141.64,2918.08 4145.07,2922.75 4148.46,2927.43 4151.81,2932.16 4155.14,2936.97 4158.48,2941.92 4161.86,2947.02 4165.28,2952.34 4168.8,2957.91 4172.42,2963.78 4176.26,2969.98 4180.18,2976.51 4184.19,2983.32 4188.23,2990.39 4192.32,2997.66 4196.42,3005.12 4200.51,3012.71 4204.58,3020.41 4208.53,3028.23 4212.49,3036.31 4216.58,3044.88 4220.87,3054.1 4225.46,3064.15 4230.46,3075.24 4235.94,3087.56 4242.01,3101.27 4245.28,3108.66 4248.7,3116.4 4252.24,3124.46 4255.89,3132.78 4259.63,3141.33 4263.44,3150.07 4267.3,3158.96 4271.19,3167.95 4275.1,3177.01 4279,3186.09 4282.89,3195.15 4286.72,3204.16 4290.49,3213.07 4294.2,3221.82 4297.79,3230.41 4301.28,3238.77 4307.86,3254.63 4313.97,3269.57 4319.68,3283.71 4324.51,3295.79 5583.13,2747.1 5589,2744.69 5594.77,2742.49 5600.44,2740.48 5606.04,2738.64 5611.6,2736.96 5617.15,2735.42 5622.68,2734 5628.24,2732.69 5633.94,2731.48 5639.72,2730.37 5645.63,2729.36 5651.72,2728.47 5658.01,2727.7 5664.57,2727.06 5671.42,2726.57 5678.62,2726.22 5686.18,2725.93 5694.04,2725.77 5702.11,2725.77 5710.3,2725.92 5718.54,2726.22 5726.75,2726.69 5734.83,2727.33 5742.7,2728.14 5750.28,2729.12 5757.59,2730.26 5764.67,2731.54 5771.55,2732.99 5778.27,2734.6 5784.87,2736.37 5791.4,2738.29 5797.88,2740.38 5804.37,2742.62 5810.93,2745.02 5817.64,2747.65 5824.55,2750.55 5831.74,2753.74 5839.29,2757.29 5847.26,2761.21 5855.71,2765.57 5864.72,2770.41 5874.22,2775.69 5884.11,2781.38 5894.32,2787.44 5904.73,2793.83 5915.26,2800.5 5925.83,2807.41 5936.33,2814.53 5946.77,2821.9 5956.98,2829.38 5966.95,2836.92 5976.62,2844.43 5985.97,2851.87 5994.95,2859.17 6003.54,2866.26 6011.69,2873.08 6019.37,2879.67 6026.64,2885.97 6033.56,2892.04 6040.21,2897.94 6046.67,2903.71 6053.02,2909.43 6059.33,2915.12 6065.68,2920.84 6072.12,2926.65 6078.7,2932.6 6085.45,2938.75 6092.44,2945.16 6099.69,2951.87 6107.24,2958.93 6115.17,2966.41 6123.5,2974.35 6132.24,2982.68 6141.3,2991.42 6150.61,3000.45 6160.09,3009.64 6169.66,3018.9 6179.25,3028.1 6188.76,3037.12 6198.13,3045.85 6207.17,3054.21 6215.92,3062.15 6224.33,3069.7 6232.34,3076.8 6239.92,3083.46 6247.02,3089.65 6253.58,3095.36 6259.55,3100.57 6264.93,3105.28 6269.75,3109.55 6274.13,3113.45 6278.15,3117.03 6281.9,3120.35 6285.46,3123.47 6288.95,3126.46 6292.42,3129.35 6295.97,3132.2 6299.54,3134.96 6303.13,3137.63 6306.7,3140.19 6310.23,3142.61 6313.68,3144.91 6317.03,3147.06 6320.25,3149.03 6323.23,3150.81 6326.04,3152.38 6328.68,3153.76 6331.15,3154.94 6333.4,3155.96 6335.47,3156.83 6337.34,3157.55 6338.97,3158.15 6340.31,3158.62 6341.42,3158.89 6342.28,3158.92 3749.55,4231.8 3749.55,4268.26 4248.43,4062.41 4194.35,4188.99 4475.63,4073.85 4472.85,4135.9 4533.9,4111.03 4537.93,4109.82 4542.61,4108.77 4547.92,4107.88 4553.89,4107.15 4560.5,4106.57 4567.74,4106.16 4575.64,4105.91 4584.18,4105.83 4644.71,4105.83 4644.71,4134.84 4716.29,4105.83 4787.37,4105.83 4794.99,4105.99 4802.23,4106.47 4809.09,4107.27 4815.58,4108.4 4821.68,4109.85 4827.42,4111.61 4830.95,4112.98 4927.92,4073.85 4927.92,4087.54 4946.83,4087.54 4953.74,4087.8 4960.22,4088.57 4966.26,4089.85 4971.86,4091.64 4977.02,4093.94 4981.74,4096.76 4986.01,4100.08 4989.85,4103.92 4992.3,4107.42 4994.42,4112.02 4996.21,4117.75 4997.67,4124.58 4998.8,4132.5 4999.05,4135.29 5104.37,4093.08 5109.57,4091.53 5115.52,4090.23 5122.21,4089.18 5129.62,4088.39 5137.8,4087.85 5146.72,4087.57 5156.38,4087.54 5000.02,4150.13 5000.09,4151.69 5000.25,4162.95 5000.25,4316.92 5644.45,4062.41 5587.3,4196.18 5630.38,4179.3 5636.12,4193.06 5940.84,4073.85 5940.84,4087.54 5959.63,4087.54 5966.55,4087.8 5973.02,4088.57 5979.04,4089.85 5984.61,4091.64 5989.74,4093.94 5994.44,4096.76 5998.71,4100.08 6002.53,4103.92 6005.03,4107.51 6007.2,4112.18 6009.03,4117.94 6010.53,4124.78 6011.7,4132.69 6011.95,4135.38 6084.78,4107.08 6092.33,4105.18 6100.11,4103.52 6108.13,4102.13 6116.38,4100.99 6124.86,4100.1 6133.57,4099.47 6142.51,4099.1 6151.69,4098.97 6168.4,4099.46 6184.09,4100.92 6198.76,4103.36 6212.39,4106.77 6225.01,4111.15 6236.59,4116.49 6247.13,4122.8 6256.65,4130.08 6265.09,4138.08 6272.4,4146.47 6278.59,4155.27 6283.67,4164.47 6287.61,4174.07 6290.43,4184.09 6292.11,4194.51 6292.68,4205.35 6292.45,4212.41 6291.78,4219.33 6290.67,4226.11 6289.09,4232.75 6287.08,4239.25 6284.62,4245.6 6281.71,4251.81 6278.36,4257.88 6274.54,4263.73 6270.32,4269.2 6265.69,4274.26 6260.67,4278.93 6255.25,4283.21 6249.43,4287.09 6243.21,4290.57 6236.6,4293.67 6135.74,4332.11 6139.44,4332.07 6144.88,4332.03 6150.53,4332.02 6163.55,4332.26 6176.04,4333 6188.01,4334.22 6199.43,4335.92 6210.33,4338.11 6220.68,4340.8 6224.11,4341.91 6279.5,4320.86 6290.4,4316.99 6224.5,4342.03 6230.5,4343.96 6239.76,4347.63 6248.46,4351.71 6256.55,4356.15 6264.02,4360.95 6270.89,4366.11 6277.14,4371.64 6282.77,4377.53 6287.78,4383.78 6292.18,4390.41 6296.07,4397.21 6299.42,4404.09 6302.26,4411.05 6304.58,4418.08 6306.37,4425.18 6307.66,4432.35 6308.42,4439.59 6308.68,4446.89 6308.13,4457.81 6306.46,4468.29 6303.7,4478.33 6299.83,4487.92 6294.85,4497.05 6288.77,4505.75 6281.58,4513.99 6273.28,4521.77 6263.93,4528.87 6253.56,4535.03 6242.18,4540.25 6139.09,4578.78 6178.6,4578.78 6189.06,4578.72 6199.18,4578.53 6208.97,4578.22 6218.41,4577.78 6227.5,4577.22 6236.26,4576.53 6244.68,4575.73 6252.75,4574.79 6260.48,4573.75 6267.87,4572.57 6274.92,4571.26 6281.62,4569.84 6287.98,4568.29 6294,4566.63 6299.68,4564.84 6305.01,4562.92 4369.41,5283.66 4253.03,5283.66 4065.99,5283.66 4062.14,5283.66 4045.65,5283.66 4031.62,5283.66 3857.87,5283.66 3840.59,5283.66 3823.72,5283.66 3745.62,5283.66 3744.96,5283.66 3690.83,5283.66 3639.37,5283.66 3600.01,5283.66 3540.65,5283.66 3515.67,5283.66 3506.84,5283.66 3478.98,5283.66 3450.08,5283.66 3373.1,5283.66 3332.26,5283.66 3267.99,5283.66 3168.7,5283.66 3110.39,5283.66 3108.18,5283.66 3077.05,5283.66 3056.4,5283.66 2977.55,5283.66 2880.1,5283.66 2848.34,5283.66 2810.94,5283.66 2774.93,5283.66 2773.47,5283.66 2741.97,5283.66 2728.6,5283.66 2553.35,5283.66 2540.83,5283.66 2525.63,5283.66 2508.12,5283.66 2373.78,5283.66 2223.6,5283.66 2200.82,5283.66 2196.72,5283.66 2191.24,5283.66 2168.1,5283.66 2167.77,5283.66 2154.88,5283.66 2150.59,5283.66 2133.45,5283.66 2076.43,5283.66 1968.5,5283.66 1960.74,5283.66 1929.95,5283.66 1899.19,5283.66 1899.14,5283.66 1852.55,5283.66 1809.63,5283.66 1793.18,5283.66 1780.29,5283.66 1744.57,5283.66 1731.47,5283.66 1714.7,5283.66 1655.43,5283.66 1546,5283.66 1534.82,5283.66 1519.87,5283.66 1382.78,5283.66 1302.96,5283.66 1301.87,5283.66 1288.72,5283.66 1256.22,5283.66 1207.62,5283.66 1203.25,5283.66 1168.77,5283.66 1105.12,5283.66 1018.92,5283.66 856.97,5283.66 692.78,5283.66 687.25,5283.66 660.98,5283.66 651.98,5283.66 615.59,5283.66 598.45,5283.66 567.85,5283.66 553.93,5283.66 498.26,5283.66 430.87,5283.66 370.18,5283.66 360.09,5283.66 264.83,5283.66 184.37,5283.66 93.5,5283.66 89.52,5283.66 24.04,5283.66 -0,5283.66 -0,5252.7 -0,5232.59 -0,5222.84 -0,5198.24 -0,5185.42 -0,5181.07 -0,5175.6 -0,5157.61 -0,5123.07 -0,4981.68 -0,4897.27 -0,4835.73 -0,4789.47 -0,4747.84 -0,4713.42 -0,4683.82 -0,4656.47 -0,4635.59 -0,4618.23 -0,4608.07 "/>
  <path class="fil2" d="M578.49 4627.69c17.95,27.21 29.6,53.36 40.96,82.43 8.45,16.91 12.93,48.09 52.57,48.09 11.61,0 28.28,-3.42 43.06,-11.61 16.63,-8.73 29.32,-21.94 35.94,-42l15.85 -53.36 38.57 -19.02 2.64 2.64c-5.27,20.09 -6.59,39.36 -6.59,54.43 0,44.63 38.57,61.56 69.22,61.56 17.95,0 34.09,-8.73 34.09,-25.11 0,-21.13 -8.98,-57.06 -20.62,-89.29 17.95,-17.95 35.94,-35.94 56.53,-50.47l3.17 1.6c8.98,38.04 14,75.56 14,100.66 0,24.57 -10.83,51.79 -19.81,69.49 -18.49,34.87 -51.25,62.62 -90.87,62.62 -30.1,0 -63.65,-15.07 -86.66,-43.06l-1.32 0c-21.66,26.96 -55.22,51.25 -108.86,51.25l-16.63 0c-2.64,35.41 -10.29,60.49 -21.94,82.95 -31.95,62.34 -126.81,106.47 -216.1,106.47 -124.17,0 -186.51,-71.59 -186.51,-166.96 0,-58.91 19.27,-113.6 48.88,-152.42l24.29 10.04c-18.49,35.41 -30.91,68.68 -30.91,101.45 0,89.29 72.66,131.83 156.4,131.83 77.68,0 173.83,-49.41 191.28,-106.72 -6.59,-62.62 -30.1,-91.93 -66.04,-148.99 10.83,-19.02 24.83,-38.04 42.28,-58.38l3.17 0 0 0 0 0 -0.02 -0.09zm1432.13 -336.04c26.15,16.39 51.79,35.66 76.87,57.85 -14,19.81 -31.45,37.79 -53.11,53.64 -25.11,-20.34 -50.19,-37.79 -75.84,-56.27 17.42,-19.55 34.62,-38.29 52.04,-55.22l0 0 0 0 0 0 0 0 0 0 0.03 0zm13.47 244.11c-42.28,0 -76.87,27.75 -76.87,48.34 0,44.13 84.53,57.85 185.72,57.31 -12.68,-51.79 -57.06,-105.68 -108.86,-105.68l0.01 0.03zm-94.86 236.19c54.96,0 103.04,-1.6 139.74,-10.83 40.96,-10.29 75.56,-30.91 75.56,-45.17 0,-3.7 0,-8.19 -1.32,-11.89 -22.98,2.11 -49.41,2.11 -72.38,2.11 -74.49,0 -131.55,-16.91 -154.02,-58.66 -5.55,-11.61 -9.51,-24.57 -9.51,-39.36 0,-40.43 17.42,-79.79 48.09,-107 25.61,-22.45 53.89,-36.44 82.67,-36.44 52.04,0 93.51,41.75 122.57,107.54 15.85,35.94 26.68,77.4 26.68,129.72 0,34.87 -9.51,64.19 -31.17,85.85 -40.43,39.11 -114.92,53.89 -229.04,53.89l-51.79 0 0 0 -13.47 0c-28.28,0 -48.62,-5.02 -64.72,-17.42l-2.64 0c0.79,6.59 1.32,12.93 1.32,19.02 0,25.61 -8.45,58.38 -25.61,84.53 -50.72,75.3 -105.68,108.04 -153.24,108.04 -48.09,0 -107,-18.49 -160.11,-42.54l9.51 -18.49c17.17,7.13 40.96,11.89 73.7,11.89 85.85,0 198.66,-82.43 212.66,-163 -3.17,-6.59 -8.98,-15.32 -17.17,-24.57 -25.11,-29.85 -40.96,-54.68 -55.75,-80.83 12.68,-25.11 24.29,-45.17 35.13,-63.4l4.49 -0.53c36.72,74.77 69.99,117.55 144.23,117.55l11.61 0 0 0 53.89 0 0 0 0 0 0 0 0 0 0 0 0.09 0.01zm-371.98 79c6.34,-34.34 6.87,-72.91 6.87,-108.86l0 -53.36c0,-99.6 -12.68,-244.36 -22.98,-338.68 17.95,-19.27 43.06,-42 62.87,-57.31l5.81 1.6c13.47,118.62 16.63,256 16.63,383.06 0,33.3 -1.32,65.79 -4.49,89.55 -1.85,30.1 -19.27,52.83 -56.53,87.7l-8.19 -3.7zm-382.8 -157.19c1.85,46.77 24.83,83.49 105.15,83.49 49.93,0 92.19,-12.93 138.96,-35.13 8.45,-3.7 12.93,-8.73 12.93,-12.93 0,-29.32 -22.45,-68.15 -60.23,-103.55 -36.72,-33.3 -85.34,-62.62 -130.76,-82.18 -15.6,-6.59 -20.62,-13.47 -20.62,-20.09 0,-13.47 17.95,-41.75 32.77,-62.09l5.02 -0.53c52.04,27.21 110.17,67.64 153.24,112.53 39.11,41.47 63.4,83.49 63.4,129.19 0,33.81 -10.29,65.51 -26.96,95.11 -57.06,28.79 -117.83,50.72 -178.06,50.72 -73.17,0 -123.1,-34.34 -123.1,-114.92 0,-8.73 0,-22.19 3.17,-39.64l25.11 0 0 0 0 0 0 0 0 0 0 0 -0.02 0zm-132.37 -132.9l45.45 73.45c16.63,27.21 32.23,56.81 32.23,103.55l0 59.7c0,48.34 -30.91,100.13 -80.83,151.38 -39.11,34.62 -73.7,49.41 -105.68,49.41 -47.55,0 -101.98,-14.79 -164.85,-41.75l7.13 -18.49c19.81,5.27 42.79,9.77 71.06,9.77 90.36,-0.53 182.8,-66.57 225.08,-147.15 5.02,-9.26 6.87,-17.95 6.87,-24.04 0,-9.26 -5.02,-19.55 -8.98,-28.79 -22.98,-43.31 -48.62,-82.95 -76.87,-119.68 14.79,-23.25 29.6,-45.7 45.7,-67.9l3.7 0.53 0 0 0 0 0 0 0 0 0 0 -0.02 0.01z"/>
  <g id="_2682031556864">
   <path class="fil3" d="M3448.54 4578.78l-284.33 -619.57 0 491.85c0,45.34 5,73.67 14.8,84.97 13.53,15.19 35.02,22.77 64.45,22.77l26.26 0 0 19.99 -258.78 0 0 -19.99 26.46 0c31.49,0 53.7,-9.45 67.03,-28.33 7.94,-11.66 12.02,-38.12 12.02,-79.41l0 -480.94c0,-32.56 -3.69,-56.24 -10.91,-70.68 -5.19,-10.55 -14.63,-19.27 -28.32,-26.49 -13.89,-7.03 -35.94,-10.55 -66.28,-10.55l0 -19.99 211.02 0 265.45 575.7 263.06 -575.7 208.99 0 0 19.99 -25.74 0c-32.01,0 -54.42,9.44 -67.75,28.32 -7.97,11.66 -12.02,38.15 -12.02,79.41l0 480.94c0,45.34 5.16,73.67 15.35,84.97 13.53,15.19 34.99,22.77 64.42,22.77l25.74 0 0 19.99 -315.42 0 0 -19.99 26.46 0c31.84,0 54.06,-9.45 67,-28.33 7.97,-11.66 12.05,-38.12 12.05,-79.41l0 -491.85 -283.24 619.57 -17.77 0zm882.27 -168.32l-195.61 0 -33.77 79.07c-8.36,19.55 -12.69,34.3 -12.69,43.93 0,7.61 3.69,14.47 11.05,20.29 7.22,5.72 23.11,9.53 47.34,11.3l0 13.72 -159.18 0 0 -13.72c21.08,-3.66 34.65,-8.5 40.87,-14.47 12.72,-11.93 26.66,-36.18 42.05,-72.6l177.56 -415.58 12.58 0 175.53 420.02c14.11,33.76 26.91,55.62 38.45,65.75 11.55,10.01 27.55,15.63 48.24,16.87l0 13.72 -199.03 0 0 -13.72c20.07,-1 33.65,-4.3 40.76,-10.02 7.11,-5.71 10.52,-12.68 10.52,-20.93 0,-10.91 -4.94,-28.19 -14.86,-51.79l-29.81 -71.85zm-11.41 -27.41l-85.05 -203.75 -87.33 203.75 172.38 0zm569.01 -309.2l5.33 118.67 -14.08 0c-2.81,-20.83 -6.47,-35.8 -11.16,-44.67 -7.75,-14.36 -17.9,-25.02 -30.73,-31.74 -12.8,-6.86 -29.58,-10.27 -50.39,-10.27l-71.08 0 0 385.37c0,31.1 3.3,50.51 10.04,58.25 9.39,10.41 23.85,15.61 43.4,15.61l17.38 0 0 13.72 -214.77 0 0 -13.72 18.16 0c21.57,0 36.81,-6.47 45.95,-19.41 5.47,-7.99 8.25,-26.15 8.25,-54.45l0 -385.37 -60.53 0c-23.63,0 -40.38,1.78 -50.28,5.19 -12.94,4.69 -23.85,13.72 -33.13,27.16 -9.14,13.33 -14.61,31.48 -16.39,54.34l-14.08 0 5.33 -118.67 412.78 0zm461.42 365.54l12.19 2.67 -43.4 136.72 -390.7 0 0 -13.72 18.91 0c21.33,0 36.54,-6.86 45.67,-20.68 5.22,-7.86 7.75,-26.16 7.75,-54.71l0 -326.73c0,-31.48 -3.41,-51.17 -10.4,-59.03 -9.64,-10.91 -23.99,-16.38 -43.01,-16.38l-18.91 0 0 -13.69 228.46 0 0 13.69c-26.77,-0.25 -45.56,2.17 -56.47,7.36 -10.8,5.07 -18.16,11.68 -22.08,19.43 -3.94,7.86 -5.97,26.66 -5.97,56.22l0 318.34c0,20.72 2.03,34.8 5.97,42.55 2.92,5.33 7.61,9.14 13.83,11.66 6.08,2.42 25.51,3.68 58.14,3.68l36.78 0c38.85,0 66,-2.8 81.64,-8.49 15.61,-5.72 29.96,-15.89 42.9,-30.35 12.83,-14.47 25.77,-37.31 38.71,-68.56zm377.01 -28.93l-195.61 0 -33.76 79.07c-8.36,19.55 -12.69,34.3 -12.69,43.93 0,7.61 3.69,14.47 11.05,20.29 7.22,5.72 23.1,9.53 47.34,11.3l0 13.72 -159.19 0 0 -13.72c21.08,-3.66 34.66,-8.5 40.88,-14.47 12.71,-11.93 26.65,-36.18 42.04,-72.6l177.56 -415.58 12.58 0 175.53 420.02c14.11,33.76 26.91,55.62 38.46,65.75 11.55,10.01 27.54,15.63 48.23,16.87l0 13.72 -199.03 0 0 -13.72c20.08,-1 33.66,-4.3 40.76,-10.02 7.11,-5.71 10.52,-12.68 10.52,-20.93 0,-10.91 -4.94,-28.19 -14.85,-51.79l-29.82 -71.85zm-11.41 -27.41l-85.05 -203.75 -87.32 203.75 172.37 0zm564.08 -62.2c34.9,7.47 61.06,19.3 78.41,35.79 23.98,22.86 36.07,50.76 36.07,83.77 0,25.13 -7.89,49.26 -23.74,72.22 -15.88,23 -37.53,39.73 -65.22,50.28 -27.54,10.52 -69.69,15.86 -126.42,15.86l-237.76 0 0 -13.72 18.79 0c20.94,0 35.94,-6.72 45.07,-20.04 5.69,-8.64 8.5,-27.16 8.5,-55.35l0 -326.73c0,-31.23 -3.55,-50.89 -10.66,-59.03 -9.64,-10.91 -23.85,-16.38 -42.91,-16.38l-18.79 0 0 -13.69 217.57 0c40.63,0 73.11,2.92 97.6,8.89 37.2,9 65.5,24.73 85.05,47.45 19.52,22.74 29.29,48.76 29.29,78.33 0,25.26 -7.6,47.84 -22.94,67.92 -15.35,19.9 -37.95,34.76 -67.91,44.42zm-194.73 -20.69c9.16,1.78 19.68,3.03 31.37,3.91 11.8,0.89 24.74,1.28 38.82,1.28 36.18,0 63.47,-3.94 81.63,-11.69 18.16,-7.72 32.1,-19.65 41.77,-35.79 9.52,-16 14.32,-33.51 14.32,-52.53 0,-29.47 -12.04,-54.48 -36.04,-75.28 -23.99,-20.69 -59.03,-31.1 -104.96,-31.1 -24.76,0 -47.09,2.67 -66.91,8.11l0 193.09zm0 241.93c28.82,6.71 57.39,10.01 85.43,10.01 45.07,0 79.47,-10.15 103.07,-30.34 23.59,-20.16 35.4,-45.17 35.4,-74.89 0,-19.55 -5.44,-38.45 -16.5,-56.47 -10.9,-18.16 -28.43,-32.38 -52.42,-42.79 -23.98,-10.41 -53.81,-15.61 -89.23,-15.61 -15.36,0 -28.44,0.25 -39.35,0.75 -10.91,0.53 -19.66,1.42 -26.4,2.56l0 206.78z"/>
   <g>
    <path class="fil4" d="M3974.23 1988.12l373.84 293.23c-114.46,181.87 -294.17,362.32 -539.89,541.09l-746.49 -465.28 912.54 -369.04z"/>
    <path class="fil5" d="M4382.86 2221.36c14.4,-20.64 40.79,-63.34 62.4,-99.1 21.59,-36 38.39,-65.03 54.71,-94.3 16.32,-29.28 32.39,-58.79 47.51,-88.07 15.36,-29.28 29.99,-58.3 46.31,-90.7 16.08,-32.15 34.07,-67.91 47.99,-95.98 13.92,-28.08 23.75,-48.47 34.8,-71.5 11.04,-23.27 23.27,-49.44 35.52,-75.36 12.48,-26.15 25.2,-52.06 37.43,-79.42 12.23,-27.36 24.23,-55.92 38.62,-88.55 14.41,-32.87 31.19,-69.83 47.03,-105.82 15.6,-36 30.23,-70.78 44.63,-104.86 14.4,-34.08 28.56,-66.96 43.19,-100.79 14.64,-33.84 29.75,-68.15 34.8,-82.06 5.04,-13.93 -0.24,-7.21 -18.23,21.35 -18,28.57 -48.71,78.95 -72.23,116.38 -23.75,37.42 -40.07,61.91 -55.43,83.73 -15.36,21.84 -29.75,41.04 -45.83,61.67 -15.84,20.4 -33.59,42.47 -54.47,65.99 -20.88,23.27 -44.88,47.75 -63.83,65.27 -18.71,17.51 -32.38,27.83 -49.9,40.31 -17.75,12.47 -39.35,26.87 -56.62,37.19 -17.03,10.55 -29.99,17.03 -43.43,22.32 -13.43,5.27 -27.35,9.6 -41.27,14.16 -13.92,4.8 -27.6,10.07 -39.35,14.15 -11.76,4.08 -21.12,6.96 -30.95,10.56 -9.84,3.59 -19.92,7.92 -32.39,15.36 -12.72,7.44 -27.36,17.99 -45.83,31.92 -18.71,13.92 -40.79,30.95 -69.35,56.86 -28.8,25.92 -64.31,60.72 -91.42,89.26 -27.12,28.31 -45.6,50.38 -64.55,73.91 -18.95,23.26 -38.39,48.22 -50.14,63.82 -11.76,15.6 -16.08,22.08 -18.23,27.11 -2.4,4.8 -2.65,8.41 3.12,13.93 5.76,5.51 17.52,13.19 38.4,29.03 20.87,15.84 51.11,39.59 90.45,69.82 39.36,29.99 87.83,66.47 125.02,95.27 36.94,28.8 62.86,49.9 76.06,61.19 13.44,11.51 14.4,13.19 14.88,13.92 0.48,0.72 0.48,0 1.92,0.72 1.44,0.48 4.07,1.92 18.71,-18.72l-0.02 0.02z"/>
    <path class="fil6" d="M3899.61 2819.32c3.35,-0.72 11.76,-5.27 19.91,-8.4 8.41,-3.13 16.8,-4.8 25.44,-5.76 8.63,-1.2 17.75,-1.68 28.08,-1.2 10.31,0.72 22.32,2.4 33.11,4.8 10.79,2.4 20.4,5.28 30.47,10.08 9.84,4.8 19.92,11.04 29.52,17.99 9.36,6.72 17.99,13.92 26.39,22.08 8.16,8.4 16.33,17.51 24.96,28.32 8.88,10.79 18.47,23.04 27.59,35.51 9.12,12.48 17.52,24.95 27.35,41.04 10.08,16.08 21.36,36 32.16,56.62 10.55,20.64 20.39,42.24 37.42,80.87 17.03,38.39 41.04,93.58 59.27,137.49 18.23,43.66 30.71,76.06 43.43,107.98 12.72,31.91 25.43,63.34 36.47,90.22 11.04,26.63 20.39,48.71 31.19,71.5 11.04,22.8 23.51,46.08 34.31,66.71 10.8,20.64 19.68,38.87 28.8,54.23 8.89,15.36 17.75,28.08 23.75,34.8 6,6.72 8.89,7.44 16.8,5.52 7.92,-1.92 20.87,-6.24 41.03,-14.64 20.16,-8.4 47.28,-20.4 82.07,-39.84 34.8,-19.43 77.02,-45.83 108.7,-67.43 31.44,-21.6 52.55,-38.15 72.71,-55.43 20.4,-17.28 39.59,-35.28 69.35,-63.34 29.75,-27.84 69.58,-66.23 101.99,-99.11 32.39,-32.87 57.1,-60.23 84.7,-91.42 27.6,-30.95 57.82,-65.5 80.14,-89.97 22.08,-24.71 36.24,-39.59 62.4,-67.91 25.92,-28.08 63.82,-69.58 89.03,-97.65 25.2,-28.08 37.67,-43.2 63.59,-69.36 25.91,-26.15 65.27,-63.58 94.55,-89.03 29.27,-25.67 48.47,-39.35 66.46,-50.62 18,-11.28 34.8,-20.16 50.39,-26.88 15.84,-6.72 30.23,-11.04 45.11,-14.41 15.12,-3.35 30.7,-5.75 50.38,-6.47 19.68,-0.97 43.43,-0.48 64.07,1.92 20.64,2.4 37.91,6.47 55.19,12.24 17.28,5.75 34.56,12.95 57.83,25.19 23.26,12.24 52.79,29.75 80.62,48.96 28.08,19.43 54.23,40.79 75.36,58.55 21.11,17.99 36.94,32.39 53.99,47.76 17.03,15.35 35.04,31.67 57.82,53.51 22.8,21.59 49.9,48.71 74.63,71.5 24.47,22.8 46.31,41.52 61.43,54.72 15.12,13.19 23.51,21.11 32.87,28.79 9.37,7.69 19.43,14.64 27.83,19.68 8.16,5.04 14.64,7.68 18.72,9.12 3.83,1.45 5.52,1.45 3.13,-4.8 -2.4,-6.24 -8.64,-18.71 -16.55,-36.47 -7.92,-18 -17.52,-41.27 -32.16,-75.11 -14.4,-33.83 -33.83,-78.23 -53.51,-124.77 -19.43,-46.31 -39.35,-94.79 -54.47,-134.38 -15.12,-39.35 -25.68,-70.3 -35.52,-98.14 -10.07,-27.83 -19.91,-53.03 -30.47,-81.59 -10.56,-28.31 -21.84,-60.47 -31.92,-89.97 -10.31,-29.52 -19.19,-56.62 -30.47,-89.5 -11.27,-32.87 -24.95,-71.51 -36.47,-105.35 -11.27,-33.83 -20.39,-62.85 -34.8,-105.57 -14.15,-42.72 -33.59,-99.11 -46.79,-137.25 -13.44,-38.16 -20.64,-58.31 -28.31,-79.18 -7.69,-20.88 -15.84,-42.24 -22.8,-62.15 -6.96,-19.68 -12.72,-37.43 -23.04,-70.78 -10.56,-33.12 -26.15,-81.83 -44.88,-137.73 -18.71,-55.92 -40.79,-119.26 -58.55,-169.17 -17.74,-49.9 -30.95,-86.38 -46.55,-127.65 -15.6,-41.52 -33.12,-87.83 -49.67,-131.26 -16.79,-43.43 -32.39,-83.98 -59.98,-145.41 -27.6,-61.67 -67.44,-144.22 -93.82,-196.52 -26.64,-52.31 -40.08,-74.39 -55.92,-97.18 -15.6,-22.79 -33.83,-46.07 -47.75,-63.58 -14.16,-17.51 -24,-29.04 -34.32,-39.11 -10.31,-9.84 -20.88,-17.99 -30.47,-25.2 -9.84,-7.2 -18.48,-13.44 -27.11,-17.75 -8.64,-4.31 -17.52,-6.72 -28.8,-7.43 -11.51,-0.72 -25.68,0.23 -37.19,2.4 -11.76,2.4 -20.88,6.23 -31.19,12.95 -10.31,6.72 -21.6,16.33 -33.12,27.6 -11.27,11.28 -22.32,24.23 -34.07,40.31 -11.75,16.32 -24.23,36 -38.87,61.19 -14.4,25.43 -30.95,56.38 -47.03,88.31 -16.08,32.15 -31.43,65.02 -45.11,95.02 -13.67,29.99 -25.43,56.62 -38.63,85.9 -13.43,29.03 -28.07,60.71 -40.79,89.97 -12.95,29.52 -24.23,56.63 -34.07,80.87 -9.6,24.23 -18.23,45.34 -28.08,68.87 -9.6,23.51 -20.87,49.66 -34.8,82.31 -13.92,32.63 -30.47,71.74 -45.59,106.54 -15.36,34.8 -29.28,65.02 -44.14,96.69 -14.88,31.67 -30.71,65.03 -47.51,99.83 -16.55,34.79 -33.84,71.02 -50.39,104.14 -16.55,33.35 -32.15,63.58 -51.11,99.1 -19.19,35.28 -41.75,76.06 -75.82,132.21 -34.08,56.15 -79.43,127.9 -107.51,171.33 -27.83,43.19 -38.63,58.07 -58.79,85.9 -20.16,27.84 -49.9,68.39 -77.02,103.42 -26.88,35.03 -50.87,64.3 -81.35,97.9 -30.47,33.83 -67.67,71.99 -119.73,118.78 -52.07,46.56 -119.26,101.74 -153.57,130.77 -34.08,29.28 -35.52,32.39 -31.92,31.92l0 -0.02z"/>
   </g>
  </g>
 </g>
</svg>
