<?xml version="1.0" encoding="UTF-8"?>
<!DOCTYPE svg PUBLIC "-//W3C//DTD SVG 1.0//EN" "http://www.w3.org/TR/2001/REC-SVG-20010904/DTD/svg10.dtd">
<!-- Creator: CorelDRAW 2017 -->
<svg xmlns="http://www.w3.org/2000/svg" xml:space="preserve" width="356px" height="200px" version="1.0" shape-rendering="geometricPrecision" text-rendering="geometricPrecision" image-rendering="optimizeQuality" fill-rule="evenodd" clip-rule="evenodd" viewBox="0 0 35600 20025" xmlns:xlink="http://www.w3.org/1999/xlink">
 <g id="Layer_x0020_1">
  <metadata id="CorelCorpID_0Corel-Layer"/>
  <g id="_2095958262640">
   <path fill="#E6E7E8" d="M0 0l35600 0 0 20025 -35600 0 0 -20025z"/>
   <path fill="#373435" fill-opacity="0.031373" d="M2102 17538c67,103 111,202 155,311 31,64 48,183 198,183 44,0 107,-14 163,-45 63,-33 111,-82 135,-159l61 -201 145 -72 10 10c-19,76 -24,148 -24,206 0,169 145,233 262,233 68,0 128,-33 128,-95 0,-81 -34,-216 -78,-338 68,-68 136,-136 214,-191l12 6c34,144 53,286 53,381 0,92 -41,195 -75,263 -70,132 -194,237 -344,237 -114,0 -240,-57 -327,-163l-5 0c-83,101 -209,194 -412,194l-63 0c-10,134 -39,229 -82,313 -122,237 -480,404 -817,404 -470,0 -705,-272 -705,-632 0,-223 72,-431 184,-577l92 37c-70,134 -116,261 -116,385 0,338 274,499 591,499 293,0 657,-188 722,-404 -24,-237 -114,-348 -250,-565 42,-72 95,-144 160,-220l13 0 0 0zm5414 -1273c99,62 196,136 290,221 -53,74 -118,142 -201,201 -94,-76 -189,-142 -286,-212 66,-74 131,-146 197,-210zm51 925c-160,0 -291,105 -291,183 0,167 320,219 702,217 -48,-196 -215,-400 -411,-400zm-359 894c208,0 390,-6 528,-41 155,-39 286,-118 286,-171 0,-15 0,-31 -5,-46 -87,9 -186,9 -274,9 -281,0 -496,-64 -581,-223 -22,-43 -36,-93 -36,-148 0,-153 65,-303 181,-406 97,-84 204,-138 313,-138 196,0 354,159 463,408 60,136 101,292 101,490 0,132 -36,243 -118,326 -153,148 -434,204 -865,204l-197 0 0 0 -51 0c-106,0 -184,-19 -244,-66l-10 0c2,24 5,49 5,72 0,97 -32,220 -97,319 -192,286 -400,410 -579,410 -182,0 -405,-70 -606,-161l36 -70c66,27 155,45 279,45 325,0 751,-313 804,-617 -12,-25 -33,-58 -65,-93 -94,-113 -155,-208 -211,-307 49,-95 92,-171 134,-239l16 -2c139,282 265,445 546,445l43 0 0 0 204 0 0 0zm-1406 299c24,-130 26,-276 26,-412l0 -202c0,-377 -48,-925 -87,-1281 68,-75 163,-161 238,-219l21 6c51,449 64,971 64,1450 0,126 -5,250 -17,340 -8,114 -73,200 -214,332l-31 -14 0 0zm-1447 -596c7,177 94,317 397,317 189,0 349,-49 526,-133 31,-15 48,-33 48,-50 0,-111 -84,-257 -228,-391 -138,-126 -322,-237 -494,-311 -58,-25 -77,-52 -77,-76 0,-52 68,-159 123,-235l20 -2c196,103 416,255 579,426 148,157 240,315 240,488 0,128 -39,250 -102,361 -216,109 -446,191 -674,191 -276,0 -465,-129 -465,-434 0,-33 0,-85 12,-151l95 0 0 0zm-500 -502l172 278c63,103 121,214 121,391l0 227c0,183 -117,379 -306,572 -147,132 -278,188 -399,188 -180,0 -386,-56 -623,-159l26 -70c76,21 163,37 270,37 341,-2 690,-251 850,-556 19,-35 27,-68 27,-91 0,-35 -20,-74 -34,-109 -87,-165 -184,-315 -291,-453 56,-88 111,-173 172,-257l15 2 0 0z"/>
   <path fill="#373435" fill-opacity="0.078431" d="M21886 5383l-6954 7153 221 671 6836 -1898 -3808 3917 7 0 31 4 30 5 27 8 13 5 1014 -1043 0 1406 535 -550 -60 65 -475 489 0 319 593 -610 20 -19 21 -17 23 -15 24 -14 25 -12 25 -10 27 -8 27 -6 28 -5 28 -2 30 -1 26 0 24 3 23 3 23 5 21 6 20 8 19 9 18 11 17 11 15 13 2 2 1051 -1081 0 1327 0 101 2 82 1469 -1510 0 1375 -1 71 -1 66 -2 61 -2 55 -3 50 -4 45 -2 22 1032 -1061 0 702 517 -532 -26 29 -25 32 -22 33 -444 457 0 349 613 -630 31 -28 33 -23 36 -19 37 -15 39 -10 41 -7 42 -2 41 2 40 7 37 10 36 15 34 20 33 23 31 28 29 33 26 37 23 41 20 46 16 50 12 55 9 60 5 64 2 69 -2 73 -5 68 -8 63 -12 57 -16 52 -19 47 -22 41 -26 37 -28 31 -406 417 8 4 31 14 31 12 33 10 33 8 35 7 35 5 36 2 36 1 77 -4 75 -11 71 -20 68 -27 65 -35 63 -44 59 -50 -3386 3482 -196 0 -435 0 -40 0 -401 0 -974 0 -219 0 -120 0 -19 0 -555 0 -127 0 -1223 0 -459 0 -16 0 -694 0 -475 0 -286 0 -433 0 -16 0 -310 0 -3 0 -282 0 -137 0 -119 0 -387 0 -270 0 -172 0 -130 0 -191 0 -602 0 -301 0 -212 0 -114 0 -241 0 -234 0 -2 0 -78 0 -139 0 -149 0 -153 0 -65 0 -129 0 -136 0 -105 0 -408 0 -68 0 -582 0 -25 0 -475 0 -95 0 -487 0 -77 0 -60 0 -99 0 -638 0 -27 0 -13 0 -164 0 -539 0 -59 0 -157 0 -270 0 -272 0 -251 0 -88 0 -397 0 -51 0 -301 0 -325 0 -87 0 0 0 -272 0 -1225 0 0 0 -229 0 -19 0 -1718 0 0 0 -656 0 -530 0 0 -2032 0 -1197 12927 -13296 160 1033 523 -538 182 -23 181 -24 181 -23 181 -24 180 -23 180 -24 180 -23 180 -23 179 -23 178 -24 179 -23 178 -23 177 -23 178 -23 176 -23 177 -23 173 -22 174 -23 172 -22 173 -22 172 -23 172 -22 172 -22 171 -23 171 -22 171 -22 170 -22 170 -22 170 -22 169 -22 169 -22 169 -22 143 114 146 115 147 116 150 119 152 120 154 123 157 124 159 125 86 68 86 69 87 69 88 70 89 70 89 71 91 72 91 72 92 72 92 74 93 74 94 74 95 75 96 76 97 76 97 77z"/>
   <g>
    <g>
     <path fill="#DB0909" d="M13792 9081l1361 4126 6836 -1898 684 -6027 -3287 -2630 -6459 848 865 5581 0 0z"/>
     <path fill="#FEFEFE" d="M14947 9433c326,-70 647,-138 964,-206 314,-67 624,-133 930,-199 80,150 162,305 247,465 89,165 180,337 275,514 -337,80 -677,160 -1023,241 -350,83 -705,167 -1064,252 -60,-194 -118,-382 -174,-562 -53,-174 -105,-343 -155,-505l0 0zm-1038 -4541c953,-131 1891,-260 2815,-387l1254 -172 577 560c301,293 617,600 950,924 311,-57 650,-119 1021,-186 408,-75 859,-157 1360,-248 -521,-412 -1008,-798 -1463,-1159 -427,-338 -829,-656 -1208,-956 -899,116 -1812,235 -2738,355 -940,122 -1897,246 -2867,372 51,152 101,302 151,452 50,149 99,298 148,445l0 0zm346 1691c724,-125 1412,-244 2064,-356 618,-107 1209,-209 1771,-306 210,255 429,520 658,797 239,290 490,592 752,909 -499,112 -937,210 -1324,297 -346,78 -657,147 -937,210 -149,-234 -294,-460 -434,-680l-170 -266 -46 10c-621,133 -1274,273 -1961,420 -60,-166 -121,-336 -183,-507 -62,-173 -126,-349 -190,-528l0 0z"/>
    </g>
    <path fill="#4B4B4D" fill-rule="nonzero" d="M9924 15884l489 -48c30,163 89,283 178,360 90,77 211,115 363,115 161,0 282,-34 363,-102 82,-69 123,-148 123,-240 0,-59 -17,-108 -51,-150 -34,-41 -95,-77 -180,-107 -59,-21 -192,-57 -400,-109 -267,-67 -455,-149 -563,-247 -153,-137 -228,-304 -228,-501 0,-127 36,-246 107,-356 71,-111 174,-194 309,-252 135,-58 297,-87 487,-87 311,0 545,69 702,207 157,138 239,322 247,553l-503 17c-21,-128 -67,-220 -137,-276 -70,-56 -175,-85 -315,-85 -144,0 -258,30 -339,91 -53,38 -79,90 -79,155 0,59 24,109 74,150 63,54 216,110 460,168 243,57 423,117 539,178 117,62 208,146 274,253 66,107 99,239 99,395 0,143 -39,276 -118,400 -80,125 -191,217 -336,277 -144,61 -325,91 -540,91 -314,0 -555,-72 -724,-217 -168,-145 -268,-356 -301,-633zm2425 805l0 -2484 475 0 0 1318 557 -634 586 0 -614 658 660 1142 -514 0 -454 -812 -221 236 0 576 -475 0zm2988 -569l475 80c-61,174 -157,306 -289,398 -131,91 -296,136 -493,136 -313,0 -545,-102 -695,-307 -118,-164 -178,-371 -178,-621 0,-299 78,-533 234,-702 155,-169 352,-254 591,-254 267,0 478,89 633,266 154,177 228,448 221,813l-1190 0c4,142 42,251 115,330 73,79 165,118 273,118 75,0 137,-20 188,-61 50,-40 89,-106 115,-196zm27 -482c-3,-138 -38,-243 -106,-315 -68,-72 -150,-108 -247,-108 -103,0 -189,38 -257,114 -67,75 -100,179 -99,309l709 0zm1684 -749l0 378 -327 0 0 729c0,148 3,234 10,258 6,25 20,45 42,61 22,16 49,24 81,24 44,0 108,-15 192,-46l40 370c-111,48 -236,71 -376,71 -85,0 -162,-14 -231,-43 -69,-29 -119,-67 -151,-112 -32,-47 -54,-108 -67,-187 -10,-56 -15,-168 -15,-337l0 -788 -218 0 0 -378 218 0 0 -358 475 -281 0 639 327 0zm1901 534l-469 83c-15,-93 -51,-163 -107,-210 -56,-47 -129,-71 -218,-71 -118,0 -213,41 -284,123 -70,82 -105,219 -105,412 0,214 36,365 107,453 72,89 168,133 288,133 90,0 164,-26 222,-78 57,-51 98,-140 122,-266l468 80c-49,215 -142,378 -279,488 -138,109 -322,164 -554,164 -263,0 -473,-83 -629,-249 -156,-166 -234,-397 -234,-691 0,-298 78,-529 235,-695 157,-166 369,-249 636,-249 219,0 393,48 523,142 128,94 221,238 278,431zm829 -1218l0 921c155,-184 340,-276 554,-276 111,0 210,21 299,61 88,41 155,93 200,156 45,63 75,133 92,210 16,77 25,196 25,358l0 1054 -476 0 0 -949c0,-189 -9,-308 -27,-359 -18,-51 -51,-92 -97,-121 -46,-30 -104,-45 -174,-45 -80,0 -151,19 -214,58 -63,38 -109,96 -138,173 -29,77 -44,191 -44,342l0 901 -475 0 0 -2484 475 0zm1655 0l503 0 0 1346c0,214 6,352 18,415 22,102 72,184 152,246 80,61 189,92 328,92 141,0 247,-29 319,-87 71,-59 114,-130 129,-215 14,-85 22,-225 22,-422l0 -1375 503 0 0 1306c0,299 -14,510 -41,633 -27,123 -77,227 -150,312 -72,85 -169,152 -290,203 -122,50 -281,75 -477,75 -236,0 -416,-27 -538,-82 -122,-55 -218,-126 -289,-214 -71,-88 -118,-179 -140,-276 -33,-142 -49,-352 -49,-630l0 -1327zm2488 684l444 0 0 264c58,-90 135,-163 233,-219 99,-56 208,-84 328,-84 208,0 386,83 532,247 145,163 218,392 218,685 0,301 -73,535 -220,702 -147,167 -325,250 -535,250 -99,0 -189,-19 -270,-59 -80,-40 -166,-107 -255,-203l0 901 -475 0 0 -2484zm468 872c0,203 40,353 120,450 80,97 178,145 292,145 111,0 203,-44 276,-133 74,-90 110,-235 110,-438 0,-190 -38,-330 -113,-422 -76,-92 -169,-138 -281,-138 -116,0 -213,45 -289,135 -77,91 -115,224 -115,401z"/>
   </g>
  </g>
 </g>
</svg>