<?xml version="1.0" encoding="UTF-8"?>
<!DOCTYPE svg PUBLIC "-//W3C//DTD SVG 1.1//EN" "http://www.w3.org/Graphics/SVG/1.1/DTD/svg11.dtd">
<!-- Creator: CorelDRAW 2020 (64-Bit) -->
<svg xmlns="http://www.w3.org/2000/svg" xml:space="preserve" width="94.1916mm" height="52.9166mm" version="1.1" style="shape-rendering:geometricPrecision; text-rendering:geometricPrecision; image-rendering:optimizeQuality; fill-rule:evenodd; clip-rule:evenodd"
viewBox="0 0 9404.92 5283.66"
 xmlns:xlink="http://www.w3.org/1999/xlink"
 xmlns:xodm="http://www.corel.com/coreldraw/odm/2003">
 <defs>
  <style type="text/css">
   <![CDATA[
    .str0 {stroke:#004677;stroke-width:19.97;stroke-miterlimit:22.9256}
    .fil8 {fill:#66C3D0}
    .fil9 {fill:#004677}
    .fil0 {fill:#E6E7E8}
    .fil3 {fill:white}
    .fil10 {fill:#004677;fill-rule:nonzero}
    .fil7 {fill:#035C96;fill-rule:nonzero}
    .fil5 {fill:#347AB4;fill-rule:nonzero}
    .fil4 {fill:#FEFEFE;fill-rule:nonzero}
    .fil6 {fill:#FFEA00;fill-rule:nonzero}
    .fil2 {fill:#373435;fill-opacity:0.031373}
    .fil1 {fill:#2B2A29;fill-opacity:0.101961}
   ]]>
  </style>
 </defs>
 <g id="Layer_x0020_1">
  <metadata id="CorelCorpID_0Corel-Layer"/>
  <polygon class="fil0" points="-0,0 9404.92,0 9404.92,5283.66 -0,5283.66 "/>
  <polygon class="fil1" points="7013.13,1389.98 6746.91,1534.55 6465.21,1534.55 6465.49,1530.92 6465.99,1511.33 6465.49,1491.74 6464.02,1472.41 6461.61,1453.36 6458.25,1434.62 6454.01,1416.2 6448.88,1398.13 6442.9,1380.45 6436.08,1363.17 6428.46,1346.3 6420.05,1329.89 6410.88,1313.95 6400.98,1298.5 6390.37,1283.58 6379.06,1269.2 6367.1,1255.39 6354.5,1242.17 6341.28,1229.57 6327.46,1217.6 6313.08,1206.3 6298.16,1195.69 6282.72,1185.78 6266.77,1176.62 6250.37,1168.21 6233.5,1160.59 6216.22,1153.77 6198.53,1147.79 6180.46,1142.66 6162.05,1138.42 6143.31,1135.06 6124.26,1132.65 6104.93,1131.18 6085.34,1130.68 6065.75,1131.18 6046.42,1132.65 6027.36,1135.06 6008.62,1138.42 5990.2,1142.66 5972.14,1147.79 5954.46,1153.77 5937.17,1160.59 5920.31,1168.21 5903.89,1176.62 5779.84,1247.33 5786.39,1239.78 5799.76,1225.75 5813.79,1212.38 5828.44,1199.68 5843.69,1187.7 5859.53,1176.44 5875.91,1165.93 5892.83,1156.21 5450.43,1408.8 4197.52,1275.52 4181.09,1261.23 4181.41,1258.26 4179.19,1259.58 4173.2,1254.37 4178.26,1248.55 4184.73,1244.28 4178.96,1247.75 4183.36,1242.7 4046.39,1325.17 4041.78,1319.58 4031.72,1301.05 4025.37,1280.58 4023.15,1258.59 4025.37,1236.61 4031.72,1216.13 4041.78,1197.6 4055.1,1181.45 4071.25,1168.13 2235.89,2282.54 2251.92,2241.89 2272.5,2196.36 2295.19,2152.06 2319.93,2109.04 2346.66,2067.35 2375.3,2027.06 2405.8,1988.25 2438.1,1950.97 2472.12,1915.28 2507.8,1881.26 2545.09,1848.96 2583.9,1818.47 2624.19,1789.82 2665.87,1763.09 -0,3407.34 -0,3640.16 -0,3730.59 -0,3734.15 -0,3761.83 -0,3763.89 -0,3764.54 -0,3766.58 -0,3772.18 -0,3774.11 -0,3786.41 -0,3814.8 -0,3816.06 -0,3817.61 -0,3826.97 -0,3845.71 -0,3848.46 -0,3857.6 -0,3873.64 -0,3882.49 -0,3908.79 -0,3909.91 -0,3917.42 -0,3949.32 -0,3982.21 -0,4071.06 -0,4154.4 -0,4166.11 -0,4167.84 -0,4190.09 -0,4322.83 -0,4337.85 -0,4362.31 -0,4364.71 -0,4385.03 -0,4405.49 -0,4416.89 -0,4423.09 -0,4435.6 -0,4468.73 -0,4473.53 -0,4510.4 -0,4515.12 -0,4520.67 -0,4530.18 -0,4533.91 -0,4542.17 -0,4552.56 -0,4555.77 -0,4559.71 -0,4562.92 -0,4563.65 -0,4564.1 -0,4564.37 -0,4567.19 -0,4575.47 -0,4575.87 -0,4582.53 -0,4588.4 -0,4591.81 -0,4592.03 -0,4592.16 -0,4603.77 -0,4618.79 -0,4619.66 -0,4625.01 -0,4628.62 -0,4637.87 -0,4648.71 -0,4679.08 -0,4693.43 -0,4710.67 -0,4723.76 -0,4729.59 -0,4731.83 -0,4746.64 -0,4768.27 -0,4783.24 -0,4797.59 -0,4811.45 -0,4827.55 -0,4840.7 -0,4899.44 -0,4916.27 -0,4926.52 -0,4929.29 -0,4939.31 -0,4966.32 -0,4983.11 -0,4990.87 -0,4994.98 -0,4995.54 -0,4999.6 -0,5003.21 -0,5003.45 -0,5046.25 -0,5051.79 -0,5089.83 -0,5122.36 -0,5149.67 -0,5164.16 -0,5172.49 -0,5200.92 -0,5205.17 -0,5205.53 -0,5209.62 -0,5283.66 97.11,5283.66 97.32,5283.66 102.06,5283.66 119.42,5283.66 124.12,5283.66 124.33,5283.66 247.89,5283.66 250.57,5283.66 280.92,5283.66 282.81,5283.66 290.68,5283.66 303.25,5283.66 312.93,5283.66 330.92,5283.66 333.44,5283.66 358.15,5283.66 411.83,5283.66 428.71,5283.66 440.07,5283.66 480.87,5283.66 500.23,5283.66 541.28,5283.66 583.35,5283.66 627.73,5283.66 641.62,5283.66 666.33,5283.66 698.89,5283.66 726.05,5283.66 783.67,5283.66 881.22,5283.66 940.05,5283.66 967.93,5283.66 1027.05,5283.66 1082,5283.66 1156.83,5283.66 1161.45,5283.66 1187.63,5283.66 1342.44,5283.66 1536.02,5283.66 1549.42,5283.66 1580.11,5283.66 1580.76,5283.66 1581.81,5283.66 1609.02,5283.66 1610.08,5283.66 1610.71,5283.66 1621.96,5283.66 1627.54,5283.66 1665.69,5283.66 1696.58,5283.66 1709.5,5283.66 1773.22,5283.66 1780.35,5283.66 1936.75,5283.66 2017.86,5283.66 2025.65,5283.66 2029.36,5283.66 2037.19,5283.66 2128.16,5283.66 2129.54,5283.66 2148.53,5283.66 2158.21,5283.66 2171.49,5283.66 2172.03,5283.66 2175.3,5283.66 2178.72,5283.66 2221.2,5283.66 2255.02,5283.66 2258.83,5283.66 2293.07,5283.66 2297.54,5283.66 2317.72,5283.66 2360.5,5283.66 2420.97,5283.66 2463.95,5283.66 2527.09,5283.66 2557.07,5283.66 2582.44,5283.66 2620.61,5283.66 2624.07,5283.66 3069.19,5283.66 3156.23,5283.66 3193.17,5283.66 3226.12,5283.66 3545.3,5283.66 3627.27,5283.66 3700.49,5283.66 3718.45,5283.66 3731.91,5283.66 3750.77,5283.66 3801.18,5283.66 3821.07,5283.66 4011.37,5283.66 7013.13,3893.68 7013.13,3795.54 6913.85,3795.54 7013.13,3749.11 7013.13,3650.97 6706.07,3795.54 6465.21,3795.54 6465.49,3791.92 6465.99,3772.33 6465.49,3752.74 6464.02,3733.41 6461.61,3714.36 6458.25,3695.62 6454.01,3677.19 6448.88,3659.13 6442.9,3641.45 6436.08,3624.16 6428.46,3607.3 6420.05,3590.88 6410.88,3574.94 6400.98,3559.5 6390.37,3544.57 6379.06,3530.2 6367.1,3516.38 6354.5,3503.16 6341.28,3490.56 6327.46,3478.59 6313.08,3467.29 6298.16,3456.68 6282.72,3446.77 6266.77,3437.61 6250.37,3429.2 6233.5,3421.58 6216.22,3414.76 6198.53,3408.78 6180.46,3403.65 6162.05,3399.4 6143.31,3396.05 6124.26,3393.63 6104.93,3392.16 6085.34,3391.67 6065.75,3392.16 6046.42,3393.63 6027.36,3396.05 6008.62,3399.4 5990.2,3403.65 5972.14,3408.78 5954.46,3414.76 5937.17,3421.58 5920.31,3429.2 5795.9,3490.81 5799.76,3486.75 5813.79,3473.38 5828.44,3460.68 5843.69,3448.7 5859.53,3437.44 5875.91,3426.93 5892.83,3417.21 5910.24,3408.28 5668.26,3528.32 5617.35,3501.53 5644.65,3483.51 5643.62,3481.93 5657.56,3474.98 5684.86,3456.96 5641.42,3478.6 5618.52,3443.93 7013.13,2747.06 7013.13,2648.92 6921.08,2648.92 7013.13,2602.5 7013.13,2504.36 6728.25,2648.92 6465.22,2648.92 6465.49,2645.31 6465.99,2625.71 6465.49,2606.12 6464.02,2586.79 6461.61,2567.74 6458.25,2549 6454.01,2530.58 6448.88,2512.52 6442.9,2494.83 6436.08,2477.55 6428.46,2460.68 6420.05,2444.27 6410.88,2428.32 6400.98,2412.89 6390.37,2397.96 6379.06,2383.58 6367.1,2369.76 6354.5,2356.54 6341.28,2343.94 6327.46,2331.98 6313.08,2320.68 6298.16,2310.06 6282.72,2300.16 6266.77,2290.99 6250.37,2282.58 6233.5,2274.97 6216.22,2268.15 6198.53,2262.17 6180.46,2257.03 6162.05,2252.79 6143.31,2249.43 6124.26,2247.02 6104.93,2245.55 6085.34,2245.05 6065.75,2245.55 6046.42,2247.02 6027.36,2249.43 6008.62,2252.79 5990.2,2257.03 5972.14,2262.17 5954.46,2268.15 5937.17,2274.97 5920.31,2282.58 5903.89,2290.99 5787.42,2353.09 5799.76,2340.14 5813.79,2326.77 5828.44,2314.07 5843.69,2302.07 5859.53,2290.82 5875.91,2280.31 5892.83,2270.58 5551.21,2453.02 5524.32,2429.63 7013.13,1632.69 7013.13,1534.55 6927.13,1534.55 7013.13,1488.12 "/>
  <path class="fil2" d="M578.49 4627.69c17.95,27.21 29.6,53.36 40.96,82.43 8.45,16.91 12.93,48.09 52.57,48.09 11.61,0 28.28,-3.42 43.06,-11.61 16.63,-8.73 29.32,-21.94 35.94,-42l15.85 -53.36 38.57 -19.02 2.64 2.64c-5.27,20.09 -6.59,39.36 -6.59,54.43 0,44.63 38.57,61.56 69.22,61.56 17.95,0 34.09,-8.73 34.09,-25.11 0,-21.13 -8.98,-57.06 -20.62,-89.29 17.95,-17.95 35.94,-35.94 56.53,-50.47l3.17 1.6c8.98,38.04 14,75.56 14,100.66 0,24.57 -10.83,51.79 -19.81,69.49 -18.49,34.87 -51.25,62.62 -90.87,62.62 -30.1,0 -63.65,-15.07 -86.66,-43.06l-1.32 0c-21.66,26.96 -55.22,51.25 -108.86,51.25l-16.63 0c-2.64,35.41 -10.29,60.49 -21.94,82.95 -31.95,62.34 -126.81,106.47 -216.1,106.47 -124.17,0 -186.51,-71.59 -186.51,-166.96 0,-58.91 19.27,-113.6 48.88,-152.42l24.29 10.04c-18.49,35.41 -30.91,68.68 -30.91,101.45 0,89.29 72.66,131.83 156.4,131.83 77.68,0 173.83,-49.41 191.28,-106.72 -6.59,-62.62 -30.1,-91.93 -66.04,-148.99 10.83,-19.02 24.83,-38.04 42.28,-58.38l3.17 0 0 0 0 0 -0.02 -0.09zm1432.13 -336.04c26.15,16.39 51.79,35.66 76.87,57.85 -14,19.81 -31.45,37.79 -53.11,53.64 -25.11,-20.34 -50.19,-37.79 -75.84,-56.27 17.42,-19.55 34.62,-38.29 52.04,-55.22l0 0 0 0 0 0 0 0 0 0 0.03 0zm13.47 244.11c-42.28,0 -76.87,27.75 -76.87,48.34 0,44.13 84.53,57.85 185.72,57.31 -12.68,-51.79 -57.06,-105.68 -108.86,-105.68l0.01 0.03zm-94.86 236.19c54.96,0 103.04,-1.6 139.74,-10.83 40.96,-10.29 75.56,-30.91 75.56,-45.17 0,-3.7 0,-8.19 -1.32,-11.89 -22.98,2.11 -49.41,2.11 -72.38,2.11 -74.49,0 -131.55,-16.91 -154.02,-58.66 -5.55,-11.61 -9.51,-24.57 -9.51,-39.36 0,-40.43 17.42,-79.79 48.09,-107 25.61,-22.45 53.89,-36.44 82.67,-36.44 52.04,0 93.51,41.75 122.57,107.54 15.85,35.94 26.68,77.4 26.68,129.72 0,34.87 -9.51,64.19 -31.17,85.85 -40.43,39.11 -114.92,53.89 -229.04,53.89l-51.79 0 0 0 -13.47 0c-28.28,0 -48.62,-5.02 -64.72,-17.42l-2.64 0c0.79,6.59 1.32,12.93 1.32,19.02 0,25.61 -8.45,58.38 -25.61,84.53 -50.72,75.3 -105.68,108.04 -153.24,108.04 -48.09,0 -107,-18.49 -160.11,-42.54l9.51 -18.49c17.17,7.13 40.96,11.89 73.7,11.89 85.85,0 198.66,-82.43 212.66,-163 -3.17,-6.59 -8.98,-15.32 -17.17,-24.57 -25.11,-29.85 -40.96,-54.68 -55.75,-80.83 12.68,-25.11 24.29,-45.17 35.13,-63.4l4.49 -0.53c36.72,74.77 69.99,117.55 144.23,117.55l11.61 0 0 0 53.89 0 0 0 0 0 0 0 0 0 0 0 0.09 0.01zm-371.98 79c6.34,-34.34 6.87,-72.91 6.87,-108.86l0 -53.36c0,-99.6 -12.68,-244.36 -22.98,-338.68 17.95,-19.27 43.06,-42 62.87,-57.31l5.81 1.6c13.47,118.62 16.63,256 16.63,383.06 0,33.3 -1.32,65.79 -4.49,89.55 -1.85,30.1 -19.27,52.83 -56.53,87.7l-8.19 -3.7zm-382.8 -157.19c1.85,46.77 24.83,83.49 105.15,83.49 49.93,0 92.19,-12.93 138.96,-35.13 8.45,-3.7 12.93,-8.73 12.93,-12.93 0,-29.32 -22.45,-68.15 -60.23,-103.55 -36.72,-33.3 -85.34,-62.62 -130.76,-82.18 -15.6,-6.59 -20.62,-13.47 -20.62,-20.09 0,-13.47 17.95,-41.75 32.77,-62.09l5.02 -0.53c52.04,27.21 110.17,67.64 153.24,112.53 39.11,41.47 63.4,83.49 63.4,129.19 0,33.81 -10.29,65.51 -26.96,95.11 -57.06,28.79 -117.83,50.72 -178.06,50.72 -73.17,0 -123.1,-34.34 -123.1,-114.92 0,-8.73 0,-22.19 3.17,-39.64l25.11 0 0 0 0 0 0 0 0 0 0 0 -0.02 0zm-132.37 -132.9l45.45 73.45c16.63,27.21 32.23,56.81 32.23,103.55l0 59.7c0,48.34 -30.91,100.13 -80.83,151.38 -39.11,34.62 -73.7,49.41 -105.68,49.41 -47.55,0 -101.98,-14.79 -164.85,-41.75l7.13 -18.49c19.81,5.27 42.79,9.77 71.06,9.77 90.36,-0.53 182.8,-66.57 225.08,-147.15 5.02,-9.26 6.87,-17.95 6.87,-24.04 0,-9.26 -5.02,-19.55 -8.98,-28.79 -22.98,-43.31 -48.62,-82.95 -76.87,-119.68 14.79,-23.25 29.6,-45.7 45.7,-67.9l3.7 0.53 0 0 0 0 0 0 0 0 0 0 -0.02 0.01z"/>
  <g id="_2118021672112">
   <g>
    <circle class="fil3 str0" cx="3198.66" cy="2641.83" r="1027.49"/>
    <g>
     <path class="fil4" d="M2471.59 2665.4c0,-16.25 0,-32.49 0,-48.72 0.19,-1.55 0.52,-3.09 0.57,-4.63 0.8,-28.59 3.41,-56.98 8.06,-85.2 4.94,-29.87 12.31,-59.1 23.56,-87.26 15.15,-37.93 36.25,-71.87 67.46,-98.86 23.71,-20.55 50.84,-34.71 81.24,-42.34 19.08,-4.78 38.51,-5.64 58.28,-5.58 162.71,0.4 325.43,0.22 488.14,0.22 1.27,0 2.54,-0.14 3.69,-0.21 0,-16.88 0,-33.28 0,-50.09 -117.97,0 -235.64,0 -353.53,0 0,-1.98 0,-3.53 0,-5.1 -0.07,-52.47 -0.14,-104.93 -0.21,-157.39 0,-1.46 -0.13,-2.92 -0.05,-4.35 0.38,-6.74 0.12,-13.61 1.36,-20.18 4.47,-24.04 17.03,-43.7 34.36,-60.52 19.92,-19.36 43.65,-32.71 69.17,-43.06 38.33,-15.55 78.43,-23.92 119.31,-29.14 30.28,-3.86 60.7,-5.96 91.22,-6.71 1.06,-0.04 2.14,-0.33 3.2,-0.5 18.65,0 37.32,0 55.98,0 1.44,0.19 2.86,0.52 4.28,0.55 34.17,0.85 68.17,3.58 101.94,8.86 33.02,5.15 65.42,12.76 96.62,24.9 31.17,12.09 60,28.08 83.94,51.9 20.16,20.07 34.36,43.58 40.78,71.49 2.98,12.97 2.74,26.07 2.71,39.32 -0.3,106.51 -0.18,213.02 -0.21,319.54 0,17.23 -1.86,34.29 -5.81,51.08 -10.2,43.43 -33.39,77.95 -71.16,102.05 -36.89,23.52 -77.82,34.38 -121.15,34.57 -115.37,0.54 -230.72,0.22 -346.08,0.14 -22.73,0 -45.21,1.79 -67.28,7.42 -40.59,10.36 -74.27,31.32 -98.85,65.61 -28.38,39.6 -40.43,84.57 -40.92,132.7 -0.55,56.82 -0.1,113.65 -0.1,170.48 0,1.3 0,2.6 0,4.19 -1.77,0 -3.07,-0.02 -4.38,0 -40.61,0 -81.21,0.12 -121.79,-0.11 -7.82,-0.03 -15.77,-0.81 -23.42,-2.34 -32.23,-6.41 -60.14,-21.41 -84.18,-43.67 -27.83,-25.74 -46.91,-57.31 -61.1,-92.1 -11.71,-28.75 -19.5,-58.61 -24.92,-89.13 -4.94,-27.81 -7.93,-55.81 -9.35,-83.97 -0.42,-7.96 -0.92,-15.9 -1.37,-23.85zm1454.16 -123.61c0,65.69 0,131.36 0,197.04 -0.97,5.57 -1.98,11.13 -2.88,16.71 -4.66,28.57 -11.53,56.55 -21.88,83.61 -14.6,38.12 -34.96,72.51 -65.46,100.22 -29.73,26.99 -64.47,43.49 -104.17,49.61 -13.47,2.08 -26.96,1.77 -40.55,1.75 -162.13,-0.22 -324.27,-0.14 -486.4,-0.14 -1.3,0 -2.62,0 -4.01,0 0,16.88 0,33.39 0,50.15 117.78,0 235.28,0 353.24,0 0,1.55 0,2.83 0,4.13 0.22,55.87 0.5,111.72 0.57,167.59 0.02,5.87 -0.64,11.87 -1.87,17.62 -5.6,26.01 -20.22,46.55 -39.88,63.78 -25.29,22.16 -55.16,35.89 -86.76,46.2 -43.58,14.22 -88.58,21.19 -134.12,24.51 -26.66,1.94 -53.46,2.57 -80.21,3.12 -34.07,0.7 -68.1,-0.78 -101.94,-4.57 -20.53,-2.29 -40.97,-5.54 -61.29,-9.33 -34.55,-6.45 -67.98,-16.76 -99.44,-32.69 -29.79,-15.07 -56.02,-34.58 -75.24,-62.38 -13.21,-19.12 -21.81,-40.12 -23.78,-63.42 -0.73,-8.53 -0.23,-17.14 -0.23,-25.72 -0.02,-104.22 0.02,-208.43 -0.03,-312.64 -0.02,-18.44 1.3,-36.75 5.34,-54.8 9.81,-43.63 32.55,-78.62 70.22,-103.13 37.32,-24.27 78.96,-35.25 123.08,-35.44 115.59,-0.47 231.21,-0.19 346.8,-0.12 23.21,0 46.12,-2.12 68.61,-8.15 38.18,-10.23 70.12,-30.08 93.98,-61.81 29,-38.55 42.11,-82.89 43.02,-130.47 1.13,-58.36 0.28,-116.8 0.28,-175.21 0,-1.52 0,-3.05 0,-4.83 1.92,0 3.36,0 4.78,0 38.9,0 77.8,0.12 116.7,-0.05 25.21,-0.12 48.79,6.12 71.11,17.42 33.36,16.86 58.6,42.49 78.29,73.81 28.76,45.79 42.75,96.68 51.16,149.45 0.97,6.05 1.96,12.1 2.93,18.15z"/>
     <path class="fil5" d="M2471.59 2665.4c0,-16.25 0,-32.49 0,-48.72 0.19,-1.55 0.52,-3.09 0.57,-4.63 0.8,-28.59 3.41,-56.98 8.06,-85.2 4.94,-29.87 12.31,-59.1 23.56,-87.26 15.15,-37.93 36.25,-71.87 67.46,-98.86 23.71,-20.55 50.84,-34.71 81.24,-42.34 19.08,-4.78 38.51,-5.64 58.28,-5.58 162.71,0.4 325.43,0.22 488.14,0.22 1.27,0 2.54,-0.14 3.69,-0.21 0,-16.88 0,-33.28 0,-50.09 -117.97,0 -235.64,0 -353.53,0 0,-1.98 0,-3.53 0,-5.1 -0.07,-52.47 -0.14,-104.93 -0.21,-157.39 0,-1.46 -0.13,-2.92 -0.05,-4.35 0.38,-6.74 0.12,-13.61 1.36,-20.18 4.47,-24.04 17.03,-43.7 34.36,-60.52 19.92,-19.36 43.65,-32.71 69.17,-43.06 38.33,-15.55 78.43,-23.92 119.31,-29.14 30.28,-3.86 60.7,-5.96 91.22,-6.71 1.06,-0.04 2.14,-0.33 3.2,-0.5 18.65,0 37.32,0 55.98,0 1.44,0.19 2.86,0.52 4.28,0.55 34.17,0.85 68.17,3.58 101.94,8.86 33.02,5.15 65.42,12.76 96.62,24.9 31.17,12.09 60,28.08 83.94,51.9 20.16,20.07 34.36,43.58 40.78,71.49 2.98,12.97 2.74,26.07 2.71,39.32 -0.3,106.51 -0.18,213.02 -0.21,319.54 0,17.23 -1.86,34.29 -5.81,51.08 -10.2,43.43 -33.39,77.95 -71.16,102.05 -36.89,23.52 -77.82,34.38 -121.15,34.57 -115.37,0.54 -230.72,0.22 -346.08,0.14 -22.73,0 -45.21,1.79 -67.28,7.42 -40.59,10.36 -74.27,31.32 -98.85,65.61 -28.38,39.6 -40.43,84.57 -40.92,132.7 -0.55,56.82 -0.1,113.65 -0.1,170.48 0,1.3 0,2.6 0,4.19 -1.77,0 -3.07,-0.02 -4.38,0 -40.61,0 -81.21,0.12 -121.79,-0.11 -7.82,-0.03 -15.77,-0.81 -23.42,-2.34 -32.23,-6.41 -60.14,-21.41 -84.18,-43.67 -27.83,-25.74 -46.91,-57.31 -61.1,-92.1 -11.71,-28.75 -19.5,-58.61 -24.92,-89.13 -4.94,-27.81 -7.93,-55.81 -9.35,-83.97 -0.42,-7.96 -0.92,-15.9 -1.37,-23.85zm529.63 -637.67l0 0c-35.12,0.02 -63.57,28.33 -63.6,63.31 -0.04,35.33 28.28,63.89 63.36,63.95 35.18,0.05 63.83,-28.47 63.88,-63.54 0.05,-35.16 -28.47,-63.72 -63.64,-63.72z"/>
     <path class="fil6" d="M3925.75 2541.79c0,65.69 0,131.36 0,197.04 -0.97,5.57 -1.98,11.13 -2.88,16.71 -4.66,28.57 -11.53,56.55 -21.88,83.61 -14.6,38.12 -34.96,72.51 -65.46,100.22 -29.73,26.99 -64.47,43.49 -104.17,49.61 -13.47,2.08 -26.96,1.77 -40.55,1.75 -162.13,-0.22 -324.27,-0.14 -486.4,-0.14 -1.3,0 -2.62,0 -4.01,0 0,16.88 0,33.39 0,50.15 117.78,0 235.28,0 353.24,0 0,1.55 0,2.83 0,4.13 0.22,55.87 0.5,111.72 0.57,167.59 0.02,5.87 -0.64,11.87 -1.87,17.62 -5.6,26.01 -20.22,46.55 -39.88,63.78 -25.29,22.16 -55.16,35.89 -86.76,46.2 -43.58,14.22 -88.58,21.19 -134.12,24.51 -26.66,1.94 -53.46,2.57 -80.21,3.12 -34.07,0.7 -68.1,-0.78 -101.94,-4.57 -20.53,-2.29 -40.97,-5.54 -61.29,-9.33 -34.55,-6.45 -67.98,-16.76 -99.44,-32.69 -29.79,-15.07 -56.02,-34.58 -75.24,-62.38 -13.21,-19.12 -21.81,-40.12 -23.78,-63.42 -0.73,-8.53 -0.23,-17.14 -0.23,-25.72 -0.02,-104.22 0.02,-208.43 -0.03,-312.64 -0.02,-18.44 1.3,-36.75 5.34,-54.8 9.81,-43.63 32.55,-78.62 70.22,-103.13 37.32,-24.27 78.96,-35.25 123.08,-35.44 115.59,-0.47 231.21,-0.19 346.8,-0.12 23.21,0 46.12,-2.12 68.61,-8.15 38.18,-10.23 70.12,-30.08 93.98,-61.81 29,-38.55 42.11,-82.89 43.02,-130.47 1.13,-58.36 0.28,-116.8 0.28,-175.21 0,-1.52 0,-3.05 0,-4.83 1.92,0 3.36,0 4.78,0 38.9,0 77.8,0.12 116.7,-0.05 25.21,-0.12 48.79,6.12 71.11,17.42 33.36,16.86 58.6,42.49 78.29,73.81 28.76,45.79 42.75,96.68 51.16,149.45 0.97,6.05 1.96,12.1 2.93,18.15zm-524.33 714.06l0 0c35.28,0.07 63.86,-28.23 63.98,-63.35 0.11,-34.88 -28.5,-63.77 -63.23,-63.86 -35.43,-0.07 -63.85,28.05 -63.99,63.29 -0.14,35.47 27.93,63.85 63.24,63.92z"/>
    </g>
   </g>
   <g>
    <polygon class="fil7" points="7013.13,1488.12 6272.81,1488.12 6272.81,1534.55 7013.13,1534.55 7013.13,1632.69 7233.74,1511.33 7013.13,1389.98 "/>
    <circle class="fil8" cx="6085.33" cy="1511.33" r="380.66"/>
    <path class="fil7" d="M6085.34 1107.46c111.51,0 212.49,45.2 285.57,118.29 73.09,73.09 118.3,174.06 118.3,285.58 0,111.52 -45.21,212.49 -118.3,285.58 -73.08,73.09 -174.06,118.29 -285.57,118.29 -111.52,0 -212.5,-45.2 -285.58,-118.29 -73.09,-73.09 -118.3,-174.06 -118.3,-285.58 0,-111.52 45.21,-212.49 118.3,-285.58 73.08,-73.09 174.06,-118.29 285.58,-118.29zm252.75 151.11c-64.68,-64.68 -154.05,-104.69 -252.75,-104.69 -98.71,0 -188.08,40.01 -252.76,104.69 -64.68,64.68 -104.69,154.05 -104.69,252.76 0,98.71 40.01,188.08 104.69,252.76 64.68,64.68 154.05,104.69 252.76,104.69 98.7,0 188.07,-40.01 252.75,-104.69 64.68,-64.68 104.69,-154.05 104.69,-252.76 0,-98.71 -40.01,-188.08 -104.69,-252.76z"/>
    <polygon class="fil7" points="7013.13,2602.5 6272.81,2602.5 6272.81,2648.92 7013.13,2648.92 7013.13,2747.06 7233.74,2625.71 7013.13,2504.36 "/>
    <circle class="fil8" cx="6085.33" cy="2625.71" r="380.66"/>
    <path class="fil7" d="M6085.34 2221.84c111.51,0 212.49,45.21 285.57,118.3 73.09,73.08 118.3,174.06 118.3,285.58 0,111.51 -45.21,212.49 -118.3,285.57 -73.08,73.09 -174.06,118.3 -285.57,118.3 -111.52,0 -212.5,-45.21 -285.58,-118.3 -73.09,-73.08 -118.3,-174.06 -118.3,-285.57 0,-111.52 45.21,-212.5 118.3,-285.58 73.08,-73.09 174.06,-118.3 285.58,-118.3zm252.75 151.12c-64.68,-64.68 -154.05,-104.69 -252.75,-104.69 -98.71,0 -188.08,40.01 -252.76,104.69 -64.68,64.68 -104.69,154.05 -104.69,252.76 0,98.7 40.01,188.07 104.69,252.75 64.68,64.68 154.05,104.69 252.76,104.69 98.7,0 188.07,-40.01 252.75,-104.69 64.68,-64.68 104.69,-154.05 104.69,-252.75 0,-98.71 -40.01,-188.08 -104.69,-252.76z"/>
    <polygon class="fil7" points="7013.13,3749.11 6272.81,3749.11 6272.81,3795.54 7013.13,3795.54 7013.13,3893.68 7233.74,3772.33 7013.13,3650.97 "/>
    <circle class="fil8" cx="6085.33" cy="3772.33" r="380.66"/>
    <path class="fil7" d="M6085.34 3368.46c111.51,0 212.49,45.2 285.57,118.29 73.09,73.08 118.3,174.06 118.3,285.58 0,111.52 -45.21,212.49 -118.3,285.58 -73.08,73.08 -174.06,118.29 -285.57,118.29 -111.52,0 -212.5,-45.21 -285.58,-118.29 -73.09,-73.09 -118.3,-174.06 -118.3,-285.58 0,-111.52 45.21,-212.5 118.3,-285.58 73.08,-73.09 174.06,-118.29 285.58,-118.29zm252.75 151.11c-64.68,-64.68 -154.05,-104.69 -252.75,-104.69 -98.71,0 -188.08,40.01 -252.76,104.69 -64.68,64.68 -104.69,154.05 -104.69,252.76 0,98.7 40.01,188.08 104.69,252.75 64.68,64.68 154.05,104.7 252.76,104.7 98.7,0 188.07,-40.02 252.75,-104.7 64.68,-64.67 104.69,-154.05 104.69,-252.75 0,-98.71 -40.01,-188.08 -104.69,-252.76z"/>
    <circle class="fil9" cx="4132.24" cy="1258.59" r="109.09"/>
    <circle class="fil9" cx="4132.24" cy="2152.21" r="109.09"/>
    <circle class="fil9" cx="4132.24" cy="3085.93" r="109.09"/>
    <circle class="fil9" cx="4132.24" cy="3979.54" r="109.09"/>
    <polygon class="fil10" points="5603.07,1409.47 4181.41,1258.26 4179.78,1273.64 5601.43,1424.85 5597.98,1457.38 5675.38,1424.94 5606.53,1376.94 "/>
    <polygon class="fil10" points="5590.16,2466.4 4183.36,1242.7 4173.2,1254.37 5580,2478.07 5558.52,2502.75 5640.56,2520.49 5611.62,2441.71 "/>
    <polygon class="fil10" points="5657.56,3474.98 4184.73,1244.28 4171.82,1252.8 5644.65,3483.51 5617.35,3501.53 5691.62,3540.61 5684.86,3456.96 "/>
    <polygon class="fil10" points="5578.81,3792.33 4179.64,3967.16 4181.56,3982.52 5580.73,3807.69 5584.78,3840.15 5652.74,3790.89 5574.76,3759.87 "/>
    <polygon class="fil10" points="5641.71,1799.71 4174.19,3970.51 4187.01,3979.18 5654.53,1808.37 5681.63,1826.69 5689.31,1743.11 5614.61,1781.38 "/>
    <polygon class="fil10" points="5612.48,2856.68 4175.86,3968.72 4185.33,3980.96 5621.95,2868.92 5641.98,2894.79 5675.38,2817.78 5592.45,2830.8 "/>
    <polygon class="fil10" points="5579.04,2724.32 4187.94,3085.34 4191.82,3100.32 5582.93,2739.29 5591.15,2770.95 5652.16,2713.33 5570.83,2692.65 "/>
    <polygon class="fil10" points="5555.31,3677.89 4192.96,3085.73 4186.8,3099.93 5549.15,3692.08 5536.11,3722.09 5619.67,3714.3 5568.35,3647.89 "/>
    <polygon class="fil10" points="5599.45,1664.47 4184.4,3087.37 4195.37,3098.28 5610.44,1675.38 5633.63,1698.46 5656.81,1617.78 5576.26,1641.4 "/>
    <polygon class="fil10" points="5579.07,1530.14 4228.56,2099.9 4234.57,2114.16 5585.09,1544.4 5597.81,1574.55 5649.85,1508.69 5566.35,1500 "/>
    <polygon class="fil10" points="5565.71,2593.5 4192.08,2164.63 4187.48,2179.41 5561.1,2608.28 5551.35,2639.5 5633.6,2622.81 5575.46,2562.28 "/>
    <polygon class="fil10" points="5589.18,3578.19 4195.29,2166.58 4184.28,2177.46 5578.17,3589.07 5554.89,3612.06 5635.34,3635.97 5612.45,3555.22 "/>
   </g>
  </g>
 </g>
</svg>
