<?xml version="1.0" encoding="UTF-8"?>
<!DOCTYPE svg PUBLIC "-//W3C//DTD SVG 1.1//EN" "http://www.w3.org/Graphics/SVG/1.1/DTD/svg11.dtd">
<!-- Creator: CorelDRAW 2020 (64-Bit) -->
<svg xmlns="http://www.w3.org/2000/svg" xml:space="preserve" width="94.1916mm" height="52.9166mm" version="1.1" style="shape-rendering:geometricPrecision; text-rendering:geometricPrecision; image-rendering:optimizeQuality; fill-rule:evenodd; clip-rule:evenodd"
viewBox="0 0 9404.92 5283.66"
 xmlns:xlink="http://www.w3.org/1999/xlink"
 xmlns:xodm="http://www.corel.com/coreldraw/odm/2003">
 <defs>
  <style type="text/css">
   <![CDATA[
    .fil0 {fill:#E6E7E8}
    .fil3 {fill:#179200;fill-rule:nonzero}
    .fil5 {fill:#E63A00;fill-rule:nonzero}
    .fil4 {fill:white;fill-rule:nonzero}
    .fil2 {fill:#373435;fill-opacity:0.031373}
    .fil1 {fill:#2B2A29;fill-opacity:0.101961}
   ]]>
  </style>
 </defs>
 <g id="Layer_x0020_1">
  <metadata id="CorelCorpID_0Corel-Layer"/>
  <polygon class="fil0" points="-0,0 9404.92,0 9404.92,5283.66 -0,5283.66 "/>
  <polygon class="fil1" points="-0,4227.47 -0,4203.58 -0,4202.88 -0,4186.44 -0,4158.43 -0,4112.11 -0,3998.15 -0,3936.54 -0,3554.1 -0,3476.27 -0,3470.79 -0,3461.1 -0,3393.41 -0,2940.63 -0,2929.97 -0,2921.98 -0,2808.49 -0,2679.74 -0,2647.76 -0,2629.9 -0,2586.16 -0,2574.95 -0,2524.84 -0,2480.61 -0,2480.55 -0,2464.73 -0,2415.6 -0,2413.42 -0,2387.17 -0,2367.15 -0,2366.59 -0,2360.1 -0,2327.51 -0,2325.4 -0,2319.62 -0,2315.36 -0,2306.91 -0,2287.39 -0,2283.26 -0,2280.37 -0,2277.77 -0,2271.66 -0,2264.67 -0,2241.96 -0,2240.76 -0,2239.8 -0,2238.26 -0,2210.9 -0,2208.37 -0,2178.53 -0,2176.11 -0,2163.95 -0,2162.53 -0,2155.11 -0,2137.13 -0,2136.92 -0,2126.09 -0,2125.73 -0,2106.12 -0,2082.5 -0,2068.84 -0,1891.11 -0,1799.23 2805.28,594.47 2792.38,600.69 2780.21,608.08 2768.86,616.57 2758.37,626.09 2748.85,636.58 2740.36,647.93 2732.97,660.1 2726.75,673 2721.79,686.55 2718.15,700.7 2715.92,715.35 2715.16,730.43 2715.16,918.58 3116.36,748.62 3122.54,746.18 3129.05,744.07 3135.91,742.29 3143.11,740.83 3150.65,739.69 3158.53,738.88 3166.75,738.39 3175.31,738.23 3181.26,738.31 3187.18,738.57 3193.1,738.99 3198.98,739.58 3204.85,740.33 3210.69,741.26 3216.51,742.35 3222.31,743.6 3228.01,745.02 3233.54,746.59 3238.91,748.32 3244.09,750.2 3249.1,752.25 3253.94,754.46 3258.61,756.81 3263.1,759.33 3248.56,794.4 3370.29,743.08 3560.07,743.08 3560.07,788.43 3668.28,743.08 3736.7,743.08 3736.7,829.8 3944.81,743.08 4013.23,743.08 4013.23,930.79 4128.71,930.79 4128.71,985.07 3689.57,1165.32 4356.51,1165.32 4371.6,1164.56 4386.25,1162.32 4400.39,1158.69 4413.95,1153.72 3593.46,1485.88 3593.46,2046.71 6498.07,903.45 6498.07,1777.27 6290.14,1855.67 6290.14,2537.11 6498.07,2537.11 6498.07,2553.85 6544.27,2537.11 6752.2,2537.11 6498.07,2628.84 6498.07,3410.93 6544.27,3410.93 5770.58,3678.5 5770.58,3846.51 5816.79,3846.51 4315.62,4360.39 4315.62,4361.03 5005.21,4124.98 4991.66,4129.94 4978.76,4136.16 4966.59,4143.55 4955.24,4152.04 4944.75,4161.57 4935.23,4172.04 4926.74,4183.41 4919.35,4195.57 4913.13,4208.47 4908.17,4222.03 4904.53,4236.17 4902.3,4250.81 4902.29,4251.08 5795.99,3946.74 5612.66,4224.19 5979.32,4224.19 5750.09,4300.77 5750.09,4315.22 5841.72,4284.63 5909.12,4284.63 5909.12,4310.4 5986.56,4284.63 6058.81,4284.63 6077.78,4316.41 6173.56,4284.63 6239.93,4284.63 6147.29,4439.85 6147.29,4526.63 5615.05,4700.78 6542.89,4700.78 6557.98,4700.02 6572.63,4697.79 6586.77,4694.15 4752.17,5283.66 4729.72,5283.66 3833.69,5283.66 3581.44,5283.66 3535.81,5283.66 3506.19,5283.66 3381.62,5283.66 3356.47,5283.66 3347.9,5283.66 3294.3,5283.66 3287.13,5283.66 3228.4,5283.66 3223.86,5283.66 3219.4,5283.66 3161.29,5283.66 3137.29,5283.66 3102.64,5283.66 3062.07,5283.66 3053.13,5283.66 3051.11,5283.66 2996.42,5283.66 2985.14,5283.66 2985.02,5283.66 2912.03,5283.66 2889.74,5283.66 2856.22,5283.66 2851.15,5283.66 2848.49,5283.66 2807.64,5283.66 2776.86,5283.66 2771.4,5283.66 2766.25,5283.66 2762.12,5283.66 2721.7,5283.66 2718.82,5283.66 2697.6,5283.66 2618.34,5283.66 2589.83,5283.66 2503.72,5283.66 2463.2,5283.66 2387.08,5283.66 2103.06,5283.66 2058.9,5283.66 1910.34,5283.66 1870.06,5283.66 1620.3,5283.66 1618.53,5283.66 1576.04,5283.66 1130.62,5283.66 1129.36,5283.66 1087.97,5283.66 1087.89,5283.66 692.69,5283.66 659.22,5283.66 252.48,5283.66 62.19,5283.66 19.89,5283.66 -0,5283.66 -0,5246.26 -0,5234.08 -0,5223.07 -0,5180.66 -0,5167.5 -0,5166.01 -0,5152.63 -0,5099.76 -0,5085.39 -0,5025.12 -0,5009.47 -0,4974.32 -0,4965.23 -0,4908.55 -0,4893.87 -0,4893.81 -0,4881.85 -0,4827.47 -0,4809.71 -0,4711.21 -0,4689.5 -0,4642.17 -0,4619.39 -0,4594.18 -0,4525.65 -0,4276.45 "/>
  <path class="fil2" d="M578.49 4627.69c17.95,27.21 29.6,53.36 40.96,82.43 8.45,16.91 12.93,48.09 52.57,48.09 11.61,0 28.28,-3.42 43.06,-11.61 16.63,-8.73 29.32,-21.94 35.94,-42l15.85 -53.36 38.57 -19.02 2.64 2.64c-5.27,20.09 -6.59,39.36 -6.59,54.43 0,44.63 38.57,61.56 69.22,61.56 17.95,0 34.09,-8.73 34.09,-25.11 0,-21.13 -8.98,-57.06 -20.62,-89.29 17.95,-17.95 35.94,-35.94 56.53,-50.47l3.17 1.6c8.98,38.04 14,75.56 14,100.66 0,24.57 -10.83,51.79 -19.81,69.49 -18.49,34.87 -51.25,62.62 -90.87,62.62 -30.1,0 -63.65,-15.07 -86.66,-43.06l-1.32 0c-21.66,26.96 -55.22,51.25 -108.86,51.25l-16.63 0c-2.64,35.41 -10.29,60.49 -21.94,82.95 -31.95,62.34 -126.81,106.47 -216.1,106.47 -124.17,0 -186.51,-71.59 -186.51,-166.96 0,-58.91 19.27,-113.6 48.88,-152.42l24.29 10.04c-18.49,35.41 -30.91,68.68 -30.91,101.45 0,89.29 72.66,131.83 156.4,131.83 77.68,0 173.83,-49.41 191.28,-106.72 -6.59,-62.62 -30.1,-91.93 -66.04,-148.99 10.83,-19.02 24.83,-38.04 42.28,-58.38l3.17 0 0 0 0 0 -0.02 -0.09zm1432.13 -336.04c26.15,16.39 51.79,35.66 76.87,57.85 -14,19.81 -31.45,37.79 -53.11,53.64 -25.11,-20.34 -50.19,-37.79 -75.84,-56.27 17.42,-19.55 34.62,-38.29 52.04,-55.22l0 0 0 0 0 0 0 0 0 0 0.03 0zm13.47 244.11c-42.28,0 -76.87,27.75 -76.87,48.34 0,44.13 84.53,57.85 185.72,57.31 -12.68,-51.79 -57.06,-105.68 -108.86,-105.68l0.01 0.03zm-94.86 236.19c54.96,0 103.04,-1.6 139.74,-10.83 40.96,-10.29 75.56,-30.91 75.56,-45.17 0,-3.7 0,-8.19 -1.32,-11.89 -22.98,2.11 -49.41,2.11 -72.38,2.11 -74.49,0 -131.55,-16.91 -154.02,-58.66 -5.55,-11.61 -9.51,-24.57 -9.51,-39.36 0,-40.43 17.42,-79.79 48.09,-107 25.61,-22.45 53.89,-36.44 82.67,-36.44 52.04,0 93.51,41.75 122.57,107.54 15.85,35.94 26.68,77.4 26.68,129.72 0,34.87 -9.51,64.19 -31.17,85.85 -40.43,39.11 -114.92,53.89 -229.04,53.89l-51.79 0 0 0 -13.47 0c-28.28,0 -48.62,-5.02 -64.72,-17.42l-2.64 0c0.79,6.59 1.32,12.93 1.32,19.02 0,25.61 -8.45,58.38 -25.61,84.53 -50.72,75.3 -105.68,108.04 -153.24,108.04 -48.09,0 -107,-18.49 -160.11,-42.54l9.51 -18.49c17.17,7.13 40.96,11.89 73.7,11.89 85.85,0 198.66,-82.43 212.66,-163 -3.17,-6.59 -8.98,-15.32 -17.17,-24.57 -25.11,-29.85 -40.96,-54.68 -55.75,-80.83 12.68,-25.11 24.29,-45.17 35.13,-63.4l4.49 -0.53c36.72,74.77 69.99,117.55 144.23,117.55l11.61 0 0 0 53.89 0 0 0 0 0 0 0 0 0 0 0 0.09 0.01zm-371.98 79c6.34,-34.34 6.87,-72.91 6.87,-108.86l0 -53.36c0,-99.6 -12.68,-244.36 -22.98,-338.68 17.95,-19.27 43.06,-42 62.87,-57.31l5.81 1.6c13.47,118.62 16.63,256 16.63,383.06 0,33.3 -1.32,65.79 -4.49,89.55 -1.85,30.1 -19.27,52.83 -56.53,87.7l-8.19 -3.7zm-382.8 -157.19c1.85,46.77 24.83,83.49 105.15,83.49 49.93,0 92.19,-12.93 138.96,-35.13 8.45,-3.7 12.93,-8.73 12.93,-12.93 0,-29.32 -22.45,-68.15 -60.23,-103.55 -36.72,-33.3 -85.34,-62.62 -130.76,-82.18 -15.6,-6.59 -20.62,-13.47 -20.62,-20.09 0,-13.47 17.95,-41.75 32.77,-62.09l5.02 -0.53c52.04,27.21 110.17,67.64 153.24,112.53 39.11,41.47 63.4,83.49 63.4,129.19 0,33.81 -10.29,65.51 -26.96,95.11 -57.06,28.79 -117.83,50.72 -178.06,50.72 -73.17,0 -123.1,-34.34 -123.1,-114.92 0,-8.73 0,-22.19 3.17,-39.64l25.11 0 0 0 0 0 0 0 0 0 0 0 -0.02 0zm-132.37 -132.9l45.45 73.45c16.63,27.21 32.23,56.81 32.23,103.55l0 59.7c0,48.34 -30.91,100.13 -80.83,151.38 -39.11,34.62 -73.7,49.41 -105.68,49.41 -47.55,0 -101.98,-14.79 -164.85,-41.75l7.13 -18.49c19.81,5.27 42.79,9.77 71.06,9.77 90.36,-0.53 182.8,-66.57 225.08,-147.15 5.02,-9.26 6.87,-17.95 6.87,-24.04 0,-9.26 -5.02,-19.55 -8.98,-28.79 -22.98,-43.31 -48.62,-82.95 -76.87,-119.68 14.79,-23.25 29.6,-45.7 45.7,-67.9l3.7 0.53 0 0 0 0 0 0 0 0 0 0 -0.02 0.01z"/>
  <g id="_2082629373936">
   <path class="fil3" d="M5049.1 4118.35l1493.8 0c81.49,0 147.55,66.07 147.55,147.56l0 287.33c0,81.5 -66.06,147.56 -147.55,147.56l-1493.8 0c-81.5,0 -147.56,-66.06 -147.56,-147.56l0 -287.33c0,-81.49 66.06,-147.56 147.56,-147.56z"/>
   <polygon class="fil3" points="5795.99,3946.74 5612.66,4224.19 5979.32,4224.19 "/>
   <path class="fil4" d="M5513.31 4452.65c0,-16.36 -11.99,-24.54 -35.96,-24.54l-57.37 0 0 49.09 57.37 0c23.96,0 35.96,-8.19 35.96,-24.54zm-93.33 -118.58l0 46.68 47 0c23.06,0 34.59,-7.84 34.59,-23.51 0,-15.43 -11.53,-23.16 -34.59,-23.16l-47 0zm150.7 89.03c7.84,10.25 11.77,22.64 11.77,37.15 0,21.21 -8.54,37.56 -25.6,49.1 -17.03,11.52 -41.7,17.28 -73.96,17.28l-130.67 0 0 -241.99 123.74 0c30.89,0 54.38,5.71 70.53,17.12 16.14,11.4 24.18,26.79 24.18,46.14 0,11.53 -2.81,21.85 -8.45,30.95 -5.67,9.09 -13.68,16.31 -24.05,21.6 13.83,4.84 24.66,12.38 32.5,22.65z"/>
   <path class="fil4" d="M5711.55 4502.08c-19.93,-19.58 -29.9,-47.36 -29.9,-83.31l0 -134.14 68.45 0 0 132.06c0,38.72 15.33,58.07 45.98,58.07 30.41,0 45.64,-19.35 45.64,-58.07l0 -132.06 67.41 0 0 134.14c0,35.96 -9.98,63.73 -29.9,83.31 -19.96,19.59 -47.89,29.39 -83.83,29.39 -35.96,0 -63.91,-9.8 -83.83,-29.39z"/>
   <polygon class="fil4" points="6147.29,4439.85 6147.29,4526.63 6078.85,4526.63 6078.85,4438.82 5986.56,4284.63 6058.81,4284.63 6116.19,4380.75 6173.56,4284.63 6239.93,4284.63 "/>
   <path class="fil5" d="M4356.51 1165.32l-1493.8 0c-81.5,0 -147.56,-66.07 -147.56,-147.56l0 -287.33c0,-81.5 66.06,-147.56 147.56,-147.56l1493.8 0c81.49,0 147.55,66.06 147.55,147.56l0 287.33c0,81.49 -66.06,147.56 -147.55,147.56z"/>
   <polygon class="fil5" points="3609.62,1336.92 3792.94,1059.47 3426.29,1059.47 "/>
   <path class="fil4" d="M3108.92 982.64c-18.43,-4.84 -33.41,-11.28 -44.94,-19.35l22.47 -50.47c10.83,7.14 23.41,12.9 37.69,17.28 14.29,4.38 28.36,6.56 42.19,6.56 26.27,0 39.4,-6.56 39.4,-19.7 0,-6.92 -3.74,-12.04 -11.23,-15.39 -7.49,-3.33 -19.53,-6.84 -36.15,-10.53 -18.18,-3.91 -33.4,-8.13 -45.6,-12.63 -12.22,-4.49 -22.72,-11.68 -31.46,-21.6 -8.77,-9.91 -13.16,-23.27 -13.16,-40.09 0,-14.76 4.04,-28.07 12.12,-39.94 8.05,-11.86 20.09,-21.26 36.12,-28.17 16.02,-6.92 35.66,-10.38 58.95,-10.38 15.89,0 31.56,1.8 47,5.37 15.44,3.56 29.05,8.81 40.79,15.73l-21.08 50.82c-23.06,-12.45 -45.39,-18.67 -67.06,-18.67 -13.61,0 -23.51,2.02 -29.74,6.04 -6.21,4.04 -9.34,9.29 -9.34,15.74 0,6.45 3.69,11.29 11.07,14.52 7.39,3.23 19.23,6.57 35.61,10.01 18.43,3.92 33.71,8.14 45.79,12.63 12.12,4.49 22.61,11.63 31.46,21.43 8.88,9.81 13.32,23.11 13.32,39.92 0,14.53 -4.04,27.66 -12.09,39.42 -8.08,11.75 -20.17,21.15 -36.3,28.18 -16.14,7.02 -35.74,10.54 -58.77,10.54 -19.61,0 -38.6,-2.43 -57.05,-7.27z"/>
   <polygon class="fil4" points="3564.57,932.17 3564.57,985.07 3370.29,985.07 3370.29,743.08 3560.07,743.08 3560.07,795.97 3438.05,795.97 3438.05,836.76 3545.54,836.76 3545.54,887.93 3438.05,887.93 3438.05,932.17 "/>
   <polygon class="fil4" points="3668.28,743.08 3736.7,743.08 3736.7,930.79 3852.18,930.79 3852.18,985.07 3668.28,985.07 "/>
   <polygon class="fil4" points="3944.81,743.08 4013.23,743.08 4013.23,930.79 4128.71,930.79 4128.71,985.07 3944.81,985.07 "/>
   <polygon class="fil3" points="5816.79,1724.43 5770.58,1724.43 5770.58,2463.96 5562.65,2463.96 5562.65,3106.98 5770.58,3106.98 5770.58,3846.51 5816.79,3846.51 5816.79,3106.98 6024.72,3106.98 6024.72,2463.96 5816.79,2463.96 "/>
   <polygon class="fil5" points="5089.31,2299.4 5043.11,2299.4 5043.11,2862.27 4835.17,2862.27 4835.17,3351.73 5043.11,3351.73 5043.11,3914.59 5089.31,3914.59 5089.31,3351.73 5297.24,3351.73 5297.24,2862.27 5089.31,2862.27 "/>
   <polygon class="fil3" points="4361.83,2349.52 4315.62,2349.52 4315.62,3105.26 4107.69,3105.26 4107.69,3762.44 4315.62,3762.44 4315.62,4518.17 4361.83,4518.17 4361.83,3762.44 4569.75,3762.44 4569.75,3105.26 4361.83,3105.26 "/>
   <polygon class="fil5" points="3629.02,1465.78 3593.46,1465.78 3593.46,2146.92 3380.2,2146.92 3380.2,3577.61 3593.46,3577.61 3593.46,4258.71 3629.02,4258.71 3629.02,3577.61 3842.27,3577.61 3842.27,2146.92 3629.02,2146.92 "/>
   <polygon class="fil3" points="2906.86,1471.6 2860.66,1471.6 2860.66,2345.42 2652.72,2345.42 2652.72,3105.26 2860.66,3105.26 2860.66,3979.08 2906.86,3979.08 2906.86,3105.26 3114.78,3105.26 3114.78,2345.42 2906.86,2345.42 "/>
   <polygon class="fil3" points="6752.2,1777.27 6544.27,1777.27 6544.27,903.45 6498.07,903.45 6498.07,1777.27 6290.14,1777.27 6290.14,2537.11 6498.07,2537.11 6498.07,3410.93 6544.27,3410.93 6544.27,2537.11 6752.2,2537.11 "/>
  </g>
 </g>
</svg>
