<?xml version="1.0" encoding="UTF-8"?>
<!DOCTYPE svg PUBLIC "-//W3C//DTD SVG 1.1//EN" "http://www.w3.org/Graphics/SVG/1.1/DTD/svg11.dtd">
<!-- Creator: CorelDRAW 2020 (64-Bit) -->
<svg xmlns="http://www.w3.org/2000/svg" xml:space="preserve" width="94.1916mm" height="52.9166mm" version="1.1" style="shape-rendering:geometricPrecision; text-rendering:geometricPrecision; image-rendering:optimizeQuality; fill-rule:evenodd; clip-rule:evenodd"
viewBox="0 0 9404.92 5283.66"
 xmlns:xlink="http://www.w3.org/1999/xlink"
 xmlns:xodm="http://www.corel.com/coreldraw/odm/2003">
 <defs>
  <style type="text/css">
   <![CDATA[
    .fil4 {fill:#FEFEFE}
    .fil5 {fill:#A63D9A}
    .fil0 {fill:#E6E7E8}
    .fil3 {fill:#5B5B5B;fill-rule:nonzero}
    .fil2 {fill:#373435;fill-opacity:0.031373}
    .fil1 {fill:#2B2A29;fill-opacity:0.101961}
   ]]>
  </style>
 </defs>
 <g id="Layer_x0020_1">
  <metadata id="CorelCorpID_0Corel-Layer"/>
  <polygon class="fil0" points="-0,0 9404.92,0 9404.92,5283.66 -0,5283.66 "/>
  <polygon class="fil1" points="-0,4296.31 -0,4281.59 -0,4272.46 -0,4270.9 -0,4257.34 -0,4256.17 -0,4252.85 -0,4252.45 -0,4249.19 -0,4217.33 -0,4213.13 -0,4203.68 -0,4114.69 -0,4113.84 -0,4083.01 -0,4033.36 -0,4013.91 -0,3998.98 -0,3946.35 -0,3931.09 -0,3926.83 -0,3641.94 3692.44,1331.45 3692.43,1331.46 3692.31,1331.54 3628.52,1373.26 3628.51,1373.27 3566.38,1417.53 3566.37,1417.53 3506.11,1464.17 3506.1,1464.18 3447.78,1513.14 3447.77,1513.15 3391.46,1564.34 3391.45,1564.35 3337.2,1617.71 3337.19,1617.72 3285.09,1673.2 3285.08,1673.2 3235.19,1730.71 3235.18,1730.72 3187.57,1790.18 3187.56,1790.19 3142.3,1851.56 3142.29,1851.57 3099.45,1914.76 3099.44,1914.76 3059.09,1979.71 3059.08,1979.72 3021.29,2046.35 3021.28,2046.36 2998.66,2090.26 3862.78,1561.01 3842.02,1573.87 3821.46,1587.02 3801.13,1600.48 3781,1614.24 3761.09,1628.29 3768.08,1637.66 3774.82,1647.29 3781.33,1657.14 3787.6,1667.19 3793.63,1677.41 3799.44,1687.76 3805.01,1698.23 3805.28,1698.76 4251.35,1427.36 4262.76,1420.46 4274.83,1414.66 4287.51,1410.04 4300.71,1406.65 4314.36,1404.56 4328.4,1403.85 4342.59,1404.56 4356.35,1406.65 4369.63,1410.04 4382.36,1414.66 4394.45,1420.46 4405.85,1427.36 4416.47,1435.29 4426.28,1444.18 4435.19,1453.99 4443.12,1464.62 4450.02,1476.02 4455.82,1488.11 4460.46,1500.83 4463.84,1514.12 4465.93,1527.9 4466.64,1542.1 4466.34,1551.25 4465.46,1560.26 4464.01,1569.09 4462.02,1577.73 4459.97,1584.57 4841.24,1356.78 4826.42,1369.15 4814.22,1384.14 4805.03,1401.34 4799.21,1420.34 4797.2,1440.73 4797.18,1572.42 4802.83,1580.58 4809.14,1589.05 4816.13,1597.79 4823.82,1606.73 4832.21,1615.79 4841.35,1624.93 4851.24,1634.09 4861.9,1643.19 4873.34,1652.19 4885.59,1661.01 4898.66,1669.59 4912.58,1677.89 4927.36,1685.83 4943.02,1693.35 4959.57,1700.39 4977.05,1706.89 4993.98,1712.27 5010.65,1717.05 5027.04,1721.26 5043.12,1724.95 5058.88,1728.1 5074.3,1730.79 5089.36,1733.02 5104.02,1734.81 5118.3,1736.21 5132.15,1737.24 5142.26,1737.76 5264.07,1667.56 5273.14,1662.6 5282.62,1658.33 5292.49,1654.75 5302.7,1651.93 5313.24,1649.86 5324.05,1648.6 5335.11,1648.17 5349.14,1648.88 5362.77,1650.97 5375.93,1654.36 5388.55,1658.98 5400.55,1664.78 5411.88,1671.68 5422.45,1679.62 5432.21,1688.51 5441.07,1698.32 5448.98,1708.96 5455.86,1720.37 5461.64,1732.47 5466.26,1745.2 5469.65,1758.5 5471.74,1772.29 5472.45,1786.51 5471.74,1800.54 5469.65,1814.19 5466.89,1824.95 5599.22,1750.02 5610.53,1743.77 5621.97,1738.04 5633.54,1732.84 5645.21,1728.11 5656.98,1723.88 5668.82,1720.11 5680.71,1716.76 5692.64,1713.85 5704.59,1711.34 5716.55,1709.21 5728.49,1707.46 5740.4,1706.05 5439.32,1876.12 5432.2,1884.03 5422.44,1892.97 5411.87,1900.97 5400.53,1907.93 5104.72,2074.92 5109.45,2076.29 5118.28,2078.45 5127.98,2080.52 5138.58,2082.55 5150.16,2084.56 5162.77,2086.65 5170.45,2087.75 5178.24,2088.91 5186.12,2090.16 5194.08,2091.49 5202.11,2092.96 5210.2,2094.57 5217.14,2096.08 5448.82,1966.02 5457.36,1961.65 5217.68,2096.19 5218.36,2096.34 5226.55,2098.28 5234.77,2100.43 5243.02,2102.8 5251.29,2105.39 5254.69,2106.57 5676.65,1870.21 5661.51,1879.11 5647.66,1889.61 5638.83,1897.86 5630.82,1906.89 5623.62,1916.72 5617.25,1927.33 5611.71,1938.72 5607.05,1950.93 5603.25,1963.91 5600.32,1977.7 5612.15,1987.6 5622.73,1998.72 5631.94,2010.97 5639.71,2024.25 5645.93,2038.46 5650.5,2053.5 5653.31,2069.29 5654.27,2085.71 5653.56,2099.91 5651.47,2113.69 5648.08,2126.97 5643.46,2139.69 5637.65,2151.78 5630.75,2163.19 5622.81,2173.82 5613.91,2183.61 5604.11,2192.52 5593.47,2200.45 5582.07,2207.35 5437.27,2286.94 5438.17,2289.22 5445.11,2311.43 5450.58,2334.49 5454.54,2358.33 5457.01,2382.93 5457.93,2408.24 5457.57,2422.76 5891.23,2186.77 5903.14,2180.42 5915.45,2174.36 5928.14,2168.64 5941.22,2163.27 5954.66,2158.3 5968.47,2153.75 5982.66,2149.66 5997.22,2146.04 6012.13,2142.95 6027.39,2140.39 6043.01,2138.41 6058.97,2137.03 6075.26,2136.3 6091.91,2136.22 6108.87,2136.84 5449.73,2493.91 5449.4,2495.79 5444.99,2515.86 5439.72,2535.65 5433.65,2555.11 5426.78,2574.2 5419.17,2592.89 5414.04,2604.09 5970.03,2304.78 5954.94,2313.18 5941.08,2322.04 5928.42,2331.18 5917.01,2340.37 5906.82,2349.38 5897.86,2358.01 5890.15,2366.04 5891.76,2372.65 5893.37,2379.69 5894.96,2387.16 5896.51,2395.02 5898.02,2403.29 5899.47,2411.94 5900.84,2420.95 5902.11,2430.34 5903.27,2440.07 5904.3,2450.13 5905.2,2460.51 5905.93,2471.21 5906.48,2482.2 5906.85,2493.49 5907.01,2505.04 5906.95,2516.86 5906.64,2528.92 5906.09,2541.23 5905.26,2553.75 5904.14,2566.5 5902.72,2579.44 5901,2592.58 5898.93,2605.89 5896.51,2619.37 5893.73,2633 5890.56,2646.77 5887,2660.67 5883.02,2674.68 5878.62,2688.8 5873.77,2703.02 5868.46,2717.31 5862.66,2731.66 5856.3,2745.43 5849.22,2759.12 5841.42,2772.7 5832.89,2786.17 5823.64,2799.51 5813.69,2812.71 5803.01,2825.74 5791.62,2838.6 5791.94,2840.38 5792.18,2842.08 5792.35,2843.71 5792.47,2845.32 5792.54,2846.92 5792.57,2848.53 5792.59,2850.17 5792.59,2851.86 5791.88,2865.91 5789.79,2879.57 5786.4,2892.78 5781.76,2905.46 5775.96,2917.53 5769.05,2928.95 5761.1,2939.61 5752.18,2949.45 5742.37,2958.41 5731.72,2966.41 5720.32,2973.38 5534.75,3069.63 6096.62,3069.63 6327.69,2952.22 6328.67,2952.18 6097.51,3069.63 6210.03,3069.63 6221.96,3069.02 6233.57,3067.24 6244.79,3064.32 6255.56,3060.36 6265.82,3055.39 5407.59,3489.26 6428.87,3489.27 6447.63,3488.32 6465.86,3485.53 6483.46,3480.99 6500.34,3474.81 6516.39,3467.06 5588.03,3918.53 5588.03,3951.51 5773.6,3861.49 5764.29,3866.22 5755.45,3871.99 5747.09,3878.81 5739.19,3886.68 5732.01,3895.54 5725.78,3905.34 5720.51,3916.08 5716.2,3927.75 5712.84,3940.37 5711.84,3945.98 5893.04,3858.45 5893.04,3894.33 5858.57,3910.94 5860.12,3911.77 5864.83,3915.04 5869.26,3918.91 5873.43,3923.37 5877.23,3928.44 5880.53,3934.15 5883.31,3940.49 5885.59,3947.47 5886.46,3951.21 6072.39,3862 6062.27,3867.02 6052.69,3873.17 6043.66,3880.43 6035.17,3888.8 6027.47,3898.14 6020.79,3908.34 6015.15,3919.4 6010.53,3931.31 6006.93,3944.08 6004.87,3954.98 6102.51,3908.35 6107.14,3906.6 6112.02,3905.35 6117.12,3904.59 6122.46,3904.34 6127.49,3904.58 6132.33,3905.29 6136.96,3906.47 6141.39,3908.12 6145.64,3910.26 6149.69,3912.88 6153.54,3915.96 6157.21,3919.54 6159.16,3921.86 6292.33,3858.45 6292.33,3910.95 6391.94,3863.71 6381.74,3869.69 6372.07,3877.01 6362.94,3885.66 6354.34,3895.63 6292.33,3925.01 6292.33,3956.2 6390.73,3909.69 6394.5,3908.05 6398.37,3906.72 6402.37,3905.68 6406.47,3904.94 6410.69,3904.49 6415.04,3904.34 6418.39,3904.44 6421.63,3904.75 6424.73,3905.27 6427.73,3906 6430.59,3906.94 6433.34,3908.08 6435.96,3909.44 6438.45,3911.01 6440.81,3912.77 6442.99,3914.68 6444.99,3916.77 6446.84,3919.02 6448.51,3921.44 6450.02,3924.03 6451.35,3926.79 6452.53,3929.72 6453.53,3933.17 6454.41,3937.52 6455.15,3942.77 6455.76,3948.94 6455.99,3952.3 6638.06,3866.73 6627.97,3872.75 6618.6,3879.86 6609.96,3888.06 6602.2,3897.25 6595.48,3907.3 6589.79,3918.22 6585.14,3930 6581.52,3942.65 6578.92,3956.18 6578.89,3956.5 6678.01,3910.13 6683.16,3908.23 6688.63,3906.88 6694.42,3906.07 6700.52,3905.8 6705.1,3905.96 6709.46,3906.43 6713.61,3907.2 6717.54,3908.29 6721.25,3909.69 6724.75,3911.4 6728.03,3913.41 6731.1,3915.73 6733.93,3918.38 6736.49,3921.33 6738.78,3924.58 6740.8,3928.12 6742.56,3931.97 6744.05,3936.12 6745.21,3940.37 6913.53,3862 6903.42,3867.02 6893.83,3873.17 6884.81,3880.43 6876.32,3888.8 6868.62,3898.14 6861.95,3908.34 6856.3,3919.4 6851.68,3931.31 6848.08,3944.08 6846.32,3953.47 6943.67,3908.35 6948.3,3906.6 6953.16,3905.35 6958.27,3904.59 6963.61,3904.34 6968.64,3904.58 6973.47,3905.29 6978.11,3906.47 6982.54,3908.12 6986.78,3910.26 6990.84,3912.88 6994.69,3915.96 6998.35,3919.54 7001.71,3923.54 7004.64,3927.99 7007.14,3932.89 7009.23,3938.21 7010.89,3943.98 7012.12,3950.18 7012.93,3956.82 7013.33,3963.89 6924.26,4004.9 7079.71,4004.9 7007.32,4038.05 7006.35,4040.61 7004.58,4044.55 7002.64,4048.16 7000.53,4051.45 6998.27,4054.4 6995.83,4057.03 6993.22,4059.32 6990.49,4061.32 6987.6,4063.06 6984.55,4064.53 6900.41,4103 6908.76,4107.34 6921.52,4112.06 6935.35,4115.44 6950.25,4117.46 6966.22,4118.14 6976.41,4117.84 6986.17,4116.93 6995.51,4115.43 7004.41,4113.32 7012.88,4110.63 7020.92,4107.32 4436.79,5283.66 4318.62,5283.66 4286.84,5283.66 4276.3,5283.66 4195.58,5283.66 4146.58,5283.66 4135.78,5283.66 4070.62,5283.66 4009.05,5283.66 3993.46,5283.66 3976.16,5283.66 3932.64,5283.66 3907.06,5283.66 3870.49,5283.66 3860.03,5283.66 3843.83,5283.66 3782.98,5283.66 3741.66,5283.66 3671.93,5283.66 3623.14,5283.66 3605.24,5283.66 3556.27,5283.66 3527.96,5283.66 3515.87,5283.66 3484.7,5283.66 3483.52,5283.66 3424.33,5283.66 3397.76,5283.66 3390.09,5283.66 3376.92,5283.66 3365.24,5283.66 3337.04,5283.66 3298.98,5283.66 3290.72,5283.66 3271.65,5283.66 3222.84,5283.66 3203.17,5283.66 3142.33,5283.66 3109.36,5283.66 3079.8,5283.66 3018.98,5283.66 3009.18,5283.66 2962.68,5283.66 2956.43,5283.66 2942.73,5283.66 2895.61,5283.66 2841.77,5283.66 2783.98,5283.66 2780.83,5283.66 2744.49,5283.66 2671.28,5283.66 2670.61,5283.66 2667.88,5283.66 2646.96,5283.66 2633.04,5283.66 2608.36,5283.66 2604.13,5283.66 2511.84,5283.66 2496.26,5283.66 2495.9,5283.66 2439.17,5283.66 2378.33,5283.66 2376.15,5283.66 2348.29,5283.66 2289.53,5283.66 2256.01,5283.66 2240.04,5283.66 2237.83,5283.66 2228.68,5283.66 2198.92,5283.66 2168.81,5283.66 2139.02,5283.66 2111.46,5283.66 2104.43,5283.66 2043.99,5283.66 2016.54,5283.66 1954.87,5283.66 1953.06,5283.66 1944.53,5283.66 1920.31,5283.66 1895.51,5283.66 1872.63,5283.66 1859.48,5283.66 1858.05,5283.66 1834.79,5283.66 1812.35,5283.66 1774.46,5283.66 1751.97,5283.66 1740.06,5283.66 1739.45,5283.66 1739.31,5283.66 1707.32,5283.66 1695.13,5283.66 1630.08,5283.66 1549.99,5283.66 1524.79,5283.66 1493.37,5283.66 1489.17,5283.66 1485.61,5283.66 1448.74,5283.66 1398.4,5283.66 1384.13,5283.66 1349.39,5283.66 1319.96,5283.66 1276.45,5283.66 1269.09,5283.66 1266.24,5283.66 1247.08,5283.66 1216.98,5283.66 1212.13,5283.66 1179.69,5283.66 1137.73,5283.66 1136.06,5283.66 1132.31,5283.66 1131.93,5283.66 1123.99,5283.66 1118.88,5283.66 1110.07,5283.66 1093.26,5283.66 1050.56,5283.66 1049.12,5283.66 1038.95,5283.66 1000.15,5283.66 991.05,5283.66 978.12,5283.66 971.68,5283.66 961.51,5283.66 908.47,5283.66 898.4,5283.66 886.49,5283.66 862.45,5283.66 854.38,5283.66 847.65,5283.66 803.62,5283.66 800.79,5283.66 772.63,5283.66 743.28,5283.66 740.98,5283.66 703.5,5283.66 695.94,5283.66 688.3,5283.66 685.92,5283.66 636.04,5283.66 628.79,5283.66 602.81,5283.66 585.14,5283.66 581.29,5283.66 577.92,5283.66 575.04,5283.66 564.59,5283.66 555.41,5283.66 552.64,5283.66 547.86,5283.66 537.74,5283.66 525.91,5283.66 524.32,5283.66 514.77,5283.66 493.15,5283.66 466.39,5283.66 463.68,5283.66 460.7,5283.66 444.36,5283.66 425.29,5283.66 423.82,5283.66 423.07,5283.66 422.96,5283.66 419.89,5283.66 411.93,5283.66 406.03,5283.66 386.86,5283.66 365.39,5283.66 363.45,5283.66 345.74,5283.66 338.93,5283.66 337.83,5283.66 306.93,5283.66 282.92,5283.66 277.49,5283.66 263,5283.66 261.8,5283.66 251.83,5283.66 250.04,5283.66 242.41,5283.66 222.91,5283.66 217.2,5283.66 217.08,5283.66 195.07,5283.66 189.95,5283.66 187.78,5283.66 174.34,5283.66 144.35,5283.66 136.26,5283.66 102.75,5283.66 66.01,5283.66 55.74,5283.66 -0,5283.66 -0,5246.49 -0,5246.41 -0,5243.79 -0,5238.9 -0,5222.8 -0,5157.55 -0,5151.76 -0,5143.33 -0,5131.43 -0,5123.32 -0,5119.14 -0,5112.48 -0,5079.88 -0,5072.35 -0,5067.69 -0,5050.67 -0,5036.02 -0,5015.48 -0,4992.45 -0,4972.58 -0,4970.54 -0,4940.38 -0,4903.44 -0,4901.73 -0,4901.49 -0,4901.35 -0,4901.16 -0,4901.03 -0,4900.54 -0,4900.33 -0,4897.54 -0,4897.19 -0,4893.58 -0,4891.15 -0,4890.48 -0,4890.4 -0,4889.54 -0,4889.48 -0,4888.89 -0,4884.09 -0,4883.53 -0,4883.49 -0,4873.49 -0,4872.31 -0,4872.17 -0,4871.84 -0,4869.48 -0,4867.15 -0,4864.02 -0,4853.17 -0,4853.03 -0,4846.73 -0,4845.25 -0,4832.29 -0,4821.75 -0,4802.68 -0,4802.61 -0,4798.88 -0,4776.11 -0,4769.37 -0,4767.58 -0,4743.97 -0,4737.51 -0,4730.97 -0,4730.51 -0,4722.51 -0,4722.03 -0,4718.93 -0,4718.41 -0,4717.01 -0,4706.98 -0,4701.65 -0,4698.83 -0,4693.27 -0,4678.6 -0,4676.11 -0,4605.19 -0,4603.9 -0,4599.29 -0,4577.84 -0,4577.83 -0,4569.26 -0,4568.04 -0,4530.48 -0,4501.95 -0,4501.05 -0,4499.25 -0,4498.81 -0,4498.09 -0,4497.84 -0,4497.58 -0,4497.07 -0,4496.46 -0,4490.18 -0,4482.5 -0,4472.43 -0,4462.36 -0,4459.08 -0,4450.15 -0,4436.27 -0,4403.93 -0,4399.75 -0,4390.64 -0,4367.54 -0,4364.44 -0,4357.52 -0,4325.52 -0,4324.32 -0,4316.42 -0,4297.36 "/>
  <path class="fil2" d="M578.49 4627.69c17.95,27.21 29.6,53.36 40.96,82.43 8.45,16.91 12.93,48.09 52.57,48.09 11.61,0 28.28,-3.42 43.06,-11.61 16.63,-8.73 29.32,-21.94 35.94,-42l15.85 -53.36 38.57 -19.02 2.64 2.64c-5.27,20.09 -6.59,39.36 -6.59,54.43 0,44.63 38.57,61.56 69.22,61.56 17.95,0 34.09,-8.73 34.09,-25.11 0,-21.13 -8.98,-57.06 -20.62,-89.29 17.95,-17.95 35.94,-35.94 56.53,-50.47l3.17 1.6c8.98,38.04 14,75.56 14,100.66 0,24.57 -10.83,51.79 -19.81,69.49 -18.49,34.87 -51.25,62.62 -90.87,62.62 -30.1,0 -63.65,-15.07 -86.66,-43.06l-1.32 0c-21.66,26.96 -55.22,51.25 -108.86,51.25l-16.63 0c-2.64,35.41 -10.29,60.49 -21.94,82.95 -31.95,62.34 -126.81,106.47 -216.1,106.47 -124.17,0 -186.51,-71.59 -186.51,-166.96 0,-58.91 19.27,-113.6 48.88,-152.42l24.29 10.04c-18.49,35.41 -30.91,68.68 -30.91,101.45 0,89.29 72.66,131.83 156.4,131.83 77.68,0 173.83,-49.41 191.28,-106.72 -6.59,-62.62 -30.1,-91.93 -66.04,-148.99 10.83,-19.02 24.83,-38.04 42.28,-58.38l3.17 0 0 0 0 0 -0.02 -0.09zm1432.13 -336.04c26.15,16.39 51.79,35.66 76.87,57.85 -14,19.81 -31.45,37.79 -53.11,53.64 -25.11,-20.34 -50.19,-37.79 -75.84,-56.27 17.42,-19.55 34.62,-38.29 52.04,-55.22l0 0 0 0 0 0 0 0 0 0 0.03 0zm13.47 244.11c-42.28,0 -76.87,27.75 -76.87,48.34 0,44.13 84.53,57.85 185.72,57.31 -12.68,-51.79 -57.06,-105.68 -108.86,-105.68l0.01 0.03zm-94.86 236.19c54.96,0 103.04,-1.6 139.74,-10.83 40.96,-10.29 75.56,-30.91 75.56,-45.17 0,-3.7 0,-8.19 -1.32,-11.89 -22.98,2.11 -49.41,2.11 -72.38,2.11 -74.49,0 -131.55,-16.91 -154.02,-58.66 -5.55,-11.61 -9.51,-24.57 -9.51,-39.36 0,-40.43 17.42,-79.79 48.09,-107 25.61,-22.45 53.89,-36.44 82.67,-36.44 52.04,0 93.51,41.75 122.57,107.54 15.85,35.94 26.68,77.4 26.68,129.72 0,34.87 -9.51,64.19 -31.17,85.85 -40.43,39.11 -114.92,53.89 -229.04,53.89l-51.79 0 0 0 -13.47 0c-28.28,0 -48.62,-5.02 -64.72,-17.42l-2.64 0c0.79,6.59 1.32,12.93 1.32,19.02 0,25.61 -8.45,58.38 -25.61,84.53 -50.72,75.3 -105.68,108.04 -153.24,108.04 -48.09,0 -107,-18.49 -160.11,-42.54l9.51 -18.49c17.17,7.13 40.96,11.89 73.7,11.89 85.85,0 198.66,-82.43 212.66,-163 -3.17,-6.59 -8.98,-15.32 -17.17,-24.57 -25.11,-29.85 -40.96,-54.68 -55.75,-80.83 12.68,-25.11 24.29,-45.17 35.13,-63.4l4.49 -0.53c36.72,74.77 69.99,117.55 144.23,117.55l11.61 0 0 0 53.89 0 0 0 0 0 0 0 0 0 0 0 0.09 0.01zm-371.98 79c6.34,-34.34 6.87,-72.91 6.87,-108.86l0 -53.36c0,-99.6 -12.68,-244.36 -22.98,-338.68 17.95,-19.27 43.06,-42 62.87,-57.31l5.81 1.6c13.47,118.62 16.63,256 16.63,383.06 0,33.3 -1.32,65.79 -4.49,89.55 -1.85,30.1 -19.27,52.83 -56.53,87.7l-8.19 -3.7zm-382.8 -157.19c1.85,46.77 24.83,83.49 105.15,83.49 49.93,0 92.19,-12.93 138.96,-35.13 8.45,-3.7 12.93,-8.73 12.93,-12.93 0,-29.32 -22.45,-68.15 -60.23,-103.55 -36.72,-33.3 -85.34,-62.62 -130.76,-82.18 -15.6,-6.59 -20.62,-13.47 -20.62,-20.09 0,-13.47 17.95,-41.75 32.77,-62.09l5.02 -0.53c52.04,27.21 110.17,67.64 153.24,112.53 39.11,41.47 63.4,83.49 63.4,129.19 0,33.81 -10.29,65.51 -26.96,95.11 -57.06,28.79 -117.83,50.72 -178.06,50.72 -73.17,0 -123.1,-34.34 -123.1,-114.92 0,-8.73 0,-22.19 3.17,-39.64l25.11 0 0 0 0 0 0 0 0 0 0 0 -0.02 0zm-132.37 -132.9l45.45 73.45c16.63,27.21 32.23,56.81 32.23,103.55l0 59.7c0,48.34 -30.91,100.13 -80.83,151.38 -39.11,34.62 -73.7,49.41 -105.68,49.41 -47.55,0 -101.98,-14.79 -164.85,-41.75l7.13 -18.49c19.81,5.27 42.79,9.77 71.06,9.77 90.36,-0.53 182.8,-66.57 225.08,-147.15 5.02,-9.26 6.87,-17.95 6.87,-24.04 0,-9.26 -5.02,-19.55 -8.98,-28.79 -22.98,-43.31 -48.62,-82.95 -76.87,-119.68 14.79,-23.25 29.6,-45.7 45.7,-67.9l3.7 0.53 0 0 0 0 0 0 0 0 0 0 -0.02 0.01z"/>
  <g id="_3064974627152">
   <path class="fil3" d="M2675.63 4111.8l-76.22 0 -30.17 -79.56 -140.19 0 -29.07 79.56 -74.84 0 135.71 -349.5 74.77 0 140.01 349.5zm-129.35 -138.64l-48.58 -129.35 -47.19 129.35 95.77 0zm230.48 138.64l-66.87 0 0 -253.35 61.99 0 0 35.98c10.65,-17.01 20.26,-28.17 28.82,-33.45 8.53,-5.28 18.22,-7.9 29.04,-7.9 15.29,0 30.01,4.22 44.19,12.62l-20.76 58.41c-11.3,-7.32 -21.81,-10.99 -31.5,-10.99 -9.42,0 -17.39,2.62 -23.9,7.75 -6.52,5.19 -11.64,14.46 -15.38,27.98 -3.74,13.5 -5.62,41.82 -5.62,84.85l0 78.1zm241.73 -253.35l0 53.21 -45.89 0 0 102.6c0,20.82 0.4,32.93 1.3,36.35 0.89,3.42 2.84,6.27 6.02,8.55 3.09,2.2 6.83,3.33 11.3,3.33 6.27,0 15.23,-2.13 27.02,-6.42l5.62 52.05c-15.56,6.67 -33.13,10 -52.81,10 -12.04,0 -22.86,-2.02 -32.55,-6.09 -9.68,-4.07 -16.74,-9.36 -21.23,-15.79 -4.56,-6.51 -7.65,-15.22 -9.45,-26.28 -1.39,-7.81 -2.1,-23.59 -2.1,-47.44l0 -110.88 -30.76 0 0 -53.21 30.76 0 0 -50.28 66.87 -39.54 0 89.82 45.89 0zm46.86 -34.17l0 -61.99 66.87 0 0 61.99 -66.87 0zm0 287.51l0 -253.35 66.87 0 0 253.35 -66.87 0zm106.34 -253.35l37.09 0 0 -19.12c0,-21.32 2.29,-37.25 6.83,-47.76 4.56,-10.58 12.94,-19.11 25.14,-25.69 12.28,-6.61 27.73,-9.94 46.45,-9.94 19.12,0 37.92,2.85 56.3,8.56l-8.56 46.52c-10.9,-2.51 -21.38,-3.81 -31.47,-3.81 -9.91,0 -17.01,2.27 -21.32,6.83 -4.31,4.54 -6.51,13.35 -6.51,26.35l0 18.07 50.28 0 0 52.72 -50.28 0 0 200.63 -66.87 0 0 -200.63 -37.09 0 0 -52.72zm191.83 -34.17l0 -61.99 66.87 0 0 61.99 -66.87 0zm0 287.51l0 -253.35 66.87 0 0 253.35 -66.87 0zm356.25 -178.17l-65.91 11.7c-2.2,-13.09 -7.23,-22.93 -15.14,-29.6 -7.88,-6.6 -18.06,-9.93 -30.57,-9.93 -16.66,0 -30,5.77 -39.94,17.32 -9.92,11.55 -14.89,30.85 -14.89,57.94 0,30.1 5.05,51.33 15.13,63.77 10.1,12.45 23.6,18.63 40.5,18.63 12.7,0 23.11,-3.65 31.16,-10.9 8.13,-7.23 13.84,-19.68 17.17,-37.41l65.88 11.22c-6.82,30.26 -19.92,53.12 -39.28,68.59 -19.37,15.45 -45.31,23.17 -77.93,23.17 -36.91,0 -66.45,-11.71 -88.43,-35.06 -22.06,-23.44 -33.03,-55.82 -33.03,-97.23 0,-41.89 11.06,-74.44 33.12,-97.78 22.05,-23.35 51.91,-34.99 89.54,-34.99 30.76,0 55.25,6.67 73.48,19.94 18.13,13.26 31.16,33.43 39.13,60.61zm50.83 -109.34l0 -61.99 66.88 0 0 61.99 -66.88 0zm0 287.51l0 -253.35 66.88 0 0 253.35 -66.88 0zm185.42 -175.24l-60.54 -10.74c6.85,-24.71 18.62,-43.02 35.31,-54.92 16.67,-11.86 41.51,-17.81 74.37,-17.81 29.86,0 52.16,3.51 66.8,10.58 14.56,7.08 24.9,16.03 30.83,26.93 5.93,10.9 8.96,30.83 8.96,59.96l-0.99 78.1c0,22.21 1.05,38.64 3.18,49.24 2.11,10.56 6.11,21.87 11.96,33.91l-66.38 0c-1.73,-4.38 -3.92,-10.89 -6.43,-19.52 -1.07,-3.98 -1.88,-6.6 -2.37,-7.81 -11.4,11.21 -23.6,19.61 -36.6,25.23 -13.03,5.59 -26.84,8.44 -41.58,8.44 -25.94,0 -46.45,-7.08 -61.43,-21.23 -14.98,-14.08 -22.46,-31.96 -22.46,-53.61 0,-14.24 3.42,-27.03 10.25,-38.24 6.83,-11.14 16.35,-19.77 28.73,-25.7 12.28,-5.95 30.01,-11.14 53.19,-15.63 31.25,-5.86 52.97,-11.39 65.01,-16.43l0 -6.77c0,-13 -3.19,-22.3 -9.52,-27.89 -6.43,-5.55 -18.47,-8.31 -36.14,-8.31 -11.95,0 -21.22,2.35 -27.89,7.16 -6.77,4.7 -12.14,13.1 -16.28,25.05zm89.81 54.18c-8.53,2.87 -22.12,6.27 -40.77,10.25 -18.53,3.98 -30.73,7.91 -36.44,11.64 -8.69,6.27 -13.1,14.08 -13.1,23.59 0,9.43 3.51,17.48 10.5,24.31 7.01,6.85 15.87,10.25 26.68,10.25 12.05,0 23.6,-3.98 34.59,-11.86 8.04,-6.11 13.41,-13.44 15.95,-22.22 1.7,-5.7 2.6,-16.6 2.6,-32.64l0 -13.34zm131.88 121.07l0 -349.5 66.87 0 0 349.5 -66.87 0zm269.29 0l0 -349.5 70.76 0 0 349.5 -70.76 0zm367.98 0l-66.88 0 0 -129.1c0,-27.36 -1.48,-44.99 -4.31,-52.97 -2.94,-8.06 -7.57,-14.24 -14.09,-18.71 -6.49,-4.47 -14.3,-6.67 -23.41,-6.67 -11.73,0 -22.21,3.18 -31.49,9.52 -9.37,6.36 -15.7,14.8 -19.12,25.23 -3.49,10.47 -5.19,29.83 -5.19,58.16l0 114.55 -66.9 0 0 -253.35 62.02 0 0 37.18c22.21,-28.39 50.1,-42.56 83.86,-42.56 14.82,0 28.41,2.69 40.68,7.97 12.38,5.37 21.65,12.13 27.92,20.35 6.33,8.31 10.74,17.66 13.18,28.14 2.51,10.5 3.74,25.48 3.74,45l0 157.26zm183.46 -253.35l0 53.21 -45.9 0 0 102.6c0,20.82 0.41,32.93 1.3,36.35 0.9,3.42 2.85,6.27 6.02,8.55 3.1,2.2 6.83,3.33 11.31,3.33 6.26,0 15.22,-2.13 27.02,-6.42l5.62 52.05c-15.57,6.67 -33.14,10 -52.81,10 -12.05,0 -22.87,-2.02 -32.55,-6.09 -9.68,-4.07 -16.75,-9.36 -21.23,-15.79 -4.56,-6.51 -7.66,-15.22 -9.45,-26.28 -1.39,-7.81 -2.11,-23.59 -2.11,-47.44l0 -110.88 -30.76 0 0 -53.21 30.76 0 0 -50.28 66.87 -39.54 0 89.82 45.9 0zm193.29 173.3l66.89 11.21c-8.55,24.49 -22.14,43.14 -40.61,55.99 -18.53,12.76 -41.73,19.19 -69.46,19.19 -44.01,0 -76.65,-14.4 -97.72,-43.18 -16.67,-23.11 -25.05,-52.23 -25.05,-87.47 0,-41.98 10.97,-74.93 32.87,-98.68 21.89,-23.84 49.62,-35.73 83.14,-35.73 37.58,0 67.29,12.44 89.08,37.33 21.74,24.9 32.15,63.06 31.16,114.49l-167.44 0c0.5,19.84 5.87,35.31 16.19,46.37 10.25,11.05 23.12,16.6 38.42,16.6 10.49,0 19.27,-2.87 26.35,-8.55 7.16,-5.69 12.53,-14.89 16.19,-27.58zm3.91 -67.86c-0.49,-19.43 -5.46,-34.26 -14.98,-44.35 -9.52,-10.16 -21.07,-15.2 -34.75,-15.2 -14.55,0 -26.59,5.37 -36.11,16.03 -9.52,10.66 -14.15,25.21 -13.99,43.52l99.82 0zm121.14 147.91l0 -349.5 66.87 0 0 349.5 -66.87 0zm135.62 0l0 -349.5 66.87 0 0 349.5 -66.87 0zm135.61 -287.51l0 -61.99 66.88 0 0 61.99 -66.88 0zm0 287.51l0 -253.35 66.88 0 0 253.35 -66.88 0zm129.26 16.13l76.65 9.27c1.3,9.03 4.23,15.2 8.78,18.62 6.43,4.81 16.44,7.26 30.11,7.26 17.48,0 30.57,-2.62 39.38,-7.91 5.86,-3.48 10.31,-9.11 13.34,-16.92 2.04,-5.52 3.09,-15.87 3.09,-30.75l0.34 -37c-20.19,27.58 -45.58,41.32 -76.16,41.32 -34,0 -61.03,-14.39 -80.86,-43.11 -15.63,-22.7 -23.44,-51.02 -23.44,-84.78 0,-42.47 10.25,-74.84 30.67,-97.22 20.42,-22.37 45.89,-33.6 76.31,-33.6 31.32,0 57.2,13.76 77.53,41.26l0 -35.89 62.48 0 0 227.16c0,29.86 -2.44,52.23 -7.38,66.96 -4.88,14.8 -11.8,26.35 -20.76,34.82 -8.87,8.37 -20.75,15.04 -35.64,19.77 -14.89,4.81 -33.67,7.16 -56.37,7.16 -42.95,0 -73.38,-7.41 -91.36,-22.12 -18,-14.82 -26.93,-33.45 -26.93,-56.15 0,-2.2 0.07,-4.97 0.22,-8.13zm60.07 -147.92c0,26.84 5.19,46.46 15.54,58.9 10.4,12.45 23.25,18.72 38.48,18.72 16.26,0 30.08,-6.43 41.33,-19.21 11.3,-12.78 16.92,-31.65 16.92,-56.7 0,-26.2 -5.37,-45.65 -16.21,-58.34 -10.72,-12.7 -24.4,-19.03 -40.93,-19.03 -16.01,0 -29.2,6.27 -39.6,18.71 -10.34,12.45 -15.54,31.41 -15.54,56.95zm390.9 51.74l66.89 11.21c-8.55,24.49 -22.14,43.14 -40.61,55.99 -18.53,12.76 -41.73,19.19 -69.46,19.19 -44.01,0 -76.65,-14.4 -97.72,-43.18 -16.67,-23.11 -25.05,-52.23 -25.05,-87.47 0,-41.98 10.97,-74.93 32.87,-98.68 21.9,-23.84 49.63,-35.73 83.14,-35.73 37.58,0 67.3,12.44 89.08,37.33 21.74,24.9 32.15,63.06 31.16,114.49l-167.43 0c0.49,19.84 5.86,35.31 16.19,46.37 10.25,11.05 23.12,16.6 38.41,16.6 10.5,0 19.28,-2.87 26.35,-8.55 7.17,-5.69 12.54,-14.89 16.19,-27.58zm3.91 -67.86c-0.49,-19.43 -5.46,-34.26 -14.97,-44.35 -9.52,-10.16 -21.07,-15.2 -34.75,-15.2 -14.56,0 -26.6,5.37 -36.12,16.03 -9.52,10.66 -14.15,25.21 -13.99,43.52l99.82 0zm351.55 147.91l-66.87 0 0 -129.1c0,-27.36 -1.48,-44.99 -4.32,-52.97 -2.93,-8.06 -7.57,-14.24 -14.08,-18.71 -6.49,-4.47 -14.31,-6.67 -23.41,-6.67 -11.73,0 -22.21,3.18 -31.5,9.52 -9.36,6.36 -15.7,14.8 -19.12,25.23 -3.48,10.47 -5.19,29.83 -5.19,58.16l0 114.55 -66.89 0 0 -253.35 62.01 0 0 37.18c22.22,-28.39 50.1,-42.56 83.86,-42.56 14.83,0 28.42,2.69 40.68,7.97 12.38,5.37 21.65,12.13 27.92,20.35 6.34,8.31 10.74,17.66 13.19,28.14 2.51,10.5 3.73,25.48 3.73,45l0 157.26zm288.41 -178.17l-65.91 11.7c-2.19,-13.09 -7.23,-22.93 -15.13,-29.6 -7.89,-6.6 -18.07,-9.93 -30.58,-9.93 -16.67,0 -30.02,5.77 -39.96,17.32 -9.91,11.55 -14.89,30.85 -14.89,57.94 0,30.1 5.06,51.33 15.13,63.77 10.1,12.45 23.6,18.63 40.53,18.63 12.69,0 23.11,-3.65 31.16,-10.9 8.13,-7.23 13.83,-19.68 17.16,-37.41l65.89 11.22c-6.83,30.26 -19.93,53.12 -39.29,68.59 -19.36,15.45 -45.31,23.17 -77.93,23.17 -36.93,0 -66.47,-11.71 -88.45,-35.06 -22.06,-23.44 -33.02,-55.82 -33.02,-97.23 0,-41.89 11.05,-74.44 33.11,-97.78 22.05,-23.35 51.91,-34.99 89.56,-34.99 30.76,0 55.26,6.67 73.48,19.94 18.13,13.26 31.16,33.43 39.13,60.61zm197.27 98.12l66.9 11.21c-8.56,24.49 -22.15,43.14 -40.61,55.99 -18.54,12.76 -41.74,19.19 -69.47,19.19 -44.01,0 -76.65,-14.4 -97.71,-43.18 -16.68,-23.11 -25.05,-52.23 -25.05,-87.47 0,-41.98 10.96,-74.93 32.86,-98.68 21.9,-23.84 49.63,-35.73 83.14,-35.73 37.59,0 67.3,12.44 89.09,37.33 21.74,24.9 32.14,63.06 31.16,114.49l-167.44 0c0.49,19.84 5.86,35.31 16.19,46.37 10.25,11.05 23.12,16.6 38.41,16.6 10.5,0 19.28,-2.87 26.35,-8.55 7.17,-5.69 12.54,-14.89 16.19,-27.58zm3.92 -67.86c-0.5,-19.43 -5.46,-34.26 -14.98,-44.35 -9.52,-10.16 -21.07,-15.2 -34.75,-15.2 -14.55,0 -26.6,5.37 -36.11,16.03 -9.52,10.66 -14.15,25.21 -14,43.52l99.83 0z"/>
   <g>
    <path class="fil4" d="M5218.58 1113.24c-388.18,-106.19 -413.79,35.89 -516.13,35.89 -102.27,0 -142.03,-152.42 -518.01,-35.89 -802.16,226.27 -1392.13,965.89 -1392.13,1839.06l0 353.21c0,101.37 82.4,183.73 183.69,183.73l3452.86 0.03c101.36,0 183.73,-82.4 183.73,-183.72l0 -353.21c0,-875.11 -590.96,-1613.84 -1394.02,-1839.1z"/>
    <path class="fil5" d="M4293.31 2666.29c-53.09,0 -99.4,29.28 -122.19,73.91 -20.79,-1.93 -40.7,-4.79 -60.56,-9.43 -112.75,-23.73 -185.64,-56.94 -244.33,-103.37 -2.87,-2.82 -5.68,-4.7 -8.55,-7.58 -53.99,-44.48 -96.62,-100.29 -149.57,-168.58 0,0 0,-0.94 -0.98,-0.94 -5.67,-20.83 -18,-80.41 5.68,-123.93 1.85,-2.86 3.79,-5.68 6.61,-8.54 20.88,13.35 45.45,20.87 72,20.87 76.73,0 138.24,-61.49 138.24,-138.28 0,-75.71 -61.53,-137.33 -138.24,-137.33 -69.1,0 -125.95,51.13 -135.41,117.45 -34.06,25.56 -55.91,54.04 -68.13,78.62 -14.22,26.42 -22.78,54.08 -26.55,80.41 -39.77,-13.22 -79.55,-16.99 -117.41,-14.22 -24.62,-28.29 -60.6,-46.3 -101.35,-46.3 -76.68,0 -138.24,62.41 -138.24,138.24 0,76.77 61.54,138.33 138.24,138.33 58.71,0 108.92,-37 128.87,-89.97 38.75,1.8 81.39,16 115.53,60.65l8.5 11.31c21.81,27.57 41.7,53.99 62.53,79.5 -75.75,19.16 -133.58,55.91 -175.23,96.62l-2.93 0.05c-75.8,0 -137.33,61.49 -137.33,138.24 0,75.8 61.54,138.32 137.33,138.32 76.72,0 138.28,-62.53 138.28,-138.32 0,-20.79 -4.7,-40.71 -13.31,-58.67 36.95,-27.49 95.7,-51.18 183.74,-47.39 70.11,54.04 160,96.62 292.67,124.07 33.12,6.56 66.28,11.44 100.42,14.22 23.64,35 65.3,58.67 111.69,58.67 75.8,0 138.28,-62.54 138.28,-138.29 -0.02,-76.81 -62.51,-138.34 -138.3,-138.34zm-501.92 -532.24l5.7 0c0.93,0 2.82,0 3.79,0.94 33.07,3.87 57.78,31.27 57.78,65.34 0,28.46 -17.03,52.98 -42.64,61.5 -0.93,1.02 -1.84,1.97 -2.82,1.97 -2.87,0.89 -5.68,1.89 -7.59,2.82 -4.7,0.94 -9.52,0.94 -14.22,0.94 -36.95,0 -66.28,-30.34 -66.28,-67.26 0,-36.91 29.37,-66.24 66.26,-66.24zm-448.86 350.39c-37.82,0 -67.25,-30.34 -67.25,-67.21 0,-36.95 29.37,-67.22 67.25,-67.22 36.95,0 66.33,30.3 66.33,67.22 -0.05,36.86 -29.44,67.21 -66.33,67.21zm203.59 377.81c0,0.98 0,0.98 -0.93,1.93 0,1.98 0,2.83 -0.98,3.79 0,0.94 -0.93,2.87 -1.84,3.79 0,0.98 -0.98,1.93 -1.89,2.87 0,1.8 0,3.79 -1.89,4.65 0,0.94 -0.98,1.94 -0.98,2.78 0,0.94 -0.93,0.94 -1.89,1.89 -0.93,3.79 -1.89,6.61 -5.67,8.5 0,1.93 -1.89,3.83 -3.79,4.79 -1.89,4.61 -4.7,6.52 -7.53,7.52 -0.97,0.93 -0.97,1.89 -1.88,1.89 0,0.93 -0.98,0.93 -0.98,0.93 -10.4,7.68 -22.68,11.36 -35.99,11.36 -1.84,0 -3.74,0 -4.7,-0.94 -3.74,0 -7.52,0 -11.35,-0.97 -29.33,-7.68 -51.13,-34.06 -51.13,-65.31 0,-36.95 30.26,-67.12 67.22,-67.12 36.95,0 67.25,30.25 67.25,67.12 -0.08,3.97 -0.08,7.76 -1.06,10.53zm747.19 9.5c-36.95,0 -67.26,-30.25 -67.26,-67.21 0,-26.47 15.2,-49.21 36.95,-59.63l0.93 0c9.48,-4.66 18.94,-7.68 29.38,-7.68 26.55,0 50.23,16.18 58.71,38.93 1.89,1.93 2.82,4.66 3.79,6.48 0.93,1.07 0.93,2.87 0.93,3.96 0.98,1.81 0.98,2.78 1.89,4.57 0.98,3.92 0.98,8.59 0.98,13.36 0.02,37.01 -29.35,67.21 -66.3,67.21z"/>
    <path class="fil5" d="M5218.59 1113.24c-388.19,-106.18 -413.81,35.9 -516.14,35.9 -102.26,0 -142.02,-152.44 -518.02,-35.9 -802.16,226.29 -1392.13,965.89 -1392.13,1839.07l0 353.21c0,101.35 82.41,183.73 183.69,183.73l3452.87 0.02c101.36,0 183.74,-82.41 183.74,-183.73l0 -353.21c0,-875.09 -590.96,-1613.82 -1394.02,-1839.09zm1108.93 1839.07c0,64.39 -53.08,117.32 -117.49,117.32l-1296.4 0c-65.35,0 -117.45,-52.93 -117.45,-117.32 0,-3.88 0.97,-352.39 0.97,-352.39 0,-52.11 -42.68,-94.66 -94.7,-94.66 -52.06,0 -94.69,42.6 -94.69,94.66l0 352.39c0,64.39 -52.15,117.32 -117.46,117.32l-1296.41 0c-65.35,0 -117.46,-52.93 -117.46,-117.32 0,-411.97 154.42,-788.89 408.22,-1075.86 51.13,-57.78 106.05,-111.77 164.81,-161.95 30.3,42.6 66.24,124.07 87.11,205.5 5.68,23.69 24.58,43.56 48.27,50.11 6.66,1.93 13.27,3.87 20.88,3.87 17.03,0 33.12,-6.61 46.38,-18.01 32.23,-28.41 76.73,-49.33 126.93,-63.41 -11.35,52.06 -13.26,120.27 8.5,205.45 34.05,132.52 149.61,206.52 240.53,245.27 0,0 0,0 0,1.02 13.26,62.36 69.14,108.84 135.41,108.84 76.73,0 138.29,-61.5 138.29,-138.33 0,-75.71 -61.54,-138.24 -138.29,-138.24 -33.12,0 -64.39,12.29 -88.09,33.21 -63.41,-29.42 -132.56,-76.73 -150.52,-146.85 -31.28,-121.17 6.61,-182.78 15.11,-196.11 103.23,-6.57 202.67,0 254.78,7.63 29.33,4.79 58.71,-10.35 72.89,-36.91 14.22,-26.5 10.44,-58.71 -10.4,-80.5 -30.3,-33.07 -46.43,-67.17 -55.9,-98.38 39.72,-23.68 65.3,-67.34 65.3,-116.54 0,-76.76 -61.54,-138.24 -138.24,-138.24 -75.76,0 -138.28,61.5 -138.28,138.24 0,49.21 26.51,92.84 66.28,116.54 3.79,19.81 8.54,41.58 17.03,63.42 -122.18,-3.75 -295.49,4.74 -428.05,70.11 -18.9,-53.12 -46.38,-114.68 -84.29,-163.88 211.18,-151.5 460.28,-252.9 729.27,-287.89 0,0 10.4,-1.94 15.19,-1.94 56.77,0 102.27,45.5 102.27,101.36l0 825.82c0,52.06 42.59,94.7 94.7,94.7 52.1,0 94.65,-42.69 94.65,-94.7l0 -492.42c36.91,25.64 81.48,50.3 134.52,68.23 7.63,2.78 15.2,4.66 22.78,6.66 -45.4,67.12 -68.19,150.57 -33.2,236.77 47.38,114.46 146.84,130.63 219.74,142.03 32.1,4.7 63.41,9.52 87.15,21.76 77.59,40.75 89.88,118.39 87.11,177.1 -3.79,66.28 -31.27,134.52 -68.19,182.65 -16.13,-5.59 -32.23,-9.43 -50.24,-9.43 -76.72,0 -138.32,61.58 -138.32,138.28 0,76.64 61.49,138.32 138.32,138.32 75.81,0 138.29,-61.58 138.29,-138.32 0,-3.79 0,-8.41 -0.94,-12.29 0,-0.93 0,-0.93 0,-1.8 69.11,-72.98 116.54,-178.14 123.13,-288.96 7.59,-140.28 -52.19,-253.82 -164.81,-311.6 -43.56,-22.67 -89.02,-30.25 -129.7,-35.98 -70.11,-11.36 -93.85,-17.97 -109.84,-55.86 -21.76,-53.99 19.03,-114.6 60.65,-151.51 20.83,0.94 39.64,1.89 57.74,1.89 22.82,0 43.52,-0.97 61.53,-2.78 24.67,28.29 61.54,46.34 102.23,46.34 75.84,0 137.37,-62.49 137.37,-138.23 0,-76.86 -61.54,-138.33 -137.33,-138.33 -59.63,0 -109.89,36.91 -128.83,89.11l-0.91 -0.05c-56.81,3.66 -137.33,0 -228.32,-30.34 -95.65,-33.11 -151.46,-91.92 -179.87,-134.47l0.02 -131.69c0,-55.86 44.51,-101.27 100.29,-101.27l15.15 0.02c314.49,40.71 595.68,172.34 827.77,366.57 -63.41,6.61 -128.87,27.35 -184.62,74.69 -53.04,44.56 -86.2,105.16 -98.42,180.92 -46.47,21.77 -78.61,69.15 -78.61,124.06 0,76.77 61.49,138.24 137.28,138.24 76.68,0 138.24,-61.49 138.24,-138.24 0,-44.56 -20.83,-83.33 -53.95,-108.02 6.61,-37.82 22.74,-67.13 47.34,-88.09 70.02,-60.56 204.54,-47.3 250.03,-36.87 0.94,0 0.94,0 1.89,0 79.59,86.05 149.57,181.8 209.29,284.11 -182.74,-10.48 -309.66,103.19 -356.05,174.29 -12.29,18.94 -15.28,41.71 -7.67,62.54 18.05,51.04 38.88,179.88 -13.22,302.03 -6.66,15.11 -16.09,31.27 -28.51,46.42 -15.11,-5.67 -32.1,-8.49 -49.2,-8.49 -75.72,0 -138.24,61.49 -138.24,138.23 0,75.81 62.53,138.33 138.24,138.33 76.72,0 138.36,-62.53 138.36,-138.33 0,-4.61 0,-8.41 -0.97,-13.26 31.32,-34.05 55.05,-70.11 71.04,-106.94 64.35,-153.48 44.56,-297.47 27.49,-365.63 37.82,-40.84 128.73,-116.5 269.85,-79.59 8.49,2.82 18,2.82 26.55,1.88 90.9,202.64 142.11,427.12 142.11,663.85l-0.98 0.04 0 0.09 -0.17 0zm-1902.59 -663.89c1.94,2.82 2.83,5.59 2.83,8.59 0.97,2.78 1.88,5.63 1.88,8.5 0.98,2.78 0.98,6.52 0.98,9.43l0 4.7c0,0.93 -0.98,1.93 -0.98,1.93l0 4.66c0,1.89 -0.93,2.82 -0.93,3.7 0,1.02 0,1.89 0,1.89 -0.98,0 -0.98,0.93 -0.98,0.93 -1.88,7.59 -5.67,15.16 -9.43,21.85 -1.89,0.89 -2.86,2.83 -3.79,3.75 -3.79,4.74 -7.58,8.5 -12.33,11.4 -3.79,2.78 -8.5,4.7 -12.29,6.65 -0.93,0.93 -0.93,0.93 -0.93,0.93 -3.79,0.94 -7.59,2.83 -12.37,3.79 -3.75,0 -8.46,0.94 -13.23,0.94 -36.95,0 -67.21,-30.3 -67.21,-67.26 0,-36.95 30.25,-67.13 67.21,-67.13 22.74,0 43.61,12.29 55.91,29.33 1.89,2.78 2.82,5.68 3.79,8.41 0.93,1.02 0.93,1.02 0.93,1.02l0 0.94c0.95,1.06 0.95,1.06 0.95,1.06zm-163.77 -746.25c0,-37.89 30.3,-67.26 67.22,-67.26 36.91,0 67.26,29.37 67.26,67.26 0,4.79 -0.94,9.43 -0.94,14.26 -7.58,30.3 -34.14,52.06 -66.28,52.06 -36.99,0 -67.26,-29.33 -67.26,-66.32zm1002.88 1195.09c0,36.9 -30.3,67.21 -67.21,67.21 -37,0 -67.22,-30.3 -67.22,-67.21 0,-36.91 30.3,-67.17 67.22,-67.17 36.9,0 67.21,30.38 67.21,67.17zm70.98 -883.54c-36.99,0 -67.26,-30.25 -67.26,-67.21 0,-29.42 19.03,-54.04 44.65,-63.51l0.96 0c6.56,-2.86 14.13,-3.74 21.72,-3.74 36.99,0 66.36,30.21 66.36,67.26 0,30.29 -19.89,56.71 -48.31,64.34 -0.98,0.94 -2.87,0.94 -4.7,1.94 -3.9,0.02 -8.57,0.93 -13.42,0.93zm248.19 232.03c0,18.85 -7.63,36.02 -19.89,47.38 -2.87,2.73 -5.73,5.68 -8.46,7.52 -11.36,7.63 -24.75,12.33 -38.88,12.33 -36.95,0 -66.33,-29.33 -66.33,-67.26 0,-5.67 0.94,-10.44 1.89,-15.15 0,-0.93 0,-0.93 0,-0.93 7.67,-29.42 33.21,-50.24 64.44,-50.24 36.97,0.11 67.23,29.4 67.23,66.35zm138.24 766.1c0,29.46 -18.98,55.02 -45.49,63.46 -6.48,2.82 -14.09,3.79 -21.77,3.79 -36.9,0 -67.12,-30.25 -67.12,-67.26 0,-31.18 21.76,-57.65 51.12,-65.17 4.62,-1.02 10.4,-1.98 16,-1.98 36.87,-0.02 67.26,30.19 67.26,67.15z"/>
   </g>
  </g>
 </g>
</svg>
