<?xml version="1.0" encoding="UTF-8"?>
<!DOCTYPE svg PUBLIC "-//W3C//DTD SVG 1.1//EN" "http://www.w3.org/Graphics/SVG/1.1/DTD/svg11.dtd">
<!-- Creator: CorelDRAW 2020 (64-Bit) -->
<svg xmlns="http://www.w3.org/2000/svg" xml:space="preserve" width="94.1916mm" height="52.9166mm" version="1.1" style="shape-rendering:geometricPrecision; text-rendering:geometricPrecision; image-rendering:optimizeQuality; fill-rule:evenodd; clip-rule:evenodd"
viewBox="0 0 9404.92 5283.66"
 xmlns:xlink="http://www.w3.org/1999/xlink"
 xmlns:xodm="http://www.corel.com/coreldraw/odm/2003">
 <defs>
  <style type="text/css">
   <![CDATA[
    .fil0 {fill:#E6E7E8}
    .fil3 {fill:#4B4B4D;fill-rule:nonzero}
    .fil4 {fill:#CC0052;fill-rule:nonzero}
    .fil2 {fill:#373435;fill-opacity:0.031373}
    .fil1 {fill:#2B2A29;fill-opacity:0.101961}
   ]]>
  </style>
 </defs>
 <g id="Layer_x0020_1">
  <metadata id="CorelCorpID_0Corel-Layer"/>
  <polygon class="fil0" points="-0,0 9404.92,0 9404.92,5283.66 -0,5283.66 "/>
  <path class="fil1" d="M368.11 5283.66l-5.04 0 -0.78 0 -12.78 0 -9.91 0 -14.02 0 -9.29 0 -24.48 0 -11.22 0 -10.89 0 -25.65 0 -2.62 0 -2.19 0 -28.72 0 -23.69 0 -16.7 0 -17.37 0 -24.27 0 -27.76 0 -41.57 0 -0.08 0 -28.37 0 -6.32 0 -2.88 0 -9.31 0 -12.2 0 0 -1.75 0 -28.83 0 -2.53 0 -0.76 0 -1.47 0 -2.99 0 -2.08 0 -3.08 0 -1.94 0 -0.02 0 -6.79 0 -22.39 0 -0.08 0 -11.64 0 -3.12 0 -16.16 0 -2.36 0 -0.33 0 -8.38 0 -6.69 0 -0.34 0 -19.76 0 -3.53 0 -0.3 0 -10.77 0 -2.17 0 -0.23 0 -26.24 0 -2.25 0 -2.03 0 -4.88 0 -6.69 0 -2.19 0 -11.47 0 -6.48 0 -6.01 0 -5.03 0 -0.01 0 -4.02 0 -7.92 0 -0.01 0 -6.86 0 -8.88 0 -0.32 0 -12.71 0 -4.01 0 -3.43 0 -2.68 0 -11.21 0 -2.26 0 -13.99 0 -1.09 0 -14.67 0 -0.44 0 -5.78 0 -1.28 0 -4.6 0 -4.7 0 -5.44 0 -6.21 0 -0.04 0 -3.52 0 -3.19 0 -2 0 -0.58 0 -0.78 0 -0.7 0 -1.88 0 -15.67 0 -7.58 0 -0.13 0 -11.93 0 -13.77 0 -0.3 0 -8.81 0 -10.63 0 -0.82 0 -14.6 0 -9.88 0 -8.23 0 -17.68 0 -1.41 0 -2.2 0 -0.68 0 -4.93 0 -2.56 0 -2.01 0 -7.76 0 -17 0 -12.21 0 -11.62 0 -11.63 0 -11.56 0 -1.64 0 -1.01 0 -3.92 0 -16.15 0 -6.67 0 -3.73 0 -9.42 0 -16.36 0 -12.33 0 -2.99 0 -4.73 0 -1.88 0 -3.32 0 -31.42 0 -10.01 0 -1.65 0 -2.67 0 -25.39 0 -216.43 0 -5.7 0 -12.62 0 -1.95 0 -31.65 0 -14.12 0 -46.86 0 -19.79 0 -13.05 0 -0.02 0 -14.94 0 -2.82 0 -6.02 0 -10.82 0 -23.55 0 -2.86 0 -23.18 0 -4.58 0 -30.41 0 -30.03 0 -4.52 0 -135.73 0 -559.01 0 -3.79 0 -20.72 0 -27.28 0 -2.08 0 -0.11 0 -12.56 0 -16.91 0 -9.37 0 -7.77 0 -7.52 0 -49.84 0 -68.83 0 -41.89 0 -17.52 0 -0.01 0 -6.5 0 -5.95 0 -14.37 0 -3.14 0 -6.53 0 -16.57 0 -0.31 0 -19.74 0 -32.54 0 -6.67 0 -62.06 0 -2.78 0 -46.57 0 -17.68 0 -11.69 0 -15.91 0 -20.08 3190.45 -1534.62 -6.59 25.16 4.74 0.66 4.34 0.63 3.94 0.62 3.51 0.6 3.11 0.58 2.68 0.57 2.23 0.57 1.8 0.56 1.54 0.72 1.49 0.79 1.42 0.88 1.36 0.95 1.29 1.02 1.21 1.08 1.14 1.15 1.05 1.21 0.84 1.46 0.73 1.68 0.62 1.9 0.51 2.12 0.39 2.33 0.28 2.53 0.17 2.74 0.06 2.94 -0.13 4.99 -0.38 5.55 -0.64 6.09 -0.91 6.64 -1.18 7.17 -1.44 7.7 -1.72 8.22 -2 8.74 -35.86 152.73 194.43 -92.14 -7.93 4.1 -7.82 4.72 -7.97 5.39 -8.1 6.08 -8.24 6.76 -8.39 7.45 -8.52 8.14 -8.67 8.83 -8.8 9.54 -126.79 60 -5.06 21.56 195.99 -92.64 6.84 -2.76 6.81 -1.97 6.78 -1.18 6.75 -0.39 4.35 0.21 4.06 0.64 3.79 1.06 3.5 1.5 3.23 1.93 2.96 2.38 2.67 2.81 2.39 3.26 2 3.71 1.72 4.15 1.44 4.6 1.18 5.05 0.91 5.51 0.64 5.95 0.38 6.4 0.13 6.85 -0.15 9.42 -0.47 9.62 -0.77 9.8 -1.09 9.98 -1.39 10.17 -1.7 10.34 -2.01 10.52 -2.32 10.69 -2.55 10.69 -2.72 10.3 -2.86 9.91 -3 9.53 -3.13 9.12 -3.24 8.74 -3.34 8.34 -3.43 7.95 -3.49 7.67 -3.52 7.28 -3.55 6.9 -3.57 6.53 -3.61 6.16 -3.63 5.81 -3.65 5.45 -3.69 5.11 -3.63 4.77 -3.72 4.43 -3.8 4.08 -3.88 3.74 -3.97 3.38 -4.05 3.04 -4.14 2.69 -4.22 2.32 -4.21 2.09 -85.69 39.88 3.08 0.85 6.11 1.48 6.18 1.28 6.27 1.08 6.33 0.88 6.41 0.69 6.47 0.5 6.54 0.29 6.6 0.1 8.79 -0.13 8.63 -0.37 8.46 -0.62 8.31 -0.87 8.15 -1.1 8 -1.34 7.85 -1.57 7.71 -1.8 7.68 -2.13 7.54 -2.37 7.4 -2.6 7.26 -2.83 7.12 -3.07 -848.76 393.58 -2.42 23.92 -3.13 32.68 -3.05 33.69 -2.98 34.7 -2.9 35.72 -2.82 36.72 -2.74 37.73 -2.67 38.74 -2.58 39.75 -2.51 40.77 -2.43 41.78 -2.35 42.79 -2.27 43.8 -2.2 44.8 -2.11 45.82 -2.04 46.83 -1.65 43.08 -1.69 42.04 -1.73 41.01 -1 22.53 1458.52 -645.9 -9.74 4.73 -9.39 5.13 -9.05 5.55 -8.71 5.96 -8.23 6.32 -7.83 6.59 -7.44 6.85 -7.05 7.12 -6.65 7.37 -6.26 7.61 -5.87 7.85 -5.47 8.09 -5.17 8.58 -4.94 9.12 -4.71 9.65 -4.49 10.17 -2.4 6.01 204.2 -90.03 4.65 -1.65 4.92 -1.19 5.2 -0.71 5.47 -0.24 4.56 0.22 4.26 0.67 3.94 1.1 3.63 1.53 3.32 1.95 3.02 2.37 2.72 2.77 2.4 3.18 2.04 3.77 1.84 4.37 1.65 4.97 1.45 5.56 1.25 6.17 1.06 6.78 0.85 7.39 0.66 8 71.87 0 -424.71 185.95 50.37 0 -13.74 58.2 776.61 -338.47 -17.61 8.45 -17.03 9.19 -16.45 9.93 -15.86 10.66 -15.28 11.4 -14.69 12.13 -14.1 12.88 -13.51 13.6 -12.92 14.35 -11.64 14.24 208.89 -90.75 15.44 -6.02 15.97 -5.41 -242.8 105.47 -9.91 13.35 -11.13 16.53 -5.33 8.54 -5.17 8.64 -4.99 8.76 -4.83 8.86 -4.66 8.97 -4.48 9.09 -4.32 9.19 -4.15 9.3 -3.98 9.4 -3.82 9.52 -3.64 9.63 -3.47 9.73 -3.3 9.85 -3.15 9.94 -2.97 10.05 -2.81 10.16 -2.63 10.27 -2.47 10.38 -2.3 10.49 -2.12 10.59 -1.96 10.71 -1.79 10.81 -1.61 10.92 -1.45 11.04 -1.28 11.14 -1.1 11.25 -0.94 11.35 -0.77 11.47 -0.08 1.56 1071.72 -458 -15.27 41.03 16.08 5.41 15.53 6.02 15 6.62 14.45 7.22 13.91 7.84 13.38 8.44 12.83 9.04 12.3 9.65 11.76 10.26 11.22 10.86 10.69 11.47 10.15 12.07 9.62 12.69 9.08 13.3 8.55 13.91 8.02 14.52 7.56 15.01 7.07 15.5 6.58 15.98 6.08 16.46 5.6 16.94 5.11 17.41 1.12 4.34 686.47 -286.4 -8.99 34.44 5.91 0.77 5.38 0.75 4.86 0.73 4.35 0.71 3.84 0.7 3.34 0.69 2.86 0.67 2.38 0.68 1.98 0.59 1.9 0.65 1.8 0.72 1.71 0.78 1.61 0.85 1.5 0.92 1.41 1.01 1.29 1.08 1.2 1.06 1.11 1.14 1.04 1.22 0.96 1.31 0.89 1.39 0.82 1.48 0.77 1.56 0.7 1.64 0.62 1.76 0.52 1.9 0.41 2.05 0.33 2.2 0.24 2.36 0.17 2.51 0.09 2.68 0.03 2.84 -0.06 3.34 -0.18 3.73 -0.32 4.12 -0.46 4.51 -0.61 4.92 -0.78 5.3 -0.96 5.7 -1.14 6.09 -1.09 6.01 -1.05 5.66 -0.99 5.31 -0.95 4.95 -0.91 4.59 -0.86 4.21 -0.84 3.84 -0.8 3.44 -19.16 81.16 -94.93 39.03 6.9 -0.43 7.6 0.28 7.06 0.85 6.51 1.4 5.98 1.97 5.42 2.54 4.87 3.09 4.32 3.64 3.76 4.21 3.26 4.77 2.81 5.34 2.38 5.9 1.93 6.45 1.5 7.02 1.06 7.58 0.64 8.14 0.21 8.71 -0.14 9.66 -0.42 9.67 -0.69 9.69 -0.96 9.71 -1.23 9.73 -1.49 9.77 -1.75 9.81 -2.01 9.86 -0.01 0 -0.58 2.55 483.14 -196.5 -10.96 4.68 -10.61 5.55 -10.27 6.42 -9.89 7.4 -9.65 8.27 -9.43 9.16 -9.19 10.02 -8.95 10.91 -8.71 11.8 -8.47 12.69 -8.21 13.59 6.98 3.1 85.15 -34.5 2.3 -0.93 2.38 -0.76 2.46 -0.59 2.56 -0.42 2.65 -0.26 2.75 -0.08 2.33 0.1 2.28 0.3 2.22 0.52 2.16 0.73 2.11 0.96 2.06 1.19 2 1.43 1.94 1.67 1.82 1.91 1.88 2.36 1.93 2.79 1.97 3.21 2.02 3.64 2.06 4.04 2.09 4.46 2.12 4.85 2.05 5.55 2.12 6.3 1.81 5.89 297.28 -119.91 -4.64 2.11 -4.69 2.45 -4.72 2.79 -4.76 3.11 -4.81 3.41 -4.86 3.72 -4.91 4.01 -4.79 4.33 -4.95 4.7 -5.09 5.06 -5.22 5.41 -5.33 5.76 -5.43 6.11 -5.52 6.45 -5.58 6.79 -5.92 7.3 -6.53 8.19 -7.12 9.08 -7.72 9.94 -8.29 10.82 -8.85 11.69 -9.41 12.54 -9.56 12.86 131.69 -52.82 2.13 -0.81 2.12 -0.67 2.09 -0.54 2.07 -0.42 2.03 -0.29 1.99 -0.17 1.94 -0.06 4.23 0.35 3.74 1.06 3.26 1.75 2.77 2.46 2.29 3.17 1.82 3.85 1.36 4.56 0.9 5.26 50.01 0 -344.85 137.85 1.42 7.34 2.91 15.35 -13.41 16.22 -12.37 14.95 -11.35 13.67 -10.33 12.4 -9.33 11.12 -8.32 9.85 -7.33 8.56 -6.33 7.27 -5.73 6.53 -5.48 6.11 -5.25 5.69 -4.98 5.28 -4.72 4.88 -0.33 0.34 113.34 -45.01 5.69 0 2.38 13.71 2.41 13.07 2.44 12.4 2.48 11.73 2.53 11.06 2.57 10.37 2.62 9.7 2.67 9 2.76 8.41 2.87 7.94 2.98 7.45 3.09 6.98 3.21 6.5 1.83 3.31 215.08 -84.61 -4.52 8.58 -4.34 7.77 -4.15 6.96 -3.97 6.16 -3.77 5.35 -3.57 4.56 -3.35 3.77 -3.15 2.98 -2.96 2.42 -3.04 2.08 -3.13 1.76 -3.19 1.43 -149.79 58.79 1.95 1.66 4.41 3.26 4.61 2.92 4.79 2.56 4.97 2.21 5.26 1.91 5.69 1.67 6.12 1.44 6.55 1.2 6.98 0.94 7.43 0.68 7.86 0.41 8.32 0.14 13.39 -0.45 12.99 -1.34 12.58 -2.21 12.17 -3.09 11.75 -3.93 -5800.17 2267.28 -29.72 0 -64.75 0 -45.24 0 -6.18 0 -37.46 0 -36.17 0 -84.32 0 -17.82 0 -5.43 0 -31.9 0 -36.2 0 -110.89 0 -0.2 0 -17.47 0 -10.33 0 -4.82 0 -9.91 0 -29.18 0 -2.79 0 -39.45 0 -62.6 0 -7.4 0 -7.06 0 -13.68 0 -33.58 0 -0.04 0 -17.87 0 -41.74 0 -5.16 0 -39.52 0 -10.35 0 -8.68 0zm6589.96 -2564.73l0 0z"/>
  <path class="fil2" d="M578.49 4627.69c17.95,27.21 29.6,53.36 40.96,82.43 8.45,16.91 12.93,48.09 52.57,48.09 11.61,0 28.28,-3.42 43.06,-11.61 16.63,-8.73 29.32,-21.94 35.94,-42l15.85 -53.36 38.57 -19.02 2.64 2.64c-5.27,20.09 -6.59,39.36 -6.59,54.43 0,44.63 38.57,61.56 69.22,61.56 17.95,0 34.09,-8.73 34.09,-25.11 0,-21.13 -8.98,-57.06 -20.62,-89.29 17.95,-17.95 35.94,-35.94 56.53,-50.47l3.17 1.6c8.98,38.04 14,75.56 14,100.66 0,24.57 -10.83,51.79 -19.81,69.49 -18.49,34.87 -51.25,62.62 -90.87,62.62 -30.1,0 -63.65,-15.07 -86.66,-43.06l-1.32 0c-21.66,26.96 -55.22,51.25 -108.86,51.25l-16.63 0c-2.64,35.41 -10.29,60.49 -21.94,82.95 -31.95,62.34 -126.81,106.47 -216.1,106.47 -124.17,0 -186.51,-71.59 -186.51,-166.96 0,-58.91 19.27,-113.6 48.88,-152.42l24.29 10.04c-18.49,35.41 -30.91,68.68 -30.91,101.45 0,89.29 72.66,131.83 156.4,131.83 77.68,0 173.83,-49.41 191.28,-106.72 -6.59,-62.62 -30.1,-91.93 -66.04,-148.99 10.83,-19.02 24.83,-38.04 42.28,-58.38l3.17 0 0 0 0 0 -0.02 -0.09zm1432.13 -336.04c26.15,16.39 51.79,35.66 76.87,57.85 -14,19.81 -31.45,37.79 -53.11,53.64 -25.11,-20.34 -50.19,-37.79 -75.84,-56.27 17.42,-19.55 34.62,-38.29 52.04,-55.22l0 0 0 0 0 0 0 0 0 0 0.03 0zm13.47 244.11c-42.28,0 -76.87,27.75 -76.87,48.34 0,44.13 84.53,57.85 185.72,57.31 -12.68,-51.79 -57.06,-105.68 -108.86,-105.68l0.01 0.03zm-94.86 236.19c54.96,0 103.04,-1.6 139.74,-10.83 40.96,-10.29 75.56,-30.91 75.56,-45.17 0,-3.7 0,-8.19 -1.32,-11.89 -22.98,2.11 -49.41,2.11 -72.38,2.11 -74.49,0 -131.55,-16.91 -154.02,-58.66 -5.55,-11.61 -9.51,-24.57 -9.51,-39.36 0,-40.43 17.42,-79.79 48.09,-107 25.61,-22.45 53.89,-36.44 82.67,-36.44 52.04,0 93.51,41.75 122.57,107.54 15.85,35.94 26.68,77.4 26.68,129.72 0,34.87 -9.51,64.19 -31.17,85.85 -40.43,39.11 -114.92,53.89 -229.04,53.89l-51.79 0 0 0 -13.47 0c-28.28,0 -48.62,-5.02 -64.72,-17.42l-2.64 0c0.79,6.59 1.32,12.93 1.32,19.02 0,25.61 -8.45,58.38 -25.61,84.53 -50.72,75.3 -105.68,108.04 -153.24,108.04 -48.09,0 -107,-18.49 -160.11,-42.54l9.51 -18.49c17.17,7.13 40.96,11.89 73.7,11.89 85.85,0 198.66,-82.43 212.66,-163 -3.17,-6.59 -8.98,-15.32 -17.17,-24.57 -25.11,-29.85 -40.96,-54.68 -55.75,-80.83 12.68,-25.11 24.29,-45.17 35.13,-63.4l4.49 -0.53c36.72,74.77 69.99,117.55 144.23,117.55l11.61 0 0 0 53.89 0 0 0 0 0 0 0 0 0 0 0 0.09 0.01zm-371.98 79c6.34,-34.34 6.87,-72.91 6.87,-108.86l0 -53.36c0,-99.6 -12.68,-244.36 -22.98,-338.68 17.95,-19.27 43.06,-42 62.87,-57.31l5.81 1.6c13.47,118.62 16.63,256 16.63,383.06 0,33.3 -1.32,65.79 -4.49,89.55 -1.85,30.1 -19.27,52.83 -56.53,87.7l-8.19 -3.7zm-382.8 -157.19c1.85,46.77 24.83,83.49 105.15,83.49 49.93,0 92.19,-12.93 138.96,-35.13 8.45,-3.7 12.93,-8.73 12.93,-12.93 0,-29.32 -22.45,-68.15 -60.23,-103.55 -36.72,-33.3 -85.34,-62.62 -130.76,-82.18 -15.6,-6.59 -20.62,-13.47 -20.62,-20.09 0,-13.47 17.95,-41.75 32.77,-62.09l5.02 -0.53c52.04,27.21 110.17,67.64 153.24,112.53 39.11,41.47 63.4,83.49 63.4,129.19 0,33.81 -10.29,65.51 -26.96,95.11 -57.06,28.79 -117.83,50.72 -178.06,50.72 -73.17,0 -123.1,-34.34 -123.1,-114.92 0,-8.73 0,-22.19 3.17,-39.64l25.11 0 0 0 0 0 0 0 0 0 0 0 -0.02 0zm-132.37 -132.9l45.45 73.45c16.63,27.21 32.23,56.81 32.23,103.55l0 59.7c0,48.34 -30.91,100.13 -80.83,151.38 -39.11,34.62 -73.7,49.41 -105.68,49.41 -47.55,0 -101.98,-14.79 -164.85,-41.75l7.13 -18.49c19.81,5.27 42.79,9.77 71.06,9.77 90.36,-0.53 182.8,-66.57 225.08,-147.15 5.02,-9.26 6.87,-17.95 6.87,-24.04 0,-9.26 -5.02,-19.55 -8.98,-28.79 -22.98,-43.31 -48.62,-82.95 -76.87,-119.68 14.79,-23.25 29.6,-45.7 45.7,-67.9l3.7 0.53 0 0 0 0 0 0 0 0 0 0 -0.02 0.01z"/>
  <g id="_2158474610112">
   <path class="fil3" d="M2932.9 1671.72l-61.69 0c-1.21,-19.17 -5.39,-34.14 -13.18,-44.02 -7.79,-10.18 -22.16,-14.98 -42.83,-14.98 -51.51,0 -89.54,55.71 -113.2,167.11 -23.65,111.1 -44.92,418.67 -63.79,921.77 -18.86,452.79 -55.7,762.45 -110.2,928.64 -54.5,166.21 -128.18,249.16 -221.01,249.16 -19.16,0 -36.24,-1.5 -52.41,-4.19 -15.58,-3 -29.94,-7.48 -42.23,-13.77l10.78 -116.2 56.01 0c5.39,23.36 12.57,39.54 21.57,49.12 8.99,9.29 22.46,14.08 40.72,14.08 33.24,0 65.28,-55.1 95.83,-165.01 30.54,-109.9 54.81,-397.7 72.17,-862.76 21.27,-504.91 56,-837.32 103.61,-997.23 47.32,-159.62 126.08,-239.88 235.98,-239.88 19.76,0 37.73,1.8 53.61,5.09 16.18,3.3 29.64,7.49 41.03,12.58l-10.78 110.5 0 0 0 -0.01z"/>
   <path class="fil4" d="M3725.6 2559.05l9.89 -42.84c25.45,-0.6 43.71,-2.4 54.2,-5.38 10.48,-3.3 19.16,-9.29 25.75,-17.67 7.19,-8.39 13.48,-23.96 19.76,-47.02 9.29,-33.54 20.97,-61.39 35.05,-83.55 14.08,-21.86 32.34,-41.32 54.8,-57.79 22.77,-16.47 49.12,-28.46 79.36,-36.23 30.24,-7.49 63.48,-11.08 99.73,-11.08 36.82,0 71.57,3 104.22,9.59l-24.86 106.01 -71.87 0c-1.49,-22.16 -5.09,-37.73 -10.78,-47.02 -5.99,-8.99 -15.27,-13.77 -27.86,-13.77 -14.98,0 -26.95,5.09 -36.23,14.97 -9.29,9.89 -17.07,23.36 -23.36,40.43 -6.29,16.77 -12.57,39.23 -18.87,66.79l-13.77 58.39 118.89 0 -15.27 66.18 -119.19 0 -100.33 443.21c-19.76,85.95 -51.51,149.73 -94.93,191.36 -43.72,41.33 -98.22,62.29 -163.81,62.29 -15.87,0 -28.46,-0.9 -38.34,-2.7l13.49 -59.59c7.48,1.2 13.77,1.5 20.06,1.5 20.97,0 38.34,-11.08 52.41,-33.25 13.77,-22.46 26.05,-55.7 36.82,-100.33l118.6 -502.51 -83.55 0 0 0 0 0.02z"/>
   <path class="fil4" d="M4408.69 2750.41c0,123.67 20.67,225.8 62.29,306.05 41.63,80.26 105.11,133.87 190.76,161.13l-13.48 41.03c-108.42,-27.55 -191.36,-85.95 -249.15,-176.09 -57.79,-89.84 -86.55,-198.85 -86.55,-326.73 0,-127.57 29.05,-236.57 86.85,-327.02 57.79,-90.13 141.06,-149.13 248.86,-176.38l14.98 41.03c-86.55,27.26 -150.64,80.26 -192.26,159.32 -41.63,78.76 -62.29,178.19 -62.29,297.68l-0.01 0z"/>
   <path class="fil4" d="M5094.77 2718.95c12.57,74.56 23.36,128.17 31.75,160.52 8.39,32.35 17.06,53.31 25.74,62.88 5.39,5.38 11.68,7.79 19.17,7.79 8.99,0 17.66,-3.3 25.74,-10.18 7.79,-6.9 17.97,-22.17 30.55,-46.13l50.6 22.17c-21.56,37.42 -45.82,65.28 -72.77,83.55 -27.55,18.26 -59.29,27.85 -96.12,27.85 -22.46,0 -40.43,-3 -53.91,-8.38 -13.48,-5.39 -24.85,-14.68 -34.45,-27.26 -9.59,-12.88 -17.66,-30.84 -24.85,-53.91 -7.19,-23.06 -14.08,-53.61 -20.36,-91.04l-5.69 0c-31.44,43.42 -56.3,76.06 -75.48,98.83 -18.87,22.46 -35.05,39.53 -48.51,50.9 -13.49,11.08 -26.35,19.17 -38.63,23.96 -12.58,4.19 -27.55,6.89 -44.62,6.89 -8.39,0 -18.26,-1.2 -29.94,-3 -11.37,-2.1 -20.37,-3.89 -26.35,-6.29l26.35 -115 49.7 0c0.3,7.48 2.41,12.88 5.99,16.77 3.3,3.89 7.79,5.38 13.48,5.38 6.59,0 12.88,-1.2 18.56,-3.89 5.69,-2.69 13.48,-8.68 23.96,-17.66 10.18,-9.29 22.77,-22.77 38.33,-40.73 15.58,-17.66 41.93,-49.11 79.06,-94.03 -7.79,-41.64 -14.97,-77.57 -22.16,-107.82 -6.59,-30.23 -12.88,-52.1 -18.56,-65.88 -5.39,-13.48 -10.79,-22.77 -15.58,-27.26 -5.09,-4.78 -10.78,-6.89 -17.07,-6.89 -7.48,0 -14.08,1.8 -19.46,5.39 -5.39,3.89 -11.08,9.88 -17.37,17.97 -6.3,8.68 -12.58,19.76 -19.76,33.53l-50.31 -22.46c21.27,-37.42 45.21,-65.28 72.16,-83.84 26.95,-18.27 57.5,-27.26 91.94,-27.26 29.65,0 52.11,4.19 67.69,12.58 15.58,8.39 28.46,23.35 38.33,44.32 10.19,20.96 19.17,54.5 28.46,100.92l5.39 0c27.25,-36.83 48.51,-64.69 63.79,-82.95 15.27,-18.56 29.35,-33.54 42.23,-44.62 12.88,-11.08 25.45,-19.16 37.73,-23.35 12.28,-4.79 26.66,-6.9 43.42,-6.9 18.26,0 37.13,3.01 56,9.29l-26.05 114.7 -50.01 0c-1.8,-14.97 -8.99,-22.46 -20.67,-22.46 -5.09,0 -10.48,1.2 -16.18,3.89 -5.99,2.41 -13.48,7.79 -22.77,16.48 -9.59,8.68 -21.27,21.27 -35.34,37.73 -14.08,16.47 -35.04,41.63 -63.18,74.87l0 0 0.01 0.02z"/>
   <path class="fil4" d="M5625.12 2750.41c0,-119.49 -20.66,-218.92 -62.29,-297.68 -41.32,-79.06 -105.4,-132.06 -192.56,-159.32l15.27 -41.03c107.82,27.25 190.76,86.25 248.86,176.38 57.79,90.43 86.85,199.45 86.85,327.02 0,127.88 -29.05,236.89 -86.54,326.73 -57.79,90.14 -141.06,148.54 -249.16,176.09l-13.48 -41.03c85.36,-27.26 149.13,-80.87 190.47,-161.13 41.63,-80.26 62.6,-182.37 62.6,-306.05l0 0 -0.02 0z"/>
   <path class="fil4" d="M6479.21 2891.44l40.13 38.33c-38.94,36.83 -72.48,62.6 -100.33,76.37 -28.15,14.08 -58.1,21.27 -88.95,21.27 -31.14,0 -55.7,-8.39 -73.67,-24.86 -18.27,-16.47 -27.26,-38.02 -27.26,-64.97 0,-8.69 0.9,-17.38 3.3,-25.46l-7.19 -1.5c-35.34,40.44 -67.98,70.38 -98.52,88.66 -30.55,18.86 -67.09,28.15 -109.61,28.15 -41.93,0 -74.27,-14.67 -97.62,-43.72 -22.76,-29.05 -34.44,-70.98 -34.44,-125.79 0,-47.61 7.18,-94.93 21.56,-141.95 14.38,-47.01 35.05,-87.74 62.29,-121.89 26.95,-33.84 60.8,-60.79 101.52,-80.56 41.03,-19.46 87.14,-29.04 138.65,-29.04 32.94,0 64.69,5.09 95.24,16.18l19.16 -81.16c2.1,-8.68 4.49,-21.56 7.48,-38.03 3.3,-16.77 4.5,-29.35 4.5,-37.73 0,-7.79 -0.61,-13.78 -2.41,-18.27 -1.8,-4.49 -4.18,-8.08 -7.48,-10.78 -3.3,-3 -7.79,-5.09 -13.18,-6.59 -5.69,-1.8 -16.47,-3.59 -32.93,-5.69l8.99 -34.44 165.91 -8.69 62.88 0 -140.75 594.14c-5.39,23.36 -8.09,43.42 -8.09,60.2 0,11.97 2.1,20.96 6.3,27.25 3.89,6.3 10.78,9.6 20.67,9.6 11.67,0 23.95,-5.1 37.42,-14.98 13.18,-9.89 28.76,-24.56 46.42,-44.02l0 0 0.01 -0.02zm-212.32 -202.43c5.69,-26.35 8.68,-52.11 8.68,-77.86 0,-23.95 -4.49,-41.92 -13.77,-53.91 -9.29,-11.97 -24.56,-17.97 -45.53,-17.97 -34.44,0 -64.97,16.77 -91.63,49.71 -26.35,33.24 -47.91,77.56 -64.39,133.56 -16.18,55.7 -24.25,105.71 -24.25,149.73 0,25.75 3.89,45.21 11.68,57.79 8.08,12.88 20.36,19.16 37.13,19.16 24.25,0 49.12,-11.37 74.57,-34.14 25.45,-22.76 45.82,-49.42 61.39,-80.26 15.58,-30.84 29.36,-72.77 41.64,-126.37l4.49 -19.47 0 0 0 0.02zm691.17 29.94c13.17,74.56 23.65,128.17 32.04,160.52 8.39,32.35 17.06,53.31 25.75,62.88 5.09,5.38 11.37,7.79 18.87,7.79 9.28,0 17.97,-3.3 25.74,-10.18 8.09,-6.9 18.56,-22.17 30.84,-46.13l50.61 22.17c-21.57,37.42 -45.82,65.28 -73.08,83.55 -27.25,18.26 -59.29,27.85 -95.53,27.85 -22.77,0 -40.73,-3 -54.21,-8.38 -13.48,-5.39 -25.16,-14.68 -34.44,-27.26 -9.59,-12.88 -17.97,-30.84 -25.16,-53.91 -7.19,-23.06 -13.78,-53.61 -20.07,-91.04l-5.69 0c-31.44,43.42 -56.6,76.06 -75.48,98.83 -18.56,22.46 -35.04,39.53 -48.51,50.9 -13.48,11.08 -26.35,19.17 -38.94,23.96 -12.27,4.19 -27.25,6.89 -44.61,6.89 -8.08,0 -17.97,-1.2 -29.65,-3 -11.68,-2.1 -20.36,-3.89 -26.35,-6.29l26.06 -115 50.01 0c0.29,7.48 2.4,12.88 5.69,16.77 3.6,3.89 8.08,5.38 13.78,5.38 6.58,0 12.88,-1.2 18.56,-3.89 5.69,-2.69 13.77,-8.68 23.95,-17.66 9.89,-9.29 23.06,-22.77 38.63,-40.73 15.58,-17.66 41.64,-49.11 78.77,-94.03 -7.79,-41.64 -15.27,-77.57 -21.86,-107.82 -7.19,-30.23 -13.18,-52.1 -18.56,-65.88 -5.69,-13.48 -11.08,-22.77 -15.87,-27.26 -5.1,-4.78 -10.79,-6.89 -17.07,-6.89 -7.48,0 -13.77,1.8 -19.47,5.39 -5.69,3.89 -11.37,9.88 -17.37,17.97 -6.29,8.68 -12.88,19.76 -19.76,33.53l-50.6 -22.46c21.56,-37.42 45.82,-65.28 72.47,-83.84 26.95,-18.27 57.5,-27.26 91.94,-27.26 29.35,0 52.11,4.19 67.69,12.58 15.58,8.39 28.15,23.35 38.33,44.32 9.89,20.96 19.47,54.5 28.15,100.92l5.7 0c27.25,-36.83 48.82,-64.69 63.78,-82.95 14.98,-18.56 29.36,-33.54 41.93,-44.62 13.18,-11.08 25.75,-19.16 38.03,-23.35 12.28,-4.79 26.65,-6.9 43.12,-6.9 18.56,0 37.13,3.01 56.29,9.29l-26.35 114.7 -50.01 0c-1.8,-14.97 -8.39,-22.46 -20.36,-22.46 -5.09,0 -10.79,1.2 -16.48,3.89 -5.38,2.41 -13.17,7.79 -22.76,16.48 -9.29,8.68 -20.97,21.27 -35.05,37.73 -14.08,16.47 -35.34,41.63 -63.48,74.87l0 0 -0.01 0.02z"/>
   <path class="fil3" d="M3294.96 1463.88l5.09 1.5c23.65,-26.35 45.82,-45.22 66.49,-56.9 20.67,-11.68 45.21,-17.37 73.67,-17.37 30.84,0 54.81,10.79 71.58,31.75 17.06,21.27 25.45,51.8 25.45,91.63 0,22.77 -3,47.62 -8.68,75.17 -5.69,27.26 -13.48,51.2 -23.96,72.17 -10.18,21.27 -22.46,39.53 -36.53,55.41 -14.67,15.57 -30.55,28.75 -48.22,38.93 -17.67,10.48 -36.83,18.27 -57.5,23.65 -20.36,5.09 -42.23,7.79 -65.88,7.79 -17.67,0 -34.74,-2.1 -50.91,-6.29 -16.47,-4.19 -33.24,-11.37 -50.31,-21.57l-37.73 27.86 -44.32 -6.29 102.71 -437.53c5.69,-23.96 8.39,-42.53 8.39,-55.1 0,-8.09 -1.2,-14.09 -3.59,-17.67 -2.7,-3.3 -6.3,-5.99 -10.48,-7.79 -4.18,-1.49 -13.17,-3 -26.35,-4.78l6.59 -25.16 119.18 -6.29 47.32 0 -62 236.88 0 0 0.01 0.01zm-36.25 174.29c-4.18,19.16 -6.29,37.73 -6.29,56.01 0,18.86 3.3,32.34 9.89,40.72 6.59,8.08 17.66,12.28 33.24,12.28 13.48,0 25.75,-2.7 36.83,-8.68 11.37,-5.7 21.86,-15.28 31.44,-28.46 9.88,-13.18 19.46,-29.95 28.75,-50.91 9.29,-20.67 17.67,-45.52 24.25,-74.57 6.59,-28.75 9.89,-55.7 9.89,-80.55 0,-18.87 -2.7,-32.94 -8.39,-42.24 -5.99,-9.28 -14.98,-13.77 -26.95,-13.77 -17.97,0 -36.24,8.39 -54.81,25.16 -18.26,16.47 -32.94,35.94 -44.32,57.79 -10.78,21.85 -20.96,52.71 -30.24,92.83l-3.3 14.38 0 0 0.01 0z"/>
   <path class="fil3" d="M3055.98 3929.7c-4.18,16.18 -5.99,30.84 -5.99,44.02 0,8.39 1.21,15.27 4.19,19.76 3.3,4.78 8.39,6.89 15.58,6.89 8.39,0 17.37,-3.59 26.95,-10.78 9.88,-7.19 21.27,-17.97 34.13,-32.35l29.05 28.15c-28.15,26.95 -52.71,45.53 -73.37,56.01 -20.36,10.18 -41.92,15.27 -64.68,15.27 -22.46,0 -40.72,-5.98 -53.91,-17.97 -13.18,-11.97 -19.76,-27.85 -19.76,-47.62 0,-6.29 0.6,-12.57 2.4,-18.56l-5.69 -0.6c-19.76,22.17 -36.53,38.63 -50.91,50.01 -14.08,11.08 -29.05,19.77 -45.22,25.75 -15.87,5.99 -33.53,8.99 -53,8.99 -32.35,0 -56.89,-10.47 -73.67,-31.74 -16.77,-20.97 -25.16,-51.51 -25.16,-91.64 0,-35.04 5.38,-69.46 15.87,-103.91 10.48,-34.44 25.75,-63.79 45.22,-88.65 19.76,-25.16 44.61,-44.61 74.56,-58.99 29.65,-14.38 63.49,-21.57 101.52,-21.57 40.13,0 74.57,9.29 102.72,27.86l39.22 -27.86 45.53 5.99 -65.58 263.53 0 0 0.02 0.02zm-80.26 -120.08c4.18,-19.16 6.29,-38.03 6.29,-57.2 0,-17.06 -3.3,-29.94 -9.88,-38.93 -6.9,-8.69 -17.97,-12.88 -33.25,-12.88 -25.45,0 -47.31,11.97 -66.78,35.94 -19.46,24.25 -35.34,56.6 -47.31,97.62 -11.68,40.72 -17.67,76.96 -17.67,109.6 0,18.87 3.01,32.64 8.69,41.93 5.69,9.28 14.98,14.08 26.95,14.08 17.97,0 35.94,-8.39 54.5,-25.16 18.56,-16.47 33.54,-35.94 44.92,-58.39 11.08,-22.46 21.27,-53.31 30.24,-92.23l3.3 -14.38 0 0 0 0.01z"/>
  </g>
 </g>
</svg>
