<?xml version="1.0" encoding="UTF-8"?>
<!DOCTYPE svg PUBLIC "-//W3C//DTD SVG 1.0//EN" "http://www.w3.org/TR/2001/REC-SVG-20010904/DTD/svg10.dtd">
<!-- Creator: CorelDRAW -->
<svg xmlns="http://www.w3.org/2000/svg" xml:space="preserve" width="94.1916mm" height="52.9166mm" version="1.0" style="shape-rendering:geometricPrecision; text-rendering:geometricPrecision; image-rendering:optimizeQuality; fill-rule:evenodd; clip-rule:evenodd"
viewBox="0 0 9419.16 5291.66"
 xmlns:xlink="http://www.w3.org/1999/xlink"
 xmlns:xodm="http://www.corel.com/coreldraw/odm/2003">
 <defs>
  <style type="text/css">
   <![CDATA[
    .fil3 {fill:#224C66}
    .fil0 {fill:#E6E7E8}
    .fil8 {fill:#9B8E99;fill-rule:nonzero}
    .fil7 {fill:#AA9EA9;fill-rule:nonzero}
    .fil9 {fill:#B5ADB6;fill-rule:nonzero}
    .fil10 {fill:#BAAFB9;fill-rule:nonzero}
    .fil6 {fill:#FEE45A;fill-rule:nonzero}
    .fil5 {fill:#FEE97D;fill-rule:nonzero}
    .fil4 {fill:#FEF6AD;fill-rule:nonzero}
    .fil2 {fill:#373435;fill-rule:nonzero;fill-opacity:0.031373}
    .fil1 {fill:#2B2A29;fill-opacity:0.101961}
   ]]>
  </style>
 </defs>
 <g id="Layer_x0020_1">
  <metadata id="CorelCorpID_0Corel-Layer"/>
  <polygon class="fil0" points="-0,0 9419.16,0 9419.16,5291.66 -0,5291.66 "/>
  <polygon class="fil1" points="4825.72,5291.66 -0,5291.66 -0,2001.93 2828.04,560.52 2809.28,570.16 2791.07,580.66 2773.42,592.02 2756.35,604.16 2739.91,617.1 2724.11,630.8 2708.98,645.23 2694.55,660.36 2680.85,676.16 2667.91,692.6 2655.77,709.67 2644.41,727.32 2633.91,745.53 2624.27,764.28 2615.53,783.53 2607.71,803.26 2600.85,823.44 2594.96,844.05 2590.09,865.05 2586.25,886.41 2583.47,908.11 2581.78,930.12 2581.21,952.42 2581.21,4339.24 2581.78,4361.54 2583.47,4383.55 2586.25,4405.25 2590.09,4426.61 2594.96,4447.61 2600.85,4468.22 2607.71,4488.41 2615.53,4508.14 2624.27,4527.38 2633.91,4546.13 2644.41,4564.34 2655.77,4581.99 2667.91,4599.06 2680.85,4615.5 2694.55,4631.3 2708.98,4646.43 2724.11,4660.86 2739.91,4674.56 2756.35,4687.5 2773.42,4699.65 2791.07,4711 2809.28,4721.5 2828.04,4731.14 2847.28,4739.88 2867.01,4747.7 2887.2,4754.56 2907.8,4760.45 2928.8,4765.32 2950.16,4769.16 2971.86,4771.94 2993.87,4773.63 3016.17,4774.2 6402.99,4774.2 6425.29,4773.63 6447.3,4771.94 6469,4769.16 6490.36,4765.32 6511.36,4760.45 6531.98,4754.56 "/>
  <g id="_2868090217504">
   <path class="fil2" d="M1119.97 4680.19l0 197.33c0,20.44 -3.75,40.88 -11.68,59.65 -7.93,18.77 -19.19,36.3 -33.79,50.48 -14.6,14.6 -31.7,25.86 -50.48,33.79 -18.77,7.93 -39.21,11.68 -59.65,11.68l-60.91 0c-7.09,0 -14.18,-2.08 -20.02,-6.26 -5.84,-4.17 -10.43,-9.59 -12.94,-16.27l-11.26 -29.2c-0.83,-2.5 -1.25,-5.42 -1.25,-8.34 0,-2.92 1.25,-5.43 2.92,-7.93 1.67,-2.5 3.75,-4.17 6.26,-5.42 2.5,-1.25 5.42,-2.09 7.92,-1.67l86.36 0c22.11,0 42.97,-8.76 58.82,-24.61 15.43,-15.44 24.19,-36.71 24.19,-58.82l0 -179.39c0,-3.34 1.26,-6.67 3.34,-9.59 2.09,-2.92 5.01,-5.01 7.93,-6.26l40.88 -15.85c2.5,-0.84 5.42,-1.25 8.34,-0.84 2.92,0.42 5.43,1.26 7.51,2.92 2.09,1.67 4.18,3.76 5.43,6.26 1.25,2.92 2.08,5.84 2.08,8.34z"/>
   <path class="fil2" d="M2029.83 4544.2l-15.02 0c-59.66,0 -109.3,48.8 -108.47,108.04 0.42,27.54 12.1,54.24 31.71,73.43 19.6,19.6 46.3,30.45 74.25,30.45l39.63 0c5.43,0 10.43,2.08 14.19,5.84 3.75,3.75 5.84,8.76 5.84,14.18 0,5.43 -2.09,10.43 -5.84,14.19 -3.76,3.75 -8.76,5.84 -14.19,5.84l-179.38 0c-10.85,0 -20.86,-4.59 -28.37,-12.1 -7.51,-7.51 -11.68,-17.94 -12.1,-28.37l0 -75.09c0,-2.92 -0.83,-5.42 -2.08,-7.93 -1.25,-2.5 -3.34,-4.58 -5.43,-6.25 -2.08,-1.67 -5,-2.51 -7.51,-2.92 -2.92,-0.42 -5.42,0 -8.34,0.83l-41.3 15.85c-2.92,1.25 -5.84,3.34 -7.93,6.26 -2.08,2.92 -2.92,6.26 -2.92,9.59l0 179.39c0,22.11 -8.76,43.39 -24.19,58.82 -15.44,15.44 -36.71,24.61 -58.82,24.61l-86.77 0.01c-2.92,0 -5.43,0.83 -7.93,2.08 -2.5,1.25 -4.59,3.34 -6.26,5.43 -1.66,2.5 -2.5,5 -2.92,7.51 -0.41,2.92 0,5.42 1.26,8.34l11.26 29.2c2.5,6.68 7.09,12.52 12.93,16.69 5.84,4.17 12.93,6.26 20.03,5.84l60.9 0c41.3,0 80.93,-16.27 110.14,-45.89 29.2,-29.2 45.88,-68.84 45.88,-110.14l0 -18.35c15.86,7.92 33.38,12.1 50.9,12.1l157.27 0c30.46,0 60.08,-12.1 81.77,-33.79 21.69,-21.7 33.79,-50.9 33.79,-81.77l0 -85.94c0,-33.37 -13.35,-65.49 -36.71,-89.27 -23.78,-23.78 -55.9,-36.71 -89.27,-36.71zm50.47 136.41l-66.74 0c-7.93,0 -15.44,-2.5 -21.28,-7.92 -5.84,-5.43 -9.6,-12.52 -10.43,-20.45 0,-4.17 0.42,-8.76 2.08,-12.93 1.67,-4.17 3.76,-7.92 6.68,-10.84 5.84,-5.43 13.77,-8.77 21.69,-8.77l7.1 0c16.27,0 31.7,6.26 42.96,17.94 11.68,11.27 17.94,26.7 17.94,42.97z"/>
   <path class="fil2" d="M1689.83 4486.21l0 367.95c0,2.08 -0.42,4.58 -1.25,6.67 -0.84,2.09 -2.09,4.17 -3.76,5.84 -1.67,1.67 -3.34,2.92 -5.42,3.75 -2.09,0.84 -4.17,1.26 -6.68,1.26l-40.88 0c-2.08,0 -4.59,-0.42 -6.67,-1.26 -2.09,-0.83 -4.17,-2.08 -5.43,-3.75 -1.66,-1.67 -2.92,-3.75 -3.75,-5.84 -0.83,-2.09 -1.25,-4.59 -1.25,-6.67l0 -352.1c0,-3.33 0.83,-6.67 2.92,-9.59 2.08,-2.92 4.59,-5.01 7.92,-6.26l40.89 -15.85c2.5,-0.84 5.42,-1.25 8.34,-1.25 2.92,0.41 5.42,1.25 7.51,2.92 2.5,1.66 4.17,3.75 5.42,6.25 1.25,2.09 2.09,5.01 2.09,7.93z"/>
   <path class="fil2" d="M1386.54 4871.68l-153.93 0c-7.09,0 -14.19,-2.09 -20.03,-6.26 -5.84,-4.17 -10.43,-10.01 -13.35,-16.69l-11.26 -28.78c-0.83,-2.51 -1.25,-5.43 -0.83,-8.35 0.41,-2.92 1.25,-5.42 2.92,-7.92 1.66,-2.51 3.75,-4.17 6.25,-5.43 2.51,-1.25 5.43,-2.08 7.93,-2.08l184.39 0c3.34,0 6.67,-1.25 9.59,-2.92 2.93,-2.09 5.01,-4.59 6.68,-7.93 1.25,-3.34 1.67,-6.67 1.25,-10.01 -0.42,-3.34 -2.08,-6.68 -4.17,-9.18l-141.84 -154.35c-2.92,-3.34 -4.59,-7.93 -4.59,-12.52 0,-4.59 2.09,-8.76 5.84,-12.1l29.62 -27.53c3.34,-2.92 7.93,-4.59 12.52,-4.59 4.59,0.42 8.76,2.09 12.1,5.84l140.58 153.1c55.49,59.66 12.52,157.7 -69.67,157.7z"/>
   <path class="fil2" d="M971.88 4825.79l-20.03 17.1c-20.86,17.94 -47.56,27.95 -75.09,27.95l-211.51 0c-19.6,0 -39.21,-4.17 -57.15,-12.51l0 16.27c0,20.85 -4.17,41.71 -12.1,60.9 -7.92,19.19 -19.6,36.71 -34.62,51.73 -14.6,14.6 -32.12,26.28 -51.73,34.63 -19.19,7.92 -40.05,12.09 -60.91,12.09l-114.72 0.01c-20.86,0 -41.72,-4.18 -60.91,-12.1 -19.19,-7.93 -36.71,-19.61 -51.73,-34.63 -14.6,-14.6 -26.28,-32.12 -34.62,-51.73 -7.93,-19.19 -12.1,-40.04 -12.1,-60.9l0 -108.05c0,-3.34 1.25,-6.67 2.92,-9.59 2.09,-2.92 4.59,-5.01 7.93,-6.26l40.88 -15.85c2.5,-0.84 5.42,-1.26 8.34,-0.84 2.92,0.42 5.43,1.25 7.51,2.92 2.09,1.67 4.17,3.76 5.43,6.26 1.25,2.5 2.08,5.01 2.08,7.93l0 128.9c0,20.86 8.35,40.88 22.95,55.49 14.6,14.6 34.62,22.94 55.48,22.94l125.98 0c20.86,0 40.47,-8.35 55.07,-22.95 14.6,-14.6 22.95,-34.62 22.95,-55.48l0 -184.39c0,-3.34 1.25,-6.68 2.92,-9.6 2.08,-2.92 4.58,-5 7.92,-6.25l40.88 -15.86c2.51,-0.83 5.43,-1.25 8.35,-0.83 2.92,0.42 5.42,1.25 7.92,2.92 2.51,1.67 4.18,3.75 5.43,6.26 1.25,2.5 2.08,5.42 2.08,7.92l0 70.51c0,11.68 4.59,23.36 12.94,31.7 8.34,8.35 19.6,13.35 31.7,13.35l307.87 0c3.34,0 7.1,0.84 9.6,2.92 2.92,2.09 5.01,5.01 6.26,7.93 1.25,3.34 1.25,6.67 0.41,10.43 0,3.75 -2.08,6.67 -4.58,8.76z"/>
   <path class="fil2" d="M2029.83 4511.24c25.86,0 47.14,-21.28 47.14,-47.14 0,-25.87 -21.28,-47.14 -47.14,-47.14 -25.87,0 -47.15,21.27 -47.15,47.14 0,25.86 21.28,47.14 47.15,47.14z"/>
  </g>
  <path class="fil3" d="M3009.03 517.99l3386.83 0c240.18,0 434.96,194.78 434.96,434.96l0 3386.83c0,240.17 -194.78,434.95 -434.96,434.95l-3386.83 0.01c-240.17,-0.01 -434.95,-194.79 -434.95,-434.97l-0.01 -3386.82c0.01,-240.18 194.79,-434.96 434.97,-434.96z"/>
  <g id="_2868090220384">
   <path class="fil4" d="M6360.73 4095.86l-1800.5 -0.41 -781.77 -1948.47 -148.21 -393.42 226.19 -155.75 274.15 289.83 2244.27 2165.39c15.32,14.5 6.81,40.29 -14.13,42.83l0 0z"/>
   <path class="fil5" d="M4918.96 4191.94c11.02,1.73 21.76,-4.42 25.84,-14.8l783.05 -2030.17 164.26 -427.2 -193.89 -121.96 -322.5 289.83 -2346.05 2263.8c-14.34,13.58 -6.85,37.72 12.66,40.79l1876.63 -0.29z"/>
   <polygon class="fil6" points="4142.81,3055.07 4560.23,4095.45 4976.27,4095.54 5368.64,3059.95 4753.16,2477.14 "/>
   <path class="fil7" d="M5534.74 1603.39l-197.87 35.41 -3.4 5.05 -93.1 97.84c-16.65,17.5 -13.55,45.82 6.5,59.31l599.76 403.29c20.06,13.49 47.41,5.65 57.37,-16.35l55.49 -123.12 3.4 -5.05 0 -134.9 -428.15 -321.48z"/>
   <path class="fil8" d="M5352.37 1831.13l99.75 -101.55 3.65 -5.24 82.24 -118.51 -3.26 -2.45 -197.87 35.42 -3.41 5.04 -93.1 97.84c-16.65,17.5 -13.55,45.82 6.5,59.32l94.4 63.47c-1.63,-11.67 1.9,-23.99 11.09,-33.34l0.01 0z"/>
   <path class="fil9" d="M5989.15 1492.46c135.09,90.86 170.95,274.03 80.09,409.12l-106.35 158.19 -626.01 -420.97 106.35 -158.19c90.85,-135.09 274.02,-170.95 409.12,-80.1l136.8 91.95z"/>
   <path class="fil7" d="M5569.72 1560.16c74.42,-107.2 206.64,-154.1 329.47,-128.16l-46.84 -31.48c-135.09,-90.85 -318.26,-55 -409.12,80.1l-106.35 158.19 121.53 81.73 111.31 -160.38z"/>
   <path class="fil7" d="M4265.95 1741.69l-93.11 -97.84 -3.4 -5.05 -160.56 -40.99 -465.46 299.56 0 162.4 3.41 5.05 55.48 123.12c9.97,22 37.32,29.84 57.37,16.35l599.77 -403.29c20.05,-13.49 23.16,-41.81 6.5,-59.31l0 0z"/>
   <path class="fil8" d="M3746.5 2111.09l-55.49 -129.92 -3.4 -5.33 -77.39 -121.46 -66.8 42.99 0 162.4 3.41 5.04 55.48 123.13c9.97,22 37.32,29.84 57.37,16.34l107.35 -72.18c-8.74,-3.84 -16.24,-11.04 -20.53,-21.01l0 0z"/>
   <path class="fil9" d="M4063.09 1480.61l106.35 158.19 -626.02 420.97 -106.35 -158.19c-90.85,-135.09 -55,-318.26 80.1,-409.12l136.8 -91.95c135.1,-90.85 318.26,-55 409.12,80.1l0 0z"/>
   <path class="fil7" d="M3581.26 1808.92c-74.33,-116.62 -63.81,-267.17 16.44,-370.59l-80.53 54.14c-135.1,90.85 -170.95,274.02 -80.1,409.12l106.35 158.19 138.38 -93.06 -100.54 -157.8z"/>
   <path class="fil10" d="M4008.88 1146.06l0 124.65c0,44.12 -35.8,79.91 -79.92,79.91l-504.71 0c-44.12,0 -79.92,-35.79 -79.92,-79.91l0 -124.65 664.55 0z"/>
   <path class="fil10" d="M6161.98 1146.06l0 124.65c0,44.12 -35.79,79.91 -79.91,79.91l-504.72 0c-44.12,0 -79.91,-35.79 -79.91,-79.91l0 -124.65 664.54 0z"/>
   <path class="fil7" d="M4084.29 1191.66l-814.64 0c-25.17,0 -45.58,-20.41 -45.58,-45.58 0,-25.17 20.41,-45.58 45.58,-45.58l814.64 0c25.17,0 45.58,20.41 45.58,45.58 0,25.17 -20.41,45.58 -45.58,45.58z"/>
   <path class="fil6" d="M5979.85 2860.27c-32.01,-20.04 -58.97,-45.88 -80.59,-77.87 -12.5,-18.5 -39.97,-16.81 -50.54,2.87 -17.42,32.47 -44.7,58.26 -81.94,77.41 -20.09,10.33 -21.55,38.47 -2.65,50.86 31.69,20.78 58.22,47.8 79.22,81.52 11.62,18.66 38.51,18.38 50.23,-0.23 21.36,-33.91 50.22,-62.03 86.43,-84.47 18.58,-11.53 18.37,-38.48 -0.16,-50.08l0 -0.01z"/>
   <path class="fil6" d="M3726.68 2924.23c-28.7,-17.98 -52.88,-41.15 -72.27,-69.84 -11.21,-16.59 -35.85,-15.07 -45.32,2.57 -15.62,29.11 -40.09,52.25 -73.48,69.42 -18.02,9.27 -19.33,34.49 -2.38,45.6 28.41,18.64 52.21,42.87 71.04,73.11 10.42,16.73 34.54,16.48 45.05,-0.21 19.16,-30.41 45.04,-55.63 77.51,-75.76 16.67,-10.32 16.48,-34.49 -0.15,-44.89l0 0z"/>
   <path class="fil7" d="M6236.67 1191.66l-814.64 0c-25.18,0 -45.58,-20.41 -45.58,-45.58 0,-25.17 20.4,-45.58 45.58,-45.58l814.64 0c25.18,0 45.58,20.41 45.58,45.58 0,25.17 -20.41,45.58 -45.58,45.58z"/>
  </g>
 </g>
</svg>
