<?xml version="1.0" encoding="UTF-8"?>
<!DOCTYPE svg PUBLIC "-//W3C//DTD SVG 1.1//EN" "http://www.w3.org/Graphics/SVG/1.1/DTD/svg11.dtd">
<!-- Creator: CorelDRAW 2020 (64-Bit) -->
<svg xmlns="http://www.w3.org/2000/svg" xml:space="preserve" width="94.1916mm" height="52.9166mm" version="1.1" style="shape-rendering:geometricPrecision; text-rendering:geometricPrecision; image-rendering:optimizeQuality; fill-rule:evenodd; clip-rule:evenodd"
viewBox="0 0 9404.92 5283.66"
 xmlns:xlink="http://www.w3.org/1999/xlink"
 xmlns:xodm="http://www.corel.com/coreldraw/odm/2003">
 <defs>
  <style type="text/css">
   <![CDATA[
    .str0 {stroke:#074F77;stroke-width:26.41;stroke-miterlimit:22.9256}
    .fil4 {fill:#00325A}
    .fil5 {fill:#01A0C8}
    .fil3 {fill:#074F77}
    .fil0 {fill:#E6E7E8}
    .fil7 {fill:#F0F0F0}
    .fil6 {fill:#FEFEFE}
    .fil8 {fill:#347AB4;fill-rule:nonzero}
    .fil9 {fill:#FFEA00;fill-rule:nonzero}
    .fil2 {fill:#373435;fill-opacity:0.031373}
    .fil1 {fill:#2B2A29;fill-opacity:0.101961}
   ]]>
  </style>
 </defs>
 <g id="Layer_x0020_1">
  <metadata id="CorelCorpID_0Corel-Layer"/>
  <polygon class="fil0" points="-0,0 9404.92,0 9404.92,5283.66 -0,5283.66 "/>
  <path class="fil1" d="M-0 3518.41l0 -8.23 0 -115.06 0 -2.92 0 -43.76 0 -2.84 0 -15.19 0 -28.73 0 -0.94 0 -16.1 0 -36.59 0 -5.11 0 -5 0 -54.43 0 -9.16 0 -2.06 0 -14.26 0 -25.54 0 -1.78 0 -25.54 0 -11.97 0 -37.28 0 -23.94 0 -14 0 -2.11 0 -102.52 0 -21.91 0 -1.08 0 -42.59 0 -35.37 0 -73.29 0 -3.62 0 -0.59 0 -9.13 0 -14.04 0 -1.5 0 -3.6 0 -3.94 0 -41.23 0 -17.8 0 -20.97 0 -16.97 0 -22.91 0 -20.89 0 -1.11 0 -6.85 0 -11.91 0 -1.11 0 -25.24 0 -15.19 0 -258.46 4357.44 -1704.98 -45.78 18.05 -44.65 20.19 -43.47 22.26 -42.22 24.27 -40.91 26.23 -39.52 28.11 -38.08 29.92 -36.58 31.69 -35.02 33.38 -33.38 35.01 -31.68 36.58 -29.93 38.08 -28.1 39.53 -26.23 40.9 -24.27 42.23 -19.22 37.51 665.84 -255.84 7.32 -2.73 7.33 -2.53 7.35 -2.34 7.37 -2.17 7.39 -2.01 7.42 -1.86 7.45 -1.74 7.49 -1.63 7.54 -1.52 7.58 -1.44 7.63 -1.37 7.7 -1.31 7.75 -1.27 7.82 -1.24 7.89 -1.22 11.11 -1.21 11.34 -1.18 11.5 -1.1 11.57 -0.98 11.57 -0.84 11.49 -0.64 11.35 -0.41 11.11 -0.15 0.14 0 0.37 0 0.52 0 0.6 0 0.6 0 0.52 0 0.37 0 0.14 0 7.31 0 7.27 0 7.2 0 7.08 0 6.93 0 6.74 0 6.51 0 6.24 0 0.14 0 0.37 0 0.52 0 0.6 0 0.6 0 0.52 0 0.37 0 0.14 0 13.27 0.15 13.05 0.46 12.89 0.76 12.82 1.07 12.82 1.38 12.89 1.68 13.05 1.98 13.28 2.29 12.19 2.45 12.19 2.54 12.19 2.68 12.2 2.91 12.19 3.22 12.2 3.6 12.19 4.05 12.2 4.58 12.03 5.03 11.7 5.38 11.31 5.76 10.89 6.18 10.43 6.63 9.93 7.14 9.42 7.66 8.84 8.24 7.15 7.48 6.77 7.82 6.31 8.2 5.78 8.62 5.17 9.08 4.48 9.58 3.72 10.1 2.89 10.67 1.07 4.88 0.81 4.87 0.58 4.88 0.38 4.87 0.24 4.88 0.12 4.87 0.04 4.88 0.01 4.87 0 10.06 0 10.05 0 10.06 0 10.06 0 10.05 0 10.06 0 10.06 0 10.05 0 10.06 0 10.06 0 10.05 0 10.06 0 10.06 0 10.05 0 10.06 0 10.05 0 10.06 0 10.06 0 10.05 0 0.11 42.27 -15.65 1.08 0 0.85 0 0.7 0 0.62 0 0.62 0 0.7 0 0.86 0 1.08 0 7.32 0 7.32 0 7.31 0 7.32 0 7.32 0 7.32 0 7.32 0 7.32 0 7.32 0 7.32 0 7.32 0 7.32 0 7.32 0 7.31 0 7.32 0 7.32 0 9.61 0.3 9.35 0.87 9.12 1.41 8.92 1.9 8.78 2.36 8.66 2.78 8.58 3.16 8.55 3.5 11.89 6.55 11.27 7.42 10.67 8.27 10.05 9.06 9.46 9.83 8.85 10.55 8.23 11.23 7.63 11.89 5.3 8.61 4.93 8.76 4.6 8.89 4.26 9.02 3.97 9.13 3.67 9.24 3.41 9.33 3.17 9.41 2.94 9.5 2.74 9.56 2.54 9.61 2.37 9.67 2.21 9.7 2.09 9.73 1.97 9.75 1.87 9.76 0.14 2.44 0.37 2.44 0.52 2.44 0.6 2.45 0.59 2.44 0.52 2.44 0.26 1.72 0.28 -0.1 0 12.23 0 12.29 0 12.36 0 12.4 0 12.44 0 12.47 0 12.49 0 12.49 0 12.5 0 12.49 0 12.47 0 12.44 0 12.4 0 12.36 0 12.29 0 12.23 -0.14 2.3 -0.37 2.07 -0.52 1.93 -0.6 1.84 -0.6 1.84 -0.52 1.93 -0.37 2.07 -0.14 2.3 -1.51 10.83 -2.05 10.61 -0.32 1.33 1021.79 0 14.14 1.47 13 4.17 11.62 6.53 10.02 8.56 8.19 10.23 6.14 11.57 3.84 12.55 1.34 13.21 0 1951.27 -1.47 14.14 -4.17 12.99 -6.53 11.62 -8.56 10.02 -10.23 8.2 -11.57 6.13 -12.55 3.84 -516.54 154.34 0.58 0.7 6.3 11.6 3.97 12.82 0.92 9.1 197.73 -58.9 14.14 -1.47 279.68 0 13.21 1.34 12.55 3.84 11.56 6.13 10.23 8.2 8.56 10.02 6.53 11.62 4.17 12.99 1.47 14.14 -1.34 13.2 -3.84 12.56 -6.13 11.56 -8.2 10.23 -10.02 8.56 -11.62 6.53 -12.99 4.17 -471.74 138.07 525.9 0 14.43 -0.71 13.99 -2.1 13.47 -3.41 -1473.16 425.73 36.12 0 -968.64 279.69 1319.86 0 3.27 0 13.2 -1.34 -1706.8 477.27 -8.08 0 -3.14 0 -1266.62 0 -33.86 0 -18.44 0 -154.16 0 -289.61 0 -32.7 0 -155.22 0 -33.62 0 -65.91 0 -167.04 0 -89.37 0 -12.02 0 -96.51 0 -50.04 0 -8.18 0 -112.52 0 -58.99 0 -86.01 0 -2.56 0 -339.57 0 -17.44 0 -187.88 0 -381.8 0 -109.96 0 0 -263.22 0 -19.95 0 -8.24 0 -125.15 0 -0.19 0 -2.89 0 -14.74 0 -13.97 0 -21.26 0 -32.73 0 -2.95 0 -2.86 0 -5.36 0 -46.77 0 -46.2 0 -32.71 0 -257.72 0 -10.88 0 -23.89 0 -13.9 0 -82.96 0 -10.33 0 -3.39 0 -92.97 0 -2.99 0 -35.93 0 -172.06 0 -46.76 0 -13.6 0 -17.78 0 -27.49 0 -13.3 0 -3.55 0 -40.56 0 -77.42 0 -3.3 0 -13.95 0 -9.84 0 -2.87 0 -0.94 0 -67.9 0 -41.91 0 -24.73 0 -13.15zm6655.35 -1920.5l0 0z"/>
  <path class="fil2" d="M578.49 4627.69c17.95,27.21 29.6,53.36 40.96,82.43 8.45,16.91 12.93,48.09 52.57,48.09 11.61,0 28.28,-3.42 43.06,-11.61 16.63,-8.73 29.32,-21.94 35.94,-42l15.85 -53.36 38.57 -19.02 2.64 2.64c-5.27,20.09 -6.59,39.36 -6.59,54.43 0,44.63 38.57,61.56 69.22,61.56 17.95,0 34.09,-8.73 34.09,-25.11 0,-21.13 -8.98,-57.06 -20.62,-89.29 17.95,-17.95 35.94,-35.94 56.53,-50.47l3.17 1.6c8.98,38.04 14,75.56 14,100.66 0,24.57 -10.83,51.79 -19.81,69.49 -18.49,34.87 -51.25,62.62 -90.87,62.62 -30.1,0 -63.65,-15.07 -86.66,-43.06l-1.32 0c-21.66,26.96 -55.22,51.25 -108.86,51.25l-16.63 0c-2.64,35.41 -10.29,60.49 -21.94,82.95 -31.95,62.34 -126.81,106.47 -216.1,106.47 -124.17,0 -186.51,-71.59 -186.51,-166.96 0,-58.91 19.27,-113.6 48.88,-152.42l24.29 10.04c-18.49,35.41 -30.91,68.68 -30.91,101.45 0,89.29 72.66,131.83 156.4,131.83 77.68,0 173.83,-49.41 191.28,-106.72 -6.59,-62.62 -30.1,-91.93 -66.04,-148.99 10.83,-19.02 24.83,-38.04 42.28,-58.38l3.17 0 0 0 0 0 -0.02 -0.09zm1432.13 -336.04c26.15,16.39 51.79,35.66 76.87,57.85 -14,19.81 -31.45,37.79 -53.11,53.64 -25.11,-20.34 -50.19,-37.79 -75.84,-56.27 17.42,-19.55 34.62,-38.29 52.04,-55.22l0 0 0 0 0 0 0 0 0 0 0.03 0zm13.47 244.11c-42.28,0 -76.87,27.75 -76.87,48.34 0,44.13 84.53,57.85 185.72,57.31 -12.68,-51.79 -57.06,-105.68 -108.86,-105.68l0.01 0.03zm-94.86 236.19c54.96,0 103.04,-1.6 139.74,-10.83 40.96,-10.29 75.56,-30.91 75.56,-45.17 0,-3.7 0,-8.19 -1.32,-11.89 -22.98,2.11 -49.41,2.11 -72.38,2.11 -74.49,0 -131.55,-16.91 -154.02,-58.66 -5.55,-11.61 -9.51,-24.57 -9.51,-39.36 0,-40.43 17.42,-79.79 48.09,-107 25.61,-22.45 53.89,-36.44 82.67,-36.44 52.04,0 93.51,41.75 122.57,107.54 15.85,35.94 26.68,77.4 26.68,129.72 0,34.87 -9.51,64.19 -31.17,85.85 -40.43,39.11 -114.92,53.89 -229.04,53.89l-51.79 0 0 0 -13.47 0c-28.28,0 -48.62,-5.02 -64.72,-17.42l-2.64 0c0.79,6.59 1.32,12.93 1.32,19.02 0,25.61 -8.45,58.38 -25.61,84.53 -50.72,75.3 -105.68,108.04 -153.24,108.04 -48.09,0 -107,-18.49 -160.11,-42.54l9.51 -18.49c17.17,7.13 40.96,11.89 73.7,11.89 85.85,0 198.66,-82.43 212.66,-163 -3.17,-6.59 -8.98,-15.32 -17.17,-24.57 -25.11,-29.85 -40.96,-54.68 -55.75,-80.83 12.68,-25.11 24.29,-45.17 35.13,-63.4l4.49 -0.53c36.72,74.77 69.99,117.55 144.23,117.55l11.61 0 0 0 53.89 0 0 0 0 0 0 0 0 0 0 0 0.09 0.01zm-371.98 79c6.34,-34.34 6.87,-72.91 6.87,-108.86l0 -53.36c0,-99.6 -12.68,-244.36 -22.98,-338.68 17.95,-19.27 43.06,-42 62.87,-57.31l5.81 1.6c13.47,118.62 16.63,256 16.63,383.06 0,33.3 -1.32,65.79 -4.49,89.55 -1.85,30.1 -19.27,52.83 -56.53,87.7l-8.19 -3.7zm-382.8 -157.19c1.85,46.77 24.83,83.49 105.15,83.49 49.93,0 92.19,-12.93 138.96,-35.13 8.45,-3.7 12.93,-8.73 12.93,-12.93 0,-29.32 -22.45,-68.15 -60.23,-103.55 -36.72,-33.3 -85.34,-62.62 -130.76,-82.18 -15.6,-6.59 -20.62,-13.47 -20.62,-20.09 0,-13.47 17.95,-41.75 32.77,-62.09l5.02 -0.53c52.04,27.21 110.17,67.64 153.24,112.53 39.11,41.47 63.4,83.49 63.4,129.19 0,33.81 -10.29,65.51 -26.96,95.11 -57.06,28.79 -117.83,50.72 -178.06,50.72 -73.17,0 -123.1,-34.34 -123.1,-114.92 0,-8.73 0,-22.19 3.17,-39.64l25.11 0 0 0 0 0 0 0 0 0 0 0 -0.02 0zm-132.37 -132.9l45.45 73.45c16.63,27.21 32.23,56.81 32.23,103.55l0 59.7c0,48.34 -30.91,100.13 -80.83,151.38 -39.11,34.62 -73.7,49.41 -105.68,49.41 -47.55,0 -101.98,-14.79 -164.85,-41.75l7.13 -18.49c19.81,5.27 42.79,9.77 71.06,9.77 90.36,-0.53 182.8,-66.57 225.08,-147.15 5.02,-9.26 6.87,-17.95 6.87,-24.04 0,-9.26 -5.02,-19.55 -8.98,-28.79 -22.98,-43.31 -48.62,-82.95 -76.87,-119.68 14.79,-23.25 29.6,-45.7 45.7,-67.9l3.7 0.53 0 0 0 0 0 0 0 0 0 0 -0.02 0.01z"/>
  <g id="_2686178835904">
   <polygon class="fil3" points="5120.36,4528.04 4284.56,4528.04 4375.63,3971.94 5029.3,3971.94 "/>
   <polygon class="fil4" points="5065.07,4180.08 4343.09,4180.08 4375.63,3971.94 5029.3,3971.94 "/>
   <polygon class="fil4" points="5052.05,4108.53 4352.86,4108.53 4375.63,3971.94 5029.3,3971.94 "/>
   <path class="fil5" d="M6655.35 1597.91l0 2370.79c0,78.05 -61.79,139.84 -139.84,139.84l-3626.1 0c-78.05,0 -139.84,-61.79 -139.84,-139.84l0 -2370.79c0,-78.06 61.79,-139.85 139.84,-139.85l3626.1 0c78.05,0 139.84,61.79 139.84,139.85l0 0z"/>
   <path class="fil6" d="M6515.52 1688.96l0 1951.27c0,39.02 -32.52,68.29 -68.3,68.29l-3486.25 0c-39.02,0 -68.29,-32.52 -68.29,-68.29l0 -1951.27c0,-39.02 32.52,-68.3 68.29,-68.3l3486.25 0c39.03,0 68.3,32.52 68.3,68.3l0 0z"/>
   <path class="fil5" d="M5471.58 4807.73l-1535 0c-39.02,0 -68.29,-32.52 -68.29,-68.29l0 -68.29c0,-78.06 61.79,-139.85 139.84,-139.85l1395.16 0c78.05,0 139.84,61.79 139.84,139.85l0 68.29c0,39.02 -32.52,68.29 -68.29,68.29l0 0 -3.27 0z"/>
   <path class="fil7" d="M6167.53 3971.94l279.68 0c39.02,0 68.29,-32.52 68.29,-68.29 0,-39.02 -32.51,-68.29 -68.29,-68.29l-279.68 0c-39.02,0 -68.29,32.52 -68.29,68.29 0,39.02 32.51,68.29 68.29,68.29l0 0z"/>
   <circle class="fil6" cx="5887.85" cy="3900.4" r="68.29"/>
   <path class="fil3" d="M3191.85 1727.99l3021.22 0c62.86,0.01 113.83,74.28 113.83,165.87l-0.01 1544.74c0.01,91.57 -50.95,165.84 -113.82,165.84l-3021.22 0.01c-62.84,-0.01 -113.81,-74.28 -113.81,-165.87l0 -1544.73c0,-91.58 50.96,-165.85 113.82,-165.85z"/>
   <path class="fil6" d="M4330.08 3386.56c-19.51,0 -39.02,-6.51 -52.02,-22.77l-299.2 -299.2c-29.27,-29.27 -29.27,-74.8 0,-104.06l299.2 -299.2c29.27,-29.27 74.8,-29.27 104.06,0 29.27,29.27 29.27,74.81 0,104.07l-243.91 243.91 243.91 243.91c29.27,29.27 29.27,74.81 0,104.07 -13,13.01 -32.51,22.77 -52.02,22.77l0 0 0 0 -0.02 6.49z"/>
   <path class="fil6" d="M5074.83 3386.56c-19.51,0 -39.02,-6.51 -52.02,-22.77 -29.28,-29.27 -29.28,-74.81 0,-104.07l243.91 -243.91 -243.91 -243.91c-29.28,-29.27 -29.28,-74.81 0,-104.07 29.27,-29.27 74.8,-29.27 104.06,0l299.2 299.2c29.27,29.27 29.27,74.8 0,104.07l-299.2 299.19c-13,13.01 -32.51,22.77 -52.02,22.77l0 0 0 0 -0.02 -6.49z"/>
   <path class="fil6" d="M4629.28 3386.56c-6.5,0 -13.01,0 -19.51,-3.26 -39.02,-9.76 -65.04,-52.03 -55.29,-91.06l149.6 -595.14c9.76,-39.02 52.02,-65.03 91.06,-55.28 39.02,9.76 65.03,52.03 55.28,91.06l-149.59 595.14c-9.76,32.51 -39.02,55.28 -71.54,55.28l0 0 -0.01 3.26z"/>
   <circle class="fil6 str0" cx="4704.08" cy="1484.08" r="1008.15"/>
   <path class="fil8" d="M3972.37 1506.85c0,-16.27 0,-32.52 0,-48.79 0,0 0,-3.25 0,-3.25 0,-29.27 3.25,-58.53 9.76,-84.56 6.5,-29.27 13,-58.53 22.76,-87.81 16.27,-39.03 35.78,-71.54 68.3,-100.83 22.76,-19.51 52.02,-35.77 81.31,-42.27 19.51,-3.26 39.02,-6.51 58.53,-6.51 162.6,0 325.21,0 491.06,0 0,0 3.26,0 3.26,0 0,-16.26 0,-32.52 0,-52.03 -117.08,0 -237.41,0 -354.47,0 0,-3.25 0,-3.25 0,-6.5 0,-52.03 0,-104.07 0,-159.35 0,0 0,-3.26 0,-3.26 0,-6.5 0,-13.01 0,-19.51 3.26,-22.77 16.26,-45.52 35.77,-61.79 19.51,-19.51 45.53,-32.51 68.3,-42.27 39.02,-16.27 78.05,-22.77 120.33,-29.28 29.27,-3.25 61.79,-6.5 91.06,-6.5 0,0 3.26,0 3.26,0 19.51,0 39.02,0 55.28,0 0,0 3.26,0 3.26,0 35.77,0 68.29,3.26 104.07,9.76 32.51,6.5 65.03,13.01 97.56,26.02 32.52,13 61.79,29.27 84.56,52.02 19.51,19.51 35.77,42.28 42.28,71.54 3.25,13.01 3.25,26.02 3.25,39.02 0,107.33 0,214.64 0,321.95 0,16.27 -3.25,35.78 -6.5,52.03 -9.76,42.28 -32.52,78.06 -71.54,104.07 -35.77,22.77 -78.05,35.78 -120.33,35.78 -117.08,0 -230.9,0 -347.97,0 -22.76,0 -45.52,3.25 -68.29,6.5 -42.28,9.76 -74.81,32.52 -97.56,65.03 -29.27,39.02 -39.02,84.56 -42.28,133.34 0,58.53 0,113.83 0,172.36 0,0 0,3.26 0,3.26 -3.26,0 -3.26,0 -3.26,0 -42.28,0 -81.31,0 -123.58,0 -6.5,0 -16.26,0 -22.76,-3.26 -32.52,-6.5 -61.79,-22.76 -84.56,-45.52 -29.27,-26.02 -45.53,-58.53 -61.79,-91.06 -13.01,-29.27 -19.51,-58.53 -26.01,-91.06 -6.51,-29.28 -6.51,-55.29 -9.76,-84.56 0,-6.51 0,-16.27 0,-22.77l0 0 0 0 -3.27 0.03zm533.34 -640.66l0 0c-35.77,0 -65.03,29.27 -65.03,65.03 0,35.78 29.27,65.04 65.03,65.04 35.78,0 65.04,-29.27 65.04,-65.04 0,-35.77 -29.27,-65.03 -65.04,-65.03l0 0 0 0z"/>
   <path class="fil9" d="M5432.56 1383.27c0,65.03 0,133.34 0,198.37 0,6.5 -3.26,9.76 -3.26,16.26 -3.25,29.28 -13,55.29 -22.76,84.56 -13.01,39.02 -35.78,71.54 -65.04,100.82 -29.27,26.02 -65.03,42.28 -104.07,48.79 -13,3.25 -26.01,0 -42.27,0 -162.6,0 -325.21,0 -487.81,0 0,0 -3.26,0 -3.26,0 0,16.26 0,32.51 0,52.02 117.07,0 237.41,0 354.47,0 0,0 0,3.26 0,3.26 0,55.28 0,113.83 0,169.1 0,6.51 0,13.01 -3.26,16.27 -6.5,26.01 -19.51,45.52 -39.02,65.03 -26.01,22.77 -55.28,35.78 -87.81,45.53 -45.53,13 -87.82,22.76 -133.34,26.01 -26.02,3.26 -55.29,3.26 -81.31,3.26 -35.78,0 -68.29,0 -104.07,-3.26 -19.51,-3.26 -42.28,-6.5 -61.79,-9.76 -35.77,-6.5 -68.29,-16.26 -100.82,-32.52 -29.27,-16.26 -55.29,-35.77 -74.81,-61.79 -13.01,-19.51 -22.77,-39.02 -22.77,-65.03 0,-9.76 0,-16.26 0,-26.01 0,-104.07 0,-208.13 0,-312.21 0,-19.51 0,-35.77 6.51,-55.28 9.76,-42.28 32.51,-78.06 71.54,-104.07 39.02,-26.01 78.05,-35.77 123.57,-35.77 117.08,0 230.91,0 347.97,0 22.77,0 45.53,-3.26 68.29,-6.51 39.02,-9.76 71.54,-29.27 94.32,-61.79 29.27,-39.02 42.28,-84.55 42.28,-130.08 0,-58.53 0,-117.07 0,-175.6 0,0 0,-3.26 0,-6.51 3.25,0 3.25,0 6.5,0 39.02,0 78.06,0 117.08,0 26.01,0 48.78,6.51 71.54,16.27 32.51,16.26 58.53,42.27 78.05,74.8 29.27,45.53 42.28,97.57 52.03,149.6 0,6.5 3.25,13 3.25,19.51l0 0 0 0 0.03 -3.27zm-526.84 718.71l0 0c35.77,0 65.03,-29.27 65.03,-65.03 0,-35.78 -29.27,-65.04 -65.03,-65.04 -35.78,0 -65.04,29.27 -65.04,65.04 0,35.77 29.27,65.03 65.04,65.03z"/>
  </g>
 </g>
</svg>
