<?xml version="1.0" encoding="UTF-8"?>
<!DOCTYPE svg PUBLIC "-//W3C//DTD SVG 1.1//EN" "http://www.w3.org/Graphics/SVG/1.1/DTD/svg11.dtd">
<!-- Creator: CorelDRAW 2020 (64-Bit) -->
<svg xmlns="http://www.w3.org/2000/svg" xml:space="preserve" width="94.1916mm" height="52.9166mm" version="1.1" style="shape-rendering:geometricPrecision; text-rendering:geometricPrecision; image-rendering:optimizeQuality; fill-rule:evenodd; clip-rule:evenodd"
viewBox="0 0 9404.92 5283.66"
 xmlns:xlink="http://www.w3.org/1999/xlink"
 xmlns:xodm="http://www.corel.com/coreldraw/odm/2003">
 <defs>
  <style type="text/css">
   <![CDATA[
    .fil0 {fill:#E6E7E8}
    .fil3 {fill:#FEFEFE;fill-rule:nonzero}
    .fil4 {fill:#727271;fill-rule:nonzero}
    .fil13 {fill:#525252;fill-rule:nonzero}
    .fil14 {fill:#6B6B6B;fill-rule:nonzero}
    .fil10 {fill:#878787;fill-rule:nonzero}
    .fil12 {fill:#9B9B9B;fill-rule:nonzero}
    .fil15 {fill:#ABC241;fill-rule:nonzero}
    .fil18 {fill:#AFC548;fill-rule:nonzero}
    .fil17 {fill:#D9DADC;fill-rule:nonzero}
    .fil6 {fill:#E1E2E3;fill-rule:nonzero}
    .fil7 {fill:#E45351;fill-rule:nonzero}
    .fil8 {fill:#ECECEC;fill-rule:nonzero}
    .fil11 {fill:#EFEFEF;fill-rule:nonzero}
    .fil9 {fill:#F37767;fill-rule:nonzero}
    .fil5 {fill:#FFCE2E;fill-rule:nonzero}
    .fil16 {fill:white;fill-rule:nonzero}
    .fil2 {fill:#373435;fill-opacity:0.031373}
    .fil1 {fill:#2B2A29;fill-opacity:0.101961}
   ]]>
  </style>
 </defs>
 <g id="Layer_x0020_1">
  <metadata id="CorelCorpID_0Corel-Layer"/>
  <polygon class="fil0" points="-0,0 9404.92,0 9404.92,5283.66 -0,5283.66 "/>
  <polygon class="fil1" points="4388.14,5283.66 3765.25,5283.66 3539.9,5283.66 3538.69,5283.66 3530.67,5283.66 3530.42,5283.66 3530.2,5283.66 3510.65,5283.66 3464.58,5283.66 3452.63,5283.66 3428.68,5283.66 3404.72,5283.66 3335.1,5283.66 3275.59,5283.66 3266.12,5283.66 3119.35,5283.66 3111,5283.66 3109.73,5283.66 3101.61,5283.66 3101.37,5283.66 3101.16,5283.66 3081.69,5283.66 3034.46,5283.66 3025.26,5283.66 3000.79,5283.66 2977.22,5283.66 2900.56,5283.66 2849.85,5283.66 2840.23,5283.66 2824.47,5283.66 2796.7,5283.66 2702.06,5283.66 2697.49,5283.66 2677.69,5283.66 2676.36,5283.66 2668.17,5283.66 2667.93,5283.66 2667.68,5283.66 2648.29,5283.66 2599.88,5283.66 2593.44,5283.66 2568.45,5283.66 2560.68,5283.66 2545.33,5283.66 2482.82,5283.66 2428.47,5283.66 2419.73,5283.66 2409.97,5283.66 2402.64,5283.66 2378.59,5283.66 2338.2,5283.66 2281.82,5283.66 2271.32,5283.66 2261.16,5283.66 2259.74,5283.66 2251.51,5283.66 2251.28,5283.66 2251.02,5283.66 2231.71,5283.66 2218.98,5283.66 2208.54,5283.66 2182.18,5283.66 2178.39,5283.66 2171.56,5283.66 2163.19,5283.66 2152.89,5283.66 2145.61,5283.66 2143.87,5283.66 2139.8,5283.66 2130.18,5283.66 2111.65,5283.66 2064.82,5283.66 2015.49,5283.66 2006.26,5283.66 1996.38,5283.66 1976.45,5283.66 1956.17,5283.66 1955.45,5283.66 1923.14,5283.66 1868.46,5283.66 1861.65,5283.66 1857.23,5283.66 1844.35,5283.66 1842.9,5283.66 1839.85,5283.66 1834.57,5283.66 1834.34,5283.66 1834.11,5283.66 1830.81,5283.66 1814.86,5283.66 1807.84,5283.66 1794.68,5283.66 1764.19,5283.66 1763.28,5283.66 1763.08,5283.66 1762.17,5283.66 1753.7,5283.66 1737.08,5283.66 1734.05,5283.66 1726.84,5283.66 1726.26,5283.66 1723.16,5283.66 1714.76,5283.66 1702.24,5283.66 1693.64,5283.66 1652.43,5283.66 1625.6,5283.66 1598.28,5283.66 1592.51,5283.66 1582.5,5283.66 1566.78,5283.66 1550.12,5283.66 1547.49,5283.66 1503.79,5283.66 1480.58,5283.66 1472.92,5283.66 1458.96,5283.66 1451.7,5283.66 1449.1,5283.66 1433.11,5283.66 1431.86,5283.66 1431.61,5283.66 1423.22,5283.66 1422.99,5283.66 1422.76,5283.66 1422.73,5283.66 1403.59,5283.66 1392.48,5283.66 1376.56,5283.66 1358.83,5283.66 1353.3,5283.66 1351.79,5283.66 1348.59,5283.66 1340,5283.66 1326.81,5283.66 1323.16,5283.66 1320.04,5283.66 1315.02,5283.66 1309.61,5283.66 1304.89,5283.66 1296.72,5283.66 1288.65,5283.66 1285.88,5283.66 1243.88,5283.66 1219.03,5283.66 1200.63,5283.66 1197.22,5283.66 1184.31,5283.66 1174.18,5283.66 1156.87,5283.66 1143.8,5283.66 1135.33,5283.66 1127.24,5283.66 1100.68,5283.66 1076.15,5283.66 1047.26,5283.66 1045.26,5283.66 1040.72,5283.66 1025.69,5283.66 1024.12,5283.66 1019.72,5283.66 1015.67,5283.66 1015.43,5283.66 1015.2,5283.66 1010.46,5283.66 996.09,5283.66 993.22,5283.66 974.65,5283.66 970.84,5283.66 961.37,5283.66 951.02,5283.66 950.26,5283.66 947.33,5283.66 943.2,5283.66 942.32,5283.66 922.06,5283.66 920.33,5283.66 919.79,5283.66 908.56,5283.66 902.66,5283.66 898.82,5283.66 894.68,5283.66 891.08,5283.66 877.19,5283.66 873.91,5283.66 830.26,5283.66 808.31,5283.66 801.88,5283.66 795.9,5283.66 779.88,5283.66 769.63,5283.66 752.42,5283.66 742.92,5283.66 739.14,5283.66 729.81,5283.66 714.51,5283.66 697.3,5283.66 667.56,5283.66 647.59,5283.66 646.57,5283.66 637.79,5283.66 627.54,5283.66 623.52,5283.66 614.15,5283.66 593.69,5283.66 574.82,5283.66 572.47,5283.66 565.23,5283.66 557.5,5283.66 553.17,5283.66 544.39,5283.66 523.82,5283.66 521.81,5283.66 507.26,5283.66 506.27,5283.66 493.23,5283.66 488.48,5283.66 482.69,5283.66 477.9,5283.66 435.78,5283.66 413.47,5283.66 399.96,5283.66 399.03,5283.66 351.71,5283.66 345.75,5283.66 342.67,5283.66 328.24,5283.66 320.01,5283.66 318.62,5283.66 299.35,5283.66 280.31,5283.66 277.64,5283.66 274.79,5283.66 249.64,5283.66 238.6,5283.66 235.22,5283.66 227.06,5283.66 218.73,5283.66 217.58,5283.66 199.52,5283.66 175.68,5283.66 174.94,5283.66 174.73,5283.66 174.5,5283.66 166.6,5283.66 165.02,5283.66 164.47,5283.66 160.67,5283.66 151.78,5283.66 140.18,5283.66 130.91,5283.66 127.53,5283.66 111.32,5283.66 109.62,5283.66 100.72,5283.66 98.03,5283.66 81.63,5283.66 79.43,5283.66 32.5,5283.66 18.38,5283.66 14.05,5283.66 11.78,5283.66 7.71,5283.66 -0,5283.66 -0,5281.33 -0,5271.45 -0,5262.38 -0,5258.31 -0,5249.13 -0,5247.14 -0,5241.9 -0,5237.34 -0,5237.21 -0,5236.01 -0,5232.33 -0,5231.64 -0,5231.19 -0,5220.69 -0,5217.43 -0,5211.32 -0,5207.08 -0,5203.1 -0,5199.38 -0,5191.1 -0,5191 -0,5190.96 -0,5190.89 -0,5187.64 -0,5187.37 -0,5186.64 -0,5185.04 -0,5182.84 -0,5181.24 -0,5178.84 -0,5169.4 -0,5159.32 -0,5158.99 -0,5156.09 -0,5154.1 -0,5151.25 -0,5146.63 -0,5143.21 -0,5130.23 -0,5128.32 -0,5118.78 -0,5116.84 -0,5105.38 -0,5089.67 -0,5086.1 -0,5078.08 -0,5072.55 -0,5064.47 -0,5063.22 -0,5060.34 -0,5059.41 -0,5058.02 -0,5047.62 -0,5046.22 -0,5044.32 -0,5037.26 -0,5032.86 -0,5023.02 -0,5017.72 -0,5017.62 -0,5017.52 -0,5013.86 -0,5013.09 -0,5011.82 -0,5003.73 -0,4983.45 -0,4979.45 -0,4977.42 -0,4970.91 -0,4970.15 -0,4959.15 -0,4955.85 -0,4942.86 -0,4942.65 -0,4936.98 -0,4915.52 -0,4911.67 -0,4906.4 -0,4902.38 -0,4900.48 -0,4890.06 -0,4889.52 -0,4888.24 -0,4881.5 -0,4881.4 -0,4869.22 -0,4868.99 -0,4856.52 -0,4853.95 -0,4849.99 -0,4845.4 -0,4842.13 -0,4842.01 -0,4841.91 -0,4838.83 -0,4838.15 -0,4838.13 -0,4837.32 -0,4836.49 -0,4815.11 -0,4811.8 -0,4801.79 -0,4799.65 -0,4794.94 -0,4772.76 -0,4769.21 -0,4765.49 -0,4742.67 -0,4737.27 -0,4734.27 -0,4731.91 -0,4730.3 -0,4726.41 -0,4724.73 -0,4724.39 -0,4723.85 -0,4722.08 -0,4718.17 -0,4714.2 -0,4711.57 -0,4710.23 -0,4709.78 -0,4706.91 -0,4706.74 -0,4704.18 -0,4696.61 -0,4690.81 -0,4690.65 -0,4678.73 -0,4678.53 -0,4667.26 -0,4663.51 -0,4663.4 -0,4663.29 -0,4661.73 -0,4659.38 -0,4658.52 -0,4658.19 -0,4657.49 -0,4655.87 -0,4653.93 -0,4631.11 -0,4630.09 -0,4628.29 -0,4619.28 -0,4616.33 -0,4613.1 -0,4609.29 -0,4608.39 -0,4600.11 -0,4596.88 -0,4582.63 -0,4570.84 -0,4566.09 -0,4561.75 -0,4559.76 -0,4559.57 -0,4558.08 -0,4547.06 -0,4543.33 -0,4523.64 -0,4508.81 -0,4507.99 -0,4507.68 -0,4504.08 -0,4503.98 -0,4503.88 -0,4495.75 -0,4487.69 -0,4481.27 -0,4480.08 -0,4478.72 -0,4477.17 -0,4469.37 -0,4465.43 -0,4457.1 -0,4417.58 -0,4414.4 -0,4414.22 -0,4412.78 -0,4409.38 -0,4404.49 -0,4392.53 -0,4379.98 -0,4374.26 -0,4371.47 -0,4361.15 -0,4360.84 -0,4358.11 -0,4357.01 -0,4356.17 -0,4349.93 -0,4345.19 -0,4343.73 -0,4341.77 -0,4337.5 -0,4332.31 -0,4331.13 -0,4322.07 -0,4321.53 -0,4320.55 -0,4319.44 -0,4318.57 -0,4314.54 -0,4314.42 -0,4314.32 -0,4310.33 -0,4306 -0,4302.31 -0,4300.23 -0,4300.03 -0,4298.75 -0,4294.47 -0,4294.38 -0,4289.12 -0,4280.54 -0,4278.43 -0,4275.27 -0,4266.88 -0,4266.84 -0,4265.9 -0,4260.64 -0,4255.68 -0,4255.58 -0,4255.49 -0,4251.68 -0,4250.84 -0,4244.26 -0,4242.96 -0,4235.49 -0,4227.83 -0,4224.65 -0,4222.74 -0,4218.52 -0,4214 -0,4213.45 -0,4209.36 -0,4208.84 -0,4199.72 -0,4199.61 -0,4199.51 -0,4198.25 -0,4195.69 -0,4195.62 -0,4194.83 -0,4183.87 -0,4180.57 -0,4176.21 -0,4170.25 -0,4154.5 -0,4145.34 -0,4143.94 -0,4140.09 -0,4128.86 -0,4127.33 -0,4126.39 -0,4125.98 -0,4122.22 -0,4122.12 -0,4122 -0,4121.59 -0,4113.48 -0,4096.77 -0,4094.32 -0,4084.67 -0,4082.33 -0,4073.87 -0,4042.97 -0,4040.47 -0,4033.55 -0,4024.91 -0,4019.62 -0,4006.46 -0,3994.67 -0,3993.84 -0,3989.29 -0,3986.3 -0,3985.65 -0,3978.4 -0,3976.89 -0,3965.86 -0,3965.48 -0,3958.77 -0,3950.16 -0,3943.35 -0,3941.97 -0,3936.25 -0,3934.56 -0,3933.62 -0,3923.15 -0,3907.38 -0,3900.1 -0,3899.07 -0,3897.81 -0,3897.71 -0,3897.6 -0,3893.57 -0,3892.64 -0,3884.69 -0,3883.29 -0,3877.85 -0,3864.37 -0,3848.66 -0,3847.66 -0,3843.85 -0,3843.51 -0,3838.96 -0,3838.85 -0,3838.75 -0,3838.52 -0,3836.41 -0,3834.65 -0,3833.73 -0,3826.64 -0,3810.59 -0,3809.19 -0,3798.37 -0,3793.66 -0,3788.7 -0,3787.85 -0,3785.95 -0,3782.31 -0,3773.77 -0,3769.22 -0,3767.11 -0,3760.79 -0,3753.6 -0,3747.52 -0,3733.15 -0,3730.59 -0,3722.05 -0,3714.07 -0,3703.04 -0,3701.61 -0,3699.41 -0,3688.54 -0,3687.95 -0,3685.36 -0,3666.11 -0,3651.44 -0,3649.15 -0,3644.51 -0,3644.33 -0,3639.33 -0,3628.76 -0,3617.81 -0,3611.87 -0,3611.13 -0,3603.12 -0,3600.08 -0,3595.19 -0,3588.18 -0,3585.27 -0,3583.41 -0,3582.22 -0,3572.92 -0,3570.15 -0,3561.28 -0,3559.88 -0,3552.98 -0,3546.48 -0,3529.23 -0,3527.74 -0,3508.19 -0,3501.27 -0,3486.83 -0,3482.31 -0,3482.2 -0,3482.09 -0,3477.75 -0,3476.73 -0,3456.27 -0,3454.63 -0,3454.43 -0,3446.69 -0,3444.91 -0,3442.61 -0,3437.24 -0,3428 -0,3420.89 -0,3412.26 -0,3411.21 -0,3408.36 -0,3388.42 -0,3383.84 -0,3381.65 -0,3380.14 -0,3374.09 -0,3369.12 -0,3359.82 -0,3350.7 -0,3342.5 -0,3335.77 -0,3326.34 -0,3324.8 -0,3312.48 -0,3304.89 -0,3282.15 -0,3278.75 -0,3278.62 -0,3278.52 -0,3274.03 -0,3272.95 -0,3268.37 -0,3252.84 -0,3251.11 -0,3250.92 -0,3241.08 -0,3238.77 -0,3232.86 -0,3230.05 -0,3218.99 -0,3216.4 -0,3207.48 -0,3206.39 -0,3202.59 -0,3191.39 -0,3183.31 -0,3183.15 -0,3180.48 -0,3178.49 -0,3175.13 -0,3169.24 -0,3168.62 -0,3153.59 -0,3145.49 -0,3133.41 -0,3130.55 -0,3129.72 -0,3120.5 -0,3118.89 -0,3106.25 -0,3098.62 -0,3072.21 -0,3072.09 -0,3071.97 -0,3071.11 -0,3067.34 -0,3066.21 -0,3047.53 -0,3047.37 -0,3045.6 -0,3045.39 -0,3042.9 -0,3037.25 -0,3035.2 -0,3031.33 -0,3009.85 -0,3000.63 -0,2999.49 -0,2986.15 -0,2984.21 -0,2982.86 -0,2979.59 -0,2978.48 -0,2975.77 -0,2971.03 -0,2961.08 -0,2952.92 -0,2944.29 -0,2940.56 -0,2931.73 -0,2921.56 -0,2916.34 -0,2911.75 -0,2903.89 -0,2902.13 -0,2897.85 -0,2871.6 -0,2860.19 -0,2836.5 -0,2831.69 -0,2825.87 -0,2821.69 -0,2796.42 -0,2794.17 -0,2790.28 -0,2774.32 -0,2772.3 -0,2772.08 -0,2767 -0,2734.42 -0,2727.32 -0,2718.56 -0,2702.63 -0,2697.96 -0,2690.05 -0,2688.22 -0,2646.87 -0,2623.08 -0,2599.56 -0,2560.07 -0,2550.27 -0,2545.53 -0,2521.56 -0,2520.39 -0,2502.85 -0,2473.91 -0,2473.69 -0,2471.8 -0,2379.14 -0,2066.41 2780.99,546.38 2780.99,888.36 3003.62,769.01 3196.36,769.01 3196.65,768.92 3199.75,768.61 3199.86,768.55 3200.32,768.55 3297.22,768.55 3299.66,768.55 3299.66,768.8 3300.89,768.92 3301.18,769.01 4623.3,769.01 4644.34,758.26 4649.49,756.66 4655.02,756.11 4660.55,756.66 4665.71,758.26 4670.37,760.79 4674.43,764.14 4677.79,768.2 4678.23,769.01 4736.64,769.01 4757.74,758.26 4762.89,756.66 4768.42,756.11 4773.96,756.66 4779.11,758.26 4783.78,760.79 4787.84,764.14 4791.19,768.2 4791.63,769.01 4849.88,769.01 4871.05,758.26 4876.2,756.66 4881.73,756.11 4887.27,756.66 4892.42,758.26 4897.09,760.79 4901.15,764.14 4904.49,768.2 4904.93,769.01 5925.96,769.01 5947.79,758.26 5952.93,756.66 5958.46,756.11 5963.99,756.66 5969.14,758.26 5973.81,760.79 5977.87,764.14 5981.22,768.2 5981.66,769.01 6036.5,769.01 6058.4,758.26 6063.55,756.66 6069.08,756.11 6074.61,756.66 6079.77,758.26 6084.43,760.79 6088.49,764.14 6091.84,768.2 6092.28,769.01 6401.27,769.01 6401.27,4514.63 5818.39,4737.29 6402.37,4737.29 6425.02,4736.14 6447.02,4732.78 6468.26,4727.32 6488.61,4719.87 4986.87,5283.66 4948.61,5283.66 "/>
  <path class="fil2" d="M578.49 4627.69c17.95,27.21 29.6,53.36 40.96,82.43 8.45,16.91 12.93,48.09 52.57,48.09 11.61,0 28.28,-3.42 43.06,-11.61 16.63,-8.73 29.32,-21.94 35.94,-42l15.85 -53.36 38.57 -19.02 2.64 2.64c-5.27,20.09 -6.59,39.36 -6.59,54.43 0,44.63 38.57,61.56 69.22,61.56 17.95,0 34.09,-8.73 34.09,-25.11 0,-21.13 -8.98,-57.06 -20.62,-89.29 17.95,-17.95 35.94,-35.94 56.53,-50.47l3.17 1.6c8.98,38.04 14,75.56 14,100.66 0,24.57 -10.83,51.79 -19.81,69.49 -18.49,34.87 -51.25,62.62 -90.87,62.62 -30.1,0 -63.65,-15.07 -86.66,-43.06l-1.32 0c-21.66,26.96 -55.22,51.25 -108.86,51.25l-16.63 0c-2.64,35.41 -10.29,60.49 -21.94,82.95 -31.95,62.34 -126.81,106.47 -216.1,106.47 -124.17,0 -186.51,-71.59 -186.51,-166.96 0,-58.91 19.27,-113.6 48.88,-152.42l24.29 10.04c-18.49,35.41 -30.91,68.68 -30.91,101.45 0,89.29 72.66,131.83 156.4,131.83 77.68,0 173.83,-49.41 191.28,-106.72 -6.59,-62.62 -30.1,-91.93 -66.04,-148.99 10.83,-19.02 24.83,-38.04 42.28,-58.38l3.17 0 0 0 0 0 -0.02 -0.09zm1432.13 -336.04c26.15,16.39 51.79,35.66 76.87,57.85 -14,19.81 -31.45,37.79 -53.11,53.64 -25.11,-20.34 -50.19,-37.79 -75.84,-56.27 17.42,-19.55 34.62,-38.29 52.04,-55.22l0 0 0 0 0 0 0 0 0 0 0.03 0zm13.47 244.11c-42.28,0 -76.87,27.75 -76.87,48.34 0,44.13 84.53,57.85 185.72,57.31 -12.68,-51.79 -57.06,-105.68 -108.86,-105.68l0.01 0.03zm-94.86 236.19c54.96,0 103.04,-1.6 139.74,-10.83 40.96,-10.29 75.56,-30.91 75.56,-45.17 0,-3.7 0,-8.19 -1.32,-11.89 -22.98,2.11 -49.41,2.11 -72.38,2.11 -74.49,0 -131.55,-16.91 -154.02,-58.66 -5.55,-11.61 -9.51,-24.57 -9.51,-39.36 0,-40.43 17.42,-79.79 48.09,-107 25.61,-22.45 53.89,-36.44 82.67,-36.44 52.04,0 93.51,41.75 122.57,107.54 15.85,35.94 26.68,77.4 26.68,129.72 0,34.87 -9.51,64.19 -31.17,85.85 -40.43,39.11 -114.92,53.89 -229.04,53.89l-51.79 0 0 0 -13.47 0c-28.28,0 -48.62,-5.02 -64.72,-17.42l-2.64 0c0.79,6.59 1.32,12.93 1.32,19.02 0,25.61 -8.45,58.38 -25.61,84.53 -50.72,75.3 -105.68,108.04 -153.24,108.04 -48.09,0 -107,-18.49 -160.11,-42.54l9.51 -18.49c17.17,7.13 40.96,11.89 73.7,11.89 85.85,0 198.66,-82.43 212.66,-163 -3.17,-6.59 -8.98,-15.32 -17.17,-24.57 -25.11,-29.85 -40.96,-54.68 -55.75,-80.83 12.68,-25.11 24.29,-45.17 35.13,-63.4l4.49 -0.53c36.72,74.77 69.99,117.55 144.23,117.55l11.61 0 0 0 53.89 0 0 0 0 0 0 0 0 0 0 0 0.09 0.01zm-371.98 79c6.34,-34.34 6.87,-72.91 6.87,-108.86l0 -53.36c0,-99.6 -12.68,-244.36 -22.98,-338.68 17.95,-19.27 43.06,-42 62.87,-57.31l5.81 1.6c13.47,118.62 16.63,256 16.63,383.06 0,33.3 -1.32,65.79 -4.49,89.55 -1.85,30.1 -19.27,52.83 -56.53,87.7l-8.19 -3.7zm-382.8 -157.19c1.85,46.77 24.83,83.49 105.15,83.49 49.93,0 92.19,-12.93 138.96,-35.13 8.45,-3.7 12.93,-8.73 12.93,-12.93 0,-29.32 -22.45,-68.15 -60.23,-103.55 -36.72,-33.3 -85.34,-62.62 -130.76,-82.18 -15.6,-6.59 -20.62,-13.47 -20.62,-20.09 0,-13.47 17.95,-41.75 32.77,-62.09l5.02 -0.53c52.04,27.21 110.17,67.64 153.24,112.53 39.11,41.47 63.4,83.49 63.4,129.19 0,33.81 -10.29,65.51 -26.96,95.11 -57.06,28.79 -117.83,50.72 -178.06,50.72 -73.17,0 -123.1,-34.34 -123.1,-114.92 0,-8.73 0,-22.19 3.17,-39.64l25.11 0 0 0 0 0 0 0 0 0 0 0 -0.02 0zm-132.37 -132.9l45.45 73.45c16.63,27.21 32.23,56.81 32.23,103.55l0 59.7c0,48.34 -30.91,100.13 -80.83,151.38 -39.11,34.62 -73.7,49.41 -105.68,49.41 -47.55,0 -101.98,-14.79 -164.85,-41.75l7.13 -18.49c19.81,5.27 42.79,9.77 71.06,9.77 90.36,-0.53 182.8,-66.57 225.08,-147.15 5.02,-9.26 6.87,-17.95 6.87,-24.04 0,-9.26 -5.02,-19.55 -8.98,-28.79 -22.98,-43.31 -48.62,-82.95 -76.87,-119.68 14.79,-23.25 29.6,-45.7 45.7,-67.9l3.7 0.53 0 0 0 0 0 0 0 0 0 0 -0.02 0.01z"/>
  <g id="_1411011263824">
   <path class="fil3" d="M6402.37 4737.29l-3621.38 0 0 -4190.91 3621.38 0c122.36,0 221.57,99.19 221.57,221.56l0 3747.78c0,122.37 -99.21,221.56 -221.57,221.56z"/>
   <polygon class="fil4" points="3003.62,4514.63 6401.27,4514.63 6401.27,769.01 3003.62,769.01 "/>
   <path class="fil5" d="M3403.61 1285.76l-54.9 0 0 -209.35c0,-19.98 -16.26,-36.24 -36.26,-36.24 -50.26,0 -91.14,-40.87 -91.14,-91.12l0 -159.62 54.91 0 0 159.62c0,19.98 16.25,36.24 36.24,36.24 50.27,0 91.15,40.87 91.15,91.12l0 209.35z"/>
   <path class="fil6" d="M3382.56 1155.52l-12.63 0c-24.07,0 -43.58,19.51 -43.58,43.58l0 86.66 99.8 0 0 -86.66c0,-24.07 -19.52,-43.58 -43.58,-43.58z"/>
   <path class="fil6" d="M3425.68 1244.02l-96.89 0c-10.08,0 -18.23,8.18 -18.23,18.25l0 5.27c0,10.04 8.15,18.22 18.23,18.22l96.89 0c10.06,0 18.22,-8.18 18.22,-18.22l0 -5.27c0,-10.07 -8.16,-18.25 -18.22,-18.25z"/>
   <path class="fil6" d="M3243.45 898.82l12.62 0c24.07,0 43.59,-19.55 43.59,-43.61l0 -86.66 -99.81 0 0 86.66c0,24.06 19.52,43.61 43.59,43.61z"/>
   <path class="fil6" d="M3200.32 810.29l96.89 0c10.06,0 18.22,-8.16 18.22,-18.22l0 -5.27c0,-10.07 -8.16,-18.25 -18.22,-18.25l-96.89 0c-10.07,0 -18.25,8.18 -18.25,18.25l0 5.27c0,10.06 8.18,18.22 18.25,18.22z"/>
   <path class="fil5" d="M3856.07 1285.76l-54.9 0 0 -208.72c0,-19.87 -16.2,-36.07 -36.07,-36.07 -50.14,0 -90.93,-40.79 -90.93,-90.93l0 -159.12 54.89 0 0 159.12c0,19.87 16.18,36.04 36.05,36.04 50.14,0 90.96,40.82 90.96,90.96l0 208.72z"/>
   <path class="fil6" d="M3834.99 1155.9l-12.57 0c-23.99,0 -43.45,19.47 -43.45,43.45l0 86.41 99.47 0 0 -86.41c0,-23.98 -19.45,-43.45 -43.44,-43.45z"/>
   <path class="fil6" d="M3878.01 1244.15l-96.62 0c-10.04,0 -18.17,8.13 -18.17,18.18l0 5.26c0,10.02 8.13,18.17 18.17,18.17l96.62 0c10.04,0 18.16,-8.15 18.16,-18.17l0 -5.26c0,-10.05 -8.12,-18.18 -18.16,-18.18z"/>
   <path class="fil6" d="M3696.32 899.95l12.57 0c23.99,0 43.45,-19.46 43.45,-43.45l0 -86.41 -99.5 0 0 86.41c0,23.99 19.46,43.45 43.47,43.45z"/>
   <path class="fil6" d="M3653.32 811.69l96.61 0c10.01,0 18.17,-8.12 18.17,-18.16l0 -5.24c0,-10.04 -8.16,-18.2 -18.17,-18.2l-96.61 0c-10.05,0 -18.2,8.16 -18.2,18.2l0 5.24c0,10.04 8.15,18.16 18.2,18.16z"/>
   <path class="fil5" d="M4316.4 1285.76l-54.9 0 0 -208.22c0,-19.79 -16.12,-35.91 -35.91,-35.91 -50.06,0 -90.8,-40.73 -90.8,-90.8l0 -158.76 54.9 0 0 158.76c0,19.79 16.12,35.91 35.91,35.91 50.06,0 90.8,40.74 90.8,90.8l0 208.22z"/>
   <path class="fil6" d="M4295.29 1156.2l-12.51 0c-23.97,0 -43.37,19.41 -43.37,43.37l0 86.19 99.25 0 0 -86.19c0,-23.96 -19.4,-43.37 -43.36,-43.37z"/>
   <path class="fil6" d="M4338.21 1244.26l-96.39 0c-9.99,0 -18.12,8.11 -18.12,18.12l0 5.24c0,10.01 8.13,18.14 18.12,18.14l96.39 0c10.01,0 18.12,-8.13 18.12,-18.14l0 -5.24c0,-10.01 -8.11,-18.12 -18.12,-18.12z"/>
   <path class="fil6" d="M4156.94 900.88l12.55 0c23.96,0 43.36,-19.4 43.36,-43.36l0 -86.17 -99.25 0 0 86.17c0,23.96 19.4,43.36 43.33,43.36z"/>
   <path class="fil6" d="M4114.04 812.85l96.36 0c10.02,0 18.15,-8.13 18.15,-18.15l0 -5.23c0,-10.02 -8.13,-18.12 -18.15,-18.12l-96.36 0c-10.01,0 -18.15,8.1 -18.15,18.12l0 5.23c0,10.02 8.14,18.15 18.15,18.15z"/>
   <path class="fil7" d="M4655.02 1313.21c-15.15,0 -27.45,-12.29 -27.45,-27.45l0 -502.2c0,-15.19 12.3,-27.46 27.45,-27.46 15.16,0 27.46,12.27 27.46,27.46l0 502.2c0,15.16 -12.3,27.45 -27.46,27.45z"/>
   <path class="fil7" d="M4768.42 1313.21c-15.16,0 -27.45,-12.29 -27.45,-27.45l0 -502.2c0,-15.19 12.29,-27.46 27.45,-27.46 15.18,0 27.45,12.27 27.45,27.46l0 502.2c0,15.16 -12.27,27.45 -27.45,27.45z"/>
   <path class="fil7" d="M4881.73 1313.21c-15.15,0 -27.45,-12.29 -27.45,-27.45l0 -502.2c0,-15.19 12.3,-27.46 27.45,-27.46 15.18,0 27.45,12.27 27.45,27.46l0 502.2c0,15.16 -12.27,27.45 -27.45,27.45z"/>
   <path class="fil7" d="M6069.08 1313.21c-15.15,0 -27.45,-12.29 -27.45,-27.45l0 -502.2c0,-15.19 12.3,-27.46 27.45,-27.46 15.16,0 27.45,12.27 27.45,27.46l0 502.2c0,15.16 -12.29,27.45 -27.45,27.45z"/>
   <path class="fil7" d="M4737.21 2740.72l-837.13 0c-56.45,0 -102.38,-45.92 -102.38,-102.38l0 -86.52c0,-15.16 12.27,-27.45 27.45,-27.45 15.16,0 27.45,12.29 27.45,27.45l0 86.52c0,26.19 21.31,47.49 47.49,47.49l837.13 0c26.19,0 47.49,-21.3 47.49,-47.49l0 -86.52c0,-15.16 12.3,-27.45 27.45,-27.45 15.18,0 27.45,12.29 27.45,27.45l0 86.52c0,56.46 -45.92,102.38 -102.38,102.38z"/>
   <path class="fil7" d="M5958.46 1313.21c-15.15,0 -27.44,-12.29 -27.44,-27.45l0 -502.2c0,-15.19 12.29,-27.46 27.44,-27.46 15.16,0 27.46,12.27 27.46,27.46l0 502.2c0,15.16 -12.3,27.45 -27.46,27.45z"/>
   <polygon class="fil8" points="3186.88,3748.91 3509.54,3748.91 3509.54,3066.92 3186.88,3066.92 "/>
   <polygon class="fil8" points="3186.88,4330.31 3509.54,4330.31 3509.54,3780.27 3186.88,3780.27 "/>
   <polygon class="fil9" points="3186.88,3441.22 3509.52,3441.22 3509.52,3353.07 3186.88,3353.07 "/>
   <path class="fil10" d="M3402.32 3179.9c0,29.89 -24.23,54.1 -54.13,54.1 -29.89,0 -54.13,-24.2 -54.13,-54.1 0,-29.89 24.23,-54.13 54.13,-54.13 29.89,0 54.13,24.23 54.13,54.13z"/>
   <path class="fil11" d="M3348.46 3125.77c-0.11,0 -0.19,0 -0.27,0 0.08,0 0.16,0 0.27,0zm-0.52 0c0.09,0 0.16,0 0.25,0 -0.09,0 -0.16,0 -0.25,0z"/>
   <path class="fil12" d="M3348.38 3177.79c-8.26,0 -14.96,-6.7 -14.96,-14.94l0 -34.78c4.67,-1.32 9.47,-2.28 14.52,-2.31 0.09,0 0.16,0 0.25,0l0 0c0.08,0 0.16,0 0.27,0 5.19,0.03 10.1,1.02 14.86,2.42l0 34.67c0,8.24 -6.7,14.94 -14.94,14.94z"/>
   <path class="fil10" d="M3294.06 4240.66c0,-29.89 24.23,-54.13 54.13,-54.13 29.89,0 54.13,24.23 54.13,54.13 0,29.89 -24.23,54.13 -54.13,54.13 -29.89,0 -54.13,-24.23 -54.13,-54.13z"/>
   <path class="fil11" d="M3348.19 4294.79c-0.09,0 -0.16,0 -0.25,0 0.09,0 0.16,0 0.25,0 0.08,0 0.16,0 0.25,0 -0.09,0 -0.17,0 -0.25,0z"/>
   <path class="fil12" d="M3348.19 4294.79c-0.09,0 -0.16,0 -0.25,0 -5.19,-0.05 -10.09,-1.02 -14.86,-2.42l0 -34.67c0,-8.26 6.68,-14.93 14.95,-14.93 8.23,0 14.93,6.67 14.93,14.93l0 34.79c-4.63,1.31 -9.45,2.27 -14.52,2.3 -0.09,0 -0.17,0 -0.25,0z"/>
   <path class="fil13" d="M3414.97 3687.85l-130.82 0c-28.36,0 -51.32,-22.98 -51.32,-51.33l0 -14.86c0,-28.35 22.97,-51.32 51.32,-51.32l130.82 0c28.36,0 51.33,22.98 51.33,51.32l0 14.86c0,28.36 -22.98,51.33 -51.33,51.33z"/>
   <path class="fil14" d="M3515.68 3625.23l-332.24 0c-26.49,0 -47.96,-21.49 -47.96,-47.99l0 -13.85c0,-26.5 21.47,-47.96 47.96,-47.96l332.24 0c26.5,0 47.96,21.46 47.96,47.96l0 13.85c0,26.5 -21.46,47.99 -47.96,47.99z"/>
   <polygon class="fil15" points="3226.04,3928.29 3473.44,3928.29 3473.44,3823.13 3226.04,3823.13 "/>
   <polygon class="fil10" points="3186.88,4055.3 3509.52,4055.3 3509.52,4001.47 3186.88,4001.47 "/>
   <polygon class="fil8" points="3625.34,3748.91 3947.97,3748.91 3947.97,3066.92 3625.34,3066.92 "/>
   <polygon class="fil8" points="3625.34,4330.31 3947.97,4330.31 3947.97,3780.27 3625.34,3780.27 "/>
   <polygon class="fil9" points="3625.34,3441.22 3947.97,3441.22 3947.97,3353.07 3625.34,3353.07 "/>
   <path class="fil10" d="M3840.79 3179.9c0,29.89 -24.23,54.1 -54.13,54.1 -29.89,0 -54.11,-24.2 -54.11,-54.1 0,-29.89 24.21,-54.13 54.11,-54.13 29.89,0 54.13,24.23 54.13,54.13z"/>
   <path class="fil11" d="M3786.94 3125.77c-0.09,0 -0.2,0 -0.28,0 0.08,0 0.19,0 0.28,0zm-0.53 0c0.08,0 0.17,0 0.25,0 -0.08,0 -0.17,0 -0.25,0z"/>
   <path class="fil12" d="M3786.85 3177.79c-8.26,0 -14.96,-6.7 -14.96,-14.94l0 -34.78c4.66,-1.32 9.48,-2.28 14.52,-2.31 0.08,0 0.17,0 0.25,0l0 0c0.08,0 0.19,0 0.28,0 5.18,0.03 10.09,1.02 14.84,2.42l0 34.67c0,8.24 -6.69,14.94 -14.93,14.94z"/>
   <path class="fil10" d="M3732.55 4240.66c0,-29.89 24.21,-54.13 54.11,-54.13 29.89,0 54.13,24.23 54.13,54.13 0,29.89 -24.23,54.13 -54.13,54.13 -29.89,0 -54.11,-24.23 -54.11,-54.13z"/>
   <path class="fil11" d="M3786.66 4294.79c-0.08,0 -0.17,0 -0.25,0 0.08,0 0.17,0 0.25,0 0.08,0 0.17,0 0.25,0 -0.08,0 -0.17,0 -0.25,0z"/>
   <path class="fil12" d="M3786.66 4294.79c-0.08,0 -0.17,0 -0.25,0 -5.18,-0.05 -10.09,-1.02 -14.85,-2.42l0 -34.67c0,-8.26 6.67,-14.93 14.93,-14.93 8.24,0 14.94,6.67 14.94,14.93l0 34.79c-4.64,1.31 -9.45,2.27 -14.52,2.3 -0.08,0 -0.17,0 -0.25,0z"/>
   <path class="fil13" d="M3853.45 3687.85l-130.83 0c-28.35,0 -51.32,-22.98 -51.32,-51.33l0 -14.86c0,-28.35 22.98,-51.32 51.32,-51.32l130.83 0c28.35,0 51.32,22.98 51.32,51.32l0 14.86c0,28.36 -22.98,51.33 -51.32,51.33z"/>
   <path class="fil14" d="M3954.15 3625.23l-332.25 0c-26.49,0 -47.95,-21.49 -47.95,-47.99l0 -13.85c0,-26.5 21.46,-47.96 47.95,-47.96l332.25 0c26.48,0 47.95,21.46 47.95,47.96l0 13.85c0,26.5 -21.47,47.99 -47.95,47.99z"/>
   <polygon class="fil15" points="3664.51,3928.29 3911.9,3928.29 3911.9,3823.13 3664.51,3823.13 "/>
   <polygon class="fil10" points="3625.34,4055.3 3947.97,4055.3 3947.97,4001.47 3625.34,4001.47 "/>
   <polygon class="fil8" points="4067.9,3748.91 4390.52,3748.91 4390.52,3066.92 4067.9,3066.92 "/>
   <polygon class="fil8" points="4067.9,4330.31 4390.52,4330.31 4390.52,3780.27 4067.9,3780.27 "/>
   <polygon class="fil9" points="4067.9,3441.22 4390.52,3441.22 4390.52,3353.07 4067.9,3353.07 "/>
   <path class="fil10" d="M4283.35 3179.9c0,29.89 -24.23,54.1 -54.13,54.1 -29.89,0 -54.1,-24.2 -54.1,-54.1 0,-29.89 24.2,-54.13 54.1,-54.13 29.89,0 54.13,24.23 54.13,54.13z"/>
   <path class="fil11" d="M4229.49 3125.77c-0.11,0 -0.19,0 -0.27,0 0.08,0 0.16,0 0.27,0zm-0.52 0c0.09,0 0.16,0 0.25,0 -0.09,0 -0.16,0 -0.25,0z"/>
   <path class="fil12" d="M4229.38 3177.79c-8.23,0 -14.93,-6.7 -14.93,-14.94l0 -34.78c4.66,-1.32 9.44,-2.28 14.52,-2.31 0.09,0 0.16,0 0.25,0l0 0c0.08,0 0.16,0 0.27,0 5.19,0.03 10.1,1.02 14.86,2.42l0 34.67c0,8.24 -6.7,14.94 -14.97,14.94z"/>
   <path class="fil10" d="M4175.12 4240.66c0,-29.89 24.2,-54.13 54.1,-54.13 29.89,0 54.13,24.23 54.13,54.13 0,29.89 -24.23,54.13 -54.13,54.13 -29.89,0 -54.1,-24.23 -54.1,-54.13z"/>
   <path class="fil11" d="M4229.22 4294.79c-0.09,0 -0.16,0 -0.25,0 0.09,0 0.16,0 0.25,0 0.08,0 0.16,0 0.25,0 -0.09,0 -0.17,0 -0.25,0z"/>
   <path class="fil12" d="M4229.22 4294.79c-0.09,0 -0.16,0 -0.25,0 -5.19,-0.05 -10.1,-1.02 -14.85,-2.42l0 -34.67c0,-8.26 6.67,-14.93 14.94,-14.93 8.23,0 14.93,6.67 14.93,14.93l0 34.79c-4.64,1.31 -9.45,2.27 -14.52,2.3 -0.09,0 -0.17,0 -0.25,0z"/>
   <path class="fil13" d="M4296 3687.85l-130.81 0c-28.37,0 -51.33,-22.98 -51.33,-51.33l0 -14.86c0,-28.35 22.97,-51.32 51.33,-51.32l130.81 0c28.36,0 51.33,22.98 51.33,51.32l0 14.86c0,28.36 -22.98,51.33 -51.33,51.33z"/>
   <path class="fil14" d="M4396.7 3625.23l-332.24 0c-26.49,0 -47.96,-21.49 -47.96,-47.99l0 -13.85c0,-26.5 21.47,-47.96 47.96,-47.96l332.24 0c26.5,0 47.96,21.46 47.96,47.96l0 13.85c0,26.5 -21.46,47.99 -47.96,47.99z"/>
   <polygon class="fil15" points="4107.06,3928.29 4354.47,3928.29 4354.47,3823.13 4107.06,3823.13 "/>
   <polygon class="fil10" points="4067.9,4055.3 4390.52,4055.3 4390.52,4001.47 4067.9,4001.47 "/>
   <polygon class="fil8" points="4516.46,3748.91 4839.09,3748.91 4839.09,3066.92 4516.46,3066.92 "/>
   <polygon class="fil8" points="4516.46,4330.31 4839.09,4330.31 4839.09,3780.27 4516.46,3780.27 "/>
   <polygon class="fil9" points="4516.44,3441.22 4839.09,3441.22 4839.09,3353.07 4516.44,3353.07 "/>
   <path class="fil10" d="M4731.89 3179.9c0,29.89 -24.2,54.1 -54.1,54.1 -29.89,0 -54.14,-24.2 -54.14,-54.1 0,-29.89 24.24,-54.13 54.14,-54.13 29.89,0 54.1,24.23 54.1,54.13z"/>
   <path class="fil11" d="M4678.04 3125.77c-0.09,0 -0.17,0 -0.25,0 0.08,0 0.16,0 0.25,0zm-0.53 0c0.11,0 0.19,0 0.28,0 -0.09,0 -0.17,0 -0.28,0z"/>
   <path class="fil12" d="M4677.95 3177.79c-8.23,0 -14.93,-6.7 -14.93,-14.94l0 -34.78c4.63,-1.32 9.44,-2.28 14.49,-2.31 0.11,0 0.19,0 0.28,0l0 0c0.08,0 0.16,0 0.25,0 5.18,0.03 10.09,1.02 14.85,2.42l0 34.67c0,8.24 -6.67,14.94 -14.94,14.94z"/>
   <path class="fil10" d="M4623.65 4240.66c0,-29.89 24.24,-54.13 54.14,-54.13 29.89,0 54.1,24.23 54.1,54.13 0,29.89 -24.2,54.13 -54.1,54.13 -29.89,0 -54.14,-24.23 -54.14,-54.13z"/>
   <path class="fil11" d="M4677.79 4294.79c-0.09,0 -0.2,0 -0.28,0 0.08,0 0.19,0 0.28,0 0.08,0 0.16,0 0.25,0 -0.09,0 -0.17,0 -0.25,0z"/>
   <path class="fil12" d="M4677.79 4294.79c-0.09,0 -0.2,0 -0.28,0 -5.18,-0.05 -10.1,-1.02 -14.85,-2.42l0 -34.67c0,-8.26 6.7,-14.93 14.93,-14.93 8.27,0 14.94,6.67 14.94,14.93l0 34.79c-4.64,1.31 -9.45,2.27 -14.49,2.3 -0.09,0 -0.17,0 -0.25,0z"/>
   <path class="fil13" d="M4744.57 3687.85l-130.82 0c-28.36,0 -51.32,-22.98 -51.32,-51.33l0 -14.86c0,-28.35 22.97,-51.32 51.32,-51.32l130.82 0c28.33,0 51.33,22.98 51.33,51.32l0 14.86c0,28.36 -23.01,51.33 -51.33,51.33z"/>
   <path class="fil14" d="M4845.27 3625.23l-332.24 0c-26.49,0 -47.96,-21.49 -47.96,-47.99l0 -13.85c0,-26.5 21.47,-47.96 47.96,-47.96l332.24 0c26.49,0 47.96,21.46 47.96,47.96l0 13.85c0,26.5 -21.47,47.99 -47.96,47.99z"/>
   <polygon class="fil15" points="4555.63,3928.29 4803.04,3928.29 4803.04,3823.13 4555.63,3823.13 "/>
   <polygon class="fil10" points="4516.44,4055.3 4839.09,4055.3 4839.09,4001.47 4516.44,4001.47 "/>
   <polygon class="fil8" points="4964.71,3748.91 5287.38,3748.91 5287.38,3066.92 4964.71,3066.92 "/>
   <polygon class="fil8" points="4964.71,4330.31 5287.38,4330.31 5287.38,3780.27 4964.71,3780.27 "/>
   <polygon class="fil9" points="4964.71,3441.22 5287.38,3441.22 5287.38,3353.07 4964.71,3353.07 "/>
   <path class="fil10" d="M5180.15 3179.9c0,29.89 -24.2,54.1 -54.1,54.1 -29.89,0 -54.13,-24.2 -54.13,-54.1 0,-29.89 24.23,-54.13 54.13,-54.13 29.89,0 54.1,24.23 54.1,54.13z"/>
   <path class="fil11" d="M5126.3 3125.77c-0.08,0 -0.16,0 -0.25,0 0.09,0 0.17,0 0.25,0zm-0.52 0c0.11,0 0.19,0 0.27,0 -0.08,0 -0.16,0 -0.27,0z"/>
   <path class="fil12" d="M5126.22 3177.79c-8.24,0 -14.94,-6.7 -14.94,-14.94l0 -34.78c4.64,-1.32 9.45,-2.28 14.5,-2.31 0.11,0 0.19,0 0.27,0l0 0c0.09,0 0.17,0 0.25,0 5.18,0.03 10.1,1.02 14.85,2.42l0 34.67c0,8.24 -6.67,14.94 -14.93,14.94z"/>
   <path class="fil10" d="M5071.92 4240.66c0,-29.89 24.23,-54.13 54.13,-54.13 29.89,0 54.1,24.23 54.1,54.13 0,29.89 -24.2,54.13 -54.1,54.13 -29.89,0 -54.13,-24.23 -54.13,-54.13z"/>
   <path class="fil11" d="M5126.05 4294.79c-0.08,0 -0.19,0 -0.27,0 0.08,0 0.19,0 0.27,0 0.09,0 0.17,0 0.25,0 -0.08,0 -0.16,0 -0.25,0z"/>
   <path class="fil12" d="M5126.05 4294.79c-0.08,0 -0.19,0 -0.27,0 -5.19,-0.05 -10.1,-1.02 -14.86,-2.42l0 -34.67c0,-8.26 6.7,-14.93 14.94,-14.93 8.26,0 14.96,6.67 14.96,14.93l0 34.79c-4.66,1.31 -9.47,2.27 -14.52,2.3 -0.08,0 -0.16,0 -0.25,0z"/>
   <path class="fil13" d="M5192.84 3687.85l-130.82 0c-28.36,0 -51.33,-22.98 -51.33,-51.33l0 -14.86c0,-28.35 22.98,-51.32 51.33,-51.32l130.82 0c28.33,0 51.32,22.98 51.32,51.32l0 14.86c0,28.36 -23,51.33 -51.32,51.33z"/>
   <path class="fil14" d="M5293.55 3625.23l-332.25 0c-26.48,0 -47.95,-21.49 -47.95,-47.99l0 -13.85c0,-26.5 21.47,-47.96 47.95,-47.96l332.25 0c26.49,0 47.95,21.46 47.95,47.96l0 13.85c0,26.5 -21.46,47.99 -47.95,47.99z"/>
   <polygon class="fil15" points="5003.9,3928.29 5251.3,3928.29 5251.3,3823.13 5003.9,3823.13 "/>
   <polygon class="fil10" points="4964.71,4055.3 5287.38,4055.3 5287.38,4001.47 4964.71,4001.47 "/>
   <polygon class="fil8" points="5431.07,3748.91 5753.7,3748.91 5753.7,3066.92 5431.07,3066.92 "/>
   <polygon class="fil8" points="5431.07,4330.31 5753.7,4330.31 5753.7,3780.27 5431.07,3780.27 "/>
   <polygon class="fil9" points="5431.07,3441.22 5753.7,3441.22 5753.7,3353.07 5431.07,3353.07 "/>
   <path class="fil10" d="M5646.51 3179.9c0,29.89 -24.24,54.1 -54.14,54.1 -29.88,0 -54.1,-24.2 -54.1,-54.1 0,-29.89 24.21,-54.13 54.1,-54.13 29.89,0 54.14,24.23 54.14,54.13z"/>
   <path class="fil10" d="M5538.28 4240.66c0,-29.89 24.21,-54.13 54.1,-54.13 29.89,0 54.14,24.23 54.14,54.13 0,29.89 -24.24,54.13 -54.14,54.13 -29.88,0 -54.1,-24.23 -54.1,-54.13z"/>
   <path class="fil11" d="M5592.37 4294.79c-0.07,0 -0.16,0 -0.24,0 0.08,0 0.17,0 0.24,0 0.09,0 0.18,0 0.25,0 -0.07,0 -0.16,0 -0.25,0z"/>
   <path class="fil12" d="M5592.37 4294.79c-0.07,0 -0.16,0 -0.24,0 -5.19,-0.05 -10.1,-1.02 -14.85,-2.42l0 -34.67c0,-8.26 6.66,-14.93 14.93,-14.93 8.24,0 14.93,6.67 14.93,14.93l0 34.79c-4.63,1.31 -9.44,2.27 -14.52,2.3 -0.07,0 -0.16,0 -0.25,0z"/>
   <path class="fil13" d="M5659.16 3687.85l-130.82 0c-28.35,0 -51.33,-22.98 -51.33,-51.33l0 -14.86c0,-28.35 22.99,-51.32 51.33,-51.32l130.82 0c28.36,0 51.32,22.98 51.32,51.32l0 14.86c0,28.36 -22.97,51.33 -51.32,51.33z"/>
   <path class="fil14" d="M5759.87 3625.23l-332.24 0c-26.49,0 -47.95,-21.49 -47.95,-47.99l0 -13.85c0,-26.5 21.46,-47.96 47.95,-47.96l332.24 0c26.49,0 47.96,21.46 47.96,47.96l0 13.85c0,26.5 -21.47,47.99 -47.96,47.99z"/>
   <polygon class="fil15" points="5470.24,3928.29 5717.64,3928.29 5717.64,3823.13 5470.24,3823.13 "/>
   <polygon class="fil10" points="5431.07,4055.3 5753.7,4055.3 5753.7,4001.47 5431.07,4001.47 "/>
   <polygon class="fil8" points="5892.65,3748.91 6215.31,3748.91 6215.31,3066.92 5892.65,3066.92 "/>
   <polygon class="fil8" points="5892.65,4330.31 6215.31,4330.31 6215.31,3780.27 5892.65,3780.27 "/>
   <polygon class="fil9" points="5892.65,3441.22 6215.31,3441.22 6215.31,3353.07 5892.65,3353.07 "/>
   <path class="fil10" d="M6108.08 3179.9c0,29.89 -24.23,54.1 -54.13,54.1 -29.86,0 -54.1,-24.2 -54.1,-54.1 0,-29.89 24.23,-54.13 54.1,-54.13 29.89,0 54.13,24.23 54.13,54.13z"/>
   <path class="fil10" d="M5999.86 4240.66c0,-29.89 24.23,-54.13 54.1,-54.13 29.89,0 54.13,24.23 54.13,54.13 0,29.89 -24.23,54.13 -54.13,54.13 -29.86,0 -54.1,-24.23 -54.1,-54.13z"/>
   <path class="fil11" d="M6053.95 4294.79c-0.08,0 -0.16,0 -0.24,0 0.08,0 0.16,0 0.24,0 0.12,0 0.2,0 0.28,0 -0.08,0 -0.16,0 -0.28,0z"/>
   <path class="fil12" d="M6053.95 4294.79c-0.08,0 -0.16,0 -0.24,0 -5.19,-0.05 -10.1,-1.02 -14.86,-2.42l0 -34.67c0,-8.26 6.7,-14.93 14.94,-14.93 8.26,0 14.93,6.67 14.93,14.93l0 34.79c-4.63,1.31 -9.44,2.27 -14.49,2.3 -0.08,0 -0.16,0 -0.28,0z"/>
   <path class="fil13" d="M6120.74 3687.85l-130.79 0c-28.36,0 -51.36,-22.98 -51.36,-51.33l0 -14.86c0,-28.35 23.01,-51.32 51.36,-51.32l130.79 0c28.36,0 51.35,22.98 51.35,51.32l0 14.86c0,28.36 -23,51.33 -51.35,51.33z"/>
   <path class="fil14" d="M6221.45 3625.23l-332.22 0c-26.48,0 -47.98,-21.49 -47.98,-47.99l0 -13.85c0,-26.5 21.5,-47.96 47.98,-47.96l332.22 0c26.49,0 47.96,21.46 47.96,47.96l0 13.85c0,26.5 -21.47,47.99 -47.96,47.99z"/>
   <polygon class="fil15" points="5931.81,3928.29 6179.22,3928.29 6179.22,3823.13 5931.81,3823.13 "/>
   <polygon class="fil10" points="5892.65,4055.3 6215.31,4055.3 6215.31,4001.47 5892.65,4001.47 "/>
   <polygon class="fil8" points="3207.65,1967.75 3530.32,1967.75 3530.32,1285.76 3207.65,1285.76 "/>
   <polygon class="fil8" points="3207.65,2549.15 3530.32,2549.15 3530.32,1999.1 3207.65,1999.1 "/>
   <polygon class="fil9" points="3207.65,1660.06 3530.32,1660.06 3530.32,1571.92 3207.65,1571.92 "/>
   <path class="fil10" d="M3423.1 1398.71c0,29.89 -24.2,54.14 -54.1,54.14 -29.89,0 -54.14,-24.24 -54.14,-54.14 0,-29.85 24.24,-54.1 54.14,-54.1 29.89,0 54.1,24.24 54.1,54.1z"/>
   <path class="fil11" d="M3369.25 1344.61c-0.09,0 -0.17,0 -0.25,0 0.08,0 0.16,0 0.25,0zm-0.53 0c0.08,0 0.17,0 0.28,0 -0.11,0 -0.2,0 -0.28,0z"/>
   <path class="fil12" d="M3369.16 1396.63c-8.23,0 -14.93,-6.69 -14.93,-14.93l0 -34.81c4.63,-1.32 9.44,-2.26 14.49,-2.28 0.08,0 0.17,0 0.28,0l0 0c0.08,0 0.16,0 0.25,0 5.18,0.02 10.09,1.01 14.84,2.39l0 34.7c0,8.24 -6.69,14.93 -14.93,14.93z"/>
   <path class="fil10" d="M3314.86 2459.51c0,-29.89 24.24,-54.13 54.14,-54.13 29.89,0 54.1,24.23 54.1,54.13 0,29.88 -24.2,54.1 -54.1,54.1 -29.89,0 -54.14,-24.21 -54.14,-54.1z"/>
   <path class="fil11" d="M3369 2513.6c-0.11,0 -0.2,0 -0.28,0 0.08,0 0.17,0 0.28,0 0.08,0 0.16,0 0.25,0 -0.09,0 -0.17,0 -0.25,0z"/>
   <path class="fil12" d="M3369 2513.6c-0.11,0 -0.2,0 -0.28,0 -5.18,-0.03 -10.1,-1.02 -14.85,-2.39l0 -34.67c0,-8.26 6.7,-14.96 14.93,-14.96 8.27,0 14.94,6.7 14.94,14.96l0 34.78c-4.64,1.32 -9.45,2.25 -14.49,2.28 -0.09,0 -0.17,0 -0.25,0z"/>
   <path class="fil13" d="M3435.75 1906.68l-130.79 0c-28.36,0 -51.35,-23 -51.35,-51.35l0 -14.83c0,-28.35 23,-51.35 51.35,-51.35l130.79 0c28.36,0 51.36,23.01 51.36,51.35l0 14.83c0,28.36 -23.01,51.35 -51.36,51.35z"/>
   <path class="fil14" d="M3536.47 1844.05l-332.22 0c-26.49,0 -47.96,-21.47 -47.96,-47.96l0 -13.86c0,-26.49 21.47,-47.96 47.96,-47.96l332.22 0c26.48,0 47.98,21.47 47.98,47.96l0 13.86c0,26.49 -21.5,47.96 -47.98,47.96z"/>
   <polygon class="fil15" points="3246.82,2147.11 3494.24,2147.11 3494.24,2041.98 3246.82,2041.98 "/>
   <polygon class="fil10" points="3207.65,2274.12 3530.32,2274.12 3530.32,2220.31 3207.65,2220.31 "/>
   <polygon class="fil8" points="3662.27,1967.75 3984.93,1967.75 3984.93,1285.76 3662.27,1285.76 "/>
   <polygon class="fil8" points="3662.27,2549.15 3984.93,2549.15 3984.93,1999.1 3662.27,1999.1 "/>
   <polygon class="fil9" points="3662.27,1660.06 3984.93,1660.06 3984.93,1571.92 3662.27,1571.92 "/>
   <path class="fil10" d="M3877.7 1398.71c0,29.89 -24.23,54.14 -54.13,54.14 -29.88,0 -54.1,-24.24 -54.1,-54.14 0,-29.85 24.21,-54.1 54.1,-54.1 29.89,0 54.13,24.24 54.13,54.1z"/>
   <path class="fil11" d="M3823.85 1344.61c-0.08,0 -0.19,0 -0.28,0 0.09,0 0.2,0 0.28,0zm-0.52 0c0.08,0 0.16,0 0.24,0 -0.08,0 -0.16,0 -0.24,0z"/>
   <path class="fil12" d="M3823.77 1396.63c-8.27,0 -14.94,-6.69 -14.94,-14.93l0 -34.81c4.64,-1.32 9.45,-2.26 14.5,-2.28 0.08,0 0.16,0 0.24,0l0 0c0.09,0 0.2,0 0.28,0 5.18,0.02 10.1,1.01 14.85,2.39l0 34.7c0,8.24 -6.7,14.93 -14.93,14.93z"/>
   <path class="fil10" d="M3769.47 2459.51c0,-29.89 24.21,-54.13 54.1,-54.13 29.89,0 54.13,24.23 54.13,54.13 0,29.88 -24.23,54.1 -54.13,54.1 -29.88,0 -54.1,-24.21 -54.1,-54.1z"/>
   <path class="fil11" d="M3823.57 2513.6c-0.08,0 -0.16,0 -0.24,0 0.08,0 0.16,0 0.24,0 0.09,0 0.17,0 0.28,0 -0.11,0 -0.19,0 -0.28,0z"/>
   <path class="fil12" d="M3823.57 2513.6c-0.08,0 -0.16,0 -0.24,0 -5.19,-0.03 -10.1,-1.02 -14.86,-2.39l0 -34.67c0,-8.26 6.67,-14.96 14.94,-14.96 8.24,0 14.93,6.7 14.93,14.96l0 34.78c-4.63,1.32 -9.44,2.25 -14.49,2.28 -0.11,0 -0.19,0 -0.28,0z"/>
   <path class="fil13" d="M3890.36 1906.68l-130.82 0c-28.36,0 -51.33,-23 -51.33,-51.35l0 -14.83c0,-28.35 22.98,-51.35 51.33,-51.35l130.82 0c28.36,0 51.32,23.01 51.32,51.35l0 14.83c0,28.36 -22.97,51.35 -51.32,51.35z"/>
   <path class="fil14" d="M3991.07 1844.05l-332.24 0c-26.49,0 -47.96,-21.47 -47.96,-47.96l0 -13.86c0,-26.49 21.47,-47.96 47.96,-47.96l332.24 0c26.49,0 47.96,21.47 47.96,47.96l0 13.86c0,26.49 -21.47,47.96 -47.96,47.96z"/>
   <polygon class="fil15" points="3701.43,2147.11 3948.82,2147.11 3948.82,2041.98 3701.43,2041.98 "/>
   <polygon class="fil10" points="3662.27,2274.12 3984.93,2274.12 3984.93,2220.31 3662.27,2220.31 "/>
   <polygon class="fil8" points="4122.71,1967.75 4445.34,1967.75 4445.34,1285.76 4122.71,1285.76 "/>
   <polygon class="fil8" points="4122.71,2549.15 4445.34,2549.15 4445.34,1999.1 4122.71,1999.1 "/>
   <polygon class="fil9" points="4122.71,1660.06 4445.34,1660.06 4445.34,1571.92 4122.71,1571.92 "/>
   <path class="fil10" d="M4338.16 1398.71c0,29.89 -24.23,54.14 -54.13,54.14 -29.89,0 -54.14,-24.24 -54.14,-54.14 0,-29.85 24.24,-54.1 54.14,-54.1 29.89,0 54.13,24.24 54.13,54.1z"/>
   <path class="fil11" d="M4284.28 1344.61c-0.09,0 -0.17,0 -0.25,0 0.08,0 0.16,0 0.25,0zm-0.5 0c0.08,0 0.16,0 0.25,0 -0.09,0 -0.17,0 -0.25,0z"/>
   <path class="fil12" d="M4284.19 1396.63c-8.23,0 -14.93,-6.69 -14.93,-14.93l0 -34.81c4.63,-1.32 9.44,-2.26 14.52,-2.28 0.08,0 0.16,0 0.25,0l0 0c0.08,0 0.16,0 0.25,0 5.18,0.02 10.09,1.01 14.85,2.39l0 34.7c0,8.24 -6.67,14.93 -14.94,14.93z"/>
   <path class="fil10" d="M4229.9 2459.51c0,-29.89 24.24,-54.13 54.14,-54.13 29.89,0 54.13,24.23 54.13,54.13 0,29.88 -24.23,54.1 -54.13,54.1 -29.89,0 -54.14,-24.21 -54.14,-54.1z"/>
   <path class="fil11" d="M4284.03 2513.6c-0.09,0 -0.17,0 -0.25,0 0.08,0 0.16,0 0.25,0 0.08,0 0.16,0 0.25,0 -0.09,0 -0.17,0 -0.25,0z"/>
   <path class="fil12" d="M4284.03 2513.6c-0.09,0 -0.17,0 -0.25,0 -5.19,-0.03 -10.13,-1.02 -14.88,-2.39l0 -34.67c0,-8.26 6.7,-14.96 14.96,-14.96 8.24,0 14.94,6.7 14.94,14.96l0 34.78c-4.67,1.32 -9.45,2.25 -14.52,2.28 -0.09,0 -0.17,0 -0.25,0z"/>
   <path class="fil13" d="M4350.81 1906.68l-130.82 0c-28.36,0 -51.32,-23 -51.32,-51.35l0 -14.83c0,-28.35 22.97,-51.35 51.32,-51.35l130.82 0c28.36,0 51.33,23.01 51.33,51.35l0 14.83c0,28.36 -22.98,51.35 -51.33,51.35z"/>
   <path class="fil14" d="M4451.52 1844.05l-332.24 0c-26.49,0 -47.96,-21.47 -47.96,-47.96l0 -13.86c0,-26.49 21.47,-47.96 47.96,-47.96l332.24 0c26.49,0 47.96,21.47 47.96,47.96l0 13.86c0,26.49 -21.47,47.96 -47.96,47.96z"/>
   <polygon class="fil15" points="4161.88,2147.11 4409.27,2147.11 4409.27,2041.98 4161.88,2041.98 "/>
   <polygon class="fil10" points="4122.71,2274.12 4445.34,2274.12 4445.34,2220.31 4122.71,2220.31 "/>
   <polygon class="fil8" points="4584.87,2551.82 5358,2551.82 5358,1285.77 4584.87,1285.77 "/>
   <path class="fil10" d="M5176.06 1398.71c0,29.89 -24.23,54.14 -54.13,54.14 -29.89,0 -54.13,-24.24 -54.13,-54.14 0,-29.85 24.23,-54.1 54.13,-54.1 29.89,0 54.13,24.24 54.13,54.1z"/>
   <path class="fil11" d="M5122.21 1344.61c-0.11,0 -0.19,0 -0.27,0 0.08,0 0.16,0 0.27,0zm-0.52 0c0.09,0 0.16,0 0.25,0 -0.09,0 -0.16,0 -0.25,0z"/>
   <path class="fil12" d="M5122.1 1396.63c-8.23,0 -14.93,-6.69 -14.93,-14.93l0 -34.81c4.63,-1.32 9.44,-2.26 14.52,-2.28 0.09,0 0.16,0 0.25,0l0 0c0.08,0 0.16,0 0.27,0 5.16,0.02 10.1,1.01 14.86,2.39l0 34.7c0,8.24 -6.7,14.93 -14.97,14.93z"/>
   <path class="fil10" d="M5318.3 1398.71c0,29.89 -24.23,54.14 -54.1,54.14 -29.89,0 -54.13,-24.24 -54.13,-54.14 0,-29.85 24.23,-54.1 54.13,-54.1 29.86,0 54.1,24.24 54.1,54.1z"/>
   <path class="fil11" d="M5264.45 1344.61c-0.09,0 -0.16,0 -0.25,0 0.09,0 0.16,0 0.25,0zm-0.52 0c0.08,0 0.16,0 0.27,0 -0.11,0 -0.19,0 -0.27,0z"/>
   <path class="fil12" d="M5264.36 1396.63c-8.25,0 -14.93,-6.69 -14.93,-14.93l0 -34.81c4.63,-1.32 9.45,-2.26 14.5,-2.28 0.08,0 0.16,0 0.27,0l0 0c0.09,0 0.16,0 0.25,0 5.19,0.02 10.09,1.01 14.85,2.39l0 34.7c0,8.24 -6.67,14.93 -14.94,14.93z"/>
   <polygon class="fil9" points="4881.73,1666.31 5358,1666.31 5358,1571.92 4881.73,1571.92 "/>
   <path class="fil16" d="M4797.68 2094.54l-128.77 0c-46.41,0 -84.04,-37.62 -84.04,-84.06l0 -438.56 296.86 0 0 438.56c0,46.44 -37.63,84.06 -84.05,84.06z"/>
   <path class="fil10" d="M4789.2 2147.11l-105.62 0c-12.69,0 -22.95,-10.26 -22.95,-22.95l0 -6.64c0,-12.69 10.25,-22.99 22.95,-22.99l105.62 0c12.68,0 22.95,10.29 22.95,22.99l0 6.64c0,12.68 -10.26,22.95 -22.95,22.95z"/>
   <polygon class="fil15" points="4930.37,2147.11 5308.51,2147.11 5308.51,2041.98 4930.37,2041.98 "/>
   <path class="fil13" d="M5184.84 1934.13l-130.81 0c-28.36,0 -51.33,-23 -51.33,-51.36l0 -14.82c0,-28.36 22.98,-51.35 51.33,-51.35l130.81 0c28.37,0 51.33,23 51.33,51.35l0 14.82c0,28.37 -22.97,51.36 -51.33,51.36z"/>
   <path class="fil14" d="M5285.56 1871.5l-332.24 0c-26.5,0 -47.96,-21.47 -47.96,-47.95l0 -13.87c0,-26.49 21.46,-47.99 47.96,-47.99l332.24 0c26.49,0 47.96,21.5 47.96,47.99l0 13.87c0,26.48 -21.47,47.95 -47.96,47.95z"/>
   <polygon class="fil17" points="4584.87,2274.12 5358,2274.12 5358,2208.98 4584.87,2208.98 "/>
   <polygon class="fil17" points="4690.52,2493.49 4898.74,2493.49 4898.74,2305.88 4690.52,2305.88 "/>
   <polygon class="fil17" points="5044.09,2493.49 5252.33,2493.49 5252.33,2305.88 5044.09,2305.88 "/>
   <polygon class="fil8" points="5475.5,2551.82 6248.62,2551.82 6248.62,1285.77 5475.5,1285.77 "/>
   <path class="fil10" d="M6066.7 1398.71c0,29.89 -24.24,54.14 -54.13,54.14 -29.89,0 -54.11,-24.24 -54.11,-54.14 0,-29.85 24.21,-54.1 54.11,-54.1 29.88,0 54.13,24.24 54.13,54.1z"/>
   <path class="fil11" d="M6012.85 1344.61c-0.09,0 -0.2,0 -0.28,0 0.08,0 0.19,0 0.28,0zm-0.53 0c0.08,0 0.17,0 0.25,0 -0.08,0 -0.17,0 -0.25,0z"/>
   <path class="fil12" d="M6012.76 1396.63c-8.27,0 -14.93,-6.69 -14.93,-14.93l0 -34.81c4.63,-1.32 9.45,-2.26 14.49,-2.28 0.08,0 0.17,0 0.25,0l0 0c0.08,0 0.19,0 0.28,0 5.18,0.02 10.09,1.01 14.84,2.39l0 34.7c0,8.24 -6.69,14.93 -14.93,14.93z"/>
   <path class="fil10" d="M6208.97 1398.71c0,29.89 -24.24,54.14 -54.14,54.14 -29.89,0 -54.13,-24.24 -54.13,-54.14 0,-29.85 24.23,-54.1 54.13,-54.1 29.89,0 54.14,24.24 54.14,54.1z"/>
   <path class="fil11" d="M6155.08 1344.61c-0.08,0 -0.16,0 -0.25,0 0.09,0 0.17,0 0.25,0zm-0.5 0c0.09,0 0.17,0 0.25,0 -0.08,0 -0.16,0 -0.25,0z"/>
   <path class="fil12" d="M6155 1396.63c-8.24,0 -14.94,-6.69 -14.94,-14.93l0 -34.81c4.64,-1.32 9.45,-2.26 14.52,-2.28 0.09,0 0.17,0 0.25,0l0 0c0.09,0 0.17,0 0.25,0 5.19,0.02 10.1,1.01 14.85,2.39l0 34.7c0,8.24 -6.67,14.93 -14.93,14.93z"/>
   <polygon class="fil9" points="5772.39,1666.31 6248.62,1666.31 6248.62,1571.92 5772.39,1571.92 "/>
   <path class="fil16" d="M5688.32 2094.54l-128.77 0c-46.42,0 -84.05,-37.62 -84.05,-84.06l0 -438.56 296.89 0 0 438.56c0,46.44 -37.63,84.06 -84.07,84.06z"/>
   <path class="fil10" d="M5679.83 2147.11l-105.6 0c-12.67,0 -22.97,-10.26 -22.97,-22.95l0 -6.64c0,-12.69 10.29,-22.99 22.97,-22.99l105.6 0c12.68,0 22.98,10.29 22.98,22.99l0 6.64c0,12.68 -10.29,22.95 -22.98,22.95z"/>
   <polygon class="fil15" points="5821,2147.11 6199.13,2147.11 6199.13,2041.98 5821,2041.98 "/>
   <path class="fil13" d="M6075.48 1934.13l-130.82 0c-28.33,0 -51.33,-23 -51.33,-51.36l0 -14.82c0,-28.36 23.01,-51.35 51.33,-51.35l130.82 0c28.35,0 51.32,23 51.32,51.35l0 14.82c0,28.37 -22.98,51.36 -51.32,51.36z"/>
   <path class="fil14" d="M6176.19 1871.5l-332.25 0c-26.48,0 -47.95,-21.47 -47.95,-47.95l0 -13.87c0,-26.49 21.47,-47.99 47.95,-47.99l332.25 0c26.49,0 47.96,21.5 47.96,47.99l0 13.87c0,26.48 -21.47,47.95 -47.96,47.95z"/>
   <polygon class="fil17" points="5475.5,2274.12 6248.62,2274.12 6248.62,2208.98 5475.5,2208.98 "/>
   <polygon class="fil17" points="5581.15,2493.49 5789.39,2493.49 5789.39,2305.88 5581.15,2305.88 "/>
   <polygon class="fil17" points="5934.75,2493.49 6142.98,2493.49 6142.98,2305.88 5934.75,2305.88 "/>
   <path class="fil18" d="M3281.05 3066.93l-54.91 0 0 -161.13c0,-30.2 -24.56,-54.77 -54.76,-54.77 -60.44,0 -109.63,-49.19 -109.63,-109.66l0 -1545.75c0,-60.47 49.2,-109.65 109.63,-109.65 60.47,0 109.66,49.19 109.66,109.65l0 90.14 -54.91 0 0 -90.14c0,-30.18 -24.56,-54.76 -54.76,-54.76 -30.16,0 -54.73,24.57 -54.73,54.76l0 1545.75c0,30.2 24.56,54.77 54.73,54.77 60.47,0 109.66,49.19 109.66,109.66l0 161.13z"/>
   <polygon class="fil5" points="3343.09,3066.93 3397.98,3066.93 3397.98,2551.82 3343.09,2551.82 "/>
   <path class="fil5" d="M4258.03 3066.93l-54.9 0 0 -160.64c0,-38.32 -31.15,-69.47 -69.46,-69.47l-264.86 0c-38.29,0 -69.47,31.15 -69.47,69.47l0 160.64 -54.9 0 0 -160.64c0,-68.57 55.81,-124.37 124.37,-124.37l264.86 0c68.6,0 124.36,55.81 124.36,124.37l0 160.64z"/>
   <path class="fil5" d="M4706.77 3066.93l-54.9 0 0 -123.99c0,-51.25 -41.7,-92.94 -92.92,-92.94l-155.25 0c-81.49,0 -147.81,-66.32 -147.81,-147.85l0 -153 54.9 0 0 153c0,51.25 41.7,92.94 92.91,92.94l155.25 0c81.5,0 147.82,66.32 147.82,147.85l0 123.99z"/>
   <path class="fil18" d="M6082.97 3066.93l-54.9 0 0 -101.84c0,-80.51 -65.52,-146 -146.03,-146l-737.13 0c-110.81,0 -200.93,-90.15 -200.93,-200.96l0 -66.32 54.87 0 0 66.32c0,80.53 65.52,146.05 146.06,146.05l737.13 0c110.78,0 200.93,90.12 200.93,200.91l0 101.84z"/>
   <path class="fil18" d="M5621.39 3066.93l-54.89 0 0 -59.46c0,-35.11 -28.59,-63.65 -63.71,-63.65l-289.53 0c-35.14,0 -63.7,28.55 -63.7,63.65l0 59.46 -54.91 0 0 -59.46c0,-65.36 53.2,-118.55 118.61,-118.55l289.53 0c65.4,0 118.6,53.19 118.6,118.55l0 59.46z"/>
   <path class="fil7" d="M5780.49 2735.01l-567.95 0c-70.98,0 -128.71,-57.75 -128.71,-128.71l0 -54.49c0,-15.16 12.3,-27.45 27.45,-27.45 15.15,0 27.45,12.29 27.45,27.45l0 54.49c0,40.68 33.1,73.81 73.81,73.81l567.95 0c40.68,0 73.78,-33.13 73.78,-73.81l0 -57.15c0,-15.18 12.3,-27.44 27.46,-27.44 15.18,0 27.47,12.26 27.47,27.44l0 57.15c0,70.95 -57.75,128.71 -128.71,128.71z"/>
  </g>
 </g>
</svg>
