<?xml version="1.0" encoding="UTF-8"?>
<!DOCTYPE svg PUBLIC "-//W3C//DTD SVG 1.0//EN" "http://www.w3.org/TR/2001/REC-SVG-20010904/DTD/svg10.dtd">
<!-- Creator: CorelDRAW -->
<svg xmlns="http://www.w3.org/2000/svg" xml:space="preserve" width="3.70833in" height="2.08333in" version="1.0" style="shape-rendering:geometricPrecision; text-rendering:geometricPrecision; image-rendering:optimizeQuality; fill-rule:evenodd; clip-rule:evenodd"
viewBox="0 0 3702.73 2080.18"
 xmlns:xlink="http://www.w3.org/1999/xlink"
 xmlns:xodm="http://www.corel.com/coreldraw/odm/2003">
 <defs>
  <style type="text/css">
   <![CDATA[
    .fil0 {fill:#E6E7E8}
    .fil3 {fill:#FEFEFE;fill-rule:nonzero}
    .fil9 {fill:#FFF7B2;fill-rule:nonzero}
    .fil8 {fill:#FCD5A6;fill-rule:nonzero}
    .fil4 {fill:#AFB1AB;fill-rule:nonzero}
    .fil7 {fill:#A2D9F7;fill-rule:nonzero}
    .fil6 {fill:#6FBCE5;fill-rule:nonzero}
    .fil5 {fill:#002647;fill-rule:nonzero}
    .fil2 {fill:#373435;fill-opacity:0.031373}
    .fil1 {fill:#2B2A29;fill-opacity:0.101961}
   ]]>
  </style>
 </defs>
 <g id="Layer_x0020_1">
  <metadata id="CorelCorpID_0Corel-Layer"/>
  <path class="fil0" d="M-0 0l3702.73 0 0 2080.18 -3702.73 0 0 -2080.18z"/>
  <path class="fil1" d="M-0 1402.63l0 -53.07 0 -177.62 0 -95.3 0 -34.53 0 -53.4 0 -17.43 0 -39.73 0 -5.11 0 -1.91 0 -20.57 0 -31.78 0 -7.51 970.25 -479.34 -0.04 2.28 -0.08 3.1 -0.08 2.93 265.66 -131.05 -15.59 7.77 -15.44 8.21 -15.29 8.65 -15.14 9.09 -15 9.54 -14.86 9.98 -14.72 10.43 -14.58 10.88 -14.45 11.33 -14.31 11.79 -14.18 12.25 -14.05 12.71 -88.72 43.5 -0 1.38 0.04 4.87 0.11 4.45 0.19 3.9 0.28 3.22 0.38 2.42 0.49 1.5 3.24 0.5 0.84 0.22 0.86 0.2 0.85 0.2 0.84 0.23 0.81 0.28 0.76 0.36 0.71 0.45 0.63 0.57 -0.3 2.88 -0.3 2.88 -0.31 2.88 -0.31 2.88 -0.31 2.88 -0.32 2.87 -0.32 2.88 -0.33 2.87 -0.33 2.88 -0.33 2.87 -0.34 2.87 -0.35 2.87 -0.35 2.87 -0.35 2.87 -0.36 2.87 -0.36 2.87 -0.27 2.5 -0.23 2.53 -0.21 2.54 -0.22 2.55 -0.24 2.54 -0.29 2.53 -0.36 2.5 -0.46 2.46 -0.35 3.75 -0.33 3.75 -0.31 3.75 -0.3 3.75 -0.28 3.75 -0.27 3.75 -0.25 3.76 -0.24 3.75 -0.22 3.76 -0.2 3.75 -0.19 3.76 -0.17 3.76 -0.15 3.76 -0.13 3.76 -0.12 3.76 -0.1 3.76 -0.92 2.77 -0.58 4.28 -0.31 5.33 -0.11 5.92 0.02 6.04 0.09 5.7 0.08 4.89 0.01 3.61 -0.12 6.49 -0.12 6.49 -0.12 6.49 -0.11 6.49 -0.09 6.49 -0.08 6.49 -0.05 6.49 -0.02 6.49 0.01 6.49 0.04 6.49 0.09 6.49 0.13 6.49 0.18 6.49 0.24 6.48 0.3 6.48 0.36 6.48 0.37 5.72 0.42 5.72 0.46 5.71 0.51 5.7 0.55 5.7 0.59 5.7 0.64 5.69 0.68 5.69 0.72 5.68 0.75 5.67 0.79 5.67 0.83 5.66 0.86 5.66 0.9 5.65 0.94 5.65 0.97 5.64 1 5.64 1.03 5.63 1.06 5.63 1.1 5.62 1.12 5.62 1.15 5.61 1.18 5.6 1.2 5.6 1.23 5.59 1.25 5.59 1.27 5.58 1.3 5.57 1.32 5.57 1.34 5.57 1.36 5.56 1.38 5.55 0.79 3.2 0.79 3.23 0.8 3.24 0.81 3.26 0.82 3.27 0.83 3.28 0.85 3.28 0.87 3.28 0.9 3.27 0.93 3.25 0.97 3.24 1.01 3.22 1.05 3.18 1.1 3.15 1.14 3.12 1.2 3.07 -1.9 2.96 -1.9 2.96 -1.9 2.97 -1.9 2.97 -1.89 2.97 -1.88 2.98 -1.87 2.98 -1.86 3 -1.84 3 -1.82 3.01 -1.8 3.03 -1.78 3.04 -1.76 3.05 -1.73 3.07 -1.7 3.09 -1.67 3.1 -5.59 10.78 -5.41 10.94 -5.22 11.09 -5.03 11.23 -4.83 11.37 -4.63 11.49 -4.42 11.62 -4.2 11.73 -3.99 11.83 -3.77 11.92 -3.53 12.01 -3.3 12.09 -3.06 12.16 -2.82 12.23 -2.57 12.28 -2.32 12.33 -2.06 12.37 -1.8 12.4 -1.53 12.43 -1.25 12.44 -0.97 12.45 -0.69 12.45 -0.4 12.44 -0.1 12.43 0.2 12.4 0.5 12.37 0.81 12.33 1.12 12.29 1.45 12.23 1.77 12.17 2.1 12.1 2.44 12.02 1.46 6.51 1.53 6.42 1.6 6.34 1.68 6.26 1.76 6.18 1.84 6.11 1.92 6.03 2 5.97 2.08 5.9 2.17 5.83 2.26 5.77 2.34 5.71 2.43 5.65 2.52 5.6 2.62 5.54 2.71 5.49 2.81 5.44 2.91 5.4 3.01 5.35 3.11 5.31 3.21 5.28 3.32 5.24 3.42 5.2 3.53 5.17 3.64 5.14 3.76 5.11 3.87 5.09 3.98 5.07 4.1 5.05 4.21 5.03 4.34 5.02 4.46 5 3.1 3.39 3.15 3.38 3.21 3.36 3.26 3.34 3.31 3.31 3.36 3.27 3.42 3.23 3.46 3.18 3.52 3.12 3.56 3.05 3.61 2.99 3.66 2.91 3.71 2.82 3.75 2.73 3.79 2.64 3.84 2.53 0.29 0.18 0.29 0.18 0.29 0.18 0.29 0.18 0.29 0.18 0.29 0.18 0.29 0.18 0.29 0.18 -3.3 1.52 -4.71 2.1 -5.9 2.59 -6.88 3 -7.64 3.33 -8.18 3.58 -8.5 3.73 -8.61 3.81 -8.49 3.81 -8.16 3.72 -7.6 3.55 -6.84 3.29 -5.85 2.95 -4.64 2.53 -3.22 2.02 -1.57 1.43 -0.02 0.99 0.01 0.62 110.54 -42.27 2.87 2.33 2.99 2.22 3.08 2.12 3.15 2.05 3.19 1.99 3.21 1.94 3.2 1.92 3.17 1.91 4.6 2.75 4.63 2.69 4.65 2.64 4.68 2.59 4.71 2.54 4.73 2.48 4.75 2.44 4.78 2.39 4.8 2.35 4.82 2.31 4.84 2.27 4.86 2.22 4.87 2.19 4.89 2.15 4.91 2.12 4.92 2.09 4.94 2.06 4.95 2.02 4.96 2 4.97 1.97 4.98 1.95 4.99 1.93 5 1.91 5 1.88 5.02 1.87 5.02 1.85 5.02 1.84 5.03 1.83 5.03 1.81 5.03 1.8 5.04 1.8 5.03 1.79 11.11 3.91 11.13 3.85 11.16 3.78 11.18 3.73 11.2 3.66 11.22 3.61 11.23 3.55 11.25 3.49 11.27 3.44 11.29 3.39 11.3 3.34 11.31 3.29 11.33 3.24 11.35 3.19 11.36 3.15 11.37 3.1 11.38 3.06 11.4 3.02 11.4 2.98 11.42 2.94 11.42 2.9 11.44 2.86 11.44 2.83 11.45 2.79 11.46 2.76 11.46 2.73 11.47 2.7 11.47 2.67 11.48 2.64 11.48 2.61 11.49 2.59 11.49 2.57 8.13 1.84 8.14 1.82 8.14 1.8 8.15 1.78 8.15 1.76 8.15 1.74 8.16 1.72 8.16 1.7 8.16 1.68 8.17 1.67 8.17 1.64 8.18 1.63 8.18 1.61 8.18 1.59 8.19 1.57 8.19 1.55 8.19 1.53 8.2 1.51 8.2 1.49 8.2 1.47 8.21 1.45 8.21 1.43 8.22 1.42 8.22 1.4 8.22 1.38 8.23 1.36 8.23 1.34 8.24 1.32 8.24 1.3 8.24 1.28 8.24 1.27 8.25 1.24 12.91 1.95 12.94 1.91 12.95 1.87 12.97 1.82 12.99 1.77 13 1.71 13.02 1.65 13.04 1.59 13.05 1.52 13.06 1.45 13.07 1.38 13.08 1.3 13.09 1.22 13.09 1.14 13.1 1.05 4.59 0.33 636.33 -210.76 0.55 0.13 0.54 0.11 0.54 0.1 0.54 0.09 0.54 0.08 0.55 0.07 0.55 0.07 0.55 0.07 -635.55 210.4 3.38 0.25 13.11 0.86 13.11 0.77 13.12 0.66 13.12 0.56 13.12 0.45 13.12 0.34 13.12 0.22 13.11 0.11 13.11 -0.02 13.11 -0.14 13.1 -0.28 13.09 -0.4 13.09 -0.54 13.08 -0.68 13.07 -0.83 13.06 -0.97 13.11 -1.13 13.14 -1.28 13.16 -1.45 13.17 -1.63 13.16 -1.81 13.15 -2 13.12 -2.21 13.09 -2.42 13.04 -2.64 12.98 -2.87 12.91 -3.11 12.83 -3.36 12.74 -3.61 12.64 -3.88 -719.28 232.69 -75.22 0 -203.85 0 -5.98 0 -256.9 0 -381.47 0 -594.08 0 -250.32 0 0 -21.82 0 -16.93 0 -0.01 0 -2.1 0 -4.47 0 -1.47 0 -7.88 0 -2.11 0 -64.39 0 -196.25 0 -327.89 0 -32.22z"/>
  <path class="fil2" d="M215.96 1821.93c7.07,10.71 11.65,21.01 16.13,32.45 3.33,6.66 5.09,18.93 20.7,18.93 4.57,0 11.13,-1.35 16.95,-4.57 6.55,-3.44 11.54,-8.64 14.15,-16.53l6.24 -21.01 15.19 -7.49 1.04 1.04c-2.08,7.91 -2.59,15.5 -2.59,21.43 0,17.57 15.19,24.23 27.25,24.23 7.07,0 13.42,-3.44 13.42,-9.89 0,-8.32 -3.53,-22.47 -8.12,-35.16 7.07,-7.07 14.15,-14.15 22.26,-19.87l1.25 0.63c3.53,14.98 5.51,29.75 5.51,39.63 0,9.67 -4.27,20.39 -7.8,27.36 -7.28,13.73 -20.18,24.65 -35.78,24.65 -11.85,0 -25.06,-5.93 -34.12,-16.95l-0.52 0c-8.53,10.61 -21.74,20.18 -42.86,20.18l-6.55 0c-1.04,13.94 -4.05,23.81 -8.64,32.66 -12.58,24.54 -49.92,41.92 -85.08,41.92 -48.89,0 -73.43,-28.19 -73.43,-65.73 0,-23.19 7.59,-44.72 19.24,-60.01l9.56 3.95c-7.28,13.94 -12.17,27.04 -12.17,39.94 0,35.16 28.61,51.9 61.58,51.9 30.58,0 68.44,-19.45 75.31,-42.02 -2.59,-24.65 -11.85,-36.19 -26,-58.66 4.27,-7.49 9.78,-14.98 16.64,-22.98l1.25 0 0 0 0 0 -0.01 -0.04zm563.83 -132.3c10.3,6.45 20.39,14.04 30.27,22.78 -5.51,7.8 -12.38,14.88 -20.91,21.12 -9.89,-8.01 -19.76,-14.88 -29.86,-22.16 6.86,-7.7 13.63,-15.08 20.49,-21.74l0 0 0 0 0 0 0 0 0 0 0.01 0zm5.3 96.11c-16.64,0 -30.27,10.92 -30.27,19.03 0,17.38 33.28,22.78 73.12,22.56 -4.99,-20.39 -22.47,-41.61 -42.86,-41.61l0 0.01zm-37.35 92.99c21.64,0 40.57,-0.63 55.02,-4.27 16.13,-4.05 29.75,-12.17 29.75,-17.78 0,-1.46 0,-3.22 -0.52,-4.68 -9.05,0.83 -19.45,0.83 -28.5,0.83 -29.33,0 -51.79,-6.66 -60.64,-23.09 -2.19,-4.57 -3.74,-9.67 -3.74,-15.5 0,-15.92 6.86,-31.41 18.93,-42.13 10.08,-8.84 21.22,-14.35 32.55,-14.35 20.49,0 36.81,16.44 48.26,42.34 6.24,14.15 10.5,30.47 10.5,51.07 0,13.73 -3.74,25.27 -12.27,33.8 -15.92,15.4 -45.24,21.22 -90.17,21.22l-20.39 0 0 0 -5.3 0c-11.13,0 -19.14,-1.98 -25.48,-6.86l-1.04 0c0.31,2.59 0.52,5.09 0.52,7.49 0,10.08 -3.33,22.98 -10.08,33.28 -19.97,29.64 -41.61,42.53 -60.33,42.53 -18.93,0 -42.13,-7.28 -63.03,-16.75l3.74 -7.28c6.76,2.81 16.13,4.68 29.02,4.68 33.8,0 78.21,-32.45 83.72,-64.17 -1.25,-2.59 -3.53,-6.03 -6.76,-9.67 -9.89,-11.75 -16.13,-21.53 -21.95,-31.82 4.99,-9.89 9.56,-17.78 13.83,-24.96l1.77 -0.21c14.46,29.44 27.56,46.28 56.78,46.28l4.57 0 0 0 21.22 0 0 0 0 0 0 0 0 0 0 0 0.04 0zm-146.45 31.1c2.5,-13.52 2.7,-28.7 2.7,-42.86l0 -21.01c0,-39.21 -4.99,-96.2 -9.05,-133.34 7.07,-7.59 16.95,-16.53 24.75,-22.56l2.29 0.63c5.3,46.7 6.55,100.79 6.55,150.81 0,13.11 -0.52,25.9 -1.77,35.26 -0.73,11.85 -7.59,20.8 -22.26,34.53l-3.22 -1.46zm-150.71 -61.89c0.73,18.41 9.78,32.87 41.4,32.87 19.66,0 36.3,-5.09 54.71,-13.83 3.33,-1.46 5.09,-3.44 5.09,-5.09 0,-11.54 -8.84,-26.83 -23.71,-40.77 -14.46,-13.11 -33.6,-24.65 -51.48,-32.35 -6.14,-2.59 -8.12,-5.3 -8.12,-7.91 0,-5.3 7.07,-16.44 12.9,-24.44l1.98 -0.21c20.49,10.71 43.38,26.63 60.33,44.3 15.4,16.33 24.96,32.87 24.96,50.86 0,13.31 -4.05,25.79 -10.61,37.44 -22.47,11.33 -46.39,19.97 -70.1,19.97 -28.81,0 -48.47,-13.52 -48.47,-45.24 0,-3.44 0,-8.73 1.25,-15.61l9.89 0 0 0 0 0 0 0 0 0 0 0 -0.01 0zm-52.11 -52.32l17.89 28.92c6.55,10.71 12.69,22.37 12.69,40.77l0 23.5c0,19.03 -12.17,39.42 -31.82,59.6 -15.4,13.63 -29.02,19.45 -41.61,19.45 -18.72,0 -40.15,-5.82 -64.9,-16.44l2.81 -7.28c7.8,2.08 16.84,3.84 27.98,3.84 35.58,-0.21 71.97,-26.21 88.61,-57.93 1.98,-3.64 2.7,-7.07 2.7,-9.47 0,-3.64 -1.98,-7.7 -3.53,-11.33 -9.05,-17.05 -19.14,-32.66 -30.27,-47.12 5.82,-9.16 11.65,-17.99 17.99,-26.73l1.46 0.21 0 0 0 0 0 0 0 0 0 0 -0.01 0z"/>
  <g id="_2184940331568">
   <path class="fil3" d="M1013.28 954.04c-6.53,-16.25 -10.62,-34.57 -14.86,-51.55 -14.81,-59.19 -26.58,-119.41 -30.31,-180.45 -2.11,-34.56 -1.28,-69.22 -0.64,-103.8 0.14,-7.52 -1.24,-33.59 1.73,-38.54 0.11,4.07 -0.72,7.11 2.52,10.06 14.77,13.44 30.63,25.92 45.84,38.88l102.38 87.45c28.21,23.63 57.46,46.72 84.71,71.44 -57.55,25.91 -114.26,71.11 -155.16,119.1 -12.87,15.1 -23.13,32.62 -36.21,47.4l0 0z"/>
   <path class="fil3" d="M1058.08 385.21c149.16,-137.97 320.47,-197.26 522.87,-189.04 178.69,7.26 393.92,80.51 556.73,153.41 13.22,5.91 66.42,28.15 74.7,35.65 -48.15,0.76 -96.42,0.06 -144.56,0.02l-266.04 -0.14 -743.7 0.11z"/>
   <path class="fil4" d="M1080.07 1621.84c76.01,-35.46 152.95,-68.99 229.17,-104l66.56 -30.84c12.6,-5.83 27.28,-14.57 40.84,-17.25 14.57,-2.89 39.4,-0.69 54.88,-0.57l112.48 0.5 506.12 0.19c25.58,-0.01 181.93,-2.6 195.25,2.2 17.33,6.23 34.24,15.16 51.14,22.52 37.88,16.49 380.71,165.71 386.51,174.81l-0.68 0.35c-11.2,17.85 -23.48,36.25 -37.11,52.3 -94.3,111.01 -240.7,147.63 -380.37,158.84 -139.21,11.17 -280.47,-3.33 -418.12,-24.4 -87.97,-13.16 -175.42,-29.6 -262.15,-49.28 -122.56,-27.24 -244.77,-58.33 -363.19,-100.37 -53.68,-19.06 -107.53,-38.93 -156.45,-68.53 -8.39,-5.08 -17.4,-10.11 -24.87,-16.48l0 0z"/>
   <path class="fil5" d="M1058.08 385.21l743.7 -0.11 266.04 0.14c48.15,0.04 96.41,0.74 144.56,-0.02l356.16 0.23c53.35,0.02 106.87,-0.81 160.19,0.31 0.1,21.44 1.03,43.72 -0.42,65.1 0.27,17.16 2.69,34.18 2.89,51.34 0.7,14.7 0.86,49.42 4.14,62.76l9.96 141.04c2.77,41.82 5.72,83.5 4.1,125.43 -3.7,96.01 -29.49,190.13 -67.53,277.97 21.37,22.52 37.2,47.61 51.71,74.84 40.95,75.69 61.07,160.9 58.29,246.91 -1.41,54.08 -9.77,108.77 -29.82,159.21 -6.55,16.52 -14.2,33.25 -22.76,48.82 -2.83,5.14 -10.19,14.59 -10.64,20.3 1.46,2.06 2.47,3.89 2.02,6.55 -0.37,2.25 -1.6,2.89 -3.28,4.1 -1.49,-0.19 -2.91,-0.36 -4.37,-0.74 -5.79,-9.1 -348.62,-158.32 -386.51,-174.81 -16.9,-7.36 -33.81,-16.28 -51.14,-22.52 -13.32,-4.8 -169.68,-2.21 -195.25,-2.2l-506.12 -0.19 -112.48 -0.5c-15.48,-0.12 -40.31,-2.32 -54.88,0.57 -13.56,2.68 -28.24,11.42 -40.84,17.25l-66.56 30.84c-76.22,35.01 -153.16,68.54 -229.17,104 -22.91,11.05 -46.59,20.81 -69.83,31.19 -11.5,5.13 -23.6,12.05 -35.38,16.22 -1.68,0.59 -2.21,-0.15 -3.75,-0.86 -1.48,-2.58 -1.68,-2.94 -1.57,-5.89 3.63,-5.92 86.65,-40.54 100.08,-46.97 -0.77,-0.47 -1.54,-0.94 -2.3,-1.44 -20.59,-13.22 -39.35,-31.14 -55.71,-49.24 -48.21,-53.31 -75.42,-108.33 -90.61,-178.19 -27.78,-127.76 2.52,-270.3 63.08,-384.44 8.81,-16.6 19.07,-32.38 29.21,-48.18 13.07,-14.78 23.34,-32.31 36.21,-47.4 40.9,-47.99 97.62,-93.19 155.16,-119.1 -27.25,-24.72 -56.5,-47.81 -84.71,-71.44l-102.38 -87.45c-15.21,-12.96 -31.07,-25.45 -45.84,-38.88 -3.24,-2.95 -2.41,-5.99 -2.52,-10.06 0.51,-20.06 1.72,-40.1 3.62,-60.09 1.37,-6.5 1.5,-13.53 2.29,-20.15 1.94,-15.31 3.7,-30.65 5.28,-46 -1.57,-1.7 -4.09,-1.89 -6.29,-2.51l-3.24 -0.5c-2.93,-5.3 -0.69,-55.36 -0.61,-65.1 29.27,0.21 58.55,0.16 87.83,-0.13l0 0z"/>
   <path class="fil6" d="M1517.98 814.29c16.97,-1.06 36.2,4.08 53.19,6.46 5.31,0.74 10.69,0.68 15.94,1.4 -20.9,0.88 -42.24,0.13 -63.18,0.16l-5.95 -8.02z"/>
   <path class="fil6" d="M1941.69 920.82c14.11,0.16 28.23,-0.22 42.35,-0.02 -12.66,1.04 -25.39,0.09 -38.03,1.07 10.63,3.86 27.8,7.85 35.8,15.86l-44.2 -0.05c1.25,-5.64 2.61,-11.26 4.07,-16.86l0 0z"/>
   <path class="fil6" d="M1750.16 854.39c9.82,2.02 58.39,12.32 63.65,15.45 -19.83,1.12 -40.1,0.65 -59.97,0.94 -1.34,-5.43 -2.57,-10.9 -3.68,-16.38l0 0z"/>
   <path class="fil7" d="M1984.04 920.8c10.59,0.05 21.24,-0.17 31.81,0.22 -2.66,5.66 -5.39,11.25 -8.4,16.75l-25.63 -0.04c-8,-8.01 -25.17,-12 -35.8,-15.86 12.63,-0.97 25.37,-0.03 38.03,-1.07l0 0z"/>
   <path class="fil6" d="M1680.61 921.54l78.18 -0.12c1.53,5.31 2.68,10.57 3.73,16 -24.47,0.37 -48.98,0.24 -73.45,0.33 -3.1,-5.27 -5.77,-10.72 -8.45,-16.21l0 0z"/>
   <path class="fil6" d="M1413.07 921.8c26.07,-1 52.35,-0.19 78.45,-0.48 5.17,5.49 10.37,10.95 15.6,16.38l-76.3 0.16c-6.06,-5.19 -11.98,-10.55 -17.76,-16.06l0 0z"/>
   <path class="fil6" d="M1853.8 911.82c-0.11,-11.11 -0.39,-22.21 -0.83,-33.32 18.71,10.37 39.88,17.15 59.83,24.81 6.19,2.37 14.45,4.56 20,8 -26.16,1.42 -52.79,0.5 -79,0.5l0 0z"/>
   <path class="fil6" d="M1766.48 921.37c26.76,-0.2 53.51,-0.25 80.27,-0.15l-0.29 16.35c-24.95,0.29 -49.9,0.37 -74.86,0.24 -2.12,-5.28 -3.5,-10.98 -5.12,-16.44l0 0z"/>
   <path class="fil6" d="M1592.13 921.58c26.49,-0.66 53.12,-0.14 79.61,-0.09 2.66,5.33 4.91,10.71 7.1,16.25 -25.06,0.55 -50.12,0.01 -75.19,0.61 -3.57,-5.75 -7.62,-11.23 -11.52,-16.76l0 0z"/>
   <path class="fil6" d="M1854.1 920.95c26.5,-0.52 53.1,-0.19 79.61,-0.03l-4.65 15.33c-3.6,2.95 -65.49,1.35 -75.17,1.34l0.21 -16.64z"/>
   <path class="fil7" d="M2025.26 920.94l77.04 0.24 -10.21 15.04c-0.1,0.15 -0.17,0.33 -0.31,0.45 -0.03,0.03 -1.88,1.43 -1.96,1.46 -4.52,1.74 -63.18,-0.22 -72.87,-0.32l8.31 -16.88z"/>
   <path class="fil7" d="M2204.74 921.62c27.29,0.53 54.59,0.79 81.9,0.79l-0 0c-5.27,5.22 -10.43,10.55 -15.46,15.98 -27.2,0.89 -54.9,-0.49 -82.15,-0.76l15.72 -16.02z"/>
   <path class="fil6" d="M1505.21 920.95c25.57,-0.16 51.13,-0.14 76.69,0.05 3.59,5.16 7.66,10.28 10.28,16.02l-1.28 0.88c-23.92,0.65 -47.96,0.29 -71.9,0.42 -5.04,-5.17 -10.56,-10.28 -14.76,-16.14l0.97 -1.21z"/>
   <path class="fil7" d="M1636.52 833.95l0.84 -1.74c9.49,-1.71 21.18,-0.55 30.9,-0.59l67.67 -0.13c2.59,9.29 5.07,18.6 7.43,27.95 -12.76,-5.53 -27.25,-8.12 -40.73,-11.43 -23.44,-5.77 -41.79,-10.7 -66.12,-14.06l0 0z"/>
   <path class="fil6" d="M1402.9 808.89c17.64,-0.86 35.5,-2.26 53.15,-1.04 17.55,1.21 34.5,4.73 51.88,6.93l5.64 7.89 -96.97 0.23c-4.81,-4.45 -9.23,-9.25 -13.7,-14.01l0 0z"/>
   <path class="fil7" d="M2112.39 920.84l83.14 0.52 -15.15 13.92c-1.63,1.46 -3.27,2.39 -5.44,2.72 -8.88,1.4 -18.85,0.48 -27.87,0.37l-47.1 -0.5 12.42 -17.03z"/>
   <path class="fil7" d="M1852.97 878.5c29.34,-2.35 60.1,-0.46 89.57,-0.32 -1.23,5.55 -5.11,30.84 -9.19,33.02 -0.16,0.09 -0.36,0.08 -0.54,0.11 -5.55,-3.45 -13.81,-5.63 -20,-8 -19.95,-7.66 -41.12,-14.43 -59.83,-24.81l0 0z"/>
   <path class="fil6" d="M1387.68 806.82c5.41,5.42 10.77,10.88 16.08,16.4 -33.01,0.01 -66.16,0.66 -99.15,-0.35l-15.28 -13.82c7.91,-1.78 17.15,-1.45 25.27,-1.78 24.48,-0.99 48.6,-0.98 73.08,-0.44l0 0z"/>
   <path class="fil6" d="M1636.52 833.95c24.33,3.36 42.67,8.29 66.12,14.06 13.47,3.31 27.96,5.9 40.73,11.43l2.53 11.39c-29.96,0.31 -59.95,-0.04 -89.92,-0.08 -6.4,-12.31 -12.88,-24.58 -19.45,-36.8l0 0z"/>
   <path class="fil6" d="M1465.85 880.15c29.1,-0.11 58.24,0.52 87.34,0.84 7.29,10.24 14.47,20.56 21.55,30.95l-79.44 0.29c-9.23,-11.07 -19.64,-21.49 -29.45,-32.07l0 0z"/>
   <path class="fil6" d="M1564.05 880.04c28.84,-0.35 57.68,-0.41 86.52,-0.18 5.9,10.51 11.01,21.63 16.37,32.43l-81.2 -0.11c-7.32,-10.66 -14.56,-21.37 -21.7,-32.14l0 0z"/>
   <path class="fil6" d="M1454.2 880.09c10.06,10.71 19.99,21.54 29.77,32.5l-81.61 -0.09c-11.99,-10.65 -23.85,-21.46 -35.57,-32.42l87.41 0.01z"/>
   <path class="fil7" d="M2245.84 879.82c27.6,0 55.48,-0.4 83.03,1.2 -10.52,11.18 -21.86,21.61 -33.01,32.18 -2.72,1.71 -71.34,-0.4 -81.36,-0.54l31.33 -32.84z"/>
   <path class="fil6" d="M1660.04 879.48c29.2,0.84 58.64,0.01 87.87,-0.07l8.51 32.93 -79.62 -0.06c-5.6,-10.19 -13.33,-21.8 -16.76,-32.81l0 0z"/>
   <path class="fil7" d="M1950.62 878.37l85.98 0.43c-4.28,9.75 -9.31,19.32 -13.97,28.9l-2.41 4.03c-8.64,3.09 -63.72,0.71 -77.09,0.61 2.85,-11.23 4.64,-22.72 7.49,-33.97l0 0z"/>
   <path class="fil6" d="M1786.29 879.53c19.93,-0.54 39.9,-0.59 59.83,-0.86 0.2,11.12 0.33,22.26 0.42,33.38l-29.49 0.06 -52.17 0.1c-3.27,-10.67 -6.01,-21.55 -8.96,-32.32l30.38 -0.36z"/>
   <path class="fil7" d="M2045.96 878.32l87.67 0.44c-7.14,10.03 -14.34,20.01 -21.59,29.96l-2.17 2.4c-7.23,3.14 -67.7,1.12 -80.36,1.05 5.49,-11.29 10.59,-22.72 16.45,-33.85l0 0z"/>
   <path class="fil7" d="M1257.43 779.77l105.67 -0.51c8.43,8.97 16.62,18.16 24.58,27.56 -24.49,-0.53 -48.6,-0.55 -73.08,0.44 -8.12,0.33 -17.37,0 -25.27,1.78 -11.31,-8.14 -21.76,-19.69 -31.9,-29.28l0 0z"/>
   <path class="fil7" d="M2144.29 878.96c30.07,-0.14 60.13,0.23 90.19,1.12 -9.01,10.01 -18.32,19.79 -27.48,29.66 -1.26,1.1 -2.1,1.84 -3.79,2.26 -9.18,2.25 -69.61,-0.02 -83.44,-0.15 7.69,-11.28 15.75,-22.44 24.52,-32.9l0 0z"/>
   <path class="fil7" d="M2291.04 835.32l0 0c27.39,-0.21 54.79,0.22 82.16,1.28 -11.29,11.9 -22.25,24.4 -34.54,35.28 -27.28,-2.11 -55.2,-1.47 -82.56,-1.83 11.47,-11.75 23.12,-23.33 34.94,-34.73l0 0z"/>
   <path class="fil7" d="M1375.98 779.7l106.44 -0.63c8.79,11.69 17.3,23.6 25.51,35.71 -17.38,-2.21 -34.33,-5.72 -51.88,-6.93 -17.65,-1.21 -35.51,0.18 -53.15,1.04 -9.43,-9.32 -17.85,-19.53 -26.92,-29.18l0 0z"/>
   <path class="fil7" d="M1744.35 831.75c33.7,-0.4 67.59,-0.64 101.29,0.04 0.17,12.64 0.24,25.28 0.22,37.92l-32.05 0.13c-5.26,-3.13 -53.83,-13.42 -63.65,-15.45 -1.93,-7.53 -3.7,-15.15 -5.81,-22.64l0 0z"/>
   <path class="fil7" d="M1985.24 831.95c24.24,-0.23 48.47,-0.21 72.71,0.04 -5.53,12.43 -11.48,24.69 -17.25,37.01l-15.17 0.03 -73.18 0.05 0 0c3,-12.37 6.16,-24.71 9.47,-37l23.42 -0.14z"/>
   <path class="fil7" d="M2067.46 832.47c33.08,-0.15 66.17,0.06 99.25,0.64 -7.27,10.05 -14.62,20.03 -22.04,29.96 -1.14,1.54 -2.22,2.91 -3.59,4.27 -3.13,3.1 -79.78,1.58 -91.09,1.56 5.7,-12.2 11.53,-24.34 17.47,-36.43l0 0z"/>
   <path class="fil7" d="M2176.97 833.58c33.44,0.07 67.24,-0.22 100.61,1.78 -10.46,10.77 -21.09,21.4 -31.85,31.87 -0.3,0.32 -0.59,0.66 -0.9,0.97 -1.38,1.33 -2.3,1.92 -4.19,2.33 -8.69,1.88 -20.83,-0.04 -29.83,-0.24l-60.58 -0.93c8.72,-12.08 17.38,-24.18 26.75,-35.77l0 0z"/>
   <path class="fil7" d="M1852.8 832.11c33.39,-0.24 66.79,-0.21 100.19,0.07 -1.92,10.21 -4.84,20.3 -7.41,30.36 -0.69,2.65 -0.77,4.08 -2.68,6.08 -11.44,1.17 -23.39,0.48 -34.92,0.47l-54.72 0.21c-0.38,-12.38 -0.32,-24.8 -0.46,-37.2l0 0z"/>
   <path class="fil6" d="M1423.86 831.89c31.98,-0.21 63.96,-0.04 95.94,0.5 9.71,12.25 18.1,25.79 26.76,38.8 -29.38,0.4 -58.82,-0.15 -88.2,-0.32 -10.79,-13.6 -22.31,-26.61 -34.5,-38.98l0 0z"/>
   <path class="fil6" d="M1530.25 831.69c31.14,-0.32 65.11,-2.14 96,0.44 2.49,4.14 4.85,8.18 6.8,12.62 5.44,6.68 9.17,18.18 12.83,26.08 -29.04,0.37 -58.12,0.15 -87.16,0.21 -9.59,-13.04 -19.08,-26.16 -28.46,-39.35l0 0z"/>
   <path class="fil7" d="M1602.22 832.35c8.03,-0.06 16.02,0.43 24.03,-0.22 2.49,4.14 4.85,8.18 6.8,12.62 -1.84,-0.32 -1.48,-0.08 -2.75,-0.77 -8.96,-4.93 -18.46,-8.2 -28.08,-11.62l0 0z"/>
   <path class="fil6" d="M1329.35 831.95c27.17,-0.16 54.36,0.27 81.53,0.46 12.43,12.8 24.69,25.77 36.78,38.88l-16.2 0.29c-18.07,0.04 -57.97,-1.88 -73.25,0.96 -15.02,-12.26 -29.06,-26.79 -43.07,-40.21l14.2 -0.39z"/>
   <path class="fil7" d="M2340.84 781.52c29.03,0.52 58.56,-0.6 87.46,2.39 -13.38,13.96 -28.21,26.8 -42.59,39.7 -1.72,1.68 -2.99,2.92 -5.45,3.31 -8.49,1.33 -19.01,-0.14 -27.67,-0.42 -17.22,-0.68 -34.44,-1.07 -51.68,-1.14 13.74,-14.2 26.49,-29.35 39.94,-43.83l0 0z"/>
   <path class="fil7" d="M1492.55 778.97l106.85 -0.1c7.8,14.33 15.36,28.78 22.71,43.35 -11.63,0 -23.38,0.34 -34.99,-0.06 -5.25,-0.73 -10.63,-0.66 -15.94,-1.4 -16.99,-2.38 -36.22,-7.52 -53.19,-6.46 -8.58,-11.7 -17.06,-23.47 -25.43,-35.32l0 0z"/>
   <path class="fil7" d="M1972.91 778.89c37.01,-0.09 74.11,-0.53 111.11,0.5l-17.72 35.43 -3.79 7.43 -98.56 -0.03c2.9,-14.46 5.88,-28.91 8.96,-43.33l0 0z"/>
   <path class="fil7" d="M2093.57 779.06c36.9,1.81 74.3,0.75 111.26,0.93 -9.3,11.82 -17.95,24.23 -26.8,36.4l-5.22 6.97c-33.52,-0.15 -67.11,0.21 -100.62,-0.81 6.94,-14.55 13.63,-29.35 21.38,-43.49l0 0z"/>
   <path class="fil7" d="M1608.76 778.86l113.98 -0.09c4.19,14.01 7.09,28.63 10.51,42.86l-102.02 0.55c-7.58,-14.39 -15.07,-28.83 -22.47,-43.31l0 0z"/>
   <path class="fil7" d="M1731.29 778.85l0 0c37.84,-0.28 75.68,-0.28 113.53,-0.02 0.11,14.5 0.13,28.99 0.05,43.49 -34.39,-0.05 -68.78,-0.27 -103.16,-0.67l-10.42 -42.8z"/>
   <path class="fil7" d="M1851.96 778.73c37.62,-0.29 75.24,-0.26 112.85,0.08l-7.76 33.94 -2.54 9.64 -102.19 0c-0.64,-14.5 -0.32,-29.14 -0.37,-43.65l0 0z"/>
   <path class="fil7" d="M2215.21 780.24c38,0.53 76,0.86 114.01,1l-36.97 39.44 -4.03 4.06 -105.01 -0.55c10.13,-15.04 20.8,-29.7 32,-43.95l0 0z"/>
   <path class="fil7" d="M2398.55 719.25l96.78 1.21c-17.14,16.49 -34.37,32.9 -51.69,49.22 -1.8,1.74 -3.07,2.56 -5.59,2.95 -10.66,1.66 -23.37,0.1 -34.22,-0.18 -17.8,-0.45 -35.61,-0.72 -53.42,-0.79 14.33,-18.58 31.62,-35.76 48.13,-52.4l0 0z"/>
   <path class="fil7" d="M1236.89 716.58c21.48,-0.32 42.96,-0.39 64.44,-0.21 17.74,16.68 34.74,34.14 50.93,52.33l-48.3 0.11 -57.41 -0.04c-19.9,-16.68 -38.47,-34.95 -58.35,-51.71l48.7 -0.48z"/>
   <path class="fil7" d="M1512.05 715.55l55.42 -0.24 26.02 53.18 -63.28 -0.26c-14.74,-0.04 -29.49,-0.17 -44.24,-0.37 -12.44,-17.74 -25.94,-34.84 -39.35,-51.86l65.42 -0.46z"/>
   <path class="fil7" d="M1314.35 716.32c40.36,-0.52 80.76,-0.21 121.12,-0.24 13.47,17.3 26.67,34.82 39.58,52.55l-110 -0.18c-16.73,-17.6 -33.4,-35.09 -50.7,-52.13l0 0z"/>
   <path class="fil7" d="M2261.56 717.57c41.34,1.16 82.84,0.84 124.2,1.5 -14.49,16.46 -29.26,32.66 -44.3,48.62 -0.37,0.39 -0.71,0.81 -1.1,1.18 -1.64,1.56 -2.43,1.93 -4.67,2.16 -11.83,1.23 -25.53,-0.32 -37.52,-0.54l0 0c-25.34,-0.46 -50.68,-0.74 -76.02,-0.82 13.38,-17.08 25.3,-35.68 39.42,-52.09l0 0z"/>
   <path class="fil7" d="M2123.2 716.07c42.22,0.13 84.43,0.59 126.64,1.36 -10.74,14.92 -21.62,29.74 -32.63,44.46 -1.91,2.65 -3.98,5.22 -5.98,7.81l-112.7 -0.82c8.55,-17.45 16.77,-35.05 24.66,-52.81l0 0z"/>
   <path class="fil7" d="M1987.78 715.06c42.07,0.01 84.13,0.25 126.19,0.73 -6.38,15.26 -14.02,30.18 -21.2,45.09l-3.84 7.78c-37.89,-0.07 -75.78,-0.35 -113.67,-0.84l12.52 -52.75z"/>
   <path class="fil7" d="M1851.56 714.81c42.56,-0.2 85.11,-0.14 127.66,0.19l-0 0c-3.27,14.16 -6.68,28.28 -10.24,42.36 -0.74,3.48 -1.84,6.92 -2.78,10.34l-114.22 0.28 -0.42 -53.17z"/>
   <path class="fil7" d="M1577.93 715.5l128.55 -0.45c4.74,17.53 9.26,35.13 13.56,52.77l-116.52 0.15c-8.5,-16.83 -19.42,-34.71 -25.59,-52.47l0 0z"/>
   <path class="fil7" d="M1714.76 715.06c43.05,-0.31 86.1,-0.39 129.15,-0.24 0.29,17.76 0.35,35.54 0.15,53.31 -38.36,0.11 -76.72,0.03 -115.07,-0.26 -5.52,-17.29 -9.61,-35.24 -14.23,-52.81l0 0z"/>
   <path class="fil7" d="M2465.39 644.54c13.04,1.18 26.63,0.55 39.75,0.57l70.57 0.09c-20.86,19.16 -40.91,39.21 -61.57,58.61l-7.02 6.24 -98.8 -1.88c18.11,-21.81 38.14,-42.49 57.07,-63.63l0 0z"/>
   <path class="fil7" d="M1227.65 643.47c20.82,20.08 41.8,39.97 61.94,60.74 -5.59,2.39 -97.58,0.9 -112.59,0.94 -22.07,-17.19 -48.58,-41.39 -67.73,-61.66 39.46,0.25 78.92,0.24 118.38,-0.02l0 0z"/>
   <path class="fil7" d="M1391.25 643.39l139.01 -0.32c10.98,19.96 21.76,40.37 31.39,61.01l-123.04 0.73 -47.36 -61.42z"/>
   <path class="fil7" d="M1241.46 643.26l137.69 -0.05c16.78,20.01 32.43,41.02 48.41,61.67l-123.61 0.03c-20.57,-20.81 -41.4,-41.36 -62.48,-61.64l0 0z"/>
   <path class="fil7" d="M1851.68 642.23c48.1,-0.17 96.2,-0.05 144.29,0.35l0 0c-4.28,16.85 -8.37,33.75 -12.26,50.69l-2.29 10.43 -129.58 -0.04c-0.32,-20.46 -0.12,-40.97 -0.17,-61.44l0 0z"/>
   <path class="fil7" d="M2314.33 643.84c46.05,-0.07 92.1,0.1 138.15,0.52 -16.3,20.27 -34.63,39.62 -52.21,58.83l-4.64 4.8c-42.33,-0.11 -84.64,-0.71 -126.95,-1.81 13.26,-21.04 30.47,-42.48 45.66,-62.33l0 0z"/>
   <path class="fil7" d="M2004.3 643.12c48.78,-0.41 97.57,-0.48 146.35,-0.21 -9.07,16.41 -17.08,33.43 -25.24,50.31l-5.84 11.49 -129.12 -0.84c4.26,-20.33 8.87,-40.58 13.85,-60.75l0 0z"/>
   <path class="fil7" d="M2160.06 642.79l142.54 0.61c-13.15,18.66 -26.44,37.23 -39.86,55.69l-5.46 7.24c-42.73,-1.02 -85.58,-0.86 -128.33,-1.38 10.91,-20.43 20.58,-41.52 31.11,-62.16l0 0z"/>
   <path class="fil7" d="M1697.48 642.67c48.65,-1.31 97.59,-0.38 146.27,-0.39l0.02 61.51 -131.74 0.11c-5.01,-20.37 -9.86,-40.78 -14.54,-61.23l0 0z"/>
   <path class="fil7" d="M1551.84 642.7c45.09,-0.85 90.28,-0.3 135.38,-0.14 5.23,15.64 14.38,44.33 15.5,60.26 -3.06,1.26 -6.73,0.89 -10,0.89l-121.15 0.37c-10.14,-20.47 -20.56,-40.79 -31.27,-60.96l11.55 -0.42z"/>
   <path class="fil7" d="M2551.01 553.96c12.58,0.8 25.52,0.23 38.14,0.27l0 0c27.15,-0.04 54.3,0.25 81.45,0.87 -24.38,26.03 -51.7,49.92 -77.39,74.68 -2.06,1.77 -3.78,2.82 -6.49,3.16 -10.96,1.38 -22.87,0.5 -33.95,0.48 -25.22,-0.04 -50.54,-0.56 -75.75,0.13l0 0c24.86,-26.35 49.52,-52.88 73.99,-79.59l0 0z"/>
   <path class="fil7" d="M974.09 450.95c9.69,0.06 53.19,-1.89 59.39,2.3 31.28,29.65 61.47,60.69 92.36,90.8l-125.71 0.67c-8.92,-8.33 -17.75,-17.54 -27.31,-25.1 1.37,-6.5 1.5,-13.53 2.29,-20.15 1.94,-15.31 3.7,-30.65 5.28,-46 -1.57,-1.7 -4.09,-1.89 -6.29,-2.51l0 0z"/>
   <path class="fil7" d="M1012.26 555.66l124.61 -0.54c16.88,16.61 34.16,32.82 51.21,49.27 8.94,8.62 19.53,17.63 26.9,27.64 -39.38,0.48 -78.81,0.04 -118.2,0.17 -11.6,-9.61 -81.77,-70.44 -84.51,-76.54l0 0z"/>
   <path class="fil7" d="M2644.7 455.71c1.83,-2.01 2.91,-3.29 5.73,-3.83 7.76,-1.52 16.85,-0.6 24.77,-0.57 17.64,0.08 35.49,0.65 53.1,-0.45 0.27,17.16 2.69,34.18 2.89,51.34 -7.56,1.55 -38.24,32.51 -46.37,40.01l-122 -0.35c26.75,-29.2 54.5,-57.54 81.88,-86.15l0 0z"/>
   <path class="fil7" d="M1152.2 555.4c52.53,-1.03 105.22,-0.43 157.77,-0.66 18.78,26.34 40.31,51.51 60.53,76.81 -46.59,-1.08 -93.45,-0.07 -140.07,-0.06 -26.01,-25.43 -52.62,-50.28 -78.24,-76.1l0 0z"/>
   <path class="fil7" d="M2380.95 553.68l155.77 0.42c-19.84,24.35 -44.31,48.45 -65.74,71.85l-6.48 7.06c-47.26,-0.06 -94.56,0.06 -141.81,-0.68 19.03,-26.51 39.4,-51.98 58.26,-78.64l0 0z"/>
   <path class="fil7" d="M1334.85 554.65l148.54 -0.9c14.23,25.48 27.83,51.3 40.8,77.45l-12.32 -0.07 -129.91 -0.13c-20.43,-25.04 -40.25,-50.61 -60.29,-75.95l13.18 -0.39z"/>
   <path class="fil7" d="M2206.19 552.77c54.3,2.06 109.19,0.22 163.55,0.59 -16.93,23.03 -34.74,45.39 -51.43,68.61l-7.08 9.87 -144.59 -1.03c4.11,-10.06 9.79,-19.78 14.7,-29.49 8.21,-16.21 16.14,-32.6 24.85,-48.55l0 0z"/>
   <path class="fil7" d="M1850.98 552.12c55.47,-1.1 111.15,-0.06 166.63,0.01 -5.22,21.05 -10.56,42.07 -16.02,63.06l-3.76 15.57c-48.62,-1.45 -97.65,-0.34 -146.31,-0.26 -1.12,-26 -0.4,-52.34 -0.54,-78.38l0 0z"/>
   <path class="fil7" d="M1531.76 553.62l132.48 -0.59c7.94,25.36 13.77,51.83 20.38,77.58l-33.81 0.02 -116.23 0.31 -40.21 -76.82 37.39 -0.49z"/>
   <path class="fil7" d="M2026.67 552.14l168.61 0.93c-11.41,20.96 -21.64,42.77 -32.22,64.16l-6.62 13.66c-49.71,-0.81 -99.45,0.29 -149.17,-0.11 6.71,-26.16 13.18,-52.37 19.4,-78.64l0 0z"/>
   <path class="fil7" d="M1709.79 552.61l133.12 -0.44 0.12 78.55c-11.94,-0.16 -23.9,-0.05 -35.84,-0.07l-113.01 0.13c-6.68,-26 -13.61,-51.93 -20.79,-77.78 12.1,-0.44 24.29,-0.29 36.4,-0.39l0 0z"/>
   <path class="fil7" d="M2456.4 454.25c0.29,-0.3 0.57,-0.63 0.9,-0.92 1.36,-1.23 2.21,-1.69 4.03,-1.96 14.19,-2.08 38.33,-0.37 53.82,-0.37 39.69,-0.14 79.37,-0.04 119.06,0.31 -29.11,29.59 -57.65,59.74 -85.6,90.43 -52.33,-0.52 -104.66,-0.77 -156.99,-0.75 21.3,-29.13 42.9,-58.04 64.78,-86.74l0 0z"/>
   <path class="fil7" d="M1047.45 452.29c11.36,-2.88 41.89,-0.77 54.91,-0.74l127.6 0.13c22.73,30.9 46.15,61.3 70.23,91.17l-159.51 0.95 -60.76 -59.7c-10.75,-10.59 -21.23,-21.76 -32.48,-31.81l0 0z"/>
   <path class="fil7" d="M2258.59 451.54c19.07,-2.15 40.14,-0.43 59.38,-0.42l128.72 0.03c-11.34,14.85 -22.95,29.45 -34.13,44.43 -11.24,15.08 -22.07,30.73 -34.38,44.96 -55.1,1.62 -110.6,0.22 -165.75,0.09 14.2,-30.08 30.24,-59.89 46.16,-89.09l0 0z"/>
   <path class="fil7" d="M1851.25 450.88c25.05,0.69 183.26,-1.95 191.48,0.85 -9.57,28.57 -15.14,59.29 -23,88.46l-168.56 -0.45c-0.15,-29.62 -0.12,-59.24 0.08,-88.87l0 0z"/>
   <path class="fil7" d="M1241.91 452.01c17.93,-0.39 183.4,-1.92 187.53,-0.4 0.68,0.25 1.19,0.82 1.79,1.22 13.62,30.27 30.35,59.61 45.83,89 -54.71,0.15 -109.42,0.59 -164.12,1.3 -23.52,-30.5 -47.7,-60.47 -71.03,-91.11l0 0z"/>
   <path class="fil7" d="M2052.92 451.03l129.96 -0.07c21.13,-0.02 43.13,1.45 64.13,-0 -4.02,10.52 -10.86,21.08 -16.06,31.13 -10.06,19.34 -19.76,38.85 -29.12,58.53 -57.31,0.5 -114.74,-0.57 -172.06,-0.59 8.25,-29.53 15.96,-59.2 23.15,-89l0 0z"/>
   <path class="fil7" d="M1646.05 451.19l132.9 -0.28c21.02,-0.02 42.97,1.31 63.9,-0.14l-0.17 89.06 -172.04 0.78c-7.8,-29.92 -16.63,-59.55 -24.59,-89.42l0 0z"/>
   <path class="fil7" d="M1440.59 451.76c24.24,-1.68 49.06,-0.79 73.37,-0.78l122.63 -0.02c7.66,30.05 16.25,59.78 24.38,89.69l-172.88 1.05c-16.03,-29.76 -32.67,-59.58 -47.51,-89.95l0 0z"/>
   <path class="fil5" d="M1058.08 385.21l743.7 -0.11 266.04 0.14c48.15,0.04 96.41,0.74 144.56,-0.02l356.16 0.23c53.35,0.02 106.87,-0.81 160.19,0.31 0.1,21.44 1.03,43.72 -0.42,65.1 -17.61,1.1 -35.46,0.53 -53.1,0.45 -7.93,-0.03 -17.01,-0.95 -24.77,0.57 -2.81,0.55 -3.9,1.82 -5.73,3.83 -3.95,-1.41 -6.26,-4.76 -10.48,-4.39 -39.69,-0.35 -79.37,-0.45 -119.06,-0.31 -15.49,0 -39.63,-1.71 -53.82,0.37 -1.82,0.27 -2.68,0.73 -4.03,1.96 -0.33,0.29 -0.61,0.61 -0.9,0.92 -3.6,-2.2 -5.39,-3.44 -9.72,-3.1l-128.72 -0.03c-19.24,-0.01 -40.31,-1.73 -59.38,0.42 -3.88,-0.31 -7.7,-0.55 -11.58,-0.59 -21,1.46 -43.01,-0.01 -64.13,0l-129.96 0.07c-2.64,-0.43 -6.91,-1.69 -9.3,-0.09 -0.33,0.22 -0.59,0.53 -0.88,0.79 -8.22,-2.81 -166.43,-0.17 -191.48,-0.85 -0.43,-0.23 -0.84,-0.54 -1.31,-0.68 -2.52,-0.75 -4.73,-0.36 -7.1,0.57 -20.93,1.44 -42.88,0.12 -63.9,0.14l-132.9 0.28c-3.07,-0.64 -6.32,-0.31 -9.45,-0.22l-122.63 0.02c-24.31,-0.01 -49.13,-0.9 -73.37,0.78 -2.26,-1.3 -3.42,-2.04 -6.18,-1.38 -1.58,0.38 -2.38,1.14 -3.17,2.44 -0.6,-0.4 -1.11,-0.97 -1.79,-1.22 -4.14,-1.52 -169.61,0.02 -187.53,0.4 -3.87,-1.95 -7.86,-1.01 -11.95,-0.33l-127.6 -0.13c-13.02,-0.03 -43.56,-2.14 -54.91,0.74 -2.99,-1.81 -7.63,-1.71 -10.98,-0.92 -1.8,0.43 -1.77,0.67 -2.98,1.88 -6.2,-4.18 -49.7,-2.24 -59.39,-2.3l-3.24 -0.5c-2.93,-5.3 -0.69,-55.36 -0.61,-65.1 29.27,0.21 58.55,0.16 87.83,-0.13l0 0z"/>
   <path class="fil8" d="M1420.97 967.07c146.94,-0.77 293.89,-0.81 440.83,-0.11l145.56 -0.39c27.06,-0.1 54.58,-1.14 81.59,0.29 -17.54,1.58 -35.76,0.57 -53.4,0.63 31.18,31.55 64.09,77.89 63.97,124.01 -0.09,33.87 -16.89,65.53 -40.54,88.99 -20.56,20.38 -45.99,34.41 -72.17,46.22 -171.56,77.42 -415.65,41.01 -565.31,150.47l-0.54 -410.11z"/>
   <path class="fil9" d="M2088.96 966.86c62.43,-1.81 125.39,0.26 187.87,0.19l0.28 314.86c0.02,59.36 0.58,118.78 -0.17,178.13l-561.67 0 -199.01 -0.25c-31.51,-0.12 -63.14,0.31 -94.63,-0.48l-0.13 -82.14c149.66,-109.46 393.75,-73.05 565.31,-150.47 26.18,-11.8 51.61,-25.83 72.17,-46.22 23.65,-23.46 40.45,-55.13 40.54,-88.99 0.12,-46.13 -32.79,-92.46 -63.97,-124.01 17.64,-0.06 35.86,0.95 53.4,-0.63l0 0z"/>
   <path class="fil4" d="M1204.66 787.53c43.92,35.1 85.21,73.22 127.92,109.75 26.11,22.34 54.74,42.62 79.18,66.74l-0.42 328.26 0.11 95.59c0.01,15.89 1.28,33.34 -0.55,49.01 0.16,7.89 0.17,15.78 0.03,23.66l-87.55 39.94c-19.78,9.18 -39.48,19.61 -60.02,26.93 -43.68,21.28 -88.57,40.88 -132.95,60.66 -20.17,9 -41.12,17.41 -60.77,27.46 -0.77,-0.47 -1.54,-0.94 -2.3,-1.44 -20.59,-13.22 -39.35,-31.14 -55.71,-49.24 -48.21,-53.31 -75.42,-108.33 -90.61,-178.19 -27.78,-127.76 2.52,-270.3 63.08,-384.44 8.81,-16.6 19.07,-32.38 29.21,-48.18 13.07,-14.78 23.34,-32.31 36.21,-47.4 40.9,-47.99 97.62,-93.19 155.16,-119.1l0 0z"/>
   <path class="fil8" d="M1263.35 1527.41c0.74,-1.76 1.55,-3.22 2.95,-4.58 18.96,-18.5 38.52,-36.37 57.32,-55.07 18.22,-18.11 35.65,-37.12 54.21,-54.86 10.28,-9.84 20.98,-20.56 32.61,-28.79 -0.05,17.43 -1.05,35.41 0.46,52.76 0.16,7.89 0.17,15.78 0.03,23.66l-87.55 39.94c-19.78,9.18 -39.48,19.61 -60.02,26.93l0 0z"/>
   <path class="fil3" d="M2285.48 962.25c14.94,-15.15 31.7,-29.15 47.45,-43.5 33.98,-31 68.25,-61.68 102.81,-92.03l212.88 -186.38c28.83,-25.2 58.15,-49.91 86.71,-75.38l9.96 141.04c2.77,41.82 5.72,83.5 4.1,125.43 -3.7,96.01 -29.49,190.13 -67.53,277.97 21.37,22.52 37.2,47.61 51.71,74.84 40.95,75.69 61.07,160.9 58.29,246.91 -1.41,54.08 -9.77,108.77 -29.82,159.21 -6.55,16.52 -14.2,33.25 -22.76,48.82 -2.83,5.14 -10.19,14.59 -10.64,20.3 -9.16,-1.62 -29.9,-13.58 -39.23,-18.02 -27.23,-12.97 -54.65,-25.89 -82.12,-38.36l0 0c-106.84,-48.03 -214.09,-95.13 -321.74,-141.31 -1.73,-75.06 -0.39,-150.44 -0.37,-225.53 0.01,-91.29 -1.01,-182.73 0.3,-274.01l0 0z"/>
   <path class="fil8" d="M2520.6 1019.12c4.62,-0.15 9.16,-0.13 13.76,0.21 58.56,4.29 110.25,46.61 147.23,89.36 -39.5,99.88 -128.32,218.41 -226.54,266.19 -19.03,9.02 -40.84,16.36 -62,17.59 -20.81,1.21 -39.64,-4.74 -55.27,-18.76 -19.46,-17.47 -26.68,-46.81 -28.06,-71.99 -4.14,-76.16 30.72,-158.72 81.2,-214.8 33.41,-37.1 78.99,-65.22 129.68,-67.8l0 0z"/>
  </g>
 </g>
</svg>
