<?xml version="1.0" encoding="UTF-8"?>
<!DOCTYPE svg PUBLIC "-//W3C//DTD SVG 1.1//EN" "http://www.w3.org/Graphics/SVG/1.1/DTD/svg11.dtd">
<!-- Creator: CorelDRAW 2020 (64-Bit) -->
<svg xmlns="http://www.w3.org/2000/svg" xml:space="preserve" width="94.1916mm" height="52.9166mm" version="1.1" style="shape-rendering:geometricPrecision; text-rendering:geometricPrecision; image-rendering:optimizeQuality; fill-rule:evenodd; clip-rule:evenodd"
viewBox="0 0 9404.92 5283.66"
 xmlns:xlink="http://www.w3.org/1999/xlink"
 xmlns:xodm="http://www.corel.com/coreldraw/odm/2003">
 <defs>
  <style type="text/css">
   <![CDATA[
    .str0 {stroke:#9ED3CA;stroke-width:16.7;stroke-miterlimit:10}
    .str1 {stroke:#9ED3CA;stroke-width:10.02;stroke-miterlimit:10}
    .str2 {stroke:#F3F9F8;stroke-width:20.04;stroke-linecap:round;stroke-linejoin:round;stroke-miterlimit:10}
    .fil9 {fill:none;fill-rule:nonzero}
    .fil0 {fill:#E6E7E8}
    .fil8 {fill:#FDDAA0;fill-rule:nonzero}
    .fil5 {fill:#ED717C;fill-rule:nonzero}
    .fil3 {fill:#FAFAFA;fill-rule:nonzero}
    .fil15 {fill:#F3F9F8;fill-rule:nonzero}
    .fil11 {fill:#DC586B;fill-rule:nonzero}
    .fil12 {fill:#B74856;fill-rule:nonzero}
    .fil7 {fill:#ADD1EF;fill-rule:nonzero}
    .fil10 {fill:#9ED3CA;fill-rule:nonzero}
    .fil6 {fill:#5182C2;fill-rule:nonzero}
    .fil4 {fill:#3C384E;fill-rule:nonzero}
    .fil14 {fill:#2E6784;fill-rule:nonzero}
    .fil13 {fill:white;fill-rule:nonzero}
    .fil2 {fill:#373435;fill-opacity:0.031373}
    .fil1 {fill:#2B2A29;fill-opacity:0.101961}
   ]]>
  </style>
 </defs>
 <g id="Layer_x0020_1">
  <metadata id="CorelCorpID_0Corel-Layer"/>
  <polygon class="fil0" points="-0,0 9404.92,0 9404.92,5283.66 -0,5283.66 "/>
  <polygon class="fil1" points="2486.18,5283.66 2479.97,5283.66 2451.9,5283.66 2204.65,5283.66 2143.34,5283.66 2115.79,5283.66 2050.8,5283.66 2049.79,5283.66 2014.16,5283.66 1733.89,5283.66 1642.82,5283.66 1519.52,5283.66 1255.91,5283.66 1250.53,5283.66 1183.07,5283.66 1162.39,5283.66 1160.26,5283.66 868.94,5283.66 831.45,5283.66 799.87,5283.66 716,5283.66 520.83,5283.66 466.28,5283.66 375.19,5283.66 320.75,5283.66 307.37,5283.66 306.35,5283.66 306.16,5283.66 134.85,5283.66 -0,5283.66 -0,5268.26 -0,5261.79 -0,5201.32 -0,5155.41 -0,5096.67 -0,5021.15 -0,4996.96 -0,4818.86 -0,4602.48 -0,4055.31 -0,3512.63 4222.24,1179.45 4180.01,1203.76 4139.1,1230.01 4099.56,1258.16 4061.46,1288.11 4024.86,1319.83 3989.82,1353.24 3956.41,1388.28 3924.69,1424.88 3894.73,1462.99 3866.6,1502.53 3840.34,1543.44 3816.03,1585.66 3793.74,1629.13 3773.52,1673.79 3755.44,1719.56 3739.57,1766.38 3725.96,1814.19 3714.68,1862.93 3705.8,1912.53 3699.37,1962.94 3695.48,2014.07 3694.16,2065.88 3695.48,2117.69 3699.37,2168.83 3705.8,2219.23 3714.68,2268.84 3725.96,2317.57 3739.57,2365.39 3755.44,2412.22 3773.52,2457.99 3793.74,2502.64 3816.03,2546.11 3840.34,2588.33 3866.6,2629.25 3894.73,2668.79 3924.69,2706.89 3956.41,2743.5 3989.82,2778.53 4024.86,2811.94 4061.46,2843.65 4099.56,2873.62 4139.1,2901.76 4180.01,2928.01 4222.24,2952.32 4265.71,2974.62 4310.36,2994.84 4356.13,3012.91 4402.95,3028.78 4450.77,3042.39 4499.51,3053.68 4549.11,3062.55 4599.52,3068.98 4650.65,3072.88 4702.46,3074.2 4754.27,3072.88 4805.4,3068.98 4855.81,3062.55 4905.41,3053.68 4954.15,3042.39 5001.97,3028.78 5048.79,3012.91 5094.56,2994.84 5139.21,2974.62 4079.47,3504.45 4082.87,3510.31 4093.64,3530.84 4103.68,3551.83 4113.05,3573.16 4121.82,3594.75 4130.05,3616.5 4134.27,3628.37 4551.31,3421.34 4525.55,3437.01 4501.5,3455.01 4479.3,3475.19 4459.12,3497.39 4441.12,3521.45 4425.45,3547.2 4412.28,3574.51 4401.76,3603.19 4394.05,3633.11 4389.3,3664.1 4387.69,3695.99 4387.75,3697.1 5402.02,3198.18 5382.54,3208.18 5363.51,3219 5344.95,3230.61 5326.91,3243 5309.42,3256.15 5292.52,3270.04 5276.24,3284.65 5260.64,3299.96 5245.72,3315.97 5231.53,3332.63 5218.63,3349.31 5206.59,3366.41 5195.36,3383.92 5184.88,3401.79 5175.1,3420 5165.95,3438.52 5157.37,3457.34 5149.31,3476.39 5141.71,3495.67 5134.51,3515.15 5131.93,3522.53 5484.01,3350.88 5497.3,3345.11 5510.78,3339.96 5524.41,3335.44 5538.19,3331.53 5552.08,3328.21 5566.08,3325.51 5580.15,3323.4 5594.29,3321.88 5608.47,3320.94 5622.67,3320.58 5636.86,3320.79 5651.03,3321.57 5665.17,3322.91 5679.25,3324.81 5693.25,3327.25 5707.14,3330.24 5720.92,3333.76 5734.56,3337.83 5748.04,3342.41 5761.33,3347.51 5774.43,3353.13 5787.31,3359.26 5799.94,3365.9 5812.32,3373.03 5824.41,3380.66 5836.21,3388.77 5847.69,3397.36 5858.83,3406.42 5869.6,3415.96 5880.01,3425.96 5890,3436.42 5900.47,3448.37 5910.37,3460.76 5919.75,3473.55 5928.62,3486.73 5937.03,3500.26 5945,3514.13 5952.54,3528.32 5959.71,3542.79 5966.51,3557.51 5972.98,3572.49 5979.16,3587.68 5984.16,3600.71 6734.06,3243.42 6726.87,3247.57 6720.08,3252.44 6713.75,3257.98 6707.92,3264.2 6702.68,3271.06 6698.07,3278.57 6694.24,3286.5 6691.28,3294.62 6689.18,3302.88 6687.92,3311.21 6687.5,3319.54 6687.87,3327.83 6689.03,3336.03 6690.97,3344.06 6693.67,3351.86 6697.1,3359.38 6701.25,3366.57 6706.12,3373.36 6711.66,3379.69 6717.88,3385.51 6724.75,3390.76 6732.26,3395.37 6747.15,3404.01 6761.45,3413.31 6775.19,3423.25 6788.33,3433.79 6800.87,3444.91 6812.82,3456.59 6824.13,3468.77 6834.82,3481.45 6844.88,3494.59 6854.28,3508.15 6863.04,3522.12 6871.13,3536.46 6878.55,3551.14 6885.28,3566.14 6891.32,3581.43 6896.66,3596.96 6901.29,3612.72 6905.2,3628.69 6908.38,3644.81 6910.82,3661.09 6912.51,3677.46 6913.45,3693.92 6913.62,3710.42 6913.01,3726.96 6911.63,3743.48 6909.44,3759.97 6906.45,3776.39 6902.65,3792.72 6898.03,3808.92 6892.57,3824.97 6886.27,3840.84 6879.13,3856.49 6870.93,3872.32 6862.02,3887.6 6852.43,3902.34 6842.16,3916.52 6831.26,3930.11 6819.72,3943.09 6807.57,3955.45 6794.83,3967.18 6781.52,3978.26 6767.67,3988.66 6753.29,3998.37 6738.39,4007.38 6723,4015.66 6707.14,4023.21 6358.06,4183.62 6370.29,4188.9 6392.33,4197.25 6414.73,4204.56 6437.44,4210.86 6460.43,4216.07 6483.63,4220.2 6504.67,4222.99 6525.69,4224.87 6546.69,4225.9 6567.62,4226.05 6588.47,4225.36 6609.21,4223.84 6629.83,4221.48 6650.3,4218.32 6670.58,4214.36 6690.67,4209.61 6710.53,4204.09 6730.15,4197.8 6749.49,4190.77 6768.54,4183.01 6787.27,4174.51 4351.62,5283.66 4158.79,5283.66 3964.2,5283.66 3868.69,5283.66 3804.76,5283.66 3786.36,5283.66 3480.68,5283.66 3166.26,5283.66 2981.48,5283.66 2916.5,5283.66 2889.31,5283.66 2741.11,5283.66 2585.19,5283.66 2506.41,5283.66 "/>
  <path class="fil2" d="M578.49 4627.69c17.95,27.21 29.6,53.36 40.96,82.43 8.45,16.91 12.93,48.09 52.57,48.09 11.61,0 28.28,-3.42 43.06,-11.61 16.63,-8.73 29.32,-21.94 35.94,-42l15.85 -53.36 38.57 -19.02 2.64 2.64c-5.27,20.09 -6.59,39.36 -6.59,54.43 0,44.63 38.57,61.56 69.22,61.56 17.95,0 34.09,-8.73 34.09,-25.11 0,-21.13 -8.98,-57.06 -20.62,-89.29 17.95,-17.95 35.94,-35.94 56.53,-50.47l3.17 1.6c8.98,38.04 14,75.56 14,100.66 0,24.57 -10.83,51.79 -19.81,69.49 -18.49,34.87 -51.25,62.62 -90.87,62.62 -30.1,0 -63.65,-15.07 -86.66,-43.06l-1.32 0c-21.66,26.96 -55.22,51.25 -108.86,51.25l-16.63 0c-2.64,35.41 -10.29,60.49 -21.94,82.95 -31.95,62.34 -126.81,106.47 -216.1,106.47 -124.17,0 -186.51,-71.59 -186.51,-166.96 0,-58.91 19.27,-113.6 48.88,-152.42l24.29 10.04c-18.49,35.41 -30.91,68.68 -30.91,101.45 0,89.29 72.66,131.83 156.4,131.83 77.68,0 173.83,-49.41 191.28,-106.72 -6.59,-62.62 -30.1,-91.93 -66.04,-148.99 10.83,-19.02 24.83,-38.04 42.28,-58.38l3.17 0 0 0 0 0 -0.02 -0.09zm1432.13 -336.04c26.15,16.39 51.79,35.66 76.87,57.85 -14,19.81 -31.45,37.79 -53.11,53.64 -25.11,-20.34 -50.19,-37.79 -75.84,-56.27 17.42,-19.55 34.62,-38.29 52.04,-55.22l0 0 0 0 0 0 0 0 0 0 0.03 0zm13.47 244.11c-42.28,0 -76.87,27.75 -76.87,48.34 0,44.13 84.53,57.85 185.72,57.31 -12.68,-51.79 -57.06,-105.68 -108.86,-105.68l0.01 0.03zm-94.86 236.19c54.96,0 103.04,-1.6 139.74,-10.83 40.96,-10.29 75.56,-30.91 75.56,-45.17 0,-3.7 0,-8.19 -1.32,-11.89 -22.98,2.11 -49.41,2.11 -72.38,2.11 -74.49,0 -131.55,-16.91 -154.02,-58.66 -5.55,-11.61 -9.51,-24.57 -9.51,-39.36 0,-40.43 17.42,-79.79 48.09,-107 25.61,-22.45 53.89,-36.44 82.67,-36.44 52.04,0 93.51,41.75 122.57,107.54 15.85,35.94 26.68,77.4 26.68,129.72 0,34.87 -9.51,64.19 -31.17,85.85 -40.43,39.11 -114.92,53.89 -229.04,53.89l-51.79 0 0 0 -13.47 0c-28.28,0 -48.62,-5.02 -64.72,-17.42l-2.64 0c0.79,6.59 1.32,12.93 1.32,19.02 0,25.61 -8.45,58.38 -25.61,84.53 -50.72,75.3 -105.68,108.04 -153.24,108.04 -48.09,0 -107,-18.49 -160.11,-42.54l9.51 -18.49c17.17,7.13 40.96,11.89 73.7,11.89 85.85,0 198.66,-82.43 212.66,-163 -3.17,-6.59 -8.98,-15.32 -17.17,-24.57 -25.11,-29.85 -40.96,-54.68 -55.75,-80.83 12.68,-25.11 24.29,-45.17 35.13,-63.4l4.49 -0.53c36.72,74.77 69.99,117.55 144.23,117.55l11.61 0 0 0 53.89 0 0 0 0 0 0 0 0 0 0 0 0.09 0.01zm-371.98 79c6.34,-34.34 6.87,-72.91 6.87,-108.86l0 -53.36c0,-99.6 -12.68,-244.36 -22.98,-338.68 17.95,-19.27 43.06,-42 62.87,-57.31l5.81 1.6c13.47,118.62 16.63,256 16.63,383.06 0,33.3 -1.32,65.79 -4.49,89.55 -1.85,30.1 -19.27,52.83 -56.53,87.7l-8.19 -3.7zm-382.8 -157.19c1.85,46.77 24.83,83.49 105.15,83.49 49.93,0 92.19,-12.93 138.96,-35.13 8.45,-3.7 12.93,-8.73 12.93,-12.93 0,-29.32 -22.45,-68.15 -60.23,-103.55 -36.72,-33.3 -85.34,-62.62 -130.76,-82.18 -15.6,-6.59 -20.62,-13.47 -20.62,-20.09 0,-13.47 17.95,-41.75 32.77,-62.09l5.02 -0.53c52.04,27.21 110.17,67.64 153.24,112.53 39.11,41.47 63.4,83.49 63.4,129.19 0,33.81 -10.29,65.51 -26.96,95.11 -57.06,28.79 -117.83,50.72 -178.06,50.72 -73.17,0 -123.1,-34.34 -123.1,-114.92 0,-8.73 0,-22.19 3.17,-39.64l25.11 0 0 0 0 0 0 0 0 0 0 0 -0.02 0zm-132.37 -132.9l45.45 73.45c16.63,27.21 32.23,56.81 32.23,103.55l0 59.7c0,48.34 -30.91,100.13 -80.83,151.38 -39.11,34.62 -73.7,49.41 -105.68,49.41 -47.55,0 -101.98,-14.79 -164.85,-41.75l7.13 -18.49c19.81,5.27 42.79,9.77 71.06,9.77 90.36,-0.53 182.8,-66.57 225.08,-147.15 5.02,-9.26 6.87,-17.95 6.87,-24.04 0,-9.26 -5.02,-19.55 -8.98,-28.79 -22.98,-43.31 -48.62,-82.95 -76.87,-119.68 14.79,-23.25 29.6,-45.7 45.7,-67.9l3.7 0.53 0 0 0 0 0 0 0 0 0 0 -0.02 0.01z"/>
  <g id="_1458886696656">
   <g>
    <path class="fil3" d="M5932.88 3695.99c0,170.96 -138.59,309.55 -309.54,309.55 -170.96,0 -309.55,-138.59 -309.55,-309.55 0,-170.96 138.59,-309.55 309.55,-309.55 170.95,0 309.54,138.59 309.54,309.55z"/>
    <path class="fil4" d="M5623.34 3389.31c-169.11,0 -306.69,137.58 -306.69,306.69 0,169.11 137.57,306.69 306.69,306.69 169.1,0 306.68,-137.57 306.68,-306.69 0,-169.1 -137.57,-306.69 -306.68,-306.69zm0 619.11c-172.28,0 -312.43,-140.16 -312.43,-312.43 0,-172.26 140.15,-312.42 312.43,-312.42 172.26,0 312.42,140.16 312.42,312.42 0,172.27 -140.16,312.43 -312.42,312.43z"/>
    <path class="fil5" d="M5859.6 3695.99c0,131.31 -106.45,237.76 -237.76,237.76 -131.3,0 -237.75,-106.45 -237.75,-237.76 0,-131.3 106.45,-237.75 237.75,-237.75 131.31,0 237.76,106.45 237.76,237.75z"/>
    <path class="fil4" d="M5621.84 3461.11c-129.51,0 -234.88,105.37 -234.88,234.88 0,129.52 105.37,234.88 234.88,234.88 129.51,0 234.88,-105.36 234.88,-234.88 0,-129.51 -105.37,-234.88 -234.88,-234.88zm0 475.51c-132.68,0 -240.62,-107.94 -240.62,-240.63 0,-132.68 107.94,-240.63 240.62,-240.63 132.68,0 240.63,107.95 240.63,240.63 0,132.69 -107.95,240.63 -240.63,240.63z"/>
    <path class="fil4" d="M7061.38 3544.49c-41.11,-129.05 -128.66,-235.64 -246.51,-300.12 -41.7,-22.8 -93.99,-7.5 -116.79,34.19 -22.82,41.71 -7.51,93.99 34.19,116.8 161.79,88.51 227.67,295.36 146.87,461.12 -41.81,85.79 -114.63,149.54 -205.04,179.52 -229.97,76.22 -397.41,-93.71 -471.32,-293.62 -62.28,-168.41 -87.39,-348.67 -231.78,-470.56 -121.81,-102.83 -288.31,-146.93 -444.84,-115.64 -114.53,22.89 -221,85.79 -294.62,176.44 -142.48,175.44 -126.93,429.34 -272.61,599.37 -126.75,147.96 -360.32,159.05 -496.29,17.83 -163.11,-169.41 -143.45,-441.32 -293.02,-621.27 -220.9,-265.77 -661.44,-228.84 -840.28,64.95 -43.66,71.73 -68.87,152.95 -92.79,233.45 -23.93,80.51 -47.32,162.04 -87.92,235.57 -67.07,121.49 -179.23,196.4 -320.16,190.99 -125.26,-4.81 -241.17,-78.02 -298.76,-189.43 -88.82,-171.84 -21.28,-383.91 150.57,-472.73 42.22,-21.82 58.75,-73.74 36.93,-115.95 -21.83,-42.22 -73.74,-58.75 -115.95,-36.93 -256.15,132.39 -356.83,448.5 -224.44,704.65 92.83,179.6 275.93,282.76 465.41,282.75 80.75,-0.02 162.69,-18.76 239.24,-58.32 153.01,-79.08 234.07,-221.54 284.06,-380.94 26.16,-83.41 47.66,-168.84 85.69,-247.55 89.49,-185.19 299.8,-282.35 490.65,-177.77 112.31,61.56 165.03,182.87 203.29,298.8 43.1,130.62 73.75,265.87 161.39,375.99 94.64,118.94 243.77,189.55 395.55,189.55 168.89,0 325.8,-87.69 420.03,-226.89 89.78,-132.62 128.38,-294.8 179.82,-444.36 17.39,-50.57 44.9,-95.95 79.53,-131.24 25.98,-26.47 56.08,-48.64 89.42,-65.88 138.55,-71.63 314.65,-34.82 419.1,79.14 114.7,125.15 129.32,327.81 200.12,477.99 20.33,43.12 44.45,84.54 74.2,121.89 78.34,98.33 195.04,164.83 319.32,183.91 224.35,34.46 450.98,-84.72 550.2,-288.3 34.96,-71.69 52.6,-149.33 52.56,-227.59 -0.03,-53.55 -8.33,-107.39 -25.02,-159.82z"/>
    <path class="fil3" d="M3762 3228.27c-1.16,0 -2.12,-0.93 -2.15,-2.1 -0.03,-1.18 0.9,-2.18 2.09,-2.21 4.13,-0.12 8.17,-0.16 12.4,-0.18 3.55,0 7.12,0.05 10.67,0.14 1.19,0.02 2.13,1.01 2.1,2.2 -0.02,1.19 -0.88,2.06 -2.21,2.11 -3.61,-0.1 -7.26,-0.18 -10.83,-0.14 -4,0 -8.01,0.07 -12.01,0.18 -0.02,0 -0.04,0 -0.06,0zm68.71 3.48c-0.09,0 -0.18,-0.01 -0.28,-0.02 -7.54,-0.99 -15.18,-1.77 -22.71,-2.35 -1.19,-0.1 -2.08,-1.14 -1.99,-2.32 0.1,-1.19 1.15,-2.08 2.31,-1.99 7.62,0.59 15.34,1.39 22.95,2.39 1.18,0.15 2.01,1.23 1.86,2.41 -0.14,1.09 -1.07,1.88 -2.14,1.88zm-114.43 0.24c-1.06,0 -1.99,-0.79 -2.13,-1.87 -0.16,-1.18 0.66,-2.27 1.84,-2.42 7.58,-1.03 15.3,-1.86 22.94,-2.48 1.2,-0.1 2.22,0.78 2.31,1.97 0.1,1.18 -0.78,2.22 -1.97,2.32 -7.56,0.61 -15.2,1.44 -22.7,2.46 -0.1,0.01 -0.2,0.02 -0.29,0.02zm159.56 8.05c-0.17,0 -0.33,-0.02 -0.51,-0.06 -7.37,-1.75 -14.89,-3.33 -22.34,-4.71 -1.17,-0.21 -1.95,-1.34 -1.73,-2.5 0.22,-1.18 1.35,-1.96 2.51,-1.73 7.53,1.38 15.12,2.98 22.56,4.75 1.16,0.28 1.88,1.44 1.6,2.6 -0.24,0.99 -1.12,1.65 -2.09,1.65zm-204.64 0.48c-0.97,0 -1.85,-0.66 -2.09,-1.65 -0.28,-1.15 0.42,-2.32 1.58,-2.6 7.41,-1.81 15,-3.45 22.54,-4.88 1.16,-0.21 2.3,0.54 2.52,1.71 0.22,1.17 -0.55,2.3 -1.72,2.52 -7.46,1.42 -14.97,3.05 -22.32,4.84 -0.17,0.03 -0.34,0.06 -0.51,0.06zm248.64 12.48c-0.25,0 -0.49,-0.04 -0.72,-0.13 -7.13,-2.51 -14.44,-4.86 -21.73,-7.01 -1.14,-0.34 -1.79,-1.54 -1.46,-2.67 0.34,-1.14 1.52,-1.81 2.68,-1.46 7.35,2.16 14.74,4.54 21.94,7.08 1.12,0.4 1.71,1.63 1.32,2.75 -0.32,0.88 -1.15,1.44 -2.03,1.44zm-1299.15 69.12c-0.74,0 -1.46,-0.39 -1.86,-1.08 -0.6,-1.02 -0.26,-2.34 0.77,-2.94 6.59,-3.84 13.38,-7.59 20.2,-11.1 1.06,-0.56 2.35,-0.14 2.9,0.92 0.55,1.06 0.13,2.36 -0.92,2.9 -6.75,3.49 -13.48,7.19 -20.01,11 -0.34,0.2 -0.71,0.3 -1.08,0.3zm-38.34 25.17c-0.66,0 -1.31,-0.31 -1.74,-0.88 -0.7,-0.96 -0.5,-2.31 0.46,-3.01 6.15,-4.52 12.52,-8.95 18.94,-13.16 0.98,-0.65 2.33,-0.38 2.98,0.62 0.65,0.99 0.37,2.33 -0.62,2.99 -6.35,4.16 -12.66,8.55 -18.75,13.02 -0.38,0.28 -0.83,0.42 -1.27,0.42zm-35.51 29.07c-0.58,0 -1.17,-0.24 -1.59,-0.7 -0.8,-0.88 -0.74,-2.25 0.14,-3.04 5.68,-5.18 11.55,-10.25 17.46,-15.1 0.92,-0.75 2.28,-0.62 3.03,0.31 0.76,0.92 0.62,2.27 -0.3,3.03 -5.85,4.78 -11.67,9.82 -17.29,14.94 -0.41,0.38 -0.93,0.56 -1.45,0.56zm-32.24 32.67c-0.51,0 -1.03,-0.18 -1.43,-0.54 -0.9,-0.79 -0.98,-2.15 -0.18,-3.04 5.09,-5.75 10.4,-11.41 15.76,-16.84 0.84,-0.85 2.2,-0.86 3.05,-0.02 0.85,0.83 0.86,2.2 0.02,3.05 -5.3,5.37 -10.55,10.98 -15.61,16.67 -0.43,0.48 -1.02,0.72 -1.61,0.72zm898.62 10.54c-0.41,0 -0.83,-0.12 -1.21,-0.37 -0.98,-0.67 -1.24,-2.01 -0.57,-2.99 4.27,-6.31 8.8,-12.62 13.43,-18.73 0.71,-0.95 2.06,-1.15 3.02,-0.42 0.95,0.72 1.13,2.07 0.41,3.02 -4.58,6.05 -9.06,12.29 -13.29,18.54 -0.42,0.62 -1.1,0.95 -1.79,0.95zm-927.23 25.35c-0.43,0 -0.87,-0.13 -1.25,-0.41 -0.97,-0.69 -1.19,-2.03 -0.51,-3 4.45,-6.22 9.12,-12.42 13.9,-18.41 0.75,-0.93 2.1,-1.08 3.03,-0.34 0.93,0.74 1.08,2.1 0.34,3.03 -4.73,5.93 -9.36,12.06 -13.76,18.22 -0.42,0.6 -1.08,0.91 -1.75,0.91zm903.52 13.91c-0.34,0 -0.69,-0.08 -1.01,-0.25 -1.06,-0.56 -1.45,-1.87 -0.89,-2.92 3.61,-6.75 7.44,-13.5 11.39,-20.04 0.62,-1.02 1.94,-1.35 2.96,-0.73 1.02,0.61 1.35,1.94 0.73,2.96 -3.91,6.47 -7.71,13.15 -11.28,19.84 -0.39,0.73 -1.13,1.14 -1.9,1.14zm-928.19 24.78c-0.36,0 -0.73,-0.09 -1.06,-0.28 -1.03,-0.59 -1.4,-1.9 -0.81,-2.94 3.78,-6.68 7.78,-13.33 11.87,-19.77 0.64,-1 1.97,-1.29 2.98,-0.65 1.01,0.64 1.3,1.97 0.66,2.97 -4.06,6.37 -8.02,12.96 -11.76,19.58 -0.4,0.69 -1.13,1.09 -1.88,1.09zm909.49 17.04c-0.23,0 -0.47,-0.04 -0.7,-0.12 -1.13,-0.39 -1.73,-1.61 -1.34,-2.74l3.88 -11.28c1.54,-3.53 3.07,-6.89 4.62,-10.23 0.52,-1.08 1.79,-1.55 2.87,-1.04 1.08,0.5 1.55,1.79 1.04,2.86 -1.55,3.31 -3.06,6.64 -4.52,9.98l-3.81 11.12c-0.31,0.89 -1.15,1.45 -2.04,1.45zm-929.96 24.01c-0.29,0 -0.58,-0.06 -0.86,-0.18 -1.09,-0.47 -1.59,-1.74 -1.12,-2.84 3.07,-7.03 6.34,-14.06 9.75,-20.89 0.53,-1.06 1.83,-1.5 2.89,-0.97 1.06,0.53 1.5,1.82 0.97,2.89 -3.37,6.76 -6.62,13.73 -9.66,20.69 -0.35,0.82 -1.14,1.3 -1.97,1.3zm915.03 19.38c-0.24,0 -0.47,-0.03 -0.7,-0.12 -1.13,-0.38 -1.73,-1.61 -1.34,-2.73l7.46 -21.7c0.39,-1.13 1.63,-1.72 2.74,-1.34 1.13,0.39 1.73,1.62 1.34,2.74l-7.47 21.7c-0.3,0.89 -1.14,1.45 -2.03,1.45zm-931.11 23.58c-0.22,0 -0.44,-0.04 -0.65,-0.1 -1.14,-0.36 -1.77,-1.57 -1.41,-2.7 2.31,-7.3 4.83,-14.64 7.52,-21.8 0.41,-1.12 1.67,-1.68 2.77,-1.27 1.11,0.42 1.68,1.66 1.26,2.77 -2.66,7.11 -5.15,14.36 -7.44,21.59 -0.29,0.92 -1.14,1.51 -2.05,1.51zm916.18 19.82c-0.24,0 -0.47,-0.03 -0.7,-0.12 -1.13,-0.39 -1.73,-1.61 -1.34,-2.74l7.46 -21.7c0.39,-1.12 1.62,-1.73 2.74,-1.33 1.13,0.39 1.73,1.61 1.34,2.74l-7.47 21.7c-0.3,0.89 -1.14,1.45 -2.03,1.45zm-927.69 24.58c-0.15,0 -0.29,-0.01 -0.44,-0.04 -1.16,-0.24 -1.91,-1.38 -1.68,-2.55 1.53,-7.48 3.28,-15.04 5.2,-22.46 0.3,-1.16 1.47,-1.84 2.63,-1.55 1.15,0.3 1.84,1.48 1.54,2.63 -1.9,7.34 -3.63,14.83 -5.15,22.25 -0.2,1.02 -1.1,1.72 -2.1,1.72zm912.75 18.81c-0.23,0 -0.46,-0.03 -0.7,-0.11 -1.12,-0.39 -1.72,-1.61 -1.33,-2.74l7.46 -21.7c0.39,-1.13 1.62,-1.73 2.74,-1.34 1.13,0.39 1.73,1.61 1.34,2.74l-7.47 21.71c-0.3,0.89 -1.14,1.44 -2.04,1.44zm-919.56 26.53c-0.07,0 -0.14,0 -0.21,0 -1.19,-0.12 -2.05,-1.18 -1.94,-2.36 0.74,-7.6 1.69,-15.3 2.83,-22.88 0.18,-1.18 1.27,-2 2.45,-1.81 1.18,0.18 1.98,1.27 1.81,2.45 -1.13,7.51 -2.07,15.13 -2.8,22.66 -0.11,1.11 -1.05,1.94 -2.14,1.94zm904.63 16.87c-0.23,0 -0.46,-0.04 -0.7,-0.12 -1.12,-0.39 -1.72,-1.61 -1.33,-2.74l7.46 -21.69c0.39,-1.13 1.62,-1.72 2.74,-1.34 1.12,0.39 1.72,1.6 1.34,2.74l-7.47 21.7c-0.3,0.89 -1.14,1.45 -2.04,1.45zm-906.66 28.95c-1.19,0 -2.15,-0.95 -2.16,-2.14l-0.02 -3.7c0,-6.41 0.15,-12.92 0.43,-19.34 0.06,-1.19 1.06,-2.07 2.25,-2.06 1.19,0.06 2.11,1.06 2.06,2.25 -0.28,6.37 -0.43,12.81 -0.43,19.15l0.02 3.67c0.01,1.19 -0.95,2.16 -2.14,2.17 0,0 -0.01,0 -0.01,0zm891.73 14.45c-0.23,0 -0.46,-0.04 -0.7,-0.11 -1.13,-0.39 -1.72,-1.61 -1.33,-2.74l7.46 -21.7c0.39,-1.12 1.61,-1.71 2.74,-1.33 1.12,0.38 1.72,1.61 1.34,2.73l-7.47 21.7c-0.3,0.9 -1.14,1.45 -2.04,1.45zm-888.93 31.34c-1.08,0 -2.01,-0.81 -2.13,-1.91 -0.88,-7.63 -1.56,-15.36 -2.03,-22.98 -0.07,-1.18 0.84,-2.21 2.02,-2.28 1.13,-0.13 2.21,0.83 2.29,2.02 0.46,7.55 1.13,15.2 2,22.75 0.13,1.18 -0.72,2.25 -1.9,2.38 -0.08,0.01 -0.16,0.02 -0.25,0.02zm874.01 12.06c-0.23,0 -0.46,-0.04 -0.7,-0.12 -1.13,-0.39 -1.72,-1.61 -1.33,-2.74l7.46 -21.7c0.39,-1.12 1.62,-1.7 2.74,-1.33 1.12,0.38 1.72,1.6 1.34,2.74l-7.47 21.7c-0.3,0.89 -1.14,1.45 -2.04,1.45zm-866.38 33.16c-0.99,0 -1.88,-0.67 -2.1,-1.68 -1.68,-7.51 -3.17,-15.12 -4.43,-22.63 -0.19,-1.17 0.6,-2.28 1.77,-2.49 1.2,-0.15 2.29,0.61 2.48,1.77 1.26,7.44 2.73,14.98 4.39,22.41 0.26,1.16 -0.48,2.31 -1.64,2.57 -0.16,0.04 -0.31,0.05 -0.47,0.05zm851.45 10.23c-0.23,0 -0.47,-0.04 -0.7,-0.11 -1.12,-0.39 -1.72,-1.61 -1.34,-2.74l7.47 -21.7c0.39,-1.12 1.62,-1.71 2.74,-1.34 1.12,0.39 1.72,1.62 1.33,2.74l-7.46 21.7c-0.31,0.89 -1.15,1.45 -2.04,1.45zm-839.09 33.92c-0.9,0 -1.74,-0.56 -2.04,-1.46 -2.44,-7.22 -4.72,-14.63 -6.8,-22.03 -0.32,-1.15 0.35,-2.34 1.5,-2.65 1.15,-0.3 2.33,0.35 2.65,1.48 2.06,7.34 4.31,14.67 6.73,21.82 0.38,1.12 -0.22,2.35 -1.35,2.73 -0.23,0.08 -0.47,0.11 -0.69,0.11zm821.27 8.37c-0.28,0 -0.56,-0.05 -0.84,-0.17 -1.1,-0.46 -1.61,-1.73 -1.14,-2.82l8.97 -21.12c0.47,-1.09 1.74,-1.61 2.83,-1.14 1.1,0.46 1.6,1.73 1.14,2.82l-8.98 21.12c-0.34,0.82 -1.14,1.31 -1.98,1.31zm-804.34 34.27c-0.82,0 -1.6,-0.47 -1.96,-1.26 -3.21,-6.98 -6.25,-14.11 -9.07,-21.19 -0.44,-1.11 0.1,-2.37 1.21,-2.81 1.1,-0.42 2.36,0.1 2.8,1.21 2.79,7.02 5.8,14.08 8.98,21 0.49,1.08 0.02,2.36 -1.06,2.85 -0.29,0.13 -0.6,0.2 -0.9,0.2zm786.4 7.99c-0.28,0 -0.57,-0.06 -0.85,-0.18 -1.09,-0.47 -1.6,-1.73 -1.13,-2.83l8.97 -21.12c0.47,-1.1 1.73,-1.61 2.83,-1.14 1.1,0.47 1.61,1.73 1.14,2.82l-8.98 21.13c-0.34,0.82 -1.15,1.32 -1.98,1.32zm-765.15 32.66c-0.74,0 -1.46,-0.38 -1.86,-1.07 -3.87,-6.56 -7.65,-13.34 -11.2,-20.14 -0.55,-1.06 -0.14,-2.36 0.91,-2.91 1.06,-0.55 2.36,-0.14 2.91,0.91 3.52,6.74 7.26,13.45 11.09,19.96 0.61,1.02 0.27,2.34 -0.76,2.95 -0.34,0.2 -0.72,0.3 -1.09,0.3zm746.44 9.18c-0.39,0 -0.78,-0.1 -1.14,-0.32 -1.01,-0.63 -1.32,-1.96 -0.68,-2.97 1.01,-1.62 2.01,-3.24 3,-4.87l6.58 -15.56c0.46,-1.1 1.72,-1.61 2.82,-1.14 1.1,0.46 1.61,1.73 1.15,2.82l-6.73 15.84c-1.14,1.92 -2.15,3.55 -3.17,5.19 -0.41,0.66 -1.11,1.01 -1.83,1.01zm-721.09 29.05c-0.66,0 -1.31,-0.31 -1.73,-0.87 -4.57,-6.18 -9.03,-12.52 -13.24,-18.87 -0.66,-1 -0.39,-2.34 0.6,-2.99 0.99,-0.65 2.33,-0.39 2.99,0.61 4.17,6.28 8.58,12.57 13.11,18.68 0.71,0.95 0.51,2.31 -0.45,3.01 -0.38,0.29 -0.83,0.43 -1.28,0.43zm694.78 8.55c-0.46,0 -0.93,-0.15 -1.32,-0.46 -0.93,-0.73 -1.1,-2.08 -0.37,-3.02 4.66,-5.96 9.23,-12.14 13.58,-18.35 0.68,-0.99 2.02,-1.23 3,-0.54 0.97,0.68 1.21,2.02 0.53,3 -4.39,6.28 -9.01,12.52 -13.72,18.54 -0.42,0.54 -1.05,0.83 -1.7,0.83zm-665.54 26.81c-0.57,0 -1.16,-0.24 -1.58,-0.7 -5.17,-5.61 -10.27,-11.47 -15.17,-17.38 -0.76,-0.92 -0.63,-2.28 0.29,-3.04 0.91,-0.75 2.27,-0.64 3.03,0.28 4.84,5.87 9.91,11.66 15.02,17.22 0.81,0.88 0.75,2.24 -0.13,3.05 -0.41,0.38 -0.93,0.57 -1.46,0.57zm635.44 7.79c-0.54,0 -1.08,-0.2 -1.5,-0.6 -0.86,-0.83 -0.88,-2.19 -0.06,-3.04 5.3,-5.47 10.49,-11.13 15.45,-16.83 0.78,-0.89 2.15,-0.98 3.04,-0.21 0.9,0.78 0.99,2.15 0.21,3.04 -5,5.75 -10.24,11.47 -15.6,16.99 -0.42,0.44 -0.98,0.65 -1.54,0.65zm-602.6 24.3c-0.51,0 -1.02,-0.18 -1.43,-0.54 -5.77,-5.07 -11.46,-10.35 -16.91,-15.69 -0.85,-0.83 -0.87,-2.2 -0.04,-3.05 0.83,-0.85 2.2,-0.86 3.05,-0.03 5.4,5.28 11.04,10.51 16.75,15.54 0.89,0.79 0.98,2.15 0.2,3.04 -0.43,0.49 -1.02,0.73 -1.62,0.73zm568.98 6.94c-0.61,0 -1.23,-0.26 -1.65,-0.77 -0.77,-0.91 -0.65,-2.27 0.27,-3.03 5.84,-4.88 11.6,-9.96 17.13,-15.11 0.87,-0.81 2.24,-0.77 3.04,0.11 0.81,0.88 0.76,2.24 -0.1,3.05 -5.6,5.19 -11.41,10.32 -17.31,15.25 -0.4,0.34 -0.89,0.5 -1.38,0.5zm-532.96 21.5c-0.43,0 -0.86,-0.13 -1.24,-0.4 -6.27,-4.43 -12.49,-9.09 -18.47,-13.81 -0.94,-0.74 -1.1,-2.09 -0.36,-3.03 0.74,-0.93 2.1,-1.08 3.03,-0.35 5.92,4.68 12.08,9.29 18.29,13.68 0.97,0.68 1.2,2.03 0.51,3.01 -0.42,0.59 -1.08,0.9 -1.76,0.9zm496.24 6.03c-0.7,0 -1.37,-0.34 -1.79,-0.95 -0.66,-0.99 -0.4,-2.33 0.59,-3 6.35,-4.25 12.62,-8.7 18.63,-13.21 0.95,-0.71 2.3,-0.51 3.01,0.43 0.72,0.96 0.52,2.31 -0.42,3.02 -6.07,4.55 -12.41,9.05 -18.82,13.34 -0.37,0.25 -0.79,0.37 -1.2,0.37zm-457.43 18.44c-0.36,0 -0.72,-0.08 -1.05,-0.27 -6.68,-3.74 -13.35,-7.71 -19.82,-11.78 -1,-0.63 -1.31,-1.97 -0.68,-2.98 0.64,-1 1.96,-1.3 2.98,-0.67 6.4,4.03 13,7.97 19.63,11.67 1.04,0.59 1.41,1.9 0.83,2.94 -0.4,0.7 -1.13,1.09 -1.89,1.09zm418.02 5.09c-0.77,0 -1.51,-0.42 -1.9,-1.15 -0.56,-1.06 -0.16,-2.35 0.89,-2.91 6.71,-3.55 13.42,-7.32 19.92,-11.2 1.02,-0.62 2.34,-0.27 2.95,0.74 0.61,1.03 0.28,2.35 -0.74,2.96 -6.57,3.92 -13.33,7.73 -20.11,11.3 -0.32,0.18 -0.67,0.26 -1.01,0.26zm-376.86 15.19c-0.28,0 -0.57,-0.05 -0.85,-0.17 -7.08,-3.05 -14.12,-6.29 -20.94,-9.66 -1.07,-0.52 -1.51,-1.82 -0.98,-2.88 0.52,-1.07 1.8,-1.51 2.88,-0.98 6.76,3.32 13.73,6.54 20.74,9.56 1.1,0.47 1.6,1.74 1.13,2.83 -0.35,0.81 -1.14,1.3 -1.98,1.3zm335.25 4.13c-0.85,0 -1.66,-0.51 -1.99,-1.36 -0.45,-1.09 0.08,-2.35 1.19,-2.79 7.03,-2.84 14.08,-5.89 20.94,-9.08 1.07,-0.52 2.36,-0.04 2.87,1.04 0.5,1.09 0.02,2.37 -1.05,2.86 -6.94,3.23 -14.05,6.31 -21.15,9.17 -0.26,0.1 -0.54,0.16 -0.81,0.16zm-292.22 11.74c-0.2,0 -0.42,-0.03 -0.64,-0.1 -7.28,-2.26 -14.63,-4.75 -21.83,-7.41 -1.12,-0.41 -1.68,-1.65 -1.28,-2.77 0.42,-1.11 1.65,-1.67 2.77,-1.27 7.13,2.63 14.41,5.09 21.62,7.34 1.14,0.35 1.78,1.55 1.42,2.7 -0.28,0.92 -1.14,1.51 -2.06,1.51zm248.83 3.13c-0.94,0 -1.8,-0.61 -2.07,-1.56 -0.33,-1.15 0.34,-2.34 1.48,-2.66 7.3,-2.09 14.63,-4.38 21.78,-6.83 1.13,-0.39 2.35,0.2 2.74,1.34 0.39,1.12 -0.22,2.35 -1.34,2.73 -7.23,2.48 -14.62,4.79 -22,6.9 -0.2,0.05 -0.39,0.08 -0.59,0.08zm-204.37 8.17c-0.14,0 -0.28,-0.01 -0.42,-0.04 -7.48,-1.49 -15.05,-3.21 -22.49,-5.09 -1.15,-0.29 -1.85,-1.46 -1.56,-2.62 0.3,-1.15 1.49,-1.85 2.62,-1.55 7.37,1.87 14.86,3.56 22.27,5.04 1.17,0.23 1.92,1.36 1.69,2.53 -0.2,1.03 -1.1,1.73 -2.11,1.73zm159.66 2.06c-1.02,0 -1.93,-0.74 -2.12,-1.78 -0.2,-1.18 0.59,-2.3 1.76,-2.5 7.41,-1.29 14.95,-2.8 22.38,-4.49 1.17,-0.28 2.32,0.46 2.58,1.62 0.26,1.16 -0.46,2.32 -1.62,2.58 -7.51,1.72 -15.12,3.24 -22.6,4.53 -0.13,0.03 -0.25,0.04 -0.38,0.04zm-114.28 4.54c-0.07,0 -0.14,-0.01 -0.2,-0.01 -7.63,-0.71 -15.33,-1.62 -22.89,-2.72 -1.18,-0.17 -2,-1.27 -1.82,-2.44 0.17,-1.18 1.3,-2.01 2.44,-1.82 7.48,1.08 15.11,1.99 22.67,2.69 1.18,0.11 2.05,1.15 1.94,2.34 -0.1,1.12 -1.04,1.96 -2.14,1.96zm68.75 0.9c-1.13,0 -2.07,-0.88 -2.15,-2.02 -0.08,-1.18 0.82,-2.21 2.01,-2.29 7.54,-0.5 15.19,-1.21 22.73,-2.11 1.2,-0.15 2.25,0.7 2.4,1.89 0.13,1.18 -0.71,2.25 -1.89,2.39 -7.61,0.91 -15.33,1.63 -22.96,2.13 -0.04,0.01 -0.09,0.01 -0.14,0.01zm-28.69 0.95c-5.76,0 -11.52,-0.12 -17.26,-0.34 -1.19,-0.05 -2.11,-1.06 -2.06,-2.24 0.04,-1.19 1.16,-2.08 2.23,-2.07 7.59,0.3 15.21,0.41 22.83,0.3 0.01,0 0.02,0 0.03,0 1.17,0 2.14,0.94 2.16,2.12 0.01,1.19 -0.94,2.17 -2.13,2.19 -1.94,0.03 -3.86,0.04 -5.79,0.04z"/>
    <path class="fil3" d="M3754.41 3228.51c-1.15,0 -2.1,-0.91 -2.15,-2.07 -0.05,-1.18 0.87,-2.19 2.06,-2.24 6.32,-0.27 12.75,-0.42 19.09,-0.42l3.97 0.02c1.19,0.01 2.14,0.98 2.13,2.18 -0.01,1.18 -0.97,2.13 -2.16,2.13 0,0 -0.01,0 -0.01,0l-3.93 -0.02c-6.28,0 -12.64,0.14 -18.9,0.42 -0.03,0 -0.07,0 -0.1,0zm68.75 2.44c-0.08,0 -0.17,0 -0.25,-0.01 -7.5,-0.86 -15.16,-1.54 -22.75,-2.01 -1.18,-0.08 -2.08,-1.1 -2.01,-2.29 0.07,-1.19 1.01,-2.14 2.28,-2.02 7.67,0.48 15.39,1.17 22.98,2.04 1.18,0.14 2.03,1.2 1.89,2.39 -0.13,1.1 -1.06,1.9 -2.14,1.9zm-114.42 1.97c-1.06,0 -1.97,-0.77 -2.14,-1.84 -0.17,-1.18 0.64,-2.27 1.82,-2.45 7.59,-1.13 15.3,-2.08 22.89,-2.82 1.18,-0.14 2.24,0.76 2.36,1.94 0.11,1.19 -0.76,2.24 -1.94,2.35 -7.52,0.73 -15.15,1.67 -22.67,2.8 -0.11,0.01 -0.22,0.02 -0.32,0.02zm159.66 5.69c-0.16,0 -0.32,-0.02 -0.48,-0.05 -7.36,-1.66 -14.9,-3.14 -22.4,-4.41 -1.18,-0.2 -1.97,-1.31 -1.77,-2.48 0.2,-1.17 1.34,-1.96 2.49,-1.77 7.58,1.29 15.19,2.79 22.63,4.45 1.16,0.27 1.89,1.42 1.63,2.58 -0.23,1 -1.12,1.68 -2.1,1.68zm-204.62 3.45c-0.95,0 -1.82,-0.64 -2.08,-1.61 -0.29,-1.16 0.4,-2.33 1.55,-2.63 7.44,-1.91 14.99,-3.65 22.47,-5.18 1.15,-0.23 2.3,0.52 2.55,1.68 0.23,1.16 -0.52,2.31 -1.69,2.54 -7.4,1.51 -14.89,3.24 -22.25,5.14 -0.18,0.05 -0.36,0.06 -0.55,0.06zm248.79 8.94c-0.23,0 -0.46,-0.03 -0.69,-0.11 -7.17,-2.43 -14.51,-4.69 -21.82,-6.75 -1.15,-0.32 -1.82,-1.51 -1.49,-2.65 0.31,-1.14 1.5,-1.83 2.65,-1.5 7.39,2.08 14.81,4.37 22.03,6.82 1.14,0.38 1.74,1.6 1.36,2.73 -0.31,0.9 -1.15,1.46 -2.04,1.46zm-292.54 4.86c-0.87,0 -1.69,-0.54 -2.02,-1.41 -0.41,-1.11 0.15,-2.35 1.27,-2.77 7.2,-2.68 14.53,-5.2 21.8,-7.49 1.14,-0.38 2.34,0.26 2.71,1.4 0.35,1.13 -0.28,2.34 -1.41,2.7 -7.2,2.27 -14.47,4.77 -21.59,7.43 -0.25,0.1 -0.51,0.14 -0.76,0.14zm335.17 12.1c-0.31,0 -0.61,-0.06 -0.91,-0.2 -6.86,-3.16 -13.93,-6.19 -20.99,-9 -1.11,-0.44 -1.64,-1.7 -1.21,-2.8 0.45,-1.11 1.7,-1.65 2.8,-1.21 7.14,2.85 14.27,5.91 21.21,9.1 1.08,0.49 1.55,1.77 1.06,2.85 -0.37,0.79 -1.15,1.26 -1.96,1.26zm-377.24 6.17c-0.79,0 -1.55,-0.44 -1.93,-1.2 -0.53,-1.06 -0.1,-2.35 0.97,-2.88 6.86,-3.41 13.89,-6.69 20.9,-9.74 1.09,-0.48 2.37,0.02 2.83,1.11 0.48,1.09 -0.02,2.36 -1.11,2.83 -6.95,3.03 -13.9,6.27 -20.7,9.65 -0.31,0.16 -0.63,0.23 -0.96,0.23zm417.88 15.12c-0.38,0 -0.75,-0.1 -1.09,-0.3 -6.52,-3.85 -13.23,-7.6 -19.95,-11.11 -1.05,-0.55 -1.46,-1.85 -0.9,-2.91 0.55,-1.05 1.85,-1.47 2.9,-0.91 6.79,3.55 13.56,7.33 20.14,11.22 1.02,0.61 1.36,1.93 0.75,2.95 -0.39,0.68 -1.11,1.06 -1.85,1.06zm-457.8 7.44c-0.71,0 -1.4,-0.35 -1.81,-0.99 -0.64,-1.01 -0.34,-2.34 0.66,-2.98 6.44,-4.09 13.09,-8.09 19.76,-11.86 1.03,-0.58 2.34,-0.22 2.93,0.82 0.58,1.03 0.22,2.35 -0.81,2.93 -6.61,3.73 -13.19,7.69 -19.56,11.75 -0.37,0.22 -0.77,0.33 -1.17,0.33zm495.99 17.93c-0.45,0 -0.9,-0.13 -1.29,-0.42 -6.1,-4.53 -12.37,-8.95 -18.66,-13.12 -1,-0.66 -1.27,-2 -0.61,-2.99 0.67,-0.99 2.01,-1.26 2.99,-0.6 6.35,4.21 12.7,8.67 18.85,13.25 0.96,0.71 1.16,2.06 0.44,3.02 -0.41,0.56 -1.06,0.86 -1.72,0.86zm-533.3 8.69c-0.64,0 -1.27,-0.27 -1.69,-0.81 -0.75,-0.93 -0.59,-2.29 0.34,-3.03 6,-4.76 12.18,-9.44 18.4,-13.87 0.97,-0.69 2.32,-0.46 3.01,0.51 0.69,0.96 0.46,2.31 -0.51,3 -6.15,4.39 -12.29,9.02 -18.22,13.74 -0.39,0.31 -0.86,0.46 -1.33,0.46zm568.61 20.56c-0.52,0 -1.05,-0.19 -1.46,-0.57 -5.55,-5.11 -11.33,-10.16 -17.18,-15.02 -0.92,-0.75 -1.05,-2.11 -0.29,-3.03 0.76,-0.92 2.11,-1.04 3.03,-0.29 5.92,4.89 11.75,10 17.36,15.17 0.87,0.81 0.93,2.17 0.12,3.04 -0.42,0.47 -1.01,0.7 -1.58,0.7zm-602.92 9.84c-0.55,0 -1.11,-0.21 -1.54,-0.64 -0.83,-0.85 -0.82,-2.21 0.03,-3.05 5.45,-5.37 11.11,-10.66 16.82,-15.73 0.89,-0.79 2.25,-0.71 3.04,0.19 0.79,0.89 0.71,2.25 -0.18,3.04 -5.66,5.01 -11.26,10.25 -16.66,15.57 -0.42,0.42 -0.96,0.62 -1.51,0.62zm634.95 22.98c-0.61,0 -1.2,-0.25 -1.62,-0.73 -5.02,-5.72 -10.23,-11.35 -15.51,-16.74 -0.83,-0.86 -0.81,-2.22 0.04,-3.05 0.84,-0.83 2.2,-0.82 3.05,0.03 5.31,5.45 10.58,11.14 15.66,16.91 0.78,0.9 0.69,2.26 -0.2,3.04 -0.41,0.36 -0.92,0.54 -1.42,0.54zm-665.84 10.86c-0.49,0 -0.97,-0.16 -1.37,-0.5 -0.92,-0.75 -1.05,-2.1 -0.29,-3.02 4.86,-5.94 9.93,-11.8 15.07,-17.41 0.8,-0.88 2.16,-0.94 3.04,-0.14 0.88,0.81 0.94,2.17 0.14,3.05 -5.07,5.55 -10.1,11.36 -14.93,17.23 -0.42,0.52 -1.04,0.79 -1.66,0.79zm694.24 25.15c-0.68,0 -1.34,-0.32 -1.77,-0.92 -4.35,-6.17 -8.96,-12.32 -13.65,-18.28 -0.74,-0.93 -0.58,-2.29 0.36,-3.03 0.93,-0.73 2.29,-0.58 3.02,0.36 4.74,6.01 9.39,12.23 13.8,18.47 0.69,0.97 0.46,2.32 -0.52,3 -0.38,0.27 -0.81,0.4 -1.24,0.4zm24.44 38.8c-0.75,0 -1.48,-0.4 -1.87,-1.1 -3.72,-6.66 -7.65,-13.26 -11.67,-19.63 -0.63,-1 -0.33,-2.34 0.68,-2.97 1,-0.64 2.33,-0.34 2.97,0.67 4.06,6.43 8.03,13.11 11.77,19.82 0.58,1.04 0.21,2.35 -0.83,2.93 -0.33,0.19 -0.69,0.28 -1.05,0.28zm20 41.25c-0.89,0 -1.73,-0.56 -2.03,-1.45l-1.17 -3.37c-2.53,-5.75 -5.26,-11.63 -8.07,-17.32 -0.52,-1.06 -0.08,-2.35 0.98,-2.88 1.08,-0.52 2.37,-0.08 2.89,0.98 2.84,5.74 5.59,11.68 8.22,17.66l1.22 3.53c0.39,1.12 -0.21,2.35 -1.33,2.74 -0.23,0.08 -0.48,0.11 -0.71,0.11zm14.94 43.4c-0.9,0 -1.73,-0.57 -2.04,-1.46l-7.47 -21.7c-0.39,-1.12 0.21,-2.35 1.34,-2.74 1.12,-0.4 2.35,0.21 2.73,1.34l7.47 21.7c0.39,1.13 -0.2,2.35 -1.33,2.74 -0.23,0.08 -0.47,0.12 -0.7,0.12zm14.92 43.39c-0.89,0 -1.73,-0.56 -2.03,-1.45l-7.47 -21.7c-0.39,-1.13 0.22,-2.35 1.34,-2.74 1.13,-0.41 2.35,0.21 2.74,1.34l7.46 21.7c0.39,1.12 -0.21,2.35 -1.34,2.74 -0.23,0.08 -0.47,0.11 -0.7,0.11zm14.94 43.4c-0.9,0 -1.73,-0.57 -2.04,-1.46l-7.47 -21.7c-0.39,-1.12 0.21,-2.35 1.34,-2.74 1.12,-0.41 2.35,0.21 2.73,1.34l7.47 21.7c0.39,1.13 -0.21,2.35 -1.33,2.74 -0.23,0.08 -0.47,0.12 -0.7,0.12zm14.92 43.39c-0.89,0 -1.73,-0.56 -2.03,-1.45l-7.47 -21.7c-0.38,-1.13 0.22,-2.35 1.34,-2.74 1.11,-0.38 2.35,0.21 2.74,1.34l7.46 21.7c0.39,1.12 -0.21,2.35 -1.34,2.73 -0.22,0.08 -0.47,0.12 -0.7,0.12zm14.94 43.4c-0.9,0 -1.73,-0.56 -2.04,-1.45l-7.47 -21.71c-0.38,-1.13 0.22,-2.35 1.34,-2.74 1.12,-0.4 2.35,0.22 2.74,1.34l7.46 21.7c0.39,1.13 -0.21,2.35 -1.33,2.74 -0.23,0.08 -0.47,0.12 -0.7,0.12zm14.93 43.39c-0.89,0 -1.72,-0.56 -2.03,-1.45l-7.48 -21.7c-0.38,-1.13 0.21,-2.35 1.34,-2.74 1.12,-0.38 2.35,0.21 2.74,1.34l7.47 21.7c0.38,1.12 -0.21,2.35 -1.34,2.73 -0.23,0.08 -0.47,0.12 -0.7,0.12zm14.93 43.39c-0.89,0 -1.73,-0.55 -2.04,-1.45l-7.46 -21.7c-0.39,-1.13 0.21,-2.35 1.33,-2.74 1.12,-0.38 2.35,0.21 2.74,1.34l7.46 21.7c0.39,1.13 -0.21,2.35 -1.33,2.74 -0.23,0.07 -0.47,0.11 -0.7,0.11zm17.27 42.51c-0.84,0 -1.64,-0.5 -1.98,-1.31l-8.98 -21.13c-0.46,-1.09 0.05,-2.36 1.14,-2.82 1.1,-0.46 2.36,0.05 2.83,1.14l8.96 21.12c0.47,1.1 -0.03,2.37 -1.13,2.83 -0.28,0.12 -0.57,0.17 -0.84,0.17zm17.99 42.22c-0.82,0 -1.61,-0.47 -1.96,-1.27 -0.95,-2.13 -1.88,-4.25 -2.78,-6.39l-6.27 -14.75c-0.46,-1.1 0.05,-2.36 1.15,-2.83 1.08,-0.47 2.35,0.05 2.82,1.14l6.26 14.75c0.91,2.12 1.82,4.22 2.75,6.33 0.49,1.08 -0.01,2.36 -1.09,2.84 -0.29,0.12 -0.59,0.18 -0.88,0.18zm20.72 40.93c-0.75,0 -1.47,-0.39 -1.87,-1.09 -3.81,-6.64 -7.49,-13.47 -10.94,-20.29 -0.53,-1.06 -0.11,-2.36 0.95,-2.9 1.05,-0.52 2.36,-0.11 2.9,0.95 3.41,6.76 7.06,13.52 10.83,20.1 0.59,1.03 0.23,2.35 -0.8,2.94 -0.33,0.2 -0.71,0.29 -1.07,0.29zm196.47 175.08c-0.28,0 -0.57,-0.06 -0.84,-0.16 -7.02,-2.99 -14.08,-6.18 -20.98,-9.54 -1.07,-0.52 -1.52,-1.81 -1,-2.88 0.52,-1.07 1.82,-1.53 2.88,-0.99 6.83,3.31 13.82,6.49 20.78,9.43 1.09,0.47 1.6,1.73 1.15,2.83 -0.35,0.82 -1.15,1.31 -1.99,1.31zm297.26 18.61c-0.92,0 -1.77,-0.58 -2.05,-1.49 -0.37,-1.14 0.26,-2.35 1.39,-2.71 7.2,-2.31 14.44,-4.83 21.55,-7.55 1.13,-0.4 2.36,0.15 2.78,1.25 0.42,1.12 -0.13,2.36 -1.24,2.79 -7.19,2.73 -14.51,5.29 -21.78,7.61 -0.22,0.07 -0.43,0.1 -0.65,0.1zm-44.39 11.54c-1.01,0 -1.9,-0.71 -2.11,-1.74 -0.24,-1.16 0.52,-2.29 1.68,-2.53 7.43,-1.51 14.91,-3.24 22.25,-5.13 1.13,-0.28 2.32,0.39 2.62,1.55 0.3,1.15 -0.39,2.32 -1.54,2.62 -7.41,1.92 -14.97,3.66 -22.48,5.18 -0.14,0.03 -0.28,0.05 -0.42,0.05zm-159.59 0.97c-0.12,0 -0.25,-0.01 -0.39,-0.04 -7.52,-1.42 -15.1,-3.06 -22.54,-4.88 -1.15,-0.28 -1.86,-1.45 -1.58,-2.6 0.28,-1.17 1.43,-1.84 2.61,-1.59 7.36,1.81 14.87,3.44 22.31,4.84 1.17,0.22 1.94,1.35 1.72,2.51 -0.2,1.04 -1.11,1.76 -2.13,1.76zm114.22 5.61c-1.11,0 -2.05,-0.85 -2.15,-1.97 -0.11,-1.18 0.77,-2.23 1.95,-2.34 7.53,-0.67 15.16,-1.56 22.67,-2.65 1.15,-0.18 2.27,0.63 2.44,1.82 0.17,1.18 -0.65,2.27 -1.82,2.44 -7.59,1.1 -15.29,2.01 -22.9,2.68 -0.07,0.02 -0.13,0.02 -0.19,0.02zm-68.75 0.42c-0.05,0 -0.1,0 -0.16,0 -7.61,-0.59 -15.33,-1.39 -22.94,-2.41 -1.18,-0.16 -2.01,-1.24 -1.85,-2.42 0.15,-1.18 1.26,-1.99 2.42,-1.85 7.53,1 15.17,1.8 22.7,2.38 1.19,0.08 2.07,1.12 1.98,2.31 -0.08,1.13 -1.03,1.99 -2.15,1.99zm31.87 1.23c-3,0 -5.99,-0.04 -9,-0.1 -1.19,-0.03 -2.14,-1.01 -2.11,-2.2 0.02,-1.19 0.85,-2.15 2.2,-2.11 7.62,0.16 15.23,0.12 22.82,-0.14 1.14,0.03 2.19,0.9 2.23,2.08 0.04,1.19 -0.89,2.19 -2.08,2.23 -4.68,0.15 -9.38,0.24 -14.06,0.24z"/>
    <path class="fil3" d="M5297.52 3382.61c-0.5,0 -1,-0.17 -1.4,-0.51 -0.91,-0.78 -1.01,-2.14 -0.24,-3.04 5.01,-5.87 10.22,-11.62 15.49,-17.1 0.82,-0.86 2.18,-0.89 3.04,-0.06 0.87,0.82 0.89,2.19 0.07,3.05 -5.2,5.42 -10.36,11.11 -15.32,16.91 -0.43,0.5 -1.04,0.75 -1.64,0.75zm-23.82 33.12c-0.42,0 -0.84,-0.12 -1.21,-0.37 -0.98,-0.67 -1.23,-2.01 -0.57,-2.99 4.32,-6.36 8.86,-12.66 13.48,-18.72 0.73,-0.94 2.08,-1.12 3.03,-0.4 0.94,0.72 1.12,2.08 0.4,3.02 -4.58,5.99 -9.07,12.23 -13.34,18.52 -0.42,0.62 -1.1,0.94 -1.79,0.94zm-23.71 39.26c-0.34,0 -0.69,-0.08 -1.02,-0.25 -1.05,-0.56 -1.44,-1.86 -0.88,-2.92 3.61,-6.76 7.45,-13.51 11.4,-20.04 0.61,-1.02 1.93,-1.34 2.95,-0.73 1.02,0.62 1.35,1.94 0.73,2.96 -3.9,6.47 -7.7,13.15 -11.28,19.85 -0.39,0.72 -1.13,1.13 -1.9,1.13zm-19.57 41.5c-0.27,0 -0.54,-0.04 -0.81,-0.16 -1.11,-0.45 -1.63,-1.71 -1.17,-2.81 2.91,-7.08 6.03,-14.17 9.3,-21.09 0.5,-1.08 1.79,-1.54 2.87,-1.04 1.06,0.51 1.53,1.79 1.02,2.87 -3.23,6.85 -6.32,13.89 -9.21,20.9 -0.34,0.83 -1.15,1.33 -2,1.33zm-15.7 43.12c-0.23,0 -0.47,-0.04 -0.7,-0.12 -1.12,-0.38 -1.72,-1.61 -1.33,-2.73l7.49 -21.72c0.4,-1.11 1.63,-1.71 2.75,-1.31 1.12,0.4 1.71,1.63 1.31,2.75l-7.48 21.68c-0.31,0.89 -1.15,1.45 -2.04,1.45zm-14.93 43.4c-0.23,0 -0.47,-0.04 -0.7,-0.12 -1.13,-0.39 -1.72,-1.62 -1.34,-2.74l7.47 -21.7c0.39,-1.12 1.61,-1.74 2.74,-1.34 1.13,0.39 1.72,1.62 1.34,2.74l-7.47 21.7c-0.31,0.89 -1.15,1.46 -2.04,1.46zm-14.93 43.39c-0.23,0 -0.47,-0.04 -0.7,-0.12 -1.12,-0.38 -1.72,-1.61 -1.33,-2.73l7.46 -21.71c0.39,-1.12 1.62,-1.74 2.74,-1.33 1.12,0.38 1.72,1.61 1.33,2.73l-7.46 21.71c-0.31,0.89 -1.15,1.45 -2.04,1.45zm-14.93 43.39c-0.23,0 -0.47,-0.03 -0.7,-0.11 -1.12,-0.39 -1.72,-1.61 -1.34,-2.74l7.47 -21.7c0.38,-1.12 1.61,-1.73 2.73,-1.34 1.13,0.39 1.73,1.61 1.34,2.74l-7.46 21.7c-0.31,0.89 -1.15,1.45 -2.04,1.45zm-14.93 43.4c-0.23,0 -0.47,-0.04 -0.7,-0.12 -1.12,-0.38 -1.73,-1.61 -1.34,-2.73l7.47 -21.71c0.39,-1.12 1.61,-1.72 2.74,-1.34 1.12,0.39 1.72,1.61 1.33,2.74l-7.47 21.71c-0.3,0.89 -1.14,1.45 -2.03,1.45zm-14.93 43.39c-0.23,0 -0.47,-0.04 -0.7,-0.11 -1.12,-0.39 -1.73,-1.61 -1.34,-2.74l7.47 -21.7c0.38,-1.12 1.61,-1.73 2.73,-1.34 1.13,0.39 1.73,1.61 1.34,2.74l-7.46 21.7c-0.31,0.89 -1.15,1.45 -2.04,1.45zm-14.93 43.4c-0.23,0 -0.47,-0.04 -0.7,-0.12 -1.13,-0.38 -1.73,-1.61 -1.34,-2.73l7.46 -21.71c0.39,-1.12 1.62,-1.73 2.74,-1.34 1.12,0.39 1.72,1.61 1.34,2.74l-7.47 21.71c-0.3,0.89 -1.14,1.45 -2.03,1.45zm-17.51 42.41c-0.28,0 -0.57,-0.05 -0.84,-0.18 -1.1,-0.45 -1.61,-1.72 -1.14,-2.82l8.97 -21.12c0.47,-1.09 1.73,-1.61 2.82,-1.14 1.09,0.46 1.61,1.73 1.14,2.82l-8.97 21.13c-0.35,0.81 -1.14,1.31 -1.98,1.31zm-18.05 42.19c-0.3,0 -0.61,-0.06 -0.89,-0.19 -1.09,-0.49 -1.57,-1.76 -1.08,-2.84 1.45,-3.21 2.87,-6.43 4.22,-9.67l4.84 -11.36c0.46,-1.1 1.73,-1.62 2.82,-1.14 1.1,0.46 1.6,1.72 1.14,2.82l-4.82 11.36c-1.4,3.28 -2.82,6.53 -4.27,9.76 -0.36,0.79 -1.15,1.26 -1.96,1.26zm-759.43 29.03c-0.74,0 -1.46,-0.39 -1.86,-1.08 -3.82,-6.58 -7.55,-13.38 -11.07,-20.22 -0.55,-1.05 -0.14,-2.35 0.92,-2.89 1.04,-0.54 2.36,-0.14 2.9,0.92 3.49,6.77 7.2,13.51 10.98,20.03 0.59,1.03 0.24,2.35 -0.79,2.94 -0.33,0.2 -0.71,0.3 -1.08,0.3zm738.36 11.73c-0.37,0 -0.75,-0.09 -1.09,-0.29 -1.03,-0.61 -1.38,-1.93 -0.77,-2.95 3.83,-6.58 7.54,-13.3 10.99,-20.01 0.55,-1.06 1.86,-1.47 2.9,-0.93 1.06,0.54 1.48,1.84 0.93,2.9 -3.49,6.78 -7.23,13.58 -11.1,20.21 -0.4,0.69 -1.12,1.07 -1.86,1.07zm-713.4 26.74c-0.66,0 -1.32,-0.31 -1.74,-0.9 -4.5,-6.23 -8.89,-12.64 -13.02,-19.01 -0.65,-1 -0.37,-2.33 0.63,-2.98 1,-0.64 2.34,-0.37 2.98,0.64 4.1,6.31 8.45,12.65 12.9,18.83 0.7,0.97 0.48,2.31 -0.48,3.01 -0.38,0.27 -0.83,0.41 -1.27,0.41zm688.23 11.59c-0.45,0 -0.89,-0.13 -1.28,-0.42 -0.96,-0.7 -1.16,-2.05 -0.46,-3.01 4.51,-6.13 8.9,-12.44 13.02,-18.74 0.65,-1.01 1.99,-1.29 2.98,-0.63 1,0.65 1.28,1.99 0.63,2.98 -4.17,6.38 -8.6,12.75 -13.16,18.94 -0.42,0.58 -1.07,0.88 -1.73,0.88zm-659.53 24.19c-0.59,0 -1.18,-0.25 -1.61,-0.73 -5.08,-5.72 -10.08,-11.64 -14.87,-17.61 -0.74,-0.93 -0.6,-2.28 0.33,-3.03 0.93,-0.74 2.28,-0.6 3.03,0.34 4.73,5.91 9.7,11.77 14.73,17.44 0.79,0.89 0.71,2.25 -0.18,3.04 -0.4,0.37 -0.92,0.55 -1.43,0.55zm630.44 11.27c-0.52,0 -1.04,-0.19 -1.45,-0.57 -0.88,-0.81 -0.94,-2.17 -0.14,-3.04 5.09,-5.58 10.12,-11.38 14.95,-17.26 0.76,-0.91 2.12,-1.04 3.04,-0.29 0.92,0.76 1.05,2.11 0.29,3.04 -4.87,5.93 -9.94,11.79 -15.1,17.42 -0.42,0.46 -1.01,0.7 -1.59,0.7zm-598.21 21.45c-0.52,0 -1.04,-0.18 -1.45,-0.57 -5.65,-5.17 -11.23,-10.55 -16.61,-16.03 -0.83,-0.84 -0.82,-2.2 0.03,-3.04 0.84,-0.83 2.21,-0.83 3.05,0.03 5.32,5.4 10.85,10.73 16.44,15.87 0.89,0.8 0.94,2.16 0.14,3.04 -0.42,0.46 -1,0.7 -1.59,0.7zm565.45 10.64c-0.61,0 -1.2,-0.24 -1.62,-0.73 -0.79,-0.89 -0.7,-2.26 0.2,-3.04 5.67,-4.98 11.3,-10.2 16.72,-15.52 0.85,-0.83 2.22,-0.83 3.05,0.03 0.84,0.85 0.82,2.21 -0.03,3.04 -5.48,5.37 -11.17,10.65 -16.9,15.69 -0.41,0.36 -0.92,0.53 -1.42,0.53zm-530.05 18.57c-0.45,0 -0.9,-0.15 -1.28,-0.43 -6.13,-4.53 -12.24,-9.33 -18.16,-14.22 -0.93,-0.76 -1.05,-2.11 -0.29,-3.03 0.76,-0.91 2.11,-1.05 3.03,-0.29 5.86,4.84 11.91,9.59 17.99,14.08 0.95,0.71 1.15,2.05 0.45,3.01 -0.43,0.57 -1.08,0.88 -1.74,0.88zm493.93 9.72c-0.68,0 -1.36,-0.32 -1.78,-0.93 -0.67,-0.97 -0.43,-2.31 0.55,-3 6.17,-4.3 12.35,-8.86 18.34,-13.56 0.95,-0.74 2.3,-0.57 3.03,0.37 0.74,0.94 0.57,2.29 -0.37,3.02 -6.06,4.75 -12.3,9.37 -18.55,13.71 -0.37,0.27 -0.8,0.39 -1.22,0.39zm-455.69 15.66c-0.37,0 -0.75,-0.09 -1.09,-0.29 -6.62,-3.9 -13.19,-8.03 -19.55,-12.25 -0.99,-0.65 -1.26,-2 -0.61,-2.98 0.66,-1 2.01,-1.26 2.99,-0.61 6.3,4.18 12.81,8.27 19.36,12.12 1.02,0.61 1.36,1.93 0.76,2.96 -0.41,0.68 -1.12,1.05 -1.86,1.05zm416.6 8.36c-0.76,0 -1.5,-0.41 -1.9,-1.13 -0.56,-1.04 -0.17,-2.35 0.88,-2.92l3.96 -2.17c5.28,-2.93 10.6,-6.02 15.81,-9.22 1.02,-0.62 2.35,-0.31 2.97,0.71 0.62,1.01 0.3,2.34 -0.71,2.96 -5.26,3.24 -10.64,6.36 -15.99,9.32l-3.99 2.2c-0.33,0.17 -0.68,0.25 -1.03,0.25zm-41.44 19.65c-0.85,0 -1.65,-0.5 -1.99,-1.33 -0.46,-1.1 0.07,-2.36 1.17,-2.81 6.93,-2.85 13.95,-5.95 20.88,-9.23 1.07,-0.52 2.35,-0.06 2.86,1.03 0.51,1.07 0.06,2.35 -1.02,2.86 -6.99,3.31 -14.08,6.44 -21.08,9.32 -0.27,0.12 -0.54,0.16 -0.82,0.16zm-288.43 12.39c-0.23,0 -0.46,-0.04 -0.68,-0.12 -7.21,-2.39 -14.51,-5.03 -21.69,-7.86 -1.11,-0.43 -1.65,-1.68 -1.22,-2.79 0.44,-1.12 1.69,-1.67 2.8,-1.21 7.1,2.79 14.33,5.41 21.46,7.78 1.13,0.37 1.74,1.59 1.37,2.72 -0.3,0.9 -1.14,1.48 -2.04,1.48zm245.14 2.75c-0.94,0 -1.8,-0.61 -2.07,-1.56 -0.33,-1.14 0.32,-2.33 1.47,-2.66 7.27,-2.11 14.57,-4.44 21.74,-6.95 1.13,-0.38 2.36,0.2 2.74,1.32 0.39,1.12 -0.19,2.36 -1.31,2.75 -7.24,2.53 -14.63,4.88 -21.97,7.01 -0.2,0.06 -0.41,0.09 -0.6,0.09zm-44.68 10.33c-1.03,0 -1.94,-0.74 -2.12,-1.79 -0.2,-1.17 0.58,-2.29 1.75,-2.49 7.44,-1.3 14.97,-2.82 22.37,-4.53 1.23,-0.27 2.32,0.46 2.59,1.61 0.27,1.16 -0.46,2.32 -1.61,2.59 -7.49,1.73 -15.09,3.27 -22.61,4.57 -0.12,0.03 -0.25,0.04 -0.37,0.04zm-45.55 5.34c-1.14,0 -2.08,-0.88 -2.15,-2.02 -0.07,-1.19 0.83,-2.21 2.01,-2.28 7.61,-0.48 15.27,-1.16 22.75,-2.04 1.26,-0.15 2.24,0.71 2.38,1.88 0.14,1.19 -0.7,2.26 -1.88,2.39 -7.56,0.89 -15.29,1.59 -22.97,2.06 -0.05,0.01 -0.1,0.01 -0.14,0.01z"/>
    <path class="fil3" d="M5607.72 3228.7c-1.14,0 -2.1,-0.89 -2.15,-2.04 -0.07,-1.19 0.84,-2.2 2.03,-2.26 7.67,-0.41 15.43,-0.62 23.07,-0.62 1.19,0 2.15,0.97 2.15,2.16 0,1.19 -0.96,2.15 -2.15,2.15 -7.56,0 -15.25,0.21 -22.84,0.61 -0.04,0 -0.08,0 -0.11,0zm68.75 1.81c-0.07,0 -0.15,0 -0.22,-0.01 -7.52,-0.8 -15.18,-1.41 -22.77,-1.81 -1.19,-0.06 -2.11,-1.07 -2.04,-2.26 0.06,-1.18 0.99,-2.06 2.27,-2.04 7.66,0.41 15.39,1.02 22.98,1.83 1.19,0.12 2.05,1.18 1.92,2.36 -0.11,1.11 -1.05,1.93 -2.14,1.93zm-114.38 3.02c-1.05,0 -1.96,-0.75 -2.13,-1.81 -0.19,-1.18 0.61,-2.28 1.79,-2.47 7.55,-1.2 15.24,-2.22 22.87,-3.03 1.18,-0.14 2.24,0.74 2.36,1.92 0.13,1.18 -0.73,2.24 -1.91,2.37 -7.55,0.79 -15.17,1.81 -22.65,3 -0.11,0.01 -0.23,0.02 -0.33,0.02zm159.69 4.22c-0.15,0 -0.3,-0.01 -0.46,-0.04 -7.41,-1.6 -14.97,-3.01 -22.44,-4.2 -1.17,-0.19 -1.98,-1.29 -1.79,-2.46 0.18,-1.18 1.28,-1.98 2.47,-1.8 7.55,1.21 15.18,2.64 22.67,4.24 1.16,0.25 1.9,1.4 1.65,2.56 -0.21,1.01 -1.11,1.7 -2.1,1.7zm-204.56 5.34c-0.95,0 -1.83,-0.64 -2.09,-1.6 -0.3,-1.14 0.38,-2.33 1.53,-2.64 7.4,-1.99 14.94,-3.79 22.43,-5.39 1.19,-0.25 2.31,0.5 2.55,1.66 0.25,1.17 -0.49,2.31 -1.66,2.56 -7.41,1.58 -14.87,3.37 -22.2,5.34 -0.19,0.05 -0.38,0.07 -0.56,0.07zm248.85 6.65c-0.23,0 -0.45,-0.04 -0.68,-0.11 -7.18,-2.36 -14.54,-4.56 -21.88,-6.55 -1.15,-0.31 -1.82,-1.49 -1.52,-2.64 0.32,-1.15 1.51,-1.85 2.64,-1.51 7.42,2 14.85,4.22 22.11,6.6 1.13,0.37 1.74,1.59 1.37,2.72 -0.29,0.91 -1.13,1.49 -2.04,1.49zm-292.48 7.53c-0.86,0 -1.68,-0.52 -2.01,-1.37 -0.42,-1.12 0.13,-2.36 1.23,-2.79 7.16,-2.75 14.47,-5.33 21.74,-7.7 1.16,-0.37 2.35,0.25 2.72,1.38 0.37,1.14 -0.26,2.35 -1.38,2.72 -7.2,2.35 -14.45,4.9 -21.52,7.62 -0.26,0.1 -0.52,0.14 -0.78,0.14zm335.25 9.04c-0.29,0 -0.59,-0.06 -0.88,-0.19 -6.98,-3.14 -14.07,-6.09 -21.09,-8.8 -1.1,-0.43 -1.66,-1.68 -1.22,-2.79 0.43,-1.11 1.67,-1.67 2.79,-1.24 7.07,2.74 14.23,5.73 21.28,8.9 1.09,0.49 1.57,1.76 1.08,2.84 -0.35,0.8 -1.14,1.28 -1.96,1.28zm-377.16 9.63c-0.78,0 -1.53,-0.43 -1.91,-1.18 -0.54,-1.06 -0.12,-2.35 0.94,-2.89 6.83,-3.48 13.83,-6.82 20.81,-9.92 1.1,-0.49 2.36,0.01 2.85,1.09 0.48,1.08 -0.01,2.36 -1.1,2.84 -6.91,3.09 -13.84,6.39 -20.61,9.83 -0.31,0.17 -0.64,0.24 -0.98,0.24zm418.01 11.3c-0.37,0 -0.74,-0.09 -1.08,-0.29 -6.09,-3.52 -12.36,-6.97 -18.66,-10.22l-1.39 -0.71c-1.06,-0.55 -1.48,-1.84 -0.94,-2.9 0.55,-1.06 1.84,-1.48 2.91,-0.94l1.4 0.73c6.35,3.29 12.69,6.75 18.84,10.31 1.03,0.6 1.38,1.92 0.78,2.94 -0.39,0.7 -1.12,1.08 -1.86,1.08zm-457.71 11.62c-0.7,0 -1.39,-0.35 -1.8,-0.98 -0.65,-1 -0.37,-2.33 0.63,-2.98 6.4,-4.15 13,-8.21 19.65,-12.04 1,-0.6 2.33,-0.25 2.94,0.79 0.6,1.03 0.25,2.35 -0.79,2.94 -6.58,3.8 -13.12,7.82 -19.45,11.92 -0.36,0.24 -0.77,0.35 -1.18,0.35zm496.14 13.41c-0.45,0 -0.89,-0.14 -1.27,-0.41 -6.09,-4.44 -12.42,-8.81 -18.8,-12.96 -0.99,-0.65 -1.27,-1.99 -0.63,-2.98 0.66,-1 1.98,-1.28 2.99,-0.63 6.44,4.2 12.83,8.6 18.98,13.08 0.96,0.71 1.17,2.05 0.47,3.01 -0.43,0.58 -1.08,0.89 -1.74,0.89zm-533.21 13.55c-0.63,0 -1.25,-0.27 -1.67,-0.8 -0.75,-0.92 -0.61,-2.28 0.31,-3.03 5.95,-4.82 12.11,-9.55 18.28,-14.03 0.95,-0.7 2.29,-0.5 3.01,0.47 0.69,0.96 0.48,2.31 -0.48,3.01 -6.11,4.44 -12.2,9.12 -18.09,13.9 -0.4,0.32 -0.88,0.48 -1.36,0.48zm1438.49 1.73c-0.39,0 -0.78,-0.1 -1.14,-0.32 -6.45,-3.98 -13.09,-7.85 -19.73,-11.48 -1.05,-0.57 -1.43,-1.87 -0.85,-2.92 0.57,-1.05 1.9,-1.42 2.91,-0.86 6.71,3.67 13.42,7.57 19.94,11.6 1.01,0.62 1.32,1.95 0.7,2.97 -0.41,0.65 -1.11,1.01 -1.83,1.01zm-869.68 13.66c-0.52,0 -1.04,-0.18 -1.45,-0.56 -5.62,-5.08 -11.44,-10.08 -17.32,-14.86 -0.93,-0.75 -1.07,-2.11 -0.31,-3.04 0.75,-0.92 2.11,-1.06 3.03,-0.31 5.93,4.83 11.82,9.88 17.5,15.02 0.87,0.79 0.94,2.16 0.14,3.04 -0.42,0.47 -1,0.71 -1.59,0.71zm907.37 12.48c-0.46,0 -0.93,-0.15 -1.32,-0.45 -5.96,-4.62 -12.16,-9.17 -18.4,-13.5 -0.98,-0.68 -1.22,-2.03 -0.55,-3 0.68,-0.99 2.02,-1.22 3,-0.54 6.32,4.37 12.57,8.97 18.59,13.63 0.94,0.73 1.11,2.08 0.38,3.03 -0.42,0.54 -1.06,0.83 -1.7,0.83zm-1505.52 -1.17c-0.54,0 -1.09,-0.21 -1.51,-0.62 -0.85,-0.85 -0.85,-2.21 -0.01,-3.05 5.42,-5.44 11.04,-10.78 16.69,-15.89 0.87,-0.8 2.24,-0.73 3.03,0.16 0.8,0.88 0.73,2.24 -0.15,3.04 -5.59,5.05 -11.15,10.34 -16.52,15.73 -0.42,0.42 -0.97,0.63 -1.53,0.63zm630.47 21.24c-0.6,0 -1.19,-0.24 -1.61,-0.72 -4.45,-5.01 -9.06,-9.94 -13.69,-14.66l-1.95 -1.98c-0.84,-0.84 -0.84,-2.2 0.01,-3.04 0.84,-0.84 2.21,-0.84 3.04,0l1.98 2c4.68,4.77 9.34,9.75 13.82,14.82 0.8,0.89 0.71,2.25 -0.17,3.04 -0.41,0.36 -0.92,0.54 -1.43,0.54zm909.79 9.95c-0.54,0 -1.08,-0.2 -1.49,-0.6 -5.45,-5.24 -11.13,-10.42 -16.88,-15.4 -0.91,-0.78 -1,-2.14 -0.22,-3.04 0.77,-0.9 2.15,-1 3.04,-0.23 5.81,5.03 11.54,10.26 17.04,15.56 0.86,0.82 0.89,2.19 0.07,3.04 -0.43,0.45 -0.99,0.67 -1.56,0.67zm-881.34 26.01c-0.67,0 -1.34,-0.31 -1.76,-0.91 -4.38,-6.22 -8.99,-12.37 -13.66,-18.29 -0.75,-0.93 -0.58,-2.28 0.35,-3.02 0.92,-0.74 2.28,-0.59 3.02,0.35 4.73,5.98 9.39,12.19 13.81,18.48 0.69,0.97 0.46,2.31 -0.51,3 -0.38,0.26 -0.81,0.39 -1.25,0.39zm912.68 7.52c-0.62,0 -1.23,-0.27 -1.65,-0.77 -4.88,-5.81 -9.98,-11.56 -15.16,-17.09 -0.81,-0.87 -0.77,-2.23 0.1,-3.05 0.88,-0.81 2.24,-0.76 3.05,0.11 5.22,5.58 10.36,11.39 15.31,17.25 0.76,0.92 0.64,2.27 -0.27,3.04 -0.4,0.34 -0.89,0.51 -1.38,0.51zm-888.29 31.34c-0.76,0 -1.49,-0.4 -1.88,-1.11 -3.69,-6.64 -7.61,-13.25 -11.62,-19.66 -0.63,-1 -0.33,-2.33 0.68,-2.97 0.99,-0.62 2.33,-0.33 2.97,0.69 4.05,6.46 8,13.14 11.73,19.85 0.58,1.03 0.2,2.35 -0.83,2.93 -0.33,0.18 -0.7,0.27 -1.05,0.27zm915.9 5.29c-0.69,0 -1.37,-0.32 -1.79,-0.94 -4.26,-6.31 -8.73,-12.57 -13.27,-18.59 -0.71,-0.96 -0.52,-2.31 0.43,-3.02 0.94,-0.72 2.29,-0.53 3.02,0.42 4.57,6.09 9.09,12.41 13.39,18.77 0.67,0.99 0.41,2.33 -0.58,3 -0.36,0.24 -0.79,0.36 -1.2,0.36zm-895.68 35.88c-0.84,0 -1.63,-0.49 -1.98,-1.3 -2.99,-6.93 -6.2,-13.92 -9.55,-20.75 -0.52,-1.07 -0.07,-2.36 0.99,-2.88 1.06,-0.53 2.35,-0.09 2.88,0.98 3.38,6.9 6.62,13.95 9.64,20.95 0.47,1.09 -0.03,2.36 -1.13,2.83 -0.28,0.12 -0.57,0.17 -0.85,0.17zm919.32 3.45c-0.77,0 -1.51,-0.41 -1.9,-1.14 -3.56,-6.69 -7.35,-13.38 -11.25,-19.88 -0.61,-1.02 -0.29,-2.34 0.73,-2.95 1.02,-0.61 2.34,-0.29 2.96,0.73 3.94,6.56 7.77,13.32 11.36,20.07 0.56,1.06 0.17,2.36 -0.89,2.92 -0.32,0.17 -0.67,0.25 -1.01,0.25zm-903.16 39.49c-0.9,0 -1.73,-0.56 -2.04,-1.45l-3.49 -10.15c-1.32,-3.83 -2.69,-7.65 -4.1,-11.43 -0.41,-1.12 0.15,-2.36 1.28,-2.78 1.09,-0.41 2.35,0.15 2.76,1.27 1.44,3.82 2.81,7.67 4.14,11.54l3.48 10.15c0.38,1.12 -0.21,2.35 -1.33,2.74 -0.24,0.08 -0.47,0.11 -0.7,0.11zm922.56 2.08c-0.85,0 -1.65,-0.5 -1.99,-1.34 -2.85,-7.01 -5.91,-14.05 -9.13,-20.93 -0.51,-1.08 -0.04,-2.36 1.03,-2.87 1.08,-0.5 2.36,-0.04 2.87,1.04 3.25,6.95 6.35,14.06 9.22,21.14 0.45,1.1 -0.08,2.36 -1.19,2.81 -0.26,0.11 -0.54,0.15 -0.81,0.15zm-907.64 41.33c-0.9,0 -1.73,-0.57 -2.04,-1.46l-7.46 -21.7c-0.39,-1.12 0.21,-2.35 1.33,-2.74 1.14,-0.39 2.34,0.21 2.74,1.34l7.46 21.7c0.39,1.13 -0.21,2.35 -1.33,2.74 -0.23,0.08 -0.47,0.12 -0.7,0.12zm922.65 2.03c-0.94,0 -1.79,-0.61 -2.07,-1.56 -2.12,-7.32 -4.45,-14.65 -6.91,-21.76 -0.39,-1.13 0.21,-2.36 1.33,-2.75 1.13,-0.39 2.35,0.21 2.74,1.34 2.49,7.18 4.84,14.58 6.98,21.97 0.33,1.15 -0.32,2.34 -1.47,2.67 -0.2,0.06 -0.4,0.09 -0.6,0.09zm-907.73 41.37c-0.89,0 -1.73,-0.56 -2.04,-1.45l-7.47 -21.71c-0.38,-1.12 0.21,-2.35 1.34,-2.73 1.12,-0.4 2.35,0.2 2.74,1.33l7.47 21.71c0.39,1.12 -0.22,2.35 -1.34,2.73 -0.23,0.09 -0.47,0.12 -0.7,0.12zm918.17 3.29c-1.03,0 -1.94,-0.73 -2.13,-1.76 -1.33,-7.41 -2.88,-14.93 -4.61,-22.36 -0.27,-1.17 0.44,-2.33 1.6,-2.6 1.18,-0.28 2.32,0.45 2.59,1.61 1.76,7.51 3.32,15.11 4.67,22.58 0.2,1.17 -0.57,2.29 -1.74,2.5 -0.14,0.02 -0.26,0.03 -0.38,0.03zm-903.24 40.11c-0.89,0 -1.73,-0.55 -2.04,-1.45l-7.46 -21.7c-0.39,-1.13 0.21,-2.35 1.33,-2.74 1.12,-0.39 2.36,0.22 2.74,1.34l7.47 21.7c0.38,1.13 -0.22,2.35 -1.34,2.74 -0.23,0.08 -0.47,0.11 -0.7,0.11zm909 5.41c-1.12,0 -2.07,-0.87 -2.15,-2 -0.57,-7.6 -1.34,-15.25 -2.28,-22.73 -0.15,-1.18 0.68,-2.25 1.86,-2.41 1.18,-0.13 2.26,0.7 2.41,1.87 0.95,7.55 1.73,15.28 2.3,22.94 0.1,1.19 -0.79,2.23 -1.98,2.32 -0.05,0.01 -0.11,0.01 -0.16,0.01zm-894.08 37.99c-0.9,0 -1.73,-0.56 -2.04,-1.45l-7.46 -21.7c-0.39,-1.13 0.22,-2.35 1.33,-2.74 1.13,-0.39 2.35,0.21 2.74,1.34l7.46 21.7c0.4,1.12 -0.21,2.35 -1.33,2.73 -0.23,0.08 -0.47,0.12 -0.7,0.12zm895.05 7.85c-0.02,0 -0.04,0 -0.06,0 -1.19,-0.04 -2.12,-1.04 -2.09,-2.23 0.14,-4.48 0.21,-8.97 0.21,-13.44 0,-3.13 -0.03,-6.26 -0.1,-9.39 -0.02,-1.19 0.92,-2.17 2.11,-2.2 1.31,-0.02 2.17,0.92 2.2,2.11 0.07,3.16 0.1,6.31 0.1,9.48 0,4.52 -0.07,9.05 -0.21,13.58 -0.04,1.17 -1,2.09 -2.16,2.09zm-880.08 35.54c-0.89,0 -1.73,-0.56 -2.03,-1.45 -1.66,-4.67 -3.29,-9.36 -4.89,-14.04l-2.63 -7.65c-0.38,-1.13 0.22,-2.35 1.34,-2.74 1.15,-0.39 2.35,0.22 2.74,1.34l2.63 7.64c1.61,4.68 3.24,9.36 4.87,14.03 0.4,1.12 -0.2,2.35 -1.32,2.74 -0.24,0.08 -0.48,0.13 -0.71,0.13zm876.24 10.17c-0.09,0 -0.19,-0.01 -0.29,-0.03 -1.18,-0.16 -2,-1.24 -1.84,-2.42 1.03,-7.53 1.87,-15.17 2.51,-22.7 0.09,-1.18 1.11,-2.1 2.33,-1.97 1.18,0.1 2.06,1.14 1.97,2.33 -0.65,7.61 -1.5,15.32 -2.55,22.93 -0.14,1.07 -1.07,1.86 -2.13,1.86zm-860.55 32.94c-0.86,0 -1.69,-0.53 -2.01,-1.39 -2.7,-7.17 -5.35,-14.34 -7.98,-21.55 -0.4,-1.11 0.17,-2.35 1.29,-2.76 1.09,-0.41 2.35,0.17 2.76,1.29 2.61,7.18 5.26,14.34 7.96,21.5 0.42,1.11 -0.14,2.36 -1.26,2.77 -0.25,0.1 -0.5,0.14 -0.76,0.14zm851.9 12.09c-0.17,0 -0.34,-0.01 -0.51,-0.05 -1.16,-0.29 -1.87,-1.46 -1.58,-2.61 1.83,-7.4 3.47,-14.9 4.89,-22.3 0.23,-1.17 1.38,-1.96 2.52,-1.72 1.17,0.23 1.93,1.35 1.71,2.53 -1.44,7.47 -3.1,15.05 -4.94,22.52 -0.24,0.98 -1.12,1.63 -2.09,1.63zm-835.27 30.69c-0.86,0 -1.66,-0.51 -2,-1.35 -2.86,-7.11 -5.67,-14.24 -8.44,-21.37 -0.44,-1.11 0.11,-2.35 1.22,-2.79 1.13,-0.43 2.37,0.13 2.79,1.23 2.77,7.12 5.57,14.23 8.43,21.32 0.44,1.11 -0.09,2.36 -1.2,2.8 -0.26,0.11 -0.53,0.16 -0.8,0.16zm821.88 13.18c-0.24,0 -0.49,-0.04 -0.73,-0.13 -1.13,-0.41 -1.7,-1.64 -1.3,-2.76 2.6,-7.13 5.03,-14.42 7.25,-21.65 0.34,-1.14 1.55,-1.79 2.68,-1.43 1.15,0.35 1.78,1.55 1.44,2.69 -2.24,7.31 -4.69,14.67 -7.32,21.86 -0.32,0.88 -1.14,1.42 -2.02,1.42zm-804.31 29.22c-0.83,0 -1.62,-0.48 -1.97,-1.3l-1.33 -3.08c-2.56,-6.03 -5.09,-12.06 -7.6,-18.1 -0.45,-1.1 0.07,-2.36 1.17,-2.82 1.09,-0.46 2.35,0.07 2.81,1.17 2.51,6.03 5.03,12.05 7.58,18.06l1.31 3.06c0.48,1.1 -0.03,2.36 -1.11,2.83 -0.28,0.13 -0.58,0.18 -0.86,0.18zm786.35 12.99c-0.32,0 -0.64,-0.07 -0.94,-0.22 -1.07,-0.52 -1.52,-1.81 -0.99,-2.88l0.3 -0.62c3.21,-6.59 6.29,-13.36 9.19,-20.14 0.47,-1.1 1.74,-1.61 2.82,-1.14 1.1,0.46 1.61,1.73 1.14,2.82 -2.92,6.85 -6.04,13.7 -9.28,20.34l-0.3 0.62c-0.37,0.77 -1.14,1.22 -1.94,1.22zm-765.96 28.1c-0.75,0 -1.48,-0.39 -1.88,-1.1 -3.72,-6.64 -7.35,-13.49 -10.77,-20.37 -0.53,-1.07 -0.09,-2.37 0.97,-2.89 1.06,-0.52 2.36,-0.1 2.89,0.97 3.38,6.81 6.97,13.61 10.67,20.18 0.59,1.04 0.21,2.35 -0.82,2.94 -0.33,0.18 -0.7,0.27 -1.06,0.27zm743.7 12.01c-0.4,0 -0.79,-0.11 -1.14,-0.33 -1.01,-0.64 -1.32,-1.96 -0.69,-2.98 3.99,-6.38 7.9,-13 11.59,-19.66 0.58,-1.04 1.88,-1.42 2.93,-0.84 1.04,0.58 1.42,1.89 0.84,2.93 -3.73,6.73 -7.67,13.41 -11.7,19.87 -0.41,0.65 -1.11,1.01 -1.83,1.01zm-719.17 26.74c-0.67,0 -1.33,-0.31 -1.75,-0.91 -4.39,-6.19 -8.72,-12.63 -12.85,-19.14 -0.63,-1.01 -0.34,-2.34 0.67,-2.97 0.99,-0.65 2.33,-0.35 2.97,0.66 4.09,6.45 8.37,12.84 12.72,18.96 0.69,0.97 0.46,2.31 -0.51,3 -0.38,0.27 -0.81,0.4 -1.25,0.4zm692.87 10.82c-0.47,0 -0.93,-0.15 -1.33,-0.46 -0.94,-0.73 -1.1,-2.09 -0.37,-3.02 4.66,-5.97 9.23,-12.14 13.57,-18.35 0.69,-0.98 2.03,-1.22 3.01,-0.54 0.98,0.69 1.21,2.03 0.53,3 -4.39,6.28 -9.01,12.51 -13.71,18.54 -0.43,0.54 -1.07,0.83 -1.7,0.83zm-664.37 25.13c-0.59,0 -1.19,-0.25 -1.61,-0.73 -5.06,-5.73 -10.04,-11.68 -14.8,-17.69 -0.74,-0.93 -0.58,-2.28 0.35,-3.02 0.93,-0.73 2.29,-0.59 3.03,0.35 4.7,5.94 9.64,11.83 14.65,17.51 0.79,0.89 0.7,2.25 -0.19,3.04 -0.41,0.36 -0.92,0.54 -1.43,0.54zm634.24 9.48c-0.55,0 -1.09,-0.2 -1.5,-0.61 -0.85,-0.82 -0.88,-2.19 -0.06,-3.04 5.29,-5.46 10.49,-11.12 15.47,-16.83 0.78,-0.9 2.14,-0.99 3.04,-0.22 0.89,0.79 0.99,2.15 0.21,3.04 -5.03,5.78 -10.28,11.5 -15.62,17 -0.42,0.44 -0.98,0.66 -1.54,0.66zm-602.04 23.18c-0.51,0 -1.04,-0.19 -1.45,-0.56 -5.68,-5.17 -11.28,-10.54 -16.63,-15.99 -0.83,-0.85 -0.82,-2.21 0.03,-3.05 0.84,-0.82 2.2,-0.83 3.04,0.03 5.29,5.38 10.83,10.7 16.47,15.82 0.88,0.8 0.95,2.16 0.15,3.04 -0.43,0.48 -1.02,0.71 -1.6,0.71zm568.4 8.06c-0.62,0 -1.23,-0.26 -1.65,-0.77 -0.77,-0.92 -0.65,-2.27 0.26,-3.04 5.84,-4.87 11.61,-9.96 17.15,-15.1 0.87,-0.81 2.24,-0.77 3.04,0.12 0.82,0.86 0.77,2.23 -0.11,3.04 -5.59,5.19 -11.42,10.32 -17.31,15.25 -0.4,0.34 -0.89,0.5 -1.38,0.5zm-532.79 20.86c-0.44,0 -0.88,-0.14 -1.26,-0.41 -6.21,-4.49 -12.36,-9.22 -18.31,-14.04 -0.92,-0.75 -1.06,-2.1 -0.31,-3.03 0.75,-0.93 2.1,-1.06 3.03,-0.31 5.88,4.77 11.98,9.45 18.11,13.89 0.97,0.69 1.18,2.04 0.49,3 -0.42,0.59 -1.08,0.9 -1.75,0.9zm496.06 6.66c-0.7,0 -1.38,-0.33 -1.79,-0.95 -0.66,-0.99 -0.4,-2.33 0.58,-2.99 6.32,-4.23 12.59,-8.68 18.65,-13.21 0.96,-0.72 2.31,-0.52 3.01,0.43 0.72,0.96 0.53,2.3 -0.43,3.01 -6.12,4.58 -12.45,9.08 -18.82,13.35 -0.37,0.24 -0.79,0.36 -1.2,0.36zm-457.41 18.05c-0.36,0 -0.72,-0.09 -1.05,-0.28 -6.68,-3.74 -13.34,-7.74 -19.78,-11.87 -1.01,-0.64 -1.3,-1.97 -0.65,-2.98 0.63,-1 1.97,-1.28 2.97,-0.65 6.38,4.08 12.96,8.05 19.57,11.75 1.03,0.58 1.41,1.89 0.82,2.93 -0.39,0.7 -1.12,1.1 -1.88,1.1zm418 5.44c-0.78,0 -1.52,-0.42 -1.91,-1.15 -0.56,-1.05 -0.15,-2.36 0.9,-2.92 6.73,-3.54 13.43,-7.3 19.92,-11.17 1.03,-0.6 2.35,-0.27 2.96,0.75 0.6,1.02 0.28,2.34 -0.75,2.96 -6.55,3.9 -13.32,7.7 -20.12,11.28 -0.32,0.17 -0.66,0.25 -1,0.25zm-376.88 14.91c-0.29,0 -0.58,-0.06 -0.86,-0.17 -7.04,-3.05 -14.08,-6.31 -20.91,-9.7 -1.07,-0.52 -1.51,-1.81 -0.98,-2.88 0.53,-1.08 1.84,-1.49 2.88,-0.97 6.78,3.34 13.75,6.57 20.72,9.58 1.09,0.48 1.6,1.75 1.13,2.84 -0.36,0.81 -1.16,1.3 -1.98,1.3zm335.22 4.33c-0.85,0 -1.66,-0.51 -1.99,-1.35 -0.45,-1.11 0.08,-2.36 1.19,-2.8 7.06,-2.83 14.12,-5.87 20.98,-9.05 1.08,-0.5 2.36,-0.02 2.86,1.06 0.5,1.08 0.03,2.36 -1.05,2.86 -6.93,3.2 -14.06,6.27 -21.19,9.13 -0.26,0.1 -0.53,0.15 -0.8,0.15zm-292.24 11.62c-0.21,0 -0.42,-0.03 -0.63,-0.09 -7.3,-2.29 -14.64,-4.78 -21.82,-7.45 -1.11,-0.41 -1.69,-1.66 -1.27,-2.77 0.41,-1.11 1.64,-1.68 2.77,-1.27 7.11,2.64 14.38,5.11 21.59,7.37 1.14,0.36 1.78,1.57 1.42,2.7 -0.29,0.93 -1.14,1.51 -2.06,1.51zm248.81 3.17c-0.94,0 -1.8,-0.62 -2.07,-1.56 -0.32,-1.15 0.34,-2.35 1.49,-2.66 7.35,-2.1 14.68,-4.38 21.79,-6.8 1.14,-0.39 2.36,0.21 2.74,1.34 0.38,1.13 -0.21,2.35 -1.34,2.74 -7.19,2.44 -14.6,4.75 -22.02,6.85 -0.2,0.06 -0.39,0.09 -0.59,0.09zm-204.38 8.19c-0.14,0 -0.28,-0.01 -0.42,-0.04 -7.44,-1.5 -15,-3.22 -22.48,-5.12 -1.15,-0.28 -1.85,-1.46 -1.56,-2.62 0.29,-1.14 1.44,-1.84 2.62,-1.55 7.41,1.89 14.89,3.58 22.26,5.06 1.17,0.23 1.93,1.37 1.7,2.53 -0.21,1.03 -1.11,1.74 -2.12,1.74zm159.67 1.99c-1.04,0 -1.95,-0.74 -2.12,-1.78 -0.21,-1.18 0.58,-2.29 1.75,-2.5 7.48,-1.3 15.02,-2.81 22.39,-4.48 1.14,-0.29 2.31,0.47 2.57,1.62 0.27,1.16 -0.46,2.32 -1.62,2.59 -7.44,1.69 -15.04,3.22 -22.61,4.52 -0.12,0.02 -0.24,0.03 -0.36,0.03zm-114.29 4.6c-0.05,0 -0.12,0 -0.19,-0.01 -7.64,-0.69 -15.35,-1.6 -22.9,-2.7 -1.18,-0.18 -2,-1.27 -1.83,-2.44 0.18,-1.18 1.35,-2.02 2.44,-1.83 7.49,1.09 15.12,1.99 22.68,2.69 1.18,0.11 2.06,1.15 1.95,2.34 -0.1,1.12 -1.04,1.95 -2.15,1.95zm68.75 0.85c-1.13,0 -2.08,-0.88 -2.15,-2.01 -0.08,-1.19 0.82,-2.22 2,-2.29 7.54,-0.51 15.19,-1.22 22.74,-2.12 1.22,-0.16 2.26,0.69 2.39,1.88 0.15,1.18 -0.7,2.25 -1.88,2.39 -7.62,0.91 -15.34,1.64 -22.95,2.14 -0.05,0.01 -0.11,0.01 -0.15,0.01zm-28.26 0.97c-5.87,0 -11.77,-0.1 -17.67,-0.32 -1.18,-0.06 -2.11,-1.06 -2.07,-2.25 0.05,-1.19 0.93,-2.17 2.24,-2.06 5.84,0.23 11.62,0.34 17.5,0.32 1.78,0 3.55,-0.01 5.33,-0.04 0.01,0 0.02,0 0.02,0 1.19,0 2.14,0.95 2.16,2.13 0.01,1.19 -0.94,2.16 -2.13,2.18 -1.79,0.02 -3.59,0.04 -5.38,0.04z"/>
    <path class="fil3" d="M3152.36 3695.99c0,170.96 -138.59,309.55 -309.55,309.55 -170.95,0 -309.54,-138.59 -309.54,-309.55 0,-170.96 138.59,-309.55 309.54,-309.55 170.96,0 309.55,138.59 309.55,309.55z"/>
    <path class="fil4" d="M2842.81 3389.31c-169.1,0 -306.68,137.58 -306.68,306.69 0,169.11 137.57,306.69 306.68,306.69 169.11,0 306.69,-137.57 306.69,-306.69 0,-169.1 -137.57,-306.69 -306.69,-306.69zm0 619.11c-172.26,0 -312.42,-140.16 -312.42,-312.43 0,-172.26 140.16,-312.42 312.42,-312.42 172.27,0 312.43,140.16 312.43,312.42 0,172.27 -140.16,312.43 -312.43,312.43z"/>
    <path class="fil6" d="M3080.57 3695.99c0,131.31 -106.45,237.76 -237.76,237.76 -131.3,0 -237.75,-106.45 -237.75,-237.76 0,-131.3 106.45,-237.75 237.75,-237.75 131.31,0 237.76,106.45 237.76,237.75z"/>
    <path class="fil4" d="M2842.81 3461.11c-129.51,0 -234.88,105.37 -234.88,234.88 0,129.52 105.37,234.88 234.88,234.88 129.52,0 234.89,-105.36 234.89,-234.88 0,-129.51 -105.37,-234.88 -234.89,-234.88zm0 475.51c-132.68,0 -240.62,-107.94 -240.62,-240.63 0,-132.68 107.94,-240.63 240.62,-240.63 132.68,0 240.63,107.95 240.63,240.63 0,132.69 -107.95,240.63 -240.63,240.63z"/>
    <path class="fil3" d="M2960.88 3785.54l-76.37 -76.37c10.9,-15.65 17.34,-34.63 17.34,-55.14 0,-53.31 -43.21,-96.53 -96.52,-96.53 -53.32,0 -96.53,43.22 -96.53,96.53 0,53.31 43.21,96.53 96.53,96.53 16.84,0 32.68,-4.34 46.47,-11.93l77.99 78c8.59,8.59 22.51,8.59 31.09,0 8.59,-8.59 8.59,-22.51 0,-31.09z"/>
    <path class="fil4" d="M2851.79 3735.76c0.74,0 1.48,0.29 2.03,0.84l77.99 78c7.46,7.45 19.58,7.45 27.03,0 7.46,-7.46 7.46,-19.58 0,-27.04l-76.37 -76.38c-0.98,-0.97 -1.12,-2.52 -0.32,-3.66 11.01,-15.79 16.83,-34.29 16.83,-53.49 0,-51.65 -42.02,-93.67 -93.66,-93.67 -51.65,0 -93.67,42.02 -93.67,93.67 0,51.64 42.02,93.67 93.67,93.67 15.75,0 31.33,-4 45.08,-11.58 0.44,-0.23 0.92,-0.35 1.39,-0.35zm93.54 90.15c-6.36,0 -12.73,-2.42 -17.57,-7.26l-76.48 -76.49c-14.13,7.38 -29.96,11.27 -45.95,11.27 -54.81,0 -99.4,-44.6 -99.4,-99.41 0,-54.81 44.59,-99.4 99.4,-99.4 54.81,0 99.39,44.59 99.39,99.4 0,19.58 -5.7,38.47 -16.51,54.79l74.7 74.7c9.7,9.69 9.7,25.45 0,35.15 -4.84,4.84 -11.2,7.26 -17.57,7.26z"/>
    <path class="fil7" d="M2865.53 3654.03c0,33.26 -26.96,60.22 -60.21,60.22 -33.26,0 -60.22,-26.96 -60.22,-60.22 0,-33.26 26.96,-60.22 60.22,-60.22 33.25,0 60.21,26.96 60.21,60.22z"/>
    <path class="fil4" d="M2805.32 3596.68c-31.62,0 -57.35,25.72 -57.35,57.34 0,31.62 25.73,57.34 57.35,57.34 31.61,0 57.34,-25.72 57.34,-57.34 0,-31.62 -25.73,-57.34 -57.34,-57.34zm0 120.43c-34.79,0 -63.08,-28.3 -63.08,-63.08 0,-34.78 28.3,-63.08 63.08,-63.08 34.78,0 63.07,28.31 63.07,63.08 0,34.79 -28.3,63.08 -63.07,63.08z"/>
    <path class="fil6" d="M2949.23 3798.28c0,3.55 -2.88,6.43 -6.44,6.43 -3.54,0 -6.43,-2.88 -6.43,-6.43 0,-3.55 2.89,-6.44 6.43,-6.44 3.56,0 6.44,2.89 6.44,6.44z"/>
    <path class="fil4" d="M2942.78 3794.71c-1.97,0 -3.56,1.61 -3.56,3.57 0,1.97 1.6,3.56 3.56,3.56 1.97,0 3.57,-1.6 3.57,-3.56 0,-1.97 -1.61,-3.57 -3.57,-3.57zm0 12.87c-5.12,0 -9.31,-4.17 -9.31,-9.3 0,-5.13 4.18,-9.31 9.31,-9.31 5.14,0 9.31,4.17 9.31,9.31 0,5.12 -4.16,9.3 -9.31,9.3z"/>
    <path class="fil3" d="M5009.66 3695.99c0,170.96 -138.59,309.55 -309.54,309.55 -170.96,0 -309.55,-138.59 -309.55,-309.55 0,-170.96 138.59,-309.55 309.55,-309.55 170.95,0 309.54,138.59 309.54,309.55z"/>
    <path class="fil4" d="M4700.11 3389.31c-169.1,0 -306.69,137.58 -306.69,306.69 0,169.11 137.58,306.69 306.69,306.69 169.1,0 306.68,-137.57 306.68,-306.69 0,-169.1 -137.57,-306.69 -306.68,-306.69zm0 619.11c-172.27,0 -312.42,-140.16 -312.42,-312.43 0,-172.26 140.15,-312.42 312.42,-312.42 172.26,0 312.42,140.16 312.42,312.42 0,172.27 -140.16,312.43 -312.42,312.43z"/>
    <path class="fil8" d="M4936.08 3695.99c0,131.31 -106.45,237.76 -237.76,237.76 -131.3,0 -237.75,-106.45 -237.75,-237.76 0,-131.3 106.45,-237.75 237.75,-237.75 131.31,0 237.76,106.45 237.76,237.75z"/>
    <path class="fil4" d="M4698.32 3461.11c-129.51,0 -234.88,105.37 -234.88,234.88 0,129.52 105.37,234.88 234.88,234.88 129.52,0 234.88,-105.36 234.88,-234.88 0,-129.51 -105.36,-234.88 -234.88,-234.88zm0 475.51c-132.68,0 -240.63,-107.94 -240.63,-240.63 0,-132.68 107.95,-240.63 240.63,-240.63 132.68,0 240.63,107.95 240.63,240.63 0,132.69 -107.95,240.63 -240.63,240.63z"/>
    <path class="fil6" d="M4718.06 3824.34c0,8.59 -6.95,15.54 -15.53,15.54 -8.59,0 -15.54,-6.95 -15.54,-15.54 0,-8.58 6.95,-15.54 15.54,-15.54 8.58,0 15.53,6.96 15.53,15.54z"/>
    <path class="fil4" d="M4702.53 3811.68c-6.99,0 -12.67,5.68 -12.67,12.66 0,6.99 5.68,12.68 12.67,12.68 6.98,0 12.66,-5.69 12.66,-12.68 0,-6.98 -5.68,-12.66 -12.66,-12.66zm0 31.07c-10.15,0 -18.41,-8.26 -18.41,-18.41 0,-10.14 8.26,-18.4 18.41,-18.4 10.13,0 18.4,8.26 18.4,18.4 0,10.15 -8.27,18.41 -18.4,18.41z"/>
    <path class="fil3" d="M4802.03 3646.56c0,-54.96 -44.55,-99.51 -99.5,-99.51 -54.96,0 -99.5,44.55 -99.5,99.51 0,40.94 24.72,76.06 60.05,91.34l0 36.17c0,14.24 11.54,25.78 25.77,25.78l27.35 0c14.23,0 25.77,-11.54 25.77,-25.78l0 -36.17c35.33,-15.28 60.06,-50.4 60.06,-91.34z"/>
    <path class="fil4" d="M4702.53 3549.93c-53.29,0 -96.63,43.35 -96.63,96.63 0,38.56 22.9,73.39 58.32,88.72 1.06,0.45 1.74,1.48 1.74,2.63l0 36.17c0,12.63 10.27,22.92 22.9,22.92l27.35 0c12.62,0 22.9,-10.28 22.9,-22.92l0 -36.17c0,-1.15 0.68,-2.18 1.74,-2.63 35.43,-15.33 58.32,-50.15 58.32,-88.72 0,-53.28 -43.34,-96.63 -96.62,-96.63zm13.67 252.79l-27.35 0c-15.79,0 -28.64,-12.85 -28.64,-28.65l0 -34.3c-36.54,-16.61 -60.06,-52.99 -60.06,-93.21 0,-56.45 45.93,-102.38 102.38,-102.38 56.44,0 102.37,45.92 102.37,102.38 0,40.22 -23.51,76.59 -60.06,93.21l0 34.3c0,15.8 -12.84,28.65 -28.64,28.65z"/>
    <path class="fil6" d="M4728.56 3824.94l-52.08 0c-5.85,0 -10.6,-4.75 -10.6,-10.6l0 -6.27c0,-5.86 4.75,-10.61 10.6,-10.61l52.08 0c5.87,0 10.61,4.75 10.61,10.61l0 6.27c0,5.85 -4.74,10.6 -10.61,10.6z"/>
    <path class="fil4" d="M4676.49 3800.32c-4.27,0 -7.75,3.48 -7.75,7.75l0 6.27c0,4.26 3.47,7.74 7.75,7.74l52.08 0c4.26,0 7.74,-3.47 7.74,-7.74l0 -6.27c0,-4.26 -3.47,-7.75 -7.74,-7.75l-52.08 0zm52.08 27.5l-52.08 0c-7.44,0 -13.48,-6.05 -13.48,-13.48l0 -6.27c0,-7.44 6.04,-13.48 13.48,-13.48l52.08 0c7.43,0 13.48,6.04 13.48,13.48l0 6.27c0,7.43 -6.05,13.48 -13.48,13.48z"/>
    <path class="fil6" d="M4736.13 3801.63l-67.21 0c-6.52,0 -11.81,-5.28 -11.81,-11.81l0 -3.86c0,-6.52 5.29,-11.81 11.81,-11.81l67.21 0c6.53,0 11.81,5.29 11.81,11.81l0 3.86c0,6.53 -5.28,11.81 -11.81,11.81z"/>
    <path class="fil4" d="M4668.91 3777.01c-4.92,0 -8.94,4.01 -8.94,8.95l0 3.86c0,4.93 4.01,8.95 8.94,8.95l67.22 0c4.93,0 8.95,-4.01 8.95,-8.95l0 -3.86c0,-4.93 -4.01,-8.95 -8.95,-8.95l-67.22 0zm67.22 27.5l-67.22 0c-8.09,0 -14.67,-6.59 -14.67,-14.69l0 -3.86c0,-8.1 6.58,-14.68 14.67,-14.68l67.22 0c8.1,0 14.69,6.58 14.69,14.68l0 3.86c0,8.1 -6.59,14.69 -14.69,14.69z"/>
    <path class="fil4" d="M4680.27 3688.2c-3.7,0 -6.72,3.01 -6.72,6.71 0,3.09 2.52,5.6 5.6,5.6l8.97 0 0 -4.46c0,-4.33 -3.51,-7.85 -7.85,-7.85zm10.72 86.88c-1.59,0 -2.88,-1.29 -2.88,-2.87l0 -65.96 -8.97 0c-6.25,0 -11.33,-5.09 -11.33,-11.34 0,-6.86 5.59,-12.45 12.45,-12.45 7.5,0 13.59,6.09 13.59,13.59l0 4.46 8.43 0c1.58,0 2.87,1.29 2.87,2.88 0,1.58 -1.29,2.87 -2.87,2.87l-8.43 0 0 65.96c0,1.58 -1.29,2.87 -2.87,2.87z"/>
    <path class="fil4" d="M4716.93 3700.51l8.97 0c3.09,0 5.6,-2.52 5.6,-5.6 0,-3.7 -3.02,-6.71 -6.72,-6.71 -4.33,0 -7.85,3.51 -7.85,7.85l0 4.46zm-2.87 74.57c-1.6,0 -2.88,-1.29 -2.88,-2.87l0 -65.96 -8.42 0c-1.59,0 -2.88,-1.29 -2.88,-2.87 0,-1.59 1.29,-2.88 2.88,-2.88l8.42 0 0 -4.46c0,-7.5 6.09,-13.59 13.59,-13.59 6.86,0 12.46,5.59 12.46,12.45 0,6.25 -5.09,11.34 -11.34,11.34l-8.97 0 0 65.96c0,1.58 -1.29,2.87 -2.87,2.87z"/>
    <path class="fil3" d="M6879.05 3695.99c0,170.96 -138.59,309.55 -309.55,309.55 -170.95,0 -309.54,-138.59 -309.54,-309.55 0,-170.96 138.59,-309.55 309.54,-309.55 170.96,0 309.55,138.59 309.55,309.55z"/>
    <path class="fil4" d="M6569.49 3389.31c-169.09,0 -306.68,137.58 -306.68,306.69 0,169.11 137.58,306.69 306.68,306.69 169.11,0 306.69,-137.57 306.69,-306.69 0,-169.1 -137.57,-306.69 -306.69,-306.69zm0 619.11c-172.26,0 -312.42,-140.16 -312.42,-312.43 0,-172.26 140.16,-312.42 312.42,-312.42 172.28,0 312.43,140.16 312.43,312.42 0,172.27 -140.15,312.43 -312.43,312.43z"/>
    <path class="fil6" d="M6806.02 3695.99c0,131.31 -106.45,237.76 -237.76,237.76 -131.31,0 -237.75,-106.45 -237.75,-237.76 0,-131.3 106.44,-237.75 237.75,-237.75 131.31,0 237.76,106.45 237.76,237.75z"/>
    <path class="fil4" d="M6568.26 3461.11c-129.51,0 -234.88,105.37 -234.88,234.88 0,129.52 105.37,234.88 234.88,234.88 129.51,0 234.88,-105.36 234.88,-234.88 0,-129.51 -105.37,-234.88 -234.88,-234.88zm0 475.51c-132.68,0 -240.63,-107.94 -240.63,-240.63 0,-132.68 107.95,-240.63 240.63,-240.63 132.69,0 240.63,107.95 240.63,240.63 0,132.69 -107.94,240.63 -240.63,240.63z"/>
    <path class="fil3" d="M5601.37 3706.98c-20.56,12.81 -47.61,6.53 -60.42,-14.03 -12.81,-20.55 -6.53,-47.6 14.02,-60.41 20.56,-12.81 47.61,-6.53 60.42,14.03 12.81,20.55 6.53,47.6 -14.02,60.41zm58.46 -106.57l-18.75 11.68c-8.18,-8.95 -17.99,-15.85 -28.69,-20.52l4.99 -21.52c0.95,-4.07 -1.59,-8.13 -5.65,-9.07l-15.8 -3.66c-4.06,-0.95 -8.12,1.58 -9.07,5.65l-4.99 21.52c-11.66,-0.52 -23.51,1.35 -34.8,5.78l-11.68 -18.75c-2.21,-3.54 -6.87,-4.62 -10.4,-2.41l-13.77 8.58c-3.53,2.2 -4.61,6.86 -2.42,10.4l11.69 18.74c-8.95,8.19 -15.85,17.99 -20.52,28.7l-21.53 -4.99c-4.06,-0.94 -8.12,1.59 -9.07,5.65l-3.66 15.8c-0.94,4.06 1.6,8.12 5.65,9.06l21.52 5c-0.51,11.66 1.37,23.51 5.79,34.8l-18.75 11.68c-3.54,2.21 -4.62,6.87 -2.42,10.41l8.58 13.75c2.21,3.54 6.87,4.62 10.4,2.43l18.75 -11.69c8.19,8.95 17.99,15.85 28.7,20.52l-5 21.52c-0.94,4.07 1.6,8.13 5.65,9.07l15.81 3.67c4.05,0.94 8.12,-1.59 9.06,-5.65l5 -21.53c11.66,0.52 23.5,-1.35 34.8,-5.78l11.68 18.75c2.21,3.54 6.87,4.62 10.4,2.42l13.76 -8.58c3.54,-2.21 4.63,-6.87 2.42,-10.41l-11.68 -18.74c8.95,-8.19 15.85,-17.99 20.52,-28.7l21.52 4.99c4.06,0.95 8.13,-1.58 9.07,-5.65l3.66 -15.79c0.95,-4.06 -1.59,-8.13 -5.65,-9.07l-21.52 -5c0.52,-11.66 -1.36,-23.5 -5.79,-34.79l18.76 -11.69c3.53,-2.21 4.62,-6.87 2.42,-10.41l-8.58 -13.75c-2.22,-3.54 -6.87,-4.62 -10.41,-2.42z"/>
    <path class="fil4" d="M5578.1 3628.77c-7.58,0 -15.02,2.11 -21.61,6.21 -9.29,5.79 -15.77,14.86 -18.24,25.52 -2.48,10.66 -0.65,21.66 5.15,30.94 5.78,9.29 14.84,15.77 25.51,18.24 10.66,2.49 21.65,0.64 30.93,-5.14l0 0c9.3,-5.79 15.78,-14.86 18.24,-25.52 2.48,-10.66 0.65,-21.66 -5.13,-30.94 -5.79,-9.29 -14.85,-15.77 -25.52,-18.24 -3.1,-0.72 -6.23,-1.07 -9.34,-1.07zm0.16 87.73c-3.53,0 -7.11,-0.4 -10.65,-1.23 -12.15,-2.82 -22.49,-10.2 -29.09,-20.79 -6.59,-10.59 -8.69,-23.12 -5.86,-35.28 2.83,-12.16 10.21,-22.49 20.8,-29.09 10.59,-6.6 23.11,-8.69 35.28,-5.86 12.16,2.82 22.5,10.2 29.09,20.79 6.61,10.6 8.69,23.12 5.87,35.29 -2.84,12.15 -10.21,22.49 -20.8,29.09l0 0c-7.51,4.67 -16,7.08 -24.63,7.08zm81.58 -116.08l0.06 0 -0.06 0zm-144.58 124.15c0.79,0 1.56,0.32 2.12,0.93 7.81,8.54 17.14,15.21 27.73,19.83 1.27,0.56 1.96,1.94 1.65,3.29l-5 21.52c-0.28,1.22 -0.07,2.47 0.59,3.53 0.66,1.07 1.7,1.8 2.92,2.08l15.81 3.67c1.22,0.29 2.47,0.06 3.52,-0.59 1.07,-0.66 1.81,-1.7 2.09,-2.92l4.99 -21.52c0.32,-1.35 1.34,-2.35 2.93,-2.22 11.54,0.47 22.87,-1.37 33.62,-5.6 1.29,-0.5 2.76,-0.02 3.49,1.16l11.68 18.75c0.66,1.07 1.7,1.81 2.92,2.08 1.24,0.29 2.48,0.08 3.53,-0.57l13.76 -8.59c1.07,-0.67 1.81,-1.7 2.09,-2.92 0.28,-1.22 0.08,-2.49 -0.58,-3.53l-11.69 -18.76c-0.73,-1.18 -0.52,-2.7 0.5,-3.63 8.53,-7.8 15.2,-17.12 19.83,-27.72 0.56,-1.27 1.91,-1.96 3.28,-1.65l21.52 4.99c2.5,0.61 5.04,-0.99 5.62,-3.5l3.66 -15.79c0.59,-2.53 -0.98,-5.05 -3.5,-5.62l-21.52 -5c-1.34,-0.31 -2.27,-1.54 -2.22,-2.92 0.52,-11.55 -1.37,-22.87 -5.59,-33.63 -0.5,-1.28 -0.01,-2.75 1.16,-3.48l18.74 -11.68c2.21,-1.37 2.88,-4.26 1.51,-6.45l-8.58 -13.77c-0.67,-1.06 -1.71,-1.8 -2.92,-2.08 -1.23,-0.3 -2.49,-0.08 -3.53,0.58l0 0 -18.75 11.69c-1.19,0.73 -2.71,0.52 -3.63,-0.5 -7.82,-8.54 -17.14,-15.21 -27.73,-19.83 -1.27,-0.55 -1.97,-1.94 -1.65,-3.28l4.99 -21.53c0.58,-2.51 -0.98,-5.03 -3.5,-5.61l-15.8 -3.67c-2.53,-0.57 -5.03,1 -5.62,3.51l-4.99 21.51c-0.31,1.35 -1.33,2.38 -2.93,2.23 -11.54,-0.52 -22.86,1.36 -33.62,5.59 -1.27,0.5 -2.76,0.01 -3.48,-1.16l-11.68 -18.75c-0.67,-1.06 -1.7,-1.8 -2.92,-2.09 -1.24,-0.28 -2.49,-0.08 -3.54,0.59l-13.76 8.58c-1.07,0.66 -1.81,1.7 -2.09,2.92 -0.28,1.22 -0.07,2.48 0.59,3.53l11.69 18.76c0.73,1.17 0.52,2.7 -0.5,3.62 -8.54,7.81 -15.21,17.14 -19.83,27.73 -0.56,1.27 -1.91,1.97 -3.28,1.65l-21.53 -4.99c-1.21,-0.3 -2.47,-0.08 -3.53,0.59 -1.06,0.66 -1.81,1.69 -2.09,2.92l-3.65 15.79c-0.29,1.23 -0.08,2.49 0.58,3.53 0.66,1.07 1.7,1.81 2.92,2.1l21.52 4.99c1.35,0.32 2.28,1.54 2.22,2.93 -0.51,11.54 1.37,22.86 5.59,33.62 0.51,1.29 0.02,2.75 -1.15,3.48l-18.75 11.68c-2.2,1.37 -2.87,4.26 -1.5,6.46l8.58 13.76c0.66,1.07 1.7,1.8 2.92,2.09 1.22,0.26 2.48,0.06 3.53,-0.59l18.75 -11.69c0.47,-0.29 1,-0.43 1.52,-0.43zm46.88 60.7c-0.8,0 -1.6,-0.08 -2.39,-0.26l-15.8 -3.66c-2.71,-0.63 -5.01,-2.29 -6.48,-4.64 -1.48,-2.37 -1.95,-5.16 -1.31,-7.88l4.46 -19.22c-9.72,-4.54 -18.39,-10.75 -25.85,-18.48l-16.75 10.44c-4.86,3.04 -11.31,1.55 -14.36,-3.33l-8.57 -13.76c-3.05,-4.88 -1.56,-11.32 3.32,-14.36l16.75 -10.44c-3.64,-10.09 -5.4,-20.62 -5.21,-31.34l-19.23 -4.47c-2.71,-0.62 -5.01,-2.28 -6.48,-4.63 -1.48,-2.37 -1.94,-5.16 -1.31,-7.87l3.66 -15.8c1.29,-5.6 6.9,-9.11 12.5,-7.8l19.23 4.46c4.55,-9.72 10.75,-18.38 18.48,-25.84l-10.44 -16.76c-3.04,-4.87 -1.55,-11.31 3.33,-14.36l13.76 -8.58c4.89,-3.05 11.33,-1.54 14.36,3.33l10.44 16.75c10.09,-3.64 20.59,-5.39 31.34,-5.21l4.46 -19.22c1.3,-5.6 6.92,-9.1 12.51,-7.81l15.8 3.67c5.6,1.3 9.1,6.9 7.8,12.51l-4.46 19.23c9.72,4.54 18.38,10.75 25.84,18.48l16.76 -10.44c4.85,-3.05 11.3,-1.55 14.35,3.32l8.58 13.76c3.05,4.88 1.55,11.32 -3.32,14.36l-16.75 10.45c3.65,10.09 5.39,20.61 5.21,31.34l19.23 4.45c5.59,1.31 9.1,6.92 7.79,12.52l-3.66 15.8c-0.63,2.7 -2.28,5.01 -4.63,6.48 -2.37,1.47 -5.16,1.93 -7.88,1.31l-19.23 -4.45c-4.55,9.71 -10.75,18.39 -18.48,25.84l10.45 16.74c3.04,4.88 1.54,11.32 -3.33,14.36l-13.77 8.58c-4.89,3.07 -11.32,1.55 -14.36,-3.32l-10.43 -16.76c-10.1,3.66 -20.68,5.33 -31.35,5.22l-4.46 19.23c-0.63,2.71 -2.28,5.01 -4.64,6.49 -1.67,1.04 -3.55,1.57 -5.48,1.57z"/>
    <path class="fil6" d="M5680.09 3770.64c-16.73,-6.08 -25.38,-24.57 -19.3,-41.31 6.07,-16.73 24.56,-25.38 41.3,-19.3 16.73,6.07 25.38,24.56 19.3,41.31 -6.07,16.73 -24.56,25.37 -41.3,19.3zm88.17 -14.54l-15.26 -5.55c1.46,-8.79 1,-17.59 -1.16,-25.9l14.72 -6.87c2.78,-1.31 3.97,-4.61 2.68,-7.39l-5.05 -10.8c-1.29,-2.78 -4.59,-3.97 -7.38,-2.68l-14.71 6.88c-5,-6.99 -11.45,-12.98 -19.14,-17.5l5.54 -15.27c1.05,-2.89 -0.44,-6.07 -3.32,-7.12l-11.2 -4.06c-2.89,-1.05 -6.07,0.44 -7.12,3.32l-5.54 15.27c-8.79,-1.46 -17.59,-1 -25.9,1.15l-6.88 -14.72c-1.3,-2.78 -4.6,-3.97 -7.39,-2.68l-10.79 5.05c-2.78,1.3 -3.98,4.6 -2.68,7.38l6.88 14.71c-6.99,5 -12.99,11.46 -17.5,19.14l-15.28 -5.54c-2.88,-1.05 -6.07,0.44 -7.11,3.32l-4.07 11.2c-1.04,2.89 0.45,6.07 3.33,7.12l15.26 5.54c-1.46,8.8 -1,17.59 1.16,25.91l-14.72 6.87c-2.78,1.3 -3.97,4.6 -2.68,7.38l5.05 10.8c1.29,2.78 4.59,3.97 7.37,2.69l14.72 -6.88c5,6.98 11.46,12.98 19.14,17.5l-5.54 15.27c-1.05,2.89 0.44,6.07 3.31,7.11l11.21 4.07c2.89,1.04 6.07,-0.44 7.12,-3.32l5.54 -15.27c8.79,1.46 17.59,1 25.9,-1.16l6.88 14.72c1.3,2.78 4.6,3.97 7.38,2.68l10.8 -5.04c2.78,-1.3 3.97,-4.6 2.68,-7.39l-6.88 -14.71c6.99,-5 12.99,-11.45 17.5,-19.14l15.27 5.54c2.89,1.05 6.07,-0.44 7.12,-3.31l4.07 -11.21c1.04,-2.89 -0.44,-6.06 -3.33,-7.11z"/>
    <path class="fil4" d="M5681.07 3767.95c15.2,5.51 32.09,-2.37 37.62,-17.59 2.69,-7.37 2.33,-15.35 -1,-22.46 -3.31,-7.1 -9.21,-12.49 -16.58,-15.17 -7.36,-2.68 -15.35,-2.32 -22.46,1 -7.11,3.32 -12.49,9.22 -15.18,16.58 -5.52,15.23 2.37,32.1 17.59,37.63l0 0zm9.98 7.5c-3.97,0 -8,-0.68 -11.94,-2.11l0 0c-18.2,-6.61 -27.63,-26.79 -21.02,-44.98 3.2,-8.82 9.63,-15.86 18.13,-19.83 8.49,-3.96 18.03,-4.39 26.85,-1.19 8.81,3.2 15.85,9.64 19.82,18.14 3.97,8.49 4.39,18.02 1.19,26.83 -5.17,14.26 -18.67,23.13 -33.03,23.13zm-50.97 -1.44c0.9,0 1.79,0.43 2.33,1.2 4.88,6.83 11.02,12.44 18.27,16.7 1.19,0.7 1.71,2.16 1.24,3.45l-5.54 15.27c-0.25,0.67 -0.21,1.41 0.09,2.05 0.3,0.65 0.84,1.15 1.52,1.39l11.2 4.07c1.4,0.49 2.93,-0.22 3.44,-1.61l5.54 -15.28c0.47,-1.3 1.84,-2.07 3.17,-1.85 8.27,1.38 16.58,1.01 24.71,-1.1 1.33,-0.36 2.74,0.32 3.32,1.57l6.87 14.71c0.63,1.34 2.23,1.93 3.57,1.3l10.79 -5.04c1.35,-0.63 1.93,-2.23 1.3,-3.57l-6.88 -14.71c-0.59,-1.26 -0.2,-2.75 0.93,-3.55 6.82,-4.87 12.45,-11.01 16.7,-18.25 0.7,-1.2 2.14,-1.72 3.44,-1.25l15.28 5.54c0.67,0.24 1.4,0.22 2.05,-0.09 0.65,-0.3 1.15,-0.84 1.39,-1.52l4.07 -11.2c0.24,-0.67 0.21,-1.4 -0.09,-2.05 -0.31,-0.65 -0.85,-1.15 -1.53,-1.39l0 0 -15.27 -5.55c-1.3,-0.47 -2.08,-1.8 -1.85,-3.17 1.38,-8.28 1.01,-16.58 -1.1,-24.71 -0.34,-1.34 0.32,-2.74 1.57,-3.31l14.71 -6.88c0.65,-0.3 1.14,-0.84 1.39,-1.52 0.24,-0.67 0.21,-1.4 -0.09,-2.05l-5.05 -10.8c-0.62,-1.34 -2.23,-1.92 -3.56,-1.3l-14.72 6.88c-1.26,0.58 -2.75,0.2 -3.54,-0.94 -4.89,-6.82 -11.02,-12.44 -18.25,-16.68 -1.2,-0.71 -1.71,-2.16 -1.24,-3.45l5.53 -15.27c0.24,-0.68 0.22,-1.41 -0.09,-2.06 -0.3,-0.65 -0.84,-1.15 -1.52,-1.39l-11.2 -4.06c-0.67,-0.24 -1.4,-0.22 -2.05,0.09 -0.66,0.3 -1.15,0.84 -1.4,1.52l-5.54 15.27c-0.47,1.3 -1.82,2.09 -3.17,1.86 -8.27,-1.39 -16.58,-1.02 -24.72,1.09 -1.33,0.34 -2.73,-0.32 -3.31,-1.56l-6.87 -14.72c-0.31,-0.65 -0.85,-1.14 -1.53,-1.39 -0.66,-0.24 -1.39,-0.21 -2.05,0.09l-10.79 5.05c-0.65,0.3 -1.14,0.84 -1.39,1.51 -0.24,0.68 -0.21,1.41 0.09,2.06l6.88 14.72c0.58,1.26 0.19,2.75 -0.93,3.54 -6.84,4.89 -12.45,11.03 -16.7,18.25 -0.7,1.2 -2.13,1.72 -3.45,1.25l-15.26 -5.54c-0.68,-0.24 -1.41,-0.22 -2.07,0.09 -0.64,0.31 -1.13,0.85 -1.38,1.52l-4.07 11.21c-0.5,1.39 0.22,2.93 1.61,3.43l15.28 5.54c1.3,0.47 2.08,1.81 1.85,3.17 -1.38,8.29 -1.01,16.6 1.1,24.71 0.35,1.34 -0.31,2.74 -1.56,3.32l-14.72 6.88c-0.65,0.3 -1.15,0.84 -1.39,1.51 -0.25,0.68 -0.21,1.41 0.09,2.06l5.05 10.79c0.3,0.65 0.84,1.15 1.52,1.39 0.66,0.24 1.39,0.21 2.05,-0.09l14.71 -6.88c0.39,-0.18 0.81,-0.27 1.22,-0.27zm30.01 50.02c-0.96,0 -1.92,-0.16 -2.88,-0.51l-11.2 -4.06c-4.35,-1.59 -6.62,-6.43 -5.03,-10.78l4.74 -13.07c-6.38,-4.07 -11.93,-9.15 -16.55,-15.13l-12.58 5.88c-4.23,1.97 -9.24,0.15 -11.2,-4.06l-5.05 -10.8c-0.95,-2.04 -1.05,-4.32 -0.28,-6.44 0.77,-2.12 2.32,-3.8 4.35,-4.75l12.59 -5.88c-1.64,-7.39 -1.97,-14.9 -1,-22.41l-13.07 -4.74c-2.12,-0.77 -3.79,-2.32 -4.74,-4.35 -0.96,-2.04 -1.06,-4.32 -0.29,-6.44l4.06 -11.2c0.76,-2.11 2.31,-3.79 4.34,-4.75 2.04,-0.96 4.31,-1.07 6.45,-0.29l13.06 4.74c4.06,-6.37 9.15,-11.92 15.14,-16.54l-5.88 -12.6c-0.96,-2.03 -1.06,-4.32 -0.29,-6.44 0.77,-2.12 2.32,-3.8 4.35,-4.75l10.79 -5.04c2.04,-0.96 4.32,-1.06 6.44,-0.29 2.11,0.77 3.8,2.32 4.75,4.35l5.89 12.59c7.39,-1.63 14.89,-1.96 22.4,-1l4.74 -13.06c0.77,-2.12 2.32,-3.8 4.35,-4.76 2.04,-0.96 4.33,-1.05 6.44,-0.28l11.2 4.06c2.12,0.77 3.8,2.32 4.76,4.34 0.95,2.05 1.05,4.33 0.28,6.45l-4.73 13.07c6.37,4.06 11.92,9.14 16.54,15.13l12.58 -5.88c2.05,-0.96 4.32,-1.06 6.44,-0.29 2.12,0.77 3.8,2.31 4.76,4.34l5.04 10.8c0.96,2.04 1.06,4.32 0.29,6.45 -0.77,2.11 -2.31,3.8 -4.34,4.75l-12.6 5.88c1.64,7.38 1.97,14.9 1,22.4l13.07 4.75c4.35,1.59 6.62,6.42 5.04,10.79l-4.07 11.2c-1.59,4.36 -6.43,6.63 -10.78,5.03l-13.08 -4.73c-4.06,6.38 -9.14,11.92 -15.13,16.54l5.89 12.59c0.95,2.04 1.05,4.31 0.28,6.44 -0.77,2.12 -2.31,3.8 -4.35,4.76l-10.79 5.04c-4.19,1.95 -9.23,0.13 -11.2,-4.06l-5.87 -12.6c-7.39,1.64 -14.9,1.96 -22.41,1l-4.75 13.07c-1.24,3.41 -4.48,5.54 -7.92,5.54z"/>
    <path class="fil3" d="M4086.44 3695.99c0,170.96 -138.59,309.55 -309.55,309.55 -170.96,0 -309.55,-138.59 -309.55,-309.55 0,-170.96 138.59,-309.55 309.55,-309.55 170.96,0 309.55,138.59 309.55,309.55z"/>
    <path class="fil4" d="M3776.89 3389.31c-169.1,0 -306.69,137.58 -306.69,306.69 0,169.11 137.58,306.69 306.69,306.69 169.1,0 306.68,-137.57 306.68,-306.69 0,-169.1 -137.57,-306.69 -306.68,-306.69zm0 619.11c-172.27,0 -312.42,-140.16 -312.42,-312.43 0,-172.26 140.15,-312.42 312.42,-312.42 172.27,0 312.42,140.16 312.42,312.42 0,172.27 -140.15,312.43 -312.42,312.43z"/>
    <path class="fil5" d="M4010.94 3695.99c0,131.31 -106.45,237.76 -237.75,237.76 -131.31,0 -237.76,-106.45 -237.76,-237.76 0,-131.3 106.45,-237.75 237.76,-237.75 131.3,0 237.75,106.45 237.75,237.75z"/>
    <path class="fil4" d="M3773.19 3461.11c-129.51,0 -234.89,105.37 -234.89,234.88 0,129.52 105.38,234.88 234.89,234.88 129.51,0 234.88,-105.36 234.88,-234.88 0,-129.51 -105.37,-234.88 -234.88,-234.88zm0 475.51c-132.69,0 -240.63,-107.94 -240.63,-240.63 0,-132.68 107.94,-240.63 240.63,-240.63 132.67,0 240.62,107.95 240.62,240.63 0,132.69 -107.95,240.63 -240.62,240.63z"/>
    <path class="fil8" d="M3857.79 3841.72l-176.33 0c-14.08,0 -25.48,-11.41 -25.48,-25.48l0 -228.22c0,-14.07 11.4,-25.48 25.48,-25.48l176.33 0c14.08,0 25.48,11.41 25.48,25.48l0 228.22c0,14.07 -11.4,25.48 -25.48,25.48z"/>
    <path class="fil4" d="M3681.45 3565.4c-12.46,0 -22.61,10.14 -22.61,22.62l0 228.22c0,12.47 10.14,22.61 22.61,22.61l176.34 0c12.47,0 22.62,-10.13 22.62,-22.61l0 -228.22c0,-12.47 -10.14,-22.62 -22.62,-22.62l-176.34 0zm176.34 279.19l-176.34 0c-15.63,0 -28.35,-12.72 -28.35,-28.35l0 -228.22c0,-15.63 12.72,-28.35 28.35,-28.35l176.34 0c15.63,0 28.35,12.72 28.35,28.35l0 228.22c0,15.63 -12.72,28.35 -28.35,28.35z"/>
    <path class="fil3" d="M3855.46 3817.32l-171.69 0c-4.38,0 -7.94,-3.55 -7.94,-7.94l0 -214.51c0,-4.38 3.55,-7.94 7.94,-7.94l171.69 0c4.39,0 7.95,3.55 7.95,7.94l0 214.51c0,4.38 -3.55,7.94 -7.95,7.94z"/>
    <path class="fil4" d="M3683.77 3589.81c-2.8,0 -5.06,2.28 -5.06,5.07l0 214.51c0,2.8 2.27,5.07 5.06,5.07l171.7 0c2.79,0 5.07,-2.28 5.07,-5.07l0 -214.51c0,-2.8 -2.29,-5.07 -5.07,-5.07l-171.7 0zm171.7 230.38l-171.7 0c-5.96,0 -10.8,-4.84 -10.8,-10.8l0 -214.51c0,-5.96 4.84,-10.81 10.8,-10.81l171.7 0c5.96,0 10.8,4.85 10.8,10.81l0 214.51c0,5.96 -4.84,10.8 -10.8,10.8z"/>
    <path class="fil4" d="M3806.45 3547.09l-22.84 0c-1.73,-6.13 -7.31,-10.65 -13.99,-10.65 -6.69,0 -12.26,4.52 -13.99,10.65l-22.85 0c-3.7,0 -6.72,3.02 -6.72,6.72l0 18.07c0,3.7 3.02,6.71 6.72,6.71l73.66 0c3.71,0 6.72,-3.01 6.72,-6.71l0 -18.07c0,-3.7 -3.01,-6.72 -6.72,-6.72z"/>
    <path class="fil4" d="M3732.79 3548.53c-2.92,0 -5.28,2.37 -5.28,5.28l0 18.07c0,2.92 2.37,5.28 5.28,5.28l73.66 0c2.92,0 5.28,-2.37 5.28,-5.28l0 -18.07c0,-2.92 -2.37,-5.28 -5.28,-5.28l-22.84 0c-0.65,0 -1.21,-0.42 -1.39,-1.05 -1.59,-5.65 -6.77,-9.61 -12.6,-9.61 -5.83,0 -11.01,3.95 -12.61,9.61 -0.17,0.63 -0.74,1.05 -1.38,1.05l-22.85 0zm73.66 31.5l-73.66 0c-4.49,0 -8.15,-3.65 -8.15,-8.15l0 -18.07c0,-4.49 3.65,-8.15 8.15,-8.15l21.8 0c2.26,-6.32 8.29,-10.65 15.04,-10.65 6.74,0 12.78,4.33 15.03,10.65l21.8 0c4.49,0 8.16,3.65 8.16,8.15l0 18.07c0,4.49 -3.66,8.15 -8.16,8.15z"/>
    <path class="fil3" d="M3774.51 3555.37c0,2.7 -2.19,4.88 -4.88,4.88 -2.71,0 -4.89,-2.19 -4.89,-4.88 0,-2.71 2.19,-4.89 4.89,-4.89 2.7,0 4.88,2.19 4.88,4.89z"/>
    <path class="fil3" d="M3769.62 3551.91c-1.91,0 -3.45,1.55 -3.45,3.45 0,1.91 1.55,3.45 3.45,3.45 1.91,0 3.45,-1.55 3.45,-3.45 0,-1.91 -1.55,-3.45 -3.45,-3.45zm0 9.78c-3.48,0 -6.32,-2.84 -6.32,-6.32 0,-3.48 2.84,-6.32 6.32,-6.32 3.48,0 6.32,2.84 6.32,6.32 0,3.48 -2.84,6.32 -6.32,6.32z"/>
    <line class="fil9" x1="3725.17" y1="3629.18" x2="3814.07" y2= "3629.18" />
    <path class="fil4" d="M3814.07 3632.04l-88.9 0c-1.58,0 -2.87,-1.28 -2.87,-2.87 0,-1.58 1.29,-2.87 2.87,-2.87l88.9 0c1.59,0 2.87,1.29 2.87,2.87 0,1.59 -1.28,2.87 -2.87,2.87z"/>
    <line class="fil9" x1="3774.75" y1="3668.37" x2="3839.13" y2= "3668.37" />
    <path class="fil4" d="M3839.13 3671.24l-64.38 0c-1.59,0 -2.87,-1.29 -2.87,-2.88 0,-1.59 1.28,-2.87 2.87,-2.87l64.38 0c1.59,0 2.88,1.28 2.88,2.87 0,1.59 -1.29,2.88 -2.88,2.88z"/>
    <line class="fil9" x1="3700.11" y1="3668.37" x2="3752.02" y2= "3668.37" />
    <path class="fil4" d="M3752.02 3671.24l-51.91 0c-1.58,0 -2.87,-1.29 -2.87,-2.88 0,-1.59 1.29,-2.87 2.87,-2.87l51.91 0c1.59,0 2.87,1.28 2.87,2.87 0,1.59 -1.28,2.88 -2.87,2.88z"/>
    <line class="fil9" x1="3700.11" y1="3701.24" x2="3796.8" y2= "3701.24" />
    <path class="fil4" d="M3796.8 3704.11l-96.69 0c-1.58,0 -2.87,-1.29 -2.87,-2.88 0,-1.59 1.29,-2.87 2.87,-2.87l96.69 0c1.59,0 2.87,1.28 2.87,2.87 0,1.59 -1.28,2.88 -2.87,2.88z"/>
    <line class="fil9" x1="3815.51" y1="3701.24" x2="3839.13" y2= "3701.24" />
    <path class="fil4" d="M3839.13 3704.11l-23.61 0c-1.59,0 -2.87,-1.29 -2.87,-2.88 0,-1.59 1.28,-2.87 2.87,-2.87l23.61 0c1.59,0 2.88,1.28 2.88,2.87 0,1.59 -1.29,2.88 -2.88,2.88z"/>
    <line class="fil9" x1="3700.11" y1="3738.53" x2="3839.13" y2= "3738.53" />
    <path class="fil4" d="M3839.13 3741.41l-139.02 0c-1.58,0 -2.87,-1.29 -2.87,-2.88 0,-1.58 1.29,-2.87 2.87,-2.87l139.02 0c1.59,0 2.88,1.29 2.88,2.87 0,1.59 -1.29,2.88 -2.88,2.88z"/>
    <line class="fil9" x1="3736.14" y1="3777.73" x2="3803.1" y2= "3777.73" />
    <path class="fil4" d="M3803.1 3780.6l-66.96 0c-1.59,0 -2.87,-1.29 -2.87,-2.87 0,-1.59 1.28,-2.88 2.87,-2.88l66.96 0c1.59,0 2.87,1.29 2.87,2.88 0,1.58 -1.28,2.87 -2.87,2.87z"/>
    <path class="fil8" d="M6717.88 3691.5c0,82.72 -67.07,149.78 -149.79,149.78 -82.72,0 -149.78,-67.06 -149.78,-149.78 0,-82.73 67.06,-149.79 149.78,-149.79 82.72,0 149.79,67.06 149.79,149.79z"/>
    <path class="fil4" d="M6568.09 3544.57c-81.02,0 -146.92,65.91 -146.92,146.93 0,81.01 65.9,146.92 146.92,146.92 81.02,0 146.92,-65.91 146.92,-146.92 0,-81.02 -65.9,-146.93 -146.92,-146.93zm0 299.58c-84.17,0 -152.66,-68.48 -152.66,-152.65 0,-84.17 68.49,-152.66 152.66,-152.66 84.17,0 152.66,68.49 152.66,152.66 0,84.17 -68.49,152.65 -152.66,152.65z"/>
    <path class="fil3" d="M6686.8 3691.5c0,65.55 -53.15,118.71 -118.71,118.71 -65.56,0 -118.71,-53.16 -118.71,-118.71 0,-65.57 53.15,-118.71 118.71,-118.71 65.56,0 118.71,53.14 118.71,118.71z"/>
    <path class="fil4" d="M6568.09 3575.66c-63.87,0 -115.84,51.96 -115.84,115.84 0,63.87 51.97,115.84 115.84,115.84 63.87,0 115.84,-51.97 115.84,-115.84 0,-63.88 -51.97,-115.84 -115.84,-115.84zm0 237.42c-67.04,0 -121.58,-54.54 -121.58,-121.58 0,-67.04 54.54,-121.58 121.58,-121.58 67.04,0 121.59,54.54 121.59,121.58 0,67.04 -54.55,121.58 -121.59,121.58z"/>
    <path class="fil8" d="M6583.25 3758.53l0 13.79 -29.41 0 0 -13.71c-23.96,-4.37 -38.82,-20.15 -38.82,-44.01l37.62 0c0,8.9 7.28,13.35 15.43,13.35 7.64,0 14.92,-3.88 14.92,-10.67 0,-8.25 -10.21,-10.63 -22.74,-13.73 -19.12,-4.75 -43.45,-10.65 -43.45,-40.66 0,-21.37 13.24,-35.23 35.72,-39.25l0 -12.96 29.42 0 0 13.09c22.34,4.37 34.94,19.09 34.94,41.01l-36.53 0.09c0,-7.73 -6.18,-11.5 -13.73,-11.5 -6.56,0 -12.83,2.71 -12.83,8.39 0,7.56 9.91,10.02 22.45,13.21 19.48,5.02 44.92,11.4 44.92,41.59 0,23.56 -15.22,37.77 -37.89,41.99z"/>
    <path class="fil4" d="M6556.71 3769.44l23.67 0 0 -10.91c0,-1.39 0.99,-2.57 2.35,-2.82 22.92,-4.25 35.54,-18.16 35.54,-39.17 0,-27.77 -23.5,-33.85 -42.4,-38.72 -13.65,-3.46 -24.96,-6.34 -24.96,-16.08 0,-6.73 6.31,-11.25 15.7,-11.25 8.78,0 15.01,4.51 16.34,11.49l30.98 -0.07c-1.04,-18.92 -12.5,-31.42 -32.55,-35.34 -1.35,-0.26 -2.32,-1.44 -2.32,-2.82l0 -10.22 -23.66 0 0 10.09c0,1.39 -1,2.59 -2.37,2.83 -21.52,3.84 -33.36,16.77 -33.36,36.42 0,27.62 21.78,33.03 41,37.8l0.85 0.21c13.07,3.23 24.34,6.01 24.34,16.38 0,8.9 -8.95,13.54 -17.78,13.54 -9.66,0 -16.7,-5.36 -18.06,-13.35l-32.04 0c1.12,20.39 14.24,34.29 36.39,38.32 1.36,0.25 2.35,1.44 2.35,2.83l0 10.83zm26.54 5.73l-29.41 0c-1.58,0 -2.87,-1.27 -2.87,-2.87l0 -11.35c-24.36,-5.31 -38.82,-22.5 -38.82,-46.36 0,-1.59 1.28,-2.88 2.87,-2.88l37.62 0c1.59,0 2.87,1.29 2.87,2.88 0,7.74 6.77,10.48 12.56,10.48 5.84,0 12.05,-2.74 12.05,-7.81 0,-5.59 -7.6,-7.75 -19.98,-10.8l-0.58 -0.14c-19.42,-4.83 -45.64,-11.34 -45.64,-43.44 0,-21.67 12.99,-36.72 35.73,-41.61l0 -10.6c0,-1.58 1.29,-2.87 2.87,-2.87l29.41 0c1.59,0 2.87,1.29 2.87,2.87l0 10.77c22.26,5.19 34.95,20.87 34.95,43.32 0,1.59 -1.28,2.87 -2.86,2.87l-36.53 0.09 -0.01 0c-0.76,0 -1.49,-0.3 -2.03,-0.84 -0.53,-0.54 -0.84,-1.27 -0.84,-2.03 0,-8.01 -8.32,-8.63 -10.86,-8.63 -4.79,0 -9.96,1.73 -9.96,5.51 0,5.02 7.64,7.22 20.08,10.37 0.01,0 0.58,0.15 0.59,0.15 19.7,5.08 46.7,12.06 46.7,44.27 0,23 -13.77,39.04 -37.88,44.33l0 11.43c0,1.6 -1.29,2.87 -2.88,2.87z"/>
   </g>
   <g>
    <g>
     <path class="fil4" d="M5701.51 2065.88c0,551.76 -447.29,999.05 -999.04,999.05 -551.75,0 -999.05,-447.28 -999.05,-999.05 0,-551.76 447.29,-999.06 999.05,-999.06 551.74,0 999.04,447.29 999.04,999.06z"/>
     <path class="fil4" d="M4702.47 1076.08c-545.78,0 -989.79,444.04 -989.79,989.8 0,545.77 444.01,989.8 989.79,989.8 545.77,0 989.78,-444.03 989.78,-989.8 0,-545.76 -444.01,-989.8 -989.78,-989.8zm0 1998.11c-555.98,0 -1008.3,-452.34 -1008.3,-1008.31 0,-555.97 452.33,-1008.31 1008.3,-1008.31 555.97,0 1008.29,452.35 1008.29,1008.31 0,555.98 -452.33,1008.31 -1008.29,1008.31z"/>
    </g>
    <g>
     <path class="fil10" d="M4149.36 2049.18l-68.02 0c-11.61,0 -22.94,-5.8 -29.57,-16.35 -6.65,-10.53 -6.97,-23.24 -1.98,-33.71l99.56 -208.15 0 258.21z"/>
     <polygon class="fil11" points="5023.39,2553.06 5121.35,2553.06 5121.35,2428.61 5023.39,2428.61 "/>
     <polygon class="fil12" points="5023.39,2553.06 5056.8,2553.06 5056.8,2428.61 5023.39,2428.61 "/>
     <path class="fil11" d="M5247.54 2490.84c0,55.37 -34.43,100.25 -76.92,100.25 -42.5,0 -76.92,-44.88 -76.92,-100.25 0,-55.38 34.43,-100.27 76.92,-100.27 42.5,0 76.92,44.89 76.92,100.27z"/>
     <path class="fil11" d="M5320.7 2403.83c0,47.42 -38.44,85.86 -85.85,85.86 -47.41,0 -85.86,-38.44 -85.86,-85.86 0,-47.41 38.45,-85.86 85.86,-85.86 47.41,0 85.85,38.45 85.85,85.86z"/>
     <path class="fil11" d="M5340.89 2493.15c0,27.05 -21.93,48.98 -49,48.98 -27.04,0 -48.98,-21.93 -48.98,-48.98 0,-27.04 21.94,-48.98 48.98,-48.98 27.07,0 49,21.94 49,48.98z"/>
     <path class="fil11" d="M5320.7 2579c0,47.41 -38.44,85.84 -85.85,85.84 -47.41,0 -85.86,-38.43 -85.86,-85.84 0,-47.41 38.45,-85.86 85.86,-85.86 47.41,0 85.85,38.45 85.85,85.86z"/>
     <path class="fil10" d="M5279.23 2403.83c0,24.5 -19.88,44.37 -44.37,44.37 -24.5,0 -44.36,-19.87 -44.36,-44.37 0,-24.5 19.86,-44.37 44.36,-44.37 24.49,0 44.37,19.87 44.37,44.37z"/>
     <path class="fil10" d="M5279.23 2579c0,24.5 -19.88,44.36 -44.37,44.36 -24.5,0 -44.36,-19.86 -44.36,-44.36 0,-24.5 19.86,-44.37 44.36,-44.37 24.49,0 44.37,19.87 44.37,44.37z"/>
     <path class="fil10" d="M5309.19 2493.15c0,9.55 -7.74,17.29 -17.29,17.29 -9.54,0 -17.28,-7.75 -17.28,-17.29 0,-9.54 7.75,-17.28 17.28,-17.28 9.56,0 17.29,7.75 17.29,17.28z"/>
     <path class="fil13" d="M4978.02 1448.91c-34.13,-34.13 -78.85,-51.18 -123.58,-51.18l-541.81 0c-44.72,0 -89.45,17.05 -123.58,51.18 -34.13,34.14 -51.18,78.87 -51.18,123.58l0 668.52c0,44.74 17.05,89.47 51.18,123.6 34.13,34.13 78.86,51.18 123.58,51.18l71.36 0 0 249.04 645.23 0 0 -1092.35c0,-44.71 -17.07,-89.44 -51.2,-123.58z"/>
     <path class="fil14" d="M4312.63 2063.34c-28,0 -54.34,-10.9 -74.15,-30.71 -19.8,-19.81 -30.7,-46.16 -30.7,-74.16l0 -385.98c0,-28.01 10.9,-54.34 30.7,-74.15 19.81,-19.8 46.15,-30.7 74.15,-30.7l541.81 0c28.02,0 54.35,10.9 74.16,30.7 19.81,19.81 30.71,46.14 30.71,74.15l0 385.98c0,28 -10.9,54.35 -30.71,74.16 -19.81,19.81 -46.14,30.71 -74.16,30.71l-541.81 0z"/>
     <path class="fil9 str0" d="M4312.63 2063.34c-28,0 -54.34,-10.9 -74.15,-30.71 -19.8,-19.81 -30.7,-46.16 -30.7,-74.16l0 -385.98c0,-28.01 10.9,-54.34 30.7,-74.15 19.81,-19.8 46.15,-30.7 74.15,-30.7l541.81 0c28.02,0 54.35,10.9 74.16,30.7 19.81,19.81 30.71,46.14 30.71,74.15l0 385.98c0,28 -10.9,54.35 -30.71,74.16 -19.81,19.81 -46.14,30.71 -74.16,30.71l-541.81 0z"/>
     <line class="fil9 str0" x1="4624.34" y1="2063.34" x2="4624.34" y2= "2664.84" />
     <path class="fil14" d="M4587.21 2146.35c0,10.45 -8.49,18.94 -18.96,18.94 -10.43,0 -18.93,-8.49 -18.93,-18.94 0,-10.46 8.5,-18.95 18.93,-18.95 10.47,0 18.96,8.49 18.96,18.95z"/>
     <path class="fil9 str1" d="M4587.21 2146.35c0,10.45 -8.49,18.94 -18.96,18.94 -10.43,0 -18.93,-8.49 -18.93,-18.94 0,-10.46 8.5,-18.95 18.93,-18.95 10.47,0 18.96,8.49 18.96,18.95z"/>
     <path class="fil14" d="M4568.24 2275.99c-10.43,0 -18.93,-8.49 -18.93,-18.95 0,-10.47 8.5,-18.96 18.93,-18.96 10.47,0 18.96,8.49 18.96,18.96 0,10.46 -8.49,18.95 -18.96,18.95z"/>
     <path class="fil9 str1" d="M4568.24 2275.99c-10.43,0 -18.93,-8.49 -18.93,-18.95 0,-10.47 8.5,-18.96 18.93,-18.96 10.47,0 18.96,8.49 18.96,18.96 0,10.46 -8.49,18.95 -18.96,18.95z"/>
     <path class="fil14" d="M4568.24 2386.68c-10.43,0 -18.93,-8.49 -18.93,-18.95 0,-10.47 8.5,-18.94 18.93,-18.94 10.47,0 18.96,8.47 18.96,18.94 0,10.46 -8.49,18.95 -18.96,18.95z"/>
     <path class="fil9 str1" d="M4568.24 2386.68c-10.43,0 -18.93,-8.49 -18.93,-18.95 0,-10.47 8.5,-18.94 18.93,-18.94 10.47,0 18.96,8.47 18.96,18.94 0,10.46 -8.49,18.95 -18.96,18.95z"/>
     <path class="fil14" d="M4568.24 2497.37c-10.43,0 -18.93,-8.48 -18.93,-18.95 0,-10.46 8.5,-18.93 18.93,-18.93 10.47,0 18.96,8.47 18.96,18.93 0,10.47 -8.49,18.95 -18.96,18.95z"/>
     <path class="fil9 str1" d="M4568.24 2497.37c-10.43,0 -18.93,-8.48 -18.93,-18.95 0,-10.46 8.5,-18.93 18.93,-18.93 10.47,0 18.96,8.47 18.96,18.93 0,10.47 -8.49,18.95 -18.96,18.95z"/>
     <path class="fil14" d="M4587.21 2589.12c0,10.45 -8.49,18.94 -18.96,18.94 -10.43,0 -18.93,-8.49 -18.93,-18.94 0,-10.45 8.5,-18.95 18.93,-18.95 10.47,0 18.96,8.5 18.96,18.95z"/>
     <path class="fil9 str1" d="M4587.21 2589.12c0,10.45 -8.49,18.94 -18.96,18.94 -10.43,0 -18.93,-8.49 -18.93,-18.94 0,-10.45 8.5,-18.95 18.93,-18.95 10.47,0 18.96,8.5 18.96,18.95z"/>
     <path class="fil13" d="M4700.78 1511.34c0,8.93 -3.42,17.88 -10.24,24.7 -6.84,6.83 -15.77,10.23 -24.72,10.23l-164.56 0c-8.96,0 -17.88,-3.4 -24.72,-10.23 -6.81,-6.82 -10.24,-15.78 -10.24,-24.7l0 -84.48 234.49 0 0 84.48z"/>
     <path class="fil9 str0" d="M4700.78 1458.9l0 52.44c0,8.93 -3.42,17.88 -10.24,24.7 -6.84,6.83 -15.77,10.23 -24.72,10.23l-164.56 0c-8.96,0 -17.88,-3.4 -24.72,-10.23 -6.81,-6.82 -10.24,-15.78 -10.24,-24.7l0 -52.44"/>
     <line class="fil9 str0" x1="4624.34" y1="1396.3" x2="4624.34" y2= "1543.37" />
     <path class="fil14" d="M4584.3 1437.05c0,8.85 -7.19,16.04 -16.06,16.04 -8.86,0 -16.03,-7.19 -16.03,-16.04 0,-8.86 7.17,-16.04 16.03,-16.04 8.87,0 16.06,7.18 16.06,16.04z"/>
     <path class="fil9 str1" d="M4584.3 1437.05c0,8.85 -7.19,16.04 -16.06,16.04 -8.86,0 -16.03,-7.19 -16.03,-16.04 0,-8.86 7.17,-16.04 16.03,-16.04 8.87,0 16.06,7.18 16.06,16.04z"/>
     <path class="fil14" d="M4568.24 1513.04c-8.86,0 -16.03,-7.18 -16.03,-16.04 0,-8.86 7.17,-16.04 16.03,-16.04 8.87,0 16.06,7.18 16.06,16.04 0,8.86 -7.19,16.04 -16.06,16.04z"/>
     <path class="fil9 str1" d="M4568.24 1513.04c-8.86,0 -16.03,-7.18 -16.03,-16.04 0,-8.86 7.17,-16.04 16.03,-16.04 8.87,0 16.06,7.18 16.06,16.04 0,8.86 -7.19,16.04 -16.06,16.04z"/>
     <path class="fil11" d="M4300.95 1858.9c-9.87,-10.04 -15.95,-23.82 -15.95,-39.01 0,-29.02 22.18,-52.85 50.49,-55.5 -3.04,-6.91 -4.79,-14.53 -4.79,-22.57 0,-30.78 24.97,-55.76 55.8,-55.76 4.24,0 8.34,0.52 12.33,1.41 0,-0.46 -0.09,-0.92 -0.09,-1.41 0,-30.78 24.97,-55.76 55.77,-55.76 11.5,0 22.23,3.5 31.11,9.47 6.57,-23.45 28.05,-40.69 53.64,-40.69 18.59,0 35.05,9.14 45.17,23.15 10.12,-14.02 26.56,-23.15 45.15,-23.15 25.24,0 46.54,16.75 53.42,39.75 8.93,-6.08 19.7,-9.64 31.32,-9.64 30.8,0 55.78,24.94 55.78,55.75 0,0.95 -0.1,1.89 -0.15,2.84 4.36,-1.09 8.88,-1.72 13.53,-1.72 30.8,0 55.77,24.97 55.77,55.76 0,8.01 -1.74,15.62 -4.77,22.51 28.85,2.16 51.61,26.17 51.61,55.56 0,15.09 -6,28.77 -15.74,38.77 20.26,8.38 34.52,28.3 34.52,51.57 0,30.78 -22.63,86.71 -69.79,86.71l-303.26 0c-4.87,0 -91.76,-30.95 -96.58,-30.95 -33.71,0 -83.32,0 -112.47,0 -30.8,0 -55.77,-24.97 -55.77,-55.76 0,-23.08 13.98,-42.85 33.96,-51.33z"/>
     <path class="fil9 str2" d="M4450.94 1965.98c-33.69,0 -97.37,0 -128.19,0 -30.8,0 -55.77,-24.97 -55.77,-55.76 0,-23.08 13.98,-42.85 33.96,-51.33 -9.87,-10.04 -15.95,-23.82 -15.95,-39.01 0,-29.02 22.18,-52.85 50.49,-55.5 -3.04,-6.91 -4.79,-14.53 -4.79,-22.57 0,-30.78 24.97,-55.76 55.8,-55.76 4.24,0 8.34,0.52 12.33,1.41 0,-0.46 -0.09,-0.92 -0.09,-1.41 0,-30.78 24.97,-55.76 55.77,-55.76 11.5,0 22.23,3.5 31.11,9.47 6.57,-23.45 28.05,-40.69 53.64,-40.69 18.59,0 35.05,9.14 45.17,23.15 10.12,-14.02 26.56,-23.15 45.15,-23.15 25.24,0 46.54,16.75 53.42,39.75 8.93,-6.08 19.7,-9.64 31.32,-9.64 30.8,0 55.78,24.94 55.78,55.75 0,0.95 -0.1,1.89 -0.15,2.84 4.36,-1.09 8.88,-1.72 13.53,-1.72 30.8,0 55.77,24.97 55.77,55.76 0,8.01 -1.74,15.62 -4.77,22.51 28.85,2.16 51.61,26.17 51.61,55.56 0,15.31 -8.34,40.03 -24.05,49"/>
     <path class="fil9 str2" d="M4513.61 1894.17c9.52,-17.1 27.75,-27.14 48.73,-27.14 20.31,0 38.03,10.92 47.79,27.14 9.74,-16.22 27.46,-27.14 47.78,-27.14 20.36,0 38.07,10.92 47.85,27.14 9.72,-16.22 27.46,-27.14 47.75,-27.14 20.34,0 38.06,10.92 47.81,27.14 9.75,-16.22 27.48,-27.14 47.8,-27.14 30.8,0 55.86,24.98 55.77,55.77 -0.16,53.91 -29.36,74.14 -90.03,74.14l-244.82 0c-60.67,0 -130.31,-11.24 -152.76,-87.62 -19.24,-65.43 24.69,-146.01 87.38,-148.45 25.11,-1.01 45.15,4.67 61.86,21.46 10.09,-14.33 26.71,-23.72 45.57,-23.72 20.32,0 38.02,10.93 47.8,27.17 9.74,-16.24 27.48,-27.17 47.79,-27.17 19.26,0 35.6,11.16 46.25,27.17"/>
     <line class="fil9 str2" x1="4801.3" y1="1948.43" x2="4801.3" y2= "1991.69" />
     <line class="fil9 str2" x1="4836.77" y1="1762.94" x2="4810.46" y2= "1777.59" />
     <line class="fil9 str2" x1="4770.47" y1="1688.05" x2="4749.62" y2= "1709.77" />
     <line class="fil9 str2" x1="4681.37" y1="1641.2" x2="4671.48" y2= "1669.63" />
     <line class="fil9 str2" x1="4332.46" y1="1762.94" x2="4358.75" y2= "1777.59" />
     <line class="fil9 str2" x1="4301.98" y1="1859.42" x2="4331.29" y2= "1866.22" />
     <line class="fil9 str2" x1="4398.74" y1="1688.05" x2="4419.62" y2= "1709.77" />
     <line class="fil9 str2" x1="4487.88" y1="1641.2" x2="4497.73" y2= "1669.63" />
     <line class="fil9 str2" x1="4585.11" y1="1624.73" x2="4584.82" y2= "1654.86" />
     <line class="fil9 str2" x1="4705.75" y1="1948.43" x2="4705.75" y2= "1991.69" />
     <path class="fil14" d="M5029.23 2351.7l-34.97 0c-8.94,0 -17.89,-3.41 -24.7,-10.22 -6.83,-6.84 -10.24,-15.79 -10.24,-24.72l0 -100.5c0,-8.96 3.41,-17.9 10.24,-24.72 6.81,-6.82 15.77,-10.24 24.7,-10.24l34.97 0 0 170.41z"/>
     <polygon class="fil15" points="4987.71,2227.06 5029.22,2227.06 5029.22,2208.06 4987.71,2208.06 "/>
     <polygon class="fil15" points="4987.71,2259.4 5029.22,2259.4 5029.22,2240.39 4987.71,2240.39 "/>
     <polygon class="fil15" points="4987.71,2292.16 5029.22,2292.16 5029.22,2273.15 4987.71,2273.15 "/>
     <polygon class="fil15" points="4987.71,2324.93 5029.22,2324.93 5029.22,2305.92 4987.71,2305.92 "/>
     <path class="fil14" d="M5029.23 2577.28l-34.97 0c-8.94,0 -17.89,-3.41 -24.7,-10.24 -6.83,-6.82 -10.24,-15.77 -10.24,-24.72l0 -100.5c0,-8.94 3.41,-17.88 10.24,-24.7 6.81,-6.83 15.77,-10.25 24.7,-10.25l34.97 0 0 170.42z"/>
     <polygon class="fil15" points="4987.71,2452.64 5029.22,2452.64 5029.22,2433.62 4987.71,2433.62 "/>
     <polygon class="fil15" points="4987.71,2484.96 5029.22,2484.96 5029.22,2465.95 4987.71,2465.95 "/>
     <polygon class="fil15" points="4987.71,2517.74 5029.22,2517.74 5029.22,2498.74 4987.71,2498.74 "/>
     <polygon class="fil15" points="4987.71,2550.51 5029.22,2550.51 5029.22,2531.5 4987.71,2531.5 "/>
    </g>
   </g>
  </g>
 </g>
</svg>
