<?xml version="1.0" encoding="UTF-8"?>
<!DOCTYPE svg PUBLIC "-//W3C//DTD SVG 1.1//EN" "http://www.w3.org/Graphics/SVG/1.1/DTD/svg11.dtd">
<!-- Creator: CorelDRAW 2020 (64-Bit) -->
<svg xmlns="http://www.w3.org/2000/svg" xml:space="preserve" width="94.1916mm" height="52.9166mm" version="1.1" style="shape-rendering:geometricPrecision; text-rendering:geometricPrecision; image-rendering:optimizeQuality; fill-rule:evenodd; clip-rule:evenodd"
viewBox="0 0 9404.92 5283.66"
 xmlns:xlink="http://www.w3.org/1999/xlink"
 xmlns:xodm="http://www.corel.com/coreldraw/odm/2003">
 <defs>
  <style type="text/css">
   <![CDATA[
    .fil11 {fill:#23A287}
    .fil13 {fill:#5FC4B4}
    .fil3 {fill:#67459C}
    .fil5 {fill:#CF246A}
    .fil0 {fill:#E6E7E8}
    .fil7 {fill:#F58020}
    .fil9 {fill:#FAC110}
    .fil12 {fill:#23A287;fill-rule:nonzero}
    .fil15 {fill:#453163;fill-rule:nonzero}
    .fil14 {fill:#5FC4B4;fill-rule:nonzero}
    .fil4 {fill:#67459C;fill-rule:nonzero}
    .fil6 {fill:#CF246A;fill-rule:nonzero}
    .fil8 {fill:#F58020;fill-rule:nonzero}
    .fil10 {fill:#FAC110;fill-rule:nonzero}
    .fil2 {fill:#373435;fill-opacity:0.031373}
    .fil1 {fill:#2B2A29;fill-opacity:0.101961}
   ]]>
  </style>
 </defs>
 <g id="Layer_x0020_1">
  <metadata id="CorelCorpID_0Corel-Layer"/>
  <polygon class="fil0" points="-0,0 9404.92,0 9404.92,5283.66 -0,5283.66 "/>
  <polygon class="fil1" points="-0,3642.81 -0,3640.82 -0,3636.35 -0,3617.09 -0,3557.02 -0,3534.14 -0,3505.17 -0,3480.18 -0,3461.16 -0,3394.52 -0,3336.27 -0,3312.8 -0,3290.1 -0,3288.33 -0,3281.03 -0,3241.17 -0,3240.19 -0,3224.33 -0,3221.79 -0,3218.43 -0,3211.74 -0,3208.35 -0,3108.22 -0,3105.93 -0,3034.43 -0,3015.41 -0,3009.89 -0,2980.24 -0,2905.44 -0,2902.11 -0,2872.55 -0,2854.33 -0,2850.26 -0,2849.64 -0,2824.86 -0,2822.85 -0,2805.31 -0,2803.33 -0,2773.08 -0,2727.83 -0,2663.81 -0,2648.41 -0,2637.32 -0,2586.75 -0,2556.24 -0,2481.1 -0,2475.82 -0,2446.08 -0,2445.41 -0,2443.52 -0,2438.17 -0,2425.03 -0,2424.33 -0,2396.83 -0,2395.38 -0,2384.3 -0,2365.78 -0,2302.67 -0,2222.82 2298.93,1031.63 2257.15,1139.22 2330.48,1101.42 2351.92,1158.51 2602.34,1029.96 2599.63,1036.67 2596.41,1043.18 2592.68,1049.47 2588.43,1055.55 2586.06,1058.47 2797.68,949.97 2797.68,1408.68 2797.68,1410.85 4538.84,1410.23 3568.17,1869.34 4985.76,1868.93 3975,2327.39 5456.43,2327.04 4399.74,2786.04 5945.63,2785.74 4837.51,3246.14 6391.4,3246.49 5241.4,3703.59 6866.14,3703.45 6007.83,4029.4 6007.83,4065.42 6171.73,4003.34 6164.77,4006.74 6158.53,4010.67 6152.85,4015.14 6147.62,4020.18 6142.82,4025.79 6138.45,4031.97 6134.5,4038.71 6131.01,4046.01 6127.93,4053.88 6125.31,4062.32 6148.25,4066.39 6205.66,4044.74 6208.81,4043.8 6212.21,4043.06 6215.84,4042.54 6219.7,4042.22 6223.81,4042.12 6229.79,4042.24 6235.27,4042.61 6240.26,4043.22 6244.76,4044.07 6248.75,4045.17 6252.25,4046.51 6255.27,4048.1 6257.79,4049.93 6259.88,4052.08 6261.7,4054.54 6263.24,4057.33 6264.5,4060.44 6265.47,4063.89 6265.94,4066.41 6446.96,3998.36 6437.76,4001.82 6429.02,4006.26 6420.7,4011.7 6412.83,4018.12 6405.41,4025.52 6398.65,4033.84 6392.79,4043.06 6387.84,4053.16 6384.99,4060.86 6550.12,3998.96 6550.12,4032.7 6513.75,4046.3 6514.47,4046.59 6519.15,4049.12 6523.58,4052.2 6527.77,4055.83 6531.68,4060.02 6535.26,4064.8 6538.09,4069.73 6718.83,4002.3 6709.3,4007.02 6700.3,4012.79 6691.8,4019.62 6683.82,4027.5 6676.58,4036.29 6670.3,4045.88 6664.99,4056.28 6660.64,4067.49 6657.32,4079.25 6751.53,4044.25 6756.11,4043.07 6760.91,4042.36 6765.94,4042.12 6770.67,4042.34 6775.21,4043.01 6779.57,4044.13 6783.74,4045.69 6787.73,4047.7 6791.54,4050.16 6795.17,4053.06 6798.62,4056.43 6801.77,4060.19 6804.53,4064.38 6806.88,4068.98 6808.84,4073.98 6810.4,4079.4 6811.56,4085.24 6812.33,4091.49 6812.7,4098.14 6656.39,4155.88 6657.16,4159.04 6717.65,4136.71 6875.14,4136.71 6681.05,4208.09 6681.64,4208.81 6809.02,4161.97 6807.65,4166.29 6806.14,4170.31 6804.47,4174.01 6802.64,4177.41 6800.66,4180.49 6798.53,4183.28 6796.24,4185.74 6793.79,4187.91 6791.22,4189.79 6788.5,4191.42 6785.63,4192.8 6782.6,4193.94 6699.3,4224.52 6703.35,4227.36 6714.33,4233.08 6726.34,4237.52 6739.35,4240.7 6753.37,4242.6 6768.38,4243.24 6777.97,4242.96 6787.15,4242.11 6795.93,4240.69 6804.31,4238.71 6812.28,4236.17 3947.63,5283.66 3933.95,5283.66 3814.35,5283.66 3794.9,5283.66 3758.77,5283.66 3756.41,5283.66 3653.65,5283.66 3612.41,5283.66 3608.42,5283.66 3603.86,5283.66 3594.38,5283.66 3537.25,5283.66 3517.19,5283.66 3459.65,5283.66 3415.86,5283.66 3415.73,5283.66 3388.34,5283.66 3314.84,5283.66 3284.06,5283.66 3267.24,5283.66 3213.52,5283.66 3204.93,5283.66 3176.89,5283.66 3171.14,5283.66 3167.75,5283.66 3167.61,5283.66 3149.52,5283.66 3125.89,5283.66 3123.25,5283.66 3068.29,5283.66 3068.19,5283.66 3067.32,5283.66 3040.34,5283.66 3038.92,5283.66 3028.45,5283.66 2966.84,5283.66 2921.34,5283.66 2901.89,5283.66 2890.66,5283.66 2858.53,5283.66 2841.45,5283.66 2791.26,5283.66 2788.2,5283.66 2751.29,5283.66 2705,5283.66 2693.34,5283.66 2632.45,5283.66 2608.74,5283.66 2550.79,5283.66 2506.72,5283.66 2493.25,5283.66 2464.27,5283.66 2449.19,5283.66 2426.43,5283.66 2405.27,5283.66 2384.44,5283.66 2379.84,5283.66 2307.51,5283.66 2289.49,5283.66 2273.28,5283.66 2181.92,5283.66 2165.73,5283.66 2146.4,5283.66 2120.18,5283.66 2080.83,5283.66 2069.36,5283.66 2060.08,5283.66 2038.14,5283.66 1985.55,5283.66 1968.75,5283.66 1925.3,5283.66 1893.33,5283.66 1881.7,5283.66 1823.75,5283.66 1798.27,5283.66 1739.14,5283.66 1681.18,5283.66 1576.07,5283.66 1454.99,5283.66 1387.19,5283.66 1329.23,5283.66 1324.07,5283.66 1307.81,5283.66 1303.58,5283.66 1270.64,5283.66 1269.66,5283.66 1266.3,5283.66 1259.65,5283.66 1227.33,5283.66 1211.7,5283.66 1207.2,5283.66 1178.5,5283.66 1177.44,5283.66 1053.74,5283.66 1045.93,5283.66 1007.22,5283.66 982.6,5283.66 938.96,5283.66 937.91,5283.66 927.59,5283.66 894.57,5283.66 836.61,5283.66 785.51,5283.66 770.45,5283.66 752.01,5283.66 713.64,5283.66 694.06,5283.66 643.29,5283.66 635.69,5283.66 596.2,5283.66 584.13,5283.66 560.41,5283.66 469.43,5283.66 465.09,5283.66 413.17,5283.66 351.58,5283.66 301.23,5283.66 291.43,5283.66 256.73,5283.66 161.54,5283.66 151.43,5283.66 29.58,5283.66 -0,5283.66 -0,5255.96 -0,5229.53 -0,5153.87 -0,4899.6 -0,4786.31 -0,4706.35 -0,4697.22 -0,4661.14 -0,4605.55 -0,4568.06 -0,4541.89 -0,4513.43 -0,4511.32 -0,4493.06 -0,4481.8 -0,4481.39 -0,4479.13 -0,4461.14 -0,4402.59 -0,4348.81 -0,4347.42 -0,4323.93 -0,4237.58 -0,4181.62 -0,4144.66 -0,4135.26 -0,4134.03 -0,4130.35 -0,4124.79 -0,4086.57 -0,4085.89 -0,4070.41 -0,4061.81 -0,4060.37 -0,4058.37 -0,4051.83 -0,3977.92 -0,3946.06 -0,3923.82 -0,3860.81 -0,3818.49 -0,3760.77 -0,3739.54 -0,3698.05 -0,3668.07 -0,3668.03 -0,3644.35 "/>
  <path class="fil2" d="M548.54 4627.69c17.95,27.21 29.6,53.36 40.96,82.43 8.45,16.91 12.93,48.09 52.57,48.09 11.61,0 28.28,-3.42 43.06,-11.61 16.63,-8.73 29.32,-21.94 35.94,-42l15.85 -53.36 38.57 -19.02 2.64 2.64c-5.27,20.09 -6.59,39.36 -6.59,54.43 0,44.63 38.57,61.56 69.22,61.56 17.95,0 34.09,-8.73 34.09,-25.11 0,-21.13 -8.98,-57.06 -20.62,-89.29 17.95,-17.95 35.94,-35.94 56.53,-50.47l3.17 1.6c8.98,38.04 14,75.56 14,100.66 0,24.57 -10.83,51.79 -19.81,69.49 -18.49,34.87 -51.25,62.62 -90.87,62.62 -30.1,0 -63.65,-15.07 -86.66,-43.06l-1.32 0c-21.66,26.96 -55.22,51.25 -108.86,51.25l-16.63 0c-2.64,35.41 -10.29,60.49 -21.94,82.95 -31.95,62.34 -126.81,106.47 -216.1,106.47 -124.17,0 -186.51,-71.59 -186.51,-166.96 0,-58.91 19.27,-113.6 48.88,-152.42l24.29 10.04c-18.49,35.41 -30.91,68.68 -30.91,101.45 0,89.29 72.66,131.83 156.4,131.83 77.68,0 173.83,-49.41 191.28,-106.72 -6.59,-62.62 -30.1,-91.93 -66.04,-148.99 10.83,-19.02 24.83,-38.04 42.28,-58.38l3.17 0 0 0 0 0 -0.02 -0.09zm1432.13 -336.04c26.15,16.39 51.79,35.66 76.87,57.85 -14,19.81 -31.45,37.79 -53.11,53.64 -25.11,-20.34 -50.19,-37.79 -75.84,-56.27 17.42,-19.55 34.62,-38.29 52.04,-55.22l0 0 0 0 0 0 0 0 0 0 0.03 0zm13.47 244.11c-42.28,0 -76.87,27.75 -76.87,48.34 0,44.13 84.53,57.85 185.72,57.31 -12.68,-51.79 -57.06,-105.68 -108.86,-105.68l0.01 0.03zm-94.86 236.19c54.96,0 103.04,-1.6 139.74,-10.83 40.96,-10.29 75.56,-30.91 75.56,-45.17 0,-3.7 0,-8.19 -1.32,-11.89 -22.98,2.11 -49.41,2.11 -72.38,2.11 -74.49,0 -131.55,-16.91 -154.02,-58.66 -5.55,-11.61 -9.51,-24.57 -9.51,-39.36 0,-40.43 17.42,-79.79 48.09,-107 25.61,-22.45 53.89,-36.44 82.67,-36.44 52.04,0 93.51,41.75 122.57,107.54 15.85,35.94 26.68,77.4 26.68,129.72 0,34.87 -9.51,64.19 -31.17,85.85 -40.43,39.11 -114.92,53.89 -229.04,53.89l-51.79 0 0 0 -13.47 0c-28.28,0 -48.62,-5.02 -64.72,-17.42l-2.64 0c0.79,6.59 1.32,12.93 1.32,19.02 0,25.61 -8.45,58.38 -25.61,84.53 -50.72,75.3 -105.68,108.04 -153.24,108.04 -48.09,0 -107,-18.49 -160.11,-42.54l9.51 -18.49c17.17,7.13 40.96,11.89 73.7,11.89 85.85,0 198.66,-82.43 212.66,-163 -3.17,-6.59 -8.98,-15.32 -17.17,-24.57 -25.11,-29.85 -40.96,-54.68 -55.75,-80.83 12.68,-25.11 24.29,-45.17 35.13,-63.4l4.49 -0.53c36.72,74.77 69.99,117.55 144.23,117.55l11.61 0 0 0 53.89 0 0 0 0 0 0 0 0 0 0 0 0.09 0.01zm-371.98 79c6.34,-34.34 6.87,-72.91 6.87,-108.86l0 -53.36c0,-99.6 -12.68,-244.36 -22.98,-338.68 17.95,-19.27 43.06,-42 62.87,-57.31l5.81 1.6c13.47,118.62 16.63,256 16.63,383.06 0,33.3 -1.32,65.79 -4.49,89.55 -1.85,30.1 -19.27,52.83 -56.53,87.7l-8.19 -3.7zm-382.8 -157.19c1.85,46.77 24.83,83.49 105.15,83.49 49.93,0 92.19,-12.93 138.96,-35.13 8.45,-3.7 12.93,-8.73 12.93,-12.93 0,-29.32 -22.45,-68.15 -60.23,-103.55 -36.72,-33.3 -85.34,-62.62 -130.76,-82.18 -15.6,-6.59 -20.62,-13.47 -20.62,-20.09 0,-13.47 17.95,-41.75 32.77,-62.09l5.02 -0.53c52.04,27.21 110.17,67.64 153.24,112.53 39.11,41.47 63.4,83.49 63.4,129.19 0,33.81 -10.29,65.51 -26.96,95.11 -57.06,28.79 -117.83,50.72 -178.06,50.72 -73.17,0 -123.1,-34.34 -123.1,-114.92 0,-8.73 0,-22.19 3.17,-39.64l25.11 0 0 0 0 0 0 0 0 0 0 0 -0.02 0zm-132.37 -132.9l45.45 73.45c16.63,27.21 32.23,56.81 32.23,103.55l0 59.7c0,48.34 -30.91,100.13 -80.83,151.38 -39.11,34.62 -73.7,49.41 -105.68,49.41 -47.55,0 -101.98,-14.79 -164.85,-41.75l7.13 -18.49c19.81,5.27 42.79,9.77 71.06,9.77 90.36,-0.53 182.8,-66.57 225.08,-147.15 5.02,-9.26 6.87,-17.95 6.87,-24.04 0,-9.26 -5.02,-19.55 -8.98,-28.79 -22.98,-43.31 -48.62,-82.95 -76.87,-119.68 14.79,-23.25 29.6,-45.7 45.7,-67.9l3.7 0.53 0 0 0 0 0 0 0 0 0 0 -0.02 0.01z"/>
  <g id="_2843570224560">
   <g>
    <polygon class="fil3" points="2797.68,3243.2 6863.24,3243.2 7222.18,3466.09 6866.14,3703.45 2796.96,3703.81 "/>
    <path class="fil4" d="M2404.66 3513l58.51 17.97c-8.99,32.94 -23.95,57.39 -44.85,73.42 -20.9,15.95 -47.37,23.95 -79.48,23.95 -39.77,0 -72.44,-13.58 -98.07,-40.75 -25.56,-27.16 -38.38,-64.28 -38.38,-111.44 0,-49.8 12.89,-88.54 38.59,-116.11 25.7,-27.59 59.55,-41.38 101.49,-41.38 36.63,0 66.38,10.86 89.22,32.53 13.66,12.81 23.82,31.2 30.65,55.24l-59.77 14.21c-3.55,-15.47 -10.93,-27.72 -22.15,-36.7 -11.28,-9 -24.94,-13.45 -40.96,-13.45 -22.22,0 -40.26,7.94 -54.05,23.89 -13.87,15.88 -20.76,41.65 -20.76,77.31 0,37.75 6.82,64.71 20.41,80.74 13.65,16.09 31.34,24.09 53.14,24.09 16.1,0 29.95,-5.08 41.52,-15.32 11.56,-10.24 19.92,-26.26 24.93,-48.21zm291.37 57.25l0 53.08 -201.03 0c2.17,-20.2 8.71,-39.28 19.58,-57.32 10.86,-18.04 32.38,-42.01 64.42,-71.88 25.85,-24.1 41.66,-40.48 47.51,-49.05 7.87,-11.84 11.84,-23.53 11.84,-35.17 0,-12.82 -3.41,-22.65 -10.3,-29.54 -6.83,-6.9 -16.31,-10.31 -28.36,-10.31 -11.98,0 -21.45,3.62 -28.56,10.86 -7.03,7.18 -11.07,19.16 -12.19,35.95l-57.25 -5.71c3.41,-31.62 14.07,-54.33 32.04,-68.13 17.97,-13.72 40.4,-20.61 67.36,-20.61 29.54,0 52.73,8.01 69.65,23.95 16.85,15.96 25.28,35.81 25.28,59.56 0,13.51 -2.44,26.33 -7.24,38.58 -4.81,12.19 -12.47,24.94 -22.99,38.32 -6.9,8.91 -19.51,21.66 -37.62,38.3 -18.17,16.64 -29.67,27.66 -34.48,33.16 -4.87,5.43 -8.78,10.79 -11.77,15.95l114.1 0z"/>
    <polygon class="fil5" points="2797.68,2784.78 6388.51,2786.23 6747.45,3009.12 6391.4,3246.49 2797.68,3245.67 "/>
    <path class="fil6" d="M2404.66 3055.12l58.51 17.97c-8.99,32.95 -23.95,57.39 -44.85,73.42 -20.9,15.95 -47.37,23.95 -79.48,23.95 -39.77,0 -72.44,-13.58 -98.07,-40.74 -25.56,-27.17 -38.38,-64.29 -38.38,-111.45 0,-49.8 12.89,-88.54 38.59,-116.11 25.7,-27.59 59.55,-41.38 101.49,-41.38 36.63,0 66.38,10.86 89.22,32.53 13.66,12.81 23.82,31.2 30.65,55.24l-59.77 14.21c-3.55,-15.47 -10.93,-27.72 -22.15,-36.7 -11.28,-8.99 -24.94,-13.45 -40.96,-13.45 -22.22,0 -40.26,7.94 -54.05,23.89 -13.87,15.89 -20.76,41.66 -20.76,77.31 0,37.75 6.82,64.71 20.41,80.74 13.65,16.09 31.34,24.09 53.14,24.09 16.1,0 29.95,-5.08 41.52,-15.32 11.56,-10.24 19.92,-26.26 24.93,-48.21zm244.14 110.33l-57.25 0 0 -216.62c-20.9,19.64 -45.55,34.2 -73.98,43.6l0 -52.24c14.98,-4.88 31.21,-14.14 48.7,-27.87 17.55,-13.65 29.54,-29.6 36.08,-47.78l46.46 0 0 300.9z"/>
    <polygon class="fil7" points="2797.68,2325.49 5942.73,2325.49 6301.67,2548.37 5945.63,2785.74 2797.68,2786.36 "/>
    <path class="fil8" d="M2213.25 2407.15l119.67 0c23.75,0 41.38,0.97 53.01,2.93 11.7,2.02 22.08,6.13 31.27,12.33 9.2,6.26 16.85,14.55 22.99,24.93 6.13,10.37 9.2,22.08 9.2,34.97 0,13.93 -3.76,26.82 -11.28,38.44 -7.52,11.71 -17.76,20.42 -30.64,26.26 18.17,5.37 32.11,14.43 41.93,27.24 9.76,12.82 14.63,27.87 14.63,45.21 0,13.65 -3.14,26.88 -9.47,39.77 -6.35,12.89 -14.98,23.19 -25.99,30.92 -10.93,7.67 -24.44,12.4 -40.54,14.22 -10.02,1.04 -34.34,1.74 -72.85,2.02l-101.92 0 0 -299.24zm60.61 49.73l0 68.96 39.56 0c23.47,0 38.1,-0.35 43.81,-1.05 10.3,-1.18 18.46,-4.73 24.38,-10.65 5.92,-5.92 8.84,-13.65 8.84,-23.26 0,-9.27 -2.58,-16.71 -7.66,-22.5 -5.08,-5.78 -12.68,-9.27 -22.71,-10.45 -5.99,-0.69 -23.19,-1.04 -51.54,-1.04l-34.69 0zm0 118.69l0 80.24 56 0c21.74,0 35.6,-0.63 41.45,-1.81 8.99,-1.68 16.31,-5.64 21.95,-11.98 5.64,-6.41 8.5,-14.84 8.5,-25.49 0,-9.06 -2.17,-16.65 -6.55,-22.92 -4.32,-6.27 -10.66,-10.87 -18.88,-13.73 -8.22,-2.86 -26.12,-4.31 -53.63,-4.31l-48.83 0zm422.17 77.73l0 53.08 -201.03 0c2.17,-20.2 8.71,-39.29 19.58,-57.33 10.86,-18.03 32.38,-42 64.42,-71.88 25.85,-24.09 41.66,-40.47 47.51,-49.04 7.87,-11.84 11.84,-23.54 11.84,-35.18 0,-12.81 -3.41,-22.64 -10.3,-29.53 -6.83,-6.9 -16.31,-10.31 -28.36,-10.31 -11.98,0 -21.45,3.62 -28.56,10.86 -7.03,7.18 -11.07,19.15 -12.19,35.95l-57.25 -5.71c3.41,-31.62 14.07,-54.34 32.04,-68.13 17.97,-13.72 40.4,-20.62 67.36,-20.62 29.54,0 52.73,8.02 69.65,23.96 16.85,15.96 25.28,35.81 25.28,59.56 0,13.51 -2.44,26.32 -7.24,38.58 -4.81,12.19 -12.47,24.94 -22.99,38.31 -6.9,8.92 -19.51,21.67 -37.62,38.31 -18.17,16.64 -29.67,27.65 -34.48,33.16 -4.87,5.43 -8.78,10.79 -11.77,15.95l114.1 0z"/>
    <polygon class="fil9" points="2797.68,1866.78 5453.53,1866.78 5812.47,2089.68 5456.43,2327.04 2797.68,2327.67 "/>
    <path class="fil10" d="M2213.25 1948.44l119.67 0c23.75,0 41.38,0.98 53.01,2.93 11.7,2.02 22.08,6.13 31.27,12.33 9.2,6.27 16.85,14.56 22.99,24.93 6.13,10.38 9.2,22.09 9.2,34.97 0,13.93 -3.76,26.82 -11.28,38.45 -7.52,11.7 -17.76,20.41 -30.64,26.26 18.17,5.36 32.11,14.42 41.93,27.23 9.76,12.82 14.63,27.87 14.63,45.21 0,13.65 -3.14,26.89 -9.47,39.77 -6.35,12.89 -14.98,23.19 -25.99,30.93 -10.93,7.66 -24.44,12.39 -40.54,14.21 -10.02,1.04 -34.34,1.74 -72.85,2.02l-101.92 0 0 -299.24zm60.61 49.73l0 68.96 39.56 0c23.47,0 38.1,-0.35 43.81,-1.05 10.3,-1.18 18.46,-4.73 24.38,-10.65 5.92,-5.92 8.84,-13.65 8.84,-23.26 0,-9.26 -2.58,-16.71 -7.66,-22.5 -5.08,-5.78 -12.68,-9.27 -22.71,-10.44 -5.99,-0.7 -23.19,-1.05 -51.54,-1.05l-34.69 0zm0 118.69l0 80.25 56 0c21.74,0 35.6,-0.63 41.45,-1.82 8.99,-1.68 16.31,-5.64 21.95,-11.98 5.64,-6.41 8.5,-14.84 8.5,-25.49 0,-9.06 -2.17,-16.64 -6.55,-22.92 -4.32,-6.27 -10.66,-10.87 -18.88,-13.73 -8.22,-2.85 -26.12,-4.31 -53.63,-4.31l-48.83 0zm374.94 130.81l-57.25 0 0 -216.62c-20.9,19.64 -45.55,34.2 -73.98,43.6l0 -52.24c14.98,-4.88 31.21,-14.14 48.7,-27.87 17.55,-13.65 29.54,-29.6 36.08,-47.78l46.46 0 0 300.9z"/>
    <polygon class="fil11" points="2797.68,1408.68 4982.87,1408.68 5341.8,1631.56 4985.76,1868.93 2797.68,1869.56 "/>
    <path class="fil12" d="M2482.82 1789.57l-65.27 0 -25.84 -68.13 -120.02 0 -24.86 68.13 -64.08 0 116.18 -299.24 64.01 0 119.88 299.24zm-110.75 -118.69l-41.59 -110.75 -40.4 110.75 81.99 0zm323.96 65.61l0 53.08 -201.03 0c2.17,-20.2 8.71,-39.29 19.58,-57.32 10.86,-18.04 32.38,-42.01 64.42,-71.89 25.85,-24.09 41.66,-40.47 47.51,-49.04 7.87,-11.84 11.84,-23.54 11.84,-35.18 0,-12.81 -3.41,-22.64 -10.3,-29.53 -6.83,-6.9 -16.31,-10.31 -28.36,-10.31 -11.98,0 -21.45,3.62 -28.56,10.86 -7.03,7.18 -11.07,19.16 -12.19,35.95l-57.25 -5.71c3.41,-31.62 14.07,-54.34 32.04,-68.13 17.97,-13.72 40.4,-20.61 67.36,-20.61 29.54,0 52.73,8.01 69.65,23.95 16.85,15.96 25.28,35.81 25.28,59.56 0,13.51 -2.44,26.33 -7.24,38.58 -4.81,12.19 -12.47,24.94 -22.99,38.31 -6.9,8.92 -19.51,21.67 -37.62,38.31 -18.17,16.64 -29.67,27.65 -34.48,33.16 -4.87,5.43 -8.78,10.79 -11.77,15.95l114.1 0z"/>
    <polygon class="fil13" points="2797.68,949.97 4535.94,949.97 4894.88,1172.86 4538.84,1410.23 2797.68,1410.85 "/>
    <path class="fil14" d="M2482.82 1330.87l-65.27 0 -25.84 -68.12 -120.02 0 -24.86 68.12 -64.08 0 116.18 -299.24 64.01 0 119.88 299.24zm-110.75 -118.69l-41.59 -110.75 -40.4 110.75 81.99 0zm276.73 118.69l-57.25 0 0 -216.62c-20.9,19.64 -45.55,34.2 -73.98,43.6l0 -52.24c14.98,-4.88 31.21,-14.14 48.7,-27.87 17.55,-13.65 29.54,-29.6 36.08,-47.78l46.46 0 0 300.9z"/>
   </g>
   <path class="fil15" d="M2972.77 4237.27l0 -328.76 243.36 0 0 55.56 -176.78 0 0 73.01 164.38 0 0 55.57 -164.38 0 0 89.08 183.2 0 0 55.56 -249.78 0zm522.53 0l-62.9 0 0 -121.45c0,-25.71 -1.38,-42.32 -4.05,-49.82 -2.76,-7.58 -7.11,-13.39 -13.24,-17.59 -6.12,-4.21 -13.47,-6.28 -22.04,-6.28 -11.02,0 -20.9,2.99 -29.63,8.96 -8.8,5.97 -14.76,13.93 -17.98,23.72 -3.29,9.88 -4.89,28.09 -4.89,54.72l0 107.75 -62.9 0 0 -238.31 58.31 0 0 34.98c20.89,-26.71 47.14,-40.03 78.9,-40.03 13.93,0 26.71,2.53 38.26,7.5 11.63,5.05 20.36,11.41 26.25,19.14 5.97,7.81 10.1,16.6 12.4,26.47 2.37,9.88 3.51,23.96 3.51,42.33l0 147.93zm57.78 15.16l72.09 8.73c1.23,8.5 3.98,14.31 8.27,17.52 6.05,4.51 15.46,6.81 28.32,6.81 16.46,0 28.78,-2.45 37.04,-7.42 5.5,-3.3 9.72,-8.58 12.55,-15.93 1.91,-5.2 2.91,-14.92 2.91,-28.93l0.3 -34.82c-18.97,25.94 -42.86,38.87 -71.62,38.87 -31.99,0 -57.4,-13.54 -76.07,-40.56 -14.7,-21.35 -22.04,-47.99 -22.04,-79.74 0,-39.95 9.64,-70.41 28.85,-91.45 19.21,-21.05 43.16,-31.61 71.78,-31.61 29.47,0 53.8,12.94 72.94,38.8l0 -33.75 58.77 0 0 213.68c0,28.08 -2.3,49.13 -6.96,62.97 -4.59,13.93 -11.1,24.8 -19.52,32.76 -8.34,7.88 -19.51,14.16 -33.52,18.59 -14.01,4.51 -31.68,6.74 -53.04,6.74 -40.4,0 -69.03,-6.97 -85.93,-20.82 -16.92,-13.93 -25.34,-31.45 -25.34,-52.8 0,-2.08 0.08,-4.67 0.23,-7.66zm56.48 -139.13c0,25.25 4.89,43.69 14.62,55.41 9.8,11.71 21.89,17.6 36.2,17.6 15.31,0 28.32,-6.05 38.87,-18.06 10.64,-12.01 15.93,-29.76 15.93,-53.34 0,-24.64 -5.05,-42.93 -15.23,-54.88 -10.1,-11.93 -22.97,-17.9 -38.5,-17.9 -15.08,0 -27.47,5.89 -37.26,17.6 -9.73,11.7 -14.62,29.54 -14.62,53.57zm229.96 123.97l0 -328.76 62.91 0 0 328.76 -62.91 0zm127.58 -270.45l0 -58.31 62.91 0 0 58.31 -62.91 0zm0 270.45l0 -238.31 62.91 0 0 238.31 -62.91 0zm105.08 -67.04l63.36 -9.65c2.68,12.17 8.12,21.43 16.38,27.71 8.2,6.36 19.75,9.5 34.52,9.5 16.31,0 28.55,-2.99 36.81,-8.96 5.5,-4.21 8.26,-9.88 8.26,-16.91 0,-4.74 -1.53,-8.73 -4.51,-11.86 -3.14,-2.99 -10.17,-5.81 -21.04,-8.35 -50.9,-11.24 -83.11,-21.5 -96.73,-30.75 -18.91,-12.94 -28.32,-30.84 -28.32,-53.73 0,-20.74 8.19,-38.11 24.48,-52.19 16.31,-14.08 41.56,-21.13 75.77,-21.13 32.6,0 56.86,5.36 72.7,16 15.85,10.71 26.79,26.48 32.76,47.37l-59.23 11.02c-2.53,-9.34 -7.43,-16.52 -14.55,-21.5 -7.12,-4.98 -17.29,-7.43 -30.53,-7.43 -16.68,0 -28.62,2.3 -35.89,6.97 -4.82,3.29 -7.2,7.57 -7.2,12.78 0,4.51 2.07,8.34 6.27,11.47 5.74,4.21 25.41,10.1 59.09,17.75 33.67,7.66 57.16,16.99 70.47,28.09 13.24,11.17 19.83,26.86 19.83,46.92 0,21.81 -9.12,40.63 -27.4,56.32 -18.21,15.69 -45.23,23.56 -81.05,23.56 -32.45,0 -58.16,-6.58 -77.14,-19.67 -18.9,-13.08 -31.29,-30.83 -37.11,-53.34zm339.87 -261.72l0 121.84c20.43,-24.26 44.92,-36.43 73.31,-36.43 14.63,0 27.79,2.68 39.49,8.04 11.71,5.43 20.51,12.25 26.48,20.67 5.97,8.34 10.02,17.6 12.17,27.78 2.22,10.17 3.29,25.94 3.29,47.29l0 139.59 -62.9 0 0 -125.66c0,-24.94 -1.22,-40.79 -3.59,-47.52 -2.45,-6.74 -6.73,-12.09 -12.86,-16 -6.12,-3.98 -13.77,-5.97 -23.03,-5.97 -10.56,0 -19.98,2.53 -28.33,7.66 -8.34,5.04 -14.38,12.7 -18.21,22.96 -3.89,10.17 -5.81,25.33 -5.81,45.3l0 119.23 -62.9 0 0 -328.76 62.9 0zm348.36 328.76l0 -326.01 66.58 0 0 270.45 164.84 0 0 55.56 -231.42 0zm325.02 -164.84l-56.93 -10.1c6.43,-23.25 17.52,-40.48 33.21,-51.65 15.69,-11.17 39.03,-16.76 69.94,-16.76 28.09,0 49.06,3.3 62.83,9.95 13.7,6.66 23.41,15.08 29.01,25.33 5.58,10.25 8.42,29.01 8.42,56.39l-0.92 73.47c0,20.9 0.99,36.35 2.99,46.31 1.99,9.94 5.74,20.58 11.25,31.9l-62.46 0c-1.61,-4.13 -3.67,-10.25 -6.04,-18.36 -1,-3.75 -1.77,-6.2 -2.22,-7.35 -10.72,10.56 -22.2,18.44 -34.44,23.72 -12.25,5.28 -25.26,7.96 -39.11,7.96 -24.41,0 -43.7,-6.66 -57.78,-19.97 -14.08,-13.24 -21.12,-30.07 -21.12,-50.43 0,-13.4 3.22,-25.41 9.64,-35.98 6.43,-10.47 15.39,-18.59 27.02,-24.17 11.55,-5.59 28.24,-10.48 50.05,-14.7 29.39,-5.51 49.81,-10.71 61.15,-15.46l0 -6.35c0,-12.24 -2.99,-20.97 -8.96,-26.25 -6.04,-5.21 -17.37,-7.81 -33.98,-7.81 -11.25,0 -19.98,2.22 -26.25,6.73 -6.35,4.44 -11.4,12.32 -15.31,23.57zm84.49 50.97c-8.04,2.68 -20.82,5.89 -38.34,9.64 -17.45,3.75 -28.93,7.43 -34.29,10.94 -8.19,5.89 -12.32,13.25 -12.32,22.2 0,8.88 3.29,16.46 9.88,22.89 6.58,6.43 14.93,9.64 25.1,9.64 11.32,0 22.19,-3.74 32.52,-11.16 7.58,-5.74 12.63,-12.63 15.01,-20.9 1.6,-5.36 2.45,-15.62 2.45,-30.68l0 -12.55zm340.77 113.87l-62.9 0 0 -121.45c0,-25.71 -1.38,-42.32 -4.05,-49.82 -2.76,-7.58 -7.11,-13.39 -13.24,-17.59 -6.12,-4.21 -13.47,-6.28 -22.04,-6.28 -11.02,0 -20.9,2.99 -29.63,8.96 -8.8,5.97 -14.77,13.93 -17.98,23.72 -3.29,9.88 -4.89,28.09 -4.89,54.72l0 107.75 -62.9 0 0 -238.31 58.31 0 0 34.98c20.89,-26.71 47.14,-40.03 78.9,-40.03 13.93,0 26.71,2.53 38.26,7.5 11.63,5.05 20.36,11.41 26.25,19.14 5.97,7.81 10.1,16.6 12.4,26.47 2.37,9.88 3.51,23.96 3.51,42.33l0 147.93zm57.78 15.16l72.09 8.73c1.23,8.5 3.98,14.31 8.27,17.52 6.05,4.51 15.46,6.81 28.32,6.81 16.46,0 28.78,-2.45 37.04,-7.42 5.5,-3.3 9.72,-8.58 12.55,-15.93 1.91,-5.2 2.91,-14.92 2.91,-28.93l0.3 -34.82c-18.97,25.94 -42.86,38.87 -71.62,38.87 -31.99,0 -57.4,-13.54 -76.07,-40.56 -14.7,-21.35 -22.04,-47.99 -22.04,-79.74 0,-39.95 9.64,-70.41 28.85,-91.45 19.21,-21.05 43.16,-31.61 71.78,-31.61 29.47,0 53.8,12.94 72.94,38.8l0 -33.75 58.77 0 0 213.68c0,28.08 -2.3,49.13 -6.96,62.97 -4.59,13.93 -11.1,24.8 -19.52,32.76 -8.34,7.88 -19.51,14.16 -33.52,18.59 -14.01,4.51 -31.68,6.74 -53.04,6.74 -40.4,0 -69.03,-6.97 -85.93,-20.82 -16.92,-13.93 -25.34,-31.45 -25.34,-52.8 0,-2.08 0.08,-4.67 0.23,-7.66zm56.48 -139.13c0,25.25 4.89,43.69 14.62,55.41 9.8,11.71 21.89,17.6 36.2,17.6 15.31,0 28.32,-6.05 38.87,-18.06 10.64,-12.01 15.93,-29.76 15.93,-53.34 0,-24.64 -5.05,-42.93 -15.23,-54.88 -10.1,-11.93 -22.97,-17.9 -38.5,-17.9 -15.08,0 -27.47,5.89 -37.26,17.6 -9.73,11.7 -14.62,29.54 -14.62,53.57zm387.46 123.97l0 -35.66c-8.72,12.7 -20.13,22.81 -34.28,30.37 -14.16,7.51 -29.09,11.25 -44.77,11.25 -16.08,0 -30.46,-3.51 -43.16,-10.55 -12.78,-7.04 -21.97,-16.99 -27.63,-29.7 -5.74,-12.78 -8.57,-30.38 -8.57,-52.88l0 -151.15 62.9 0 0 109.74c0,33.6 1.15,54.11 3.52,61.69 2.29,7.58 6.5,13.62 12.7,17.98 6.12,4.43 13.92,6.66 23.41,6.66 10.79,0 20.44,-2.99 29.01,-8.89 8.58,-5.89 14.39,-13.23 17.52,-22.04 3.14,-8.8 4.74,-30.22 4.74,-64.43l0 -100.72 62.9 0 0 238.31 -58.31 0zm169.82 -164.84l-56.94 -10.1c6.43,-23.25 17.53,-40.48 33.22,-51.65 15.69,-11.17 39.03,-16.76 69.94,-16.76 28.09,0 49.06,3.3 62.83,9.95 13.7,6.66 23.41,15.08 29,25.33 5.59,10.25 8.43,29.01 8.43,56.39l-0.92 73.47c0,20.9 0.99,36.35 2.98,46.31 2,9.94 5.75,20.58 11.25,31.9l-62.45 0c-1.61,-4.13 -3.67,-10.25 -6.04,-18.36 -1,-3.75 -1.77,-6.2 -2.23,-7.35 -10.71,10.56 -22.19,18.44 -34.44,23.72 -12.24,5.28 -25.25,7.96 -39.1,7.96 -24.41,0 -43.7,-6.66 -57.78,-19.97 -14.08,-13.24 -21.13,-30.07 -21.13,-50.43 0,-13.4 3.23,-25.41 9.65,-35.98 6.43,-10.47 15.39,-18.59 27.02,-24.17 11.55,-5.59 28.24,-10.48 50.04,-14.7 29.4,-5.51 49.82,-10.71 61.15,-15.46l0 -6.35c0,-12.24 -2.99,-20.97 -8.95,-26.25 -6.05,-5.21 -17.37,-7.81 -33.98,-7.81 -11.25,0 -19.98,2.22 -26.25,6.73 -6.36,4.44 -11.4,12.32 -15.31,23.57zm84.48 50.97c-8.03,2.68 -20.81,5.89 -38.33,9.64 -17.45,3.75 -28.94,7.43 -34.29,10.94 -8.19,5.89 -12.32,13.25 -12.32,22.2 0,8.88 3.29,16.46 9.88,22.89 6.58,6.43 14.92,9.64 25.09,9.64 11.33,0 22.2,-3.74 32.53,-11.16 7.58,-5.74 12.62,-12.63 15,-20.9 1.61,-5.36 2.45,-15.62 2.45,-30.68l0 -12.55zm118.09 129.02l72.08 8.73c1.23,8.5 3.98,14.31 8.27,17.52 6.05,4.51 15.46,6.81 28.32,6.81 16.46,0 28.78,-2.45 37.04,-7.42 5.5,-3.3 9.72,-8.58 12.55,-15.93 1.91,-5.2 2.91,-14.92 2.91,-28.93l0.31 -34.82c-18.98,25.94 -42.86,38.87 -71.63,38.87 -31.99,0 -57.4,-13.54 -76.07,-40.56 -14.7,-21.35 -22.04,-47.99 -22.04,-79.74 0,-39.95 9.64,-70.41 28.86,-91.45 19.2,-21.05 43.15,-31.61 71.77,-31.61 29.48,0 53.81,12.94 72.94,38.8l0 -33.75 58.77 0 0 213.68c0,28.08 -2.3,49.13 -6.96,62.97 -4.59,13.93 -11.09,24.8 -19.52,32.76 -8.34,7.88 -19.51,14.16 -33.52,18.59 -14,4.51 -31.68,6.74 -53.03,6.74 -40.41,0 -69.03,-6.97 -85.94,-20.82 -16.91,-13.93 -25.33,-31.45 -25.33,-52.8 0,-2.08 0.07,-4.67 0.23,-7.66zm56.47 -139.13c0,25.25 4.89,43.69 14.62,55.41 9.8,11.71 21.89,17.6 36.2,17.6 15.31,0 28.32,-6.05 38.88,-18.06 10.63,-12.01 15.92,-29.76 15.92,-53.34 0,-24.64 -5.05,-42.93 -15.23,-54.88 -10.1,-11.93 -22.97,-17.9 -38.5,-17.9 -15.07,0 -27.47,5.89 -37.26,17.6 -9.73,11.7 -14.62,29.54 -14.62,53.57zm367.72 48.68l62.9 10.55c-8.04,23.04 -20.82,40.57 -38.19,52.65 -17.44,12.02 -39.25,18.06 -65.35,18.06 -41.4,0 -72.09,-13.54 -91.91,-40.64 -15.69,-21.74 -23.57,-49.13 -23.57,-82.27 0,-39.49 10.33,-70.48 30.92,-92.83 20.59,-22.42 46.68,-33.6 78.21,-33.6 35.36,0 63.28,11.71 83.8,35.13 20.43,23.42 30.22,59.31 29.31,107.68l-157.49 0c0.46,18.68 5.5,33.22 15.23,43.62 9.65,10.4 21.73,15.62 36.12,15.62 9.88,0 18.14,-2.69 24.8,-8.04 6.73,-5.36 11.78,-14.01 15.23,-25.94zm3.67 -63.83c-0.46,-18.29 -5.13,-32.21 -14.08,-41.71 -8.96,-9.57 -19.82,-14.31 -32.68,-14.31 -13.7,0 -25.02,5.05 -33.98,15.08 -8.96,10.02 -13.32,23.72 -13.16,40.94l93.9 0z"/>
  </g>
 </g>
</svg>
