<?xml version="1.0" encoding="UTF-8"?>
<!DOCTYPE svg PUBLIC "-//W3C//DTD SVG 1.0//EN" "http://www.w3.org/TR/2001/REC-SVG-20010904/DTD/svg10.dtd">
<!-- Creator: CorelDRAW 2017 -->
<svg xmlns="http://www.w3.org/2000/svg" xml:space="preserve" width="356px" height="200px" version="1.0" shape-rendering="geometricPrecision" text-rendering="geometricPrecision" image-rendering="optimizeQuality" fill-rule="evenodd" clip-rule="evenodd"
viewBox="0 0 35600 20025"
 xmlns:xlink="http://www.w3.org/1999/xlink">
 <g id="Layer_x0020_1">
  <metadata id="CorelCorpID_0Corel-Layer"/>
  <g id="_2061075533600">
   <polygon fill="#E6E7E8" points="0,0 35600,0 35600,20025 0,20025 "/>
   <path fill="#373435" fill-opacity="0.031373" d="M2102 17538c67,103 111,202 155,311 31,64 48,183 198,183 44,0 107,-14 163,-45 63,-33 111,-82 135,-159l61 -201 145 -72 10 10c-19,76 -24,148 -24,206 0,169 145,233 262,233 68,0 128,-33 128,-95 0,-81 -34,-216 -78,-338 68,-68 136,-136 214,-191l12 6c34,144 53,286 53,381 0,92 -41,195 -75,263 -70,132 -194,237 -344,237 -114,0 -240,-57 -327,-163l-5 0c-83,101 -209,194 -412,194l-63 0c-10,134 -39,229 -82,313 -122,237 -480,404 -817,404 -470,0 -705,-272 -705,-632 0,-223 72,-431 184,-577l92 37c-70,134 -116,261 -116,385 0,338 274,499 591,499 293,0 657,-188 722,-404 -24,-237 -114,-348 -250,-565 42,-72 95,-144 160,-220l13 0 0 0zm5414 -1273c99,62 196,136 290,221 -53,74 -118,142 -201,201 -94,-76 -189,-142 -286,-212 66,-74 131,-146 197,-210zm51 925c-160,0 -291,105 -291,183 0,167 320,219 702,217 -48,-196 -215,-400 -411,-400zm-359 894c208,0 390,-6 528,-41 155,-39 286,-118 286,-171 0,-15 0,-31 -5,-46 -87,9 -186,9 -274,9 -281,0 -496,-64 -581,-223 -22,-43 -36,-93 -36,-148 0,-153 65,-303 181,-406 97,-84 204,-138 313,-138 196,0 354,159 463,408 60,136 101,292 101,490 0,132 -36,243 -118,326 -153,148 -434,204 -865,204l-197 0 0 0 -51 0c-106,0 -184,-19 -244,-66l-10 0c2,24 5,49 5,72 0,97 -32,220 -97,319 -192,286 -400,410 -579,410 -182,0 -405,-70 -606,-161l36 -70c66,27 155,45 279,45 325,0 751,-313 804,-617 -12,-25 -33,-58 -65,-93 -94,-113 -155,-208 -211,-307 49,-95 92,-171 134,-239l16 -2c139,282 265,445 546,445l43 0 0 0 204 0 0 0zm-1406 299c24,-130 26,-276 26,-412l0 -202c0,-377 -48,-925 -87,-1281 68,-75 163,-161 238,-219l21 6c51,449 64,971 64,1450 0,126 -5,250 -17,340 -8,114 -73,200 -214,332l-31 -14 0 0zm-1447 -596c7,177 94,317 397,317 189,0 349,-49 526,-133 31,-15 48,-33 48,-50 0,-111 -84,-257 -228,-391 -138,-126 -322,-237 -494,-311 -58,-25 -77,-52 -77,-76 0,-52 68,-159 123,-235l20 -2c196,103 416,255 579,426 148,157 240,315 240,488 0,128 -39,250 -102,361 -216,109 -446,191 -674,191 -276,0 -465,-129 -465,-434 0,-33 0,-85 12,-151l95 0 0 0zm-500 -502l172 278c63,103 121,214 121,391l0 227c0,183 -117,379 -306,572 -147,132 -278,188 -399,188 -180,0 -386,-56 -623,-159l26 -70c76,21 163,37 270,37 341,-2 690,-251 850,-556 19,-35 27,-68 27,-91 0,-35 -20,-74 -34,-109 -87,-165 -184,-315 -291,-453 56,-88 111,-173 172,-257l15 2 0 0z"/>
   <polygon fill="#373435" fill-opacity="0.078431" points="24620,13032 24130,13576 24130,13242 23360,13523 24099,12702 24130,12664 24130,10671 23148,10671 22658,11215 22658,10733 22657,10611 22657,10507 22661,10421 22672,10350 22692,10293 22726,10249 20580,12633 20451,12633 20451,12390 21618,11093 21549,11138 21459,11162 21349,11171 21225,11170 21088,11165 20942,11162 20451,11707 20451,11509 24957,6503 24897,6496 24834,6486 24770,6473 24706,6457 24641,6441 24577,6424 24515,6408 24455,6392 24358,6368 24266,6347 24180,6326 24097,6307 24018,6288 23942,6269 23867,6249 23792,6228 23718,6204 23644,6178 23568,6148 23490,6115 23408,6077 23323,6034 23234,5985 23139,5930 22298,5270 22279,5251 22261,5233 22245,5217 22229,5201 22213,5185 22197,5168 22179,5150 22160,5131 21559,4537 21516,4501 21475,4465 21437,4430 21401,4396 21364,4362 21328,4329 21289,4297 21249,4265 21111,4162 20973,4062 20836,3965 20697,3872 20559,3782 20418,3696 20277,3614 20133,3537 19987,3464 19839,3395 19687,3331 19532,3272 19373,3218 19210,3169 19043,3125 18870,3088 18662,3050 18462,3021 18268,3001 18081,2990 17900,2986 17726,2990 17557,3001 17393,3019 17234,3044 17080,3076 16930,3113 16784,3156 16642,3204 16502,3257 16366,3315 16232,3377 16101,3443 15971,3513 15843,3586 15716,3662 15590,3741 15464,3822 15339,3905 15213,3989 15087,4075 14960,4162 14831,4250 14701,4337 14569,4425 14435,4513 14298,4599 14158,4685 13986,4792 13813,4904 13638,5018 13461,5131 13283,5239 13101,5340 12916,5430 12728,5506 12537,5565 12341,5603 12141,5618 11937,5606 11727,5564 11511,5488 11290,5376 11063,5225 10991,5167 10895,5085 10786,4987 10672,4879 10564,4770 10471,4668 10402,4578 10367,4510 10396,4475 0,16024 0,16028 0,17515 0,19662 0,20025 351,20025 850,20025 1265,20025 1365,20025 1880,20025 2076,20025 2221,20025 2301,20025 2321,20025 2394,20025 2468,20025 2836,20025 2909,20025 2932,20025 3032,20025 3058,20025 3107,20025 3625,20025 4012,20025 4086,20025 5485,20025 6000,20025 6270,20025 6293,20025 6441,20025 6736,20025 6789,20025 6882,20025 6931,20025 6956,20025 6957,20025 6978,20025 7007,20025 7063,20025 7073,20025 7103,20025 7226,20025 7251,20025 7397,20025 7422,20025 7447,20025 7539,20025 7593,20025 7594,20025 7618,20025 7840,20025 7865,20025 8055,20025 8208,20025 8330,20025 8574,20025 8754,20025 8894,20025 9012,20025 9016,20025 10375,20025 10396,20025 10396,20025 10436,20025 10452,20025 10469,20025 11050,20025 11154,20025 11573,20025 12184,20025 12474,20025 12768,20025 12786,20025 12900,20025 12964,20025 13579,20025 13798,20025 13927,20025 14288,20025 14294,20025 14728,20025 15710,20025 16376,20025 16529,20025 16886,20025 17026,20025 17230,20025 17372,20025 17504,20025 17507,20025 18024,20025 18325,20025 18533,20025 18628,20025 18724,20025 18801,20025 19487,20025 19606,20025 24545,14538 24475,14580 24375,14595 24035,14597 23743,14601 23682,14603 24130,14105 24130,14019 25294,12725 25260,12734 25235,12741 25217,12748 25202,12755 25188,12764 25173,12774 25154,12788 25128,12804 25103,12819 25082,12831 25064,12840 25047,12848 25030,12856 25011,12863 24989,12872 24962,12883 24920,12901 24878,12921 24836,12942 24794,12963 24751,12984 24708,13003 24664,13019 "/>
   <g>
    <path fill="#121628" d="M24130 13242l0 863 -982 -2 11 -506 971 -355zm-982 -2571l982 0 0 1993c-56,105 -351,181 -479,227 -150,54 -350,144 -502,176l-1 -2396zm-490 2545c-235,112 -729,92 -1011,92 -472,0 -966,-201 -1392,-294 -1026,-224 -1953,-276 -2926,114 -819,329 -1284,762 -1883,1304l-109 106c-326,361 -486,484 -814,902l-386 473c-124,158 -246,321 -391,467 -436,436 -575,636 -1295,636 -792,0 -1683,-939 -1839,-980 -17,12 -296,273 -306,398 92,25 360,286 463,364 527,394 1117,739 1866,739 1011,0 1647,-1007 2203,-1690 997,-1224 2268,-2509 4081,-2509 1149,0 1795,491 3034,491 281,0 456,-62 705,-62 0,1022 -228,828 1717,828 313,0 245,-336 245,-644 0,-306 0,-613 0,-919 119,-28 231,-105 342,-149 80,-33 91,-34 166,-79 81,-49 60,-54 166,-79 -13,-157 -176,-297 -214,-460 -197,46 -274,172 -460,215 0,-159 19,-2026 -12,-2134 -20,-72 -93,-165 -172,-165 -1876,0 -1779,-151 -1778,552l0 2483z"/>
    <path fill="#121628" d="M12206 5093l-153 0c-509,0 -1075,-572 -1288,-889 -108,29 -342,223 -398,306 39,146 543,600 696,715 1230,920 2180,10 3095,-540 1509,-907 2453,-2048 4712,-1597 934,186 1642,619 2379,1177 112,85 189,175 310,272l601 594c53,53 85,86 138,139l841 660c522,311 782,328 1316,462 156,40 345,98 502,111 31,-65 101,-396 123,-491 -1387,-323 -1573,-270 -2598,-1295 -231,-230 -440,-418 -674,-644l-725 -562c-789,-525 -1878,-1024 -2930,-1024 -772,0 -1374,58 -2034,389l-664 347c-830,446 -2518,1870 -3249,1870z"/>
    <path fill="#121628" d="M11378 9690l981 2 0 4658 -981 0 1 -3709 -1 -951zm246 -490c-398,0 -736,-82 -736,245l0 5150c0,321 367,245 736,245l0 981 490 0 0 -981c368,0 736,76 736,-245l0 -5211c0,-254 -476,-184 -736,-184l0 -2452 -490 0 0 2452z"/>
    <path fill="#121628" d="M20206 6012l981 0 0 4660 -981 -1 0 -4505 0 -154zm245 -490c-368,0 -735,-75 -735,245l0 5211c0,254 475,184 735,184l0 1471 491 0 0 -1471c397,0 735,82 735,-245l0 -5150c0,-320 -367,-245 -735,-245l0 -1226 -491 0 0 1226z"/>
    <path fill="#121628" d="M14321 11867l-1 -4384 981 1 1 4659 -981 0 0 -276zm245 -4874c-397,0 -735,-82 -735,245l0 5150c0,148 97,245 245,245l1471 0c148,0 245,-97 245,-245l0 -5211c0,-254 -475,-184 -735,-184l0 -2207 -491 0 0 2207z"/>
    <path fill="#121628" d="M17265 4296l979 0 1 2943 -982 0 0 -2667 2 -276zm244 -491c-369,0 -736,-75 -736,246l0 3433c0,320 367,245 736,245l0 736 490 0 0 -736c369,0 736,75 736,-245l0 -3495c0,-254 -475,-184 -736,-184l0 -490 -490 0 0 490z"/>
    <polygon fill="#3C99B4" points="20206,6166 20206,10671 21187,10672 21187,6012 20206,6012 "/>
    <polygon fill="#E7A839" points="14321,12143 15302,12143 15301,7484 14320,7483 14321,11867 "/>
    <polygon fill="#E7A839" points="11379,10641 11378,14350 12359,14350 12359,9692 11378,9690 "/>
    <polygon fill="#3C99B4" points="17263,4572 17263,7239 18245,7239 18244,4296 17265,4296 "/>
    <path fill="#E7A839" d="M23149 13067c152,-32 352,-122 502,-176 128,-46 423,-122 479,-227l0 -1993 -982 0 1 2396z"/>
    <polygon fill="#E7A839" points="23159,13597 23148,14103 24130,14105 24130,13242 "/>
   </g>
  </g>
 </g>
</svg>
