<?xml version="1.0" encoding="UTF-8"?>
<!DOCTYPE svg PUBLIC "-//W3C//DTD SVG 1.0//EN" "http://www.w3.org/TR/2001/REC-SVG-20010904/DTD/svg10.dtd">
<!-- Creator: CorelDRAW 2017 -->
<svg xmlns="http://www.w3.org/2000/svg" xml:space="preserve" width="356px" height="200px" version="1.0" shape-rendering="geometricPrecision" text-rendering="geometricPrecision" image-rendering="optimizeQuality" fill-rule="evenodd" clip-rule="evenodd"
viewBox="0 0 35600 20025"
 xmlns:xlink="http://www.w3.org/1999/xlink">
 <g id="Layer_x0020_1">
  <metadata id="CorelCorpID_0Corel-Layer"/>
  <g id="_1322541943488">
   <path fill="#E6E7E8" d="M0 0l35600 0 0 20025 -35600 0 0 -20025z"/>
   <path fill="#373435" fill-opacity="0.031373" d="M2082 17547c68,104 112,203 155,312 32,64 49,183 199,183 44,0 107,-14 163,-45 63,-33 111,-83 136,-159l60 -202 146 -72 10 10c-20,77 -25,149 -25,206 0,170 146,234 262,234 68,0 129,-34 129,-95 0,-81 -34,-217 -78,-339 68,-68 136,-136 214,-191l12 6c34,144 53,287 53,381 0,93 -41,196 -75,264 -70,132 -194,238 -344,238 -114,0 -241,-58 -328,-163l-5 0c-82,101 -209,193 -412,193l-63 0c-10,134 -39,229 -83,314 -121,237 -480,404 -818,404 -470,0 -706,-272 -706,-633 0,-223 73,-431 185,-578l92 38c-70,134 -117,262 -117,385 0,338 275,499 592,499 294,0 658,-187 724,-404 -25,-237 -114,-348 -250,-565 41,-72 94,-144 160,-221l12 0 0 0zm5421 -1274c99,62 196,136 291,221 -53,74 -119,142 -201,202 -95,-77 -190,-143 -287,-213 66,-74 131,-146 197,-210l0 0zm51 926c-160,0 -291,105 -291,183 0,168 320,219 703,217 -48,-196 -216,-400 -412,-400zm-359 895c208,0 390,-6 529,-41 155,-39 286,-118 286,-171 0,-15 0,-31 -5,-46 -87,8 -187,8 -274,8 -282,0 -498,-64 -583,-222 -21,-44 -36,-93 -36,-149 0,-152 66,-303 182,-406 97,-85 204,-138 313,-138 197,0 354,158 464,408 60,136 101,293 101,491 0,132 -36,243 -118,326 -153,148 -435,204 -867,204l-196 0 0 0 -51 0c-107,0 -184,-19 -245,-66l-10 0c3,25 5,50 5,72 0,97 -32,221 -97,320 -192,287 -400,410 -580,410 -182,0 -405,-70 -606,-161l36 -70c65,27 155,46 279,46 325,0 752,-314 805,-619 -12,-25 -34,-58 -65,-93 -95,-113 -155,-208 -211,-307 48,-95 92,-171 133,-239l17 -2c139,282 265,445 546,445l44 0 0 0 204 0 0 0zm-1408 299c24,-130 26,-276 26,-413l0 -202c0,-377 -48,-926 -87,-1282 68,-75 163,-161 238,-219l22 6c51,450 63,972 63,1452 0,126 -5,250 -17,340 -7,114 -73,201 -214,332l-31 -14 0 0zm-1449 -596c7,177 94,318 398,318 189,0 349,-50 526,-135 32,-14 49,-33 49,-49 0,-111 -85,-258 -228,-392 -139,-126 -323,-237 -495,-311 -59,-25 -78,-52 -78,-77 0,-51 68,-158 124,-235l19 -2c197,103 417,256 580,427 148,157 240,316 240,489 0,128 -39,250 -102,361 -216,109 -446,192 -674,192 -277,0 -466,-130 -466,-436 0,-33 0,-84 12,-150l95 0 0 0zm-501 -503l172 278c63,103 122,215 122,392l0 227c0,183 -117,379 -306,573 -148,132 -279,188 -400,188 -180,0 -386,-56 -624,-159l27 -70c75,21 162,37 269,37 342,-2 692,-252 852,-557 19,-35 26,-68 26,-90 0,-36 -19,-75 -34,-110 -87,-165 -184,-315 -291,-453 56,-89 112,-174 173,-258l14 2z"/>
   <path fill="#373435" fill-opacity="0.078431" d="M22607 3359l0 0 87 9 82 25 73 40 65 53 53 65 40 74 25 81 9 88 -10 87 -25 82 -41 73 -614 790 122 0 150 0 151 0 151 0 150 0 151 0 151 0 150 0 151 0 151 0 151 0 0 43 0 43 0 42 0 43 0 42 0 43 0 43 0 43 -1777 2283 56 -13 57 -11 57 -9 57 -7 57 -4 58 -4 58 -2 58 0 147 0 148 0 147 0 148 0 147 0 148 0 148 0 147 0 148 0 147 0 148 0 147 0 148 0 147 0 148 -1 33 0 1790 -2299 0 4 0 5 0 4 0 4 0 4 0 4 0 4 0 4 -1 149 1 150 0 149 1 149 0 150 0 149 -1 150 -2 149 -7 120 -14 119 -23 116 -32 113 -40 110 -50 107 -59 104 -69 101 -2109 2709 115 0 208 0 207 0 207 0 208 0 207 0 208 0 207 0 207 0 208 0 207 0 208 0 207 0 207 0 208 1 34 0 35 0 34 0 35 -1 35 -1 34 -2 34 -4 35 -4 100 -19 96 -26 94 -32 91 -39 87 -46 84 -52 81 -60 78 -65 74 -73 69 -77 -4580 5886 0 103 0 64 320 -412 5 -4 44 -30 45 -29 45 -28 47 -25 47 -23 49 -21 50 -19 52 -15 76 -14 70 -2 66 11 59 23 52 36 46 48 37 59 30 72 8 27 7 27 5 29 5 28 4 28 2 29 2 29 1 28 1 136 1 136 0 137 0 136 0 44 788 -1012 -52 70 -44 74 -36 78 -28 82 -22 87 -15 93 -9 99 -2 106 454 -585 45 -54 52 -46 58 -37 64 -26 70 -17 77 -7 53 2 51 7 49 13 47 19 44 25 41 30 38 35 36 42 32 47 28 48 23 50 19 51 16 53 12 54 9 55 7 56 1 18 1 17 1 18 1 18 1 18 1 17 0 18 2 18 -3 55 -3 55 -4 51 623 -800 -5 8 -4 9 -3 9 -1 10 0 12 0 91 0 92 0 91 0 92 0 30 318 -409 7 -7 8 -7 11 -7 54 -31 56 -26 56 -21 58 -17 59 -11 60 -6 62 -1 63 4 56 10 54 18 50 25 46 32 40 38 34 43 27 49 20 54 5 23 5 23 4 24 3 24 2 24 2 25 0 24 1 24 0 142 1 143 0 142 0 143 0 142 0 143 0 142 0 143 0 7 0 6 0 7 0 7 0 7 0 7 0 7 0 7 38 0 38 0 37 0 37 0 37 0 37 0 37 0 38 0 -2762 3548 -299 0 -42 0 -817 0 -72 0 -170 0 -61 0 -39 0 -437 0 -206 0 -177 0 -9 0 -35 0 -93 0 -46 0 -134 0 -25 0 -115 0 -119 0 -468 0 -309 0 -60 0 -125 0 -116 0 -42 0 -61 0 0 0 -328 0 -443 0 -18 0 -209 0 -76 0 -38 0 -297 0 -206 0 -231 0 -2 0 -12 0 -118 0 -27 0 -284 0 -13 0 -24 0 -31 0 -6 0 -89 0 -155 0 -48 0 -18 0 -25 0 -20 0 -114 0 -75 0 -4 0 -66 0 -6 0 -35 0 -46 0 -2 0 -6 0 -111 0 -3 0 -19 0 -2 0 -24 0 -61 0 -100 0 -66 0 -39 0 -21 0 -22 0 -69 0 -77 0 -158 0 -21 0 -91 0 -32 0 -182 0 -107 0 -44 0 -106 0 -106 0 -175 0 -120 0 -159 0 -7 0 -182 0 -28 0 -43 0 -141 0 -77 0 -22 0 -22 0 0 0 -74 0 -154 0 -89 0 -131 0 -71 0 -9 0 -28 0 -71 0 -115 0 -81 0 -132 0 -408 0 -28 0 -3 0 -73 0 -88 0 -26 0 -152 0 -129 0 -138 0 -1220 0 -30 0 -410 0 -167 0 -87 0 -76 0 -67 0 -3 0 -3 0 -18 0 -164 0 -1 0 -8 0 -258 0 -60 0 -487 0 -345 0 -1 0 -73 0 0 0 -487 0 -175 0 -114 0 -152 0 0 0 -15 0 -187 0 -144 0 -136 0 0 0 -35 0 -27 0 -10 0 -1 0 -61 0 -4 0 0 0 -74 0 -5 0 -13 0 -36 0 -74 0 -10 0 -16 0 0 0 -37 0 -74 0 -147 0 -21 0 -254 0 -23 0 -79 0 -20 0 -21 0 -78 0 -36 0 -189 0 -41 0 -59 0 -141 0 -143 0 -415 0 -22 0 -6 0 -120 0 -1574 0 -285 0 -294 0 -213 0 -206 0 -97 0 0 0 -473 0 -3 0 -1006 0 -1 0 -33 0 -1138 0 -1484 0 -142 0 -169 0 -365 0 0 -593 0 -1907 0 -182 0 -217 0 -1063 0 -2088 0 -218 6696 -8604 -59 109 -37 120 -13 129 0 2089 13 129 37 120 59 108 78 95 95 78 108 59 120 38 129 13 -639 822 0 1906 13 129 37 121 59 108 78 95 95 78 108 59 120 37 129 13 -639 822 0 1907 13 129 37 120 59 109 78 95 95 78 108 59 120 37 129 13 34 0 3587 -4610 0 0 21 79 36 78 50 75 65 74 78 71 91 69 103 66 115 64 -3140 4034 3 0 3139 -4033 48 24 50 23 52 23 53 23 55 22 56 21 58 21 59 21 -966 1241 37 76 52 75 1043 -1340 22 6 22 6 21 6 22 6 22 6 23 6 22 6 22 6 -1099 1413 42 37 102 72 43 26 1161 -1491 31 6 31 6 31 6 31 6 31 5 31 6 32 5 32 6 -1210 1555 140 62 153 59 164 55 175 50 184 46 194 42 203 37 211 31 -1193 1533 95 35 118 39 118 35 1244 -1599 17 1 17 1 17 2 16 1 17 1 17 2 17 1 17 1 -1261 1621 16 4 102 25 7193 -9244 -59 83 -54 86 -49 90 -45 93 -41 96 -28 72 -25 73 -23 74 -21 74 -18 75 -17 75 -5 22 2652 -3407 -36 48 -32 50 -28 52 -23 55 -19 58 -14 60 -3 17 -2 17 -1 17 -1 17 -1 18 0 17 -1 18 0 17 -1 4 0 3 0 4 0 4 0 4 1 3 0 4 0 4 0 134 0 134 0 134 1 134 0 134 0 34 0 100 0 135 0 36 1038 -1334 1 0zm6306 3507l0 0zm0 0l0 0zm-7345 -2444l679 -872 53 -64 64 -53 73 -40 82 -25 87 -9 0 0"/>
   <g>
    <g>
     <path fill="#347AB4" fill-rule="nonzero" d="M18994 7709c0,-110 0,-221 0,-332 1,-10 3,-21 4,-32 5,-195 23,-388 55,-581 33,-204 84,-403 160,-595 104,-259 248,-490 460,-674 162,-140 347,-237 555,-289 130,-33 263,-39 397,-38 1110,3 2220,1 3330,1 9,0 17,-1 25,-1 0,-115 0,-227 0,-342 -804,0 -1607,0 -2411,0 0,-13 0,-24 0,-35 -1,-358 -1,-716 -2,-1073 0,-10 -1,-20 0,-30 2,-46 1,-93 9,-138 31,-164 116,-298 234,-413 136,-132 298,-223 472,-293 262,-106 535,-163 814,-199 207,-27 414,-41 623,-46 7,0 14,-2 21,-3 128,0 255,0 382,0 10,1 20,3 29,3 233,6 465,25 696,61 225,35 446,87 659,170 212,82 409,191 572,354 138,137 235,297 279,487 20,89 18,178 18,269 -2,726 -1,1453 -1,2179 0,118 -13,234 -40,349 -70,296 -228,532 -485,696 -252,161 -531,234 -827,236 -787,3 -1574,1 -2361,1 -155,0 -308,12 -458,50 -277,71 -507,214 -675,448 -193,270 -276,577 -279,905 -4,388 -1,775 -1,1163 0,9 0,18 0,29 -12,0 -21,0 -30,0 -276,0 -553,1 -830,-1 -54,0 -108,-6 -160,-16 -220,-44 -410,-146 -574,-298 -190,-175 -320,-391 -417,-628 -80,-196 -133,-400 -170,-608 -34,-190 -54,-381 -64,-573 -3,-54 -6,-108 -9,-163l0 0 0 0zm3613 -4350l0 0c-240,0 -434,194 -434,432 0,241 193,436 432,437 240,0 435,-195 436,-434 0,-240 -194,-435 -435,-435l0 0 1 0z"/>
     <path fill="#FFEA00" fill-rule="nonzero" d="M28913 6866c0,448 0,896 0,1344 -6,38 -13,76 -19,114 -32,195 -79,386 -149,571 -100,260 -239,494 -447,683 -203,184 -440,297 -711,339 -91,14 -184,12 -276,12 -1106,-2 -2212,-1 -3318,-1 -9,0 -18,0 -28,0 0,115 0,227 0,342 804,0 1605,0 2410,0 0,10 0,19 0,28 1,381 3,762 4,1143 0,40 -4,81 -13,120 -38,178 -138,318 -272,436 -172,151 -376,244 -592,315 -297,97 -604,144 -915,167 -181,13 -364,17 -547,21 -232,5 -464,-5 -695,-31 -140,-16 -280,-38 -418,-64 -236,-44 -464,-114 -679,-223 -203,-103 -382,-236 -513,-425 -90,-131 -148,-274 -162,-433 -5,-58 -2,-117 -2,-175 0,-711 0,-1422 0,-2133 0,-126 9,-251 37,-374 67,-297 222,-536 479,-703 254,-166 538,-241 839,-242 789,-3 1578,-1 2366,-1 158,0 315,-14 468,-55 261,-70 478,-206 641,-422 198,-263 287,-566 294,-890 7,-398 1,-797 2,-1195 0,-11 0,-21 0,-33 13,0 22,0 32,0 266,0 531,1 796,-1 172,0 333,42 485,119 228,115 400,290 534,504 197,312 292,659 349,1019 7,42 14,83 20,124l0 0 0 0zm-3576 4871l0 0c240,1 435,-192 436,-432 1,-238 -194,-435 -431,-436 -242,0 -436,192 -437,432 -1,242 191,436 432,436z"/>
     <path fill="#4B4B4D" fill-rule="nonzero" d="M18893 14933c111,-113 242,-194 393,-243 192,-62 388,-88 588,-59 189,28 327,134 428,294 93,148 141,311 159,483 23,201 18,401 -51,594 -83,235 -224,418 -475,490 -191,55 -378,32 -559,-47 -59,-25 -116,-55 -177,-85 0,356 0,709 0,1069 -106,-39 -206,-76 -306,-113 0,-794 0,-1588 0,-2383l0 0 0 0zm1233 643l0 0c-6,-162 -14,-326 -74,-481 -54,-140 -143,-246 -299,-267 -189,-26 -367,19 -529,120 -14,8 -25,32 -25,49 -1,373 -1,747 0,1121 0,14 12,36 25,42 98,45 194,99 297,128 257,70 466,-50 549,-303 44,-132 52,-269 56,-409l0 0 0 0z"/>
     <path fill="#4B4B4D" fill-rule="nonzero" d="M24164 13590c0,421 0,842 0,1268 55,-33 104,-64 155,-90 173,-88 355,-131 550,-112 225,23 408,188 453,412 11,54 17,109 17,164 1,402 0,803 0,1205 0,12 -1,24 -1,39 -100,0 -197,0 -301,0 0,-18 0,-35 0,-53 0,-363 2,-727 -2,-1090 0,-75 -11,-154 -34,-225 -67,-206 -227,-288 -436,-233 -140,37 -262,108 -379,190 -13,10 -21,36 -21,54 -1,433 -1,865 -1,1297 0,19 0,37 0,59 -100,0 -199,0 -303,0 0,-16 0,-33 0,-49 0,-897 0,-1793 -1,-2690 0,-38 9,-56 48,-67 81,-22 159,-52 238,-79 6,0 12,0 18,0l0 0 0 0z"/>
     <path fill="#4B4B4D" fill-rule="nonzero" d="M22021 14667c102,0 199,0 303,0 0,18 0,34 0,50 0,528 0,1055 -1,1583 0,180 -10,360 -44,539 -37,194 -149,329 -317,420 -185,100 -384,149 -593,159 -29,2 -41,-7 -47,-35 -11,-49 -25,-97 -39,-152 71,-12 139,-23 208,-35 126,-21 248,-53 354,-130 82,-59 138,-136 160,-237 31,-149 32,-298 33,-456 -46,18 -86,34 -127,48 -197,69 -400,103 -609,85 -227,-19 -443,-204 -490,-421 -9,-40 -11,-82 -11,-123 -1,-398 0,-797 -1,-1196 0,-32 7,-49 40,-59 86,-27 170,-57 262,-89 0,23 0,41 0,58 0,396 0,791 1,1187 0,99 14,196 77,277 85,110 202,155 335,164 181,12 339,-54 486,-151 13,-8 19,-33 19,-50 1,-460 1,-920 1,-1379 0,-18 0,-36 0,-57l0 0 0 0z"/>
     <path fill="#4B4B4D" fill-rule="nonzero" d="M25617 15599c0,-291 59,-505 208,-689 149,-185 342,-281 580,-290 240,-10 450,60 618,236 153,160 233,353 250,572 20,235 -11,462 -127,671 -114,207 -280,348 -516,399 -429,91 -802,-121 -947,-542 -47,-134 -67,-273 -66,-357l0 0 0 0zm1333 -43l0 0c-3,-47 -4,-95 -8,-142 -14,-150 -53,-292 -146,-414 -90,-118 -214,-176 -359,-173 -211,4 -361,121 -434,322 -44,119 -56,243 -58,369 -1,165 15,327 75,482 102,258 285,366 540,313 176,-37 271,-162 326,-322 49,-141 59,-288 64,-435l0 0 0 0z"/>
     <path fill="#4B4B4D" fill-rule="nonzero" d="M29011 16477c-101,0 -196,0 -299,0 0,-19 0,-37 0,-55 0,-380 1,-760 -1,-1140 0,-64 -5,-130 -22,-191 -41,-149 -173,-252 -327,-269 -169,-18 -324,20 -468,109 -29,18 -42,37 -42,73 2,472 1,944 1,1415 0,19 0,37 0,57 -101,0 -199,0 -303,0 0,-16 0,-33 0,-49 0,-487 1,-974 0,-1462 -1,-32 10,-51 37,-71 210,-152 442,-247 701,-270 204,-18 402,1 569,138 98,81 156,184 156,314 1,460 1,919 1,1379 0,6 -2,12 -3,22z"/>
     <path fill="#4B4B4D" fill-rule="nonzero" d="M23504 16504c-144,8 -279,5 -405,-59 -142,-71 -226,-185 -231,-343 -8,-235 -5,-469 -6,-704 0,-163 -1,-327 1,-491 1,-46 -13,-59 -57,-55 -48,3 -97,0 -148,0 0,-63 0,-122 0,-187 53,0 104,-2 155,1 38,2 51,-9 50,-49 -2,-139 0,-278 -1,-418 -1,-31 9,-46 38,-56 87,-29 173,-60 264,-92 0,126 0,247 0,368 0,67 1,135 -1,202 -1,34 9,46 44,45 96,-3 192,-1 293,-1 0,62 0,122 0,187 -96,0 -190,2 -285,0 -39,-2 -53,7 -52,50 1,374 0,747 1,1121 0,38 3,77 11,114 27,125 105,187 255,203 74,9 74,9 74,82 0,26 0,52 0,82z"/>
    </g>
    <g>
     <path fill="#424A60" d="M10841 10899l0 -1729 6 0c-3,23 -6,44 -6,67 0,-432 685,-807 1691,-997l-5306 0c-353,0 -639,286 -639,639l0 2089c0,354 286,640 639,640l3615 0 0 -709z"/>
     <path fill="#556080" d="M10847 14091l-6 0 0 -2483 -3615 0c-353,0 -639,286 -639,640l0 2089c0,354 286,640 639,640l5091 0c-837,-190 -1408,-514 -1470,-886z"/>
     <path fill="#556080" d="M16229 8240l-9003 0c-353,0 -639,-287 -639,-640l0 -2089c0,-353 286,-640 639,-640l9003 0c353,0 640,287 640,640l0 2089c0,353 -287,640 -640,640z"/>
     <path fill="#7383BF" d="M8891 6556c0,342 -278,620 -620,620 -343,0 -621,-278 -621,-620 0,-343 278,-621 621,-621 342,0 620,278 620,621z"/>
     <path fill="#7383BF" d="M15451 6289c0,99 -79,178 -177,178 -98,0 -178,-79 -178,-178 0,-98 80,-176 178,-176 98,0 177,78 177,176z"/>
     <path fill="#7383BF" d="M14742 6289c0,99 -80,178 -177,178 -98,0 -178,-79 -178,-178 0,-98 80,-176 178,-176 97,0 177,78 177,176z"/>
     <path fill="#7383BF" d="M15806 6822c0,97 -80,177 -177,177 -98,0 -178,-80 -178,-177 0,-98 80,-178 178,-178 97,0 177,80 177,178z"/>
     <path fill="#7383BF" d="M15096 6822c0,97 -79,177 -176,177 -99,0 -178,-80 -178,-177 0,-98 79,-178 178,-178 97,0 176,80 176,178z"/>
     <path fill="#7383BF" d="M14033 6289c0,99 -80,178 -177,178 -98,0 -178,-79 -178,-178 0,-98 80,-176 178,-176 97,0 177,78 177,176z"/>
     <path fill="#7383BF" d="M14387 6822c0,97 -79,177 -177,177 -98,0 -177,-80 -177,-177 0,-98 79,-178 177,-178 98,0 177,80 177,178z"/>
     <path fill="#7383BF" d="M13323 6289c0,99 -79,178 -176,178 -99,0 -178,-79 -178,-178 0,-98 79,-176 178,-176 97,0 176,78 176,176z"/>
     <path fill="#7383BF" d="M13678 6822c0,97 -79,177 -177,177 -98,0 -178,-80 -178,-177 0,-98 80,-178 178,-178 98,0 177,80 177,178z"/>
     <path fill="#7383BF" d="M12614 6289c0,99 -79,178 -177,178 -98,0 -177,-79 -177,-178 0,-98 79,-176 177,-176 98,0 177,78 177,176z"/>
     <path fill="#7383BF" d="M12969 6822c0,97 -80,177 -177,177 -98,0 -178,-80 -178,-177 0,-98 80,-178 178,-178 97,0 177,80 177,178z"/>
     <path fill="#7383BF" d="M8891 9924c0,343 -278,621 -620,621 -343,0 -621,-278 -621,-621 0,-343 278,-621 621,-621 342,0 620,278 620,621z"/>
     <path fill="#7383BF" d="M8891 13292c0,343 -278,621 -620,621 -343,0 -621,-278 -621,-621 0,-342 278,-620 621,-620 342,0 620,278 620,620z"/>
     <path fill="#1A9172" d="M14033 13337c-1763,0 -3192,-506 -3192,-1130l0 1884 6 0c97,593 1487,1063 3186,1063 1699,0 3088,-470 3185,-1063l6 0 0 -1884c0,624 -1428,1130 -3191,1130z"/>
     <path fill="#1A9172" d="M10841 12140l0 67c0,-23 3,-45 6,-67l-6 0z"/>
     <path fill="#1A9172" d="M17218 12140c3,22 6,44 6,67l0 -67 -6 0z"/>
     <path fill="#25AE88" d="M14033 11431c-1763,0 -3192,-506 -3192,-1130l0 1972 6 0c97,594 1487,1064 3186,1064 1699,0 3088,-470 3185,-1064l6 0 0 -1972c0,624 -1428,1130 -3191,1130z"/>
     <path fill="#25AE88" d="M10841 10234l0 67c0,-23 3,-44 6,-67l-6 0z"/>
     <path fill="#25AE88" d="M17218 10234c3,23 6,44 6,67l0 -67 -6 0z"/>
     <path fill="#88C057" d="M17224 8484c0,624 -1428,1129 -3191,1129 -1763,0 -3192,-505 -3192,-1129 0,-625 1429,-1131 3192,-1131 1763,0 3191,506 3191,1131z"/>
     <path fill="#61B872" d="M14033 9613c-1763,0 -3192,-505 -3192,-1129l0 1883 6 0c97,593 1487,1064 3186,1064 1699,0 3088,-471 3185,-1064l6 0 0 -1883c0,624 -1428,1129 -3191,1129z"/>
     <path fill="#61B872" d="M10841 8417l0 67c0,-23 3,-45 6,-67l-6 0z"/>
     <path fill="#61B872" d="M17218 8417c3,22 6,44 6,67l0 -67 -6 0z"/>
    </g>
   </g>
  </g>
 </g>
</svg>
