<?xml version="1.0" encoding="UTF-8"?>
<!DOCTYPE svg PUBLIC "-//W3C//DTD SVG 1.1//EN" "http://www.w3.org/Graphics/SVG/1.1/DTD/svg11.dtd">
<!-- Creator: CorelDRAW 2020 (64-Bit) -->
<svg xmlns="http://www.w3.org/2000/svg" xml:space="preserve" width="94.1916mm" height="52.9166mm" version="1.1" style="shape-rendering:geometricPrecision; text-rendering:geometricPrecision; image-rendering:optimizeQuality; fill-rule:evenodd; clip-rule:evenodd" viewBox="0 0 9404.92 5283.66" xmlns:xlink="http://www.w3.org/1999/xlink" xmlns:xodm="http://www.corel.com/coreldraw/odm/2003">
 <defs>
  <style type="text/css">
   <![CDATA[
    .fil7 {fill:#00A859}
    .fil0 {fill:#E6E7E8}
    .fil3 {fill:#FEFEFE}
    .fil6 {fill:#2D2F57;fill-rule:nonzero}
    .fil4 {fill:#474747;fill-rule:nonzero}
    .fil5 {fill:#ED3237;fill-rule:nonzero}
    .fil8 {fill:#FEFEFE;fill-rule:nonzero}
    .fil2 {fill:#373435;fill-opacity:0.031373}
    .fil1 {fill:#2B2A29;fill-opacity:0.101961}
   ]]>
  </style>
 </defs>
 <g id="Layer_x0020_1">
  <metadata id="CorelCorpID_0Corel-Layer"/>
  <polygon class="fil0" points="-0,0 9404.92,0 9404.92,5283.66 -0,5283.66 "/>
  <polygon class="fil1" points="-0,5138.32 -0,5118.71 -0,5081.58 -0,5018.6 -0,4995 -0,4972.38 -0,4550.33 -0,4516.01 -0,4469.72 -0,4427.07 -0,4424.51 -0,4423.59 -0,4412.97 -0,4368.79 -0,4346.95 -0,4344.3 -0,4324.54 -0,4311.51 -0,4283.77 -0,4257.43 -0,4198.79 -0,4115.3 -0,4066.86 -0,4060.22 -0,4056.69 -0,3895.63 -0,3820.46 -0,3818.07 -0,3813.13 -0,3803.87 -0,3767.96 -0,3755.28 -0,3754.49 -0,3715.77 -0,3696.42 -0,3671.55 -0,3664.09 -0,3655.66 -0,3627.69 -0,3611.92 -0,3559.85 -0,3558.35 -0,3552.23 -0,3537.13 -0,3536.44 -0,3533.26 -0,3500.41 -0,3474.6 -0,3468.63 -0,3450.97 -0,3436.62 -0,3433.71 -0,3412.2 -0,3405.15 -0,3403.57 -0,3400.41 -0,3389.08 -0,3365.15 -0,3360.06 -0,3356.5 -0,3355.52 -0,3348.7 -0,3347.21 -0,3307.42 -0,3296.13 -0,3295.5 -0,3281.16 -0,3280.02 -0,3275.05 -0,3274.85 -0,3213 -0,3164.63 -0,3147.02 -0,3141.12 -0,3139.44 -0,3136.76 -0,3006.07 -0,2745.26 -0,2624.45 -0,2565.45 2663.38,1361.79 2663.38,1424.94 2663.38,1554.28 2789.7,1497.79 3425.82,1497.79 4252.2,1133.96 4236.78,1142.45 4221.46,1152.83 4206.26,1165.13 4191.17,1179.31 4176.21,1195.41 4161.35,1213.41 4146.6,1233.34 4131.97,1255.18 4117.46,1278.94 4103.06,1304.62 4088.77,1332.24 4077.53,1355.67 4300.93,1258.09 4308.11,1255.7 4315.06,1254.9 4321.52,1255.67 4327.71,1257.83 4605.25,1136.67 4591.65,1142.87 4578.39,1150.79 4565.5,1160.37 4553.01,1171.61 4540.95,1184.47 4534.57,1191.99 4528.23,1199.99 4521.94,1208.51 4515.74,1217.57 4509.65,1227.19 4503.71,1237.42 4497.94,1248.27 4492.37,1259.77 4374.97,1310.82 4378.92,1317.59 4386.76,1332.35 4394.73,1348.69 4402.83,1366.6 4403.25,1367.59 4651.66,1259.99 4652.69,1259.76 4653.81,1259.99 4655.38,1260.67 4657.34,1261.81 4659.67,1263.41 4659.83,1263.53 4965.32,1131.26 4953.81,1136.82 4942.4,1143.6 4931.07,1151.59 4919.86,1160.78 4908.76,1171.17 4897.78,1182.74 4886.93,1195.5 4876.21,1209.43 4865.63,1224.53 4855.21,1240.79 4844.95,1258.2 4834.84,1276.76 4713.75,1328.93 4716.14,1332.72 4722.82,1343.87 4729.58,1355.72 4736.35,1368.16 4998.35,1255.56 5004.15,1253.24 5009.74,1252.47 5015.34,1253.27 5021.06,1255.6 5285.95,1141.82 5272.06,1148.93 5258.62,1157.76 5245.64,1168.25 5233.12,1180.4 5221.05,1194.17 5215.69,1200.77 5210.54,1207.8 5205.55,1215.23 5200.71,1223.03 5195.98,1231.17 5191.33,1239.61 5186.75,1248.35 5182.18,1257.34 5064.51,1307.69 5069.57,1316.6 5077.42,1331.58 5085.49,1348.13 5093.43,1365.49 5333.58,1263.14 5335.7,1262.42 5337.64,1262.19 5339.69,1262.42 5342.15,1263.1 5345.02,1264.24 5348.26,1265.83 5351.84,1267.88 5355.73,1270.39 5359.92,1273.34 5364.35,1276.76 5371.27,1283.02 5378.35,1289.97 5385.58,1297.62 5392.97,1305.94 5400.49,1314.98 5408.15,1324.7 5415.95,1335.15 5423.86,1346.29 5431.89,1358.14 5440.01,1370.71 5448.25,1384 5456.58,1398.01 5464.99,1412.75 5473.47,1428.22 5482.03,1444.42 5490.66,1461.36 5507.65,1495.37 5546.51,1495.37 6860.56,1495.37 6860.56,2309.05 6860.56,2335.77 6882.42,2355.2 6991.72,2454.79 6734.25,2568.95 6603.1,2627.25 6736.69,2683.12 6933.43,2765.7 6770.69,2836.15 6649.24,2889.58 6768.26,2950.3 6950.44,3042.6 6763.4,3134.9 6685.68,3173.77 6743.97,3236.92 6872.71,3372.94 6872.71,4038.47 6511.17,4164.77 6935.86,4164.77 6999.01,4164.77 3761.12,5283.66 3702.53,5283.66 3308.55,5283.66 1627.42,5283.66 1187.94,5283.66 987.66,5283.66 963.97,5283.66 910.28,5283.66 539.6,5283.66 298.66,5283.66 281.35,5283.66 260.91,5283.66 18.15,5283.66 -0,5283.66 -0,5249.02 -0,5200.29 -0,5177.73 -0,5158.16 -0,5151.35 "/>
  <path class="fil2" d="M578.49 4627.69c17.95,27.21 29.6,53.36 40.96,82.43 8.45,16.91 12.93,48.09 52.57,48.09 11.61,0 28.28,-3.42 43.06,-11.61 16.63,-8.73 29.32,-21.94 35.94,-42l15.85 -53.36 38.57 -19.02 2.64 2.64c-5.27,20.09 -6.59,39.36 -6.59,54.43 0,44.63 38.57,61.56 69.22,61.56 17.95,0 34.09,-8.73 34.09,-25.11 0,-21.13 -8.98,-57.06 -20.62,-89.29 17.95,-17.95 35.94,-35.94 56.53,-50.47l3.17 1.6c8.98,38.04 14,75.56 14,100.66 0,24.57 -10.83,51.79 -19.81,69.49 -18.49,34.87 -51.25,62.62 -90.87,62.62 -30.1,0 -63.65,-15.07 -86.66,-43.06l-1.32 0c-21.66,26.96 -55.22,51.25 -108.86,51.25l-16.63 0c-2.64,35.41 -10.29,60.49 -21.94,82.95 -31.95,62.34 -126.81,106.47 -216.1,106.47 -124.17,0 -186.51,-71.59 -186.51,-166.96 0,-58.91 19.27,-113.6 48.88,-152.42l24.29 10.04c-18.49,35.41 -30.91,68.68 -30.91,101.45 0,89.29 72.66,131.83 156.4,131.83 77.68,0 173.83,-49.41 191.28,-106.72 -6.59,-62.62 -30.1,-91.93 -66.04,-148.99 10.83,-19.02 24.83,-38.04 42.28,-58.38l3.17 0 0 0 0 0 -0.02 -0.09zm1432.13 -336.04c26.15,16.39 51.79,35.66 76.87,57.85 -14,19.81 -31.45,37.79 -53.11,53.64 -25.11,-20.34 -50.19,-37.79 -75.84,-56.27 17.42,-19.55 34.62,-38.29 52.04,-55.22l0 0 0 0 0 0 0 0 0 0 0.03 0zm13.47 244.11c-42.28,0 -76.87,27.75 -76.87,48.34 0,44.13 84.53,57.85 185.72,57.31 -12.68,-51.79 -57.06,-105.68 -108.86,-105.68l0.01 0.03zm-94.86 236.19c54.96,0 103.04,-1.6 139.74,-10.83 40.96,-10.29 75.56,-30.91 75.56,-45.17 0,-3.7 0,-8.19 -1.32,-11.89 -22.98,2.11 -49.41,2.11 -72.38,2.11 -74.49,0 -131.55,-16.91 -154.02,-58.66 -5.55,-11.61 -9.51,-24.57 -9.51,-39.36 0,-40.43 17.42,-79.79 48.09,-107 25.61,-22.45 53.89,-36.44 82.67,-36.44 52.04,0 93.51,41.75 122.57,107.54 15.85,35.94 26.68,77.4 26.68,129.72 0,34.87 -9.51,64.19 -31.17,85.85 -40.43,39.11 -114.92,53.89 -229.04,53.89l-51.79 0 0 0 -13.47 0c-28.28,0 -48.62,-5.02 -64.72,-17.42l-2.64 0c0.79,6.59 1.32,12.93 1.32,19.02 0,25.61 -8.45,58.38 -25.61,84.53 -50.72,75.3 -105.68,108.04 -153.24,108.04 -48.09,0 -107,-18.49 -160.11,-42.54l9.51 -18.49c17.17,7.13 40.96,11.89 73.7,11.89 85.85,0 198.66,-82.43 212.66,-163 -3.17,-6.59 -8.98,-15.32 -17.17,-24.57 -25.11,-29.85 -40.96,-54.68 -55.75,-80.83 12.68,-25.11 24.29,-45.17 35.13,-63.4l4.49 -0.53c36.72,74.77 69.99,117.55 144.23,117.55l11.61 0 0 0 53.89 0 0 0 0 0 0 0 0 0 0 0 0.09 0.01zm-371.98 79c6.34,-34.34 6.87,-72.91 6.87,-108.86l0 -53.36c0,-99.6 -12.68,-244.36 -22.98,-338.68 17.95,-19.27 43.06,-42 62.87,-57.31l5.81 1.6c13.47,118.62 16.63,256 16.63,383.06 0,33.3 -1.32,65.79 -4.49,89.55 -1.85,30.1 -19.27,52.83 -56.53,87.7l-8.19 -3.7zm-382.8 -157.19c1.85,46.77 24.83,83.49 105.15,83.49 49.93,0 92.19,-12.93 138.96,-35.13 8.45,-3.7 12.93,-8.73 12.93,-12.93 0,-29.32 -22.45,-68.15 -60.23,-103.55 -36.72,-33.3 -85.34,-62.62 -130.76,-82.18 -15.6,-6.59 -20.62,-13.47 -20.62,-20.09 0,-13.47 17.95,-41.75 32.77,-62.09l5.02 -0.53c52.04,27.21 110.17,67.64 153.24,112.53 39.11,41.47 63.4,83.49 63.4,129.19 0,33.81 -10.29,65.51 -26.96,95.11 -57.06,28.79 -117.83,50.72 -178.06,50.72 -73.17,0 -123.1,-34.34 -123.1,-114.92 0,-8.73 0,-22.19 3.17,-39.64l25.11 0 0 0 0 0 0 0 0 0 0 0 -0.02 0zm-132.37 -132.9l45.45 73.45c16.63,27.21 32.23,56.81 32.23,103.55l0 59.7c0,48.34 -30.91,100.13 -80.83,151.38 -39.11,34.62 -73.7,49.41 -105.68,49.41 -47.55,0 -101.98,-14.79 -164.85,-41.75l7.13 -18.49c19.81,5.27 42.79,9.77 71.06,9.77 90.36,-0.53 182.8,-66.57 225.08,-147.15 5.02,-9.26 6.87,-17.95 6.87,-24.04 0,-9.26 -5.02,-19.55 -8.98,-28.79 -22.98,-43.31 -48.62,-82.95 -76.87,-119.68 14.79,-23.25 29.6,-45.7 45.7,-67.9l3.7 0.53 0 0 0 0 0 0 0 0 0 0 -0.02 0.01z"/>
  <g id="_3029069165168">
   <circle class="fil3" cx="2719.25" cy="2748.71" r="527.08"/>
   <path class="fil4" d="M2663.38 2243.49l0 -818.55 0 -63.15 63.15 0 1348.06 0c75.3,-162.74 155.44,-242.89 240.47,-242.89 65.58,0 123.87,46.14 177.31,140.88 14.57,-31.57 31.57,-55.88 48.58,-75.31 31.57,-36.42 68.01,-55.87 106.87,-55.87 38.86,-2.43 75.3,14.57 111.73,48.58 24.28,24.28 48.58,55.87 75.3,99.58 53.44,-102.02 114.17,-155.44 177.32,-155.44 60.73,0 116.58,46.15 170.02,136.02 12.15,-24.29 24.29,-46.15 38.86,-63.16 31.57,-38.85 68.02,-60.73 109.3,-63.15 38.86,-2.43 77.72,12.14 116.58,43.71 43.72,36.43 89.87,99.59 138.45,189.46l1338.33 0 63.15 0 0 63.15 0 847.7 160.31 145.73 70.44 65.59 -87.45 38.86 -213.75 94.73 199.18 85.01 136.01 55.88 -133.59 58.29 -174.89 77.73 174.89 89.87 111.73 58.29 -111.73 55.88 -223.46 109.3 87.45 92.3 16.99 19.43 0 24.28 0 755.4 0 63.15 -63.15 0 -4226.33 0 -63.15 0 0 -63.15 0 -825.84 126.31 0 0 762.69 4100.02 0 0 -665.52 -128.74 -136.02 -58.29 -63.15 77.72 -38.86 187.04 -92.3 -182.17 -92.3 -119.02 -60.73 121.45 -53.43 162.74 -70.44 -196.74 -82.58 -133.59 -55.87 131.15 -58.3 257.47 -114.16 -109.3 -99.59 -21.86 -19.43 0 -26.72 0 -813.69 -1314.05 0 -38.86 0 -16.99 -34.01c-46.15,-92.3 -89.87,-153.02 -126.31,-184.6 -12.14,-9.72 -21.86,-14.57 -26.71,-14.57 -4.86,0 -12.15,4.85 -19.43,17 -24.29,31.57 -48.58,87.44 -68.02,170.02l-51 194.32 -70.44 -189.45c-48.58,-133.59 -89.87,-201.6 -119.01,-201.6 -29.15,0 -68.02,65.58 -114.17,201.6l-53.43 153.02 -63.15 -148.17c-38.86,-92.3 -75.3,-153.02 -106.88,-184.6 -9.71,-9.72 -16.99,-14.57 -19.42,-14.57 -2.44,0 -7.29,4.85 -17,14.57 -26.72,29.15 -53.43,89.87 -80.16,177.32l-55.87 184.6 -63.16 -182.17c-46.14,-133.59 -87.44,-199.18 -121.44,-199.18 -36.43,0 -82.59,68.02 -140.88,204.03l-17 38.86 -41.29 0 -1326.19 0 0 757.82 -126.3 0 0 0 -0.02 -12.12z"/>
   <path class="fil5" d="M2726.53 2180.35c157.88,0 303.62,65.58 408.06,167.6 104.44,104.44 167.6,247.74 167.6,405.64 0,157.87 -63.15,303.62 -167.6,408.06 -104.44,104.44 -247.74,167.6 -408.06,167.6 -157.87,0 -303.62,-65.58 -405.64,-167.6 -104.44,-104.44 -167.6,-247.75 -167.6,-408.06 0,-157.88 65.58,-303.62 167.6,-405.64 104.45,-104.44 247.75,-167.6 408.06,-167.6l-2.43 0zm318.19 257.46c-80.16,-80.16 -194.32,-131.16 -318.19,-131.16 -123.87,0 -235.6,51 -318.19,131.16 -82.58,80.16 -131.16,194.32 -131.16,318.19 0,123.87 51,235.6 131.16,318.19 80.16,80.16 194.32,131.16 318.19,131.16 123.87,0 235.6,-51 318.19,-131.16 80.16,-80.16 131.16,-194.32 131.16,-318.19 0,-123.87 -51,-235.6 -131.16,-318.19z"/>
   <polygon class="fil6" points="2694.95,2746.28 2694.95,2595.69 2544.36,2595.69 2544.36,2532.54 2694.95,2532.54 2694.95,2384.38 2758.1,2384.38 2758.1,2532.54 2906.27,2532.54 2906.27,2595.69 2758.1,2595.69 2758.1,2746.28 "/>
   <path class="fil6" d="M2544.36 3074.19l0 -63.15c264.75,0 97.16,0 361.91,0l0 63.15c-264.75,0 -97.16,0 -361.91,0z"/>
   <circle class="fil7" cx="4948.99" cy="2717.14" r="648.52"/>
   <path class="fil8" d="M5089.87 3120.35l-153.02 0 0 -580.51c-55.87,53.43 -121.44,92.3 -199.17,116.58l0 -140.87c41.29,-12.15 82.58,-38.86 131.16,-75.31 46.14,-36.42 80.16,-80.16 97.15,-128.73l123.87 0 0 808.84 0 -0.01z"/>
  </g>
 </g>
</svg>