<?xml version="1.0" encoding="UTF-8"?>
<!DOCTYPE svg PUBLIC "-//W3C//DTD SVG 1.0//EN" "http://www.w3.org/TR/2001/REC-SVG-20010904/DTD/svg10.dtd">
<!-- Creator: CorelDRAW -->
<svg xmlns="http://www.w3.org/2000/svg" xml:space="preserve" width="94.1916mm" height="52.9166mm" version="1.0" style="shape-rendering:geometricPrecision; text-rendering:geometricPrecision; image-rendering:optimizeQuality; fill-rule:evenodd; clip-rule:evenodd"
viewBox="0 0 9404.92 5283.66"
 xmlns:xlink="http://www.w3.org/1999/xlink"
 xmlns:xodm="http://www.corel.com/coreldraw/odm/2003">
 <defs>
  <style type="text/css">
   <![CDATA[
    .fil3 {fill:#FEFEFE}
    .fil6 {fill:#090A05}
    .fil4 {fill:#1A1B13}
    .fil5 {fill:#F6F0E2}
    .fil7 {fill:#FDFAF5}
    .fil2 {fill:#373435;fill-opacity:0.031373}
    .fil1 {fill:#2B2A29;fill-opacity:0.101961}
    .fil0 {fill:#E6E7E8}
   ]]>
  </style>
 </defs>
 <g id="Layer_x0020_1">
  <metadata id="CorelCorpID_0Corel-Layer"/>
  <polygon class="fil0" points="-0,0 9404.92,0 9404.92,5283.66 -0,5283.66 "/>
  <polygon class="fil1" points="6532.25,3955.98 6723.22,4667.13 4773.4,5283.66 38.76,5283.66 -0,5283.66 -0,2004.49 2736.98,573.52 "/>
  <path class="fil2" d="M548.54 4627.69c17.95,27.21 29.6,53.36 40.96,82.43 8.45,16.91 12.93,48.09 52.57,48.09 11.61,0 28.28,-3.42 43.06,-11.61 16.63,-8.73 29.32,-21.94 35.94,-42l15.85 -53.36 38.57 -19.02 2.64 2.64c-5.27,20.09 -6.59,39.36 -6.59,54.43 0,44.63 38.57,61.56 69.22,61.56 17.95,0 34.09,-8.73 34.09,-25.11 0,-21.13 -8.98,-57.06 -20.62,-89.29 17.95,-17.95 35.94,-35.94 56.53,-50.47l3.17 1.6c8.98,38.04 14,75.56 14,100.66 0,24.57 -10.83,51.79 -19.81,69.49 -18.49,34.87 -51.25,62.62 -90.87,62.62 -30.1,0 -63.65,-15.07 -86.66,-43.06l-1.32 0c-21.66,26.96 -55.22,51.25 -108.86,51.25l-16.63 0c-2.64,35.41 -10.29,60.49 -21.94,82.95 -31.95,62.34 -126.81,106.47 -216.1,106.47 -124.17,0 -186.51,-71.59 -186.51,-166.96 0,-58.91 19.27,-113.6 48.88,-152.42l24.29 10.04c-18.49,35.41 -30.91,68.68 -30.91,101.45 0,89.29 72.66,131.83 156.4,131.83 77.68,0 173.83,-49.41 191.28,-106.72 -6.59,-62.62 -30.1,-91.93 -66.04,-148.99 10.83,-19.02 24.83,-38.04 42.28,-58.38l3.17 0 0 0 0 0 -0.02 -0.09zm1432.13 -336.04c26.15,16.39 51.79,35.66 76.87,57.85 -14,19.81 -31.45,37.79 -53.11,53.64 -25.11,-20.34 -50.19,-37.79 -75.84,-56.27 17.42,-19.55 34.62,-38.29 52.04,-55.22l0 0 0 0 0 0 0 0 0 0 0.03 0zm13.47 244.11c-42.28,0 -76.87,27.75 -76.87,48.34 0,44.13 84.53,57.85 185.72,57.31 -12.68,-51.79 -57.06,-105.68 -108.86,-105.68l0.01 0.03zm-94.86 236.19c54.96,0 103.04,-1.6 139.74,-10.83 40.96,-10.29 75.56,-30.91 75.56,-45.17 0,-3.7 0,-8.19 -1.32,-11.89 -22.98,2.11 -49.41,2.11 -72.38,2.11 -74.49,0 -131.55,-16.91 -154.02,-58.66 -5.55,-11.61 -9.51,-24.57 -9.51,-39.36 0,-40.43 17.42,-79.79 48.09,-107 25.61,-22.45 53.89,-36.44 82.67,-36.44 52.04,0 93.51,41.75 122.57,107.54 15.85,35.94 26.68,77.4 26.68,129.72 0,34.87 -9.51,64.19 -31.17,85.85 -40.43,39.11 -114.92,53.89 -229.04,53.89l-51.79 0 0 0 -13.47 0c-28.28,0 -48.62,-5.02 -64.72,-17.42l-2.64 0c0.79,6.59 1.32,12.93 1.32,19.02 0,25.61 -8.45,58.38 -25.61,84.53 -50.72,75.3 -105.68,108.04 -153.24,108.04 -48.09,0 -107,-18.49 -160.11,-42.54l9.51 -18.49c17.17,7.13 40.96,11.89 73.7,11.89 85.85,0 198.66,-82.43 212.66,-163 -3.17,-6.59 -8.98,-15.32 -17.17,-24.57 -25.11,-29.85 -40.96,-54.68 -55.75,-80.83 12.68,-25.11 24.29,-45.17 35.13,-63.4l4.49 -0.53c36.72,74.77 69.99,117.55 144.23,117.55l11.61 0 0 0 53.89 0 0 0 0 0 0 0 0 0 0 0 0.09 0.01zm-371.98 79c6.34,-34.34 6.87,-72.91 6.87,-108.86l0 -53.36c0,-99.6 -12.68,-244.36 -22.98,-338.68 17.95,-19.27 43.06,-42 62.87,-57.31l5.81 1.6c13.47,118.62 16.63,256 16.63,383.06 0,33.3 -1.32,65.79 -4.49,89.55 -1.85,30.1 -19.27,52.83 -56.53,87.7l-8.19 -3.7zm-382.8 -157.19c1.85,46.77 24.83,83.49 105.15,83.49 49.93,0 92.19,-12.93 138.96,-35.13 8.45,-3.7 12.93,-8.73 12.93,-12.93 0,-29.32 -22.45,-68.15 -60.23,-103.55 -36.72,-33.3 -85.34,-62.62 -130.76,-82.18 -15.6,-6.59 -20.62,-13.47 -20.62,-20.09 0,-13.47 17.95,-41.75 32.77,-62.09l5.02 -0.53c52.04,27.21 110.17,67.64 153.24,112.53 39.11,41.47 63.4,83.49 63.4,129.19 0,33.81 -10.29,65.51 -26.96,95.11 -57.06,28.79 -117.83,50.72 -178.06,50.72 -73.17,0 -123.1,-34.34 -123.1,-114.92 0,-8.73 0,-22.19 3.17,-39.64l25.11 0 0 0 0 0 0 0 0 0 0 0 -0.02 0zm-132.37 -132.9l45.45 73.45c16.63,27.21 32.23,56.81 32.23,103.55l0 59.7c0,48.34 -30.91,100.13 -80.83,151.38 -39.11,34.62 -73.7,49.41 -105.68,49.41 -47.55,0 -101.98,-14.79 -164.85,-41.75l7.13 -18.49c19.81,5.27 42.79,9.77 71.06,9.77 90.36,-0.53 182.8,-66.57 225.08,-147.15 5.02,-9.26 6.87,-17.95 6.87,-24.04 0,-9.26 -5.02,-19.55 -8.98,-28.79 -22.98,-43.31 -48.62,-82.95 -76.87,-119.68 14.79,-23.25 29.6,-45.7 45.7,-67.9l3.7 0.53 0 0 0 0 0 0 0 0 0 0 -0.02 0.01z"/>
  <rect class="fil3" x="2589.93" y="529.31" width="4225.03" height="4225.03" rx="304.59" ry="304.59"/>
  <g id="_1896482284112">
   <path class="fil4" d="M3598.29 4371.56c9.03,-23.22 6.72,-17.08 30.07,-28.66 12.77,-6.33 27.91,-14.68 40.68,-19.17 -10.66,18.98 -44.73,38.42 -70.75,47.83zm14.2 -36.65c14.74,-37.83 -4.6,-22.53 81.55,-66.07 -5.17,30.35 -11.87,30.96 -33.62,42.51 -12.5,6.63 -36.41,21.59 -47.93,23.56zm9.23 -41.33l4.18 -39.81 74.35 -35.51c1.61,33.24 -1.43,37.31 -25.31,48.13 -17.26,7.82 -38.03,21.49 -53.22,27.19zm2.49 -96.14c10.09,-6.1 23.97,-12.74 36.98,-19.65 14.02,-7.44 26.88,-16.44 38.72,-22.04 3.11,58.69 9.63,43.63 -34.63,65.74 -13.34,6.67 -25.12,15.57 -40.06,20.3l-1.02 -44.35zm-458.55 -216.44c-11.91,-161.18 87.94,-298.81 257.44,-140.65 90.34,84.29 175.41,226.67 186.3,362.42 6.39,79.78 -16.27,171.24 -70.54,200.3 -72.75,38.95 -154.78,-25.51 -192.79,-55.1 -46.38,-36.08 -89.96,-102.38 -116.83,-155.7 -32.12,-63.76 -57.39,-127.76 -63.57,-211.27zm1262.95 -14.96c11.42,-29.1 28.23,-20.81 62.07,-42.19 -4.91,16.9 -51,38.69 -62.07,42.19zm11.98 -32.75c5.84,-31.81 3.96,-22.88 30.6,-35.85 15.02,-7.32 29.26,-16.69 43.09,-22.17 -12.95,31.69 -30.91,42.07 -73.7,58.01zm-261.48 1.41c8.65,-19.87 1.23,-20.02 23.46,-29.39 13.82,-5.81 21.01,-11.08 33.68,-17.11 19.51,-9.29 56.55,-27.91 75.5,-33.7 -11.02,21.95 -31.85,31.2 -60.21,44.38 -21.59,10.03 -53.07,29.59 -72.43,35.82zm269.07 -40.42l4.36 -35.23 71.55 -34.92c-2.61,34.47 -0.32,33.7 -28.68,46.54 -17.48,7.92 -31.31,19.26 -47.24,23.6zm3.17 -48.17l0.52 -63.36c24.49,-4.88 52.07,-28.78 74.1,-35.23l0.21 63.27c-16.34,8.94 -59.45,31.12 -74.83,35.32zm-886.28 -42.88c49.48,-47.6 67.3,-17.99 60.86,-173.4 26.52,11.57 39.49,27.83 91.96,42.31 36.62,10.1 74.52,17.6 114.53,19.55 88.96,4.33 157.38,-9.82 228.14,-38.46 0.17,26.86 -5.17,182.13 0.26,191.51 20.83,-18.28 2.1,-158.99 10.1,-196.77 3.16,-6.77 27.72,-19.49 37.12,-24.38l-1.06 160.71c28.06,-1.53 25.17,-12.97 25.17,-40.15 0,-21.6 0.38,-43.32 -0.87,-64.86 14.5,17.68 30.14,55.4 36.66,75.96 35.54,112.03 19.17,154.72 -53.35,251.95 -31.82,42.65 -69.79,72.12 -124.1,101.12 -44.76,23.89 -128.58,49.87 -186.02,26.52 21.41,-33.49 37.83,-89.11 23.27,-105.87 -12.59,17.56 -10.66,67.77 -30.41,91.41 -6.74,8.07 -24.24,15.85 -36.13,23.17l-33.55 24.51 0.43 -32.84c30.79,-19.79 72.95,-30.9 74.03,-53.38 -23.42,11.99 -56.19,31.02 -80.17,44.24l-6.65 -33.3c13.2,-8.16 26.34,-13.92 41.31,-21.14 33.84,-16.34 36.02,-16.81 33.61,-29.42l-76.36 38.13c-9.92,-20.62 -18.42,-57.05 -27.29,-80.51 -21.95,-58.07 -68.21,-136.06 -109.58,-183.24 -4.93,-5.62 -7.02,-5.48 -11.92,-13.37zm-263.27 -55.57c52.03,-17.59 74.67,-44.27 158.41,4.43 48.57,28.25 76.29,57.46 110.56,98.64 54.03,64.91 116.11,184.28 127.34,296.39 -25.55,8.6 -51.31,25.37 -75.55,35.73 -4.82,-108.64 -88.95,-246.53 -150.62,-320.21 -16.77,-20.04 -30.05,-30.76 -47.37,-47.42 -48.92,-47.04 -67.56,-46.25 -114.2,-63.6 -8.31,-3.09 -3.8,-0.91 -8.58,-3.96zm830.3 -96.77c0.01,-34.64 -5.47,-42.93 10.37,-66.24 11.99,-17.64 20.48,-27.34 18.83,-56.09 58.2,-9.03 96.38,54.57 117.38,88.5 27.87,45.02 45.47,101.15 47.17,166.42 -12.36,10.71 -64.11,34.53 -85.69,44.88 -13.57,6.51 -20.67,7.32 -24.23,18.32 13.22,6.82 88.91,-40.01 110.56,-47.82 -3.99,44.22 3.83,28.04 -55.61,60.26 -23.95,12.99 -55.45,29.07 -79.65,39.73 14.57,-74.63 5.91,-112.49 -24.97,-185.18 -8.52,-20.03 -20.92,-34.25 -28.32,-50.01 14.29,-8.62 32.74,-16.89 49.57,-25.78 10.13,-5.35 16.39,-7.31 27.19,-12.75 2.8,-1.41 10.36,-5.22 12.52,-6.68 12.98,-8.75 6.62,0.01 11.56,-13.07 -26.19,1.75 -78.87,36.33 -106.7,45.51zm-543.13 -158.79c7.84,2.93 1.16,-2.2 11.53,8.76 4.69,4.95 5.69,7.4 10.96,12.96 93.41,98.57 346.78,118.18 477.02,20.9 25.95,-19.39 48,-46.59 50.51,-48.69 -5.67,55.61 3.15,97.52 -85.14,140.46 -51.8,25.19 -119.88,40.08 -186.6,40.05 -82.54,-0.05 -209.71,-25.01 -255.98,-85.25 -26.43,-34.41 -13.8,-48.55 -22.31,-89.18zm218.6 -77.8l159.74 -17.62c-3.79,90.64 18.88,69.89 -159.24,85.93l-0.5 -68.31zm-116.57 19.72c12.98,12.62 44.68,35.95 66.64,48.42 32.79,18.61 61,20.74 104.31,15.36 144.55,-17.96 69.23,21.42 170.23,-59.09 9.28,-7.4 1.39,-2.23 10.86,-7.62 -3.81,10.38 -6.61,16.84 -11.79,22.97 -11.57,13.66 -34.15,29.63 -55.25,39.31 -108.01,49.58 -272.53,12.35 -285.01,-59.34zm8.81 -80.96c19.11,6.98 46.24,31.14 64.75,43.32 14.35,9.45 22.09,8.83 25.44,24.8 2.92,13.9 2.86,40.03 4.63,55.98 -27.37,-13.61 -46.15,-25.64 -68.19,-42.7 -29.86,-23.12 -30.12,-32.93 -26.64,-81.41zm455.43 27.57c27.33,5.34 77.8,39.14 95.3,54.98 56.05,50.78 26.88,19.09 73.71,80.43 35.89,46.99 83.43,138.24 99.52,208.66 19.72,86.27 19.62,196.6 -27.43,256.26 -24.74,31.38 -61.34,44.6 -112.91,37.97 -49.73,-6.39 -77.11,-34.6 -103.91,-48.76l128.36 -74.06c94.77,-68.65 -5.58,-396.75 -146.53,-382.97 1.79,-37.26 4.61,-101.68 -6.1,-132.52zm-97.21 -54.24c88.24,27.08 100.26,135.24 35.17,185.08 -196.76,150.65 -555.37,35.71 -495.15,-119.57 16.76,-43.24 43.86,-50.27 78.8,-73.7 2.26,32.46 -30.79,110.43 23.47,158.3 111.5,98.34 336.04,51.67 358.3,-50.43 9.11,-41.78 -4.54,-61.96 -0.59,-99.68zm-76.2 125.32c-2.63,-7.77 -1.67,-1.05 -1.62,-13.75 0.1,-25.42 -0.08,-39.43 10.95,-52.12 6.98,-8.03 35.81,-36.22 45.52,-41.78 -6.75,50.13 11.8,65.57 -54.86,107.65zm144.48 -115.01c67.14,-22.75 81.04,-23.82 159.74,16.01 115.65,58.54 227.38,246.77 237.03,383.9 -25.18,7.22 -47.73,25.54 -74.05,33.84 -24.87,-169.01 -129.04,-350.44 -296.73,-410.31 -20.64,-7.37 -13.45,-13.33 -25.99,-23.43zm-424.34 -3.4l3.11 -34.95c28.82,4.15 23.78,22.34 63.06,51.1 50.84,37.23 154.23,28.56 192.05,9.53 31.94,-16.08 45.63,-56.54 53.24,-65.09 10.71,4.85 13.16,9.45 19.88,19.51 -3.68,14.78 -16.5,25.59 -25.54,33.8 -45.78,41.51 -11.78,31.49 -137.31,44.33 -48.79,4.99 -64.98,17.32 -97.46,-7.65 -21.36,-16.44 -50.71,-39.3 -71.02,-50.58zm283.91 -26.45c-15.32,50.79 -61.72,50.25 -122.66,54.24 -30.98,2.04 -44.4,1.18 -67.65,-11.75 -17.65,-9.84 -43.38,-22.19 -45.32,-38 86.74,24.52 127.97,44.83 235.63,-4.48zm-169.31 -100.5c49.3,-10.35 105.57,-36.55 153.57,-7.4l-1.93 86.28c-30.56,25.22 -104.69,35.11 -151.37,21.88l-0.27 -100.76zm-23.35 97.23c-30.01,-6.83 -98.17,-35.71 -106.76,-58.56 -5.62,-14.98 -3.55,-59.19 -3.95,-77.81 -0.81,-37.44 -1.87,-36.39 14.91,-62.78 13.92,24.47 5.1,23.37 32.19,42.52 16.04,11.33 29.45,12.97 42.79,28.29 33.51,38.51 18.55,68.23 20.83,128.36zm9.78 -105.31l-6.43 -22.96 49.36 9.47c-8.21,8.09 -28.87,12.98 -42.93,13.49zm198.96 -52.5c-8.27,20.12 -14.19,22.73 -23.46,38.42l-39.58 -8.7 63.04 -29.72zm-11.8 131.42c-1.6,-120.63 5.62,-82.36 41.99,-158.88 10.79,-22.72 2.71,-12.28 11.02,-12.41 2.61,16.09 -1.87,5.15 -3.55,25.69l-0.6 81.81c-1.87,36.85 -21.82,50.37 -48.86,63.79zm-67.57 -184.05c-5.01,-14.62 -1.34,-41.41 -1.46,-60.22 -0.33,-49.52 -4.21,-45.98 9.36,-51.74 10.93,12.68 6.26,43.29 6.42,59.65 0.08,9.02 0.86,23.3 -0.67,31.73 -1.35,7.39 -1.06,7.25 -4.66,12.85 -9.79,15.16 1.04,1.11 -8.99,7.73zm-12.62 9.98c-29.98,9.06 -76.06,13.2 -102.16,-6.73 -22.53,-17.21 -9.62,-82.9 -12.76,-113.81l116.3 -1.3 -1.39 121.84zm49.63 -61.16c19.05,1.37 36.22,17.81 45.2,31.34 15.67,23.57 -5.91,42.55 -17.54,51.95 -123.39,99.76 -371.27,-23.92 -218.88,-85.83 -1.4,36.41 -7.13,51.34 17.65,74.69 17.93,16.89 49.14,22.04 77.27,21.98 29.83,-0.05 60.73,-5.49 78.16,-21.02 22.41,-19.94 22.07,-35.72 18.13,-73.11zm207.5 -191.06l3.11 42.93c-19.83,15.09 -52.15,20.14 -77.58,30.86l-1.67 -45.84 76.14 -27.96zm8.82 -4.14c3.3,-1.67 39.41,-19.29 45.19,-20.43 -0.93,29.37 2.67,38.39 -8.15,46.22 -8.59,6.22 -26.72,15.85 -34.77,15.25l-2.28 -41.04zm54.62 -27.46c11.25,-5.71 23.5,-14.84 34.13,-21.56 4.18,17.66 7.95,31.06 -2.04,41.69 -4.71,5.01 -25.79,19.27 -32.23,23.12l0.14 -43.24zm47.79 -35.17c19.87,-13.86 45.73,-38.72 59,-59.39l16.17 -25.72c-6.02,43.84 -46.66,111.75 -74.79,124.23l-0.38 -39.12zm-198.25 145.26c-33.95,4.6 -70.19,14.79 -106.4,20.54 -169.05,26.85 -364.04,-8.77 -499.58,-104.46 -49.26,-34.78 -78.78,-73.07 -100.38,-150.18 9.63,8.49 19.56,25.04 26.42,34.4 8.92,12.14 18.59,19.13 28.72,30.5 15.09,16.93 46.22,37.7 67.17,51.52 152.44,100.61 405.14,117.03 583.94,68.8l0.12 48.89zm-274.36 -600.69c127.66,-8.01 223.84,6.67 332.19,46.47 250.28,91.92 292.64,296.61 89.44,425.26 -79.28,50.19 -180.79,83.12 -296.9,89.46 -155.39,8.49 -344.87,-21.41 -462.45,-117.3l-50.92 -47.7c-52.93,-64.42 -56.53,-144.98 -11.91,-213.37 77.32,-118.52 261.24,-174.08 400.55,-182.82zm154.89 649.12c142.67,-14.75 341.53,-87.21 397.62,-212.53 22.57,-50.42 31.69,-110.49 24.24,-172.86 -7.45,-62.33 -33.56,-106.18 -67.79,-137.29 -11.22,-10.2 -11.64,-15.32 -25.69,-25.71 -29.28,-21.69 -56.75,-42.13 -91.92,-58 -207.92,-93.86 -462.87,-99.25 -666.87,4.06 -67.59,34.23 -71.93,41.17 -117.09,84.83 -32.66,31.58 -57.12,76.6 -64.4,136.75 -17.97,148.36 40.64,218.95 120.95,276.66 83.63,60.1 174.36,87.45 297.36,105.33l0.46 34.11c-31.52,21.56 -39.31,13.68 -59.92,45.86 -12.1,18.9 -8.56,13.07 -24.47,26.59 -36.76,31.2 -25.57,64.03 -25.38,129.07 0.12,38.34 0.44,44.52 20.01,59.12 13.81,10.3 6.43,-2.84 11.9,12.8 -10.69,9.27 -39.04,15.1 -60.07,29.94 -76.92,54.31 -62.73,104.44 -62.55,198.31 0.07,34.7 -1.41,49.01 17.98,72.76 22.28,27.26 15.92,29.48 15.94,73.38 0.05,85.21 0.96,85.92 -53.59,122.85 -44.9,-34.53 -99.64,-88.04 -173.67,-85.5 -50.81,1.75 -150.06,55.8 -176.05,82.83 -134.18,139.55 -24.5,484.6 175.52,619.02 67.32,45.24 128.8,53.99 199.35,16.79 22.94,-12.09 66.97,-31.19 85.15,-45.23 44.44,-34.32 74.98,-103.54 70.77,-186.03 19.5,-4.63 41.25,-22.93 60,-23.36 40.86,-0.98 78.15,30.92 200.8,-24.05 59.27,-26.57 146.21,-97.02 170.33,-151.32 39.36,24.98 16.66,16.82 67.3,41.65 55.82,27.36 114.68,24.12 165.79,-8.37 24.75,-15.74 42.58,-22.15 65.62,-36.86 105.66,-67.46 107.12,-197.28 79.53,-313.27 -36.26,-152.39 -132.06,-288.17 -270.9,-357.4 -89.09,-44.41 -141.38,0.77 -162.55,7.56 -28.81,-17.76 -48.1,-19.47 -65.99,-35.91 -5.59,-5.14 -1.86,-0.45 -6.06,-6.59 22.56,-25.68 33.06,-22.49 32.67,-71.04 -0.6,-73.96 14.02,-103.65 -22.03,-128.14 -48.39,-32.88 13.37,-21.73 -82.64,-65.49l0.35 -35.35z"/>
   <path class="fil4" d="M3649.84 2053.51c20.02,-47.18 8.93,-24.25 49.62,-45.31 14.28,-7.39 24.11,-14.3 39.55,-17.94 -16.76,27.35 -10.77,22.79 -39.83,37.15 -16.38,8.09 -32.2,20.46 -49.35,26.1zm14.54 -40.35c11.45,-32.99 7.12,-26.36 39.09,-40.74 19.04,-8.56 34.2,-20 53.28,-27.32 -8.55,33.94 -10.26,27.57 -39.02,41.36 -18.11,8.69 -37.38,19.15 -53.35,26.7zm100.76 -110.66c-4.48,37.44 -9.42,29.67 -40.03,44.45 -18.45,8.91 -34.83,19.51 -51.43,27.81l4.61 -31.33 86.85 -40.93zm-86.12 27.06c-1.08,-43.46 -2.16,-36.84 30.45,-53.5 17.36,-8.87 43.17,-23.7 59.06,-29.91l-0.2 39.52c-29.09,8.79 -60.54,31.61 -89.31,43.89zm635 -14.12c10.51,-25.5 14.38,-19.98 38.38,-32.57 16.11,-8.45 32.03,-16.44 47.74,-23.43 -11.09,22.18 -60.29,44.25 -86.12,56.01zm-550.4 -123.47l3.96 36.15c-14.23,15.42 -64.79,40.09 -88.81,49.89l-4.36 -42.59 89.2 -43.45zm566.2 86.26c3.53,-30.24 12.44,-28.46 36.53,-40.44 16.91,-8.41 38.59,-20.61 55.23,-25.29 -16.07,41.7 -30.29,33.51 -91.76,65.73zm-666.58 -105.42c12.57,-12.69 74.05,-44.2 89.22,-48.14l8.01 53.74 -87.81 41.55 -9.43 -47.15zm676.48 64.1c9.91,-44.05 2.16,-32.16 39.09,-50.37 19.81,-9.77 35.96,-20.41 56.03,-27.48l-8.92 34.94c-7.7,5.85 -74.06,38.88 -86.2,42.92zm100.2 -128.92c-3.85,39.62 -2.66,37.21 -36.29,52.09 -15.43,6.83 -42.6,20.37 -54.79,28.22l2.02 -36.45 89.06 -43.85zm-647.44 159.33c1.07,-19.14 19.96,-20.63 66.29,-43.43l148.6 -72.53c26.03,-11.88 47.22,-21.53 72.55,-35.42 -17.07,30.5 -101.96,60.5 -140.96,80.96l-146.48 70.42zm647 -211.86l-0.35 38.34c-19.89,15.53 -65.52,32.92 -86.69,43.2l0.64 -40.11 86.4 -41.44zm-648.08 185.32c1.14,-21.13 -4.1,-13.12 11.16,-21.9l59.43 -27.51c68.77,-32.72 180.61,-96.09 234.3,-117.56 -5.28,33.16 -8.69,23.34 -67.03,51.86l-158.21 78.19c-26.33,12.96 -52.62,26.93 -79.65,36.91zm-3.54 -60.07c21.66,-13.83 53.58,-28.24 78.03,-40.47 44.85,-22.43 213.22,-108.72 236.58,-114.28l-2.4 33.7c-16.84,3.67 -63.07,28.21 -79.41,37.4l-230.66 113.29 -2.15 -29.65zm563.64 -131.87c28.14,-13.6 56.83,-26.51 85.5,-40.88l2.11 34.49c-26.88,14.92 -59.07,26.95 -85.99,42.58l-1.62 -36.19zm81.1 -93.1l3.62 36.33 -87.42 43.96 -4.05 -36.78 87.85 -43.5zm-99.15 -16.58c30.42,-6.16 60.07,-32.72 90.19,-42.28l6.32 41.58c-13.78,14.49 -65.66,37.73 -87.89,46.64l-8.63 -45.94zm-1205.37 -7.31c5.02,-279.63 217.03,-212.59 329.21,-87.73 54.55,60.71 84.82,105.09 127.19,189.04 23.77,47.1 73.04,180.45 67.7,244.62 -9.05,-7.47 -28.16,-20.34 -41.54,-25.66 -0.96,18.56 11.38,22.27 43.93,39.06 5.36,98.64 -31.88,203.46 -112.66,219.69 -87.27,17.52 -186.97,-71.15 -218.11,-106.53 -106.1,-120.53 -193.16,-296.89 -195.21,-459.78 12.16,6.68 69.91,43.16 79.6,44.67 1.28,-3.76 2.39,-1.04 0,-7.5 -3.74,-10.18 -53.38,-36.8 -69.08,-44.6l-8.23 -3.95c-0.45,-1.25 -1.92,-0.81 -2.81,-1.33zm918.82 248.73c5.81,-9.95 19.17,-17.42 27.74,-25.54 9.79,-9.29 16.08,-16.81 22.4,-28.92 49.54,-94.95 8.33,-185.39 -3.82,-250.21l26.87 -14.26c11.08,13.44 24.38,65.18 29.52,87.98 17.37,77.23 1.23,239.79 -102.69,230.95zm-763.77 -474.61c72.12,-27.97 91.59,-39.45 180.27,1.45 133.38,61.51 245.78,251.51 284.57,402.19 -7.16,5.9 -80.27,44.81 -89.82,47.82 -21.62,-109.34 -98.91,-234.7 -159.54,-307.11l-49.76 -52.9c-81.06,-81.59 -152.66,-81.67 -165.71,-91.45zm310.97 68.49c-9.07,-8.15 -17.11,-16.23 -25.59,-26.83l172.13 -84.46c170.77,-88.39 135.97,-16 183.83,-26.3 -9.39,-37.79 -88.27,-36.31 -103.17,-40.79 23.02,-28.83 84.92,-13.19 111.91,1.03 35.54,18.71 54.02,38.31 80.11,66.05 31.16,33.13 90.92,123.23 103.58,187.02l-26.49 12.44c-24.66,-38.97 -19.44,-77.05 -99.71,-172.68 -6.98,-8.32 -14.43,-16.92 -21.64,-25.75 -8.38,-10.24 -10.13,-15.86 -24.43,-13.98 -1.02,14.42 6.6,17.86 15.6,26.79 51.54,51.18 91.63,124.04 115.11,192.19 -13.88,11.92 -71.38,37.31 -93.3,47.22 -15.91,7.19 -19.5,6.58 -18.72,22.26 21.23,-3.55 88.24,-45.24 117.13,-55.24 13.9,47.71 20.07,72.02 22.26,126.3 -51.16,26.09 -106.6,52.22 -158.2,78.1 -50.97,25.55 -105.23,56.07 -156.24,78.47l-31.76 -123.84c17.03,-11.61 46.25,-24.66 65.22,-33.41 49.96,-23.02 61.37,-21.55 55.16,-41.59l-123.7 61.93c-8.9,-8.62 -30.16,-64.51 -37.8,-80.16 -25.64,-52.53 -56.84,-99.63 -92.93,-143.68 -12.07,-14.74 -12.28,-16.65 -28.34,-31.08zm20.93 -83.6c0.03,-108.76 -1.23,-213.02 51.82,-291.39 59.94,-88.56 155.27,-88.41 243.98,-44.11 268.02,133.82 500.46,624.29 389.7,926.68 -14.9,40.66 -39.28,77 -74.44,99.58 -115.44,74.14 -264.69,-41.68 -340.17,-121.89l17.97 -11.06c6.11,-3.14 11.3,-5.76 18.25,-9.25 11.85,-5.94 22.42,-11.05 34.37,-17.03 14.57,-7.31 58.79,-31.62 69.71,-32.63 8.27,-0.77 75.99,35.9 123.35,-70.32 24.1,-54.05 24.94,-115.91 12.65,-178.36l-52.88 -156.3c-35.41,-80.61 -116.29,-194.69 -204.93,-213.93 -89.75,-19.47 -85.99,21.81 -149.65,54.68l-139.74 65.34zm696.7 164.09c-4.86,-16.07 -20.96,-60.87 -21.84,-73.21 14.34,-7.91 25.12,-12.66 39.14,-20.27 34.2,-18.54 27.15,-11.38 32.39,-23.18l-7.38 -1.67c-0.62,0.03 -1.86,0.14 -2.52,0.25l-68.99 36.47c-13.5,-45.12 -53.3,-117.49 -77.04,-155.86 -73.16,-118.3 -167.17,-229.61 -292.43,-292.23 -22.13,-11.05 -69.2,-19.98 -85.05,-28.89 40.12,-16.31 76.24,-32.34 126.45,-20.73 86.37,19.98 136.42,59.4 196.3,112.02 118.86,104.48 245.51,342.13 269.15,496.48l-86.53 44.25c-6.21,-9.51 -8.39,-25.38 -11.15,-36.69 -3.15,-12.83 -6.62,-23.89 -10.51,-36.74zm-721 -148.24c-15.65,6.17 -29.11,14.63 -43.43,20.46 -28.82,-14.77 -58.85,-49.43 -126.53,-67.73 -74.16,-20.06 -98.1,0.22 -153.87,23.56 -106.99,44.78 -165.29,103.29 -165.74,226.09 -15.68,-7.38 -15.5,-12.65 -32.01,-17.1 1.31,13.34 -1.07,15.29 31.74,30.17 -0.23,244.45 144.03,459.18 266.33,557.21 130.77,104.81 193.44,57.07 296.98,8 130.63,-61.93 105.88,-141.1 127.57,-181.16 6.05,-11.17 51.96,-29.11 65.89,-36.4 10.51,17.97 57.32,55.84 77.46,72.27 45.47,37.1 106.01,74.66 169.35,87.57 71.94,14.67 109.99,-7.32 163.32,-33.73 60.02,-29.72 90.68,-38.79 127.33,-82.57 73.69,-88.03 74.66,-206.2 64.85,-342.09 -8.06,-111.67 -47.42,-224.05 -92.66,-321.98 -71.51,-154.84 -234.73,-381.36 -425.25,-404.41 -66.14,-8 -114.26,17.88 -162.1,42.42 -65.49,33.57 -85.63,30.01 -126.43,83.24 -67.99,88.73 -66.82,208.43 -62.8,336.19z"/>
   <path class="fil5" d="M4096.68 1859.71c-15.73,-107.51 100.95,-92.35 114.31,31.71 12.24,113.72 -98.03,79.48 -114.31,-31.71zm47.93 -569.43c54.1,-30.58 137.4,138.97 74.3,162.98 -36.04,13.73 -68.61,-34.77 -79.54,-55.3 -16.67,-31.33 -32.12,-86.56 5.24,-107.69zm-435.8 -284.45c55.39,-34.06 127.16,151.1 64.15,175.13 -67,25.56 -120.86,-140.28 -64.15,-175.13zm-93.79 285.01l139.74 -65.34c63.66,-32.87 59.9,-74.15 149.65,-54.68 88.64,19.24 169.52,133.32 204.93,213.93l52.88 156.3c12.29,62.45 11.45,124.31 -12.65,178.36 -47.36,106.22 -115.09,69.55 -123.35,70.32 -10.92,1.01 -55.15,25.32 -69.71,32.63 -11.95,5.98 -22.52,11.09 -34.37,17.03 -6.95,3.48 -12.14,6.11 -18.25,9.25l-17.97 11.06c75.49,80.21 224.74,196.02 340.17,121.89 35.16,-22.58 59.54,-58.92 74.44,-99.58 110.76,-302.38 -121.68,-792.86 -389.7,-926.68 -88.71,-44.29 -184.04,-44.44 -243.98,44.11 -53.05,78.37 -51.79,182.63 -51.82,291.39z"/>
   <path class="fil5" d="M3858.17 4107.4c5.88,-7.91 66.95,-19.64 105.1,-34.22 55.65,-21.28 86.52,-42.44 119.02,-86.58 45.06,-61.22 55.58,-127.78 73.33,-134.98 9.24,15.5 -27.52,83.47 -35.88,97.44 -21.35,35.7 -36.29,54.64 -61.88,80.36 -21.89,21.99 -52.63,39.6 -87.03,54.88 -17.01,7.55 -92.32,35.73 -112.67,23.1zm-225.09 -341.59c40.07,-7.1 126.56,79.02 159.07,136.34 7.06,12.44 10.28,19.89 16.4,34.95 5.23,12.9 13.72,24.79 4.19,34.08 -10.5,-3.48 -21.89,-44.83 -30.36,-59.6 -59.85,-104.31 -134.98,-124.4 -146.05,-139.25 -0.69,-0.94 -2.4,-5.52 -3.25,-6.52zm-68.02 37.42c4.9,7.89 6.99,7.75 11.92,13.37 41.38,47.18 87.64,125.17 109.58,183.24 8.87,23.45 17.36,59.89 27.29,80.51l76.36 -38.13c2.41,12.6 0.23,13.08 -33.61,29.42 -14.97,7.22 -28.11,12.98 -41.31,21.14l6.65 33.3c23.97,-13.22 56.74,-32.25 80.17,-44.24 -1.08,22.48 -43.23,33.59 -74.03,53.38l-0.43 32.84 33.55 -24.51c11.88,-7.33 29.39,-15.11 36.13,-23.17 19.75,-23.64 17.82,-73.85 30.41,-91.41 14.56,16.76 -1.87,72.38 -23.27,105.87 57.44,23.35 141.26,-2.63 186.02,-26.52 54.31,-29 92.28,-58.47 124.1,-101.12 72.52,-97.23 88.89,-139.92 53.35,-251.95 -6.52,-20.56 -22.17,-58.27 -36.66,-75.96 1.25,21.54 0.87,43.26 0.87,64.86 0,27.18 2.89,38.62 -25.17,40.15l1.06 -160.71c-9.41,4.89 -33.97,17.61 -37.12,24.38 -8.01,37.78 10.72,178.49 -10.1,196.77 -5.43,-9.38 -0.09,-164.65 -0.26,-191.51 -70.76,28.65 -139.19,42.8 -228.14,38.46 -40.01,-1.95 -77.9,-9.45 -114.53,-19.55 -52.47,-14.48 -65.44,-30.73 -91.96,-42.31 6.44,155.4 -11.38,125.8 -60.86,173.4z"/>
   <path class="fil5" d="M3899.32 1563.44c5.11,-11.4 -3.25,-2.17 9.43,-9.95 3.05,-1.88 6.88,-3.37 10.43,-5.37 10.95,-6.14 7.89,-7.27 22.15,-7.41 -0.28,20.09 -31.52,28.9 -42.01,22.74zm-78.03 -367.37c14.91,4.48 93.79,3 103.17,40.79 -47.86,10.3 -13.06,-62.09 -183.83,26.3l-172.13 84.46c8.48,10.6 16.52,18.68 25.59,26.83 16.06,14.43 16.27,16.35 28.34,31.08 36.09,44.05 67.29,91.15 92.93,143.68 7.64,15.65 28.91,71.54 37.8,80.16l123.7 -61.93c6.21,20.04 -5.19,18.57 -55.16,41.59 -18.97,8.75 -48.19,21.8 -65.22,33.41l31.76 123.84c51.01,-22.41 105.27,-52.92 156.24,-78.47 51.6,-25.88 107.04,-52.01 158.2,-78.1 -2.19,-54.28 -8.36,-78.59 -22.26,-126.3 -28.9,9.99 -95.9,51.68 -117.13,55.24 -0.78,-15.68 2.82,-15.07 18.72,-22.26 21.92,-9.91 79.42,-35.3 93.3,-47.22 -23.47,-68.15 -63.56,-141.01 -115.11,-192.19 -9,-8.93 -16.61,-12.37 -15.6,-26.79 14.3,-1.88 16.06,3.73 24.43,13.98 7.21,8.83 14.66,17.43 21.64,25.75 80.27,95.63 75.05,133.71 99.71,172.68l26.49 -12.44c-12.66,-63.78 -72.42,-153.89 -103.58,-187.02 -26.09,-27.74 -44.57,-47.34 -80.11,-66.05 -26.99,-14.22 -88.9,-29.85 -111.91,-1.03z"/>
   <path class="fil5" d="M3219.92 1598.99c7.54,-8.18 8.29,1.52 14.23,-28.73 2.73,-13.91 5.4,-24.46 12.17,-35.28 51.68,-82.68 135.83,-33.24 181.82,17.24 41.85,45.94 84.89,116.32 104.65,179.79 8.84,28.38 10.27,54.28 16.39,78.43 12.93,7.56 41.31,19.71 39.14,35.04 -11.76,1.81 -20.78,-10.68 -41.23,-20.74 -1.28,173.08 -140.87,142.93 -209.65,59.35 -41.91,-50.93 -86.67,-129.11 -100.94,-199.71 -5.11,-25.29 0.15,-68.86 -16.58,-85.4zm-91.84 -67.15c0.89,0.52 2.36,0.08 2.81,1.33l8.23 3.95c15.7,7.8 65.33,34.42 69.08,44.6 2.39,6.46 1.28,3.73 0,7.5 -9.69,-1.51 -67.44,-37.99 -79.6,-44.67 2.06,162.89 89.12,339.26 195.21,459.78 31.14,35.38 130.84,124.05 218.11,106.53 80.78,-16.23 118.02,-121.05 112.66,-219.69 -32.55,-16.79 -44.89,-20.5 -43.93,-39.06 13.38,5.32 32.49,18.19 41.54,25.66 5.34,-64.17 -43.92,-197.52 -67.7,-244.62 -42.37,-83.95 -72.64,-128.34 -127.19,-189.04 -112.18,-124.86 -324.19,-191.9 -329.21,87.73z"/>
   <path class="fil5" d="M3326.34 3928.1c126.61,-28.18 261.92,308.75 120.83,335.86 -131.84,25.32 -271.01,-302.43 -120.83,-335.86zm-160.69 52.89c6.18,83.51 31.45,147.51 63.57,211.27 26.87,53.33 70.45,119.63 116.83,155.7 38.01,29.59 120.04,94.05 192.79,55.1 54.28,-29.06 76.93,-120.52 70.54,-200.3 -10.88,-135.75 -95.95,-278.13 -186.3,-362.42 -169.5,-158.16 -269.35,-20.53 -257.44,140.65z"/>
   <path class="fil5" d="M3462.19 2630.01c-27,-166.17 225.78,-252.32 385.16,-252.43 141.54,-0.09 409.49,52.36 421.55,217.26 19.94,272.6 -567.15,328.67 -749.15,137.67 -28.88,-30.3 -49.8,-54.71 -57.56,-102.5zm343.49 -301.29c-139.31,8.75 -323.23,64.3 -400.55,182.82 -44.62,68.39 -41.02,148.94 11.91,213.37l50.92 47.7c117.58,95.89 307.06,125.79 462.45,117.3 116.11,-6.34 217.62,-39.27 296.9,-89.46 203.19,-128.65 160.84,-333.34 -89.44,-425.26 -108.35,-39.8 -204.53,-54.48 -332.19,-46.47z"/>
   <path class="fil4" d="M3799.43 2781.38c35.27,15.54 84.41,11.55 122.72,3.76l0.03 33.45 -121.96 -0.84 -0.8 -36.37zm-76.31 22.45l48.49 -35.34 1.39 44.32 -49.87 -8.99zm226.97 11.3c1.36,-55.65 0.59,-39.62 26.9,-72.49l107.36 39.66c-38.87,19.89 -88.2,23.81 -134.26,32.83zm-343.25 -50.26c11.88,-13.43 105.68,-72.64 118.21,-78.94 24.88,18.72 6.95,10.79 43.9,30.99 -14.37,35.74 2.53,20.33 -29.32,42.35 -12.98,8.98 -24.83,19.91 -38.22,29.02 -25.54,17.37 -68.5,-15.52 -94.58,-23.41zm370.98 -71.63c39.01,-37.67 20.25,-25.62 35.61,-43.6 31.12,10.14 60.16,23.79 90.64,35.77l87.26 36.44c-63.86,37.51 -44.65,55.17 -105.45,33.07 -30.93,-11.24 -99.18,-32.83 -119.85,-45.86l11.79 -15.82zm-23.77 -39.57c23.77,-1.65 22.01,-16.3 37.29,-21.33 4.99,22.68 -19.62,38.53 -33.51,48.8 -34.76,25.7 -8.85,26.92 -10.98,59.48 -8.75,20.5 -107.96,45.79 -158.28,3.75l7.54 -35.71c-11.97,-7.23 -29.57,-19.85 -44.76,-30.03 -15.41,-10.32 -29.58,-25.97 -23.13,-45.45 6.01,0.43 10.29,8.03 17.48,15.59 16.6,17.46 20.81,11.76 37.82,21.26 56.8,31.75 163.71,13.59 170.53,-16.36zm-375.15 94.22c-26.51,-15.42 -81.45,-62.76 -86.22,-102.81 -5.86,-49.26 44.58,-97.17 70.42,-113.72 12.1,4.44 58.65,40.15 72.72,49.73 21.83,14.87 51.19,30.9 77.33,41.22 -1.67,19.64 -7,22.07 -0.38,43.1 -34.04,14.43 -104.9,70.7 -133.88,82.48zm426.08 -133.67c-0.24,-35.06 7.21,-22.71 55.76,-59.39 21.91,-16.56 47.37,-41.49 63.29,-51.76 34.36,14.41 76.98,55.37 94.68,79.81 51.49,71.14 -7.68,112.62 -8.12,112.72 -8.28,1.89 -185.29,-63.44 -205.61,-81.38zm-218.28 -31.62c57.19,13.68 58.07,33.09 138.38,-2.9 1.11,33.84 -32.27,41.39 -65.67,42.5 -35.26,1.17 -66.58,-5.14 -72.71,-39.6zm167.35 71.07l-8.71 -2.56c-10.61,-1.01 -13.29,3.14 -25.86,7.29 -50.51,16.67 -79.45,8 -121.05,1.07 -21.53,-3.58 -7.28,2.2 -26.67,-12.66 -15.84,-12.13 -39.93,-27.02 -27.74,-60.74 5.71,-15.82 8.67,-21.14 23.64,-23.34 -3.45,36.02 -3.55,45.7 21.51,62.26 40.31,26.62 111.12,21.73 142.72,-5.36 30.42,-26.07 14.54,-22.96 19.44,-62.72 13.42,7.55 31.19,19.57 27.99,43.76 -4.06,30.69 -25.29,23.02 -25.28,53zm-109.17 -147.19c80.72,-11.92 113.11,55.06 33.34,67.24 -98.85,15.1 -115.69,-55.08 -33.34,-67.24zm-257.56 4.9c58.39,-32.78 56.54,-41.75 81.87,-23.26 23.53,17.18 52.37,35.99 75.66,54.99 -6.38,8.95 -12.79,13.16 -19.69,23.96 -11.48,17.99 -2.48,20.6 -14.05,31.35 -21.03,-18.08 -112.79,-65.82 -123.78,-87.04zm365.25 17.67c16.77,-17.4 74.64,-54.9 82.4,-71.21 8.99,3.3 58.61,24.32 64.45,30.79 -15.74,12.33 -29.71,27.01 -48.34,40.68 -14.98,10.98 -37.13,23.94 -50.03,37.09 -14.46,-15.67 -23.03,-26.81 -48.48,-37.35zm-266.99 -57.51c25.14,-20.59 110.46,-27.35 150.06,-29.83 62.14,-3.9 105.24,5.96 163.75,12.98l-61.02 52.19c-58.99,-34.57 -133.66,-41.45 -169.72,20.66 -26.63,-11.85 -51.81,-40.99 -83.07,-56zm-200.29 112.74c-2.62,-60.46 88.2,-125 136.77,-144.09 161.68,-63.52 314.61,-62.71 477.28,-2.83 56.86,20.93 137.44,77.64 147.63,137.73 -36.64,-37.28 -44.51,-53.53 -93.32,-85.47 -44.37,-29.05 -15.5,1.09 -56.45,-22.34 -56.13,-32.11 -40.24,4.33 -54.52,-31.32 -120.64,-6.63 -162.32,-43.15 -339.65,2.04 -55.22,14.07 -44.33,8.68 -66.59,28.01 -18.23,15.84 -36.15,4.99 -62.96,32.51 -7.68,7.87 -0.95,4.71 -12.2,7.74 -31.99,8.6 -66.05,42.48 -75.98,78.02zm-23.09 45.73c7.76,47.8 28.69,72.2 57.56,102.5 181.99,191 769.09,134.93 749.15,-137.67 -12.06,-164.9 -280.02,-217.35 -421.55,-217.26 -159.38,0.11 -412.16,86.26 -385.16,252.43z"/>
   <path class="fil5" d="M3828 896.35c15.86,8.91 62.92,17.83 85.05,28.89 125.26,62.62 219.27,173.93 292.43,292.23 23.74,38.37 63.54,110.74 77.04,155.86l68.99 -36.47c0.66,-0.11 1.9,-0.22 2.52,-0.25l7.38 1.67c-5.24,11.8 1.81,4.64 -32.39,23.18 -14.02,7.61 -24.8,12.36 -39.14,20.27 0.88,12.34 16.97,57.14 21.84,73.21 3.89,12.85 7.37,23.91 10.51,36.74 2.77,11.31 4.94,27.19 11.15,36.69l86.53 -44.25c-23.64,-154.35 -150.29,-392 -269.15,-496.48 -59.88,-52.62 -109.93,-92.04 -196.3,-112.02 -50.2,-11.61 -86.33,4.42 -126.45,20.73z"/>
   <path class="fil5" d="M4155.23 3380.63c10.71,30.84 7.89,95.26 6.1,132.52 140.95,-13.78 241.29,314.32 146.53,382.97l-128.36 74.06c26.8,14.16 54.18,42.37 103.91,48.76 51.57,6.63 88.17,-6.59 112.91,-37.97 47.05,-59.66 47.15,-169.99 27.43,-256.26 -16.09,-70.42 -63.63,-161.68 -99.52,-208.66 -46.83,-61.34 -17.66,-29.65 -73.71,-80.43 -17.49,-15.84 -67.97,-49.63 -95.3,-54.98z"/>
   <path class="fil5" d="M3283.12 1305.96c13.05,9.79 84.65,9.87 165.71,91.45l49.76 52.9c60.63,72.4 137.92,197.76 159.54,307.11 9.56,-3.01 82.66,-41.92 89.82,-47.82 -38.79,-150.68 -151.19,-340.68 -284.57,-402.19 -88.68,-40.9 -108.15,-29.42 -180.27,-1.45z"/>
   <path class="fil4" d="M3387 1812.26c8.1,-7.46 58.77,-31.52 72.75,-39.25l0.14 38.19c-29.7,13.83 -51.43,38.35 -72.89,1.06zm-41.94 -55.26c0.7,-0.7 1.85,-2.69 2.2,-1.98l19.22 -12.8c8.53,-4.48 15.3,-7.43 23.95,-11.58 15.67,-7.52 36.41,-19.47 50.19,-23.79l18.28 53.56c-23.88,15.76 -59.85,30.81 -81.5,44.06 -22.67,-22.09 -21.73,-32.94 -32.35,-47.47zm-7.49 -12.16l-6.86 -22.37 83.43 -39.9c1.08,-0.42 4.21,-1.54 5.2,-1.79l13.74 12.75c-13.49,11.22 -29.94,17.36 -46.48,25.17 -17.64,8.34 -33.19,18.88 -49.04,26.13zm67.5 -93.89c6.78,7.48 6.83,6.17 11.58,15.77l-90.13 43.86 -3.35 -18.22 81.91 -41.41zm-84.6 27c-1.44,-27.26 2.02,-19.6 24.97,-32.03 16.09,-8.72 25.91,-11.29 39.37,-17.6 8.2,6.24 2.22,3.01 12.61,8.12 -7.67,10.69 -18.17,11.86 -38.1,23.42 -15.08,8.74 -22.24,13.58 -38.85,18.09zm0.84 -36.04c4.77,-14.36 7.24,-15.72 18.2,-21.39 14.39,-7.45 15.43,-9.55 29.68,-1.09l-47.88 22.48zm-26.56 -3.18c-16.59,-7.64 -20.1,-16.48 -39.98,-21.75 4.47,23.12 21.99,23.79 38.17,35.06 6.79,74.11 26.05,136.1 68.84,175.84 18.75,17.41 40.99,46.42 81.97,39.31 35.35,-6.12 45.73,-40.14 44.93,-82.09 22.06,9.76 36.42,17.3 33.38,49.34 -9.51,99.9 -74,108.01 -142.46,58.61 -52.04,-37.53 -107.05,-134.35 -125,-222.71 -19.99,-98.47 26.64,-215.27 145.19,-113.56 51.21,43.94 106.35,136.68 120.14,232.28 -46.98,-26.59 -26.61,-23.32 -46.75,-76.26 -52.18,-137.19 -159.5,-178.55 -178.42,-74.07zm-74.84 -39.75c16.73,16.54 11.47,60.11 16.58,85.4 14.27,70.59 59.03,148.77 100.94,199.71 68.79,83.58 208.37,113.73 209.65,-59.35 20.45,10.05 29.47,22.55 41.23,20.74 2.17,-15.33 -26.21,-27.48 -39.14,-35.04 -6.11,-24.15 -7.55,-50.05 -16.39,-78.43 -19.76,-63.46 -62.8,-133.85 -104.65,-179.79 -45.99,-50.48 -130.14,-99.93 -181.82,-17.24 -6.77,10.81 -9.45,21.37 -12.17,35.28 -5.94,30.24 -6.69,20.55 -14.23,28.73z"/>
   <path class="fil5" d="M4058.02 3326.39c-3.95,37.72 9.7,57.9 0.59,99.68 -22.26,102.11 -246.8,148.77 -358.3,50.43 -54.27,-47.87 -21.22,-125.84 -23.47,-158.3 -34.94,23.42 -62.04,30.45 -78.8,73.7 -60.22,155.27 298.39,270.22 495.15,119.57 65.09,-49.84 53.07,-158 -35.17,-185.08z"/>
   <path class="fil5" d="M3310.37 3751.63c46.64,17.35 65.28,16.56 114.2,63.6 17.31,16.65 30.59,27.38 47.37,47.42 61.68,73.68 145.8,211.57 150.62,320.21 24.23,-10.35 49.99,-27.13 75.55,-35.73 -11.22,-112.11 -73.31,-231.48 -127.34,-296.39 -34.27,-41.18 -62,-70.39 -110.56,-98.64 -83.74,-48.71 -106.38,-22.03 -158.41,-4.43 4.77,3.06 0.27,0.88 8.58,3.96z"/>
   <path class="fil5" d="M4152.28 3360.14c167.69,59.87 271.86,241.29 296.73,410.31 26.32,-8.3 48.87,-26.62 74.05,-33.84 -9.66,-137.13 -121.38,-325.36 -237.03,-383.9 -78.7,-39.83 -92.6,-38.75 -159.74,-16.01 12.54,10.1 5.35,16.07 25.99,23.43z"/>
   <path class="fil5" d="M4132.09 3650.89c27.83,-9.18 80.51,-43.76 106.7,-45.51 -4.94,13.08 1.42,4.32 -11.56,13.07 -2.16,1.46 -9.73,5.27 -12.52,6.68 -10.8,5.44 -17.05,7.4 -27.19,12.75 -16.83,8.89 -35.29,17.16 -49.57,25.78 7.4,15.77 19.8,29.98 28.32,50.01 30.88,72.69 39.54,110.55 24.97,185.18 24.2,-10.66 55.7,-26.74 79.65,-39.73 59.44,-32.22 51.61,-16.04 55.61,-60.26 -21.66,7.81 -97.34,54.64 -110.56,47.82 3.56,-11 10.66,-11.81 24.23,-18.32 21.58,-10.35 73.33,-34.17 85.69,-44.88 -1.7,-65.27 -19.3,-121.4 -47.17,-166.42 -21,-33.93 -59.18,-97.52 -117.38,-88.5 1.65,28.75 -6.84,38.44 -18.83,56.09 -15.85,23.31 -10.36,31.6 -10.37,66.24z"/>
   <path class="fil5" d="M3588.97 3492.1c8.51,40.64 -4.12,54.78 22.31,89.18 46.27,60.24 173.45,85.2 255.98,85.25 66.72,0.03 134.8,-14.86 186.6,-40.05 88.29,-42.93 79.47,-84.85 85.14,-140.46 -2.52,2.1 -24.56,29.3 -50.51,48.69 -130.24,97.28 -383.61,77.67 -477.02,-20.9 -5.27,-5.56 -6.27,-8.01 -10.96,-12.96 -10.37,-10.95 -3.69,-5.83 -11.53,-8.76z"/>
   <path class="fil5" d="M3294.75 1638.74c18.92,-104.48 126.24,-63.12 178.42,74.07 20.14,52.94 -0.23,49.67 46.75,76.26 -13.79,-95.6 -68.93,-188.33 -120.14,-232.28 -118.55,-101.72 -165.18,15.09 -145.19,113.56 17.95,88.37 72.96,185.18 125,222.71 68.47,49.4 132.96,41.29 142.46,-58.61 3.05,-32.03 -11.32,-39.58 -33.38,-49.34 0.8,41.95 -9.59,75.96 -44.93,82.09 -40.98,7.11 -63.21,-21.9 -81.97,-39.31 -42.79,-39.74 -62.05,-101.74 -68.84,-175.84 -16.19,-11.26 -33.7,-11.94 -38.17,-35.06 19.88,5.27 23.38,14.11 39.98,21.75z"/>
   <path class="fil5" d="M4080.04 2929.41l-0.12 -48.89c-178.8,48.24 -431.5,31.81 -583.94,-68.8 -20.95,-13.82 -52.08,-34.59 -67.17,-51.52 -10.12,-11.37 -19.8,-18.36 -28.72,-30.5 -6.86,-9.36 -16.79,-25.91 -26.42,-34.4 21.6,77.11 51.12,115.41 100.38,150.18 135.54,95.7 330.53,131.31 499.58,104.46 36.21,-5.75 72.45,-15.94 106.4,-20.54z"/>
   <path class="fil5" d="M3289.91 4054.04c16.81,-5.56 23.64,-14.2 38.48,-12.06 -1.32,11.78 -12.56,14.89 -34.23,22.17 1.48,21.19 19.53,71.5 31.9,84.96l33.87 -14.81c-1.42,16.41 -10.18,16.35 -25.37,24.45 8.22,27.4 62.44,87.49 109.07,78.21 51.56,-10.25 35.17,-96.96 23.9,-140.74 -19.61,3.4 -47.05,18.71 -65.57,28.35l-22.31 2.58c7.81,-12.35 65.94,-39.09 82.32,-43.07 -7.26,-29.69 -26.3,-59.58 -40.41,-78.64 -22.66,7.23 -64.02,32.58 -73.09,33.27 -0.85,0.06 -2.08,0.04 -2.9,0l-8.49 -2.41c4.16,-6.44 -0.24,-1.53 5.71,-6.68l27.83 -15.62c13.44,-6.78 25.52,-12.55 38.87,-16.58 -5.61,-7.54 -8.96,-10.8 -16.29,-16.48 -20.15,8.23 -38.34,19.94 -58.26,28.52 -52.85,22.76 -47.1,13.42 -45.05,44.58z"/>
   <path class="fil5" d="M3578.88 2747.88c28.98,-11.77 99.84,-68.05 133.88,-82.48 -6.62,-21.04 -1.29,-23.46 0.38,-43.1 -26.14,-10.31 -55.51,-26.35 -77.33,-41.22 -14.07,-9.59 -60.62,-45.29 -72.72,-49.73 -25.84,16.54 -76.28,64.46 -70.42,113.72 4.77,40.05 59.71,87.4 86.22,102.81z"/>
   <path class="fil4" d="M3289.91 4054.04c-2.05,-31.16 -7.8,-21.83 45.05,-44.58 19.92,-8.58 38.11,-20.29 58.26,-28.52 7.33,5.67 10.67,8.94 16.29,16.48 -13.35,4.03 -25.43,9.81 -38.87,16.58l-27.83 15.62c-5.95,5.15 -1.55,0.24 -5.71,6.68l8.49 2.41c0.82,0.04 2.05,0.06 2.9,0 9.07,-0.69 50.43,-26.04 73.09,-33.27 14.11,19.06 33.15,48.96 40.41,78.64 -16.38,3.98 -74.51,30.72 -82.32,43.07l22.31 -2.58c18.52,-9.64 45.96,-24.94 65.57,-28.35 11.26,43.77 27.66,130.48 -23.9,140.74 -46.64,9.28 -100.86,-50.81 -109.07,-78.21 15.19,-8.11 23.95,-8.05 25.37,-24.45l-33.87 14.81c-12.37,-13.46 -30.42,-63.77 -31.9,-84.96 21.67,-7.28 32.91,-10.38 34.23,-22.17 -14.84,-2.14 -21.67,6.5 -38.48,12.06zm-1.29 -37.66c7.27,-30.41 4.6,-19.45 33.87,-34.75 12.6,-6.59 34.87,-16.93 46.8,-18.96l11.7 9.52 -92.37 44.19zm37.72 -88.28c-150.18,33.43 -11.01,361.18 120.83,335.86 141.1,-27.11 5.78,-364.04 -120.83,-335.86z"/>
   <path class="fil5" d="M4004.97 2614.21c20.32,17.93 197.33,83.26 205.61,81.38 0.44,-0.1 59.61,-41.58 8.12,-112.72 -17.69,-24.44 -60.32,-65.4 -94.68,-79.81 -15.93,10.27 -41.39,35.2 -63.29,51.76 -48.55,36.68 -56,24.33 -55.76,59.39z"/>
   <path class="fil5" d="M3485.27 2584.28c9.93,-35.55 43.99,-69.42 75.98,-78.02 11.25,-3.03 4.52,0.13 12.2,-7.74 26.82,-27.52 44.73,-16.67 62.96,-32.51 22.26,-19.33 11.37,-13.94 66.59,-28.01 177.32,-45.19 219.01,-8.67 339.65,-2.04 14.28,35.66 -1.61,-0.79 54.52,31.32 40.96,23.42 12.08,-6.71 56.45,22.34 48.81,31.94 56.67,48.19 93.32,85.47 -10.18,-60.09 -90.76,-116.8 -147.63,-137.73 -162.66,-59.88 -315.6,-60.7 -477.28,2.83 -48.58,19.09 -139.39,83.63 -136.77,144.09z"/>
   <path class="fil5" d="M3816.55 3206.36l0.27 100.76c46.68,13.23 120.81,3.34 151.37,-21.88l1.93 -86.28c-48,-29.16 -104.27,-2.96 -153.57,7.4z"/>
   <path class="fil5" d="M3954.03 2653.66c-6.82,29.94 -113.73,48.11 -170.53,16.36 -17.01,-9.5 -21.22,-3.79 -37.82,-21.26 -7.19,-7.56 -11.47,-15.16 -17.48,-15.59 -6.44,19.48 7.73,35.13 23.13,45.45 15.2,10.18 32.79,22.81 44.76,30.03l-7.54 35.71c50.32,42.04 149.53,16.74 158.28,-3.75 2.14,-32.56 -23.77,-33.78 10.98,-59.48 13.89,-10.26 38.5,-26.12 33.51,-48.8 -15.29,5.03 -13.52,19.68 -37.29,21.33z"/>
   <path class="fil5" d="M3793.2 3303.59c-2.28,-60.13 12.68,-89.84 -20.83,-128.36 -13.34,-15.32 -26.75,-16.95 -42.79,-28.29 -27.09,-19.14 -18.27,-18.04 -32.19,-42.52 -16.77,26.39 -15.72,25.34 -14.91,62.78 0.4,18.62 -1.67,62.83 3.95,77.81 8.59,22.86 76.74,51.73 106.76,58.56z"/>
   <path class="fil5" d="M3909.94 3103.13l1.39 -121.84 -116.3 1.3c3.15,30.9 -9.77,96.59 12.76,113.81 26.09,19.93 72.17,15.79 102.16,6.73z"/>
   <path class="fil5" d="M3685.56 2471.54c31.26,15.01 56.44,44.14 83.07,56 36.07,-62.11 110.73,-55.23 169.72,-20.66l61.02 -52.19c-58.51,-7.02 -101.62,-16.88 -163.75,-12.98 -39.6,2.49 -124.92,9.25 -150.06,29.83z"/>
   <path class="fil5" d="M3966.02 2709.05c20.67,13.03 88.92,34.62 119.85,45.86 60.8,22.1 41.59,4.44 105.45,-33.07l-87.26 -36.44c-30.48,-11.97 -59.52,-25.62 -90.64,-35.77 -15.36,17.98 3.4,5.93 -35.61,43.6l-11.79 15.82z"/>
   <path class="fil5" d="M3959.58 3041.97c3.93,37.39 4.27,53.17 -18.13,73.11 -17.43,15.53 -48.33,20.97 -78.16,21.02 -28.14,0.06 -59.34,-5.08 -77.27,-21.98 -24.78,-23.34 -19.05,-38.27 -17.65,-74.69 -152.39,61.91 95.49,185.59 218.88,85.83 11.63,-9.41 33.21,-28.38 17.54,-51.95 -8.99,-13.53 -26.15,-29.97 -45.2,-31.34z"/>
   <path class="fil4" d="M4160.89 1933.13c7.16,-7.29 16.17,-8.98 26.17,-14.01 -2.63,18.53 -5.7,18.65 -26.17,14.01zm-20.83 -26.02c9.98,-6.8 32.25,-19.08 46.82,-21.48l0.17 22.46 -38.52 14.18 -8.47 -15.16zm-14.98 -31.34c14.3,-7.56 32.53,-16.81 50.82,-20.17l6.55 17.08 -50.72 22.96 -6.65 -19.87zm-4.62 -11.94c-0.29,-20.12 -1.95,-13.02 17.5,-21.53 12.25,-5.35 16.52,-9.58 26.95,-7.46 5.11,14.75 2.68,9.91 -16.35,17.82 -9.81,4.08 -17.66,8.73 -28.11,11.16zm-23.78 -4.11c16.28,111.19 126.55,145.43 114.31,31.71 -13.36,-124.06 -130.03,-139.22 -114.31,-31.71z"/>
   <path class="fil4" d="M3736.69 1140.76l36.44 -16.72c-1.23,19.18 -1,19.62 -7.97,31.98 -19.46,-0.16 -20.59,-3.42 -28.48,-15.26zm-7.7 -12.43l-3.33 -22.6c0.71,-0.41 3.97,-2.36 5,-2.86l35.45 -13.65 4 19.99c-9.68,9.52 -27.04,14.82 -41.12,19.11zm-14.22 -35.6c-2.57,-20.4 -4.94,-14.82 15.59,-21.51 9.92,-3.24 17.63,-6.97 24.27,-7.51l6.49 13.84c-13.81,9.23 -29.89,16.57 -46.35,15.18zm-4.97 -27.17c3.33,-17.89 24.38,-30.31 37.63,-13.47l-37.63 13.47zm-1 -59.73c-56.7,34.86 -2.85,200.7 64.15,175.13 63,-24.03 -8.77,-209.19 -64.15,-175.13z"/>
   <path class="fil4" d="M4215.4 1400.48l0.39 29.1c-18.21,0.99 -22.68,-5.28 -33.96,-10.44 0.88,-0.89 2.13,-3.52 2.64,-2.68 5.43,8.98 -2.38,-0.9 12.85,-9.01 9.84,-5.23 7.31,-4.06 18.08,-6.97zm-7.98 -31.87l4.16 17.07c-9.19,8.41 -20.39,13.34 -39.5,18.95l-8.75 -18.76 44.08 -17.26zm-54.71 -6.63c6.59,-4.97 35.31,-18.2 42.11,-20.03l6.01 17.9c-15.41,3.27 -29.65,11.26 -42.18,17l-5.94 -14.88zm-3.44 -13.86c-0.72,-12.82 3.24,-13.49 13.39,-18.63 15.11,-7.64 14.13,-6.99 22.51,2.28l-35.9 16.36zm-4.66 -57.83c-37.36,21.13 -21.92,76.35 -5.24,107.69 10.93,20.53 43.5,69.03 79.54,55.3 63.1,-24.01 -20.2,-193.57 -74.3,-162.98z"/>
   <path class="fil5" d="M4093.2 1475.91c12.15,64.82 53.37,155.26 3.82,250.21 -6.32,12.1 -12.61,19.63 -22.4,28.92 -8.57,8.12 -21.93,15.59 -27.74,25.54 103.92,8.84 120.07,-153.72 102.69,-230.95 -5.13,-22.8 -18.43,-74.54 -29.52,-87.98l-26.87 14.26z"/>
   <path class="fil5" d="M3808.06 3482.61c178.12,-16.04 155.44,4.71 159.24,-85.93l-159.74 17.62 0.5 68.31z"/>
   <path class="fil5" d="M3787.86 1780.7l2.15 29.65 230.66 -113.29c16.34,-9.2 62.57,-33.73 79.41,-37.4l2.4 -33.7c-23.36,5.56 -191.73,91.85 -236.58,114.28 -24.45,12.23 -56.37,26.64 -78.03,40.47z"/>
   <path class="fil5" d="M3606.83 2764.86c26.08,7.9 69.04,40.79 94.58,23.41 13.39,-9.11 25.24,-20.04 38.22,-29.02 31.84,-22.02 14.95,-6.61 29.32,-42.35 -36.95,-20.2 -19.02,-12.27 -43.9,-30.99 -12.53,6.3 -106.33,65.51 -118.21,78.94z"/>
   <path class="fil5" d="M3587.3 2511.38c10.99,21.22 102.75,68.96 123.78,87.04 11.57,-10.75 2.57,-13.36 14.05,-31.35 6.9,-10.8 13.31,-15.02 19.69,-23.96 -23.28,-19 -52.12,-37.8 -75.66,-54.99 -25.32,-18.48 -23.47,-9.52 -81.87,23.26z"/>
   <path class="fil5" d="M3701.96 3333.3c20.31,11.28 49.66,34.15 71.02,50.58 32.48,24.97 48.68,12.64 97.46,7.65 125.53,-12.84 91.53,-2.83 137.31,-44.33 9.05,-8.21 21.86,-19.02 25.54,-33.8 -6.72,-10.06 -9.17,-14.66 -19.88,-19.51 -7.61,8.55 -21.3,49.02 -53.24,65.09 -37.82,19.03 -141.21,27.71 -192.05,-9.53 -39.28,-28.77 -34.25,-46.95 -63.06,-51.1l-3.11 34.95z"/>
   <path class="fil5" d="M3954.03 2653.66c-0.01,-29.98 21.22,-22.31 25.28,-53 3.21,-24.19 -14.57,-36.22 -27.99,-43.76 -4.9,39.76 10.98,36.64 -19.44,62.72 -31.6,27.09 -102.41,31.98 -142.72,5.36 -25.06,-16.55 -24.96,-26.24 -21.51,-62.26 -14.98,2.21 -17.93,7.53 -23.64,23.34 -12.19,33.72 11.9,48.61 27.74,60.74 19.39,14.86 5.14,9.08 26.67,12.66 41.6,6.93 70.53,15.61 121.05,-1.07 12.57,-4.15 15.25,-8.3 25.86,-7.29l8.71 2.56z"/>
   <path class="fil5" d="M3844.86 2506.48c-82.36,12.16 -65.51,82.34 33.34,67.24 79.77,-12.18 47.38,-79.16 -33.34,-67.24z"/>
   <path class="fil5" d="M3952.55 2529.05c25.45,10.54 34.02,21.69 48.48,37.35 12.9,-13.15 35.06,-26.11 50.03,-37.09 18.63,-13.67 32.6,-28.35 48.34,-40.68 -5.84,-6.47 -55.47,-27.49 -64.45,-30.79 -7.76,16.32 -65.62,53.81 -82.4,71.21z"/>
   <path class="fil5" d="M3345.07 1757c10.62,14.53 9.69,25.38 32.35,47.47 21.65,-13.25 57.61,-28.31 81.5,-44.06l-18.28 -53.56c-13.78,4.32 -34.53,16.28 -50.19,23.79 -8.66,4.15 -15.43,7.1 -23.95,11.58l-19.22 12.8c-0.35,-0.71 -1.5,1.28 -2.2,1.98z"/>
   <path class="fil5" d="M3699.8 3353.06c-3.48,48.48 -3.23,58.29 26.64,81.41 22.04,17.05 40.82,29.09 68.19,42.7 -1.78,-15.95 -1.72,-42.08 -4.63,-55.98 -3.35,-15.98 -11.09,-15.36 -25.44,-24.8 -18.51,-12.18 -45.64,-36.34 -64.75,-43.32z"/>
   <path class="fil5" d="M3791.4 1840.77c27.03,-9.98 53.32,-23.95 79.65,-36.91l158.21 -78.19c58.34,-28.52 61.75,-18.7 67.03,-51.86 -53.69,21.47 -165.53,84.84 -234.3,117.56l-59.43 27.51c-15.27,8.78 -10.02,0.77 -11.16,21.9z"/>
   <path class="fil5" d="M3985.87 3306.85c-107.67,49.32 -148.89,29.01 -235.63,4.48 1.94,15.82 27.67,28.17 45.32,38 23.24,12.93 36.66,13.79 67.65,11.75 60.95,-3.98 107.35,-3.44 122.66,-54.24z"/>
   <path class="fil5" d="M3990.13 3277.2c27.04,-13.42 46.99,-26.94 48.86,-63.79l0.6 -81.81c1.69,-20.54 6.16,-9.61 3.55,-25.69 -8.32,0.13 -0.23,-10.3 -11.02,12.41 -36.36,76.52 -43.58,38.25 -41.99,158.88z"/>
   <path class="fil5" d="M3950.08 2815.13c46.06,-9.02 95.39,-12.94 134.26,-32.83l-107.36 -39.66c-26.31,32.87 -25.54,16.84 -26.9,72.49z"/>
   <path class="fil5" d="M3690.99 3434.02c12.48,71.69 177,108.93 285.01,59.34 21.1,-9.69 43.67,-25.65 55.25,-39.31 5.18,-6.12 7.98,-12.58 11.79,-22.97 -9.48,5.39 -1.59,0.22 -10.86,7.62 -101.01,80.51 -25.68,41.13 -170.23,59.09 -43.31,5.38 -71.52,3.26 -104.31,-15.36 -21.96,-12.47 -53.66,-35.8 -66.64,-48.42z"/>
   <path class="fil5" d="M3663.24 1772.81l9.43 47.15 87.81 -41.55 -8.01 -53.74c-15.18,3.93 -76.65,35.45 -89.22,48.14z"/>
   <path class="fil6" d="M3858.17 4107.4c20.35,12.63 95.66,-15.55 112.67,-23.1 34.4,-15.28 65.14,-32.89 87.03,-54.88 25.59,-25.72 40.53,-44.66 61.88,-80.36 8.36,-13.97 45.11,-81.95 35.88,-97.44 -17.75,7.2 -28.27,73.76 -73.33,134.98 -32.5,44.14 -63.37,65.3 -119.02,86.58 -38.15,14.58 -99.22,26.31 -105.1,34.22z"/>
   <path class="fil5" d="M4451.34 3846.11c15.38,-4.19 58.49,-26.38 74.83,-35.32l-0.21 -63.27c-22.03,6.45 -49.6,30.34 -74.1,35.23l-0.52 63.36z"/>
   <path class="fil5" d="M4333.44 1539.15l8.63 45.94c22.23,-8.91 74.11,-32.15 87.89,-46.64l-6.32 -41.58c-30.12,9.56 -59.77,36.12 -90.19,42.28z"/>
   <path class="fil5" d="M3674.42 1835.42l4.36 42.59c24.01,-9.81 74.58,-34.48 88.81,-49.89l-3.96 -36.15 -89.2 43.45z"/>
   <path class="fil4" d="M3792.15 3902.15c-32.51,-57.32 -119,-143.44 -159.07,-136.34 0.85,1 2.56,5.58 3.25,6.52 11.07,14.85 86.2,34.94 146.05,139.25 8.48,14.77 19.86,56.12 30.36,59.6 9.53,-9.29 1.04,-21.18 -4.19,-34.08 -6.11,-15.06 -9.34,-22.51 -16.4,-34.95z"/>
   <path class="fil5" d="M4090.93 2878.87l1.67 45.84c25.43,-10.72 57.75,-15.78 77.58,-30.86l-3.11 -42.93 -76.14 27.96z"/>
   <path class="fil5" d="M3625.22 4241.79c14.94,-4.73 26.72,-13.63 40.06,-20.3 44.25,-22.11 37.73,-7.05 34.63,-65.74 -11.84,5.6 -24.7,14.6 -38.72,22.04 -13.01,6.91 -26.89,13.55 -36.98,19.65l1.02 44.35z"/>
   <path class="fil5" d="M3800.23 2817.75l121.96 0.84 -0.03 -33.45c-38.31,7.79 -87.46,11.77 -122.72,-3.76l0.8 36.37z"/>
   <path class="fil5" d="M4353.08 1696.89l-0.64 40.11c21.17,-10.28 66.8,-27.68 86.69,-43.2l0.35 -38.34 -86.4 41.44z"/>
   <path class="fil5" d="M3679.02 1929.56c28.78,-12.28 60.23,-35.11 89.31,-43.89l0.2 -39.52c-15.89,6.21 -41.7,21.05 -59.06,29.91 -32.61,16.65 -31.53,10.03 -30.45,53.5z"/>
   <polygon class="fil5" points="4344.74,1599.24 4348.8,1636.02 4436.21,1592.06 4432.59,1555.73 "/>
   <path class="fil7" d="M3792.48 1867.31l146.48 -70.42c39,-20.46 123.88,-50.45 140.96,-80.96 -25.33,13.89 -46.52,23.53 -72.55,35.42l-148.6 72.53c-46.33,22.81 -65.22,24.29 -66.29,43.43z"/>
   <path class="fil5" d="M3981.81 3451.71c66.66,-42.08 48.11,-57.51 54.86,-107.65 -9.72,5.56 -38.54,33.75 -45.52,41.78 -11.03,12.69 -10.85,26.7 -10.95,52.12 -0.05,12.7 -1.01,5.98 1.62,13.75z"/>
   <path class="fil5" d="M3786.69 2582.59c6.13,34.46 37.45,40.77 72.71,39.6 33.4,-1.11 66.78,-8.66 65.67,-42.5 -80.31,35.99 -81.19,16.57 -138.38,2.9z"/>
   <path class="fil5" d="M4351.49 1648.83l1.62 36.19c26.92,-15.63 59.11,-27.66 85.99,-42.58l-2.11 -34.49c-28.67,14.37 -57.36,27.28 -85.5,40.88z"/>
   <path class="fil5" d="M4350.86 1751.84l-2.02 36.45c12.19,-7.85 39.36,-21.39 54.79,-28.22 33.63,-14.88 32.43,-12.47 36.29,-52.09l-89.06 43.85z"/>
   <path class="fil5" d="M4339.72 1836.91c12.14,-4.03 78.5,-37.06 86.2,-42.92l8.92 -34.94c-20.07,7.07 -36.22,17.71 -56.03,27.48 -36.93,18.21 -29.19,6.32 -39.09,50.37z"/>
   <path class="fil5" d="M3621.72 4293.58c15.19,-5.7 35.96,-19.37 53.22,-27.19 23.88,-10.81 26.92,-14.89 25.31,-48.13l-74.35 35.51 -4.18 39.81z"/>
   <path class="fil5" d="M4448.18 3894.27c15.93,-4.34 29.75,-15.69 47.24,-23.6 28.36,-12.84 26.07,-12.07 28.68,-46.54l-71.55 34.92 -4.36 35.23z"/>
   <path class="fil5" d="M4278.29 2784.14l0.38 39.12c28.13,-12.48 68.77,-80.39 74.79,-124.23l-16.17 25.72c-13.27,20.67 -39.13,45.53 -59,59.39z"/>
   <path class="fil5" d="M3387 1812.26c21.46,37.29 43.19,12.77 72.89,-1.06l-0.14 -38.19c-13.98,7.73 -64.65,31.79 -72.75,39.25z"/>
   <path class="fil5" d="M3678.29 1943.43l-4.61 31.33c16.6,-8.3 32.98,-18.9 51.43,-27.81 30.61,-14.79 35.55,-7.01 40.03,-44.45l-86.85 40.93z"/>
   <path class="fil5" d="M3337.58 1744.84c15.85,-7.25 31.39,-17.79 49.04,-26.13 16.53,-7.81 32.99,-13.95 46.48,-25.17l-13.74 -12.75c-0.99,0.25 -4.12,1.37 -5.2,1.79l-83.43 39.9 6.86 22.37z"/>
   <path class="fil5" d="M4179.1 3934.69c19.36,-6.23 50.84,-25.78 72.43,-35.82 28.36,-13.18 49.19,-22.44 60.21,-44.38 -18.94,5.79 -55.99,24.41 -75.5,33.7 -12.67,6.03 -19.86,11.3 -33.68,17.11 -22.24,9.37 -14.82,9.52 -23.46,29.39z"/>
   <path class="fil5" d="M4175.89 2846.77l2.28 41.04c8.05,0.6 26.18,-9.03 34.77,-15.25 10.81,-7.83 7.22,-16.85 8.15,-46.22 -5.78,1.14 -41.9,18.76 -45.19,20.43z"/>
   <path class="fil5" d="M4329.82 1878.23c61.47,-32.22 75.7,-24.03 91.76,-65.73 -16.63,4.68 -38.31,16.88 -55.23,25.29 -24.09,11.98 -33,10.19 -36.53,40.44z"/>
   <path class="fil5" d="M3612.49 4334.91c11.51,-1.98 35.43,-16.93 47.93,-23.56 21.75,-11.54 28.45,-12.15 33.62,-42.51 -86.15,43.54 -66.81,28.24 -81.55,66.07z"/>
   <path class="fil5" d="M3664.38 2013.16c15.97,-7.55 35.24,-18.01 53.35,-26.7 28.76,-13.79 30.47,-7.42 39.02,-41.36 -19.08,7.32 -34.24,18.76 -53.28,27.32 -31.97,14.38 -27.64,7.75 -39.09,40.74z"/>
   <path class="fil5" d="M3323.17 1692.36l3.35 18.22 90.13 -43.86c-4.75,-9.6 -4.8,-8.29 -11.58,-15.77l-81.91 41.41z"/>
   <path class="fil5" d="M3922.56 3093.15c10.02,-6.62 -0.8,7.43 8.99,-7.73 3.6,-5.6 3.31,-5.46 4.66,-12.85 1.53,-8.43 0.75,-22.72 0.67,-31.73 -0.16,-16.36 4.51,-46.97 -6.42,-59.65 -13.57,5.76 -9.69,2.23 -9.36,51.74 0.12,18.81 -3.55,45.6 1.46,60.22z"/>
   <path class="fil5" d="M3649.84 2053.51c17.14,-5.64 32.97,-18.01 49.35,-26.1 29.06,-14.37 23.07,-9.81 39.83,-37.15 -15.44,3.64 -25.27,10.55 -39.55,17.94 -40.7,21.06 -29.61,-1.87 -49.62,45.31z"/>
   <path class="fil5" d="M4230.51 2819.31l-0.14 43.24c6.44,-3.84 27.52,-18.1 32.23,-23.12 9.98,-10.62 6.22,-24.02 2.04,-41.69 -10.62,6.72 -22.88,15.85 -34.13,21.56z"/>
   <path class="fil5" d="M3288.62 4016.38l92.37 -44.19 -11.7 -9.52c-11.93,2.03 -34.2,12.37 -46.8,18.96 -29.27,15.3 -26.6,4.33 -33.87,34.75z"/>
   <path class="fil5" d="M3320.47 1677.95c16.61,-4.51 23.77,-9.36 38.85,-18.09 19.93,-11.56 30.43,-12.73 38.1,-23.42 -10.39,-5.11 -4.41,-1.88 -12.61,-8.12 -13.46,6.31 -23.28,8.89 -39.37,17.6 -22.96,12.43 -26.41,4.77 -24.97,32.03z"/>
   <path class="fil5" d="M4440.59 3933.29c42.79,-15.95 60.75,-26.32 73.7,-58.01 -13.84,5.47 -28.08,14.85 -43.09,22.17 -26.64,12.97 -24.76,4.03 -30.6,35.85z"/>
   <path class="fil5" d="M4125.08 1875.77l6.65 19.87 50.72 -22.96 -6.55 -17.08c-18.29,3.35 -36.52,12.61 -50.82,20.17z"/>
   <polygon class="fil5" points="3772.99,2812.81 3771.6,2768.49 3723.11,2803.83 "/>
   <path class="fil5" d="M3728.99 1128.33c14.08,-4.29 31.44,-9.6 41.12,-19.11l-4 -19.99 -35.45 13.65c-1.03,0.5 -4.29,2.45 -5,2.86l3.33 22.6z"/>
   <path class="fil7" d="M4314.02 1915.44c25.83,-11.75 75.03,-33.83 86.12,-56.01 -15.71,7 -31.63,14.99 -47.74,23.43 -24,12.59 -27.87,7.07 -38.38,32.57z"/>
   <path class="fil5" d="M4140.06 1907.11l8.47 15.16 38.52 -14.18 -0.17 -22.46c-14.57,2.4 -36.83,14.68 -46.82,21.48z"/>
   <path class="fil5" d="M4163.34 1385.87l8.75 18.76c19.11,-5.61 30.31,-10.54 39.5,-18.95l-4.16 -17.07 -44.08 17.26z"/>
   <path class="fil5" d="M3938.89 3175.5l39.58 8.7c9.28,-15.7 15.2,-18.3 23.46,-38.42l-63.04 29.72z"/>
   <path class="fil5" d="M3714.78 1092.74c16.46,1.4 32.54,-5.95 46.35,-15.18l-6.49 -13.84c-6.64,0.54 -14.35,4.27 -24.27,7.51 -20.53,6.69 -18.15,1.11 -15.59,21.51z"/>
   <path class="fil7" d="M3598.29 4371.56c26.02,-9.41 60.09,-28.85 70.75,-47.83 -12.77,4.49 -27.91,12.84 -40.68,19.17 -23.35,11.57 -21.05,5.43 -30.07,28.66z"/>
   <path class="fil5" d="M4152.71 1361.98l5.94 14.88c12.53,-5.74 26.77,-13.74 42.18,-17l-6.01 -17.9c-6.8,1.83 -35.52,15.06 -42.11,20.03z"/>
   <path class="fil5" d="M3736.69 1140.76c7.89,11.83 9.02,15.1 28.48,15.26 6.97,-12.36 6.74,-12.8 7.97,-31.98l-36.44 16.72z"/>
   <path class="fil5" d="M4120.46 1863.83c10.44,-2.44 18.3,-7.08 28.11,-11.16 19.02,-7.91 21.46,-3.08 16.35,-17.82 -10.42,-2.12 -14.7,2.11 -26.95,7.46 -19.45,8.51 -17.79,1.41 -17.5,21.53z"/>
   <path class="fil5" d="M3802.97 3198.28c14.06,-0.51 34.72,-5.4 42.93,-13.49l-49.36 -9.47 6.43 22.96z"/>
   <path class="fil7" d="M4428.61 3966.04c11.06,-3.49 57.15,-25.28 62.07,-42.19 -33.84,21.38 -50.64,13.09 -62.07,42.19z"/>
   <path class="fil5" d="M4197.32 1407.45c-15.23,8.11 -7.42,17.98 -12.85,9.01 -0.51,-0.85 -1.76,1.79 -2.64,2.68 11.28,5.16 15.75,11.43 33.96,10.44l-0.39 -29.1c-10.77,2.91 -8.25,1.74 -18.08,6.97z"/>
   <path class="fil6" d="M3899.32 1563.44c10.48,6.16 41.73,-2.65 42.01,-22.74 -14.26,0.14 -11.19,1.27 -22.15,7.41 -3.55,2 -7.39,3.49 -10.43,5.37 -12.67,7.79 -4.31,-1.45 -9.43,9.95z"/>
   <path class="fil7" d="M3321.31 1641.91l47.88 -22.48c-14.25,-8.46 -15.29,-6.36 -29.68,1.09 -10.96,5.67 -13.43,7.03 -18.2,21.39z"/>
   <path class="fil7" d="M3709.8 1065.57l37.63 -13.47c-13.25,-16.84 -34.3,-4.42 -37.63,13.47z"/>
   <path class="fil7" d="M4149.27 1348.12l35.9 -16.36c-8.38,-9.27 -7.4,-9.91 -22.51,-2.28 -10.15,5.14 -14.11,5.81 -13.39,18.63z"/>
   <g>
    <path class="fil4" d="M5353.21 2380.89l1.2 -65.19c19.43,5.37 14.3,4.35 23.01,20.22 7.2,13.09 9.4,18.44 12.65,32l-36.85 12.97zm116.1 -98.9c18.84,22.25 47.46,58.89 60.96,86.63l-38.3 19.01c-6.06,-28.06 -30.39,-77.56 -22.66,-105.64zm-249.31 20.02c2.06,-14.88 1.85,-12.43 13.35,-22.15 18.81,7.22 10.03,5.31 15.44,12.12l-28.79 10.02zm378.99 26.36c-12.07,-25.81 -11.11,-32.98 -37.21,-84.65 -12.84,-25.42 -8.67,-21.25 -4.67,-25.12 20.16,-21.3 63.26,33.41 83.55,39.29 25.57,7.42 229.24,-111.65 279.61,-122.99 21.82,39.82 -21.13,39.59 -55.38,56.18 -75.52,36.62 -191.49,103.62 -265.9,137.29zm10.15 -216.9l9.1 -30.21c73.15,7.63 20.38,51.03 167.82,-22.69 33.85,-16.92 132.38,-74.53 160.85,-81.43 10.63,21.33 20.11,18.75 40.62,49.74l-304.49 155.46c-16.05,2.76 -56.73,-56 -73.89,-70.88zm97.54 -46.83l-1.78 -32.62c31.15,-2.39 288.15,-140.98 318.05,-157.57 -0.32,31.68 0.94,25.36 -26.22,38.53 -13.84,6.72 -26.14,14.68 -41.81,21.93l-248.24 129.73zm-5.65 -46.9l-20.63 -23.92c-32.91,-28.88 -55.65,-40.28 -57.82,-79.26l33.03 0.41c-14.81,13.23 -13.39,2.24 -22.32,19.36 12.49,23.61 25.75,7.76 74.37,-17.23l241.83 -123.67c25.32,11.55 41.91,39.84 72.24,53.86 -16.66,14.46 -195.07,103.25 -241.38,127.79l-79.32 42.68zm-16.32 -145.32l-3.48 -30.6 17.78 -11.58c59.2,-35.16 224.07,-110.85 299.2,-153.97l6.38 12.86c1.55,4.16 3.83,13.12 5.67,18.55l-81.16 40.72c-26,15.93 -51.04,27.1 -80.19,41.82l-164.2 82.21zm-72.58 -91.8c5.36,-6.91 0.86,-2.94 8.47,-8.64l275.13 -140.06c25.31,-16.95 38.36,-9.59 97.75,18.51l-287.18 153c-24.08,12.72 -23.84,18.58 -47.29,2.6 -18.76,-12.8 -23.24,-17.29 -46.89,-25.41zm-18.28 -22.26l-9.51 -24.49 73.7 -42.23c27.69,-12.89 49.48,-26.35 76.16,-40.55 50.74,-26.99 109.15,-53.62 156.82,-82.14l12.62 23.77 -16.78 11.24c-7.67,4.23 -11.55,5.98 -18.94,10.09 -14.63,8.16 -25.11,13.91 -38.28,20.25l-235.79 124.04zm38.84 -85.67l-6.85 -45.68c10.83,-9.67 291.31,-154.89 313.79,-161.34l9.12 35.06c-51.19,28.78 -261.18,148.3 -316.06,171.96zm-54.26 -79.59c14.66,-13.07 129.2,-69.81 156.61,-82.96 108.89,-52.23 87.2,-71.58 176.69,-62.39 -55.09,42.51 -265,131.76 -297.55,165.5 -13.54,-6.89 -20.66,-13.23 -35.76,-20.15zm-78.8 -38.77c30.36,-6.88 195.24,-90.37 238.19,-114.06 19.59,-10.8 59.64,-33.2 80.54,-37.47l16.88 22.63c-19.97,16.09 -54.96,28.79 -79.1,42.71l-158.18 80.49c-28.3,14.8 -51.24,29.13 -82.58,36.78l-15.75 -31.07zm2.57 -29.03c35.56,-37.59 5.45,-46.42 31.78,-64.49l302.88 -155.26c-14.93,49.49 -15.29,57.4 -61.12,79.5l-273.55 140.26zm159.02 -205.33c13.38,-7.8 117.76,-62.11 132.7,-63.21 23.39,-1.73 26.95,9.71 43.28,18.07 -11.82,16.19 -12.78,10.32 -39.92,25.17 -51.07,27.93 -253.98,132.2 -276.19,151.78l-28.28 -38.73 168.41 -93.08zm-264.24 73.59c23.42,-14.13 55.89,-24.54 81.35,-37.8l226.47 -117.24 11.29 23.94c-57.98,21.19 -228.86,129.08 -309.8,150.47 -6.42,-19.54 0.06,-4.91 -9.31,-19.37zm-475.68 -193.09c-15.17,-10.27 -30.55,-35.22 -34.87,-49.25l22.84 -1.86 12.03 51.1zm12.47 -94.39l12.42 -4.03c22.44,10.83 40.11,84.72 59.87,91.63l49.63 3.87 5.01 -100.85c63.34,16.67 35.96,93.23 69.87,116.99 5.11,3.58 39.51,17.49 46.14,19.38 9.21,-20.33 15.75,-54.26 22.08,-79.27 63.06,36.45 20.56,90.02 48.99,127.85 8,10.64 22.83,23 34.28,28.72 19.9,-9.07 13.5,-9.55 28.47,-24.6 9.67,-9.74 19.63,-15.96 29.99,-22.67 34.33,35.85 38.77,36.08 20.78,97.99 -7,24.06 -7.7,27.71 8.58,46.8 53.61,62.88 21.43,31.17 99.18,17.88 6.35,14.68 29.24,39.77 25.17,58.17 -3.85,17.4 -28.31,39.31 -36.93,55.77 10.04,21.81 27.32,54.54 43.99,72.31 59.18,0.37 111.33,3.8 102.61,75.55 -18.57,8.58 -32.96,20.35 -56.58,26.36 7.02,95.54 27.67,80.22 51.2,89.12 66.12,24.99 59.4,50.25 62.02,83.55l-73.94 -5.01c-2.42,15.38 2,45.76 4.15,62.04 7.87,59.38 99.07,46.11 82.9,124.08 -27.19,-3.44 -62.02,-28.13 -84.04,-30.38 -4.09,6.74 -15.55,43.67 -17.64,55.6 -4.13,23.46 43.41,64.55 59.42,81.73 18.05,19.37 22.38,19.07 17.77,53.06 -35.72,-13.54 -68.96,-54.66 -99.16,-60.55l-34.18 37.22c3.87,65.31 81.32,99.31 36.54,141.58 -9.84,-14.12 -23.13,-29.46 -35.73,-46.87 -33.92,-46.92 -26.76,-67.49 -87.86,-29.1 6,37.37 35.62,93.35 31.01,124.81 -26.56,5.64 -22.72,8.12 -46.32,-46.15 -9.18,-21.08 -18.07,-45.93 -33.99,-64.47l-53.74 -0.81 -2.1 99.12c-54.85,15.31 -4.65,-122.03 -109.8,-140.56 -14.14,20.91 -15.69,38.54 -29.23,58.27 -72.26,1.64 -12.95,-89.13 -60.31,-130.11 -10.37,-8.99 -22.72,-21.99 -37.12,-26.13 -20.64,14 -10.81,24 -43.84,45.19 -67.24,-52.92 6.76,-92.94 -32.76,-144.09 -45.5,-58.89 -37.69,-16.85 -89.04,-19.13 -28.75,-39.19 -25.08,-38.17 -5.09,-82.69 16.07,-35.78 -6,-46.5 -17.16,-83.88l-70.53 -15.14c-3.48,-6.32 0.06,0.4 -5.71,-10.76l-13.58 -35.54c14.68,-21.46 35.48,-27.05 46.51,-41.96 0.8,-11.81 -14.42,-70.39 -22.2,-79.74 -4.3,-5.17 -64.27,-35.38 -72.6,-39.15l-3.34 -37.32 60.54 -15.04c4.79,-8.46 1.8,0.17 3.87,-11.89 1.12,-6.46 0.86,-5.33 0.62,-11.91 -1.07,-30.25 -10.59,-42.65 -33.35,-64.48 -23.88,-22.93 -41.66,-38.76 -37.78,-87.89 17.35,6.74 53.03,19.63 69.92,16.65 16.66,-36.33 -6.22,-54.57 -21.6,-75.76 -27.18,-37.47 -40.03,-52.08 -31.02,-69.74 35.04,-10.74 47.06,28.4 79.43,42.82 31.98,-31.63 26.7,-31.71 8.61,-73.76 -9.3,-21.6 -30.25,-61.72 -16.52,-82.34 31.43,-4.25 40.46,55.48 71.25,80.03 19.06,-6.11 20.89,-15.1 39.57,-25.84 -1.09,-36.21 -29.89,-80.08 -17.61,-114.52zm466.06 186.01c29.81,-12.48 284.26,-149.42 303.47,-149.24 -16.32,63.56 7.9,55.59 -49.12,86.87l-267.7 138.61c10.77,-22.88 15.66,-46.11 13.35,-76.23zm47.14 -94.23c27.96,-14.53 57.4,-31.48 83.74,-42.83 111.88,-48.2 116.07,-82.22 164.03,-39.17 -21.94,19.66 -183.91,95.68 -229.5,119.85 -24.82,13.16 -50.24,28.76 -73.95,38.68l-27.76 -31.86 83.43 -44.67zm-190.78 -25.71c50.8,-15.86 240.58,-122.61 303.19,-151.75l13.29 70.21c-7.87,7.74 -130.93,70.99 -154.48,83.11 -28.46,14.65 -49.87,24.07 -78.54,38.65 -25.4,12.93 -45.32,33.91 -71.56,44.1l-11.9 -84.33zm204.7 -164.83c36.51,-15.05 54.04,-34.52 85.21,-8.37 -15.23,16.06 -54.31,29.1 -76.94,41.17 -26.01,13.86 -45.96,26.11 -72.8,38.96 -49.78,23.85 -100.15,52.26 -149.24,76.03l-22.09 -19.76 235.86 -128.04zm-337.47 108.55c23.39,-18.95 112.28,-58.62 145.12,-76.99 49.64,-27.77 90.75,-49.54 142.94,-76.6l13.33 26.94 -158.12 81.94c-21.67,10.83 -55.42,29.47 -74.32,42.72 -24.57,17.23 -16.44,24.92 -30.27,57.53l-11.57 18.05c-12.84,-19.26 -18.26,-51.87 -27.11,-73.58zm-136.82 -32.49c31.82,-21.46 180.77,-92.6 221.65,-114.47 27.84,-14.9 49.89,-38.72 81.61,-21.61 -20.63,18.19 -216.37,108.78 -238.95,122.88 -22.67,14.16 -15.44,53.07 -26.09,81.12 -6.55,17.22 0.15,2.1 -5.83,10.43l-12.59 -18.82c-4.2,-7.73 -5.66,-10.66 -10.23,-18.77 -9.07,-16.05 -8.55,-21.5 -22.21,-30.5l12.64 -10.26zm123 5.17c0.42,-10.37 -7.85,-1.65 9.77,-13.06 41.47,-26.88 262.98,-132.96 278.51,-133.98 -16.27,13.38 -50.35,31.48 -71.58,43.01l-203.06 109.34c-15.62,2.77 -4.11,6.08 -13.63,-5.32zm-213.09 30.83c-38.85,0.72 -47.56,-0.1 -72.55,20.68 -29.98,24.92 -17.24,31.4 -14.5,73.25 -35.4,26.04 -70.21,16.9 -75.68,75.24 -2.71,28.89 41.62,65.41 53.42,97.72l-63.38 -2.53c-2.63,14.42 -5.68,46.25 -5.33,58.92 1.16,41.84 51.12,57.42 76.06,106.79 -41.69,35.43 -74.77,-6.77 -61.92,81.5 4.17,28.66 3.46,29.96 26.51,41.76 31.83,16.29 59.59,24.11 58.97,70.74 -58.78,53.5 -47.54,23.46 -26.95,87.06 23.66,73.11 27.94,22.71 105.95,82.78 -18.69,53.71 -63.71,66.57 9.82,153.33l65.37 -13.94c34.1,26.24 12.03,54.24 9.65,98.31 -1.18,21.83 24.92,43.54 46.79,75.42 30.58,-4.76 50.21,-23.89 75.14,-36.2 28.88,56.47 0.4,99.8 33.92,127.03 51.67,41.99 59.92,14.63 119.45,2.24 9.31,64.22 11.55,84.9 42.9,93.68 41.39,11.59 71.63,-8.2 108.38,-20.86 4.41,13.37 11.54,28.26 18.59,37.77 64.32,-4.58 111,-30.29 158.44,-51.31 49.45,-21.92 95.17,-47.4 141.9,-71.76 37.31,-19.45 179.54,-89.27 205.74,-111.11 28.57,-23.82 25.65,-34.04 19.44,-76.47 20.43,-7.27 42.38,-13.91 52.12,-32.67 8.86,-17.06 21.81,-47.76 23.11,-67.62 -12.3,-9.5 -46.27,-47.54 -54.03,-60.12 83.71,-29.14 85.22,-49.25 81.44,-97.89 -3.13,-40.33 -11.1,-31.67 -34.58,-51.84l-37.06 -31.06c-10.14,-9.69 -4.88,-2.39 -11.19,-14.4 30.68,-31.74 93.09,-13.98 57.72,-119.58 -18.36,-54.86 -85.74,-5.82 -107.74,-96.76 17.25,-5.44 43.25,-18.14 55.72,-27.76 2.25,-36.73 -10.93,-75.67 -31.22,-99.29l-84.86 -7.33c-19.29,-32.22 -26.89,-26.82 -7.42,-65.85 8.78,-17.58 22.5,-57.28 14.28,-77.02 -3.46,-8.34 -38.37,-44.89 -49.27,-49.43 -20.11,-8.38 -51.85,15.52 -74.77,20.83 -44.97,-57.49 12.23,-105.75 -18.49,-141.3 -3.37,-3.9 -45.72,-38.39 -52.23,-40.39 -13.58,-4.15 -46.37,15.2 -70.6,19.85 -9.59,-48.26 -7.61,-90.8 -41.52,-112.58 -66.05,-42.4 -43.65,-5.27 -105.53,7.32 -31.19,-65.52 -25.79,-84.35 -130.59,-42.13l-11.86 -9.11c-52.41,-44.58 -86.48,-2.91 -210.94,61.96l-167.39 86.34c-28.56,17.89 -30.81,12.71 -39.2,47.8z"/>
    <path class="fil5" d="M4986.47 1798.47c-8.16,-30.19 -27.86,-63.81 -24.55,-96.84l-12.88 -62.8c-1.39,-20.65 -0.9,-41.33 1.1,-60.51 33.43,-320.94 379.06,-170.76 476.74,153.01 110.59,366.59 -162.81,449.2 -330.79,242.65 -90.15,-110.84 -58.17,-78.07 -109.61,-175.5zm662.7 429.24c4.6,-33.99 0.28,-33.69 -17.77,-53.06 -16.01,-17.17 -63.55,-58.26 -59.42,-81.73 2.1,-11.92 13.55,-48.86 17.64,-55.6 22.03,2.26 56.85,26.94 84.04,30.38 16.17,-77.97 -75.04,-64.7 -82.9,-124.08 -2.16,-16.28 -6.57,-46.66 -4.15,-62.04l73.94 5.01c-2.62,-33.3 4.1,-58.56 -62.02,-83.55 -23.53,-8.9 -44.18,6.42 -51.2,-89.12 23.62,-6.01 38.01,-17.78 56.58,-26.36 8.72,-71.74 -43.43,-75.18 -102.61,-75.55 -16.67,-17.77 -33.95,-50.5 -43.99,-72.31 8.63,-16.46 33.08,-38.36 36.93,-55.77 4.06,-18.4 -18.82,-43.49 -25.17,-58.17 -77.75,13.29 -45.57,45 -99.18,-17.88 -16.28,-19.09 -15.58,-22.74 -8.58,-46.8 17.99,-61.92 13.55,-62.15 -20.78,-97.99 -10.36,6.71 -20.33,12.93 -29.99,22.67 -14.97,15.06 -8.57,15.54 -28.47,24.6 -11.45,-5.72 -26.28,-18.07 -34.28,-28.72 -28.43,-37.82 14.08,-91.39 -48.99,-127.85 -6.33,25.01 -12.87,58.94 -22.08,79.27 -6.63,-1.89 -41.03,-15.8 -46.14,-19.38 -33.92,-23.76 -6.53,-100.32 -69.87,-116.99l-5.01 100.85 -49.63 -3.87c-19.76,-6.91 -37.43,-80.8 -59.87,-91.63l-12.42 4.03c-12.28,34.44 16.52,78.31 17.61,114.52 -18.68,10.74 -20.51,19.73 -39.57,25.84 -30.79,-24.55 -39.82,-84.28 -71.25,-80.03 -13.73,20.62 7.23,60.74 16.52,82.34 18.09,42.05 23.37,42.13 -8.61,73.76 -32.37,-14.42 -44.39,-53.56 -79.43,-42.82 -9.01,17.66 3.84,32.27 31.02,69.74 15.38,21.19 38.26,39.43 21.6,75.76 -16.89,2.98 -52.57,-9.91 -69.92,-16.65 -3.87,49.13 13.9,64.96 37.78,87.89 22.76,21.84 32.28,34.23 33.35,64.48 0.24,6.58 0.5,5.45 -0.62,11.91 -2.08,12.06 0.92,3.43 -3.87,11.89l-60.54 15.04 3.34 37.32c8.33,3.77 68.3,33.98 72.6,39.15 7.78,9.35 23,67.93 22.2,79.74 -11.03,14.91 -31.83,20.5 -46.51,41.96l13.58 35.54c5.77,11.16 2.23,4.44 5.71,10.76l70.53 15.14c11.16,37.38 33.23,48.11 17.16,83.88 -19.99,44.52 -23.65,43.5 5.09,82.69 51.34,2.28 43.53,-39.76 89.04,19.13 39.52,51.15 -34.48,91.17 32.76,144.09 33.03,-21.19 23.2,-31.19 43.84,-45.19 14.41,4.14 26.75,17.14 37.12,26.13 47.36,40.99 -11.95,131.75 60.31,130.11 13.54,-19.73 15.09,-37.36 29.23,-58.27 105.15,18.53 54.96,155.86 109.8,140.56l2.1 -99.12 53.74 0.81c15.92,18.54 24.81,43.39 33.99,64.47 23.6,54.27 19.76,51.79 46.32,46.15 4.6,-31.46 -25.01,-87.44 -31.01,-124.81 61.1,-38.39 53.94,-17.82 87.86,29.1 12.59,17.41 25.89,32.75 35.73,46.87 44.77,-42.27 -32.67,-76.26 -36.54,-141.58l34.18 -37.22c30.2,5.89 63.44,47.01 99.16,60.55z"/>
    <path class="fil5" d="M5600.35 3386.09c-16.15,68.26 -66.46,139.82 -126.6,157.38 -97.38,28.44 -145.21,-48.94 -120.75,-139.97 56.75,-211.16 294.93,-218.65 247.35,-17.41zm-387.88 -221.94l0.28 699.53c48.9,-16.5 471.87,-250.71 523.19,-267.8l0.2 -691.06c-86.13,38.96 -483.91,247.27 -523.67,259.34z"/>
    <path class="fil5" d="M5672.93 3941.46c-29.58,-135.13 279.8,-146.42 306.46,-33.77 32.2,136.08 -281.85,146.19 -306.46,33.77zm-440.83 -54.67l5.76 5.36c4.24,3.53 3.67,3.31 8.7,6.93 4.64,3.34 10.14,6.54 14.8,9.3l486.96 287.98c34.57,16.5 86.85,-25.72 137.36,-51.08 23.55,-11.81 44.9,-25.13 66.28,-35.87l203.31 -108.65c22.12,-11.79 42.13,-25.09 65.51,-36.26 18.94,-9.04 54.52,-24.72 70.71,-38.96 -72.14,-32.6 -180.92,-104.67 -258.01,-146 -87.18,-46.73 -175.42,-96 -260.11,-144.49 -31.68,-18.13 -34.56,-7.14 -67.2,9.88 -23.93,12.48 -43.59,21.87 -67.38,34.68 -50.3,27.1 -378.57,199.8 -406.7,207.18z"/>
    <path class="fil4" d="M5784.12 4238.63c25.9,-22.02 95.85,-57.14 130.37,-73.86 43.9,-21.25 86.13,-46.65 130.02,-69.87l196.27 -105.42c9.73,-5.29 54.76,-29.48 63.75,-32.18l-1.84 142.52 -518.14 279.25 -0.45 -140.44zm-552.02 -351.84c28.14,-7.38 356.4,-180.08 406.7,-207.18 23.78,-12.81 43.44,-22.2 67.38,-34.68 32.64,-17.01 35.52,-28.01 67.2,-9.88 84.68,48.49 172.93,97.76 260.11,144.49 77.09,41.33 185.87,113.4 258.01,146 -16.2,14.24 -51.77,29.92 -70.71,38.96 -23.38,11.16 -43.39,24.46 -65.51,36.26l-203.31 108.65c-21.38,10.73 -42.73,24.05 -66.28,35.87 -50.51,25.36 -102.79,67.58 -137.36,51.08l-486.96 -287.98c-4.65,-2.76 -10.15,-5.95 -14.8,-9.3 -5.02,-3.61 -4.45,-3.39 -8.7,-6.93l-5.76 -5.36zm-19.63 -722.65c39.76,-12.07 437.54,-220.38 523.67,-259.34l-0.2 691.06c-51.32,17.09 -474.29,251.31 -523.19,267.8l-0.28 -699.53zm-157.13 -69.02c14.05,2.74 111.04,59.03 125.15,71.73l0.91 729.22c18.56,16.1 115.23,69 143.72,85.26 77.37,44.13 382.7,231.68 429.26,249.96l0.63 148.78 -698.7 -419.14 -0.97 -865.82zm20.37 -24.53c0.99,-0.92 2.32,-2.11 3.06,-2.71 0.72,-0.59 2.17,-1.93 3.06,-2.62 27.97,-21.82 -19.61,12.82 6.11,-4.62l473.87 -237.61c49.16,-24.74 32.29,-21.12 81.4,7.08 24.57,14.1 53.37,33.8 77.74,44.08 -15.23,16.99 -280.32,144.49 -323.41,164.39 -53.44,24.67 -113.17,52.95 -163.25,80.55 -71.89,39.61 -63.85,-16.19 -158.57,-48.55zm690.21 -200.01c-8.54,-15.39 1.65,-5.49 -19.12,-17.68l-143.63 -80.14c-23.66,-2.06 -469.39,231.3 -514.92,253.54 -63.03,30.77 -65.17,21.52 -65.08,67.21 0.09,42.31 0.65,84.6 0.54,126.94 -0.19,76.42 -6.09,745.66 5.35,759.97l640.96 386.69c123.26,74.16 80.85,61.66 165.48,20.44 55.42,-26.99 107.78,-62.51 163.12,-89.73 55.92,-27.51 114.41,-59.7 167.86,-90.47l169.32 -83.18 -2.15 -206.4c-40.04,-26.62 -95.58,-56.51 -141.74,-82.47l-423.64 -239.73 -2.36 -724.98z"/>
    <path class="fil5" d="M5056.31 3960.95l698.7 419.14 -0.63 -148.78c-46.56,-18.28 -351.89,-205.83 -429.26,-249.96 -28.5,-16.27 -125.16,-69.17 -143.72,-85.26l-0.91 -729.22c-14.11,-12.7 -111.1,-69 -125.15,-71.73l0.97 865.82z"/>
    <path class="fil4" d="M5252.13 2046.7l151.15 -79.1c-20.06,41.49 -119.06,84.57 -151.15,79.1zm-43.31 -19.85c18.41,-15.68 193.06,-100.51 204.28,-104.4 -5.3,44.89 -15.71,29.56 -91.95,70.7 -19.59,10.56 -36.73,17.35 -55.38,27.46 -34.18,18.54 -21.72,20.87 -56.95,6.24zm-17.2 -9.75c-9.06,-9.19 -15.53,-9.49 -27.58,-25.39 20.06,-7.56 183.6,-96.78 198.94,-93.48 8.52,1.84 22.82,13.57 26.47,16.59l-197.83 102.28zm-41.08 -33.49c-12.09,-11.92 -27.27,-31.19 -37.72,-39.55l198.49 -99.76 32.74 40.2c0.62,0.81 1.74,2.25 2.53,3.42 -33.21,13.24 -64.49,31.82 -97.61,47.14 -27.43,12.68 -74.54,41.34 -98.42,48.55zm-112.53 -159.08c38.33,-14.46 60.6,-27 98.23,-45.39 32.11,-15.69 70.01,-32.76 101.99,-50.66 0.77,1.01 1.88,1.34 2.22,3.1 0.34,1.75 1.73,2.41 2.19,3.09l59.04 97.39 -201.31 100.15c-14,-32.22 -53.04,-70.4 -62.36,-107.67zm182.22 -337.97c59.18,4.58 156.08,186.81 180.51,270.58 13.72,47.09 16.69,82.85 17.7,132.69 -107.09,-53.32 -212.43,-258.08 -198.21,-403.27zm-206.73 4.08c12.22,-25.26 63.06,-60.1 111.87,-56.73l-111.87 56.73zm-51.58 210.97c5.51,1.93 -10.21,1.22 6.5,0.59 13.71,-0.52 6.27,-0.9 1.92,-0.73 -7.16,19.49 4.2,35.69 17.18,49.72 4.96,-10.6 -6.72,2.59 -4.44,7.63l14.33 5.96c15.16,-4.48 14.2,-13.94 16.69,-19.35 -20.09,-5.31 -7.41,1.96 -15.88,-14.49 -0.08,-0.15 -3.75,-16.68 -3.93,-17.43 -6.24,-2.99 -6.05,3.08 -7.81,-9.92 -2.61,-19.3 6.64,5.01 1.41,-15.78 -3.34,-13.29 -9.15,-0.37 -11.86,-44.77 1.97,15.3 4.37,7.37 8.4,13.11l1.55 -12.36 -1.49 -11.78c-5.89,-25.96 -3.69,-27.81 7.55,-46.03 -9.8,1.6 -7.56,6.81 -5.13,-8.96l4.3 -28.02c-11.78,-2.58 -3.77,1.68 5.68,-14.48 6.02,-34.8 78.24,-54.73 128.65,-83.14 25.26,-14.24 29.66,-16.48 44.15,-1.88 14.49,9.74 18.85,5.22 29.59,3.85 -8.79,34.46 -3.04,33.13 -1.1,51.42 1.32,12.41 -2.62,21.26 -3.18,30.44 -2.23,36.86 8.14,21.95 13.07,23.96 -15.3,4.26 -16.89,-12.79 -6.7,30.97l7.5 33.01c0.32,1.54 0.44,2.85 0.8,4.32 0.34,1.41 0.62,2.78 1.01,4.07 0.64,2.14 4.99,10.38 5.33,11.26 3.5,8.99 -3.3,7.3 2.85,20.62l15.11 51.89 -204.16 99.99 -6.36 -21.15c-17.16,3.03 5.16,18.53 -13.35,-9.18l-7.76 -13.94c-12.43,-12.95 2.96,-0.75 -12.56,-6.94 -0.62,1.05 -0.8,1.84 -0.84,3.53l-0.21 18.66c-0.04,0.55 -2.09,11.4 -2.25,12.13 51.44,97.43 19.46,64.66 109.61,175.5 167.98,206.55 441.38,123.93 330.79,-242.65 -97.68,-323.77 -443.31,-473.95 -476.74,-153.01 -2,19.18 -2.49,39.86 -1.1,60.51l12.88 62.8z"/>
    <path class="fil5" d="M5784.12 4238.63l0.45 140.44 518.14 -279.25 1.84 -142.52c-9,2.71 -54.03,26.89 -63.75,32.18l-196.27 105.42c-43.89,23.22 -86.12,48.63 -130.02,69.87 -34.52,16.71 -104.47,51.84 -130.37,73.86z"/>
    <path class="fil5" d="M5075.71 3070.6c94.72,32.36 86.68,88.16 158.57,48.55 50.08,-27.6 109.81,-55.88 163.25,-80.55 43.09,-19.9 308.18,-147.4 323.41,-164.39 -24.37,-10.28 -53.17,-29.98 -77.74,-44.08 -49.11,-28.2 -32.24,-31.82 -81.4,-7.08l-473.87 237.61c-25.72,17.44 21.86,-17.19 -6.11,4.62 -0.89,0.69 -2.34,2.03 -3.06,2.62 -0.74,0.6 -2.07,1.79 -3.06,2.71z"/>
    <path class="fil5" d="M5220.23 1486.57c-14.22,145.19 91.12,349.95 198.21,403.27 -1.01,-49.83 -3.98,-85.6 -17.7,-132.69 -24.42,-83.77 -121.33,-266 -180.51,-270.58z"/>
    <path class="fil5" d="M5780.35 1975.06c46.31,-24.53 224.72,-113.33 241.38,-127.79 -30.33,-14.02 -46.92,-42.31 -72.24,-53.86l-241.83 123.67c-48.62,24.99 -61.88,40.85 -74.37,17.23 8.93,-17.12 7.51,-6.13 22.32,-19.36l-33.03 -0.41c2.18,38.98 24.91,50.38 57.82,79.26l20.63 23.92 79.32 -42.68z"/>
    <path class="fil4" d="M5384.62 3478.65c18.58,-22.78 36.54,-26.36 68.49,-77.44 18.81,-30.07 30.91,-72.91 27.96,-118.58 130.99,-38.38 95.32,102.81 67.19,150.46 -56.14,95.11 -140.19,110.25 -163.63,45.56zm-7.1 -24.66c4.49,-74.92 44.7,-133.25 84.15,-159.42 1.53,68.11 -46.83,140.93 -84.15,159.42zm222.83 -67.9c47.59,-201.24 -190.59,-193.75 -247.35,17.41 -24.46,91.03 23.36,168.41 120.75,139.97 60.14,-17.56 110.45,-89.13 126.6,-157.38z"/>
    <path class="fil5" d="M5038 1824.54c9.32,37.26 48.36,75.45 62.36,107.67l201.31 -100.15 -59.04 -97.39c-0.46,-0.68 -1.85,-1.34 -2.19,-3.09 -0.34,-1.76 -1.45,-2.09 -2.22,-3.1 -31.97,17.9 -69.87,34.98 -101.99,50.66 -37.63,18.39 -59.9,30.93 -98.23,45.39z"/>
    <path class="fil4" d="M5744 3970.7c46.69,-24.79 112.27,-11.23 162.71,-0.32 -3.39,2.71 -3.11,3.02 -9.39,6.32l-30.22 8.89c-36.88,6.05 -95.06,5.6 -123.1,-14.89zm183.17 -12.51c-92.6,-59.3 -205.22,14.99 -220.88,-18.4 -11.81,-25.18 14.01,-49.13 28.14,-57.19 111.76,-63.89 278.9,26.08 192.74,75.6zm-254.25 -16.72c24.6,112.42 338.66,102.32 306.46,-33.77 -26.66,-112.65 -336.03,-101.36 -306.46,33.77z"/>
    <path class="fil5" d="M5609.14 2111.46c17.15,14.89 57.84,73.64 73.89,70.88l304.49 -155.46c-20.51,-30.99 -29.98,-28.42 -40.62,-49.74 -28.47,6.9 -127,64.5 -160.85,81.43 -147.44,73.72 -94.67,30.31 -167.82,22.69l-9.1 30.21z"/>
    <path class="fil5" d="M5256.19 1172.16l11.9 84.33c26.24,-10.19 46.16,-31.17 71.56,-44.1 28.67,-14.58 50.08,-24 78.54,-38.65 23.54,-12.12 146.61,-75.38 154.48,-83.11l-13.29 -70.21c-62.62,29.14 -252.39,135.89 -303.19,151.75z"/>
    <path class="fil5" d="M5493.77 3422.54c-42.2,-23.93 -31.52,-14.99 -27.75,-28.05 8.3,-1.13 70.49,29.52 70.79,45.32 -7.16,2.99 9.38,8 -11.73,0.83l-31.31 -18.1zm-109.15 56.12c23.44,64.69 107.5,49.54 163.63,-45.56 28.13,-47.65 63.8,-188.84 -67.19,-150.46 2.96,45.67 -9.15,88.51 -27.96,118.58 -31.94,51.08 -49.9,54.67 -68.49,77.44z"/>
    <path class="fil5" d="M5612.13 1780.61c23.64,8.12 28.13,12.61 46.89,25.41 23.44,15.99 23.2,10.12 47.29,-2.6l287.18 -153c-59.39,-28.1 -72.44,-35.47 -97.75,-18.51l-275.13 140.06c-7.61,5.7 -3.11,1.73 -8.47,8.64z"/>
    <path class="fil5" d="M5399.83 1292.09c2.31,30.12 -2.58,53.36 -13.35,76.23l267.7 -138.61c57.01,-31.28 32.8,-23.3 49.12,-86.87 -19.21,-0.18 -273.66,136.76 -303.47,149.24z"/>
    <path class="fil6" d="M4996.89 1534.54c-9.46,16.16 -17.46,11.9 -5.68,14.48 42,-7.4 172.24,-95.82 200.62,-88.69 2.41,27.55 -41.08,36.92 -95.92,63.65 -32.08,15.64 -74.01,42.1 -108.99,53.05 -2.43,15.77 -4.66,10.55 5.13,8.96 34.66,-3.82 154.09,-76.7 197.37,-93.03l0.1 38.12c-34.23,14.72 -68.43,32.45 -103.92,50.55 -33.61,17.13 -70.81,33.17 -101.1,50.38l1.49 11.78 202.26 -97.86 4.69 37.62c-31.08,25.1 -160.03,80.45 -203.84,102.6l-4.66 -30c-4.02,-5.74 -6.43,2.19 -8.4,-13.11 2.72,44.4 8.52,31.48 11.86,44.77 5.23,20.79 -4.01,-3.52 -1.41,15.78 1.76,13 1.57,6.94 7.81,9.92l-3.3 -11.89 205.52 -102.29 12.19 47.57c-31.73,14.52 -179.01,82.97 -194.61,98.53 -2.5,5.41 -1.54,14.87 -16.69,19.35l-14.33 -5.96c-2.28,-5.04 9.41,-18.23 4.44,-7.63 -12.98,-14.04 -24.34,-30.23 -17.18,-49.72 4.35,-0.17 11.79,0.21 -1.92,0.73 -16.71,0.63 -0.99,1.34 -6.5,-0.59 -3.3,33.03 16.4,66.65 24.55,96.84 0.16,-0.73 2.21,-11.58 2.25,-12.13l0.21 -18.66c0.04,-1.7 0.22,-2.49 0.84,-3.53 15.52,6.19 0.13,-6.01 12.56,6.94l7.76 13.94c18.51,27.71 -3.81,12.2 13.35,9.18l-16.41 -34.94c35.4,-14.02 70.99,-33.08 103.44,-49.96 25.09,-13.05 80.22,-49.46 108.38,-45.83 -6.15,-13.32 0.66,-11.63 -2.85,-20.62 -0.34,-0.88 -4.69,-9.13 -5.33,-11.26 -0.39,-1.3 -0.67,-2.67 -1.01,-4.07 -0.36,-1.48 -0.48,-2.79 -0.8,-4.32l-7.5 -33.01c-10.19,-43.76 -8.6,-26.71 6.7,-30.97 -4.93,-2.02 -15.3,12.9 -13.07,-23.96 0.56,-9.19 4.49,-18.03 3.18,-30.44 -1.94,-18.29 -7.69,-16.96 1.1,-51.42 -10.73,1.37 -15.1,5.88 -29.59,-3.85 -3.63,1.18 -2.69,0.35 -11.98,4.67 -1.39,0.65 -7.36,3.74 -9.75,4.97 -5.62,2.91 -13.39,7.32 -22.05,11.88l-129.02 63.49z"/>
    <path class="fil5" d="M5927.18 3958.19c86.16,-49.52 -80.98,-139.49 -192.74,-75.6 -14.13,8.07 -39.95,32.01 -28.14,57.19 15.66,33.39 128.28,-40.9 220.88,18.4z"/>
    <path class="fil5" d="M5598.98 2328.37c74.41,-33.67 190.38,-100.67 265.9,-137.29 34.25,-16.59 77.19,-16.37 55.38,-56.18 -50.36,11.34 -254.04,130.41 -279.61,122.99 -20.29,-5.88 -63.39,-60.59 -83.55,-39.29 -3.99,3.87 -8.17,-0.3 4.67,25.12 26.1,51.67 25.14,58.84 37.21,84.65z"/>
    <path class="fil5" d="M5492.81 1413.05l28.28 38.73c22.22,-19.58 225.12,-123.85 276.19,-151.78 27.14,-14.85 28.1,-8.99 39.92,-25.17 -16.34,-8.37 -19.89,-19.8 -43.28,-18.07 -14.94,1.11 -119.32,55.42 -132.7,63.21l-168.41 93.08z"/>
    <path class="fil5" d="M5632.69 1672.69c54.88,-23.66 264.87,-143.18 316.06,-171.96l-9.12 -35.06c-22.49,6.45 -302.96,151.67 -313.79,161.34l6.85 45.68z"/>
    <path class="fil5" d="M5502.2 1525.3l273.55 -140.26c45.83,-22.1 46.19,-30.01 61.12,-79.5l-302.88 155.26c-26.33,18.07 3.77,26.9 -31.78,64.49z"/>
    <path class="fil5" d="M5363.54 1242.54l27.76 31.86c23.7,-9.92 49.13,-25.52 73.95,-38.68 45.59,-24.17 207.57,-100.19 229.5,-119.85 -47.96,-43.04 -52.15,-9.03 -164.03,39.17 -26.34,11.34 -55.79,28.3 -83.74,42.83l-83.43 44.67z"/>
    <path class="fil5" d="M5023.43 1794.19l6.36 21.15 204.16 -99.99 -15.11 -51.89c-28.16,-3.62 -83.28,32.78 -108.38,45.83 -32.45,16.88 -68.05,35.95 -103.44,49.96l16.41 34.94z"/>
    <path class="fil5" d="M5499.63 1554.33l15.75 31.07c31.34,-7.66 54.29,-21.99 82.58,-36.78l158.18 -80.49c24.14,-13.92 59.13,-26.62 79.1,-42.71l-16.88 -22.63c-20.9,4.27 -60.95,26.67 -80.54,37.47 -42.94,23.68 -207.83,107.18 -238.19,114.06z"/>
    <path class="fil5" d="M5848.92 1790.21c29.15,-14.72 54.19,-25.89 80.19,-41.82l81.16 -40.72c-1.84,-5.43 -4.12,-14.39 -5.67,-18.55l-6.38 -12.86c-75.13,43.11 -240,118.81 -299.2,153.97l-17.78 11.58 3.48 30.6 164.2 -82.21z"/>
    <path class="fil5" d="M5150.53 1983.62c23.88,-7.21 70.99,-35.87 98.42,-48.55 33.12,-15.32 64.4,-33.9 97.61,-47.14 -0.79,-1.18 -1.91,-2.62 -2.53,-3.42l-32.74 -40.2 -198.49 99.76c10.45,8.36 25.63,27.63 37.72,39.55z"/>
    <path class="fil5" d="M5123.42 1115.87c8.85,21.71 14.27,54.32 27.11,73.58l11.57 -18.05c13.84,-32.61 5.7,-40.3 30.27,-57.53 18.9,-13.25 52.65,-31.88 74.32,-42.72l158.12 -81.94 -13.33 -26.94c-52.19,27.07 -93.3,48.84 -142.94,76.6 -32.84,18.37 -121.73,58.04 -145.12,76.99z"/>
    <path class="fil5" d="M4994.29 1713.53c0.18,0.75 3.85,17.28 3.93,17.43 8.47,16.45 -4.21,9.18 15.88,14.49 15.6,-15.56 162.87,-84.01 194.61,-98.53l-12.19 -47.57 -205.52 102.29 3.3 11.89z"/>
    <path class="fil5" d="M5578.43 1593.1c15.1,6.92 22.22,13.26 35.76,20.15 32.55,-33.74 242.46,-122.99 297.55,-165.5 -89.49,-9.2 -67.81,10.15 -176.69,62.39 -27.41,13.15 -141.96,69.89 -156.61,82.96z"/>
    <path class="fil5" d="M5225.03 1135.36l22.09 19.76c49.1,-23.77 99.46,-52.18 149.24,-76.03 26.84,-12.85 46.79,-25.1 72.8,-38.96 22.64,-12.07 61.72,-25.11 76.94,-41.17 -31.17,-26.15 -48.7,-6.68 -85.21,8.37l-235.86 128.04z"/>
    <path class="fil5" d="M5829.64 1634.32c13.17,-6.34 23.65,-12.09 38.28,-20.25 7.39,-4.11 11.27,-5.86 18.94,-10.09l16.78 -11.24 -12.62 -23.77c-47.67,28.52 -106.08,55.15 -156.82,82.14 -26.69,14.2 -48.48,27.66 -76.16,40.55l-73.7 42.23 9.51 24.49 235.79 -124.04z"/>
    <path class="fil5" d="M4985.97 1643.8l-1.55 12.36 4.66 30c43.81,-22.16 172.76,-77.5 203.84,-102.6l-4.69 -37.62 -202.26 97.86z"/>
    <path class="fil5" d="M4973.96 1093.64c13.66,9.01 13.14,14.46 22.21,30.5 4.57,8.11 6.03,11.04 10.23,18.77l12.59 18.82c5.98,-8.34 -0.72,6.79 5.83,-10.43 10.65,-28.05 3.42,-66.96 26.09,-81.12 22.58,-14.11 218.32,-104.69 238.95,-122.88 -31.71,-17.11 -53.77,6.71 -81.61,21.61 -40.89,21.87 -189.83,93.01 -221.65,114.47l-12.64 10.26z"/>
    <path class="fil5" d="M5396.98 1393.56c9.37,14.46 2.89,-0.17 9.31,19.37 80.94,-21.39 251.82,-129.28 309.8,-150.47l-11.29 -23.94 -226.47 117.24c-25.46,13.26 -57.92,23.67 -81.35,37.8z"/>
    <path class="fil5" d="M5954.92 1934.9c15.67,-7.25 27.97,-15.21 41.81,-21.93 27.16,-13.17 25.9,-6.85 26.22,-38.53 -29.89,16.59 -286.9,155.19 -318.05,157.57l1.78 32.62 248.24 -129.73z"/>
    <path class="fil5" d="M4992.03 1585.99c-11.24,18.22 -13.44,20.07 -7.55,46.03 30.28,-17.21 67.49,-33.25 101.1,-50.38 35.5,-18.1 69.69,-35.84 103.92,-50.55l-0.1 -38.12c-43.28,16.33 -162.71,89.2 -197.37,93.03z"/>
    <path class="fil5" d="M5389.44 1914.83c-3.65,-3.03 -17.95,-14.76 -26.47,-16.59 -15.34,-3.3 -178.88,85.92 -198.94,93.48 12.05,15.91 18.52,16.21 27.58,25.39l197.83 -102.28z"/>
    <path class="fil5" d="M5377.52 3453.99c37.32,-18.49 85.68,-91.31 84.15,-159.42 -39.45,26.17 -79.66,84.5 -84.15,159.42z"/>
    <path class="fil5" d="M5208.81 2026.85c35.24,14.63 22.78,12.3 56.95,-6.24 18.64,-10.1 35.79,-16.89 55.38,-27.46 76.24,-41.15 86.65,-25.81 91.95,-70.7 -11.22,3.89 -185.87,88.73 -204.28,104.4z"/>
    <path class="fil5" d="M4991.2 1549.01l-4.3 28.02c34.99,-10.95 76.91,-37.41 108.99,-53.05 54.85,-26.73 98.33,-36.11 95.92,-63.65 -28.38,-7.14 -158.62,81.29 -200.62,88.69z"/>
    <path class="fil7" d="M5109.6 1088.55c9.52,11.4 -1.99,8.09 13.63,5.32l203.06 -109.34c21.23,-11.53 55.32,-29.64 71.58,-43.01 -15.53,1.02 -237.04,107.1 -278.51,133.98 -17.61,11.41 -9.35,2.69 -9.77,13.06z"/>
    <path class="fil5" d="M5744 3970.7c28.05,20.49 86.22,20.94 123.1,14.89l30.22 -8.89c6.28,-3.3 5.99,-3.61 9.39,-6.32 -50.44,-10.91 -116.02,-24.47 -162.71,0.32z"/>
    <path class="fil5" d="M4996.89 1534.54l129.02 -63.49c8.66,-4.56 16.43,-8.98 22.05,-11.88 2.39,-1.23 8.36,-4.32 9.75,-4.97 9.3,-4.32 8.35,-3.49 11.98,-4.67 -14.5,-14.6 -18.89,-12.36 -44.15,1.88 -50.4,28.42 -122.62,48.35 -128.65,83.14z"/>
    <path class="fil5" d="M5469.31 2281.99c-7.74,28.08 16.59,77.58 22.66,105.64l38.3 -19.01c-13.5,-27.74 -42.12,-64.38 -60.96,-86.63z"/>
    <path class="fil7" d="M5252.13 2046.7c32.09,5.47 131.09,-37.61 151.15,-79.1l-151.15 79.1z"/>
    <path class="fil5" d="M5390.06 2367.92c-3.26,-13.56 -5.45,-18.91 -12.65,-32 -8.71,-15.87 -3.57,-14.85 -23.01,-20.22l-1.2 65.19 36.85 -12.97z"/>
    <path class="fil7" d="M5013.5 1490.65l111.87 -56.73c-48.81,-3.36 -99.65,31.47 -111.87,56.73z"/>
    <path class="fil6" d="M5466.02 3394.49c-3.77,13.06 -14.45,4.11 27.75,28.05l31.31 18.1c21.11,7.17 4.57,2.16 11.73,-0.83 -0.3,-15.81 -62.5,-46.45 -70.79,-45.32z"/>
    <path class="fil5" d="M4921.3 1200.47l-12.03 -51.1 -22.84 1.86c4.31,14.03 19.7,38.97 34.87,49.25z"/>
    <path class="fil7" d="M5248.78 2291.98c-5.4,-6.81 3.37,-4.9 -15.44,-12.12 -11.5,9.72 -11.29,7.27 -13.35,22.15l28.79 -10.02z"/>
   </g>
   <path class="fil5" d="M4160.89 1933.13c20.47,4.64 23.54,4.52 26.17,-14.01 -10,5.03 -19.01,6.72 -26.17,14.01z"/>
  </g>
 </g>
</svg>
