<?xml version="1.0" encoding="UTF-8"?>
<!DOCTYPE svg PUBLIC "-//W3C//DTD SVG 1.1//EN" "http://www.w3.org/Graphics/SVG/1.1/DTD/svg11.dtd">
<!-- Creator: CorelDRAW -->
<svg xmlns="http://www.w3.org/2000/svg" xml:space="preserve" width="3.70933in" height="2.08319in" version="1.1" style="shape-rendering:geometricPrecision; text-rendering:geometricPrecision; image-rendering:optimizeQuality; fill-rule:evenodd; clip-rule:evenodd"
viewBox="0 0 3709.33 2083.19"
 xmlns:xlink="http://www.w3.org/1999/xlink"
 xmlns:xodm="http://www.corel.com/coreldraw/odm/2003">
 <defs>
  <style type="text/css">
   <![CDATA[
    .fil3 {fill:#FEFEFE}
    .fil13 {fill:#00A859}
    .fil0 {fill:#E6E7E8}
    .fil5 {fill:#00A859;fill-rule:nonzero}
    .fil4 {fill:#00548D;fill-rule:nonzero}
    .fil8 {fill:#DB6800;fill-rule:nonzero}
    .fil6 {fill:#FF7F00;fill-rule:nonzero}
    .fil12 {fill:#FFBD2B;fill-rule:nonzero}
    .fil7 {fill:white;fill-rule:nonzero}
    .fil2 {fill:#373435;fill-opacity:0.031373}
    .fil1 {fill:#373435;fill-opacity:0.101961}
    .fil11 {fill:url(#id0);fill-rule:nonzero}
    .fil10 {fill:url(#id1);fill-rule:nonzero}
    .fil9 {fill:url(#id2);fill-rule:nonzero}
   ]]>
  </style>
  <linearGradient id="id0" gradientUnits="userSpaceOnUse" x1="1971.74" y1="1367.05" x2="1666.92" y2="1374.07">
   <stop offset="0" style="stop-opacity:1; stop-color:#4D1F10"/>
   <stop offset="1" style="stop-opacity:1; stop-color:#A34E15"/>
  </linearGradient>
  <linearGradient id="id1" gradientUnits="userSpaceOnUse" xlink:href="#id0" x1="1969.12" y1="1283.08" x2="1670.78" y2="1289.95">
  </linearGradient>
  <linearGradient id="id2" gradientUnits="userSpaceOnUse" xlink:href="#id0" x1="1979.76" y1="1350.06" x2="1659.85" y2="1357.43">
  </linearGradient>
 </defs>
 <g id="Layer_x0020_1">
  <metadata id="CorelCorpID_0Corel-Layer"/>
  <polygon class="fil0" points="-0,0 3709.33,0 3709.33,2083.19 -0,2083.19 "/>
  <polygon class="fil1" points="-0,1913.71 -0,1879.57 -0,1844.23 -0,1822.53 -0,1169.5 -0,1159.22 -0,1091.3 -0,1081.21 1760.11,196.49 1755.74,198.8 1751.43,201.2 1747.19,203.71 1743.02,206.32 1738.91,209.02 1734.88,211.82 1730.91,214.71 1727.02,217.69 1723.2,220.77 1719.46,223.93 1715.8,227.18 1712.22,230.52 1708.71,233.94 1702.97,239.92 1697.47,246.13 1692.22,252.56 1687.24,259.2 1682.52,266.05 1678.08,273.1 1673.92,280.33 1670.05,287.76 1666.48,295.35 1663.22,303.11 1660.27,311.03 1657.64,319.1 1655.35,327.31 1653.39,335.66 1651.78,344.14 1650.52,352.74 1432.2,460.77 1421.79,468.33 1399.52,485.86 1377.98,504.24 1357.17,523.44 1337.14,543.44 1317.91,564.22 1299.5,585.73 1281.93,607.97 1265.23,630.91 1249.43,654.52 1234.55,678.77 1220.61,703.65 1207.65,729.13 1195.69,755.17 1184.74,781.76 1174.84,808.88 1166.01,836.49 1158.28,864.57 1151.67,893.11 1146.2,922.06 1141.91,951.41 1138.81,981.13 1136.93,1011.2 1136.3,1041.59 1136.35,1050.27 1136.5,1058.92 1136.76,1067.54 1137.11,1076.14 1137.57,1084.71 1138.13,1093.26 1138.78,1101.78 1139.54,1110.26 1140.39,1118.72 1141.34,1127.16 1142.39,1135.56 1143.54,1143.93 1144.78,1152.27 1146.11,1160.58 1147.54,1168.86 1149.07,1177.1 1150.69,1185.31 1152.39,1193.49 1154.2,1201.64 1156.09,1209.74 1158.08,1217.82 1160.16,1225.85 1162.32,1233.85 1164.58,1241.82 1166.93,1249.74 1169.36,1257.63 1171.88,1265.48 1174.49,1273.29 1177.19,1281.06 1179.97,1288.78 1182.83,1296.47 1185.79,1304.11 1099.37,1365.71 1099.37,1404.47 2526.79,787.61 2570.52,810.61 1099.37,1441.93 1099.37,1477.29 1241.84,1416.56 1248.45,1427.13 1255.24,1437.57 1262.2,1447.9 1269.33,1458.09 1276.64,1468.16 1284.11,1478.09 1291.76,1487.89 1299.56,1497.55 1307.53,1507.07 1315.66,1516.45 1323.95,1525.69 1332.39,1534.78 1340.99,1543.73 1349.74,1552.53 1358.64,1561.17 1367.69,1569.67 1376.88,1578 1386.21,1586.18 1395.69,1594.2 1405.31,1602.06 1415.06,1609.75 1424.95,1617.28 1434.98,1624.64 1445.13,1631.83 1455.41,1638.85 1465.82,1645.69 1476.35,1652.35 1487.01,1658.84 1497.79,1665.15 1508.68,1671.27 1519.69,1677.21 1530.82,1682.96 1530.7,1683.64 1530.59,1684.31 1530.48,1684.98 1530.37,1685.66 1530.26,1686.33 1530.15,1687 1530.05,1687.67 1529.94,1688.35 1529.67,1690.14 1529.63,1690.46 1529.53,1691.1 1529.44,1691.73 1529.35,1692.36 1529.26,1693 1529.17,1693.63 1529.09,1694.26 1529,1694.89 1528.92,1695.53 1528.69,1697.32 1528.59,1698.11 1528.51,1698.74 1528.44,1699.37 1528.36,1700 1528.29,1700.63 1528.21,1701.25 1528.14,1701.88 1528.07,1702.51 1528,1703.14 1527.67,1706.42 1527.35,1709.82 1527.03,1713.93 1526.78,1717.57 1526.57,1721.53 1526.44,1724.65 1526.42,1725.22 1526.4,1725.8 1526.38,1726.37 1526.36,1726.94 1526.35,1727.51 1526.33,1728.09 1526.32,1728.66 1526.31,1729.23 1526.26,1731.65 1526.26,1732.37 1526.25,1733.09 1526.24,1733.8 1526.24,1734.52 1526.24,1735.24 1526.24,1735.96 1526.25,1736.67 1526.25,1737.39 1526.26,1738.56 1526.28,1739.33 1526.29,1740.11 1526.3,1740.88 1526.32,1741.65 1526.34,1742.42 1526.36,1743.19 1526.39,1743.96 1526.41,1744.73 1526.47,1746.19 1526.5,1746.98 1526.54,1747.77 1526.57,1748.56 1526.61,1749.35 1526.66,1750.13 1526.7,1750.93 1526.75,1751.71 1526.8,1752.5 1526.86,1753.37 1526.92,1754.22 1526.98,1755.06 1527.04,1755.9 1527.11,1756.74 1527.18,1757.57 1527.25,1758.41 1527.32,1759.26 1527.4,1760.09 1527.46,1760.68 1527.54,1761.54 1527.63,1762.4 1527.72,1763.26 1527.81,1764.12 1527.91,1764.98 1528,1765.84 1528.11,1766.7 1528.21,1767.56 1528.26,1767.95 1528.37,1768.83 1528.49,1769.7 1528.61,1770.58 1528.73,1771.46 1528.85,1772.33 1528.98,1773.21 1529.11,1774.09 1529.24,1774.96 1529.29,1775.25 1529.43,1776.13 1529.57,1777.01 1529.71,1777.89 1529.86,1778.78 1530.02,1779.66 1530.17,1780.54 1530.33,1781.42 1530.49,1782.3 1530.54,1782.58 1530.71,1783.46 1530.88,1784.35 1531.05,1785.22 1531.23,1786.11 1531.41,1786.98 1531.59,1787.87 1531.78,1788.74 1531.97,1789.62 1532,1789.78 1532.07,1790.06 1532.26,1790.94 1532.46,1791.82 1532.66,1792.7 1532.87,1793.57 1533.07,1794.45 1533.29,1795.33 1533.5,1796.21 1533.72,1797.08 1535.67,1804.12 1537.89,1810.88 1540.37,1817.37 1543.1,1823.6 1546.08,1829.57 1549.3,1835.28 1552.73,1840.74 1556.39,1845.95 1560.25,1850.91 1564.31,1855.64 1568.56,1860.13 1572.98,1864.39 1577.58,1868.41 1582.34,1872.22 1587.26,1875.8 1592.31,1879.17 1597.5,1882.32 1602.82,1885.27 1608.25,1888.01 1613.79,1890.55 1619.42,1892.9 1625.15,1895.05 1630.61,1896.9 2181.44,1689.56 2181.43,1689.66 1630.74,1896.94 1630.94,1897.02 1636.82,1898.8 1642.75,1900.4 1648.74,1901.82 1654.76,1903.07 1660.82,1904.16 1666.91,1905.07 1673,1905.83 1679.11,1906.44 1685.21,1906.89 1689.17,1907.09 1694.44,1907.3 1700.93,1907.52 1708.56,1907.72 1717.25,1907.93 1726.91,1908.12 1737.46,1908.3 1748.81,1908.47 1760.88,1908.62 1773.58,1908.76 1786.84,1908.87 1800.56,1908.95 1814.67,1909 1829.08,1909.02 1843.7,1909.01 1858.46,1908.96 1873.26,1908.87 1888.02,1908.73 1902.67,1908.54 1917.11,1908.31 1931.26,1908.02 1945.04,1907.68 1958.36,1907.28 1971.14,1906.81 1983.29,1906.28 1994.74,1905.69 2005.39,1905.02 2015.17,1904.28 2023.98,1903.46 2031.75,1902.56 2038.39,1901.57 2043.81,1900.51 2050.06,1898.95 2056.2,1897.19 2062.26,1895.24 2068.2,1893.1 1546.56,2083.19 1542.65,2083.19 1213.91,2083.19 1135.94,2083.19 1135.71,2083.19 794.46,2083.19 775.83,2083.19 775.1,2083.19 774.67,2083.19 756.27,2083.19 755.53,2083.19 737.36,2083.19 736.64,2083.19 718.81,2083.19 717.83,2083.19 700.59,2083.19 699.14,2083.19 682.53,2083.19 680.39,2083.19 665.02,2083.19 661.48,2083.19 646.66,2083.19 643.86,2083.19 630.25,2083.19 624.54,2083.19 613.84,2083.19 606.57,2083.19 597.44,2083.19 589.07,2083.19 579.72,2083.19 572.02,2083.19 564.64,2083.19 553.38,2083.19 551.64,2083.19 547.65,2083.19 536.48,2083.19 535.77,2083.19 531.83,2083.19 520.11,2083.19 -0,2083.19 -0,1982.13 -0,1945.94 "/>
  <path class="fil2" d="M217.02 1826.17c7,11 11,21 16,32 3,7 5,19 21,19 5,0 11,-2 17,-5 7,-4 11,-9 14,-17l6 -21 15 -8 1 1c-2,8 -2,15 -2,21 0,18 15,24 27,24 7,0 13,-4 13,-10 0,-8 -4,-23 -8,-35 7,-7 14,-14 23,-20l1 1c4,15 6,30 6,40 0,9 -4,21 -8,28 -7,14 -20,25 -36,25 -12,0 -25,-6 -34,-17l0 0c-9,11 -22,20 -43,20l-7 0c-1,14 -4,24 -9,33 -13,25 -50,42 -85.01,42 -49,0 -74.01,-28 -74.01,-66 0,-23 8,-45 19,-60l9 4c-7,14 -12,27 -12,40 0,35 28,52 61,52 31,0 69.01,-20 75.01,-42 -2,-25 -12,-36 -26,-59 4,-8 10,-15 17,-23l1 0 0 0 2 -1 0 0 0 0 0 0 0 0 0 0 0 0 0 0 0 0 0 0 0.01 1.99 0 0.01zm564.05 -133.01c10,6 21,14 30,23 -6,8 -12,15 -21,21 -10,-8 -20,-15 -30,-22 7,-8 14,-15 20,-22l0 0 0 0 0 0 0 0 0 0 0 0 0 0 0 0 0 0 1 0zm5 96.01c-17,0 -30,11 -30,19 0,17 34,23 73.01,22 -5,-20 -23,-42 -43,-42l0 0 0 0 0 0 0 0 0 0 0 0 0 0 0 0 0 0 0 0 0 1 -0.01 0zm-38 93.01c22,0 41,-1 55,-4 16,-4 30,-12 30,-18 0,-2 0,-3 0,-5 -9,1 -19,1 -28,1 -30,0 -52,-7 -61,-23 -2,-4 -4,-9 -4,-15 0,-16 7,-31 19,-42 10,-9 21,-14 33,-14 21,0 37,17 48,43 6,14 11,31 11,51 0,14 -4,25 -12,34 -16,15 -45,21 -90.01,21l-20 0 0 0 -5 0c-11,0 -19,-2 -26,-7l-1 0c0,2 0,5 0,8 0,10 -3,23 -10,33 -20,30 -42,43 -60,43 -19,0 -42,-7 -63,-17l4 -7c7,3 16,5 29,5 34,0 78.01,-33 84.01,-65 -1,-2 -4,-6 -7,-9 -10,-12 -16,-22 -22,-32 5,-10 9,-18 14,-25l2 0c14,30 28,46 57,46l5 0 0 0 21 0 0 -1 0 0 0 0 0 0 -3 -1zm-147.01 31c2,-13 3,-29 3,-43l0 -21c0,-39 -5,-96.01 -9,-133.01 7,-8 17,-17 25,-23l2 1c5,47 6,101.01 6,151.01 0,13 0,26 -2,35 -1,12 -8,21 -22,35l-3 -2 0 0 0 0 0 0 0 0 0 0 0 0 0 0 0 0 0 0zm-151.02 -62.01c1,19 10,33 41,33 20,0 36,-5 55,-14 3,-2 5,-4 5,-5 0,-11 -9,-27 -24,-41 -15,-13 -33,-25 -52,-32 -6,-3 -8,-6 -8,-8 0,-6 7,-16 13,-24l2 0c21,11 43,27 60,44 15,16 25,33 25,51 0,13 -4,26 -11,37 -23,11 -47,20 -70.01,20 -29,0 -48,-13 -48,-45 0,-4 0,-9 1,-16l10 0 0 0 0 0 0 0 0 0 0 0 0 0 0 0 0 0 0 0 0 0 0 0 1 0 0.01 0zm-52 -52l18 29c7,11 13,22 13,41l0 24c0,19 -12,39 -32,60 -15,14 -29,19 -42,19 -19,0 -40,-6 -65,-17l3 -7c8,2 17,4 28,4 36,0 72.01,-26 89.01,-58 2,-4 3,-7 3,-9 0,-4 -2,-8 -4,-11 -9,-17 -19,-33 -30,-47 6,-9 11,-18 18,-27l2 0 0 0 1 0 0 0 0 0 0 0 0 0 0 0 0 0 0 0 0 0 0 0 -2 -1 -0.01 0z"/>
  <path class="fil2" d="M217.02 1826.17c7,11 11,21 16,32 3,7 5,19 21,19 5,0 11,-2 17,-5 7,-4 11,-9 14,-17l6 -21 15 -8 1 1c-2,8 -2,15 -2,21 0,18 15,24 27,24 7,0 13,-4 13,-10 0,-8 -4,-23 -8,-35 7,-7 14,-14 23,-20l1 1c4,15 6,30 6,40 0,9 -4,21 -8,28 -7,14 -20,25 -36,25 -12,0 -25,-6 -34,-17l0 0c-9,11 -22,20 -43,20l-7 0c-1,14 -4,24 -9,33 -13,25 -50,42 -85.01,42 -49,0 -74.01,-28 -74.01,-66 0,-23 8,-45 19,-60l9 4c-7,14 -12,27 -12,40 0,35 28,52 61,52 31,0 69.01,-20 75.01,-42 -2,-25 -12,-36 -26,-59 4,-8 10,-15 17,-23l1 0 0 0 2 -1 0 0 0 0 0 0 0 0 0 0 0 0 0 0 0 0 0 0 0.01 1.99 0 0.01zm564.05 -133.01c10,6 21,14 30,23 -6,8 -12,15 -21,21 -10,-8 -20,-15 -30,-22 7,-8 14,-15 20,-22l0 0 0 0 0 0 0 0 0 0 0 0 0 0 0 0 0 0 1 0zm5 96.01c-17,0 -30,11 -30,19 0,17 34,23 73.01,22 -5,-20 -23,-42 -43,-42l0 0 0 0 0 0 0 0 0 0 0 0 0 0 0 0 0 0 0 0 0 1 -0.01 0zm-38 93.01c22,0 41,-1 55,-4 16,-4 30,-12 30,-18 0,-2 0,-3 0,-5 -9,1 -19,1 -28,1 -30,0 -52,-7 -61,-23 -2,-4 -4,-9 -4,-15 0,-16 7,-31 19,-42 10,-9 21,-14 33,-14 21,0 37,17 48,43 6,14 11,31 11,51 0,14 -4,25 -12,34 -16,15 -45,21 -90.01,21l-20 0 0 0 -5 0c-11,0 -19,-2 -26,-7l-1 0c0,2 0,5 0,8 0,10 -3,23 -10,33 -20,30 -42,43 -60,43 -19,0 -42,-7 -63,-17l4 -7c7,3 16,5 29,5 34,0 78.01,-33 84.01,-65 -1,-2 -4,-6 -7,-9 -10,-12 -16,-22 -22,-32 5,-10 9,-18 14,-25l2 0c14,30 28,46 57,46l5 0 0 0 21 0 0 -1 0 0 0 0 0 0 -3 -1zm-147.01 31c2,-13 3,-29 3,-43l0 -21c0,-39 -5,-96.01 -9,-133.01 7,-8 17,-17 25,-23l2 1c5,47 6,101.01 6,151.01 0,13 0,26 -2,35 -1,12 -8,21 -22,35l-3 -2 0 0 0 0 0 0 0 0 0 0 0 0 0 0 0 0 0 0zm-151.02 -62.01c1,19 10,33 41,33 20,0 36,-5 55,-14 3,-2 5,-4 5,-5 0,-11 -9,-27 -24,-41 -15,-13 -33,-25 -52,-32 -6,-3 -8,-6 -8,-8 0,-6 7,-16 13,-24l2 0c21,11 43,27 60,44 15,16 25,33 25,51 0,13 -4,26 -11,37 -23,11 -47,20 -70.01,20 -29,0 -48,-13 -48,-45 0,-4 0,-9 1,-16l10 0 0 0 0 0 0 0 0 0 0 0 0 0 0 0 0 0 0 0 0 0 0 0 1 0 0.01 0zm-52 -52l18 29c7,11 13,22 13,41l0 24c0,19 -12,39 -32,60 -15,14 -29,19 -42,19 -19,0 -40,-6 -65,-17l3 -7c8,2 17,4 28,4 36,0 72.01,-26 89.01,-58 2,-4 3,-7 3,-9 0,-4 -2,-8 -4,-11 -9,-17 -19,-33 -30,-47 6,-9 11,-18 18,-27l2 0 0 0 1 0 0 0 0 0 0 0 0 0 0 0 0 0 0 0 0 0 0 0 -2 -1 -0.01 0z"/>
  <circle class="fil3" cx="1854.67" cy="1041.59" r="718.37"/>
  <polygon class="fil4" points="2287.39,664.46 2384.7,718.3 2081.58,936.56 1850.92,830.04 1099.37,1365.71 1099.37,1516.99 1880.61,966.24 2081.72,1057.33 2483.3,764.75 2570.52,810.61 2609.96,593.51 "/>
  <polygon class="fil5" points="1843.15,527.64 1843.15,1220.29 1866.3,1220.29 1866.3,527.64 "/>
  <path class="fil6" d="M1697.17 1368.58c89.17,-128.13 229.19,-119.26 310.11,-15.92 51.89,67.69 208.56,256.28 169.69,421.13 -14.44,61.26 -66.07,111.14 -133.15,126.72 -51.11,11.87 -323.64,8.54 -358.6,6.38 -65.04,-4.02 -132.2,-33.31 -151.49,-109.81 -39.19,-155.45 84.35,-330.02 163.45,-428.5z"/>
  <path class="fil7" d="M1954.35 1657.05c0,-38.38 -23.36,-62.04 -78.47,-80.96 -41.56,-14.46 -49.71,-22.79 -49.71,-40.62 0,-17.19 12.52,-27.99 30.91,-27.94 26.57,0.04 33.8,15.13 36.36,30.13 0.33,1.97 2.11,3.41 4.17,3.41l45.76 0c2.48,0 4.42,-2.05 4.23,-4.44 -2.66,-33.52 -24.59,-57.01 -64.61,-63.93l0 -23.44c0,-2.26 -1.9,-4.09 -4.24,-4.09l-36.73 0c-2.34,0 -4.24,1.83 -4.24,4.09l0 22.61c-40.46,5.69 -67.44,30.2 -67.44,70.31 0,38.93 22.44,58.81 79.55,78.95 38.17,13.24 48.58,23.94 48.58,44.46 0,17.78 -9.06,31.14 -36.85,31.14 -22.99,0 -38.85,-11.35 -43.29,-35.18 -0.36,-1.94 -2.13,-3.33 -4.16,-3.33l-45.67 0c-2.51,0 -4.5,2.1 -4.22,4.51 4.62,39.57 30.76,63.75 73.5,69.78l0 30.01c0,2.26 1.9,4.1 4.24,4.1l36.73 0c2.34,0 4.24,-1.83 4.24,-4.1l0 -29.91c43.36,-5.69 71.36,-28.92 71.36,-75.56z"/>
  <path class="fil8" d="M1697.17 1368.58c52.89,-76 123.68,-103.8 189.41,-92.27 -37.91,8.33 -75.01,34.32 -105.07,80.55 -65.18,86.85 -166.97,240.81 -134.54,377.98 15.96,67.5 71.37,93.38 125.02,96.95 28.84,1.93 253.62,4.99 295.77,-5.45 55.32,-13.7 97.87,-57.69 109.74,-111.73 1.82,-8.29 3.11,-16.64 3.93,-25.04 3.06,28.29 2.05,56.6 -4.47,84.23 -14.44,61.26 -66.07,111.14 -133.15,126.72 -51.11,11.87 -323.64,8.54 -358.6,6.38 -65.04,-4.02 -132.2,-33.31 -151.49,-109.81 -39.19,-155.45 84.35,-330.02 163.45,-428.5z"/>
  <path class="fil6" d="M2025.23 1159.46l-95.07 129.13 -142.24 1.23 -80.74 -127.13c-4.67,-6.46 2.07,-14.66 10.37,-12.59l32.81 8.19c27.06,6.75 55.9,-2.93 71.3,-23.93l35.92 -48.96c3.94,-5.38 12.93,-4.93 16.17,0.81l22.37 39.61c13.38,23.69 43.11,36.16 72.04,30.22l47.5 -9.75c8.5,-1.74 14.81,6.94 9.57,13.17z"/>
  <path class="fil8" d="M1717.54 1150.1l32.81 8.19c27.06,6.75 55.9,-2.93 71.3,-23.93l17.97 -24.5 14.24 179.39 -65.94 0.57 -80.74 -127.13c-4.67,-6.46 2.07,-14.66 10.37,-12.59z"/>
  <path class="fil8" d="M1911.12 1281.84l-37.53 7.69 18.89 22.44c13.88,16.5 24.5,34.86 31.46,54.39l31.61 88.8 -2.52 -68.77c-1.39,-37.87 -15.98,-74.28 -41.9,-104.55z"/>
  <path class="fil8" d="M1968.15 1156.04l-57.04 125.8c0,0 -37.65,9.76 -37.53,7.69 0.11,-2.08 22.2,-164.28 22.2,-164.28l6.61 9.75c14.18,15.59 33.5,23.52 56.47,22.38l9.28 -1.34z"/>
  <path class="fil9" d="M1893.9 1420.21l0 0c1.25,-2.56 -0.01,-5.51 -2.81,-6.75 -52.42,-23.07 -77.43,-76.88 -57.63,-123.93 1.08,-2.57 -0.31,-5.45 -3.13,-6.54 -3.06,-1.19 -6.59,0.17 -7.77,2.96 -21.85,52.01 5.66,111.41 63.41,136.82 2.98,1.31 6.59,0.16 7.93,-2.56z"/>
  <path class="fil10" d="M1787.08 1296.28l147.96 -10.83c3.26,-0.24 5.7,-2.8 5.43,-5.72 -0.27,-2.92 -3.13,-5.09 -6.4,-4.85l-147.96 10.83c-3.27,0.24 -5.7,2.8 -5.43,5.72 0.27,2.92 3.13,5.09 6.4,4.85z"/>
  <path class="fil11" d="M1783.3 1289.04l150.13 -1.3c3.28,-0.03 5.96,2.32 5.99,5.25 0.03,2.93 -2.59,5.32 -5.87,5.35l-103.07 0.89c0,0 0,0 -0,0 -38.75,40.91 -35.19,102.96 8.2,142.93 2.32,2.13 2.4,5.5 0.12,7.67l0 0c-2.43,2.31 -6.52,2.31 -8.99,0.04 -45.34,-41.74 -51.09,-105.45 -15.08,-150.51l-31.31 0.27c-3.28,0.03 -5.96,-2.32 -5.99,-5.25 -0.03,-2.93 2.6,-5.32 5.87,-5.35z"/>
  <path class="fil12" d="M2039.69 378.23c0,103.1 -83.58,186.69 -186.69,186.69 -103.1,0 -186.69,-83.58 -186.69,-186.69 0,-103.11 83.58,-186.69 186.69,-186.69 103.11,0 186.69,83.58 186.69,186.69z"/>
  <path class="fil6" d="M2057.07 378.23c0,56.35 -22.85,107.37 -59.78,144.3 -36.93,36.93 -87.94,59.78 -144.3,59.78 -56.34,0 -107.36,-22.85 -144.29,-59.78 -36.93,-36.93 -59.78,-87.95 -59.78,-144.3 0,-56.34 22.85,-107.37 59.78,-144.3 36.93,-36.93 87.94,-59.77 144.29,-59.77 56.35,0 107.37,22.85 144.3,59.77 36.93,36.93 59.78,87.94 59.78,144.3zm-84.35 119.72c30.64,-30.63 49.59,-72.97 49.59,-119.72 0,-46.76 -18.95,-89.09 -49.59,-119.72 -30.63,-30.63 -72.96,-49.58 -119.72,-49.58 -46.75,0 -89.08,18.95 -119.72,49.58 -30.63,30.64 -49.59,72.97 -49.59,119.72 0,46.76 18.95,89.09 49.59,119.72 30.63,30.63 72.96,49.59 119.72,49.59 46.76,0 89.09,-18.95 119.72,-49.59z"/>
  <path class="fil7" d="M1937.06 423.47c0,-33.94 -20.66,-54.86 -69.39,-71.59 -36.75,-12.78 -43.96,-20.15 -43.96,-35.93 0,-15.2 11.07,-24.75 27.34,-24.71 23.5,0.04 29.89,13.38 32.15,26.65 0.3,1.74 1.87,3.02 3.69,3.02l40.46 0c2.19,0 3.91,-1.81 3.74,-3.92 -2.35,-29.65 -21.74,-50.42 -57.14,-56.53l0 -20.73c0,-2 -1.68,-3.62 -3.75,-3.62l-32.48 0c-2.07,0 -3.74,1.62 -3.74,3.62l0 19.99c-35.79,5.04 -59.64,26.71 -59.64,62.18 0,34.43 19.85,52.01 70.34,69.81 33.76,11.71 42.96,21.17 42.96,39.31 0,15.72 -8.01,27.53 -32.59,27.53 -20.33,0 -34.36,-10.04 -38.28,-31.11 -0.32,-1.71 -1.88,-2.94 -3.68,-2.94l-40.38 0c-2.22,0 -3.98,1.86 -3.72,3.99 4.09,35 27.2,56.38 65,61.71l0 26.54c0,2 1.68,3.62 3.74,3.62l32.48 0c2.07,0 3.75,-1.62 3.75,-3.62l0 -26.46c38.35,-5.03 63.1,-25.57 63.1,-66.81z"/>
  <ellipse class="fil13" transform="matrix(0.55538 0.831597 -0.831597 0.55538 1973.02 668.232)" rx="56.2" ry="137.74"/>
  <ellipse class="fil13" transform="matrix(0.55538 0.831597 -0.831597 0.55538 1973.02 950.181)" rx="56.2" ry="137.74"/>
  <ellipse class="fil13" transform="matrix(-0.55538 0.831597 0.831597 0.55538 1734.19 789.098)" rx="56.2" ry="137.74"/>
 </g>
</svg>
