<?xml version="1.0" encoding="UTF-8"?>
<!DOCTYPE svg PUBLIC "-//W3C//DTD SVG 1.1//EN" "http://www.w3.org/Graphics/SVG/1.1/DTD/svg11.dtd">
<!-- Creator: CorelDRAW 2020 (64-Bit) -->
<svg xmlns="http://www.w3.org/2000/svg" xml:space="preserve" width="94.1916mm" height="52.9166mm" version="1.1" style="shape-rendering:geometricPrecision; text-rendering:geometricPrecision; image-rendering:optimizeQuality; fill-rule:evenodd; clip-rule:evenodd"
viewBox="0 0 9404.92 5283.66"
 xmlns:xlink="http://www.w3.org/1999/xlink"
 xmlns:xodm="http://www.corel.com/coreldraw/odm/2003">
 <defs>
  <style type="text/css">
   <![CDATA[
    .fil3 {fill:#00A0E3}
    .fil0 {fill:#E6E7E8}
    .fil10 {fill:#FEFEFE;fill-rule:nonzero}
    .fil6 {fill:#FEFEFE;fill-rule:nonzero}
    .fil7 {fill:#9FD6E2;fill-rule:nonzero}
    .fil11 {fill:#827E7D;fill-rule:nonzero}
    .fil12 {fill:#2E597E;fill-rule:nonzero}
    .fil4 {fill:#243344;fill-rule:nonzero}
    .fil8 {fill:#273E5F;fill-rule:nonzero}
    .fil5 {fill:#263D5C;fill-rule:nonzero}
    .fil9 {fill:#26374F;fill-rule:nonzero}
    .fil2 {fill:#373435;fill-opacity:0.031373}
    .fil1 {fill:#2B2A29;fill-opacity:0.101961}
   ]]>
  </style>
 </defs>
 <g id="Layer_x0020_1">
  <metadata id="CorelCorpID_0Corel-Layer"/>
  <polygon class="fil0" points="-0,0 9404.92,0 9404.92,5283.66 -0,5283.66 "/>
  <polygon class="fil1" points="-0,5098.54 -0,5085.57 -0,5079.3 -0,5068.27 -0,5058.53 -0,5046.32 -0,5037.04 -0,5036.38 -0,5035.02 -0,5017.02 -0,5010.93 -0,5006.79 -0,5006.78 -0,4997.06 -0,4986.04 -0,4979.69 -0,4976.32 -0,4973.99 -0,4907.22 -0,4864.28 -0,4863.27 -0,4849.34 -0,4849.11 -0,4731.14 -0,4655.95 -0,4645.96 -0,4644.38 -0,4634.34 -0,4497.05 -0,4466.62 -0,4424.72 -0,4277.37 -0,3938.03 -0,3925.15 -0,3900.76 -0,3888.86 -0,3867.88 -0,3861.98 -0,3849.31 -0,3834.44 -0,3826.22 -0,3822.07 -0,3813.34 -0,3787.54 -0,3720.47 -0,3701.4 -0,3689.05 -0,3674.16 -0,3613.68 -0,3608.15 -0,3607.19 -0,3525.11 -0,3511.71 -0,3511.14 -0,3506.92 -0,3505.35 -0,3500.51 -0,3470.44 -0,3467.22 -0,3456.79 -0,3455.09 -0,3441.21 -0,3438.54 -0,3427.62 -0,3427.53 -0,3427.23 -0,3417.17 -0,3416.33 -0,3400.77 -0,3397.58 -0,3396.29 -0,3378.34 -0,3376.6 -0,3365.02 -0,3358.72 -0,3352.85 -0,3350.88 -0,3345.47 -0,3338.67 -0,3337.46 -0,3328.68 -0,3328.65 -0,3328.07 -0,3325.29 -0,3319.15 -0,3310.01 -0,3308.18 -0,3305.42 -0,3300.79 -0,3299.99 -0,3294.98 -0,3294.09 -0,3292.32 -0,3270.28 -0,3266.98 -0,3262.9 -0,3260.17 -0,3255.71 -0,3253.8 -0,3251.65 -0,3251.16 -0,3237.46 -0,3237.22 -0,3234.11 -0,3228.25 -0,3223.6 -0,3200.25 -0,3185.98 -0,3184.47 -0,3180.9 -0,3180.82 -0,3180.52 -0,3179.84 -0,3178 -0,3175.87 -0,3175.86 -0,3173.48 -0,3167.85 -0,3165.92 -0,3164.05 -0,3154.12 -0,3153.07 -0,3153 -0,3152.48 -0,3152.43 -0,3151.91 -0,3148.89 -0,3146.68 -0,3144.19 -0,3142.26 -0,3136.06 -0,3134.18 -0,3129.9 -0,3128.32 -0,3126.85 -0,3125.49 -0,3124.98 -0,3124.26 -0,3122.5 -0,3115.13 -0,3111.99 -0,3110.13 -0,3109.81 -0,3109.69 -0,3108.92 -0,3105.19 -0,3100.78 -0,3100.37 -0,3096.54 -0,3094.86 -0,3080.4 -0,3079.79 -0,3077.09 -0,3074.98 -0,3073.98 -0,3073.08 -0,3071.7 -0,3066.97 -0,3066.05 -0,3061.93 -0,3058.92 -0,3053.35 -0,3052.31 -0,3026.36 -0,3024.48 -0,3023.74 -0,3013.45 -0,3009.57 -0,3007.31 -0,3006.42 -0,2989.31 -0,2986.01 -0,2968.21 -0,2967.93 -0,2966.72 -0,2961.16 -0,2958.89 -0,2946.43 -0,2938.32 -0,2936.33 -0,2920.42 -0,2911.79 -0,2896.83 -0,2889.22 -0,2883.39 -0,2881.67 -0,2881.19 -0,2880.77 -0,2877.11 -0,2874.66 -0,2873.85 -0,2872.72 -0,2852.51 -0,2842.08 -0,2839.42 -0,2838.85 -0,2838.68 -0,2831.99 -0,2828.54 -0,2826.49 -0,2820.2 -0,2818.19 -0,2811.6 -0,2809.28 -0,2806.21 -0,2804.25 -0,2804.15 -0,2803.56 -0,2801.88 -0,2790.6 -0,2790.08 -0,2788.55 -0,2786.48 -0,2782.44 -0,2781.39 -0,2780.05 -0,2779.01 -0,2769.2 -0,2766.67 -0,2764.32 -0,2759.62 -0,2754.31 -0,2750.67 -0,2748.9 -0,2744.6 -0,2743.36 -0,2736.68 -0,2735.69 -0,2729.32 -0,2715.81 -0,2713.72 -0,2703.51 -0,2701.41 -0,2698.36 -0,2676.21 -0,2674.08 -0,2661.36 -0,2659.58 -0,2654.59 -0,2649.85 -0,2641.69 -0,2638.85 -0,2630.77 -0,2599.17 -0,2592.28 -0,2590.4 -0,2590.22 -0,2232.69 3948.96,617.55 3863.21,656.31 3779.75,699.05 3698.68,745.67 3620.14,796.01 3544.24,849.99 3471.11,907.46 3400.87,968.3 3333.64,1032.4 3269.55,1099.63 3208.7,1169.87 3151.24,1243 3097.26,1318.89 3053.46,1387.23 4386.41,862.07 4400.04,856.92 4404.05,855.45 4408.1,854.03 4412.17,852.64 4416.27,851.28 4420.41,849.96 4424.58,848.67 4428.79,847.4 4433.02,846.15 4442.86,843.38 4452.87,840.78 4463.04,838.34 4473.37,836.05 4483.86,833.95 4494.52,832 4505.33,830.23 4516.3,828.64 4527.44,827.22 4538.74,825.97 4550.2,824.91 4561.83,824.03 4573.62,823.34 4585.57,822.83 4597.69,822.52 4609.97,822.4 4634.58,822.4 4638.68,822.41 4642.77,822.42 4646.87,822.44 4651,822.47 4655.12,822.51 4659.26,822.55 4663.41,822.59 4667.56,822.63 4681.84,822.8 4696.15,823.04 4710.47,823.35 4724.81,823.74 4739.15,824.21 4753.47,824.78 4767.79,825.45 4782.09,826.23 4796.36,827.12 4810.59,828.14 4824.77,829.28 4838.88,830.57 4852.94,832 4866.93,833.59 4880.83,835.34 4894.65,837.24 4898.8,837.83 4902.95,838.44 4907.09,839.07 4911.21,839.72 4915.33,840.39 4919.43,841.08 4923.54,841.8 4927.62,842.52 4937.48,844.35 4947.28,846.3 4957.01,848.37 4966.67,850.53 4976.26,852.83 4985.76,855.25 4995.2,857.78 5004.55,860.44 5008.75,861.66 5012.92,862.89 5017.07,864.17 5021.21,865.47 5025.32,866.81 5029.42,868.17 5033.48,869.56 5037.53,870.99 5060.71,879.78 5083.17,889.55 5104.87,900.38 5125.74,912.3 5145.73,925.36 5164.78,939.63 5182.83,955.15 5199.85,971.98 5215.75,990.16 5230.49,1009.76 5244.02,1030.81 5256.27,1053.39 5267.2,1077.52 5276.73,1103.27 5284.83,1130.7 5291.43,1159.84 5291.92,1162.2 5292.38,1164.59 5292.83,1166.97 5293.26,1169.38 5293.68,1171.8 5294.08,1174.22 5294.46,1176.65 5294.84,1179.08 5295.09,1180.73 5295.35,1182.4 5295.62,1184.08 5295.89,1185.77 5296.15,1187.5 5296.42,1189.24 5296.68,1191.02 5296.93,1192.81 5298.25,1202.29 5299.57,1212.21 5300.85,1222.58 5302.11,1233.34 5303.3,1244.5 5304.43,1256.01 5305.46,1267.84 5306.38,1279.98 5306.63,1284.03 5306.87,1288.1 5307.11,1292.18 5307.33,1296.3 5307.53,1300.43 5307.72,1304.58 5307.89,1308.76 5308.03,1312.95 5308.41,1324.63 5308.65,1336.46 5308.74,1348.39 5308.67,1360.43 5308.44,1372.55 5308.02,1384.73 5307.41,1396.96 5306.61,1409.2 5305.59,1421.44 5304.34,1433.66 5302.86,1445.85 5301.13,1457.97 5299.16,1470.01 5296.91,1481.96 5294.39,1493.78 5291.59,1505.46 5288.48,1516.99 5285.07,1528.34 5281.33,1539.48 5277.27,1550.4 5272.87,1561.1 5268.11,1571.52 5262.99,1581.67 5257.5,1591.51 5251.63,1601.04 5245.37,1610.22 5238.69,1619.05 5231.61,1627.5 5224.09,1635.54 5216.14,1643.17 5207.75,1650.36 5198.89,1657.09 5195.06,1659.77 5191.14,1662.34 5187.14,1664.83 5183.06,1667.23 5178.9,1669.53 5174.65,1671.74 5170.76,1673.64 5170.45,1682.49 5169.9,1696.45 5169.29,1710.4 5168.6,1724.35 5167.8,1738.27 5166.89,1752.17 5165.84,1766.05 5164.63,1779.9 5163.26,1793.7 5162.28,1802.03 5161.09,1810.28 5159.67,1818.43 5158.01,1826.46 5156.08,1834.39 5153.88,1842.2 5151.37,1849.86 5148.55,1857.39 5145.38,1864.75 5141.86,1871.95 5137.96,1878.98 5133.67,1885.81 5128.96,1892.45 5123.82,1898.89 5118.23,1905.11 5112.17,1911.1 5105.03,1917.36 5097.57,1923.16 5089.84,1928.58 5081.9,1933.68 5073.76,1938.52 5065.5,1943.17 5057.15,1947.68 5048.76,1952.13 5040.37,1956.59 5032.03,1961.1 5023.79,1965.74 5015.69,1970.58 5007.77,1975.67 5000.08,1981.08 4999.28,1981.71 4999.4,1994.94 4999.65,2013.25 4999.97,2031.57 5000.37,2049.89 5000.84,2068.2 5001.38,2086.51 5002,2104.82 5002.7,2123.14 5003.47,2141.45 5004.3,2159.76 5005.22,2178.07 5006.21,2196.37 5007.28,2214.69 5008.42,2232.99 5007.12,2242.27 5002.57,2248.89 4995.79,2252.84 4024.94,2580.32 4020.28,2590.62 4013.89,2606.4 4008.18,2622.38 4003.15,2638.52 3998.81,2654.77 3995.18,2671.14 3992.27,2687.57 3990.08,2704.04 3988.64,2720.52 3987.95,2736.97 3988.03,2753.37 3988.89,2769.7 3990.54,2785.9 3992.98,2801.96 3996.26,2817.84 4000.35,2833.53 4005.29,2848.98 4011.07,2864.16 4017.71,2879.05 4025.24,2893.61 4033.64,2907.82 4042.95,2921.64 4053.17,2935.04 4064.32,2947.99 4076.4,2960.47 4085.16,2968.69 4094.2,2976.57 4103.53,2984.13 4113.11,2991.38 4122.96,2998.31 4133.04,3004.95 4143.36,3011.29 4153.9,3017.36 4164.64,3023.15 4175.6,3028.68 4186.74,3033.96 4198.05,3038.99 4209.55,3043.78 4221.19,3048.35 4232.98,3052.7 4244.9,3056.84 4256.96,3060.79 4269.13,3064.53 4281.4,3068.1 4293.76,3071.49 4306.2,3074.73 4318.71,3077.8 4331.28,3080.73 4343.91,3083.51 4356.57,3086.18 4369.27,3088.72 4381.97,3091.16 4394.68,3093.49 4407.39,3095.72 4420.08,3097.88 4432.75,3099.97 4445.38,3101.98 4461.02,3104.42 4476.68,3106.81 4492.37,3109.13 4508.08,3111.4 4523.8,3113.6 4539.55,3115.7 4555.3,3117.74 4571.08,3119.69 4586.87,3121.52 4602.66,3123.27 4618.48,3124.91 4634.29,3126.44 4650.12,3127.83 4665.96,3129.11 4681.79,3130.26 4697.63,3131.26 4713.47,3132.13 4729.32,3132.83 4745.16,3133.39 4761,3133.78 4776.83,3133.99 4792.66,3134.04 4808.48,3133.9 4824.3,3133.57 4840.09,3133.04 4855.89,3132.32 4871.66,3131.39 4887.43,3130.24 4903.18,3128.88 4918.9,3127.3 4934.62,3125.48 4950.31,3123.42 4965.97,3121.1 4981.62,3118.53 4997.22,3115.67 5012.79,3112.54 5028.29,3109.13 5043.71,3105.46 5059.06,3101.5 5074.32,3097.27 5089.46,3092.76 3538.58,3569.1 3537.37,3570.86 3529.04,3583.03 3520.71,3595.15 3512.39,3607.23 3504.08,3619.26 3495.77,3631.24 3487.47,3643.16 3479.18,3655.03 3470.91,3666.83 3462.64,3678.55 3478.33,3685.76 3494.18,3692.62 3510.23,3699.21 3526.48,3705.61 3542.98,3711.88 3559.74,3718.12 3576.8,3724.39 3594.2,3730.78 3611.95,3737.37 3630.09,3744.23 3648.64,3751.44 3658.11,3755.25 5404.01,3233.19 5415.81,3230.08 5428.07,3232.36 5439.67,3241.14 5449.68,3253.17 5459.28,3265.95 5468.45,3279.4 5477.2,3293.49 5485.51,3308.2 5493.36,3323.47 5500.77,3339.27 5507.71,3355.56 5514.17,3372.28 5520.15,3389.42 5525.64,3406.92 5530.63,3424.76 5535.1,3442.86 5539.04,3461.21 5542.47,3479.77 5545.34,3498.49 5546.44,3506.96 5547.43,3515.44 5548.32,3523.93 5549.09,3532.44 5549.75,3540.95 5550.3,3549.46 5550.73,3557.96 5551.04,3566.46 5551.26,3578.88 5551.23,3591.26 5550.95,3603.61 5550.42,3615.91 5549.63,3628.15 5548.57,3640.31 5547.26,3652.4 5545.68,3664.4 5544.38,3672.92 5542.93,3681.39 5541.35,3689.8 5539.62,3698.16 5537.76,3706.46 5535.76,3714.69 5533.61,3722.83 5531.34,3730.9 5528.76,3739.31 5526.01,3747.62 5523.11,3755.81 5520.03,3763.9 5516.79,3771.88 5513.37,3779.73 5509.8,3787.47 5506.04,3795.06 5502.12,3802.53 5498.02,3809.86 5493.75,3817.05 5489.3,3824.09 5484.68,3830.98 5479.87,3837.71 5474.9,3844.28 5469.74,3850.68 5464.05,3857.37 5458.14,3863.84 5452.04,3870.09 5445.72,3876.11 5439.18,3881.91 5432.43,3887.49 5425.46,3892.84 5418.27,3897.95 5411.67,3902.31 5404.9,3906.48 5397.96,3910.44 5390.84,3914.2 5383.55,3917.75 5376.08,3921.07 5368.43,3924.19 5360.61,3927.07 5352.61,3929.74 5344.42,3932.17 5292.65,3946.44 5290.7,3950.24 5281.48,3966.28 5271.52,3981.81 5260.85,3996.82 5249.48,4011.29 5237.44,4025.18 5224.77,4038.48 5211.47,4051.16 5197.57,4063.19 5183.11,4074.56 5168.1,4085.24 5152.57,4095.19 5136.53,4104.42 5131.31,4107.09 5142.41,4286.18 5186.25,4276.07 5142.51,4287.67 5155.11,4490.76 5199.21,4490.76 5212.7,4818.25 5344.64,4818.25 3446.75,5283.66 3323.41,5283.66 3037.93,5283.66 2716.42,5283.66 2123.03,5283.66 2121.11,5283.66 1977.32,5283.66 1891.08,5283.66 1879.93,5283.66 1734.22,5283.66 1388.03,5283.66 1049.74,5283.66 829.03,5283.66 788.56,5283.66 719.8,5283.66 645.73,5283.66 576.26,5283.66 554.74,5283.66 478.72,5283.66 441.37,5283.66 399.73,5283.66 387,5283.66 323.96,5283.66 310.98,5283.66 301.13,5283.66 298.47,5283.66 232.58,5283.66 221.44,5283.66 203.79,5283.66 112.14,5283.66 100.95,5283.66 0.62,5283.66 -0,5283.66 -0,5280.79 -0,5277.05 -0,5269.33 -0,5258.35 -0,5233.17 -0,5207.04 -0,5154.98 -0,5152.43 -0,5126.65 -0,5121.84 -0,5117.14 -0,5109.86 "/>
  <path class="fil2" d="M538.55 4627.69c17.95,27.21 29.6,53.36 40.96,82.43 8.45,16.91 12.93,48.09 52.57,48.09 11.61,0 28.28,-3.42 43.06,-11.61 16.63,-8.73 29.32,-21.94 35.94,-42l15.85 -53.36 38.57 -19.02 2.64 2.64c-5.27,20.09 -6.59,39.36 -6.59,54.43 0,44.63 38.57,61.56 69.22,61.56 17.95,0 34.09,-8.73 34.09,-25.11 0,-21.13 -8.98,-57.06 -20.62,-89.29 17.95,-17.95 35.94,-35.94 56.53,-50.47l3.17 1.6c8.98,38.04 14,75.56 14,100.66 0,24.57 -10.83,51.79 -19.81,69.49 -18.49,34.87 -51.25,62.62 -90.87,62.62 -30.1,0 -63.65,-15.07 -86.66,-43.06l-1.32 0c-21.66,26.96 -55.22,51.25 -108.86,51.25l-16.63 0c-2.64,35.41 -10.29,60.49 -21.94,82.95 -31.95,62.34 -126.81,106.47 -216.1,106.47 -124.17,0 -186.51,-71.59 -186.51,-166.96 0,-58.91 19.27,-113.6 48.88,-152.42l24.29 10.04c-18.49,35.41 -30.91,68.68 -30.91,101.45 0,89.29 72.66,131.83 156.4,131.83 77.68,0 173.83,-49.41 191.28,-106.72 -6.59,-62.62 -30.1,-91.93 -66.04,-148.99 10.83,-19.02 24.83,-38.04 42.28,-58.38l3.17 0 0 0 0 0 -0.02 -0.09zm1432.13 -336.04c26.15,16.39 51.79,35.66 76.87,57.85 -14,19.81 -31.45,37.79 -53.11,53.64 -25.11,-20.34 -50.19,-37.79 -75.84,-56.27 17.42,-19.55 34.62,-38.29 52.04,-55.22l0 0 0 0 0 0 0 0 0 0 0.03 0zm13.47 244.11c-42.28,0 -76.87,27.75 -76.87,48.34 0,44.13 84.53,57.85 185.72,57.31 -12.68,-51.79 -57.06,-105.68 -108.86,-105.68l0.01 0.03zm-94.86 236.19c54.96,0 103.04,-1.6 139.74,-10.83 40.96,-10.29 75.56,-30.91 75.56,-45.17 0,-3.7 0,-8.19 -1.32,-11.89 -22.98,2.11 -49.41,2.11 -72.38,2.11 -74.49,0 -131.55,-16.91 -154.02,-58.66 -5.55,-11.61 -9.51,-24.57 -9.51,-39.36 0,-40.43 17.42,-79.79 48.09,-107 25.61,-22.45 53.89,-36.44 82.67,-36.44 52.04,0 93.51,41.75 122.57,107.54 15.85,35.94 26.68,77.4 26.68,129.72 0,34.87 -9.51,64.19 -31.17,85.85 -40.43,39.11 -114.92,53.89 -229.04,53.89l-51.79 0 0 0 -13.47 0c-28.28,0 -48.62,-5.02 -64.72,-17.42l-2.64 0c0.79,6.59 1.32,12.93 1.32,19.02 0,25.61 -8.45,58.38 -25.61,84.53 -50.72,75.3 -105.68,108.04 -153.24,108.04 -48.09,0 -107,-18.49 -160.11,-42.54l9.51 -18.49c17.17,7.13 40.96,11.89 73.7,11.89 85.85,0 198.66,-82.43 212.66,-163 -3.17,-6.59 -8.98,-15.32 -17.17,-24.57 -25.11,-29.85 -40.96,-54.68 -55.75,-80.83 12.68,-25.11 24.29,-45.17 35.13,-63.4l4.49 -0.53c36.72,74.77 69.99,117.55 144.23,117.55l11.61 0 0 0 53.89 0 0 0 0 0 0 0 0 0 0 0 0.09 0.01zm-371.98 79c6.34,-34.34 6.87,-72.91 6.87,-108.86l0 -53.36c0,-99.6 -12.68,-244.36 -22.98,-338.68 17.95,-19.27 43.06,-42 62.87,-57.31l5.81 1.6c13.47,118.62 16.63,256 16.63,383.06 0,33.3 -1.32,65.79 -4.49,89.55 -1.85,30.1 -19.27,52.83 -56.53,87.7l-8.19 -3.7zm-382.8 -157.19c1.85,46.77 24.83,83.49 105.15,83.49 49.93,0 92.19,-12.93 138.96,-35.13 8.45,-3.7 12.93,-8.73 12.93,-12.93 0,-29.32 -22.45,-68.15 -60.23,-103.55 -36.72,-33.3 -85.34,-62.62 -130.76,-82.18 -15.6,-6.59 -20.62,-13.47 -20.62,-20.09 0,-13.47 17.95,-41.75 32.77,-62.09l5.02 -0.53c52.04,27.21 110.17,67.64 153.24,112.53 39.11,41.47 63.4,83.49 63.4,129.19 0,33.81 -10.29,65.51 -26.96,95.11 -57.06,28.79 -117.83,50.72 -178.06,50.72 -73.17,0 -123.1,-34.34 -123.1,-114.92 0,-8.73 0,-22.19 3.17,-39.64l25.11 0 0 0 0 0 0 0 0 0 0 0 -0.02 0zm-132.37 -132.9l45.45 73.45c16.63,27.21 32.23,56.81 32.23,103.55l0 59.7c0,48.34 -30.91,100.13 -80.83,151.38 -39.11,34.62 -73.7,49.41 -105.68,49.41 -47.55,0 -101.98,-14.79 -164.85,-41.75l7.13 -18.49c19.81,5.27 42.79,9.77 71.06,9.77 90.36,-0.53 182.8,-66.57 225.08,-147.15 5.02,-9.26 6.87,-17.95 6.87,-24.04 0,-9.26 -5.02,-19.55 -8.98,-28.79 -22.98,-43.31 -48.62,-82.95 -76.87,-119.68 14.79,-23.25 29.6,-45.7 45.7,-67.9l3.7 0.53 0 0 0 0 0 0 0 0 0 0 -0.02 0.01z"/>
  <g id="_2287099934464">
   <circle class="fil3" cx="4702.46" cy="2401.22" r="1935.8"/>
   <g>
    <path class="fil4" d="M4599.6 1777.39c-75.7,-27.94 -159.43,-11.09 -235.3,-36.68 -105.99,-35.76 -111.38,-154.45 -111.48,-248.9 -0.03,-28.3 -43.99,-28.34 -43.97,0 0.09,74.07 2.28,156.78 45.88,220.15 38.38,55.77 100,76.6 164.74,84.16 94.35,11.03 188.42,3.73 251.09,89.08 64.18,87.39 59,201.94 54.93,304.8 -1.11,28.3 42.86,28.26 43.97,0 5.92,-149.86 -2.46,-350.8 -169.85,-412.6z"/>
    <path class="fil4" d="M5174.42 1571.05c1.34,-28.22 -42.5,-31.6 -43.84,-3.29 -3.36,71.21 -4.52,142.94 -10.48,213.98 -7.05,83.91 -52.16,108.21 -117.54,146.56 -34.84,20.43 -67.14,44.49 -83.07,83.05 -24.38,58.95 -19.31,133.09 -15.98,195.17 1.49,27.86 45.35,31.49 43.84,3.27 -3.58,-66.7 -14.63,-167.04 38.24,-216.67 36.86,-34.62 89.41,-47.34 126.59,-82.03 33.6,-31.33 46.37,-72.77 51.09,-117.39 7.79,-73.57 7.66,-148.77 11.15,-222.65z"/>
    <path class="fil5" d="M5008.86 1647.02c1.86,-28.25 -42.12,-28.12 -43.96,0 -12.86,195.23 -13,390.72 -0.45,585.97 1.82,28.1 45.79,28.31 43.97,0 -12.56,-195.25 -12.41,-390.74 0.44,-585.97z"/>
    <path class="fil5" d="M4671.28 2079.21c-1.46,-34.03 2.18,-75.15 -12.41,-107.21 -19.93,-43.77 -67.59,-57.08 -112.04,-59.56 -40,-2.25 -95.42,11.6 -127.65,-19.56 -29.35,-28.39 -24.81,-85.74 -26.59,-122.84 -4.34,-91.25 -4.85,-182.55 -2.24,-273.86 0.79,-28.31 -43.17,-28.29 -43.97,0 -2.61,91.29 -2.16,182.61 2.25,273.86 2.63,54.22 0.22,120.44 45.56,158.79 45.88,38.81 105.56,22.57 160,27.93 29.3,2.89 56.92,10.75 68.05,43.06 6.89,20.03 3.72,47.74 4.65,69.24 2.03,47.38 4.05,94.77 6.09,142.13 1.2,28.18 45.17,28.34 43.95,0 -1.88,-43.99 -3.77,-87.99 -5.65,-131.98z"/>
    <path class="fil5" d="M4865.22 1906.2c-0.88,-56.9 -0.26,-121.41 -51.74,-157.93 -42.81,-30.35 -98.12,-26.02 -147.69,-32.1 -120.54,-14.78 -118.61,-120.2 -98.81,-216.91 5.65,-27.61 -36.72,-39.43 -42.4,-11.69 -25.26,123.41 -13.83,252.85 134.05,271.67 32.52,4.15 68.62,1.72 100.13,11.79 57.37,18.29 61.45,71.09 62.35,124.31 1.66,97.78 2.71,195.56 4.07,293.35 0.39,28.27 44.36,28.35 43.96,0 -1.31,-94.16 -2.46,-188.32 -3.92,-282.48z"/>
    <path class="fil6" d="M5198.89 1657.09c-10.11,7.25 -21.11,13.52 -32.98,18.79 -16.59,7.47 -34.95,12.97 -55.39,16.05 -2.43,0.33 -4.74,0.78 -7.05,1 -11.32,1.75 -22.31,3.07 -32.97,3.94 -190.81,18.25 -281.48,-58.8 -334.35,-161.79 -7.48,0.55 -15.72,0.99 -24.61,1.54 -10.23,0.66 -21.22,1.22 -32.98,1.87 -63.2,3.19 -146.62,5.28 -229.06,-0.55 -10.99,-0.88 -21.98,-1.75 -32.98,-2.86 -40.33,-4.06 -79.79,-10.22 -115.73,-19.46 -11.43,-2.86 -22.43,-6.03 -32.97,-9.67 -41.22,-13.73 -75.84,-32.42 -99.25,-57.71 -31.32,-33.84 -51.44,-81.33 -59.03,-135.3 -1.64,-10.77 -2.64,-21.77 -3.19,-32.97 -1.32,-28.15 0.55,-57.49 5.72,-87.17 1.87,-10.98 4.28,-21.98 7.14,-32.97 21.55,-83.42 69.9,-166.63 148.61,-229.5 10.44,-8.36 21.44,-16.39 32.97,-23.96 29.46,-19.34 62.44,-36.16 99.26,-49.46 10.65,-3.96 21.65,-7.48 32.98,-10.77 52.09,-15.17 111.01,-23.62 176.95,-23.74l24.61 0c10.89,0 21.88,0.12 32.98,0.23 76.05,0.76 153.66,3.95 227.09,14.61 11.09,1.54 22.09,3.3 32.97,5.28 26.38,4.73 52.1,10.66 76.93,17.91 11.21,3.2 22.21,6.71 32.98,10.55 125.41,44.3 222.79,128.72 253.9,288.85 1.32,6.27 2.43,12.75 3.41,19.24 0.66,4.38 1.43,8.89 2.09,13.73 3.51,24.62 7.15,54.41 9.45,87.17 0.66,10.76 1.32,21.76 1.66,32.97 4.72,123.76 -12.2,274.89 -109.14,344.14z"/>
    <path class="fil5" d="M4719.34 1303.17c-61.78,0 -111.78,-49.99 -111.78,-111.78 0,-61.66 50,-111.78 111.78,-111.78 61.66,0 111.78,50.12 111.78,111.78 0,61.79 -50.12,111.78 -111.78,111.78zm191.8 -72.65l0 -78.15 -47.37 -8.02c-2.43,-7.59 -5.5,-14.85 -9.03,-21.77l27.81 -39.24 -55.18 -55.17 -39.23 27.81c-6.92,-3.52 -14.19,-6.6 -21.77,-9.03l-8.02 -47.37 -78.05 0 -8.13 47.37c-7.47,2.43 -14.84,5.5 -21.76,9.03l-39.13 -27.81 -55.29 55.17 27.81 39.24c-3.51,6.92 -6.59,14.18 -9.02,21.77l-47.37 8.02 0 78.15 47.37 8.02c2.43,7.48 5.5,14.85 9.02,21.77l-27.81 39.24 55.29 55.19 39.13 -27.82c6.92,3.51 14.29,6.59 21.76,9.02l8.13 47.37 78.05 0 8.02 -47.37c7.58,-2.43 14.85,-5.5 21.77,-9.02l39.23 27.82 55.18 -55.19 -27.81 -39.24c3.52,-6.92 6.6,-14.29 9.03,-21.77l47.37 -8.02z"/>
    <path class="fil5" d="M5055.78 1460.9c-40.78,0 -73.76,-33.09 -73.76,-73.87 0,-40.78 32.98,-73.75 73.76,-73.75 40.79,0 73.76,32.97 73.76,73.75 0,40.78 -32.97,73.87 -73.76,73.87zm126.62 -48.04l0 -51.54 -31.21 -5.39c-1.65,-4.94 -3.61,-9.78 -5.94,-14.4l18.37 -25.82 -36.5 -36.49 -25.82 18.46c-4.62,-2.43 -9.46,-4.39 -14.41,-6.04l-5.38 -31.22 -51.55 0 -5.27 31.22c-4.95,1.65 -9.78,3.61 -14.4,6.04l-25.83 -18.46 -36.49 36.49 18.35 25.82c-2.31,4.62 -4.27,9.46 -5.93,14.4l-31.21 5.39 0 51.54 31.21 5.28c1.66,4.94 3.62,9.78 5.93,14.39l-18.35 25.84 36.49 36.48 25.83 -18.35c4.62,2.31 9.45,4.29 14.4,5.93l5.27 31.32 51.55 0 5.38 -31.32c4.95,-1.64 9.79,-3.62 14.41,-5.93l25.82 18.35 36.5 -36.48 -18.37 -25.84c2.33,-4.61 4.29,-9.45 5.94,-14.39l31.21 -5.28z"/>
    <path class="fil7" d="M4348.82 1116.98l0 195.97 -239.29 0c-1.64,-10.77 -2.64,-21.77 -3.19,-32.97l209.49 0 0 -163 32.98 0z"/>
    <path class="fil7" d="M4366.27 1102.33c0,-18.76 -15.22,-33.98 -33.98,-33.98 -18.76,0 -33.97,15.22 -33.97,33.98 0,18.76 15.21,33.97 33.97,33.97 18.76,0 33.98,-15.21 33.98,-33.97z"/>
    <path class="fil7" d="M5195.94 1051.02c0,-18.76 -15.21,-33.96 -33.98,-33.96 -18.75,0 -33.96,15.2 -33.96,33.96 0,18.77 15.21,33.99 33.96,33.99 18.77,0 33.98,-15.22 33.98,-33.99z"/>
    <path class="fil7" d="M5152.94 1034.53l0 32.98 -148.39 0 0 -207.08c11.21,3.2 22.21,6.71 32.98,10.55l0 163.54 115.41 0z"/>
    <path class="fil7" d="M5139.32 1176.34c0,-18.75 -15.22,-33.97 -33.97,-33.97 -18.76,0 -33.98,15.22 -33.98,33.97 0,18.76 15.22,33.98 33.98,33.98 18.75,0 33.97,-15.22 33.97,-33.98z"/>
    <path class="fil7" d="M5296.93 1192.81l-176.96 0 0 -32.97 171.46 0c1.32,6.27 2.43,12.75 3.41,19.24 0.66,4.38 1.43,8.89 2.09,13.73z"/>
    <path class="fil7" d="M4912.17 1480.42c0,-18.75 -15.22,-33.97 -33.98,-33.97 -18.77,0 -33.97,15.22 -33.97,33.97 0,18.76 15.2,33.97 33.97,33.97 18.76,0 33.98,-15.21 33.98,-33.97z"/>
    <path class="fil7" d="M5103.47 1574.99l0 117.94c-11.32,1.75 -22.31,3.07 -32.97,3.94l0 -88.91 -208.83 0 0 -114.1 32.98 0 0 81.12 208.82 0z"/>
    <path class="fil7" d="M5216.41 1567.76c0,-18.75 -15.22,-33.97 -33.97,-33.97 -18.77,0 -33.98,15.22 -33.98,33.97 0,18.76 15.21,33.98 33.98,33.98 18.75,0 33.97,-15.22 33.97,-33.98z"/>
    <path class="fil7" d="M5198.89 1587.52l0 69.57c-10.11,7.25 -21.11,13.52 -32.98,18.79l0 -88.37 32.98 0z"/>
    <path class="fil7" d="M5263.89 1455.05c0,-18.76 -15.21,-33.98 -33.98,-33.98 -18.75,0 -33.97,15.22 -33.97,33.98 0,18.76 15.22,33.97 33.97,33.97 18.77,0 33.98,-15.21 33.98,-33.97z"/>
    <path class="fil7" d="M5308.03 1312.95l-61.67 0 0 132.12 -32.98 0 0 -165.09 92.99 0c0.66,10.76 1.32,21.76 1.66,32.97z"/>
    <path class="fil7" d="M4841.04 936.41c0,-18.76 -15.22,-33.98 -33.97,-33.98 -18.77,0 -33.98,15.22 -33.98,33.98 0,18.76 15.21,33.97 33.98,33.97 18.75,0 33.97,-15.21 33.97,-33.97z"/>
    <path class="fil7" d="M4927.62 842.52l0 110.35 -104.41 0 0 -32.97 71.44 0 0 -82.66c11.09,1.54 22.09,3.3 32.97,5.28z"/>
    <path class="fil7" d="M4527.44 1021.71c0,-18.75 -15.2,-33.97 -33.97,-33.97 -18.76,0 -33.98,15.22 -33.98,33.97 0,18.77 15.22,33.98 33.98,33.98 18.77,0 33.97,-15.21 33.97,-33.98z"/>
    <path class="fil7" d="M4479.28 1005.19l0 32.98 -79.24 0 0 -181.25c10.65,-3.96 21.65,-7.48 32.98,-10.77l0 159.04 46.26 0z"/>
    <path class="fil7" d="M4493.47 1210.32c0,-18.76 -15.21,-33.98 -33.98,-33.98 -18.75,0 -33.97,15.22 -33.97,33.98 0,18.75 15.22,33.97 33.97,33.97 18.77,0 33.98,-15.22 33.98,-33.97z"/>
    <path class="fil7" d="M4475.99 1221.4l0 165.85 -175.21 0 0 128.38c-11.43,-2.86 -22.43,-6.03 -32.97,-9.67l0 -151.69 175.2 0 0 -132.87 32.98 0z"/>
    <path class="fil7" d="M4467.02 1455.05c0,-18.76 -15.21,-33.98 -33.97,-33.98 -18.76,0 -33.98,15.22 -33.98,33.98 0,18.76 15.22,33.97 33.98,33.97 18.76,0 33.97,-15.21 33.97,-33.97z"/>
    <path class="fil7" d="M4449.49 1455.07l0 82.87c-10.99,-0.88 -21.98,-1.75 -32.98,-2.86l0 -80.02 32.98 0z"/>
    <path class="fil7" d="M4586.06 909.97c0,-18.76 -15.2,-33.98 -33.97,-33.98 -18.76,0 -33.98,15.22 -33.98,33.98 0,18.77 15.22,33.97 33.98,33.97 18.77,0 33.97,-15.2 33.97,-33.97z"/>
    <path class="fil7" d="M4667.56 822.63l0 103.86 -100.79 0 0 -32.98 67.81 0 0 -71.11c10.89,0 21.88,0.12 32.98,0.23z"/>
    <path class="fil7" d="M4242.26 1176.34c0,-18.75 -15.21,-33.97 -33.97,-33.97 -18.76,0 -33.98,15.22 -33.98,33.97 0,18.76 15.22,33.98 33.98,33.98 18.76,0 33.97,-15.22 33.97,-33.98z"/>
    <path class="fil7" d="M4208.24 1159.84l0 32.97 -96.17 0c1.87,-10.98 4.28,-21.98 7.14,-32.97l89.04 0z"/>
    <path class="fil7" d="M4318.21 999.57c0,-18.76 -15.2,-33.98 -33.97,-33.98 -18.75,0 -33.97,15.22 -33.97,33.98 0,18.76 15.22,33.97 33.97,33.97 18.77,0 33.97,-15.21 33.97,-33.97z"/>
    <path class="fil7" d="M4300.78 906.38l0 71.34 -32.97 0 0 -47.38c10.44,-8.36 21.44,-16.39 32.97,-23.96z"/>
    <path class="fil7" d="M4620.03 1433.89c0,-18.75 -15.2,-33.97 -33.97,-33.97 -18.75,0 -33.97,15.22 -33.97,33.97 0,18.77 15.22,33.98 33.97,33.98 18.77,0 33.97,-15.21 33.97,-33.98z"/>
    <path class="fil7" d="M4711.54 1417.36l0 119.26c-10.23,0.66 -21.22,1.22 -32.98,1.87l0 -88.15 -84.3 0 0 -32.98 117.28 0z"/>
    <path class="fil4" d="M5545.68 3664.4c-3.3,22.78 -8.09,45.09 -14.35,66.5 -13.32,45.09 -33.6,86.08 -61.6,119.78 -14.92,18.12 -32,33.95 -51.47,47.27 -34.73,23.8 -76.74,39.29 -126.85,43.72 -43.84,3.86 -43.38,-64.46 0,-68.32 35.76,-3.2 65.81,-14.13 90.75,-31.21 19.13,-12.87 35.19,-29.37 48.4,-48.5 15.6,-22.22 27.44,-47.84 35.86,-75.86 6.5,-21.28 11.05,-43.71 13.9,-67.05 3.19,-26.19 4.1,-53.3 3.08,-80.52 -0.68,-22.78 -2.96,-45.55 -6.38,-67.98 -13.09,-85.63 -44.29,-165.46 -85.74,-212.82 -28.81,-32.91 19.36,-81.42 48.4,-48.29 54.43,62.18 91.78,157.14 105.67,257.35 3.08,22.55 5.01,45.32 5.69,67.97 0.92,33.15 -0.79,66.06 -5.35,97.94z"/>
    <path class="fil8" d="M5551.04 3566.46c-22.55,1.27 -45.09,2.52 -67.64,3.76 -0.68,-22.78 -2.96,-45.55 -6.38,-67.98 22.78,-1.26 45.55,-2.51 68.33,-3.75 3.08,22.55 5.01,45.32 5.69,67.97z"/>
    <path class="fil8" d="M5545.68 3664.4c-3.3,22.78 -8.09,45.09 -14.35,66.5 -21.86,-3.08 -43.49,-7.41 -64.91,-13.11 6.5,-21.28 11.05,-43.71 13.9,-67.05 21.53,6.03 43.27,10.7 65.36,13.66z"/>
    <path class="fil8" d="M5469.74 3850.68c-14.92,18.12 -32,33.95 -51.47,47.27 -10.81,-19.35 -22.89,-38.03 -36.1,-55.81 19.13,-12.87 35.19,-29.37 48.4,-48.5 14.23,18.33 27.21,37.34 39.17,57.03z"/>
    <path class="fil4" d="M4776.3 4178.21c-179.46,-40.13 -331.44,-153.6 -420.75,-314.4 -7.11,-12.81 -26.79,-1.35 -19.66,11.49 91.94,165.57 249.52,283.52 434.36,324.88 14.28,3.2 20.37,-18.76 6.05,-21.97z"/>
    <path class="fil4" d="M4756.41 4137.81c-164.13,-56.33 -294.24,-182.52 -355.24,-345.05 -5.1,-13.6 -27.13,-7.7 -21.97,6.06 63.97,170.41 198.93,301.84 371.16,360.95 13.89,4.77 19.85,-17.23 6.05,-21.97z"/>
    <polygon class="fil9" points="4694.92,3634 4563.41,4818.25 5344.64,4818.25 5209.41,3634 "/>
    <path class="fil10" d="M4180.15 4441.92c93.25,-209.67 188.11,-460.81 246.78,-682.66 1731.07,0 1435.96,-1639.75 282.07,-1639.74 -911.37,0.02 -1142.49,706 -979.97,1172.08 -88.11,124.68 -178.29,262.28 -266.4,386.95 83.33,39.54 172.2,60.78 285.93,116.91 -19.12,159.87 -79.1,339.63 -98.21,499.47 187.96,83.26 330.2,97.79 529.8,146.98z"/>
    <path class="fil6" d="M4094.03 2474.81c-123.65,138.1 -151.52,355.22 -17.63,485.65 91.87,89.5 234.49,120.32 368.98,141.52 166.69,26.27 337.68,44.66 504.93,21.44 167.24,-23.21 332.13,-92.6 432.26,-213.46 100.12,-120.85 121.71,-297.29 26.08,-420.96 -40.73,-52.68 -98.98,-92.92 -160.27,-126.55 -360.26,-197.65 -875.92,-198.56 -1154.34,112.36z"/>
    <path class="fil5" d="M3942.28 3175.56l358.67 0c0,0 -46.65,209.28 -244.8,209.28 -131.41,0 -113.87,-209.28 -113.87,-209.28z"/>
    <path class="fil11" d="M4522.04 3657.75c-9.09,-8.35 -23.21,-9.01 -32.22,0l-5.69 5.69c-8.43,8.43 -9.07,23.89 0,32.2 9.11,8.35 23.2,9 32.21,0 1.9,-1.9 3.79,-3.78 5.7,-5.69 8.44,-8.44 9.06,-23.89 0,-32.2z"/>
    <path class="fil11" d="M5285.95 3451.8l-5.69 0c-11.92,0 -23.31,10.47 -22.78,22.78 0.55,12.33 9.99,22.78 22.78,22.78l5.69 0c11.91,0 23.32,-10.47 22.78,-22.78 -0.56,-12.34 -10,-22.78 -22.78,-22.78z"/>
    <polygon class="fil12" points="4836.96,4029.35 4807.69,4501.41 4898.79,4501.41 4927.26,4029.35 "/>
    <polygon class="fil5" points="4750.76,4818.25 4764.25,4490.76 4927.26,4490.76 4907.33,4818.25 "/>
    <polygon class="fil12" points="5126.49,4029.35 5155.76,4501.41 5064.66,4501.41 5036.2,4029.35 "/>
    <polygon class="fil5" points="5212.7,4818.25 5199.21,4490.76 5036.2,4490.76 5056.13,4818.25 "/>
    <path class="fil5" d="M5336.91 3767.74c0,-211.45 -171.42,-382.89 -382.89,-382.89 -211.46,0 -382.89,171.44 -382.89,382.89 0,211.46 171.43,382.89 382.89,382.89 211.47,0 382.89,-171.43 382.89,-382.89z"/>
    <path class="fil12" d="M5179.06 3767.74c0,-124.28 -100.76,-225.04 -225.04,-225.04 -124.28,0 -225.03,100.76 -225.03,225.04 0,124.28 100.75,225.04 225.03,225.04 124.28,0 225.04,-100.76 225.04,-225.04z"/>
    <path class="fil7" d="M5071.09 3767.74c0,-64.65 -52.42,-117.06 -117.07,-117.06 -64.64,0 -117.06,52.41 -117.06,117.06 0,64.66 52.42,117.06 117.06,117.06 64.65,0 117.07,-52.4 117.07,-117.06z"/>
   </g>
  </g>
 </g>
</svg>
