<?xml version="1.0" encoding="UTF-8"?>
<!DOCTYPE svg PUBLIC "-//W3C//DTD SVG 1.1//EN" "http://www.w3.org/Graphics/SVG/1.1/DTD/svg11.dtd">
<!-- Creator: CorelDRAW -->
<svg xmlns="http://www.w3.org/2000/svg" xml:space="preserve" width="3.70333in" height="2.08333in" version="1.1" style="shape-rendering:geometricPrecision; text-rendering:geometricPrecision; image-rendering:optimizeQuality; fill-rule:evenodd; clip-rule:evenodd"
viewBox="0 0 3703.33 2083.33"
 xmlns:xlink="http://www.w3.org/1999/xlink"
 xmlns:xodm="http://www.corel.com/coreldraw/odm/2003">
 <defs>
  <style type="text/css">
   <![CDATA[
    .fil0 {fill:#E6E7E8}
    .fil7 {fill:#FAA840;fill-rule:nonzero}
    .fil17 {fill:#F5863F;fill-rule:nonzero}
    .fil12 {fill:#F47F3E;fill-rule:nonzero}
    .fil9 {fill:#F6D45C;fill-rule:nonzero}
    .fil10 {fill:#D162A2;fill-rule:nonzero}
    .fil11 {fill:#B0D355;fill-rule:nonzero}
    .fil13 {fill:#64333D;fill-rule:nonzero}
    .fil15 {fill:#AED256;fill-rule:nonzero}
    .fil8 {fill:#7ABF5D;fill-rule:nonzero}
    .fil16 {fill:#7BBF5B;fill-rule:nonzero}
    .fil14 {fill:#64884F;fill-rule:nonzero}
    .fil33 {fill:#005BDB;fill-rule:nonzero}
    .fil30 {fill:#0A5BCC;fill-rule:nonzero}
    .fil18 {fill:#0C9B14;fill-rule:nonzero}
    .fil3 {fill:#1981CC;fill-rule:nonzero}
    .fil31 {fill:#267EF8;fill-rule:nonzero}
    .fil19 {fill:#32B839;fill-rule:nonzero}
    .fil21 {fill:#3FBF46;fill-rule:nonzero}
    .fil32 {fill:#4291FF;fill-rule:nonzero}
    .fil5 {fill:#59BAFF;fill-rule:nonzero}
    .fil4 {fill:#63BBFF;fill-rule:nonzero}
    .fil34 {fill:#9D4108;fill-rule:nonzero}
    .fil37 {fill:#AC4D11;fill-rule:nonzero}
    .fil35 {fill:#C9601F;fill-rule:nonzero}
    .fil26 {fill:#CC2E0A;fill-rule:nonzero}
    .fil22 {fill:#CC7A0A;fill-rule:nonzero}
    .fil36 {fill:#D07136;fill-rule:nonzero}
    .fil29 {fill:#DB3B16;fill-rule:nonzero}
    .fil25 {fill:#DB8816;fill-rule:nonzero}
    .fil27 {fill:#F84D26;fill-rule:nonzero}
    .fil23 {fill:#F89F26;fill-rule:nonzero}
    .fil28 {fill:#FF6542;fill-rule:nonzero}
    .fil24 {fill:#FFAF42;fill-rule:nonzero}
    .fil20 {fill:#FFCB86;fill-rule:nonzero}
    .fil6 {fill:white;fill-rule:nonzero}
    .fil2 {fill:#373435;fill-opacity:0.031373}
    .fil1 {fill:#373435;fill-opacity:0.101961}
   ]]>
  </style>
 </defs>
 <g id="Layer_x0020_1">
  <metadata id="CorelCorpID_0Corel-Layer"/>
  <polygon class="fil0" points="-0,0.07 3703.33,0.07 3703.33,2083.26 -0,2083.26 "/>
  <polygon class="fil1" points="1398.78,2083.26 1298.41,2083.26 1232.81,2083.26 1211.15,2083.26 1178.33,2083.26 995.81,2083.26 965.96,2083.26 890.32,2083.26 756.2,2083.26 601.33,2083.26 601.31,2083.26 579.29,2083.26 579.23,2083.26 579.17,2083.26 573.22,2083.26 543.55,2083.26 516.96,2083.26 508.5,2083.26 508.49,2083.26 508.43,2083.26 481.45,2083.26 437.59,2083.26 431.95,2083.26 301.24,2083.26 237.76,2083.26 224.93,2083.26 224.92,2083.26 220.58,2083.26 190.86,2083.26 190.83,2083.26 190.77,2083.26 184.77,2083.26 184.76,2083.26 184.69,2083.26 44.22,2083.26 -0,2083.26 -0,2078.85 -0,2073.62 -0,2063.56 -0,2051.35 -0,1489 -0,1481.94 -0,1412.19 -0,1405.04 -0,1373.45 -0,1365.94 -0,1333.44 -0,1326.21 -0,1325.35 -0,1321.48 -0,1312.95 -0,1297.12 -0,1293.74 -0,1290.61 -0,1288.57 -0,1286.13 -0,1252.72 -0,1245.86 -0,1245.4 -0,1241.43 -0,1233 -0,1216.67 -0,1212 -0,1210.19 -0,1208.24 -0,1204.3 -0,1169.93 -0,1164.37 -0,1162.51 -0,1159.38 -0,1151.03 -0,1134.18 -0,1128.17 -0,1127.74 -0,1125.87 -0,1120.35 -0,1084.99 -0,1080.8 -0,1077.48 -0,1075.21 -0,1066.98 -0,1049.57 -0,1043.17 -0,1042.13 -0,1041.4 -0,1034.21 -0,998.02 -0,995.08 -0,990.41 -0,988.86 -0,980.74 -0,978.45 -0,962.76 -0,956.4 -0,954.73 -0,953.83 -0,945.81 -0,938.19 -0,907.12 -0,900.14 -0,892.24 -0,886.91 -0,873.6 -0,867.31 -0,865.79 -0,855.22 -0,817.03 -0,801.55 -0,774.65 882.33,193.87 877.04,197.45 871.91,201.31 866.95,205.45 862.18,209.85 857.59,214.52 853.19,219.43 849,224.59 845.03,229.97 841.27,235.57 837.74,241.39 834.45,247.41 831.41,253.61 829.69,257.54 893.99,215.38 902.9,210.15 912.26,205.98 922.02,202.93 932.13,201.05 942.53,200.41 946.65,200.5 950.74,200.8 954.77,201.3 958.76,201.98 962.7,202.84 966.59,203.89 970.42,205.12 974.19,206.52 977.89,208.09 981.53,209.83 985.1,211.74 988.6,213.8 992.02,216.02 995.37,218.39 995.94,218.83 1035.32,193.25 1030.95,196.11 1026.7,199.16 1022.55,202.4 1018.52,205.82 997.11,219.73 998.63,220.9 1001.81,223.56 997.98,228.63 994.36,233.89 990.94,239.35 987.73,245 984.74,250.82 981.97,256.81 981.96,256.82 1048.45,213.8 1051.94,211.74 1055.52,209.83 1059.16,208.09 1062.86,206.52 1066.63,205.12 1070.46,203.89 1074.35,202.84 1078.28,201.98 1082.28,201.3 1086.31,200.8 1090.39,200.5 1094.52,200.41 1098.65,200.51 1102.75,200.81 1106.8,201.3 1110.81,201.99 1114.76,202.86 1118.66,203.92 1122.5,205.15 1126.29,206.57 1130,208.15 1133.66,209.9 1137.24,211.82 1140.74,213.9 1144.18,216.13 1147.53,218.52 1147.84,218.76 1187.49,193.33 1183.12,196.21 1178.85,199.28 1174.7,202.53 1170.67,205.97 1149.15,219.77 1150.8,221.05 1153.98,223.73 1150.18,228.8 1146.57,234.06 1143.16,239.51 1139.96,245.15 1136.98,250.96 1134.64,256.03 1200.59,213.9 1204.1,211.82 1207.69,209.91 1211.33,208.15 1215.06,206.57 1218.84,205.16 1222.68,203.92 1226.58,202.86 1230.53,201.99 1234.54,201.3 1238.59,200.81 1242.69,200.51 1246.83,200.41 1250.96,200.51 1255.06,200.81 1259.11,201.3 1263.12,201.99 1267.07,202.86 1270.97,203.92 1274.81,205.16 1278.6,206.57 1282.31,208.15 1285.97,209.91 1289.55,211.83 1293.06,213.9 1296.49,216.14 1299.84,218.52 1299.92,218.58 1339.81,193.33 1335.43,196.21 1331.17,199.28 1327.02,202.53 1322.98,205.97 1301.33,219.68 1303.11,221.06 1306.3,223.74 1302.49,228.8 1298.88,234.06 1295.47,239.51 1292.27,245.15 1289.29,250.96 1287.31,255.26 1352.91,213.9 1356.42,211.82 1360,209.9 1363.65,208.15 1367.37,206.57 1371.15,205.15 1374.99,203.92 1378.89,202.86 1382.84,201.99 1386.85,201.3 1390.9,200.81 1395,200.51 1399.13,200.41 1403.27,200.51 1407.37,200.81 1411.42,201.3 1415.43,201.99 1419.38,202.86 1423.28,203.92 1427.12,205.16 1430.91,206.57 1434.62,208.15 1438.28,209.91 1441.86,211.83 1445.37,213.9 1448.8,216.14 1451.99,218.41 1492.12,193.33 1487.74,196.21 1483.48,199.28 1479.33,202.53 1475.3,205.97 1453.52,219.58 1455.42,221.06 1458.61,223.74 1454.8,228.8 1451.19,234.06 1447.78,239.51 1444.58,245.15 1441.6,250.96 1439.96,254.52 1505.22,213.89 1508.73,211.82 1512.31,209.9 1515.96,208.15 1519.68,206.56 1523.46,205.15 1527.3,203.92 1531.2,202.86 1535.16,201.99 1539.16,201.3 1543.21,200.81 1547.31,200.51 1551.45,200.41 1555.59,200.51 1559.69,200.81 1563.74,201.3 1567.74,201.99 1571.7,202.86 1575.59,203.92 1579.44,205.15 1583.22,206.57 1586.94,208.15 1590.59,209.91 1594.17,211.82 1597.68,213.9 1601.11,216.13 1604.07,218.24 1644.43,193.33 1640.06,196.21 1635.79,199.28 1631.64,202.53 1627.61,205.97 1605.71,219.48 1607.73,221.05 1610.92,223.73 1607.11,228.8 1603.5,234.06 1600.09,239.51 1596.89,245.15 1593.91,250.96 1592.59,253.82 1657.53,213.89 1661.04,211.82 1664.62,209.9 1668.27,208.15 1671.99,206.56 1675.78,205.15 1679.62,203.92 1683.52,202.86 1687.47,201.99 1691.48,201.3 1695.53,200.81 1699.63,200.51 1703.76,200.41 1707.9,200.51 1712,200.81 1716.05,201.3 1720.06,201.99 1724.01,202.86 1727.91,203.92 1731.75,205.15 1735.53,206.57 1739.25,208.15 1742.9,209.9 1746.48,211.82 1749.99,213.9 1753.43,216.13 1756.16,218.07 1796.74,193.34 1792.37,196.21 1788.1,199.28 1783.95,202.53 1779.92,205.97 1757.9,219.39 1760.05,221.05 1763.23,223.73 1759.43,228.8 1755.81,234.06 1752.41,239.51 1749.21,245.15 1746.23,250.96 1745.22,253.14 1809.84,213.9 1813.35,211.82 1816.93,209.9 1820.58,208.15 1824.3,206.57 1828.08,205.15 1831.93,203.92 1835.82,202.86 1839.78,201.99 1843.78,201.3 1847.83,200.81 1851.93,200.51 1856.07,200.41 1866.48,201.05 1876.59,202.93 1886.35,205.98 1895.71,210.15 1904.62,215.38 1913.02,221.59 1920.87,228.72 1928.11,236.72 1934.69,245.52 1940.57,255.06 1945.68,265.27 1949.98,276.09 1953.41,287.47 1955.92,299.33 1957.47,311.61 1958,324.25 1957.99,325.32 1957.98,326.39 1957.96,327.46 1957.93,328.53 1957.9,329.59 1957.86,330.65 1957.81,331.71 1957.75,332.77 855.69,983.64 855.69,1591.55 2057.02,946.02 2063.79,956.97 2066.3,967.65 2599.5,682.26 2597.7,683.62 2596.2,685.3 2595.04,687.24 2594.27,689.41 2593.94,691.76 2592.46,727.35 2547.13,846.54 2547.16,846.57 2547.13,846.59 2540.77,1000.74 2866.94,833.3 2865.01,834.45 2863.32,835.96 2861.93,837.8 2860.91,839.93 2848.82,873.46 2769.86,973.56 2769.89,973.63 2769.83,973.66 2591.68,1467.89 2591.42,1469.41 2591.66,1471.08 2592.38,1472.86 2593.57,1474.75 2595.19,1476.72 2597.23,1478.77 2599.67,1480.87 2602.48,1483.01 2605.63,1485.17 2609.12,1487.34 2612.91,1489.51 2616.99,1491.65 2621.33,1493.74 2625.91,1495.78 2630.7,1497.76 2635.7,1499.64 2640.74,1501.37 2645.69,1502.92 2650.52,1504.26 2655.2,1505.42 2659.71,1506.37 2664.01,1507.13 2668.08,1507.68 2671.89,1508.03 2675.42,1508.17 2678.64,1508.11 2681.51,1507.84 2684.02,1507.35 2686.14,1506.66 2509.24,1589.71 2560.4,1757.82 2561.11,1759.2 2562.3,1760.39 2563.94,1761.39 2566.02,1762.19 2568.5,1762.8 2571.36,1763.21 2574.57,1763.43 2578.1,1763.47 2581.93,1763.31 2586.02,1762.96 2590.35,1762.42 2594.9,1761.69 2599.63,1760.78 2604.52,1759.67 2609.55,1758.37 2614.67,1756.89 2619.76,1755.26 2624.65,1753.54 2629.32,1751.73 2633.76,1749.85 1897.67,2083.26 1894.32,2083.26 1844.94,2083.26 1711.22,2083.26 1702.19,2083.26 1645.02,2083.26 1624.65,2083.26 1615.58,2083.26 1588.75,2083.26 1492.9,2083.26 1458.04,2083.26 "/>
  <path class="fil2" d="M218.02 1826.24c7,11 12,21 16,32 3,7 5,19 21,19 5,0 11,-1 17,-5 7,-3 12,-9 14,-17l6 -21 15 -7 1 1c-2,8 -3,16 -3,21 0,18 15,24 27,24 7,0 13,-4 13,-10 0,-8 -4,-23 -8,-35 7,-7 14,-14 22,-20l1 1c4,15 6,30 6,40 0,10 -4,20 -8,27 -7,14 -20,25 -36,25 -12,0 -25,-6 -34,-17l-1 0c-9,11 -22,20 -43,20l-7 0c-1,14 -4,24 -9,33 -13,25 -50,42 -85.01,42 -49,0 -73.01,-28 -73.01,-66 0,-23 8,-45 19,-60l10 4c-7,14 -12,27 -12,40 0,35 29,52 62,52 31,0 68.01,-19 75.01,-42 -3,-25 -12,-36 -26,-59 4,-7 10,-15 17,-23l1 0 0 0 2 1 0 0 0 0 0 0 0 0 0 0 0 0 0 0 0.02 -0.01 -0.01 0.01 0 0 0 0 0 0 0 0zm564.05 -133.01c10,6 20,14 30,23 -6,8 -12,15 -21,21 -10,-8 -20,-15 -30,-22 7,-8 14,-15 20,-22l0 0 1 0 0 0 0 0 0 0 0 0 0 0 0 0 0 0zm5 96.01c-17,0 -30,11 -30,19 0,17 33,23 73.01,23 -5,-20 -22,-42 -43,-42l0 0 -0.01 0zm-37 93.01c22,0 41,-1 55,-4 16,-4 30,-12 30,-18 0,-2 0,-3 -1,-5 -9,1 -19,1 -29,1 -29,0 -52,-7 -61,-23 -2,-5 -4,-10 -4,-16 0,-16 7,-32 19,-42 10,-9 21,-14 33,-14 20,0 37,16 48,42 6,14 11,30 11,51 0,14 -4,25 -12,34 -16,15 -45,21 -90.01,21l-20 0 0 0 -5 0c-11,0 -19,-2 -25,-7l-1 0c0,3 1,5 1,7 0,10 -3,23 -10,33 -20,30 -42,43 -60,43 -19,0 -42,-7 -63,-17l4 -7c7,3 16,5 29,5 34,0 78.01,-33 84.01,-64 -1,-3 -4,-6 -7,-10 -10,-12 -16,-22 -22,-32 5,-10 10,-18 14,-25l2 0c14,29 28,46 57,46l5 0 0 0 21 0 0 0 -3 1 0 0 0 0 0 0 0 0 0 0 0 0 0 0zm-146.01 31c2,-14 3,-29 3,-43l0 -21c0,-39 -5,-96.01 -9,-133.01 7,-8 17,-17 25,-23l2 1c5,47 7,101.01 7,151.01 0,13 -1,26 -2,35 -1,12 -8,21 -22,35l-3 -1 0 0 -1 -1 0 0 0 0 0 0 0 0 0 0 0 0 0 0zm-151.02 -62.01c1,18 10,33 41,33 20,0 36,-5 55,-14 3,-1 5,-3 5,-5 0,-12 -9,-27 -24,-41 -14,-13 -34,-25 -51,-32 -6,-3 -8,-5 -8,-8 0,-5 7,-16 13,-24l2 0c20,11 43,27 60,44 15,16 25,33 25,51 0,13 -4,26 -11,38 -22,11 -46,20 -70.01,20 -29,0 -48,-14 -48,-45 0,-3 0,-9 1,-16l10 0 0 0 0 -1 0 0 0 0 0 0 0 0 0 0 0 0 0 0 0 0 0.01 0zm-52 -52l18 29c7,11 13,22 13,41l0 24c0,19 -12,39 -32,60 -15,14 -29,20 -42,20 -19,0 -40,-6 -65,-17l3 -7c8,2 17,4 28,4 36,0 72.01,-26 89.01,-58 2,-4 3,-7 3,-9 0,-4 -2,-8 -4,-11 -9,-17 -19,-33 -30,-47 6,-9 12,-18 18,-27l1 0 0 -2 0 0 0 0 0 0 0 0 0 0 0 0 0 0 0 0 -0.01 0z"/>
  <g id="_2387508997072">
   <g>
    <g>
     <path class="fil3" d="M1960.24 332.77l0 1577.95 -1104.56 0 0 -1577.95 194.49 0c-1.96,54.31 -43.31,98.83 -96.15,106.17l0 24.46c66.55,-7.33 118.41,-62.62 120.62,-130.64l885.6 0z"/>
     <path class="fil4" d="M1987.89 332.77l0 1577.95 -1104.81 0 0 -1577.95 167.09 0c-1.96,54.31 -43.31,98.83 -96.15,106.17l0 24.46c66.55,-7.33 118.41,-62.62 120.62,-130.64l913.25 0z"/>
     <path class="fil5" d="M2018.23 332.77l0 1577.95 -1104.56 0 0 -1577.95 136.51 0c-1.96,54.31 -43.31,98.83 -96.15,106.17l0 24.46c66.55,-7.33 118.41,-62.62 120.62,-130.64l943.59 0z"/>
     <path class="fil6" d="M2051.74 332.77l-1098.7 0c0.49,34.74 0.73,70.22 0.98,106.17l0 24.46c2.45,591.55 -25.19,1309.57 102.75,1373.93l1098.94 0c-116.46,-153.88 -94.19,-896.87 -103.97,-1504.56z"/>
     <polygon class="fil5" points="1012.31,447.94 1081.84,447.94 1081.84,384.76 1012.31,384.76 "/>
     <polygon class="fil5" points="1164.52,447.94 1234.04,447.94 1234.04,384.76 1164.52,384.76 "/>
     <polygon class="fil5" points="1316.72,447.94 1386.24,447.94 1386.24,384.76 1316.72,384.76 "/>
     <polygon class="fil5" points="1468.94,447.94 1538.44,447.94 1538.44,384.76 1468.94,384.76 "/>
     <polygon class="fil5" points="1621.14,447.94 1690.66,447.94 1690.66,384.76 1621.14,384.76 "/>
     <polygon class="fil5" points="1773.35,447.94 1842.87,447.94 1842.87,384.76 1773.35,384.76 "/>
     <polygon class="fil5" points="1925.56,447.94 1995.07,447.94 1995.07,384.76 1925.56,384.76 "/>
     <path class="fil3" d="M1068.93 324.26c0,-81.79 -56.7,-148.31 -126.39,-148.31 -69.69,0 -126.41,66.52 -126.41,148.31 0,42.3 15.26,80.43 39.56,107.47l0 -43.52c-9.37,-18.74 -15.09,-40.46 -15.09,-63.94 0,-68.29 45.74,-123.85 101.94,-123.85 56.2,0 101.93,55.56 101.93,123.85 0,35.42 -12.46,67.2 -32.15,89.81l0 33.74c34.08,-26.59 56.61,-72.03 56.61,-123.54z"/>
     <path class="fil3" d="M1094.52 175.95c-69.69,0 -126.39,66.52 -126.39,148.31 0,2.89 0.24,5.67 0.38,8.51l24.59 0c-0.16,-2.83 -0.51,-5.62 -0.51,-8.51 0,-68.29 45.73,-123.85 101.93,-123.85 56.2,0 101.93,55.56 101.93,123.85 0,35.42 -12.46,67.2 -32.14,89.81l0 33.74c34.07,-26.59 56.61,-72.03 56.61,-123.54 0,-81.79 -56.7,-148.31 -126.39,-148.31z"/>
     <path class="fil3" d="M1246.82 175.95c-69.68,0 -126.39,66.52 -126.39,148.31 0,2.89 0.24,5.67 0.38,8.51l24.61 0c-0.17,-2.83 -0.52,-5.62 -0.52,-8.51 0,-68.29 45.73,-123.85 101.93,-123.85 56.21,0 101.93,55.56 101.93,123.85 0,35.42 -12.46,67.2 -32.14,89.81l0 33.74c34.07,-26.59 56.61,-72.03 56.61,-123.54 0,-81.79 -56.7,-148.31 -126.39,-148.31z"/>
     <path class="fil3" d="M1399.13 175.95c-69.68,0 -126.39,66.52 -126.39,148.31 0,2.89 0.24,5.67 0.38,8.51l24.6 0c-0.17,-2.83 -0.52,-5.62 -0.52,-8.51 0,-68.29 45.73,-123.85 101.93,-123.85 56.2,0 101.94,55.56 101.94,123.85 0,35.42 -12.46,67.2 -32.16,89.81l0 33.74c34.08,-26.59 56.62,-72.03 56.62,-123.54 0,-81.79 -56.71,-148.31 -126.41,-148.31z"/>
     <path class="fil3" d="M1551.45 175.95c-69.69,0 -126.39,66.52 -126.39,148.31 0,2.89 0.24,5.67 0.38,8.51l24.59 0c-0.17,-2.83 -0.51,-5.62 -0.51,-8.51 0,-68.29 45.72,-123.85 101.93,-123.85 56.2,0 101.93,55.56 101.93,123.85 0,35.42 -12.46,67.2 -32.15,89.81l0 33.74c34.08,-26.59 56.61,-72.03 56.61,-123.54 0,-81.79 -56.7,-148.31 -126.4,-148.31z"/>
     <path class="fil3" d="M1703.76 175.95c-69.7,0 -126.4,66.52 -126.4,148.31 0,2.89 0.25,5.67 0.38,8.51l24.6 0c-0.17,-2.83 -0.52,-5.62 -0.52,-8.51 0,-68.29 45.73,-123.85 101.94,-123.85 56.2,0 101.93,55.56 101.93,123.85 0,35.42 -12.46,67.2 -32.14,89.81l0 33.74c34.07,-26.59 56.61,-72.03 56.61,-123.54 0,-81.79 -56.71,-148.31 -126.39,-148.31z"/>
     <path class="fil3" d="M1856.07 175.95c-69.69,0 -126.39,66.52 -126.39,148.31 0,2.89 0.24,5.67 0.38,8.51l24.59 0c-0.16,-2.83 -0.5,-5.62 -0.5,-8.51 0,-68.29 45.72,-123.85 101.93,-123.85 56.2,0 101.93,55.56 101.93,123.85 0,35.42 -12.46,67.2 -32.15,89.81l0 33.74c34.08,-26.59 56.61,-72.03 56.61,-123.54 0,-81.79 -56.7,-148.31 -126.39,-148.31z"/>
    </g>
    <g>
     <path class="fil7" d="M1225.63 1275.35c0,0 -5.57,-7.83 -18.02,-8.41 -12.45,-0.56 -23.78,10.75 -14.72,16.33 9.06,5.56 25,4.8 32.08,-2.27l0.66 -5.65z"/>
     <path class="fil8" d="M1225.63 1304.96c0,0 -5.57,-7.83 -18.02,-8.39 -12.45,-0.56 -23.78,10.76 -14.72,16.32 9.06,5.56 25,4.81 32.08,-2.27l0.66 -5.67z"/>
     <path class="fil9" d="M1225.63 1334.59c0,0 -5.57,-7.83 -18.02,-8.39 -12.45,-0.56 -23.78,10.75 -14.72,16.33 9.06,5.56 25,4.8 32.08,-2.27l0.66 -5.66z"/>
     <path class="fil10" d="M1225.63 1364.21c0,0 -5.57,-7.83 -18.02,-8.39 -12.45,-0.56 -23.78,10.75 -14.72,16.32 9.06,5.56 25,4.81 32.08,-2.27l0.66 -5.67z"/>
     <path class="fil7" d="M1225.63 1393.84c0,0 -5.57,-7.83 -18.02,-8.39 -12.45,-0.57 -23.78,10.75 -14.72,16.33 9.06,5.56 25,4.8 32.08,-2.27l0.66 -5.66z"/>
     <path class="fil9" d="M1228.12 1275.35c0,0 5.57,-7.83 18.02,-8.41 12.45,-0.56 23.78,10.75 14.72,16.33 -9.06,5.56 -25,4.8 -32.08,-2.27l-0.66 -5.65z"/>
     <path class="fil10" d="M1228.12 1304.96c0,0 5.57,-7.83 18.02,-8.39 12.45,-0.56 23.78,10.76 14.72,16.32 -9.06,5.56 -25,4.81 -32.08,-2.27l-0.66 -5.67z"/>
     <path class="fil9" d="M1228.12 1334.59c0,0 5.57,-7.83 18.02,-8.39 12.45,-0.56 23.78,10.75 14.72,16.33 -9.06,5.56 -25,4.8 -32.08,-2.27l-0.66 -5.66z"/>
     <path class="fil8" d="M1228.12 1364.21c0,0 5.57,-7.83 18.02,-8.39 12.45,-0.56 23.78,10.75 14.72,16.32 -9.06,5.56 -25,4.81 -32.08,-2.27l-0.66 -5.67z"/>
     <path class="fil9" d="M1228.12 1393.84c0,0 5.57,-7.83 18.02,-8.39 12.45,-0.57 23.78,10.75 14.72,16.33 -9.06,5.56 -25,4.8 -32.08,-2.27l-0.66 -5.66z"/>
     <polygon class="fil11" points="1221.59,1425.1 1232.16,1425.1 1232.16,1237.44 1221.59,1237.44 "/>
     <path class="fil12" d="M1209.66 1142.67c4.63,10.89 -0.44,23.46 -11.33,28.08 -10.89,4.63 -23.46,-0.44 -28.09,-11.33 -4.63,-10.88 0.44,-23.46 11.33,-28.09 10.88,-4.62 23.46,0.45 28.09,11.33z"/>
     <path class="fil12" d="M1283.5 1214.63c4.63,10.89 -0.44,23.46 -11.33,28.09 -10.89,4.62 -23.46,-0.45 -28.09,-11.33 -4.62,-10.88 0.45,-23.46 11.33,-28.08 10.89,-4.63 23.46,0.45 28.09,11.33z"/>
     <path class="fil12" d="M1182.52 1204.24c10.89,-4.63 23.46,0.44 28.09,11.33 4.63,10.89 -0.44,23.46 -11.33,28.09 -10.88,4.62 -23.46,-0.45 -28.08,-11.34 -4.63,-10.87 0.45,-23.46 11.33,-28.08z"/>
     <path class="fil12" d="M1254.48 1130.39c10.88,-4.62 23.46,0.45 28.09,11.34 4.63,10.89 -0.44,23.45 -11.33,28.08 -10.88,4.63 -23.46,-0.44 -28.09,-11.33 -4.63,-10.89 0.45,-23.46 11.33,-28.09z"/>
     <path class="fil7" d="M1183.34 1167.82c10.97,4.43 16.28,16.91 11.85,27.88 -4.43,10.97 -16.91,16.28 -27.87,11.85 -10.96,-4.43 -16.28,-16.9 -11.85,-27.87 4.43,-10.98 16.91,-16.28 27.87,-11.86z"/>
     <path class="fil7" d="M1286.44 1166.51c10.97,4.41 16.28,16.9 11.85,27.87 -4.42,10.97 -16.9,16.27 -27.87,11.85 -10.96,-4.43 -16.28,-16.91 -11.85,-27.87 4.42,-10.98 16.91,-16.28 27.87,-11.85z"/>
     <path class="fil7" d="M1207.68 1230.56c4.43,-10.96 16.91,-16.27 27.87,-11.85 10.97,4.43 16.27,16.9 11.85,27.87 -4.43,10.97 -16.91,16.28 -27.87,11.86 -10.97,-4.43 -16.28,-16.92 -11.85,-27.88z"/>
     <path class="fil7" d="M1206.35 1127.46c4.43,-10.97 16.91,-16.28 27.87,-11.85 10.97,4.41 16.28,16.9 11.85,27.87 -4.43,10.97 -16.9,16.28 -27.87,11.85 -10.97,-4.41 -16.27,-16.91 -11.85,-27.87z"/>
     <path class="fil9" d="M1268.45 1187.02c0,22.96 -18.61,41.57 -41.57,41.57 -22.96,0 -41.57,-18.61 -41.57,-41.57 0,-22.96 18.61,-41.57 41.57,-41.57 22.96,0 41.57,18.61 41.57,41.57z"/>
     <path class="fil13" d="M1204.76 1175.76c0,2.9 -2.35,5.27 -5.26,5.27 -2.91,0 -5.26,-2.37 -5.26,-5.27 0,-2.9 2.35,-5.25 5.26,-5.25 2.9,0 5.26,2.35 5.26,5.25z"/>
     <path class="fil13" d="M1259.5 1175.76c0,2.9 -2.35,5.27 -5.26,5.27 -2.91,0 -5.26,-2.37 -5.26,-5.27 0,-2.9 2.35,-5.25 5.26,-5.25 2.9,0 5.26,2.35 5.26,5.25z"/>
     <path class="fil10" d="M1202.71 1187.5c0,1.92 -1.56,3.48 -3.48,3.48 -1.92,0 -3.48,-1.56 -3.48,-3.48 0,-1.93 1.56,-3.49 3.48,-3.49 1.92,0 3.48,1.56 3.48,3.49z"/>
     <path class="fil10" d="M1258 1187.5c0,1.92 -1.56,3.48 -3.48,3.48 -1.92,0 -3.48,-1.56 -3.48,-3.48 0,-1.93 1.56,-3.49 3.48,-3.49 1.93,0 3.48,1.56 3.48,3.49z"/>
     <path class="fil12" d="M1223.74 1175.3c0,0 2.33,1.36 5.29,0 2.96,-1.36 6.22,-1.66 5.54,1.91 -0.68,3.57 -4.93,9.53 -10.59,6.82 -5.66,-2.7 -7.26,-11.81 -0.24,-8.73z"/>
     <path class="fil11" d="M1786.69 934.89c-3.16,-4.13 0.78,-10.57 -3.13,-14.48 -3.93,-3.93 -10.37,0.03 -14.5,-3.14 -4.12,-3.16 -1.97,-10.41 -6.77,-13.17 -4.81,-2.77 -10,2.71 -14.8,0.72 -4.81,-1.99 -4.61,-9.54 -9.96,-10.98 -5.35,-1.43 -8.95,5.21 -14.11,4.53 -5.17,-0.68 -6.92,-8.03 -12.46,-8.03 -5.55,0 -7.31,7.35 -12.46,8.03 -5.15,0.68 -8.76,-5.96 -14.11,-4.53 -5.35,1.43 -5.15,8.98 -9.96,10.97 -4.8,1.99 -10.01,-3.49 -14.8,-0.72 -4.8,2.77 -2.65,10.01 -6.78,13.18 -4.13,3.17 -10.57,-0.79 -14.49,3.14 -3.91,3.91 0.03,10.36 -3.14,14.48 -3.16,4.13 -10.41,1.98 -13.18,6.77 -2.77,4.8 2.71,10 0.73,14.8 -2,4.8 -9.55,4.61 -10.98,9.96 -1.44,5.35 5.2,8.95 4.53,14.11 -0.67,5.17 -8.02,6.92 -8.02,12.46 0,5.54 7.34,7.3 8.02,12.45 0.68,5.16 -5.97,8.76 -4.53,14.12 1.43,5.36 8.98,5.15 10.97,9.96 1.99,4.8 -3.48,10.01 -0.72,14.8 2.77,4.8 10.01,2.65 13.18,6.77 3.17,4.13 -0.78,10.57 3.14,14.5 3.92,3.91 10.36,-0.03 14.49,3.14 4.13,3.16 1.98,10.4 6.78,13.18 4.8,2.77 10,-2.72 14.8,-0.72 4.8,1.99 4.61,9.55 9.96,10.98 5.35,1.43 8.96,-5.2 14.11,-4.53 5.17,0.67 6.92,8.02 12.46,8.02 5.54,0 7.3,-7.35 12.46,-8.02 5.15,-0.67 8.75,5.97 14.11,4.53 5.36,-1.43 5.15,-8.98 9.96,-10.98 4.8,-2 9.99,3.5 14.8,0.72 4.8,-2.78 2.65,-10.02 6.78,-13.19 4.12,-3.16 10.56,0.78 14.48,-3.13 3.91,-3.93 -0.04,-10.37 3.13,-14.49 3.17,-4.13 10.42,-1.98 13.18,-6.78 2.77,-4.8 -2.71,-10 -0.72,-14.8 2,-4.8 9.54,-4.61 10.98,-9.96 1.43,-5.35 -5.2,-8.96 -4.52,-14.11 0.67,-5.16 8.02,-6.92 8.02,-12.46 0,-5.53 -7.35,-7.3 -8.02,-12.46 -0.69,-5.15 5.96,-8.76 4.52,-14.11 -1.43,-5.35 -8.98,-5.15 -10.98,-9.96 -1.98,-4.8 3.5,-10 0.72,-14.8 -2.77,-4.81 -10.01,-2.65 -13.18,-6.78z"/>
     <path class="fil8" d="M1509.68 751.32c0.47,-3.6 5.61,-4.83 5.61,-8.71 0,-3.87 -5.14,-5.1 -5.61,-8.7 -0.47,-3.61 4.17,-6.12 3.17,-9.87 -1,-3.73 -6.28,-3.6 -7.68,-6.95 -1.39,-3.36 2.44,-6.99 0.51,-10.35 -1.94,-3.35 -7,-1.85 -9.21,-4.73 -2.21,-2.89 0.55,-7.39 -2.19,-10.13 -2.74,-2.74 -7.24,0.02 -10.12,-2.19 -2.88,-2.21 -1.38,-7.27 -4.73,-9.2 -3.36,-1.94 -6.99,1.89 -10.35,0.5 -3.36,-1.4 -3.22,-6.67 -6.96,-7.67 -3.74,-1 -6.26,3.64 -9.86,3.16 -3.61,-0.47 -4.84,-5.61 -8.71,-5.61 -3.87,0 -5.1,5.13 -8.71,5.61 -3.6,0.48 -6.12,-4.17 -9.86,-3.16 -3.74,1 -3.6,6.28 -6.96,7.67 -3.36,1.39 -6.99,-2.44 -10.35,-0.51 -3.35,1.93 -1.85,7 -4.74,9.21 -2.88,2.22 -7.39,-0.54 -10.12,2.19 -2.74,2.74 0.02,7.24 -2.19,10.12 -2.21,2.89 -7.28,1.39 -9.21,4.74 -1.94,3.35 1.89,6.99 0.51,10.35 -1.39,3.36 -6.67,3.22 -7.67,6.96 -1,3.74 3.63,6.26 3.17,9.86 -0.48,3.61 -5.61,4.83 -5.61,8.7 0,3.88 5.14,5.11 5.61,8.71 0.47,3.61 -4.17,6.13 -3.17,9.87 1,3.74 6.28,3.6 7.67,6.96 1.39,3.36 -2.44,6.99 -0.51,10.34 1.94,3.35 7,1.85 9.21,4.74 2.22,2.89 -0.55,7.39 2.19,10.13 2.74,2.74 7.24,-0.03 10.12,2.19 2.88,2.21 1.38,7.28 4.74,9.21 3.35,1.94 6.98,-1.89 10.35,-0.51 3.36,1.4 3.22,6.68 6.96,7.68 3.74,1 6.26,-3.64 9.86,-3.17 3.61,0.48 4.84,5.61 8.71,5.61 3.87,0 5.1,-5.13 8.71,-5.61 3.6,-0.47 6.12,4.17 9.86,3.17 3.74,-1 3.6,-6.28 6.96,-7.68 3.36,-1.39 6.99,2.44 10.35,0.51 3.35,-1.93 1.85,-7 4.73,-9.21 2.89,-2.22 7.39,0.55 10.12,-2.19 2.74,-2.74 -0.02,-7.24 2.19,-10.13 2.21,-2.89 7.28,-1.38 9.21,-4.74 1.94,-3.35 -1.9,-6.98 -0.51,-10.34 1.4,-3.36 6.67,-3.22 7.68,-6.96 1,-3.75 -3.64,-6.26 -3.17,-9.87z"/>
     <path class="fil14" d="M1941.16 810.07c0.47,-3.6 5.61,-4.83 5.61,-8.71 0,-3.87 -5.13,-5.1 -5.61,-8.71 -0.48,-3.6 4.17,-6.12 3.16,-9.86 -1,-3.74 -6.28,-3.61 -7.67,-6.96 -1.39,-3.35 2.43,-6.99 0.5,-10.34 -1.93,-3.35 -7,-1.85 -9.21,-4.74 -2.22,-2.88 0.55,-7.39 -2.19,-10.13 -2.74,-2.74 -7.25,0.02 -10.13,-2.19 -2.88,-2.21 -1.38,-7.28 -4.73,-9.21 -3.35,-1.94 -6.99,1.89 -10.34,0.5 -3.37,-1.39 -3.22,-6.67 -6.96,-7.67 -3.74,-1 -6.26,3.63 -9.86,3.17 -3.6,-0.48 -4.84,-5.61 -8.71,-5.61 -3.86,0 -5.1,5.13 -8.7,5.61 -3.61,0.47 -6.12,-4.17 -9.86,-3.17 -3.74,1 -3.6,6.28 -6.96,7.67 -3.35,1.39 -6.99,-2.44 -10.34,-0.5 -3.35,1.93 -1.85,7 -4.73,9.21 -2.88,2.21 -7.39,-0.55 -10.13,2.19 -2.74,2.74 0.03,7.23 -2.19,10.12 -2.2,2.89 -7.28,1.39 -9.21,4.74 -1.93,3.35 1.89,6.99 0.5,10.34 -1.39,3.36 -6.67,3.22 -7.67,6.96 -1,3.74 3.64,6.26 3.16,9.86 -0.47,3.61 -5.61,4.83 -5.61,8.71 0,3.87 5.14,5.11 5.61,8.71 0.48,3.6 -4.16,6.13 -3.16,9.86 1,3.74 6.28,3.6 7.67,6.96 1.39,3.36 -2.43,6.99 -0.5,10.34 1.93,3.36 7,1.85 9.21,4.74 2.22,2.89 -0.55,7.39 2.19,10.13 2.74,2.74 7.25,-0.02 10.13,2.19 2.88,2.21 1.38,7.28 4.73,9.21 3.35,1.94 6.99,-1.89 10.34,-0.5 3.37,1.39 3.22,6.67 6.96,7.67 3.74,1 6.26,-3.64 9.86,-3.17 3.6,0.48 4.84,5.61 8.7,5.61 3.87,0 5.11,-5.13 8.71,-5.61 3.61,-0.47 6.12,4.17 9.86,3.17 3.74,-1 3.6,-6.28 6.96,-7.67 3.35,-1.39 6.99,2.44 10.34,0.5 3.35,-1.93 1.85,-7 4.73,-9.21 2.89,-2.21 7.39,0.55 10.13,-2.19 2.73,-2.74 -0.03,-7.24 2.19,-10.13 2.21,-2.88 7.28,-1.38 9.21,-4.74 1.93,-3.35 -1.89,-6.98 -0.5,-10.34 1.39,-3.36 6.66,-3.22 7.67,-6.96 1,-3.74 -3.64,-6.26 -3.16,-9.86z"/>
     <path class="fil8" d="M1584.45 832.25c-6.68,-0.87 -8.97,-10.39 -16.15,-10.39 -7.19,0 -9.46,9.52 -16.15,10.39 -6.68,0.88 -11.36,-7.72 -18.29,-5.86 -6.93,1.85 -6.67,11.63 -12.9,14.22 -6.22,2.58 -12.96,-4.52 -19.18,-0.93 -6.22,3.58 -3.44,12.98 -8.78,17.07 -5.35,4.11 -13.69,-1.01 -18.77,4.06 -5.07,5.08 0.04,13.43 -4.06,18.76 -4.1,5.35 -13.48,2.56 -17.07,8.79 -3.58,6.22 3.52,12.96 0.93,19.19 -2.58,6.22 -12.36,5.96 -14.22,12.89 -1.86,6.94 6.75,11.61 5.86,18.29 -0.88,6.67 -10.4,8.96 -10.4,16.14 -0,7.18 9.52,9.46 10.4,16.14 0.88,6.68 -7.72,11.35 -5.87,18.28 1.86,6.94 11.65,6.69 14.22,12.9 2.58,6.24 -4.52,12.96 -0.93,19.18 3.59,6.23 12.98,3.44 17.07,8.78 4.11,5.35 -1.01,13.7 4.07,18.78 5.07,5.07 13.42,-0.04 18.77,4.06 5.34,4.1 2.56,13.48 8.78,17.07 6.21,3.6 12.95,-3.51 19.17,-0.93 6.23,2.58 5.97,12.37 12.91,14.22 6.93,1.86 11.59,-6.75 18.28,-5.87 6.69,0.88 8.96,10.41 16.15,10.41 7.18,0 9.46,-9.52 16.15,-10.41 6.68,-0.88 11.35,7.73 18.28,5.88 6.94,-1.86 6.68,-11.65 12.9,-14.23 6.22,-2.58 12.97,4.52 19.19,0.93 6.2,-3.59 3.43,-12.96 8.77,-17.07 5.35,-4.1 13.7,1.02 18.78,-4.06 5.07,-5.08 -0.05,-13.44 4.06,-18.78 4.1,-5.33 13.48,-2.55 17.08,-8.78 3.59,-6.22 -3.52,-12.94 -0.94,-19.18 2.57,-6.22 12.37,-5.96 14.23,-12.9 1.85,-6.93 -6.75,-11.59 -5.88,-18.29 0.88,-6.68 10.39,-8.95 10.39,-16.13 0,-7.19 -9.52,-9.47 -10.39,-16.14 -0.88,-6.69 7.73,-11.35 5.87,-18.29 -1.86,-6.93 -11.65,-6.67 -14.22,-12.9 -2.57,-6.22 4.52,-12.96 0.93,-19.18 -3.59,-6.22 -12.97,-3.44 -17.07,-8.79 -4.11,-5.34 1.01,-13.68 -4.06,-18.76 -5.08,-5.07 -13.43,0.04 -18.78,-4.06 -5.35,-4.09 -2.57,-13.49 -8.77,-17.07 -6.21,-3.59 -12.95,3.52 -19.19,0.93 -6.22,-2.58 -5.96,-12.36 -12.9,-14.22 -6.94,-1.87 -11.6,6.74 -18.28,5.86z"/>
     <path class="fil14" d="M1816.1 827.12c-3.62,-4.72 0.9,-12.09 -3.59,-16.58 -4.49,-4.48 -11.86,0.04 -16.58,-3.59 -4.71,-3.62 -2.26,-11.91 -7.75,-15.08 -5.49,-3.17 -11.44,3.09 -16.94,0.82 -5.5,-2.28 -5.27,-10.92 -11.39,-12.56 -6.13,-1.64 -10.26,5.96 -16.15,5.19 -5.9,-0.78 -7.91,-9.18 -14.26,-9.18 -6.34,0 -8.35,8.4 -14.26,9.18 -5.89,0.78 -10.02,-6.82 -16.14,-5.19 -6.13,1.65 -5.89,10.28 -11.39,12.56 -5.5,2.28 -11.45,-4 -16.94,-0.82 -5.49,3.17 -3.04,11.46 -7.76,15.08 -4.72,3.63 -12.09,-0.9 -16.57,3.59 -4.49,4.48 0.03,11.86 -3.59,16.58 -3.62,4.72 -11.91,2.26 -15.09,7.76 -3.16,5.49 3.11,11.44 0.83,16.93 -2.27,5.5 -10.92,5.27 -12.56,11.4 -1.65,6.13 5.95,10.24 5.17,16.14 -0.78,5.91 -9.18,7.92 -9.18,14.26 0,6.34 8.41,8.36 9.18,14.26 0.79,5.91 -6.82,10.02 -5.17,16.15 1.64,6.13 10.28,5.9 12.56,11.39 2.28,5.5 -3.99,11.45 -0.82,16.94 3.17,5.5 11.45,3.04 15.08,7.75 3.62,4.72 -0.9,12.09 3.59,16.58 4.48,4.48 11.85,-0.04 16.57,3.59 4.72,3.62 2.27,11.9 7.76,15.08 5.49,3.17 11.44,-3.11 16.94,-0.83 5.5,2.28 5.27,10.92 11.39,12.56 6.12,1.63 10.25,-5.96 16.15,-5.19 5.9,0.78 7.91,9.18 14.26,9.19 6.34,-0.01 8.35,-8.42 14.25,-9.19 5.9,-0.78 10.03,6.83 16.15,5.19 6.12,-1.65 5.89,-10.28 11.39,-12.56 5.5,-2.28 11.45,4 16.94,0.83 5.49,-3.18 3.04,-11.46 7.76,-15.09 4.72,-3.62 12.08,0.9 16.57,-3.59 4.49,-4.48 -0.04,-11.85 3.59,-16.57 3.62,-4.72 11.91,-2.26 15.08,-7.76 3.17,-5.49 -3.09,-11.44 -0.82,-16.94 2.27,-5.49 10.92,-5.27 12.56,-11.39 1.65,-6.13 -5.95,-10.24 -5.18,-16.15 0.77,-5.9 9.19,-7.91 9.19,-14.26 0,-6.33 -8.42,-8.35 -9.19,-14.25 -0.78,-5.91 6.83,-10.03 5.18,-16.15 -1.64,-6.12 -10.28,-5.89 -12.56,-11.4 -2.27,-5.49 4,-11.44 0.83,-16.93 -3.17,-5.5 -11.46,-3.04 -15.08,-7.76z"/>
     <path class="fil8" d="M1859.1 694.91c-3.17,-4.13 0.78,-10.56 -3.14,-14.48 -3.91,-3.93 -10.35,0.03 -14.48,-3.14 -4.12,-3.17 -1.97,-10.41 -6.78,-13.18 -4.8,-2.77 -10,2.71 -14.8,0.72 -4.8,-1.99 -4.61,-9.54 -9.96,-10.98 -5.34,-1.43 -8.94,5.21 -14.11,4.54 -5.16,-0.68 -6.92,-8.03 -12.46,-8.03 -5.54,0 -7.3,7.35 -12.46,8.02 -5.15,0.68 -8.75,-5.96 -14.11,-4.52 -5.35,1.44 -5.15,8.98 -9.96,10.98 -4.8,1.99 -10,-3.49 -14.8,-0.72 -4.8,2.77 -2.65,10.01 -6.78,13.17 -4.12,3.17 -10.56,-0.78 -14.48,3.14 -3.92,3.91 0.04,10.36 -3.13,14.48 -3.17,4.13 -10.41,1.98 -13.18,6.78 -2.77,4.8 2.71,10 0.71,14.8 -1.98,4.8 -9.54,4.61 -10.98,9.96 -1.43,5.35 5.21,8.96 4.53,14.11 -0.67,5.16 -8.02,6.91 -8.02,12.46 0,5.54 7.35,7.3 8.02,12.46 0.69,5.16 -5.96,8.76 -4.53,14.11 1.44,5.35 8.98,5.15 10.98,9.96 2,4.8 -3.48,10 -0.71,14.8 2.77,4.8 10.01,2.65 13.18,6.78 3.17,4.13 -0.79,10.57 3.13,14.49 3.92,3.92 10.36,-0.03 14.49,3.13 4.12,3.16 1.97,10.41 6.77,13.18 4.81,2.77 10,-2.72 14.8,-0.72 4.81,1.99 4.61,9.54 9.96,10.98 5.36,1.43 8.96,-5.21 14.12,-4.53 5.15,0.68 6.91,8.02 12.45,8.03 5.54,-0.01 7.31,-7.35 12.46,-8.03 5.17,-0.68 8.76,5.96 14.12,4.53 5.35,-1.44 5.14,-8.99 9.94,-10.98 4.81,-1.99 10.01,3.5 14.81,0.72 4.8,-2.77 2.65,-10.01 6.77,-13.18 4.13,-3.17 10.57,0.78 14.48,-3.13 3.92,-3.92 -0.03,-10.36 3.14,-14.49 3.16,-4.13 10.4,-1.98 13.17,-6.78 2.77,-4.8 -2.71,-9.99 -0.72,-14.8 1.98,-4.81 9.54,-4.61 10.97,-9.96 1.44,-5.35 -5.2,-8.95 -4.53,-14.11 0.69,-5.16 8.03,-6.92 8.04,-12.46 0,-5.54 -7.35,-7.3 -8.04,-12.46 -0.67,-5.16 5.96,-8.76 4.53,-14.11 -1.43,-5.35 -8.99,-5.15 -10.98,-9.96 -1.98,-4.81 3.5,-10 0.72,-14.8 -2.77,-4.81 -10.02,-2.66 -13.17,-6.78z"/>
     <path class="fil11" d="M1497.93 828.09c-3.17,-4.13 0.78,-10.57 -3.13,-14.48 -3.92,-3.93 -10.36,0.03 -14.49,-3.14 -4.12,-3.16 -1.98,-10.41 -6.78,-13.17 -4.8,-2.77 -10,2.71 -14.8,0.72 -4.8,-1.99 -4.61,-9.54 -9.96,-10.98 -5.35,-1.43 -8.95,5.21 -14.11,4.53 -5.16,-0.68 -6.92,-8.03 -12.46,-8.03 -5.54,0 -7.3,7.35 -12.46,8.03 -5.15,0.68 -8.76,-5.96 -14.11,-4.53 -5.35,1.44 -5.15,8.99 -9.96,10.98 -4.81,1.99 -10,-3.49 -14.8,-0.72 -4.8,2.77 -2.65,10.01 -6.78,13.17 -4.12,3.17 -10.56,-0.78 -14.48,3.14 -3.92,3.91 0.03,10.35 -3.14,14.48 -3.17,4.13 -10.41,1.98 -13.18,6.78 -2.77,4.8 2.71,10 0.72,14.8 -1.99,4.81 -9.54,4.61 -10.98,9.96 -1.44,5.35 5.21,8.96 4.52,14.11 -0.67,5.16 -8.02,6.92 -8.02,12.46 0,5.54 7.35,7.31 8.03,12.46 0.68,5.16 -5.96,8.76 -4.53,14.11 1.43,5.35 8.98,5.15 10.97,9.96 2,4.8 -3.48,10 -0.72,14.8 2.77,4.8 10.01,2.65 13.18,6.77 3.17,4.13 -0.78,10.57 3.14,14.49 3.92,3.92 10.36,-0.04 14.48,3.13 4.13,3.17 1.98,10.4 6.78,13.18 4.8,2.77 10,-2.71 14.8,-0.72 4.81,1.99 4.61,9.55 9.96,10.98 5.35,1.43 8.96,-5.22 14.11,-4.53 5.16,0.67 6.92,8.02 12.46,8.02 5.54,0 7.3,-7.35 12.46,-8.02 5.16,-0.69 8.76,5.96 14.11,4.53 5.35,-1.43 5.15,-8.99 9.95,-10.98 4.81,-1.99 10,3.5 14.81,0.72 4.8,-2.78 2.65,-10.01 6.78,-13.19 4.13,-3.17 10.56,0.78 14.48,-3.13 3.92,-3.92 -0.03,-10.35 3.14,-14.48 3.17,-4.13 10.41,-1.98 13.18,-6.78 2.77,-4.8 -2.71,-9.99 -0.72,-14.8 1.99,-4.8 9.54,-4.61 10.98,-9.96 1.43,-5.35 -5.2,-8.95 -4.53,-14.11 0.67,-5.15 8.02,-6.92 8.02,-12.46 0,-5.53 -7.35,-7.3 -8.02,-12.45 -0.69,-5.16 5.96,-8.76 4.53,-14.11 -1.43,-5.35 -8.99,-5.15 -10.98,-9.96 -1.98,-4.8 3.49,-10 0.72,-14.8 -2.77,-4.81 -10.02,-2.65 -13.18,-6.78z"/>
     <path class="fil11" d="M1913.5 840.5c-4.02,-3.26 -1.7,-10.39 -6.39,-13.26 -4.69,-2.88 -9.99,2.43 -14.71,0.32 -4.71,-2.09 -4.32,-9.59 -9.6,-11.15 -5.28,-1.56 -9.02,4.93 -14.12,4.13 -5.1,-0.81 -6.67,-8.15 -12.16,-8.29 -5.51,-0.15 -7.44,7.1 -12.58,7.64 -5.13,0.54 -8.54,-6.15 -13.88,-4.86 -5.36,1.28 -5.36,8.78 -10.17,10.63 -4.82,1.85 -9.84,-3.72 -14.67,-1.1 -4.83,2.63 -2.89,9.87 -7.07,12.91 -4.18,3.04 -10.46,-1.05 -14.45,2.74 -4,3.79 -0.25,10.28 -3.5,14.3 -3.25,4.01 -10.39,1.69 -13.26,6.38 -2.87,4.69 2.43,10 0.33,14.71 -2.09,4.71 -9.59,4.32 -11.15,9.59 -1.57,5.28 4.94,9.02 4.13,14.13 -0.81,5.09 -8.15,6.65 -8.29,12.16 -0.15,5.5 7.09,7.44 7.63,12.57 0.54,5.14 -6.15,8.54 -4.86,13.89 1.28,5.35 8.78,5.35 10.63,10.17 1.85,4.82 -3.73,9.84 -1.11,14.67 2.63,4.84 9.87,2.89 12.91,7.07 3.04,4.18 -1.05,10.48 2.73,14.46 3.78,3.99 10.27,0.24 14.29,3.48 4.02,3.26 1.69,10.39 6.39,13.26 4.69,2.87 10,-2.42 14.71,-0.32 4.71,2.09 4.32,9.59 9.6,11.15 5.28,1.56 9.02,-4.94 14.12,-4.12 5.1,0.8 6.67,8.15 12.17,8.28 5.49,0.14 7.43,-7.09 12.57,-7.64 5.13,-0.54 8.54,6.15 13.89,4.87 5.35,-1.29 5.34,-8.79 10.16,-10.65 4.83,-1.85 9.85,3.73 14.68,1.11 4.83,-2.62 2.89,-9.87 7.07,-12.9 4.18,-3.05 10.46,1.06 14.46,-2.74 3.99,-3.78 0.24,-10.28 3.49,-14.29 3.25,-4.02 10.37,-1.69 13.26,-6.38 2.87,-4.69 -2.43,-10 -0.33,-14.72 2.09,-4.71 9.59,-4.32 11.15,-9.59 1.56,-5.28 -4.94,-9.02 -4.13,-14.13 0.81,-5.1 8.15,-6.66 8.29,-12.16 0.14,-5.5 -7.09,-7.44 -7.63,-12.57 -0.54,-5.14 6.15,-8.55 4.87,-13.89 -1.29,-5.35 -8.8,-5.35 -10.64,-10.17 -1.85,-4.82 3.72,-9.84 1.1,-14.67 -2.61,-4.84 -9.87,-2.89 -12.91,-7.07 -3.03,-4.18 1.06,-10.47 -2.73,-14.46 -3.78,-4 -10.28,-0.24 -14.29,-3.49z"/>
     <path class="fil11" d="M1699.59 646.73c-5.22,-4.3 -2.11,-13.63 -8.22,-17.44 -6.11,-3.83 -13.14,3.06 -19.29,0.26 -6.16,-2.81 -5.56,-12.62 -12.46,-14.73 -6.89,-2.11 -11.88,6.36 -18.56,5.25 -6.68,-1.12 -8.65,-10.76 -15.84,-11.01 -7.21,-0.25 -9.84,9.23 -16.57,9.88 -6.74,0.65 -11.13,-8.16 -18.16,-6.54 -7.03,1.62 -7.11,11.46 -13.45,13.83 -6.33,2.37 -12.85,-4.99 -19.22,-1.6 -6.37,3.39 -3.9,12.9 -9.42,16.83 -5.51,3.93 -13.71,-1.5 -18.98,3.42 -5.28,4.92 -0.43,13.48 -4.74,18.7 -4.31,5.23 -13.63,2.1 -17.45,8.22 -3.82,6.11 3.08,13.13 0.27,19.28 -2.81,6.17 -12.62,5.56 -14.73,12.46 -2.1,6.9 6.37,11.89 5.25,18.56 -1.11,6.68 -10.75,8.64 -11,15.85 -0.25,7.21 9.22,9.83 9.87,16.56 0.65,6.74 -8.15,11.13 -6.53,18.16 1.62,7.03 11.46,7.11 13.83,13.44 2.37,6.35 -5,12.86 -1.61,19.23 3.38,6.37 12.9,3.9 16.83,9.41 3.93,5.51 -1.49,13.72 3.43,18.99 4.92,5.27 13.47,0.43 18.7,4.73 5.22,4.31 2.1,13.64 8.22,17.46 6.12,3.82 13.13,-3.07 19.29,-0.27 6.16,2.8 5.56,12.62 12.45,14.73 6.9,2.11 11.88,-6.37 18.56,-5.25 6.68,1.12 8.64,10.75 15.85,11 7.2,0.25 9.83,-9.22 16.57,-9.88 6.74,-0.65 11.12,8.15 18.15,6.54 7.04,-1.63 7.11,-11.46 13.45,-13.83 6.34,-2.37 12.85,5 19.23,1.61 6.36,-3.39 3.89,-12.91 9.4,-16.85 5.51,-3.93 13.71,1.5 19,-3.42 5.26,-4.92 0.42,-13.48 4.72,-18.71 4.31,-5.22 13.63,-2.1 17.45,-8.21 3.82,-6.11 -3.07,-13.13 -0.27,-19.29 2.81,-6.16 12.63,-5.56 14.73,-12.46 2.11,-6.9 -6.37,-11.88 -5.24,-18.57 1.11,-6.67 10.74,-8.63 11,-15.84 0.26,-7.21 -9.22,-9.83 -9.88,-16.57 -0.65,-6.74 8.15,-11.13 6.54,-18.16 -1.63,-7.02 -11.46,-7.1 -13.83,-13.44 -2.37,-6.34 4.98,-12.86 1.61,-19.22 -3.39,-6.36 -12.91,-3.9 -16.84,-9.41 -3.93,-5.51 1.5,-13.71 -3.43,-18.98 -4.92,-5.28 -13.47,-0.43 -18.7,-4.74z"/>
     <path class="fil14" d="M1586.07 825.71c0.47,-3.61 5.61,-4.84 5.61,-8.71 0,-3.87 -5.13,-5.11 -5.61,-8.71 -0.48,-3.6 4.17,-6.12 3.16,-9.87 -1,-3.74 -6.28,-3.6 -7.67,-6.95 -1.39,-3.36 2.44,-7 0.51,-10.35 -1.94,-3.35 -7,-1.85 -9.22,-4.73 -2.21,-2.89 0.55,-7.39 -2.19,-10.13 -2.74,-2.74 -7.24,0.02 -10.13,-2.19 -2.88,-2.2 -1.38,-7.27 -4.74,-9.2 -3.35,-1.94 -6.99,1.89 -10.34,0.5 -3.36,-1.39 -3.22,-6.67 -6.96,-7.67 -3.74,-1 -6.26,3.64 -9.86,3.17 -3.6,-0.48 -4.83,-5.61 -8.71,-5.61 -3.87,0 -5.11,5.14 -8.7,5.61 -3.61,0.47 -6.12,-4.17 -9.87,-3.17 -3.74,1 -3.6,6.28 -6.96,7.67 -3.36,1.39 -7,-2.44 -10.35,-0.5 -3.35,1.93 -1.85,7 -4.74,9.21 -2.88,2.22 -7.38,-0.54 -10.12,2.19 -2.74,2.74 0.02,7.24 -2.19,10.12 -2.21,2.89 -7.28,1.39 -9.21,4.74 -1.94,3.35 1.89,6.99 0.5,10.35 -1.39,3.36 -6.67,3.22 -7.67,6.96 -1,3.74 3.64,6.26 3.17,9.86 -0.48,3.6 -5.61,4.83 -5.61,8.71 0,3.87 5.14,5.1 5.61,8.71 0.48,3.6 -4.17,6.12 -3.17,9.86 1,3.74 6.28,3.6 7.67,6.96 1.39,3.36 -2.44,6.99 -0.5,10.35 1.93,3.35 7,1.85 9.21,4.74 2.21,2.89 -0.55,7.38 2.19,10.13 2.74,2.74 7.24,-0.03 10.12,2.19 2.88,2.21 1.38,7.27 4.74,9.21 3.35,1.93 6.99,-1.89 10.35,-0.51 3.36,1.39 3.21,6.67 6.96,7.68 3.74,1 6.26,-3.65 9.87,-3.17 3.6,0.48 4.83,5.61 8.7,5.61 3.87,0 5.11,-5.13 8.71,-5.61 3.61,-0.48 6.12,4.17 9.86,3.16 3.74,-1 3.6,-6.28 6.96,-7.67 3.35,-1.39 6.99,2.44 10.34,0.51 3.36,-1.94 1.85,-7 4.74,-9.21 2.89,-2.22 7.39,0.54 10.13,-2.19 2.74,-2.74 -0.02,-7.24 2.19,-10.13 2.21,-2.89 7.28,-1.39 9.22,-4.74 1.93,-3.35 -1.9,-6.99 -0.51,-10.35 1.39,-3.36 6.67,-3.22 7.67,-6.96 1,-3.75 -3.64,-6.26 -3.16,-9.86z"/>
     <path class="fil14" d="M1477.46 1002.97c0.54,-4.13 6.43,-5.54 6.43,-9.98 0,-4.44 -5.88,-5.84 -6.43,-9.98 -0.54,-4.12 4.77,-7.01 3.63,-11.29 -1.15,-4.28 -7.19,-4.13 -8.79,-7.97 -1.59,-3.84 2.8,-8 0.58,-11.85 -2.22,-3.84 -8.02,-2.12 -10.55,-5.42 -2.54,-3.3 0.63,-8.46 -2.51,-11.59 -3.14,-3.14 -8.3,0.02 -11.6,-2.51 -3.3,-2.54 -1.58,-8.33 -5.42,-10.55 -3.84,-2.22 -8,2.17 -11.85,0.57 -3.85,-1.59 -3.69,-7.64 -7.97,-8.78 -4.28,-1.15 -7.17,4.17 -11.29,3.62 -4.13,-0.54 -5.54,-6.43 -9.98,-6.43 -4.43,0 -5.84,5.88 -9.97,6.43 -4.13,0.54 -7.01,-4.78 -11.3,-3.62 -4.28,1.15 -4.12,7.19 -7.97,8.78 -3.84,1.59 -8,-2.79 -11.85,-0.57 -3.84,2.22 -2.12,8.01 -5.42,10.55 -3.31,2.53 -8.46,-0.63 -11.6,2.51 -3.13,3.13 0.03,8.29 -2.51,11.59 -2.53,3.3 -8.33,1.58 -10.55,5.42 -2.22,3.85 2.17,8.01 0.58,11.85 -1.59,3.85 -7.64,3.69 -8.79,7.97 -1.15,4.28 4.17,7.17 3.63,11.29 -0.54,4.13 -6.43,5.54 -6.43,9.98 0,4.44 5.88,5.85 6.43,9.98 0.55,4.13 -4.77,7.01 -3.63,11.3 1.15,4.28 7.2,4.12 8.79,7.96 1.59,3.86 -2.8,8.02 -0.58,11.85 2.22,3.85 8.02,2.13 10.55,5.43 2.54,3.3 -0.63,8.46 2.51,11.59 3.14,3.14 8.29,-0.03 11.6,2.51 3.3,2.54 1.58,8.34 5.42,10.56 3.84,2.21 8,-2.18 11.85,-0.58 3.85,1.59 3.69,7.64 7.97,8.79 4.29,1.13 7.17,-4.17 11.3,-3.63 4.13,0.54 5.54,6.42 9.97,6.42 4.44,0 5.85,-5.88 9.98,-6.42 4.12,-0.54 7.01,4.76 11.29,3.63 4.28,-1.15 4.13,-7.2 7.97,-8.79 3.85,-1.59 8,2.79 11.85,0.57 3.84,-2.21 2.13,-8.02 5.43,-10.55 3.3,-2.54 8.46,0.62 11.59,-2.51 3.13,-3.13 -0.03,-8.29 2.51,-11.59 2.53,-3.3 8.33,-1.58 10.55,-5.43 2.22,-3.83 -2.18,-7.99 -0.58,-11.85 1.59,-3.84 7.63,-3.68 8.79,-7.96 1.15,-4.3 -4.17,-7.17 -3.63,-11.3z"/>
     <path class="fil13" d="M1818.83 928.66c0,0 -80.19,-1.59 -111.44,13.24 -31.26,14.83 -78.59,61.64 -85.31,115.33 -6.7,53.69 0.71,385.2 204.88,672.4l-470.5 0c0,0 -0.71,-470.77 168.84,-691.15 0,0 8.75,-46.91 -44.2,-40.59 1.46,-1.36 2.8,-2.79 2.8,-4.91 0,-4.44 -5.88,-5.84 -6.43,-9.98 -0.08,-0.59 -0.03,-1.17 0.1,-1.73 15.26,-2.8 52.15,-5.28 69.86,30.86 0,0 23.97,-23.16 45.87,-32.3 21.53,-9 85.04,-57.54 32.31,-109.52 2,-1.99 4.09,-3.78 6.89,-4.05 3.6,-0.35 6.52,2 9.54,4.02 2.11,2.46 3.78,4.48 4.03,4.82 7.61,10.65 14.02,22.36 16.09,35.43 1.03,6.44 -0.11,12.41 -0.19,18.81 -0.02,2.44 1.02,5.28 3.31,6.36 3.19,1.5 6.78,-1.22 9.44,-2.74 3.38,-1.92 6.7,-3.96 10.2,-5.66 8.48,-4.11 17.63,-6.98 26.9,-8.71 9.72,-1.81 20.37,-1.96 30.24,-1.99 8.28,-0.04 16.55,0.33 24.83,0.32 14.5,-0.03 29,0.01 43.5,-0.08 0.34,-0.01 8.44,-0.11 8.44,-0.04 0,0 6.67,-0.43 6.67,4.19 0,4.62 -1.33,7.65 -6.67,7.65z"/>
     <path class="fil11" d="M1250.62 1729.64l407.22 0c-7.96,-105.49 -96.08,-239.71 -203.61,-239.71 -107.53,0 -195.64,134.22 -203.61,239.71z"/>
     <path class="fil14" d="M1232.22 1417.92c-112.78,0 -204.2,91.42 -204.2,204.2 0,19.57 2.76,89.61 7.9,107.52l392.6 0c5.14,-17.92 7.9,-87.96 7.9,-107.52 0,-112.78 -91.42,-204.2 -204.2,-204.2z"/>
     <path class="fil15" d="M1927.34 1452.26c-46.67,0 -84.5,37.83 -84.5,84.5l0 192.87 169.02 0 0 -192.87c0,-46.67 -37.83,-84.5 -84.51,-84.5z"/>
     <path class="fil16" d="M1808.89 1535.8c-28.79,0 -52.14,23.35 -52.14,52.14l0 141.7 104.27 0 0 -141.7c0,-28.79 -23.34,-52.14 -52.13,-52.14z"/>
     <path class="fil17" d="M1764.46 1614.92c-13.06,0 -23.63,10.57 -23.63,23.63l0 91.09 47.25 0 0 -91.09c0,-13.06 -10.57,-23.63 -23.62,-23.63z"/>
    </g>
   </g>
   <g>
    <path class="fil18" d="M2529.45 1275.52c-0.33,8.25 22.72,15.9 51.52,17.11 28.79,1.19 52.41,-4.53 52.76,-12.77 0.33,-8.25 -22.72,-15.9 -51.52,-17.09 -28.78,-1.19 -52.4,4.52 -52.75,12.76z"/>
    <path class="fil19" d="M2606.36 680.55l-0.24 -0.01c-6.47,-0.27 -11.93,4.76 -12.19,11.22l-1.96 47.04 23.65 0.98 1.94 -47.03c0.27,-6.47 -4.75,-11.93 -11.22,-12.19z"/>
    <path class="fil20" d="M2616.1 728.33l-23.64 -0.98 -45.33 119.2c28.56,32.65 58.08,60.47 104.28,4.33l-35.3 -122.54z"/>
    <path class="fil19" d="M2572.58 862.26c19.18,-19.72 36.39,-17.04 52.14,2.17l-17.07 414.36 -52.14 -2.17 17.07 -414.36z"/>
    <path class="fil21" d="M2651.39 850.91c-8.46,-0.34 -19.45,0.7 -26.66,13.51l-17.07 414.36 26.07 1.08 17.66 -428.95z"/>
    <path class="fil18" d="M2547.13 846.58c8.46,0.36 19.33,2.31 25.46,15.68l-17.07 414.36 -26.07 -1.09 17.68 -428.94z"/>
    <path class="fil22" d="M2435.63 1745.76c6.21,5.44 26.65,-7.72 45.65,-29.37 19.01,-21.65 29.39,-43.64 23.19,-49.08 -6.21,-5.43 -26.64,7.71 -45.65,29.37 -19.01,21.67 -29.38,43.63 -23.19,49.08z"/>
    <path class="fil23" d="M1948.64 1248.89l-0.16 0.19c-4.27,4.86 -3.79,12.27 1.07,16.54l35.39 31.04 15.61 -17.79 -35.39 -31.04c-4.86,-4.27 -12.27,-3.79 -16.53,1.07z"/>
    <path class="fil20" d="M1991.95 1271.31l-15.61 17.78 64.32 110.12c43.35,-1.74 83.52,-7.26 68.83,-78.44l-117.54 -49.46z"/>
    <path class="fil23" d="M2068.87 1389.25c-3.3,-27.31 9.58,-39.01 34.42,-39.22l383.96 336.89 -34.42 39.23 -383.96 -336.9z"/>
    <path class="fil24" d="M2109.52 1320.8c-5.57,6.37 -11.67,15.57 -6.22,29.24l383.96 336.89 17.21 -19.62 -394.94 -346.51z"/>
    <path class="fil25" d="M2040.7 1399.24c5.59,-6.37 13.92,-13.6 28.17,-9.98l383.96 336.9 -17.2 19.61 -394.93 -346.52z"/>
    <path class="fil26" d="M2369.21 1528.14c4.33,7.01 27.72,0.43 52.24,-14.72 24.52,-15.15 40.87,-33.11 36.54,-40.13 -4.34,-7.02 -27.72,-0.43 -52.25,14.72 -24.52,15.15 -40.87,33.12 -36.53,40.14z"/>
    <path class="fil27" d="M2049.09 910.43l-0.2 0.12c-5.5,3.4 -7.21,10.62 -3.8,16.13l24.72 40.04 20.14 -12.44 -24.74 -40.06c-3.39,-5.5 -10.61,-7.2 -16.12,-3.8z"/>
    <path class="fil20" d="M2083.93 944.54l-20.14 12.44 29.26 124.13c41.96,11.05 82,17.52 88.79,-54.84l-97.91 -81.72z"/>
    <path class="fil27" d="M2122.94 1079.84c4.83,-27.08 20.59,-34.5 44.4,-27.41l268.44 434.57 -44.39 27.43 -268.46 -434.59z"/>
    <path class="fil28" d="M2181.85 1026.29c-7.2,4.46 -15.72,11.48 -14.51,26.14l268.44 434.57 22.2 -13.72 -276.13 -447z"/>
    <path class="fil29" d="M2093.07 1081.14c7.21,-4.45 17.3,-8.94 29.87,-1.28l268.46 434.57 -22.19 13.71 -276.13 -447z"/>
    <path class="fil30" d="M2560.4 1757.82c2.41,7.9 26.7,7.48 54.27,-0.92 27.57,-8.4 47.97,-21.6 45.56,-29.5 -2.4,-7.89 -26.7,-7.48 -54.27,0.93 -27.57,8.39 -47.95,21.6 -45.56,29.5z"/>
    <path class="fil31" d="M2371.52 957.74l-0.22 0.07c-6.2,1.88 -9.69,8.43 -7.8,14.62l13.71 45.04 22.65 -6.91 -13.73 -45.02c-1.88,-6.19 -8.43,-9.67 -14.61,-7.79z"/>
    <path class="fil20" d="M2396.52 999.61l-22.64 6.9 -3.33 127.47c37.76,21.37 74.81,37.84 99.83,-30.41l-73.85 -103.96z"/>
    <path class="fil31" d="M2399.78 1140.39c11.56,-24.95 28.7,-28.11 49.91,-15.2l185.59 609.82 -49.91 15.2 -185.59 -609.82z"/>
    <path class="fil32" d="M2470.38 1103.61c-8.1,2.48 -18.13,7.08 -20.7,21.57l185.59 609.82 24.95 -7.61 -189.85 -623.78z"/>
    <path class="fil33" d="M2370.56 1134.02c8.1,-2.46 19,-4.23 29.22,6.37l185.59 609.82 -24.96 7.61 -189.84 -623.8z"/>
    <path class="fil34" d="M2591.68 1467.89c-2.8,7.77 16.91,21.98 44.02,31.76 27.11,9.76 51.36,11.4 54.15,3.63 2.8,-7.77 -16.91,-21.98 -44.02,-31.74 -27.11,-9.78 -51.35,-11.41 -54.15,-3.64z"/>
    <path class="fil35" d="M2876.13 832.98l-0.23 -0.09c-6.08,-2.19 -12.8,0.98 -15,7.06l-15.96 44.29 22.27 8.02 15.96 -44.28c2.19,-6.09 -0.96,-12.8 -7.04,-14.99z"/>
    <path class="fil20" d="M2871.09 881.48l-22.26 -8.03 -78.97 100.12c17.45,39.72 37.28,75.1 98.17,35.39l3.07 -127.48z"/>
    <path class="fil35" d="M2789.43 996.2c24.21,-13.07 39.83,-5.34 49.1,17.69l-173.21 480.54 -49.1 -17.7 173.21 -480.53z"/>
    <path class="fil36" d="M2868.01 1009c-7.96,-2.87 -18.76,-5.18 -29.49,4.89l-173.21 480.54 24.54 8.84 178.16 -494.28z"/>
    <path class="fil37" d="M2769.84 973.61c7.96,2.88 17.74,7.99 19.58,22.59l-173.21 480.53 -24.54 -8.84 178.16 -494.28z"/>
   </g>
  </g>
 </g>
</svg>
