<?xml version="1.0" encoding="UTF-8"?>
<!DOCTYPE svg PUBLIC "-//W3C//DTD SVG 1.1//EN" "http://www.w3.org/Graphics/SVG/1.1/DTD/svg11.dtd">
<!-- Creator: CorelDRAW -->
<svg xmlns="http://www.w3.org/2000/svg" xml:space="preserve" width="94.1916mm" height="52.9166mm" version="1.1" style="shape-rendering:geometricPrecision; text-rendering:geometricPrecision; image-rendering:optimizeQuality; fill-rule:evenodd; clip-rule:evenodd"
viewBox="0 0 9419.16 5291.66"
 xmlns:xlink="http://www.w3.org/1999/xlink"
 xmlns:xodm="http://www.corel.com/coreldraw/odm/2003">
 <defs>
  <style type="text/css">
   <![CDATA[
    .fil0 {fill:#E6E7E8}
    .fil5 {fill:#4B4B4D;fill-rule:nonzero}
    .fil3 {fill:#F58634;fill-rule:nonzero}
    .fil6 {fill:#91D8F7;fill-rule:nonzero}
    .fil4 {fill:#0C73A5;fill-rule:nonzero}
    .fil7 {fill:white;fill-rule:nonzero}
    .fil2 {fill:#373435;fill-opacity:0.031373}
    .fil1 {fill:#373435;fill-opacity:0.101961}
   ]]>
  </style>
 </defs>
 <g id="Layer_x0020_1">
  <metadata id="CorelCorpID_0Corel-Layer"/>
  <polygon class="fil0" points="-0,0 9419.16,0 9419.16,5291.66 -0,5291.66 "/>
  <polygon class="fil1" points="5847.72,4737.05 6172.83,4613.15 5847.72,4737.05 6048.84,4737.05 6061.51,4736.41 6064.98,4735.88 6172.83,4613.15 6064.98,4735.88 6073.82,4734.53 6085.7,4731.48 6097.1,4727.32 6060.21,4741.31 5576.6,5291.66 6060.21,4741.31 4609.02,5291.66 4587.14,5291.66 4392.42,5291.66 4058.85,5291.66 3167.95,5291.66 2257.83,5291.66 2191.67,5291.66 1464.58,5291.66 1442.07,5291.66 1347.64,5291.66 1301.69,5291.66 1211.43,5291.66 1163.65,5291.66 1149.09,5291.66 1125.87,5291.66 1111.07,5291.66 1091.31,5291.66 1068.98,5291.66 1014.89,5291.66 946.72,5291.66 868.54,5291.66 842.29,5291.66 658.67,5291.66 599.39,5291.66 548.57,5291.66 521.69,5291.66 461.83,5291.66 431.06,5291.66 319.91,5291.66 296.13,5291.66 273.35,5291.66 163.35,5291.66 142.95,5291.66 119.9,5291.66 86.3,5291.66 63.91,5291.66 49.36,5291.66 -0,5291.66 -0,5290.24 -0,5279.62 -0,5228.01 -0,5220.39 -0,5213.82 -0,5206.13 -0,5188.43 -0,5150.77 -0,5124.61 -0,5103.57 -0,5047.42 -0,4979.04 -0,4941.16 -0,4936.66 -0,4925.66 -0,4917.21 -0,4902.49 -0,4889.22 -0,4883.84 -0,4875.49 -0,4851 -0,4814.3 -0,4769.64 -0,4756.34 -0,4756.17 -0,4755.85 -0,4755.63 -0,4745.06 -0,4627.81 -0,4588.06 -0,4545.18 -0,4495.93 -0,4492.46 -0,4419.03 -0,4417.46 -0,4408.4 -0,4396.33 -0,4343.97 -0,4330.42 -0,4235.53 -0,4232.24 -0,4122.93 -0,4074.93 -0,4073.64 -0,4044.01 -0,4042.02 -0,3987.61 -0,3969.43 -0,3967.48 -0,3966.33 -0,3946.17 -0,3941.1 -0,3874.67 -0,3872.98 -0,3867.55 -0,3859.76 -0,3852.05 -0,3812.27 -0,3806.35 -0,3805 -0,3777.45 -0,3694.11 -0,3659.95 -0,3643.66 -0,3618.57 -0,3598.17 -0,3531 -0,3480.85 -0,3443.4 -0,3436.81 -0,3434.04 -0,3421.01 -0,3403.98 -0,3388.57 -0,3385.3 -0,3261.17 -0,2280.09 2594.5,986.28 2594.5,2031.24 5437.1,683.69 5425.13,689.67 5414.02,696.7 5403.82,704.7 5394.57,713.58 5386.28,723.25 5379.01,733.62 5372.78,744.6 5367.63,756.11 5363.58,768.06 5360.69,780.37 5358.97,792.94 5358.47,805.68 5359.21,818.52 5361.24,831.36 5364.58,844.11 5369.28,856.69 5383.94,890.32 6065.86,569.79 6055,576.2 6044.84,583.61 6035.43,591.94 6026.86,601.14 6019.18,611.15 6012.46,621.91 6006.78,633.35 6002.2,645.41 5998.79,658.05 5996.61,671.19 5972.17,888.57 4957.58,1359.39 5095.02,1460.74 5089.33,1472.11 5083.79,1483.51 5078.4,1494.95 5073.15,1506.42 5068.06,1517.93 5064.47,1526.3 6678.98,784.87 6665.88,792.48 6653.7,801.63 6642.55,812.24 6632.55,824.28 6502.61,1000.13 4685.78,1829.21 4685.52,1829.35 4673.11,1837.17 4650.28,1852.58 4651.3,1860.39 4652.79,1866.75 5773.5,1355.9 5799.89,1344.95 5826.84,1335.18 5854.33,1326.62 5882.32,1319.29 5910.78,1313.23 5939.68,1308.46 5968.98,1305.02 5998.65,1302.93 6028.66,1302.23 6037.54,1302.29 6046.45,1302.48 6055.38,1302.8 6064.31,1303.25 6073.25,1303.82 6082.17,1304.52 6091.08,1305.34 6099.96,1306.29 6132.14,1310.74 6163.73,1316.76 6194.67,1324.3 6224.95,1333.31 6254.52,1343.76 6283.36,1355.59 6311.41,1368.77 6338.66,1383.24 6365.06,1398.97 6390.57,1415.91 6415.17,1434.02 6438.82,1453.25 6461.48,1473.55 6483.12,1494.89 6503.69,1517.22 6523.18,1540.5 6541.53,1564.67 6558.72,1589.7 6574.71,1615.54 6589.47,1642.16 6602.96,1669.49 6615.14,1697.5 6625.97,1726.15 6635.44,1755.39 6643.49,1785.17 6650.09,1815.46 6655.22,1846.2 6655.74,1850.67 7045.27,1680.62 7245.92,1593.24 6655.76,1850.87 6658.82,1877.36 6660.87,1908.89 6661.34,1940.74 6660.18,1972.87 6657.36,2005.24 6653.3,2035.01 6647.91,2064.29 6641.21,2093.05 6633.25,2121.25 6624.05,2148.88 6613.64,2175.9 6602.07,2202.27 6589.36,2227.98 6575.55,2252.98 6560.67,2277.26 6544.75,2300.78 6527.83,2323.51 6509.94,2345.42 6491.11,2366.48 6471.38,2386.67 6450.78,2405.94 6429.34,2424.28 6407.1,2441.65 6384.09,2458.03 6360.34,2473.37 6335.89,2487.66 6310.77,2500.87 6285.01,2512.95 5147.89,2997.01 5154.32,3004.82 5163.48,3013.92 5167.62,3017.3 7036.28,2223.01 7253.27,2247.43 7255.19,2247.62 7257.11,2247.79 7259.02,2247.93 7260.93,2248.04 7262.84,2248.13 7264.75,2248.19 7266.65,2248.23 7268.55,2248.24 7280.93,2247.66 7293.01,2245.95 7304.72,2243.17 7316.01,2239.36 5690.19,2925.76 5693.79,2927 5705.47,2930.88 5717.15,2934.6 5728.85,2938.16 5740.56,2941.56 5720.54,3120.44 6756.65,2687.72 6933.08,2817.59 6941.81,2823.5 6950.89,2828.67 6960.3,2833.08 6969.99,2836.71 6979.94,2839.56 6990.1,2841.61 7000.45,2842.85 7010.95,2843.27 7026.42,2842.34 7041.55,2839.62 7056.19,2835.17 6357.98,3122.71 6370.4,3151.17 6374.61,3159.97 6379.41,3168.34 6384.77,3176.28 6390.64,3183.76 6397.01,3190.76 6403.84,3197.26 6411.11,3203.23 6418.77,3208.67 6426.8,3213.54 6435.16,3217.83 6443.83,3221.51 6452.78,3224.57 6461.97,3226.99 6471.37,3228.74 6480.96,3229.81 6490.69,3230.17 6497.44,3230 6504.16,3229.47 6510.82,3228.6 6517.42,3227.38 6523.96,3225.82 6530.42,3223.91 6536.81,3221.66 5781.76,3529.8 5781.76,4267.19 5138.46,4519.33 6070.16,4519.33 5503.17,4737.05 "/>
  <path class="fil2" d="M550.85 4636.82c17.98,27.25 29.64,53.44 41.02,82.55 8.46,16.94 12.95,48.16 52.65,48.16 11.63,0 28.32,-3.43 43.13,-11.63 16.66,-8.74 29.36,-21.97 35.99,-42.06l15.87 -53.44 38.63 -19.05 2.64 2.64c-5.28,20.12 -6.6,39.42 -6.6,54.51 0,44.7 38.63,61.65 69.32,61.65 17.98,0 34.14,-8.74 34.14,-25.15 0,-21.16 -8.99,-57.15 -20.65,-89.43 17.98,-17.98 35.99,-35.99 56.62,-50.55l3.17 1.6c8.99,38.1 14.02,75.67 14.02,100.81 0,24.61 -10.85,51.87 -19.84,69.6 -18.52,34.92 -51.33,62.71 -91.01,62.71 -30.15,0 -63.75,-15.09 -86.79,-43.13l-1.32 0c-21.69,27 -55.3,51.33 -109.02,51.33l-16.66 0c-2.64,35.46 -10.31,60.58 -21.97,83.08 -32,62.43 -127,106.63 -216.43,106.63 -124.36,0 -186.79,-71.7 -186.79,-167.21 0,-59 19.3,-113.77 48.95,-152.65l24.33 10.06c-18.52,35.46 -30.96,68.78 -30.96,101.6 0,89.43 72.77,132.03 156.64,132.03 77.8,0 174.09,-49.48 191.57,-106.88 -6.6,-62.71 -30.15,-92.07 -66.14,-149.22 10.85,-19.05 24.87,-38.1 42.34,-58.47l3.17 0 0 0 0 0 -0.02 -0.09zm1434.31 -336.55c26.19,16.41 51.87,35.71 76.99,57.94 -14.02,19.84 -31.5,37.85 -53.19,53.72 -25.15,-20.37 -50.27,-37.85 -75.95,-56.36 17.45,-19.58 34.67,-38.35 52.12,-55.3l0 0 0 0 0 0 0 0 0 0 0.03 0zm13.49 244.48c-42.34,0 -76.99,27.79 -76.99,48.41 0,44.2 84.66,57.94 186,57.4 -12.7,-51.87 -57.15,-105.84 -109.02,-105.84l0.01 0.03zm-95 236.55c55.04,0 103.2,-1.6 139.95,-10.85 41.02,-10.31 75.67,-30.96 75.67,-45.24 0,-3.71 0,-8.2 -1.32,-11.91 -23.01,2.11 -49.48,2.11 -72.49,2.11 -74.6,0 -131.75,-16.94 -154.25,-58.75 -5.56,-11.63 -9.52,-24.61 -9.52,-39.42 0,-40.49 17.45,-79.91 48.16,-107.16 25.65,-22.48 53.97,-36.5 82.8,-36.5 52.12,0 93.65,41.81 122.76,107.7 15.87,35.99 26.72,77.52 26.72,129.92 0,34.92 -9.52,64.29 -31.22,85.98 -40.49,39.17 -115.09,53.97 -229.39,53.97l-51.87 0 0 0 -13.49 0c-28.32,0 -48.69,-5.03 -64.82,-17.45l-2.64 0c0.79,6.6 1.32,12.95 1.32,19.05 0,25.65 -8.46,58.47 -25.65,84.66 -50.8,75.41 -105.84,108.2 -153.47,108.2 -48.16,0 -107.16,-18.52 -160.35,-42.6l9.52 -18.52c17.2,7.14 41.02,11.91 73.81,11.91 85.98,0 198.96,-82.55 212.98,-163.25 -3.17,-6.6 -8.99,-15.34 -17.2,-24.61 -25.15,-29.9 -41.02,-54.76 -55.83,-80.95 12.7,-25.15 24.33,-45.24 35.18,-63.5l4.5 -0.53c36.78,74.88 70.1,117.73 144.45,117.73l11.63 0 0 0 53.97 0 0 0 0 0 0 0 0 0 0 0 0.09 0.01zm-372.54 79.12c6.35,-34.39 6.88,-73.02 6.88,-109.02l0 -53.44c0,-99.75 -12.7,-244.73 -23.01,-339.19 17.98,-19.3 43.13,-42.06 62.97,-57.4l5.82 1.6c13.49,118.8 16.66,256.39 16.66,383.64 0,33.35 -1.32,65.89 -4.5,89.69 -1.85,30.15 -19.3,52.91 -56.62,87.83l-8.2 -3.71zm-383.38 -157.43c1.85,46.84 24.87,83.62 105.31,83.62 50.01,0 92.33,-12.95 139.17,-35.18 8.46,-3.71 12.95,-8.74 12.95,-12.95 0,-29.36 -22.48,-68.25 -60.32,-103.71 -36.78,-33.35 -85.47,-62.71 -130.96,-82.3 -15.62,-6.6 -20.65,-13.49 -20.65,-20.12 0,-13.49 17.98,-41.81 32.82,-62.18l5.03 -0.53c52.12,27.25 110.34,67.74 153.47,112.7 39.17,41.53 63.5,83.62 63.5,129.39 0,33.86 -10.31,65.61 -27,95.25 -57.15,28.83 -118.01,50.8 -178.33,50.8 -73.28,0 -123.29,-34.39 -123.29,-115.09 0,-8.74 0,-22.22 3.17,-39.7l25.15 0 0 0 0 0 0 0 0 0 0 0 -0.02 0zm-132.57 -133.1l45.52 73.56c16.66,27.25 32.28,56.9 32.28,103.71l0 59.79c0,48.41 -30.96,100.28 -80.95,151.61 -39.17,34.67 -73.81,49.48 -105.84,49.48 -47.62,0 -102.13,-14.81 -165.1,-41.81l7.14 -18.52c19.84,5.28 42.85,9.78 71.17,9.78 90.5,-0.53 183.08,-66.67 225.42,-147.37 5.03,-9.27 6.88,-17.98 6.88,-24.08 0,-9.27 -5.03,-19.58 -8.99,-28.83 -23.01,-43.38 -48.69,-83.08 -76.99,-119.86 14.81,-23.29 29.64,-45.77 45.77,-68l3.71 0.53 0 0 0 0 0 0 0 0 0 0 -0.02 0.01z"/>
  <g id="_2066293205968">
   <path class="fil3" d="M6657.36 2005.24c-36.04,320.06 -305.73,561.36 -627.34,561.36 -23.82,0 -47.92,-1.4 -71.79,-4.06 -346.31,-39.02 -596.39,-352.54 -557.55,-698.8 36.2,-320.08 306.22,-561.51 627.98,-561.51 23.64,0 47.67,1.36 71.3,4.06 346.35,38.99 596.43,352.58 557.4,698.95zm722.92 -54.67c-21.75,-27.37 -52.95,-44.62 -87.82,-48.58l-217.26 -24.25c-3.7,-66.6 -13.76,-132.74 -29.93,-197.12l200.65 -87.38c66.14,-28.92 96.5,-106.52 67.67,-172.93l-33.77 -77.66c-20.84,-47.86 -68.08,-78.77 -120.36,-78.77 -18.18,0 -35.81,3.67 -52.57,10.97l-200.63 87.38c-36.3,-55.24 -77.95,-107.44 -124.22,-155.53l130 -176.11c20.85,-28.25 29.48,-62.86 24.26,-97.54 -5.26,-34.74 -23.57,-65.33 -51.82,-86.11l-68.25 -50.48c-22.92,-16.76 -49.87,-25.56 -78.02,-25.56 -42.11,0 -80.62,19.45 -105.66,53.38l-129.94 175.85c-60.16,-30.25 -122.37,-54.67 -185.17,-72.76l24.45 -217.38c3.96,-34.67 -5.88,-68.86 -27.76,-96.24 -21.89,-27.53 -53.09,-44.74 -87.93,-48.73l-84.48 -9.65c-73.06,-7.79 -136.92,44.49 -145.11,115.82l-24.44 217.38c-65.52,3.44 -131.66,13.45 -196.9,29.88l-87.6 -200.5c-20.68,-48.03 -67.86,-79.03 -120.17,-79.03 -18.12,0 -35.84,3.76 -52.53,11.07l-77.87 33.7c-66.13,28.93 -96.53,106.53 -67.82,173l87.54 200.79c-55.98,36.65 -108.09,78.28 -155.4,123.9l-176.34 -129.82c-22.69,-16.88 -49.65,-25.81 -77.86,-25.81 -41.59,0 -81.08,20 -105.75,53.41l-50.52 68.03c-42.76,58.38 -30.26,140.78 27.95,183.67l176.12 129.88c-30.73,60.52 -55.2,122.7 -73,185.33l-217.37 -24.31c-72.54,-8.22 -137.06,44.38 -145.05,115.74l-9.51 84.2c-4.05,34.87 5.81,69.29 27.73,96.66 21.95,27.47 53.25,44.65 88.12,48.31l216.99 24.81c3.57,66.01 13.64,132.09 29.93,196.83l-200.65 87.53c-66.3,29.1 -96.57,106.67 -67.57,173l33.8 77.6c20.88,47.89 68.12,78.77 120.27,78.77 18.15,0 35.87,-3.73 52.47,-11.04l200.72 -87.37c36.43,55.55 78.18,107.73 124.19,155.62l-130.07 176.17c-20.81,28.16 -29.45,62.76 -24.18,97.48 5.16,34.74 23.53,65.29 51.75,86.1l68.25 50.04c22.82,16.92 49.83,25.88 78.15,25.88 41.47,0 80.98,-19.9 105.63,-53.35l129.77 -176.11c60.55,30.72 122.71,55.2 185.17,72.93l-24.31 217.22c-8.16,71.98 43.76,137.11 115.68,145.39l84.56 9.45c4.89,0.58 9.7,0.84 14.5,0.84 66.83,0 122.96,-50.1 130.53,-116.56l24.45 -217.32c64.68,-3.51 130.88,-13.5 196.96,-29.87l87.47 200.46c20.85,47.99 68.03,79 120.29,79 18.06,0 35.75,-3.73 52.41,-11.1l77.86 -33.87c32.08,-13.99 56.82,-39.68 69.68,-72.34 12.83,-32.67 12.17,-68.38 -1.85,-100.53l-87.5 -200.65c55.81,-36.57 107.92,-78.25 155.36,-123.96l176.43 129.87c22.77,16.75 49.71,25.68 77.87,25.68 41.59,0 81.1,-20.03 105.71,-53.44l50.3 -68.13c42.79,-58.08 30.42,-140.52 -27.66,-183.77l-176.05 -129.87c30.46,-59.81 54.94,-121.95 73.03,-185.05l216.99 24.42c5.12,0.55 10.22,0.81 15.28,0.81 66.76,0 122.77,-50.16 130.15,-116.69l9.44 -84.38c3.87,-34.91 -5.91,-69.13 -27.86,-96.6z"/>
   <polygon class="fil4" points="2594.5,3685.48 2847.93,3685.48 2847.93,986.28 2594.5,986.28 "/>
   <polygon class="fil4" points="2159.96,4519.33 2159.96,2781.49 3463.44,1912.59 3463.44,2781.49 4766.7,1912.59 4766.7,2781.49 6070.16,1912.59 6070.16,4519.33 "/>
   <path class="fil5" d="M3575.52 1882.32c3.64,-18.84 0.44,-36.39 -9.15,-50.58 -12.67,-18.85 -34.62,-29.24 -61.83,-29.24 -29.95,0 -65.86,12.63 -98.49,34.67l-1320.12 890.75c-65.22,44.01 -92.62,105.66 -65.11,146.68 12.73,18.76 34.69,29.13 61.87,29.13 29.96,0 65.88,-12.65 98.48,-34.67l1320.11 -890.84c40.1,-27.06 67.87,-62.93 74.24,-95.9z"/>
   <path class="fil5" d="M4833.47 1831.63c-12.73,-18.78 -34.66,-29.13 -61.81,-29.13 -29.9,0 -65.81,12.63 -98.55,34.67l-1319.99 890.78c-65.22,44 -92.61,105.63 -65.09,146.65 12.73,18.76 34.67,29.13 61.83,29.13 29.92,0 65.82,-12.65 98.53,-34.67l1319.97 -890.84c65.23,-44.01 92.63,-105.62 65.11,-146.59z"/>
   <path class="fil5" d="M6160.99 1831.61c-12.72,-18.76 -34.65,-29.11 -61.79,-29.11 -29.9,0 -65.78,12.63 -98.45,34.67l-1320.08 890.75c-65.24,44.01 -92.65,105.66 -65.19,146.55 12.67,18.86 34.62,29.26 61.81,29.26 29.96,0 65.88,-12.65 98.51,-34.67l1320.07 -890.82c40.17,-27.06 67.96,-62.91 74.34,-95.9 3.69,-18.84 0.48,-36.41 -9.22,-50.73z"/>
   <polygon class="fil6" points="2428.52,4519.33 3092.31,4519.33 3092.31,3831.47 2428.52,3831.47 "/>
   <polygon class="fil7" points="3341.44,4267.19 3850.85,4267.19 3850.85,3456.09 3341.44,3456.09 "/>
   <polygon class="fil7" points="4306.83,4267.19 4816.34,4267.19 4816.34,3456.09 4306.83,3456.09 "/>
   <polygon class="fil7" points="5272.34,4267.19 5781.76,4267.19 5781.76,3456.09 5272.34,3456.09 "/>
   <polygon class="fil7" points="2494.9,4145.18 3025.96,4145.18 3025.96,3903.87 2494.9,3903.87 "/>
   <path class="fil5" d="M6172.83 4613.15c0,68.44 -55.53,123.9 -123.99,123.9l-3840.91 0c-68.48,0 -123.86,-55.46 -123.86,-123.9l0 0c0,-68.45 55.38,-123.91 123.86,-123.91l3840.91 0c68.46,0 123.99,55.46 123.99,123.91l0 0z"/>
  </g>
 </g>
</svg>
