<?xml version="1.0" encoding="UTF-8"?>
<!DOCTYPE svg PUBLIC "-//W3C//DTD SVG 1.1//EN" "http://www.w3.org/Graphics/SVG/1.1/DTD/svg11.dtd">
<!-- Creator: CorelDRAW 2020 (64-Bit) -->
<svg xmlns="http://www.w3.org/2000/svg" xml:space="preserve" width="94.1916mm" height="52.9166mm" version="1.1" style="shape-rendering:geometricPrecision; text-rendering:geometricPrecision; image-rendering:optimizeQuality; fill-rule:evenodd; clip-rule:evenodd"
viewBox="0 0 9404.92 5283.66"
 xmlns:xlink="http://www.w3.org/1999/xlink"
 xmlns:xodm="http://www.corel.com/coreldraw/odm/2003">
 <defs>
  <style type="text/css">
   <![CDATA[
    .fil0 {fill:#E6E7E8}
    .fil6 {fill:#FEFEFE;fill-rule:nonzero}
    .fil5 {fill:#0B8595;fill-rule:nonzero}
    .fil7 {fill:#252422;fill-rule:nonzero}
    .fil8 {fill:#347AB4;fill-rule:nonzero}
    .fil3 {fill:#66CEDB;fill-rule:nonzero}
    .fil4 {fill:#FEFEFE;fill-rule:nonzero}
    .fil9 {fill:#FFEA00;fill-rule:nonzero}
    .fil2 {fill:#373435;fill-opacity:0.031373}
    .fil1 {fill:#2B2A29;fill-opacity:0.101961}
   ]]>
  </style>
 </defs>
 <g id="Layer_x0020_1">
  <metadata id="CorelCorpID_0Corel-Layer"/>
  <polygon class="fil0" points="-0,0 9404.92,0 9404.92,5283.66 -0,5283.66 "/>
  <polygon class="fil1" points="-0,4693.08 -0,4686.9 -0,4682.69 -0,4679.23 -0,4674.13 -0,4637.25 -0,4626 -0,4621.66 -0,4594.59 -0,4525.4 -0,4510.49 -0,4509.49 -0,4493.98 -0,4491.43 -0,4453.83 -0,4452.04 -0,4435.49 -0,4382.22 -0,4380.32 -0,4364.22 -0,4346 -0,4317.94 -0,4316.76 -0,4316.08 -0,4313.42 -0,4311.81 -0,4310.79 -0,4295.5 -0,4277.34 -0,4272.73 -0,4245.21 -0,4238.2 -0,4223.73 -0,4212.67 -0,4205.06 -0,4196.98 -0,4195.92 -0,4161.17 -0,4128.98 -0,4090.97 -0,4088.01 -0,4085.81 -0,4054.03 -0,4034.41 -0,4033.33 -0,4002.24 -0,3968.6 -0,3894.39 -0,3856.9 -0,3852.48 -0,3852.35 -0,3833.93 -0,3832.81 -0,3819.84 -0,3789.9 -0,3772.14 -0,3764.65 -0,3738.28 -0,3736.02 -0,3727.5 -0,3718.51 -0,3717.41 -0,3696.38 -0,3695.28 -0,3686.32 -0,3668.44 -0,3650.62 -0,3650.6 -0,3650.36 -0,3636.18 -0,3622.29 -0,3582.41 -0,3530.47 -0,3519.4 -0,3412.87 -0,3034.48 -0,2576.93 -0,2556.98 4103.84,622.57 4103.84,1186.15 4985.9,1186.15 5777.06,832.82 5777.06,957.15 6057.4,832.82 6057.4,953.75 6331.88,832.82 6331.88,970.06 6472.05,970.06 5976.08,1186.15 6699.82,1186.15 5733.27,1599.89 5733.27,1619.59 5733.27,1639.36 5733.27,1659.06 5733.27,1678.7 5733.27,1698.29 5733.27,1717.85 5733.27,1737.39 5733.27,1756.91 5733.27,1765.32 5797.51,1738.08 5797.64,1738.08 5797.97,1738.08 5798.44,1738.08 5798.98,1738.08 5799.51,1738.08 5799.98,1738.08 5800.31,1738.08 5800.44,1738.08 5807.56,1738.08 5814.67,1738.08 5821.79,1738.08 5828.91,1738.08 5836.02,1738.08 5843.14,1738.08 5850.26,1738.08 5857.38,1738.08 5864.5,1738.08 5871.61,1738.08 5878.73,1738.08 5885.85,1738.08 5892.97,1738.08 5900.09,1738.08 5907.21,1738.08 5914.33,1738.08 5923.08,1738.23 5931.8,1738.76 5940.45,1739.78 5949,1741.36 5957.41,1743.64 5965.66,1746.71 5973.7,1750.66 5981.49,1755.6 5994.1,1762.56 6005.68,1770.24 6016.29,1778.54 6026.02,1787.35 6034.93,1796.58 6043.09,1806.11 6050.56,1815.84 6057.42,1825.69 6063.21,1834.45 6068.54,1843.22 6073.45,1852.03 6077.95,1860.86 6082.08,1869.76 6085.86,1878.71 6089.3,1887.74 6092.46,1896.87 6095.33,1906.08 6097.97,1915.43 6100.37,1924.9 6102.58,1934.51 6104.63,1944.27 6106.53,1954.2 6108.3,1964.31 6109.98,1974.61 6112.88,1974.59 6112.88,1986.6 6112.88,1992.07 6112.9,1992.12 6112.9,1992.12 6112.88,1992.13 6112.88,1998.57 6112.88,2010.52 6112.88,2022.45 6112.88,2034.4 6112.88,2046.39 6112.88,2058.45 6112.88,2070.59 6112.88,2082.82 6112.88,2095.19 6112.88,2107.69 6112.88,2120.37 6112.88,2133.23 6112.88,2146.3 6112.88,2159.6 6112.88,2173.16 6112.87,2174.51 6112.83,2176.31 6112.73,2178.44 6112.51,2180.82 6112.16,2183.33 6111.64,2185.89 6110.92,2188.37 6109.95,2190.67 6108.59,2202.33 6106.75,2213.26 6104.52,2223.57 6101.92,2233.38 6099.07,2242.77 6095.99,2251.86 6092.79,2260.75 6089.51,2269.52 6084.6,2283.49 6078.66,2296.95 6071.76,2309.92 6063.97,2322.45 6055.35,2334.58 6045.99,2346.32 6035.94,2357.72 6025.28,2368.81 6013.23,2377.41 6001.09,2385.56 5988.83,2393.09 5976.37,2399.84 5963.63,2405.63 5750.78,2491.99 5750.78,2502.21 5750.78,2512.62 5750.78,2523.02 5750.78,2533.42 5750.78,2543.83 5750.78,2554.22 5750.78,2564.63 5750.78,2575.03 5750.78,2585.44 5750.78,2595.84 5750.78,2606.24 5750.78,2616.64 5750.78,2627.04 5750.78,2637.45 5750.78,2638.81 5750.78,2640.6 5750.78,2642.74 5750.78,2645.12 5750.78,2647.63 5750.78,2650.18 5750.78,2652.66 5750.78,2654.97 5749.04,2663.72 5746.09,2672.39 5742.12,2680.94 5737.28,2689.28 5731.76,2697.34 5725.74,2705.06 5719.37,2712.37 5712.83,2719.2 5703.68,2726.6 5693.8,2733.48 5683.32,2739.89 5672.31,2745.84 5660.9,2751.39 5649.18,2756.57 5637.26,2761.4 5027.56,3005.39 6682.3,3005.39 5253.15,3554.37 5777.06,3554.37 5777.06,3691.61 5427.34,3823.01 5777.06,3823.01 5777.06,3960.25 5397.29,4100.42 5777.06,4100.42 5777.06,4240.59 5390.02,4380.75 5975.63,4380.75 5190.12,4661.09 6072,4661.09 4288.91,5283.66 3445.72,5283.66 2896.66,5283.66 2540.65,5283.66 2191.34,5283.66 1855.64,5283.66 1539.92,5283.66 1430.42,5283.66 1225.57,5283.66 1215.96,5283.66 1215.47,5283.66 1101.67,5283.66 1069.76,5283.66 1001.66,5283.66 875.43,5283.66 794.56,5283.66 792.48,5283.66 751.27,5283.66 598.15,5283.66 596.96,5283.66 475.23,5283.66 471.61,5283.66 471.25,5283.66 466.92,5283.66 167.89,5283.66 94.83,5283.66 -0,5283.66 -0,5276.02 -0,5275.16 -0,5246.2 -0,5227 -0,5196.07 -0,5076.68 -0,5019.85 -0,5017.32 -0,5007.07 -0,5003 -0,4965.03 -0,4951.98 -0,4950.01 -0,4936.49 -0,4899.67 -0,4825.29 -0,4822.08 -0,4818.17 -0,4815.25 -0,4807.31 -0,4804.81 -0,4801.84 -0,4781.92 -0,4772.6 -0,4753 "/>
  <path class="fil2" d="M578.49 4627.69c17.95,27.21 29.6,53.36 40.96,82.43 8.45,16.91 12.93,48.09 52.57,48.09 11.61,0 28.28,-3.42 43.06,-11.61 16.63,-8.73 29.32,-21.94 35.94,-42l15.85 -53.36 38.57 -19.02 2.64 2.64c-5.27,20.09 -6.59,39.36 -6.59,54.43 0,44.63 38.57,61.56 69.22,61.56 17.95,0 34.09,-8.73 34.09,-25.11 0,-21.13 -8.98,-57.06 -20.62,-89.29 17.95,-17.95 35.94,-35.94 56.53,-50.47l3.17 1.6c8.98,38.04 14,75.56 14,100.66 0,24.57 -10.83,51.79 -19.81,69.49 -18.49,34.87 -51.25,62.62 -90.87,62.62 -30.1,0 -63.65,-15.07 -86.66,-43.06l-1.32 0c-21.66,26.96 -55.22,51.25 -108.86,51.25l-16.63 0c-2.64,35.41 -10.29,60.49 -21.94,82.95 -31.95,62.34 -126.81,106.47 -216.1,106.47 -124.17,0 -186.51,-71.59 -186.51,-166.96 0,-58.91 19.27,-113.6 48.88,-152.42l24.29 10.04c-18.49,35.41 -30.91,68.68 -30.91,101.45 0,89.29 72.66,131.83 156.4,131.83 77.68,0 173.83,-49.41 191.28,-106.72 -6.59,-62.62 -30.1,-91.93 -66.04,-148.99 10.83,-19.02 24.83,-38.04 42.28,-58.38l3.17 0 0 0 0 0 -0.02 -0.09zm1432.13 -336.04c26.15,16.39 51.79,35.66 76.87,57.85 -14,19.81 -31.45,37.79 -53.11,53.64 -25.11,-20.34 -50.19,-37.79 -75.84,-56.27 17.42,-19.55 34.62,-38.29 52.04,-55.22l0 0 0 0 0 0 0 0 0 0 0.03 0zm13.47 244.11c-42.28,0 -76.87,27.75 -76.87,48.34 0,44.13 84.53,57.85 185.72,57.31 -12.68,-51.79 -57.06,-105.68 -108.86,-105.68l0.01 0.03zm-94.86 236.19c54.96,0 103.04,-1.6 139.74,-10.83 40.96,-10.29 75.56,-30.91 75.56,-45.17 0,-3.7 0,-8.19 -1.32,-11.89 -22.98,2.11 -49.41,2.11 -72.38,2.11 -74.49,0 -131.55,-16.91 -154.02,-58.66 -5.55,-11.61 -9.51,-24.57 -9.51,-39.36 0,-40.43 17.42,-79.79 48.09,-107 25.61,-22.45 53.89,-36.44 82.67,-36.44 52.04,0 93.51,41.75 122.57,107.54 15.85,35.94 26.68,77.4 26.68,129.72 0,34.87 -9.51,64.19 -31.17,85.85 -40.43,39.11 -114.92,53.89 -229.04,53.89l-51.79 0 0 0 -13.47 0c-28.28,0 -48.62,-5.02 -64.72,-17.42l-2.64 0c0.79,6.59 1.32,12.93 1.32,19.02 0,25.61 -8.45,58.38 -25.61,84.53 -50.72,75.3 -105.68,108.04 -153.24,108.04 -48.09,0 -107,-18.49 -160.11,-42.54l9.51 -18.49c17.17,7.13 40.96,11.89 73.7,11.89 85.85,0 198.66,-82.43 212.66,-163 -3.17,-6.59 -8.98,-15.32 -17.17,-24.57 -25.11,-29.85 -40.96,-54.68 -55.75,-80.83 12.68,-25.11 24.29,-45.17 35.13,-63.4l4.49 -0.53c36.72,74.77 69.99,117.55 144.23,117.55l11.61 0 0 0 53.89 0 0 0 0 0 0 0 0 0 0 0 0.09 0.01zm-371.98 79c6.34,-34.34 6.87,-72.91 6.87,-108.86l0 -53.36c0,-99.6 -12.68,-244.36 -22.98,-338.68 17.95,-19.27 43.06,-42 62.87,-57.31l5.81 1.6c13.47,118.62 16.63,256 16.63,383.06 0,33.3 -1.32,65.79 -4.49,89.55 -1.85,30.1 -19.27,52.83 -56.53,87.7l-8.19 -3.7zm-382.8 -157.19c1.85,46.77 24.83,83.49 105.15,83.49 49.93,0 92.19,-12.93 138.96,-35.13 8.45,-3.7 12.93,-8.73 12.93,-12.93 0,-29.32 -22.45,-68.15 -60.23,-103.55 -36.72,-33.3 -85.34,-62.62 -130.76,-82.18 -15.6,-6.59 -20.62,-13.47 -20.62,-20.09 0,-13.47 17.95,-41.75 32.77,-62.09l5.02 -0.53c52.04,27.21 110.17,67.64 153.24,112.53 39.11,41.47 63.4,83.49 63.4,129.19 0,33.81 -10.29,65.51 -26.96,95.11 -57.06,28.79 -117.83,50.72 -178.06,50.72 -73.17,0 -123.1,-34.34 -123.1,-114.92 0,-8.73 0,-22.19 3.17,-39.64l25.11 0 0 0 0 0 0 0 0 0 0 0 -0.02 0zm-132.37 -132.9l45.45 73.45c16.63,27.21 32.23,56.81 32.23,103.55l0 59.7c0,48.34 -30.91,100.13 -80.83,151.38 -39.11,34.62 -73.7,49.41 -105.68,49.41 -47.55,0 -101.98,-14.79 -164.85,-41.75l7.13 -18.49c19.81,5.27 42.79,9.77 71.06,9.77 90.36,-0.53 182.8,-66.57 225.08,-147.15 5.02,-9.26 6.87,-17.95 6.87,-24.04 0,-9.26 -5.02,-19.55 -8.98,-28.79 -22.98,-43.31 -48.62,-82.95 -76.87,-119.68 14.79,-23.25 29.6,-45.7 45.7,-67.9l3.7 0.53 0 0 0 0 0 0 0 0 0 0 -0.02 0.01z"/>
  <polygon class="fil3" points="2798.55,4380.75 5975.63,4380.75 5975.63,2503.13 2798.55,2503.13 "/>
  <polygon class="fil4" points="4103.84,3005.39 6682.3,3005.39 6682.3,622.57 4103.84,622.57 "/>
  <polygon class="fil5" points="4103.84,1136.23 6689.83,1136.23 6689.83,625.21 4103.84,625.21 "/>
  <polygon class="fil5" points="2705.1,4661.09 6072,4661.09 6072,4418.72 2705.1,4418.72 "/>
  <polygon class="fil6" points="6331.88,970.06 6472.05,970.06 6472.05,832.82 6331.88,832.82 "/>
  <polygon class="fil6" points="6057.4,970.06 6191.72,970.06 6191.72,832.82 6057.4,832.82 "/>
  <polygon class="fil6" points="5777.06,970.06 5914.32,970.06 5914.32,832.82 5777.06,832.82 "/>
  <path class="fil7" d="M3207.36 2768.86l-239.45 239.45c-14.6,14.6 -14.6,40.88 0,58.4l239.45 239.45 58.4 -58.4 -213.18 -213.17 213.18 -213.18 -58.4 -58.39 0 2.92 0 2.93z"/>
  <path class="fil7" d="M3665.82 2768.86l-58.4 58.39 213.18 213.18 -213.18 213.17 58.4 58.4 239.45 -239.46c14.6,-14.6 14.6,-40.87 0,-58.39l-239.45 -239.45 0 -2.93 0 -2.92z"/>
  <polygon class="fil7" points="3277.44,3387.92 3516.9,2666.65 3595.74,2690.01 3353.37,3417.12 "/>
  <polygon class="fil7" points="3616.18,3960.25 4244,3960.25 4244,3823.01 3616.18,3823.01 "/>
  <polygon class="fil7" points="2991.27,3960.25 3476.02,3960.25 3476.02,3823.01 2991.27,3823.01 "/>
  <polygon class="fil7" points="2991.27,4240.59 3966.59,4240.59 3966.59,4100.42 2991.27,4100.42 "/>
  <polygon class="fil7" points="5079.15,3960.25 5777.06,3960.25 5777.06,3823.01 5079.15,3823.01 "/>
  <polygon class="fil7" points="4384.17,3960.25 4941.91,3960.25 4941.91,3823.01 4384.17,3823.01 "/>
  <polygon class="fil7" points="4103.84,4240.59 5777.06,4240.59 5777.06,4100.42 4103.84,4100.42 "/>
  <path class="fil8" d="M4676.18 2094.31c0,-17.51 0,-32.11 0,-46.72 0,0 0,-2.92 0,-2.92 0,-32.12 2.92,-55.48 8.76,-87.61 2.92,-32.12 11.68,-58.4 20.44,-87.61 11.68,-37.96 35.04,-70.08 67.17,-99.29 20.44,-20.44 52.56,-35.04 78.85,-43.79 17.51,-2.92 37.95,-2.92 55.48,-2.92 163.52,0 321.2,0 481.82,0 0,0 2.92,0 2.92,0 0,-17.52 0,-35.05 0,-52.56 -113.88,0 -230.69,0 -347.49,0 0,0 0,-2.93 0,-2.93 0,-52.55 0,-102.21 0,-154.76 0,0 0,-2.93 0,-2.93 0,-8.76 0,-11.68 0,-20.44 2.93,-23.35 17.52,-43.79 35.04,-58.39 20.44,-20.44 43.8,-35.05 67.17,-43.8 37.96,-17.51 75.93,-23.35 119.73,-32.12 32.12,-2.92 58.39,-2.92 90.52,-8.76 0,0 2.93,0 2.93,0 17.51,0 37.95,0 55.48,0 0,0 2.92,0 2.92,0 35.04,0 67.17,2.93 102.21,8.76 35.05,2.93 64.24,11.68 93.45,23.36 32.12,11.68 58.4,23.35 78.85,52.56 20.44,20.44 35.04,43.79 37.95,70.08 2.93,11.68 2.93,23.35 2.93,37.96 0,108.05 0,210.25 0,315.36 0,17.52 0,35.04 -2.93,52.56 -8.76,43.79 -35.04,75.93 -67.17,102.21 -37.95,20.44 -75.93,35.04 -119.72,35.04 -113.89,0 -224.85,0 -341.66,0 -20.44,0 -43.79,0 -67.17,8.76 -37.95,8.77 -70.08,32.12 -99.28,64.24 -32.12,37.95 -37.96,87.61 -37.96,131.4 0,55.48 0,110.96 0,166.45 0,0 0,2.92 0,2.92 0,0 -2.92,0 -2.92,0 -37.96,0 -78.85,0 -119.73,0 -8.76,0 -17.52,0 -20.44,-2.92 -32.12,-2.93 -58.4,-20.44 -78.85,-43.8 -23.35,-23.35 -46.72,-55.48 -58.39,-90.52 -11.68,-32.12 -20.44,-58.4 -23.36,-90.53 -2.92,-23.35 -8.76,-55.48 -8.76,-78.84 0,-8.77 0,-17.52 0,-23.36l0 0 -8.76 0 5.84 0 -5.84 5.85zm519.77 -624.9l0 0c-35.04,0 -64.23,32.12 -64.23,64.23 0,35.05 32.12,64.24 64.23,64.24 35.05,0 64.24,-32.12 64.24,-64.24 0,-35.04 -32.12,-64.23 -64.24,-64.23l0 0z"/>
  <path class="fil9" d="M6112.88 1974.59c0,64.23 0,125.56 0,198.57 0,2.92 0,11.68 -2.93,17.51 -2.92,32.12 -11.67,55.49 -20.44,78.85 -11.67,37.96 -35.04,70.09 -64.23,99.29 -32.12,23.35 -64.23,43.79 -102.21,46.72 -11.68,0 -23.36,0 -37.96,0 -157.68,0 -321.2,0 -478.89,0 0,0 -2.93,0 -2.93,0 0,17.51 0,35.04 0,52.55 113.89,0 230.69,0 347.49,0 0,0 0,2.93 0,2.93 0,55.48 0,110.96 0,166.44 0,2.93 0,11.68 0,17.52 -2.92,23.35 -20.44,46.72 -37.95,64.23 -23.36,20.44 -55.48,35.04 -87.61,46.72 -43.79,11.68 -87.61,20.44 -131.4,23.36 -23.36,0 -52.56,2.92 -78.85,2.92 -35.04,0 -67.17,0 -102.21,-2.92 -20.44,-2.93 -37.96,-2.93 -58.4,-8.77 -35.04,-2.92 -67.17,-17.51 -99.29,-35.04 -32.11,-11.68 -55.48,-35.04 -70.08,-58.39 -11.68,-17.52 -20.44,-37.96 -23.35,-64.24 0,-8.76 0,-17.51 0,-23.35 0,-102.21 0,-204.41 0,-303.69 0,-17.52 0,-37.96 2.92,-55.48 8.76,-43.79 35.04,-75.93 67.17,-102.21 37.96,-23.36 75.93,-35.04 119.73,-35.04 113.89,0 224.85,0 341.65,0 20.44,0 46.72,0 67.17,-8.77 37.96,-8.76 67.17,-32.11 93.45,-58.39 32.12,-37.96 43.79,-78.85 43.79,-125.57 0,-55.48 0,-113.89 0,-169.36 0,0 0,-2.92 0,-2.92 0,0 2.93,0 2.93,0 37.95,0 75.93,0 113.89,0 23.35,0 46.72,2.92 67.17,17.52 35.04,17.51 58.39,43.79 75.93,70.08 32.12,46.72 43.79,93.45 52.56,148.92 0,2.92 0,11.68 2.92,17.51l0 0 0 -8.76 -2.92 -8.76 2.9 -0.02zm-513.94 703.73l0 0c35.04,0 64.23,-32.11 64.23,-64.23 0,-35.04 -32.11,-64.23 -64.23,-64.23 -35.04,0 -64.23,32.11 -64.23,64.23 0,35.04 23.35,64.23 64.23,64.23z"/>
  <polygon class="fil7" points="3616.18,3691.61 4244,3691.61 4244,3554.37 3616.18,3554.37 "/>
  <polygon class="fil7" points="2991.27,3691.61 3476.02,3691.61 3476.02,3554.37 2991.27,3554.37 "/>
  <polygon class="fil7" points="5079.15,3691.61 5777.06,3691.61 5777.06,3554.37 5079.15,3554.37 "/>
  <polygon class="fil7" points="4384.17,3691.61 4941.91,3691.61 4941.91,3554.37 4384.17,3554.37 "/>
 </g>
</svg>
