<svg width="50" height="24" viewBox="0 0 50 24" fill="none" xmlns="http://www.w3.org/2000/svg">
<path d="M32.1305 17.9466C31.307 18.2915 30.4695 18.6363 29.632 19.0234C29.5735 19.0459 29.5116 19.0578 29.449 19.0586C29.3872 19.0516 29.3274 19.0325 29.273 19.0023C29.2162 18.9665 29.1681 18.9184 29.1323 18.8615C29.0977 18.8061 29.0761 18.7435 29.0689 18.6786L28.9915 17.102C28.9827 17.0236 29 16.9444 29.0408 16.8768C29.0804 16.8078 29.139 16.7516 29.2097 16.7149C30.012 16.3137 30.8284 15.9478 31.6308 15.5888C31.6877 15.5618 31.7513 15.552 31.8138 15.5607C31.8765 15.5679 31.9368 15.5896 31.9897 15.624C32.0476 15.6523 32.0963 15.6962 32.1305 15.7507C32.166 15.8026 32.1855 15.8638 32.1868 15.9266L32.3698 17.5243C32.3789 17.6118 32.3617 17.7 32.3205 17.7777C32.2794 17.8549 32.212 17.9148 32.1305 17.9466Z" fill="#4BA0EA"/>
<path d="M31.7926 15.0827C31.0324 15.4065 30.2512 15.7724 29.47 16.1314C29.4136 16.1604 29.3501 16.1726 29.287 16.1666C29.2243 16.1642 29.1635 16.1447 29.111 16.1103C29.0515 16.0811 29.0024 16.0345 28.9703 15.9765C28.9337 15.9199 28.9141 15.8539 28.914 15.7865L28.8154 14.217C28.8082 14.1377 28.828 14.0583 28.8717 13.9918C28.9066 13.9216 28.9634 13.8648 29.0336 13.8299C29.7726 13.4428 30.5327 13.0839 31.2928 12.739L31.4477 12.6968C31.5155 12.7017 31.5814 12.7213 31.6409 12.7541C31.7004 12.7869 31.7522 12.8322 31.7926 12.8868C31.8288 12.9384 31.8484 12.9997 31.8489 13.0628L32.053 14.6604C32.0596 14.7495 32.0374 14.8383 31.9896 14.9138C31.9473 14.9927 31.877 15.0529 31.7926 15.0827Z" fill="#4BA0EA"/>
<path d="M31.7079 11.7885C31.7161 11.8759 31.699 11.9639 31.6586 12.0419C31.6131 12.1155 31.5471 12.1742 31.4686 12.2108L29.329 13.2243C29.2698 13.253 29.2047 13.2674 29.139 13.2665C29.0733 13.266 29.0086 13.2516 28.9489 13.2243C28.8924 13.191 28.8443 13.1453 28.8082 13.0906C28.7726 13.0335 28.7532 12.9678 28.7519 12.9005L28.6533 11.324C28.6529 11.2507 28.6697 11.1784 28.7026 11.1128C28.7404 11.0514 28.7908 10.9987 28.8504 10.958C29.5612 10.5568 30.258 10.1909 30.9478 9.8671L31.1307 9.83191L31.3067 9.8671C31.3671 9.90075 31.418 9.94918 31.4545 10.0079C31.4903 10.0641 31.5165 10.126 31.5319 10.1909L31.7079 11.7885Z" fill="#4BA0EA"/>
<path d="M34.2279 8.11444C33.5663 8.33262 32.9117 8.57895 32.2713 8.83936C32.2158 8.86282 32.1554 8.87248 32.0953 8.86751C32.038 8.86509 31.9823 8.84814 31.9334 8.81825C31.8809 8.78537 31.8354 8.74229 31.7997 8.69156C31.7661 8.6375 31.7423 8.57794 31.7293 8.51561L31.5323 6.88276C31.5198 6.79517 31.5371 6.70592 31.5815 6.62939C31.6228 6.55066 31.6899 6.48853 31.7716 6.45344C32.3909 6.17191 33.0314 5.93262 33.6719 5.7074H33.8056L34.0097 5.74963C34.06 5.77993 34.1032 5.82074 34.1364 5.86927C34.1727 5.91668 34.1968 5.97226 34.2067 6.03115L34.4883 7.67103C34.5035 7.7632 34.4861 7.85779 34.439 7.93848C34.3894 8.01835 34.3154 8.08006 34.2279 8.11444Z" fill="#4BA0EA"/>
<path d="M31.3704 8.92397C31.3792 9.00692 31.362 9.09056 31.3211 9.16327C31.2792 9.23822 31.2117 9.29566 31.1311 9.32514C30.4695 9.62778 29.8149 9.97265 29.1745 10.3175C29.1123 10.3533 29.0421 10.3727 28.9704 10.3738C28.9008 10.3735 28.8326 10.354 28.7733 10.3175C28.7165 10.2817 28.6684 10.2336 28.6325 10.1768C28.5972 10.1221 28.5777 10.0588 28.5762 9.99376L28.4918 8.43834C28.478 8.36601 28.4905 8.29116 28.527 8.2272C28.5568 8.15999 28.609 8.10525 28.6748 8.07236C29.3152 7.68526 29.9698 7.32632 30.6102 7.00256C30.6671 6.97445 30.7298 6.96 30.7932 6.96033C30.8543 6.96083 30.9145 6.97527 30.9692 7.00256C31.0276 7.0327 31.0783 7.07609 31.117 7.12925C31.1547 7.18116 31.1789 7.24162 31.1874 7.3052L31.3704 8.92397Z" fill="#4BA0EA"/>
<path d="M47.0511 14.0902C47.0213 14.1387 46.9832 14.1816 46.9385 14.2169C46.8888 14.246 46.8338 14.2652 46.7767 14.2732C45.918 14.3577 45.0594 14.4773 44.2007 14.597C44.1049 14.6192 44.0043 14.6041 43.9192 14.5547C43.8351 14.505 43.7706 14.428 43.7362 14.3366L43.2787 12.8163C43.2621 12.7591 43.2597 12.6987 43.2717 12.6404C43.2789 12.582 43.3007 12.5263 43.335 12.4785C43.3613 12.4252 43.403 12.3811 43.4547 12.3518C43.5015 12.3167 43.558 12.297 43.6165 12.2955C44.4541 12.1759 45.3127 12.0914 46.1573 12.0351H46.1925C46.2734 12.0325 46.3527 12.0573 46.4177 12.1055C46.4818 12.1541 46.5306 12.2201 46.5585 12.2955L47.0934 13.7313C47.1187 13.7895 47.1282 13.8534 47.1207 13.9165C47.1133 13.9795 47.0893 14.0395 47.0511 14.0902Z" fill="#4BA0EA"/>
<path d="M39.3374 15.5899L36.8811 16.2726C36.8274 16.2933 36.7694 16.3006 36.7122 16.2937C36.6526 16.2867 36.5951 16.2676 36.5433 16.2374C36.4586 16.167 36.3952 16.0744 36.3603 15.9699L36.0858 14.316C36.0664 14.2193 36.084 14.1188 36.1351 14.0345C36.1885 13.9554 36.2684 13.898 36.3603 13.8726C37.1415 13.6262 37.965 13.3869 38.7603 13.204H38.8588C38.9517 13.2018 39.0421 13.2345 39.1122 13.2955C39.1819 13.3544 39.2271 13.4372 39.2389 13.5277L39.6401 15.1254C39.6503 15.1748 39.6506 15.2258 39.6409 15.2753C39.6313 15.3249 39.6118 15.372 39.5838 15.4139C39.5563 15.458 39.5204 15.4963 39.4782 15.5265C39.4359 15.5567 39.3881 15.5782 39.3374 15.5899Z" fill="#4BA0EA"/>
<path d="M35.7266 16.638C34.9242 16.8984 34.0867 17.201 33.2843 17.5037C33.2274 17.5307 33.1638 17.5404 33.1013 17.5318C33.0386 17.5246 32.9784 17.5029 32.9254 17.4685C32.8783 17.4341 32.8357 17.3939 32.7987 17.3488C32.7639 17.2979 32.74 17.2404 32.7283 17.1799L32.5453 15.5471C32.5363 15.4596 32.5534 15.3714 32.5946 15.2937C32.6409 15.2181 32.7099 15.159 32.7917 15.1248C33.587 14.801 34.3893 14.4984 35.1846 14.2309C35.242 14.2158 35.3016 14.2111 35.3606 14.2169C35.4177 14.2249 35.4727 14.244 35.5225 14.2732C35.5728 14.3035 35.616 14.3443 35.6491 14.3928C35.6783 14.4426 35.6974 14.4976 35.7054 14.5547L36.0081 16.1946C36.0217 16.2898 36.0018 16.3869 35.9518 16.4691C35.9006 16.5516 35.8202 16.6119 35.7266 16.638Z" fill="#4BA0EA"/>
<path d="M42.441 11.9081C42.413 11.956 42.3745 11.997 42.3284 12.0278C42.2858 12.0618 42.2347 12.0837 42.1806 12.0911C41.3994 12.2108 40.6041 12.3727 39.844 12.5345C39.791 12.5473 39.736 12.5497 39.6821 12.5416C39.6316 12.5333 39.5836 12.514 39.5413 12.4853C39.4958 12.4597 39.4572 12.4234 39.4287 12.3797C39.3937 12.3376 39.3717 12.2863 39.3654 12.2319L38.9853 10.6342C38.9642 10.5856 38.9569 10.532 38.9642 10.4794C38.9724 10.4266 38.9917 10.376 39.0209 10.3312C39.05 10.2863 39.0882 10.2481 39.1331 10.219C39.1758 10.1849 39.2268 10.163 39.2809 10.1556C40.041 9.99377 40.8223 9.85301 41.5824 9.74744H41.6387C41.7245 9.74834 41.8079 9.77534 41.878 9.82486C41.9411 9.88019 41.9894 9.95032 42.0187 10.029L42.4762 11.5703C42.4976 11.6263 42.5048 11.6868 42.4973 11.7463C42.4893 11.8034 42.4701 11.8584 42.441 11.9081Z" fill="#4BA0EA"/>
<path d="M34.7273 10.9583C34.0235 11.1836 33.3056 11.444 32.6088 11.7325C32.5504 11.755 32.4884 11.7669 32.4258 11.7677C32.364 11.7607 32.3042 11.7416 32.2499 11.7114C32.2007 11.674 32.1579 11.6288 32.1232 11.5777C32.094 11.5254 32.0749 11.4681 32.0669 11.4088L31.8698 9.7689C31.8581 9.68204 31.8751 9.59372 31.9184 9.51746C31.9616 9.4412 32.0286 9.3812 32.1091 9.34662C32.7848 9.06509 33.4886 8.77653 34.1854 8.55835H34.305C34.3758 8.55103 34.4471 8.56578 34.5091 8.60057C34.5595 8.63087 34.6027 8.67169 34.6358 8.72022C34.6704 8.76862 34.6944 8.82378 34.7062 8.8821L34.9877 10.5149C35.0002 10.6093 34.983 10.7053 34.9384 10.7894C34.8889 10.8677 34.8145 10.9272 34.7273 10.9583Z" fill="#4BA0EA"/>
<path d="M35.227 13.7873L32.9466 14.6178C32.8903 14.6468 32.8268 14.6591 32.7636 14.653C32.7008 14.6517 32.6396 14.6322 32.5877 14.5967C32.5387 14.5618 32.4959 14.519 32.461 14.47C32.4308 14.4161 32.4139 14.3558 32.4117 14.2941L32.2076 12.6612C32.1981 12.5737 32.2153 12.4854 32.2569 12.4079C32.2999 12.3304 32.3664 12.2688 32.4469 12.2319C33.1859 11.9293 33.946 11.6477 34.6851 11.3873C34.7984 11.3598 34.9177 11.3723 35.0229 11.4225C35.0718 11.4574 35.1147 11.5002 35.1496 11.5492C35.1798 11.5985 35.199 11.6537 35.2059 11.7111L35.5085 13.3439C35.5199 13.439 35.4981 13.535 35.4468 13.6158C35.3955 13.6966 35.3178 13.7572 35.227 13.7873Z" fill="#4BA0EA"/>
<path d="M38.246 9.83242C38.2185 9.87644 38.1826 9.91469 38.1405 9.94503C38.101 9.97989 38.052 10.002 37.9997 10.0084C37.2818 10.1914 36.5639 10.3744 35.8672 10.5996C35.7551 10.6175 35.6404 10.5951 35.5434 10.5362C35.4976 10.508 35.459 10.4694 35.4308 10.4236C35.3967 10.381 35.3749 10.3299 35.3675 10.2758L35.0648 8.63594C35.0454 8.53924 35.063 8.43879 35.1141 8.35442C35.1654 8.26607 35.2484 8.20063 35.3463 8.17143C36.022 7.97436 36.7258 7.79137 37.4226 7.62949H37.5211C37.614 7.62736 37.7044 7.65999 37.7745 7.72099C37.8442 7.7799 37.8894 7.86274 37.9012 7.95325L38.3024 9.54386C38.3158 9.64362 38.2961 9.74505 38.246 9.83242Z" fill="#4BA0EA"/>
<path d="M48.0367 16.7014C48.0043 16.7501 47.9638 16.793 47.917 16.8281C47.8696 16.8644 47.8141 16.8886 47.7552 16.8985C46.8543 17.004 45.9323 17.1448 45.0173 17.3067C44.922 17.3243 44.8235 17.3041 44.7428 17.2504C44.6583 17.198 44.5977 17.1146 44.5739 17.0181L44.0953 15.5049C44.0824 15.4472 44.0801 15.3876 44.0883 15.329C44.1 15.2684 44.1239 15.2109 44.1587 15.16C44.1872 15.1103 44.2285 15.069 44.2783 15.0404C44.3261 15.0071 44.3821 14.9876 44.4402 14.9841C45.3129 14.8433 46.2349 14.7378 47.1147 14.6392H47.1569C47.2376 14.6377 47.3167 14.6624 47.3821 14.7096C47.4503 14.7574 47.5039 14.8232 47.537 14.8996L48.0719 16.3565C48.0987 16.411 48.1085 16.4723 48.1 16.5325C48.0939 16.5933 48.0721 16.6516 48.0367 16.7014Z" fill="#4BA0EA"/>
<path d="M37.5846 7.04583C37.5544 7.09006 37.5162 7.12825 37.472 7.15844C37.4293 7.1925 37.3783 7.21438 37.3242 7.22178C36.6626 7.38366 36.0081 7.54554 35.3676 7.74964C35.2583 7.77875 35.142 7.76358 35.0438 7.70741C34.9941 7.67884 34.9528 7.63755 34.9242 7.58777C34.8921 7.5394 34.8727 7.48373 34.8679 7.42589L34.5653 5.79304C34.5437 5.69429 34.5608 5.591 34.6132 5.50455C34.6656 5.41809 34.7492 5.35508 34.8468 5.32853C35.4872 5.1385 36.1277 4.97662 36.7612 4.8429H36.8456C36.9377 4.83813 37.0282 4.86829 37.099 4.92735C37.175 4.98709 37.2274 5.0719 37.2468 5.16665L37.6198 6.75727C37.6468 6.85432 37.6341 6.95811 37.5846 7.04583Z" fill="#4BA0EA"/>
<path d="M38.6615 12.8022L36.367 13.4286C36.3121 13.4438 36.2548 13.4486 36.1981 13.4427C36.1432 13.4347 36.0905 13.4155 36.0433 13.3864C35.999 13.3562 35.9609 13.318 35.9307 13.2738C35.8966 13.2285 35.8748 13.1751 35.8673 13.119L35.5647 11.4861C35.5512 11.3886 35.571 11.2894 35.621 11.2046C35.6734 11.1201 35.7527 11.0556 35.8462 11.0216C36.5852 10.7964 37.3453 10.5993 38.0843 10.4163C38.135 10.4024 38.188 10.399 38.24 10.4063C38.292 10.4136 38.342 10.4313 38.387 10.4585C38.4793 10.512 38.5493 10.597 38.584 10.6978L38.9641 12.3166C38.9769 12.3672 38.9793 12.4199 38.9711 12.4714C38.9654 12.5259 38.9487 12.5786 38.9219 12.6263C38.8917 12.6705 38.8535 12.7087 38.8093 12.7389C38.764 12.7683 38.714 12.7897 38.6615 12.8022Z" fill="#4BA0EA"/>
<path d="M41.6178 9.20611C41.5454 9.29502 41.4469 9.35901 41.3363 9.38911C40.5973 9.48764 39.8794 9.60729 39.1615 9.76916C39.0553 9.78791 38.946 9.7646 38.8567 9.70418C38.7673 9.64376 38.705 9.55096 38.6829 9.44541L38.3029 7.86887C38.2822 7.75769 38.3022 7.64279 38.3592 7.54512C38.3912 7.5025 38.4292 7.46459 38.4718 7.43251C38.5152 7.3998 38.5659 7.37807 38.6196 7.36916C39.3234 7.24248 40.0413 7.12283 40.7592 7.04541H40.8014C40.8872 7.04631 40.9706 7.07332 41.0407 7.12283C41.113 7.17403 41.1692 7.24485 41.2026 7.32694L41.66 8.86125C41.6751 8.9186 41.6799 8.97818 41.6741 9.0372C41.6682 9.09701 41.649 9.15474 41.6178 9.20611Z" fill="#4BA0EA"/>
<path d="M40.78 6.47492C40.7531 6.52731 40.713 6.57177 40.6636 6.60386C40.6142 6.63596 40.5573 6.65459 40.4985 6.65791L38.4856 6.98166C38.4362 6.99231 38.3852 6.99282 38.3355 6.98314C38.2859 6.97346 38.2388 6.9538 38.197 6.92536C38.1095 6.86831 38.0467 6.78035 38.0211 6.67902L37.641 5.10248C37.619 4.99043 37.6417 4.8742 37.7044 4.77873C37.7343 4.73228 37.7724 4.69172 37.817 4.65908C37.8623 4.62966 37.9123 4.60823 37.9648 4.59574C38.6193 4.4972 39.2809 4.39867 39.9425 4.33533H39.9847C40.0683 4.3363 40.1495 4.36337 40.217 4.41275C40.2858 4.46274 40.3355 4.53476 40.3578 4.61685L40.8434 6.15116C40.859 6.26313 40.8367 6.37708 40.78 6.47492Z" fill="#4BA0EA"/>
<path d="M46.0799 11.4654C46.0482 11.5194 46.0019 11.5633 45.9462 11.5921C45.8958 11.6253 45.8375 11.6447 45.7773 11.6484C44.9749 11.7117 44.1585 11.8102 43.3562 11.9088C43.2617 11.9277 43.1636 11.9101 43.0817 11.8595C43.0008 11.8048 42.9431 11.722 42.9198 11.6272L42.4623 10.1352C42.4412 10.0766 42.434 10.014 42.4412 9.95217C42.4569 9.89393 42.4831 9.83906 42.5186 9.7903C42.5441 9.73679 42.5828 9.69073 42.6312 9.65657C42.6812 9.62338 42.7402 9.6062 42.8002 9.6073C43.5955 9.50877 44.3978 9.44543 45.2002 9.4032H45.2142C45.2966 9.4107 45.3761 9.4372 45.4465 9.48062C45.5126 9.52885 45.5638 9.5947 45.5943 9.67065L46.1151 11.0994C46.1437 11.1584 46.1558 11.2241 46.1503 11.2894C46.1418 11.353 46.1176 11.4135 46.0799 11.4654Z" fill="#4BA0EA"/>
<path d="M43.2786 14.6177C43.25 14.6675 43.2087 14.7088 43.159 14.7374C43.1111 14.7717 43.0555 14.7935 42.9971 14.8007L40.4985 15.3004C40.4491 15.3146 40.3972 15.3181 40.3462 15.3108C40.2953 15.3036 40.2465 15.2856 40.2029 15.2582C40.1575 15.2332 40.1177 15.1991 40.0862 15.1578C40.0547 15.1166 40.0321 15.0693 40.02 15.0189L39.6399 13.4283C39.6251 13.3185 39.6397 13.2068 39.6821 13.1045C39.7143 13.0567 39.7559 13.0158 39.8042 12.9844C39.8526 12.9529 39.9068 12.9316 39.9636 12.9215C40.7589 12.7386 41.5824 12.5978 42.3988 12.457H42.4551C42.5411 12.457 42.6248 12.4841 42.6944 12.5345C42.7646 12.5832 42.8146 12.6557 42.8352 12.7386L43.3208 14.294C43.336 14.3489 43.3408 14.4062 43.3349 14.4629C43.3269 14.5178 43.3077 14.5705 43.2786 14.6177Z" fill="#4BA0EA"/>
<path d="M32.447 20.8185C31.5672 21.1633 30.6663 21.5293 29.7936 21.9094C29.734 21.9358 29.6683 21.9456 29.6036 21.9375C29.5408 21.9262 29.481 21.9023 29.4278 21.8672C29.3746 21.8321 29.329 21.7866 29.2939 21.7334C29.2583 21.6758 29.2366 21.6108 29.2305 21.5434L29.1531 19.9739C29.1443 19.8932 29.1616 19.8118 29.2024 19.7416C29.2403 19.6729 29.2996 19.6186 29.3713 19.5868C30.2511 19.1856 31.1097 18.7985 31.9684 18.4536C32.0268 18.4312 32.0888 18.4192 32.1514 18.4185C32.2138 18.4222 32.2743 18.4415 32.3273 18.4748C32.383 18.5035 32.4294 18.5474 32.461 18.6014C32.4955 18.6544 32.5172 18.7146 32.5244 18.7774L32.7074 20.3962C32.7176 20.4856 32.6975 20.5758 32.6503 20.6524C32.603 20.729 32.5314 20.7875 32.447 20.8185Z" fill="#4BA0EA"/>
<path d="M45.0947 8.83903C45.073 8.89706 45.0303 8.94481 44.975 8.97275C44.9225 9.00611 44.8613 9.02324 44.7991 9.02202L42.5398 9.22613C42.4455 9.23282 42.3515 9.20817 42.2726 9.15598C42.1937 9.1038 42.1342 9.02702 42.1035 8.93756L41.6389 7.44548C41.6202 7.38639 41.6154 7.32375 41.6249 7.26249C41.6374 7.20312 41.6639 7.14762 41.7023 7.10061C41.7284 7.04544 41.77 6.999 41.8219 6.96689C41.8748 6.93427 41.9358 6.9172 41.9979 6.91762C42.7369 6.86132 43.4829 6.81909 44.236 6.79797C44.3196 6.79895 44.4008 6.82602 44.4683 6.87539C44.5341 6.92087 44.5855 6.98442 44.6161 7.05838L45.1369 8.47305C45.1654 8.53209 45.1776 8.59772 45.1721 8.66308C45.1643 8.7281 45.1373 8.78934 45.0947 8.83903Z" fill="#4BA0EA"/>
<path d="M28.7096 19.1854C28.7094 19.2648 28.6875 19.3427 28.6463 19.4106C28.6034 19.4778 28.5424 19.5315 28.4703 19.5655C27.4357 20.0511 26.373 20.593 25.3384 21.1631V18.8194C26.2393 18.2916 27.1401 17.7919 28.034 17.3062C28.0909 17.2716 28.1577 17.2568 28.224 17.264C28.2926 17.2635 28.3595 17.2858 28.414 17.3273C28.4725 17.3575 28.5231 17.4009 28.5618 17.454C28.5946 17.512 28.6116 17.5775 28.6111 17.6441L28.7096 19.1854Z" fill="#4BA0EA"/>
<path d="M28.5337 16.3141C28.542 16.3947 28.5248 16.476 28.4844 16.5463C28.4465 16.615 28.3872 16.6694 28.3155 16.7012C27.3372 17.222 26.3378 17.771 25.3384 18.3551V16.0325C26.1759 15.4836 27.0135 14.9628 27.851 14.4771C27.9149 14.4468 27.9844 14.4301 28.0551 14.4279C28.1236 14.43 28.1908 14.4468 28.2522 14.4771C28.3108 14.5137 28.3593 14.5645 28.3929 14.6249C28.4286 14.685 28.4502 14.7524 28.4563 14.822L28.5337 16.3141Z" fill="#4BA0EA"/>
<path d="M28.8715 22.0079C28.8721 22.0919 28.8502 22.1745 28.8082 22.2472C28.7681 22.3201 28.7067 22.379 28.6322 22.4161C27.5343 22.8994 26.4363 23.4178 25.3384 23.9715V21.6278C26.2956 21.1 27.2527 20.6003 28.1959 20.1357C28.2553 20.1078 28.3202 20.0933 28.3859 20.0935C28.4517 20.1024 28.5158 20.1214 28.5759 20.1498C28.6324 20.1838 28.6786 20.2325 28.7096 20.2906C28.7442 20.3461 28.7658 20.4086 28.773 20.4736L28.8715 22.0079Z" fill="#4BA0EA"/>
<path d="M44.0946 17.3277C44.0695 17.3774 44.0334 17.4207 43.989 17.4544C43.945 17.4876 43.8947 17.5115 43.8412 17.5247C42.9614 17.6866 42.0606 17.8907 41.1808 18.0948C41.1302 18.1076 41.0775 18.11 41.026 18.1019C40.9703 18.0971 40.9169 18.0777 40.8711 18.0456C40.8271 18.018 40.7889 17.9821 40.7585 17.94C40.7306 17.8947 40.7115 17.8446 40.7022 17.7922L40.301 16.1945C40.2898 16.1425 40.2896 16.0886 40.3005 16.0365C40.3115 15.9843 40.3332 15.9351 40.3644 15.8919C40.3874 15.845 40.421 15.804 40.4625 15.7722C40.504 15.7405 40.5524 15.7188 40.6037 15.7089C41.4834 15.5048 42.3562 15.3218 43.2219 15.181C43.3191 15.1662 43.4185 15.1863 43.5023 15.2379C43.586 15.2894 43.6488 15.3691 43.6793 15.4626L44.1368 17.0039C44.1579 17.0551 44.1652 17.1109 44.1579 17.1658C44.1507 17.2242 44.1289 17.2799 44.0946 17.3277Z" fill="#4BA0EA"/>
<path d="M40.0202 18.3974C39.1404 18.6226 38.2607 18.869 37.3809 19.1223C37.3297 19.1434 37.2739 19.1507 37.219 19.1435C37.1628 19.136 37.1095 19.1141 37.0642 19.0801C37.0124 19.0517 36.9688 19.0105 36.9375 18.9605C36.9012 18.9131 36.877 18.8575 36.8671 18.7986L36.5856 17.1657C36.5658 17.0668 36.5833 16.964 36.6348 16.8772C36.687 16.791 36.7701 16.7281 36.8671 16.7012L39.4431 15.9904H39.5205C39.5978 15.9896 39.6737 16.0116 39.7387 16.0537C39.7851 16.0827 39.8251 16.1206 39.8566 16.1654C39.888 16.2101 39.9101 16.2607 39.9217 16.3141L40.3017 17.9118C40.3207 18.013 40.3032 18.1178 40.2524 18.2074C40.1995 18.2958 40.1173 18.363 40.0202 18.3974Z" fill="#4BA0EA"/>
<path d="M36.2263 19.4891C35.3677 19.7706 34.4668 20.0732 33.6081 20.397C33.5484 20.4125 33.4865 20.4172 33.4251 20.4111C33.3636 20.4031 33.3039 20.384 33.2492 20.3548C33.1988 20.3208 33.1577 20.2748 33.1295 20.221C33.0941 20.1712 33.0723 20.113 33.0662 20.0521L32.8902 18.4193C32.8756 18.3302 32.8905 18.2388 32.9325 18.1589C32.9768 18.0816 33.0464 18.0219 33.1295 17.9899L35.7055 17.082H35.8251C35.898 17.0824 35.969 17.1044 36.0292 17.1454C36.0767 17.1709 36.1176 17.2071 36.1489 17.2509C36.1843 17.2972 36.2106 17.3497 36.2263 17.4058L36.5078 19.0386C36.5209 19.1348 36.4999 19.2325 36.4485 19.3148C36.3971 19.397 36.3185 19.4587 36.2263 19.4891Z" fill="#4BA0EA"/>
<path d="M28.3718 13.464C28.3791 13.5416 28.3645 13.6196 28.3296 13.6892C28.2954 13.7575 28.2414 13.8139 28.1747 13.8511C27.2176 14.3813 26.2721 14.9467 25.3384 15.5473V13.2247C26.1126 12.6758 26.8938 12.1338 27.6962 11.6482C27.7516 11.6136 27.8142 11.592 27.8791 11.5848C27.9471 11.5846 28.0143 11.599 28.0762 11.6271C28.1371 11.6632 28.1879 11.714 28.224 11.7749C28.2648 11.833 28.2891 11.9011 28.2944 11.9719L28.3718 13.464Z" fill="#4BA0EA"/>
<path d="M36.9021 4.27182C36.8727 4.31571 36.8342 4.35284 36.7893 4.38075C36.7444 4.40866 36.6941 4.42671 36.6417 4.4337L34.8681 4.89821C34.8144 4.91897 34.7564 4.92622 34.6992 4.91933C34.6443 4.91128 34.5916 4.89212 34.5443 4.86302C34.4972 4.82865 34.4547 4.78845 34.4177 4.74337C34.38 4.69409 34.3557 4.6359 34.3473 4.57446L34.0657 2.94161C34.0441 2.84285 34.0613 2.73957 34.1137 2.65312C34.1661 2.56666 34.2497 2.50365 34.3473 2.4771C34.9244 2.31522 35.5015 2.17446 36.1068 2.05481H36.1842C36.2744 2.05623 36.3613 2.08853 36.4306 2.14631C36.5 2.20647 36.5471 2.2883 36.5643 2.37856L36.9655 3.96918C36.9801 4.07435 36.9577 4.18135 36.9021 4.27182Z" fill="#3064C0"/>
<path d="M43.1381 3.61003C43.0582 3.70624 42.9452 3.76902 42.8214 3.78599C42.1598 3.78599 41.5193 3.8071 40.8788 3.84933C40.7875 3.85705 40.6961 3.83482 40.6184 3.78599C40.543 3.73354 40.4882 3.65636 40.4636 3.5678L40.0202 2.0898C40.0023 2.03054 39.9952 1.96857 39.9991 1.90681C40.0052 1.8438 40.027 1.78331 40.0624 1.73085C40.099 1.6802 40.1473 1.63914 40.2032 1.61121C40.2576 1.58317 40.3179 1.56868 40.3791 1.56898H42.3005C42.3814 1.56325 42.4618 1.58621 42.5274 1.63384C42.5931 1.68147 42.6398 1.7507 42.6595 1.82939L43.1803 3.22294C43.2067 3.28505 43.2164 3.35298 43.2085 3.42C43.2034 3.48871 43.179 3.55458 43.1381 3.61003Z" fill="#4BA0EA"/>
<path d="M44.5878 1.46354C44.5662 1.49221 44.5369 1.51417 44.5034 1.52688C44.4725 1.54127 44.4388 1.54849 44.4048 1.548H43.0465C42.9987 1.54219 42.9529 1.52532 42.9127 1.49873C42.8729 1.47155 42.8432 1.43196 42.8283 1.38612L42.5468 0.351515C42.5398 0.316674 42.5398 0.280784 42.5468 0.245943C42.5535 0.212568 42.568 0.181233 42.589 0.154448C42.6053 0.126502 42.6299 0.104352 42.6594 0.0911047C42.6877 0.0767971 42.7191 0.0695534 42.7509 0.0699903H42.8283C43.2487 0.0629649 43.6691 0.0770589 44.0881 0.112219C44.1304 0.113167 44.1717 0.12531 44.2078 0.14741C44.2432 0.174449 44.27 0.211095 44.2852 0.252982L44.623 1.24536C44.6359 1.28149 44.6383 1.32051 44.6301 1.35797C44.6247 1.39604 44.6102 1.43225 44.5878 1.46354Z" fill="#4BA0EA"/>
<path d="M47.1141 5.98991C47.08 6.04445 47.0312 6.08833 46.9734 6.11659C46.9174 6.1489 46.8548 6.16814 46.7904 6.1729C46.1006 6.20105 45.4039 6.24328 44.693 6.29255C44.6014 6.30375 44.5088 6.28124 44.4326 6.2292C44.3583 6.17555 44.3039 6.09884 44.2778 6.01102L43.8133 4.51894C43.7945 4.45985 43.7897 4.39721 43.7992 4.33595C43.8117 4.27658 43.8382 4.22108 43.8766 4.17407C43.9499 4.07612 44.0584 4.01051 44.1792 3.99108C44.7775 3.94885 45.3968 3.94885 46.0162 3.94885H46.2766C46.3559 3.94985 46.4326 3.97708 46.4948 4.02627C46.5604 4.07338 46.6096 4.13983 46.6355 4.2163L47.1564 5.60985C47.1799 5.67273 47.1895 5.73997 47.1845 5.80692C47.176 5.87266 47.1519 5.9354 47.1141 5.98991Z" fill="#3064C0"/>
<path d="M28.2099 10.5992C28.2171 10.6745 28.2024 10.7502 28.1677 10.8174C28.1335 10.8857 28.0796 10.9421 28.0129 10.9793C27.112 11.5071 26.2181 12.1124 25.3384 12.7388V10.4374C26.0312 9.85588 26.7573 9.31537 27.5132 8.81859C27.5713 8.7778 27.6394 8.75348 27.7102 8.74821C27.7817 8.74347 27.8529 8.76066 27.9143 8.79747C27.973 8.83045 28.0235 8.87614 28.0621 8.9312C28.1018 8.98732 28.126 9.05283 28.1325 9.12123L28.2099 10.5992Z" fill="#4BA0EA"/>
<path d="M28.0551 7.72757C28.0573 7.80104 28.0403 7.87382 28.0058 7.93871C27.9712 8.00492 27.9172 8.05895 27.851 8.09355C26.983 8.6566 26.1454 9.26188 25.3384 9.90939V7.65015C25.9706 7.05679 26.6381 6.50212 27.3372 5.98915C27.3892 5.94042 27.4562 5.91066 27.5272 5.9047C27.599 5.89559 27.6716 5.91312 27.7313 5.95396C27.7988 5.9823 27.8572 6.02855 27.9003 6.08769C27.9433 6.1473 27.9678 6.21831 27.9706 6.29179L28.0551 7.72757Z" fill="#4BA0EA"/>
<path d="M33.7066 5.26385C33.1084 5.46796 32.5312 5.68614 31.9471 5.93247C31.8896 5.95815 31.827 5.9702 31.7641 5.96766C31.7019 5.96284 31.6416 5.94356 31.5881 5.91136C31.5355 5.87848 31.4901 5.8354 31.4544 5.78467C31.42 5.73171 31.3983 5.67148 31.3911 5.60872L31.2081 3.96884C31.1998 3.8814 31.2169 3.79344 31.2573 3.71546C31.3028 3.64181 31.3689 3.5831 31.4474 3.54655C32.0104 3.30725 32.5875 3.06092 33.1647 2.85681H33.3054L33.5095 2.89904C33.6069 2.96619 33.6768 3.06611 33.7066 3.18057L33.9881 4.82045C34.0011 4.91569 33.9813 5.01251 33.9318 5.09493C33.8767 5.17386 33.7978 5.23305 33.7066 5.26385Z" fill="#4BA0EA"/>
<path d="M31.032 6.03118C31.0467 6.11571 31.0318 6.2027 30.9898 6.27752C30.9502 6.35251 30.8889 6.41382 30.8139 6.45347C30.2086 6.74203 29.5892 7.06579 29.0121 7.40362C28.9539 7.43565 28.8885 7.45245 28.8221 7.45245C28.7556 7.45245 28.6903 7.43565 28.632 7.40362C28.5664 7.37546 28.5102 7.32905 28.4702 7.26989C28.4313 7.20907 28.4117 7.13794 28.4139 7.06579L28.3364 5.52444C28.3288 5.45631 28.3391 5.38737 28.3662 5.32442C28.3934 5.26147 28.4365 5.20669 28.4913 5.16549C29.0754 4.7784 29.6737 4.43353 30.2719 4.10978L30.4479 4.07458L30.652 4.10978C30.7571 4.18814 30.8277 4.30418 30.849 4.43353L31.032 6.03118Z" fill="#4BA0EA"/>
<path d="M21.6645 5.26406C20.789 4.65501 19.861 4.12506 18.8915 3.68048C18.0092 3.25226 17.0965 2.88998 16.1607 2.59661C15.2509 2.31371 14.3248 2.08574 13.3877 1.91391C12.4369 1.75197 11.4785 1.63921 10.5161 1.57608C9.6645 1.54089 8.77066 1.51977 7.87682 1.562C7.76163 1.56075 7.64904 1.59624 7.55539 1.66332C7.46174 1.73039 7.39189 1.82556 7.356 1.93502L6.53957 4.08869L5.61054 6.61537L4.66039 9.1491L3.73136 11.6758L2.78122 14.2095L2.09852 16.0324C2.06292 16.1143 2.0484 16.2038 2.05629 16.2928C2.06471 16.3794 2.09107 16.4633 2.13371 16.5391C2.18163 16.6139 2.24381 16.6785 2.3167 16.7292C2.39073 16.7769 2.47528 16.8059 2.56303 16.8136C3.63283 16.9544 4.68151 17.1092 5.72315 17.3063C6.76479 17.5034 8.24984 17.813 9.48855 18.1297C10.7273 18.4465 11.9871 18.7773 13.2328 19.1643C14.4786 19.5514 15.7102 19.9878 16.956 20.4594C18.2017 20.9309 19.4756 21.4377 20.7144 21.9866C21.9531 22.5356 23.6704 23.3098 24.9302 23.9362V7.65702C24.0293 6.81948 22.678 5.95379 21.6645 5.26406Z" fill="#3064C0"/>
<path d="M22.5234 5.17981C21.7896 4.51136 21.0062 3.89962 20.1797 3.3499C19.4204 2.85063 18.6306 2.39931 17.8149 1.99858C17.017 1.63412 16.1993 1.31456 15.3656 1.04139C14.5281 0.773943 12.7897 0.414998 12.7897 0.414998C11.9931 0.274075 11.1896 0.175404 10.3826 0.119397C10.275 0.111541 10.168 0.141403 10.08 0.203855C9.98933 0.268588 9.9245 0.363336 9.89701 0.471303L9.14393 2.64608L8.25009 5.23611L7.34217 7.82614L6.42722 10.4514L5.5193 13.0977L4.85771 15.0191C4.8217 15.1068 4.80495 15.2012 4.80859 15.2959C4.81224 15.3906 4.83619 15.4834 4.87883 15.5681C4.91938 15.6518 4.97979 15.7242 5.05478 15.7792C5.12512 15.8398 5.21001 15.881 5.30112 15.8989C6.31461 16.0959 7.29994 16.3352 8.29232 16.5886C9.28469 16.842 10.636 17.2361 11.7832 17.6302C12.9304 18.0244 14.0495 18.4326 15.1545 18.883C16.2595 19.3335 17.3645 19.8402 18.4483 20.354C19.5322 20.8678 20.6442 21.4731 21.6929 22.0572C22.7416 22.6414 23.8606 23.31 24.9304 23.9786V7.65723C24.188 6.77528 23.3836 5.94737 22.5234 5.17981Z" fill="#4BA0EA"/>
</svg>
